<svg width="112" height="155" viewBox="0 0 112 155" fill="none" xmlns="http://www.w3.org/2000/svg">
<g clip-path="url(#clip0_40_13895)">
<path d="M99.6247 80.052L111.445 68.0861C111.933 67.5925 112.162 66.8963 112.065 66.2063C111.969 65.5173 111.555 64.9127 110.952 64.5764L96.7402 56.6779C95.6811 56.0887 94.3504 56.4815 93.7684 57.554C93.1864 58.6276 93.573 59.9737 94.6332 60.5629L106.287 67.0403L96.1428 77.308L59.656 57.0275L69.7993 46.7598L97.2688 62.0272C98.328 62.6154 99.6607 62.2247 100.242 61.1511C100.824 60.0786 100.437 58.7304 99.3769 58.1422L70.4667 42.0737C69.6132 41.5997 68.553 41.7529 67.8651 42.4491L56.0435 54.4156L44.222 42.4491C43.533 41.7529 42.4738 41.6007 41.6203 42.0737L1.13539 64.5775C0.53177 64.9137 0.118386 65.5163 0.0217239 66.2073C-0.0749381 66.8973 0.154377 67.5945 0.6418 68.0871L12.4623 80.053L0.6418 92.016C0.154377 92.51 -0.0749381 93.205 0.0217239 93.896C0.118386 94.586 0.53177 95.191 1.13539 95.525L13.3693 102.325V125.055C13.3693 125.864 13.8043 126.609 14.5056 126.998L54.9905 149.5C55.3185 149.683 55.6805 149.774 56.0435 149.774C56.4065 149.774 56.7685 149.683 57.0975 149.5L97.5824 126.998C98.2817 126.609 98.7177 125.864 98.7177 125.055V102.325L110.952 95.526C111.555 95.191 111.969 94.586 112.065 93.896C112.162 93.207 111.933 92.51 111.445 92.017L99.6247 80.052ZM56.0435 100.024L20.1068 80.051L56.0435 60.0755L91.9802 80.051L56.0435 100.024ZM42.2887 46.7598L52.431 57.0275L15.9442 77.308L5.80087 67.0403L42.2887 46.7598ZM15.9463 82.793L52.4331 103.075L42.2887 113.343L5.79985 93.062L15.9452 82.792L15.9463 82.793ZM94.3381 123.745L58.2328 143.813V61.1233C58.2328 59.8996 57.2528 58.9073 56.0435 58.9073C54.8342 58.9073 53.8542 59.8996 53.8542 61.1233V143.813L17.7489 123.745V104.76L41.6213 118.028C41.9524 118.213 42.3154 118.302 42.6743 118.302C43.2409 118.302 43.8024 118.079 44.223 117.653L56.0435 105.687L67.8651 117.653C68.2867 118.08 68.8471 118.302 69.4137 118.302C69.7736 118.302 70.1356 118.213 70.4667 118.028L94.3381 104.76V123.745ZM69.7993 113.343L59.655 103.074L96.1418 82.793L106.287 93.062L69.7993 113.343Z" fill="#76BDC2" fill-opacity="0.4"/>
<path d="M91.8731 33.7348L104.235 27.1906M9.6084 25.4353L21.9696 33.4338M56.9214 22.8235V8.28079" stroke="#76BDC2" stroke-opacity="0.4" stroke-width="5.5" stroke-linecap="round"/>
</g>
<defs>
<clipPath id="clip0_40_13895">
<rect width="112" height="155" fill="white"/>
</clipPath>
</defs>
</svg>
