<svg width="323" height="248" viewBox="0 0 323 248" fill="none" xmlns="http://www.w3.org/2000/svg">
<circle cx="143.716" cy="134.199" r="113.673" fill="#76BDC2" fill-opacity="0.25"/>
<path d="M310.292 89.1793C311.558 89.1793 312.529 88.8187 313.408 88.162C314.261 87.5239 315.021 86.6088 315.881 85.5371L315.965 85.4328C317.602 83.391 319.26 81.3246 322.5 81.1318V83.0163C321.472 83.0999 320.644 83.4463 319.885 84.0139C319.032 84.6519 318.272 85.5671 317.412 86.6388L317.328 86.743C315.608 88.8873 313.867 91.0587 310.292 91.0587C306.718 91.0587 304.976 88.8873 303.257 86.7431C303.229 86.7083 303.201 86.6735 303.173 86.6388C302.313 85.5671 301.553 84.6519 300.7 84.0139C299.821 83.3572 298.85 82.9965 297.584 82.9965C296.318 82.9965 295.347 83.3572 294.469 84.0139C293.615 84.6519 292.855 85.5671 291.995 86.6388C291.967 86.6735 291.94 86.7083 291.912 86.7431C290.192 88.8873 288.45 91.0587 284.876 91.0587C281.301 91.0587 279.56 88.8873 277.84 86.7431C277.812 86.7083 277.784 86.6735 277.756 86.6388C276.896 85.5671 276.137 84.6519 275.283 84.0139C274.405 83.3572 273.434 82.9965 272.168 82.9965C270.902 82.9965 269.931 83.3572 269.052 84.0139C268.199 84.6519 267.439 85.5671 266.579 86.6388C266.551 86.6735 266.523 86.7083 266.495 86.7431C264.776 88.8873 263.034 91.0587 259.46 91.0587C255.885 91.0587 254.143 88.8873 252.424 86.743C252.396 86.7083 252.368 86.6735 252.34 86.6388C251.48 85.5671 250.72 84.6519 249.867 84.0139C248.988 83.3572 248.018 82.9965 246.751 82.9965C245.485 82.9965 244.514 83.3572 243.636 84.0139C242.783 84.6519 242.023 85.5671 241.163 86.6388C241.135 86.6735 241.107 86.7083 241.079 86.7431C239.359 88.8873 237.618 91.0587 234.043 91.0587C230.469 91.0587 228.727 88.8873 227.007 86.7431C226.979 86.7083 226.952 86.6735 226.924 86.6388C226.064 85.5671 225.304 84.6519 224.45 84.0139C223.691 83.4463 222.863 83.0999 221.835 83.0163V81.1318C225.076 81.3246 226.733 83.391 228.371 85.4328C228.399 85.4676 228.427 85.5023 228.454 85.5371C229.314 86.6088 230.074 87.5239 230.928 88.162C231.806 88.8187 232.777 89.1793 234.043 89.1793C235.309 89.1793 236.28 88.8187 237.159 88.162C238.012 87.5239 238.772 86.6088 239.632 85.5371C239.66 85.5023 239.688 85.4676 239.716 85.4328C241.435 83.2886 243.177 81.1172 246.751 81.1172C250.326 81.1172 252.067 83.2886 253.787 85.4328C253.815 85.4676 253.843 85.5023 253.871 85.5371C254.731 86.6088 255.491 87.5239 256.344 88.162C257.222 88.8187 258.193 89.1793 259.46 89.1793C260.726 89.1793 261.697 88.8187 262.575 88.162C263.428 87.5239 264.188 86.6088 265.048 85.5371C265.076 85.5023 265.104 85.4676 265.132 85.4328C266.852 83.2886 268.593 81.1172 272.168 81.1172C275.742 81.1172 277.484 83.2886 279.204 85.4328C279.231 85.4676 279.259 85.5023 279.287 85.5371C280.147 86.6088 280.907 87.5239 281.76 88.162C282.639 88.8187 283.61 89.1793 284.876 89.1793C286.142 89.1793 287.113 88.8187 287.991 88.162C288.845 87.5239 289.605 86.6088 290.465 85.5371C290.493 85.5023 290.52 85.4676 290.548 85.4328C292.268 83.2886 294.01 81.1172 297.584 81.1172C301.159 81.1172 302.9 83.2885 304.62 85.4328L304.704 85.5371C305.564 86.6088 306.323 87.5239 307.177 88.162C308.055 88.8187 309.026 89.1793 310.292 89.1793Z" fill="#76BDC2" stroke="#76BDC2"/>
<path d="M3.78433 175.071L3.78766 175.071C6.26344 175.107 7.68857 175.521 8.46333 176.286L3.78433 175.071ZM3.78433 175.071C3.44252 175.068 3.11579 174.931 2.87529 174.689C2.63483 174.447 2.50003 174.12 2.5 173.78C2.5 173.78 2.5 173.78 2.5 173.78M3.78433 175.071L2.5 173.78M9.67761 180.952L9.67761 180.952C9.67638 183.45 9.23946 184.846 8.46333 185.611L8.46327 185.611C7.68884 186.375 6.26572 186.801 3.78433 186.819C3.44252 186.822 3.11579 186.959 2.87529 187.201C2.63483 187.443 2.50003 187.77 2.5 188.11C2.5 188.11 2.5 188.11 2.5 188.11V198.858C2.50003 199.2 2.63622 199.529 2.87887 199.771C3.12156 200.013 3.45088 200.15 3.79446 200.15H45.0657H48.6545H64.8041C65.1476 200.15 65.477 200.013 65.7196 199.771C65.9623 199.529 66.0985 199.2 66.0985 198.858V188.11C66.0985 187.77 65.9637 187.443 65.7232 187.201C65.4831 186.959 65.1571 186.822 64.8159 186.819C62.548 186.819 61.1171 186.383 60.2766 185.591C59.4268 184.791 58.9224 183.429 58.9209 180.945V180.945C58.9208 178.464 59.419 177.106 60.2698 176.305C61.1113 175.513 62.5505 175.087 64.8142 175.071C65.156 175.068 65.4827 174.931 65.7232 174.689C65.9637 174.447 66.0985 174.12 66.0985 173.78V163.032C66.0985 162.689 65.9623 162.361 65.7196 162.119C65.477 161.877 65.1476 161.74 64.8041 161.74H3.79445C3.79444 161.74 3.79442 161.74 3.7944 161.74C3.45085 161.74 3.12154 161.877 2.87887 162.119C2.63623 162.361 2.50005 162.689 2.5 163.032L9.67761 180.952ZM9.67761 180.952C9.6761 178.446 9.24039 177.052 8.46343 176.286L9.67761 180.952ZM2.5 173.78V163.032V173.78ZM5.58881 164.323H5.08881V164.823V172.534V172.979L5.53081 173.031C5.66903 173.047 5.80621 173.062 5.94226 173.078C6.76086 173.171 7.53849 173.259 8.25459 173.433C9.08256 173.634 9.77052 173.936 10.2844 174.443L10.2844 174.443C11.7712 175.91 12.2647 178.088 12.2664 180.945C12.2665 183.802 11.7718 185.979 10.2844 187.446C9.7703 187.953 9.08239 188.256 8.25456 188.457C7.53839 188.63 6.76066 188.719 5.94176 188.812C5.80588 188.827 5.66887 188.843 5.53082 188.859L5.08881 188.911V189.356V197.067V197.567H5.58881H45.0657H45.5657V197.067V193.984H48.1545V197.067V197.567H48.6545H63.0097H63.5097V197.067V189.349V188.908L63.0727 188.853C62.9166 188.833 62.7619 188.814 62.6087 188.795C61.8616 188.704 61.1506 188.617 60.4853 188.453C59.6924 188.259 59.0185 187.967 58.4951 187.473C56.9737 186.04 56.3338 183.828 56.3321 180.945C56.332 178.064 56.973 175.856 58.4949 174.424L58.495 174.423C59.0191 173.93 59.6934 173.637 60.4862 173.44C61.1562 173.275 61.873 173.186 62.6261 173.093C62.7737 173.075 62.9228 173.056 63.0731 173.037L63.5097 172.981V172.541V164.823V164.323H63.0097H48.6545H48.1545V164.823V171.488H45.5657V164.823V164.323H45.0657H5.58881ZM45.5657 185.819V179.654H48.1545V185.819H45.5657Z" fill="#76BDC2" stroke="#76BDC2"/>
<path d="M44.5617 214.821C44.1641 214.821 43.7828 214.979 43.5016 215.26C43.2205 215.54 43.0625 215.921 43.0625 216.318V225.298C43.0625 225.693 43.2189 226.072 43.4975 226.352C43.7761 226.632 44.1544 226.791 44.55 226.794C46.606 226.824 47.6466 227.173 48.1691 227.689C48.6916 228.204 49.058 229.218 49.0593 231.29C49.0583 233.356 48.691 234.371 48.1691 234.886C47.6465 235.401 46.606 235.759 44.55 235.774C44.1544 235.777 43.7761 235.936 43.4975 236.217C43.2189 236.497 43.0625 236.876 43.0625 237.271V246.251C43.0625 246.647 43.2205 247.028 43.5016 247.309C43.7828 247.589 44.1641 247.747 44.5617 247.747H79.0432H82.0416H95.5343C95.9319 247.747 96.3132 247.589 96.5944 247.309C96.8755 247.028 97.0335 246.647 97.0335 246.251V237.271C97.0335 236.876 96.8771 236.497 96.5985 236.217C96.3199 235.936 95.9416 235.777 95.546 235.774C93.6846 235.774 92.623 235.413 92.0381 234.862C91.4533 234.311 91.038 233.318 91.0367 231.284C91.0366 229.253 91.4473 228.263 92.0323 227.712C92.6173 227.161 93.6846 226.808 95.546 226.794C95.9416 226.791 96.3199 226.632 96.5985 226.352C96.8771 226.072 97.0335 225.693 97.0335 225.298V216.318C97.0335 215.921 96.8755 215.54 96.5944 215.26C96.3132 214.979 95.9319 214.821 95.5343 214.821H44.5617ZM46.0609 217.815H79.0432V223.801H82.0416V217.815H94.0351V224.263C92.5365 224.455 90.9967 224.571 89.9768 225.532C88.5833 226.844 88.0382 228.827 88.0383 231.284C88.0398 233.742 88.5837 235.73 89.9768 237.043C90.9962 238.003 92.5369 238.115 94.0351 238.306V244.754H82.0416V241.761H79.0432V244.754H46.0609V238.311C47.6503 238.126 49.2676 238.009 50.2774 237.014C51.6432 235.666 52.0578 233.702 52.0577 231.284C52.0562 228.867 51.6427 226.902 50.2774 225.555C49.268 224.559 47.65 224.443 46.0609 224.257V217.815ZM79.0432 229.788V235.774H82.0416V229.788H79.0432Z" fill="#3BA0A8"/>
<mask id="path-5-outside-1_1_5852" maskUnits="userSpaceOnUse" x="88" y="72" width="118" height="114" fill="black">
<rect fill="white" x="88" y="72" width="118" height="114"/>
<path d="M194.259 81.5926H179.222V75.1481C179.222 74.5784 178.996 74.032 178.593 73.6292C178.19 73.2263 177.644 73 177.074 73C176.504 73 175.958 73.2263 175.555 73.6292C175.152 74.032 174.926 74.5784 174.926 75.1481V81.5926H119.074V75.1481C119.074 74.5784 118.848 74.032 118.445 73.6292C118.042 73.2263 117.496 73 116.926 73C116.356 73 115.81 73.2263 115.407 73.6292C115.004 74.032 114.778 74.5784 114.778 75.1481V81.5926H99.7407C96.8921 81.5926 94.1602 82.7242 92.1459 84.7385C90.1316 86.7528 89 89.4847 89 92.3333V173.963C89 176.812 90.1316 179.544 92.1459 181.558C94.1602 183.572 96.8921 184.704 99.7407 184.704H194.259C197.108 184.704 199.84 183.572 201.854 181.558C203.868 179.544 205 176.812 205 173.963V92.3333C205 89.4847 203.868 86.7528 201.854 84.7385C199.84 82.7242 197.108 81.5926 194.259 81.5926ZM99.7407 85.8889H114.778V92.3333C114.778 92.9031 115.004 93.4494 115.407 93.8523C115.81 94.2552 116.356 94.4815 116.926 94.4815C117.496 94.4815 118.042 94.2552 118.445 93.8523C118.848 93.4494 119.074 92.9031 119.074 92.3333V85.8889H174.926V92.3333C174.926 92.9031 175.152 93.4494 175.555 93.8523C175.958 94.2552 176.504 94.4815 177.074 94.4815C177.644 94.4815 178.19 94.2552 178.593 93.8523C178.996 93.4494 179.222 92.9031 179.222 92.3333V85.8889H194.259C195.968 85.8889 197.608 86.5679 198.816 87.7764C200.025 88.985 200.704 90.6242 200.704 92.3333V103.074H93.2963V92.3333C93.2963 90.6242 93.9753 88.985 95.1838 87.7764C96.3924 86.5679 98.0316 85.8889 99.7407 85.8889ZM194.259 180.407H99.7407C98.0316 180.407 96.3924 179.728 95.1838 178.52C93.9753 177.311 93.2963 175.672 93.2963 173.963V107.37H200.704V173.963C200.704 175.672 200.025 177.311 198.816 178.52C197.608 179.728 195.968 180.407 194.259 180.407ZM172.778 132.633L158.471 130.527C158.268 130.503 158.075 130.426 157.909 130.306C157.744 130.186 157.612 130.025 157.526 129.84L151.124 116.951C150.773 116.235 150.23 115.63 149.554 115.205C148.879 114.78 148.099 114.552 147.301 114.545C146.503 114.552 145.722 114.78 145.047 115.205C144.372 115.63 143.828 116.235 143.477 116.951L137.076 129.84C136.993 130.028 136.862 130.191 136.696 130.311C136.53 130.432 136.335 130.507 136.13 130.527L121.824 132.633C121.036 132.753 120.298 133.09 119.691 133.606C119.084 134.122 118.632 134.796 118.387 135.554C118.159 136.3 118.138 137.094 118.327 137.851C118.517 138.608 118.908 139.299 119.461 139.85L129.815 149.99C129.97 150.136 130.087 150.318 130.154 150.521C130.222 150.723 130.238 150.939 130.201 151.15L127.753 165.37C127.599 166.176 127.68 167.008 127.984 167.77C128.289 168.531 128.805 169.189 129.471 169.667C130.216 170.185 131.099 170.469 132.006 170.483C132.698 170.485 133.379 170.308 133.982 169.967L146.871 163.265C147.06 163.18 147.265 163.136 147.473 163.136C147.68 163.136 147.885 163.18 148.074 163.265L160.963 169.967C161.642 170.3 162.397 170.447 163.152 170.394C163.906 170.341 164.633 170.09 165.259 169.667C165.926 169.189 166.442 168.531 166.746 167.77C167.051 167.008 167.131 166.176 166.978 165.37L164.529 151.15C164.492 150.939 164.508 150.723 164.576 150.521C164.643 150.318 164.76 150.136 164.916 149.99L175.227 139.936C175.779 139.385 176.171 138.694 176.36 137.937C176.549 137.18 176.529 136.386 176.301 135.64C176.062 134.855 175.604 134.154 174.979 133.621C174.355 133.088 173.591 132.745 172.778 132.633ZM161.822 146.939C161.17 147.568 160.68 148.347 160.395 149.208C160.111 150.069 160.04 150.986 160.19 151.88L162.639 166.101L149.75 159.356C148.945 158.969 148.065 158.763 147.172 158.754C146.259 158.753 145.359 158.974 144.551 159.399L131.662 166.101L134.111 151.88C134.26 150.986 134.19 150.069 133.905 149.208C133.621 148.347 133.131 147.568 132.479 146.939L122.167 136.886L136.431 134.781C137.344 134.669 138.215 134.331 138.965 133.799C139.715 133.266 140.321 132.555 140.727 131.73L147.086 118.841L149.019 117.896L147.129 118.841L153.487 131.73C153.894 132.555 154.5 133.266 155.25 133.799C156 134.331 156.871 134.669 157.784 134.781L172.047 136.843L161.822 146.939Z"/>
</mask>
<path d="M194.259 81.5926H179.222V75.1481C179.222 74.5784 178.996 74.032 178.593 73.6292C178.19 73.2263 177.644 73 177.074 73C176.504 73 175.958 73.2263 175.555 73.6292C175.152 74.032 174.926 74.5784 174.926 75.1481V81.5926H119.074V75.1481C119.074 74.5784 118.848 74.032 118.445 73.6292C118.042 73.2263 117.496 73 116.926 73C116.356 73 115.81 73.2263 115.407 73.6292C115.004 74.032 114.778 74.5784 114.778 75.1481V81.5926H99.7407C96.8921 81.5926 94.1602 82.7242 92.1459 84.7385C90.1316 86.7528 89 89.4847 89 92.3333V173.963C89 176.812 90.1316 179.544 92.1459 181.558C94.1602 183.572 96.8921 184.704 99.7407 184.704H194.259C197.108 184.704 199.84 183.572 201.854 181.558C203.868 179.544 205 176.812 205 173.963V92.3333C205 89.4847 203.868 86.7528 201.854 84.7385C199.84 82.7242 197.108 81.5926 194.259 81.5926ZM99.7407 85.8889H114.778V92.3333C114.778 92.9031 115.004 93.4494 115.407 93.8523C115.81 94.2552 116.356 94.4815 116.926 94.4815C117.496 94.4815 118.042 94.2552 118.445 93.8523C118.848 93.4494 119.074 92.9031 119.074 92.3333V85.8889H174.926V92.3333C174.926 92.9031 175.152 93.4494 175.555 93.8523C175.958 94.2552 176.504 94.4815 177.074 94.4815C177.644 94.4815 178.19 94.2552 178.593 93.8523C178.996 93.4494 179.222 92.9031 179.222 92.3333V85.8889H194.259C195.968 85.8889 197.608 86.5679 198.816 87.7764C200.025 88.985 200.704 90.6242 200.704 92.3333V103.074H93.2963V92.3333C93.2963 90.6242 93.9753 88.985 95.1838 87.7764C96.3924 86.5679 98.0316 85.8889 99.7407 85.8889ZM194.259 180.407H99.7407C98.0316 180.407 96.3924 179.728 95.1838 178.52C93.9753 177.311 93.2963 175.672 93.2963 173.963V107.37H200.704V173.963C200.704 175.672 200.025 177.311 198.816 178.52C197.608 179.728 195.968 180.407 194.259 180.407ZM172.778 132.633L158.471 130.527C158.268 130.503 158.075 130.426 157.909 130.306C157.744 130.186 157.612 130.025 157.526 129.84L151.124 116.951C150.773 116.235 150.23 115.63 149.554 115.205C148.879 114.78 148.099 114.552 147.301 114.545C146.503 114.552 145.722 114.78 145.047 115.205C144.372 115.63 143.828 116.235 143.477 116.951L137.076 129.84C136.993 130.028 136.862 130.191 136.696 130.311C136.53 130.432 136.335 130.507 136.13 130.527L121.824 132.633C121.036 132.753 120.298 133.09 119.691 133.606C119.084 134.122 118.632 134.796 118.387 135.554C118.159 136.3 118.138 137.094 118.327 137.851C118.517 138.608 118.908 139.299 119.461 139.85L129.815 149.99C129.97 150.136 130.087 150.318 130.154 150.521C130.222 150.723 130.238 150.939 130.201 151.15L127.753 165.37C127.599 166.176 127.68 167.008 127.984 167.77C128.289 168.531 128.805 169.189 129.471 169.667C130.216 170.185 131.099 170.469 132.006 170.483C132.698 170.485 133.379 170.308 133.982 169.967L146.871 163.265C147.06 163.18 147.265 163.136 147.473 163.136C147.68 163.136 147.885 163.18 148.074 163.265L160.963 169.967C161.642 170.3 162.397 170.447 163.152 170.394C163.906 170.341 164.633 170.09 165.259 169.667C165.926 169.189 166.442 168.531 166.746 167.77C167.051 167.008 167.131 166.176 166.978 165.37L164.529 151.15C164.492 150.939 164.508 150.723 164.576 150.521C164.643 150.318 164.76 150.136 164.916 149.99L175.227 139.936C175.779 139.385 176.171 138.694 176.36 137.937C176.549 137.18 176.529 136.386 176.301 135.64C176.062 134.855 175.604 134.154 174.979 133.621C174.355 133.088 173.591 132.745 172.778 132.633ZM161.822 146.939C161.17 147.568 160.68 148.347 160.395 149.208C160.111 150.069 160.04 150.986 160.19 151.88L162.639 166.101L149.75 159.356C148.945 158.969 148.065 158.763 147.172 158.754C146.259 158.753 145.359 158.974 144.551 159.399L131.662 166.101L134.111 151.88C134.26 150.986 134.19 150.069 133.905 149.208C133.621 148.347 133.131 147.568 132.479 146.939L122.167 136.886L136.431 134.781C137.344 134.669 138.215 134.331 138.965 133.799C139.715 133.266 140.321 132.555 140.727 131.73L147.086 118.841L149.019 117.896L147.129 118.841L153.487 131.73C153.894 132.555 154.5 133.266 155.25 133.799C156 134.331 156.871 134.669 157.784 134.781L172.047 136.843L161.822 146.939Z" fill="#76BDC2"/>
<path d="M194.259 81.5926H179.222V75.1481C179.222 74.5784 178.996 74.032 178.593 73.6292C178.19 73.2263 177.644 73 177.074 73C176.504 73 175.958 73.2263 175.555 73.6292C175.152 74.032 174.926 74.5784 174.926 75.1481V81.5926H119.074V75.1481C119.074 74.5784 118.848 74.032 118.445 73.6292C118.042 73.2263 117.496 73 116.926 73C116.356 73 115.81 73.2263 115.407 73.6292C115.004 74.032 114.778 74.5784 114.778 75.1481V81.5926H99.7407C96.8921 81.5926 94.1602 82.7242 92.1459 84.7385C90.1316 86.7528 89 89.4847 89 92.3333V173.963C89 176.812 90.1316 179.544 92.1459 181.558C94.1602 183.572 96.8921 184.704 99.7407 184.704H194.259C197.108 184.704 199.84 183.572 201.854 181.558C203.868 179.544 205 176.812 205 173.963V92.3333C205 89.4847 203.868 86.7528 201.854 84.7385C199.84 82.7242 197.108 81.5926 194.259 81.5926ZM99.7407 85.8889H114.778V92.3333C114.778 92.9031 115.004 93.4494 115.407 93.8523C115.81 94.2552 116.356 94.4815 116.926 94.4815C117.496 94.4815 118.042 94.2552 118.445 93.8523C118.848 93.4494 119.074 92.9031 119.074 92.3333V85.8889H174.926V92.3333C174.926 92.9031 175.152 93.4494 175.555 93.8523C175.958 94.2552 176.504 94.4815 177.074 94.4815C177.644 94.4815 178.19 94.2552 178.593 93.8523C178.996 93.4494 179.222 92.9031 179.222 92.3333V85.8889H194.259C195.968 85.8889 197.608 86.5679 198.816 87.7764C200.025 88.985 200.704 90.6242 200.704 92.3333V103.074H93.2963V92.3333C93.2963 90.6242 93.9753 88.985 95.1838 87.7764C96.3924 86.5679 98.0316 85.8889 99.7407 85.8889ZM194.259 180.407H99.7407C98.0316 180.407 96.3924 179.728 95.1838 178.52C93.9753 177.311 93.2963 175.672 93.2963 173.963V107.37H200.704V173.963C200.704 175.672 200.025 177.311 198.816 178.52C197.608 179.728 195.968 180.407 194.259 180.407ZM172.778 132.633L158.471 130.527C158.268 130.503 158.075 130.426 157.909 130.306C157.744 130.186 157.612 130.025 157.526 129.84L151.124 116.951C150.773 116.235 150.23 115.63 149.554 115.205C148.879 114.78 148.099 114.552 147.301 114.545C146.503 114.552 145.722 114.78 145.047 115.205C144.372 115.63 143.828 116.235 143.477 116.951L137.076 129.84C136.993 130.028 136.862 130.191 136.696 130.311C136.53 130.432 136.335 130.507 136.13 130.527L121.824 132.633C121.036 132.753 120.298 133.09 119.691 133.606C119.084 134.122 118.632 134.796 118.387 135.554C118.159 136.3 118.138 137.094 118.327 137.851C118.517 138.608 118.908 139.299 119.461 139.85L129.815 149.99C129.97 150.136 130.087 150.318 130.154 150.521C130.222 150.723 130.238 150.939 130.201 151.15L127.753 165.37C127.599 166.176 127.68 167.008 127.984 167.77C128.289 168.531 128.805 169.189 129.471 169.667C130.216 170.185 131.099 170.469 132.006 170.483C132.698 170.485 133.379 170.308 133.982 169.967L146.871 163.265C147.06 163.18 147.265 163.136 147.473 163.136C147.68 163.136 147.885 163.18 148.074 163.265L160.963 169.967C161.642 170.3 162.397 170.447 163.152 170.394C163.906 170.341 164.633 170.09 165.259 169.667C165.926 169.189 166.442 168.531 166.746 167.77C167.051 167.008 167.131 166.176 166.978 165.37L164.529 151.15C164.492 150.939 164.508 150.723 164.576 150.521C164.643 150.318 164.76 150.136 164.916 149.99L175.227 139.936C175.779 139.385 176.171 138.694 176.36 137.937C176.549 137.18 176.529 136.386 176.301 135.64C176.062 134.855 175.604 134.154 174.979 133.621C174.355 133.088 173.591 132.745 172.778 132.633ZM161.822 146.939C161.17 147.568 160.68 148.347 160.395 149.208C160.111 150.069 160.04 150.986 160.19 151.88L162.639 166.101L149.75 159.356C148.945 158.969 148.065 158.763 147.172 158.754C146.259 158.753 145.359 158.974 144.551 159.399L131.662 166.101L134.111 151.88C134.26 150.986 134.19 150.069 133.905 149.208C133.621 148.347 133.131 147.568 132.479 146.939L122.167 136.886L136.431 134.781C137.344 134.669 138.215 134.331 138.965 133.799C139.715 133.266 140.321 132.555 140.727 131.73L147.086 118.841L149.019 117.896L147.129 118.841L153.487 131.73C153.894 132.555 154.5 133.266 155.25 133.799C156 134.331 156.871 134.669 157.784 134.781L172.047 136.843L161.822 146.939Z" stroke="#76BDC2" stroke-width="2" mask="url(#path-5-outside-1_1_5852)"/>
<circle cx="41.0626" cy="41.0626" r="41.0626" fill="#76BDC2" fill-opacity="0.3"/>
</svg>
