<svg width="323" height="293" viewBox="0 0 323 293" fill="none" xmlns="http://www.w3.org/2000/svg">
<ellipse cx="171.698" cy="149.835" rx="121.042" ry="121.042" fill="#76BDC2" fill-opacity="0.25"/>
<path d="M100.259 238.991C98.414 241.29 97.1838 242.67 94.7235 242.67C92.2631 242.67 91.0329 241.29 89.1877 238.991C87.3424 236.691 85.3434 234.085 81.1916 234.085C77.0397 234.085 75.0407 236.691 73.1954 238.991C71.3501 241.29 70.12 242.67 67.6596 242.67C65.1993 242.67 63.9691 241.29 62.1238 238.991C60.2786 236.691 58.2795 234.085 54.1277 234.085C49.9759 234.085 47.9768 236.691 46.1316 238.991C44.2863 241.29 43.0561 242.67 40.5958 242.67C38.1354 242.67 36.9053 241.29 35.06 238.991C33.2147 236.691 31.2157 234.085 27.0638 234.085C22.912 234.085 20.913 236.691 19.0677 238.991C17.2224 241.29 15.9923 242.67 13.5319 242.67C11.0716 242.67 9.8414 241.29 7.99614 238.991C6.15087 236.691 4.15184 234.085 0 234.085V237.151C2.46035 237.151 3.69053 238.531 5.53579 240.83C7.38105 243.13 9.38008 245.736 13.5319 245.736C17.6838 245.736 19.6828 243.13 21.5281 240.83C23.3733 238.531 24.6035 237.151 27.0638 237.151C29.5242 237.151 30.7544 238.531 32.5996 240.83C34.4449 243.13 36.4439 245.736 40.5958 245.736C44.7476 245.736 46.7466 243.13 48.5919 240.83C50.4372 238.531 51.6673 237.151 54.1277 237.151C56.588 237.151 57.8182 238.531 59.6635 240.83C61.5088 243.13 63.5078 245.736 67.6596 245.736C71.8115 245.736 73.8105 243.13 75.6558 240.83C77.501 238.531 78.7312 237.151 81.1916 237.151C83.6519 237.151 84.8821 238.531 86.7273 240.83C88.5726 243.13 90.5716 245.736 94.7235 245.736C98.8753 245.736 100.874 243.13 102.72 240.83C104.565 238.531 105.795 237.151 108.255 237.151V234.085C104.104 234.085 102.105 236.691 100.259 238.991Z" fill="#76BDC2"/>
<path d="M22.1729 0C21.6662 5.06402e-05 21.1802 0.20103 20.8219 0.558735C20.4636 0.91644 20.2623 1.40158 20.2622 1.90745V13.3521C20.2622 13.8554 20.4615 14.3383 20.8166 14.6956C21.1717 15.0529 21.6538 15.2556 22.158 15.2596C24.7783 15.2977 26.1047 15.7423 26.7706 16.3996C27.4365 17.0565 27.9035 18.3479 27.9051 20.9894C27.9038 23.622 27.4357 24.9156 26.7706 25.5717C26.1044 26.2286 24.7784 26.6856 22.158 26.7043C21.6538 26.7083 21.1717 26.911 20.8166 27.2682C20.4615 27.6255 20.2622 28.1084 20.2622 28.6117V40.0564C20.2623 40.5623 20.4636 41.0474 20.8219 41.4051C21.1802 41.7628 21.6662 41.9638 22.1729 41.9639H66.1194H69.9408H87.1372C87.644 41.9638 88.1299 41.7628 88.4882 41.4051C88.8466 41.0474 89.0479 40.5623 89.0479 40.0564V28.6117C89.0479 28.1084 88.8486 27.6255 88.4935 27.2682C88.1384 26.911 87.6563 26.7083 87.1521 26.7043C84.7798 26.7043 83.4268 26.2442 82.6814 25.5419C81.936 24.8396 81.4066 23.5734 81.4051 20.9819C81.405 18.3928 81.9283 17.1313 82.6739 16.4294C83.4195 15.7271 84.7797 15.2768 87.1521 15.2596C87.6563 15.2556 88.1384 15.0529 88.4935 14.6956C88.8486 14.3383 89.0479 13.8554 89.0479 13.3521V1.90745C89.0479 1.40158 88.8466 0.91644 88.4882 0.558735C88.1299 0.20103 87.644 5.06402e-05 87.1372 0H22.1729ZM24.0836 3.8149H66.1194V11.4447H69.9408V3.8149H85.2265V12.0333C83.3165 12.2775 81.354 12.426 80.0541 13.6502C78.2781 15.3222 77.5835 17.8507 77.5836 20.9819C77.5855 24.1143 78.2787 26.6483 80.0541 28.3211C81.3534 29.5453 83.3171 29.6879 85.2265 29.9305V38.149H69.9408V34.3341H66.1194V38.149H24.0836V29.938C26.1093 29.7015 28.1706 29.5531 29.4575 28.2839C31.1983 26.5668 31.7266 24.0632 31.7265 20.9819C31.7246 17.9014 31.1977 15.3967 29.4575 13.68C28.1711 12.4108 26.1089 12.2624 24.0836 12.0259V3.8149ZM66.1194 19.0745V26.7043H69.9408V19.0745H66.1194Z" fill="#76BDC2"/>
<path d="M65.5829 57.0547C65.1596 57.0547 64.7536 57.2226 64.4542 57.5215C64.1548 57.8204 63.9866 58.2257 63.9866 58.6483V68.2102C63.9866 68.6307 64.1531 69.0341 64.4498 69.3326C64.7464 69.6311 65.1493 69.8005 65.5705 69.8038C67.7597 69.8357 68.8679 70.2071 69.4242 70.7563C69.9806 71.3051 70.3707 72.3841 70.3721 74.591C70.371 76.7905 69.9799 77.8712 69.4242 78.4195C68.8677 78.9683 67.7598 79.3501 65.5705 79.3657C65.1493 79.369 64.7464 79.5384 64.4498 79.8369C64.1531 80.1354 63.9866 80.5388 63.9866 80.9593V90.5212C63.9866 90.9438 64.1548 91.3491 64.4542 91.648C64.7536 91.9469 65.1596 92.1148 65.5829 92.1148H102.299H105.492H119.86C120.283 92.1148 120.689 91.9469 120.988 91.648C121.288 91.3491 121.456 90.9438 121.456 90.5212V80.9593C121.456 80.5388 121.289 80.1354 120.993 79.8369C120.696 79.5384 120.293 79.369 119.872 79.3657C117.89 79.3657 116.76 78.9813 116.137 78.3945C115.514 77.8078 115.072 76.7499 115.07 74.5847C115.07 72.4215 115.508 71.3676 116.131 70.7812C116.754 70.1944 117.89 69.8182 119.872 69.8038C120.293 69.8005 120.696 69.6311 120.993 69.3326C121.289 69.0341 121.456 68.6307 121.456 68.2102V58.6483C121.456 58.2257 121.288 57.8204 120.988 57.5215C120.689 57.2226 120.283 57.0547 119.86 57.0547H65.5829ZM67.1793 60.242H102.299V66.6165H105.492V60.242H118.263V67.1083C116.667 67.3123 115.028 67.4364 113.942 68.4592C112.458 69.8562 111.878 71.9686 111.878 74.5847C111.879 77.2018 112.458 79.3189 113.942 80.7165C115.027 81.7393 116.668 81.8585 118.263 82.0612V88.9275H105.492V85.7402H102.299V88.9275H67.1793V82.0674C68.8718 81.8698 70.5939 81.7458 71.6691 80.6854C73.1235 79.2508 73.5649 77.1591 73.5648 74.5847C73.5633 72.011 73.123 69.9184 71.6691 68.4841C70.5943 67.4237 68.8714 67.2997 67.1793 67.1021V60.242ZM102.299 72.9911V79.3657H105.492V72.9911H102.299Z" fill="#3BA0A8"/>
<path d="M155.84 145.074L155.84 145.074C155.225 144.458 154.39 144.111 153.518 144.111C152.645 144.111 151.811 144.458 151.195 145.074L151.587 145.466L151.195 145.074L112.407 183.864C111.124 185.147 111.124 187.226 112.407 188.509C113.049 189.151 113.89 189.472 114.73 189.472C115.57 189.472 116.412 189.151 117.053 188.509L116.66 188.117L117.053 188.509L153.518 152.042L171.234 169.761L171.234 169.761C172.474 171.001 174.639 171.001 175.879 169.761L227.593 118.053L227.2 117.66L227.593 118.053C228.876 116.77 228.876 114.691 227.593 113.407C226.309 112.124 224.23 112.124 222.947 113.407L173.557 162.792L155.84 145.074Z" fill="#76BDC2" stroke="#76BDC2" stroke-width="1.11"/>
<path d="M221.985 142.456C221.985 144.271 223.454 145.741 225.27 145.741C227.085 145.741 228.555 144.271 228.555 142.456V115.73C228.555 113.915 227.085 112.445 225.27 112.445H198.539C196.723 112.445 195.254 113.915 195.254 115.73C195.254 117.546 196.723 119.015 198.539 119.015H221.985V142.456Z" fill="#76BDC2" stroke="#76BDC2" stroke-width="1.11"/>
<ellipse cx="279.276" cy="248.816" rx="43.7243" ry="43.7243" fill="#76BDC2" fill-opacity="0.3"/>
</svg>
