<svg width="321" height="261" viewBox="0 0 321 261" fill="none" xmlns="http://www.w3.org/2000/svg">
<circle cx="171.09" cy="116.629" r="116.629" fill="#76BDC2" fill-opacity="0.25"/>
<circle cx="82" cy="223" r="38" fill="#76BDC2" fill-opacity="0.3"/>
<path d="M212.06 93.3536C211.441 92.6237 210.785 91.9304 210.11 91.2736L189.389 70.5284C187.544 68.6809 185.148 67.4842 182.565 67.1188C179.981 66.7535 177.348 67.2394 175.064 68.5032L159.391 52.7938C156.946 50.3637 153.641 49 150.196 49C146.752 49 143.447 50.3637 141.002 52.7938C139.403 54.3813 138.253 56.3642 137.667 58.5411C135.104 56.3793 131.805 55.2927 128.461 55.5081C125.116 55.7236 121.984 57.2245 119.719 59.6973C117.453 62.1702 116.23 65.4236 116.304 68.7782C116.378 72.1327 117.744 75.3288 120.117 77.6989L120.864 78.447C118.683 79.0657 116.702 80.2439 115.116 81.865C113.53 83.4861 112.394 85.4937 111.822 87.6892C111.249 89.8847 111.259 92.1919 111.851 94.3823C112.443 96.5726 113.596 98.5703 115.196 100.177L117.456 102.44C115.307 103.028 113.352 104.173 111.788 105.761C109.362 108.205 108 111.51 108 114.956C108 118.402 109.362 121.708 111.788 124.152L144.592 156.994C153.339 165.796 165.214 170.769 177.616 170.824H177.871C183.933 170.844 189.938 169.662 195.541 167.344C201.143 165.027 206.231 161.62 210.511 157.322C218.877 148.873 223.698 137.54 223.986 125.646C224.274 113.753 220.007 102.199 212.06 93.3536ZM205.736 152.56C202.054 156.274 197.664 159.209 192.827 161.193C187.991 163.177 182.806 164.169 177.579 164.11C172.306 164.097 167.086 163.043 162.22 161.008C157.354 158.973 152.937 155.997 149.221 152.25L116.417 119.408C115.83 118.819 115.366 118.119 115.053 117.348C114.74 116.577 114.584 115.752 114.594 114.92C114.585 114.085 114.741 113.257 115.054 112.483C115.366 111.709 115.83 111.006 116.417 110.413C117.634 109.269 119.24 108.632 120.909 108.632C122.579 108.632 124.185 109.269 125.402 110.413L148.347 133.348C148.978 133.914 149.803 134.217 150.651 134.194C151.499 134.171 152.306 133.823 152.905 133.223C153.505 132.622 153.852 131.814 153.876 130.966C153.899 130.117 153.596 129.291 153.03 128.659L130.177 105.761L119.898 95.47C118.708 94.2763 118.04 92.6588 118.04 90.9725C118.04 89.2862 118.708 87.6688 119.898 86.475C121.11 85.3225 122.718 84.68 124.39 84.68C126.062 84.68 127.67 85.3225 128.883 86.475L157.04 114.664C157.663 115.286 158.508 115.635 159.388 115.633C160.268 115.631 161.112 115.279 161.733 114.655C162.354 114.031 162.702 113.185 162.7 112.304C162.698 111.423 162.347 110.579 161.724 109.957L124.8 72.9916C123.619 71.7931 122.957 70.1774 122.957 68.494C122.957 66.8106 123.619 65.1949 124.8 63.9965C126.018 62.8469 127.628 62.2066 129.302 62.2066C130.975 62.2066 132.586 62.8469 133.803 63.9965L141.093 71.2947L149.477 79.6877L165.879 96.1086C166.502 96.7329 167.348 97.0836 168.23 97.0836C169.112 97.0836 169.957 96.7329 170.581 96.1086C171.204 95.4844 171.555 94.6378 171.555 93.755C171.555 92.8722 171.204 92.0255 170.581 91.4013L154.179 74.9803L145.704 66.4962C144.514 65.3024 143.846 63.685 143.846 61.9986C143.846 60.3123 144.514 58.6949 145.704 57.5011C146.917 56.3486 148.525 55.7061 150.196 55.7061C151.868 55.7061 153.476 56.3486 154.689 57.5011L170.362 73.2105C169.103 75.4979 168.619 78.1327 168.984 80.7189C169.349 83.305 170.542 85.7027 172.385 87.5515L180.987 96.1634C178.362 99.523 176.97 103.683 177.043 107.948C177.116 112.213 178.65 116.323 181.388 119.591C181.452 119.672 181.525 119.746 181.607 119.81C182.185 120.404 182.968 120.758 183.796 120.798C184.625 120.839 185.438 120.564 186.072 120.029C186.408 119.749 186.685 119.405 186.888 119.018C187.091 118.631 187.216 118.207 187.255 117.771C187.294 117.335 187.246 116.896 187.115 116.479C186.984 116.062 186.772 115.674 186.491 115.339C184.557 113.032 183.562 110.079 183.704 107.07C183.846 104.061 185.114 101.216 187.256 99.1009C187.369 98.9759 187.491 98.86 187.621 98.7542C188 98.4663 188.313 98.1005 188.539 97.6814C188.766 97.2622 188.9 96.7995 188.932 96.3242C188.965 95.8489 188.896 95.3722 188.73 94.9259C188.563 94.4796 188.303 94.0741 187.967 93.7367L177.032 82.7894C176.303 81.7345 175.967 80.4568 176.083 79.1792C176.199 77.9016 176.759 76.7053 177.667 75.7993C178.574 74.8933 179.77 74.335 181.046 74.222C182.323 74.109 183.598 74.4484 184.65 75.181L205.317 95.9627C205.882 96.5283 206.411 97.0939 206.957 97.7872C213.767 105.352 217.433 115.235 217.206 125.416C216.979 135.597 212.876 145.307 205.736 152.56Z" fill="#76BDC2"/>
<path d="M225.337 172.117C224.848 172.117 224.38 172.311 224.035 172.656C223.69 173 223.496 173.468 223.496 173.955V184.983C223.496 185.467 223.688 185.933 224.03 186.277C224.372 186.621 224.837 186.817 225.322 186.82C227.847 186.857 229.125 187.286 229.767 187.919C230.408 188.552 230.858 189.796 230.86 192.341C230.859 194.878 230.408 196.124 229.767 196.757C229.125 197.39 227.847 197.83 225.322 197.848C224.837 197.852 224.372 198.047 224.03 198.391C223.688 198.736 223.496 199.201 223.496 199.686V210.713C223.496 211.201 223.69 211.668 224.035 212.013C224.38 212.357 224.848 212.551 225.337 212.551H267.681H271.363H287.933C288.421 212.551 288.889 212.357 289.234 212.013C289.58 211.668 289.774 211.201 289.774 210.713V199.686C289.774 199.201 289.582 198.736 289.239 198.391C288.897 198.047 288.433 197.852 287.947 197.848C285.661 197.848 284.357 197.405 283.639 196.728C282.921 196.051 282.411 194.831 282.409 192.334C282.409 189.839 282.914 188.624 283.632 187.948C284.35 187.271 285.661 186.837 287.947 186.82C288.433 186.817 288.897 186.621 289.239 186.277C289.582 185.933 289.774 185.467 289.774 184.983V173.955C289.774 173.468 289.58 173 289.234 172.656C288.889 172.311 288.421 172.117 287.933 172.117H225.337ZM227.178 175.793H267.681V183.145H271.363V175.793H286.091V183.712C284.251 183.947 282.36 184.09 281.108 185.27C279.396 186.881 278.727 189.317 278.727 192.334C278.729 195.352 279.397 197.794 281.108 199.406C282.36 200.585 284.252 200.723 286.091 200.957V208.875H271.363V205.2H267.681V208.875H227.178V200.964C229.13 200.736 231.116 200.593 232.356 199.37C234.033 197.715 234.542 195.303 234.542 192.334C234.54 189.366 234.032 186.953 232.356 185.298C231.116 184.075 229.129 183.933 227.178 183.705V175.793ZM267.681 190.496V197.848H271.363V190.496H267.681Z" fill="#76BDC2"/>
<path d="M267.164 227.092C266.756 227.092 266.365 227.254 266.077 227.542C265.788 227.83 265.626 228.22 265.626 228.627V237.841C265.626 238.246 265.786 238.635 266.072 238.922C266.358 239.21 266.746 239.373 267.152 239.376C269.262 239.407 270.329 239.765 270.865 240.294C271.401 240.823 271.777 241.862 271.779 243.989C271.778 246.108 271.401 247.149 270.865 247.678C270.329 248.207 269.262 248.574 267.152 248.589C266.746 248.593 266.358 248.756 266.072 249.043C265.786 249.331 265.626 249.72 265.626 250.125V259.338C265.626 259.745 265.788 260.136 266.077 260.424C266.365 260.712 266.756 260.874 267.164 260.874H302.542H305.618H319.462C319.87 260.874 320.261 260.712 320.55 260.424C320.838 260.136 321 259.745 321 259.338V250.125C321 249.72 320.84 249.331 320.554 249.043C320.268 248.756 319.88 248.593 319.474 248.589C317.564 248.589 316.475 248.219 315.875 247.654C315.275 247.088 314.849 246.069 314.847 243.983C314.847 241.898 315.269 240.883 315.869 240.318C316.469 239.752 317.564 239.39 319.474 239.376C319.88 239.373 320.268 239.21 320.554 238.922C320.84 238.635 321 238.246 321 237.841V228.627C321 228.22 320.838 227.83 320.55 227.542C320.261 227.254 319.87 227.092 319.462 227.092H267.164ZM268.702 230.163H302.542V236.305H305.618V230.163H317.924V236.779C316.386 236.975 314.806 237.095 313.76 238.081C312.33 239.427 311.771 241.462 311.771 243.983C311.773 246.504 312.331 248.544 313.76 249.891C314.806 250.877 316.387 250.991 317.924 251.187V257.803H305.618V254.732H302.542V257.803H268.702V251.193C270.333 251.002 271.992 250.883 273.028 249.861C274.43 248.479 274.855 246.463 274.855 243.983C274.854 241.503 274.429 239.487 273.028 238.105C271.993 237.083 270.333 236.963 268.702 236.773V230.163ZM302.542 242.447V248.589H305.618V242.447H302.542Z" fill="#76BDC2"/>
<path d="M96.6041 47.8844C94.8261 50.1001 93.6408 51.4295 91.2701 51.4295C88.8995 51.4295 87.7142 50.1001 85.9362 47.8844C84.1582 45.6688 82.232 43.1577 78.2316 43.1577C74.2311 43.1577 72.3049 45.6688 70.5269 47.8844C68.7489 50.1001 67.5636 51.4295 65.193 51.4295C62.8223 51.4295 61.637 50.1001 59.859 47.8844C58.081 45.6688 56.1548 43.1577 52.1544 43.1577C48.1539 43.1577 46.2277 45.6688 44.4497 47.8844C42.6718 50.1001 41.4864 51.4295 39.1158 51.4295C36.7451 51.4295 35.5598 50.1001 33.7818 47.8844C32.0038 45.6688 30.0777 43.1577 26.0772 43.1577C22.0767 43.1577 20.1506 45.6688 18.3726 47.8844C16.5946 50.1001 15.4092 51.4295 13.0386 51.4295C10.6679 51.4295 9.48261 50.1001 7.70462 47.8844C5.92663 45.6688 4.00048 43.1577 0 43.1577V46.1119C2.37065 46.1119 3.55598 47.4413 5.33397 49.6569C7.11196 51.8726 9.03811 54.3837 13.0386 54.3837C17.0391 54.3837 18.9652 51.8726 20.7432 49.6569C22.5212 47.4413 23.7065 46.1119 26.0772 46.1119C28.4478 46.1119 29.6332 47.4413 31.4112 49.6569C33.1891 51.8726 35.1153 54.3837 39.1158 54.3837C43.1163 54.3837 45.0424 51.8726 46.8204 49.6569C48.5984 47.4413 49.7837 46.1119 52.1544 46.1119C54.525 46.1119 55.7104 47.4413 57.4883 49.6569C59.2663 51.8726 61.1925 54.3837 65.193 54.3837C69.1934 54.3837 71.1196 51.8726 72.8976 49.6569C74.6756 47.4413 75.8609 46.1119 78.2316 46.1119C80.6022 46.1119 81.7875 47.4413 83.5655 49.6569C85.3435 51.8726 87.2697 54.3837 91.2701 54.3837C95.2706 54.3837 97.1968 51.8726 98.9748 49.6569C100.753 47.4413 101.938 46.1119 104.309 46.1119V43.1577C100.308 43.1577 98.3821 45.6688 96.6041 47.8844Z" fill="#76BDC2"/>
</svg>
