<svg width="325" height="254" viewBox="0 0 325 254" fill="none" xmlns="http://www.w3.org/2000/svg">
<g clip-path="url(#clip0_40_13870)">
<path d="M169.77 253.54C234.26 253.54 286.54 201.26 286.54 136.77C286.54 72.2797 234.26 20 169.77 20C105.28 20 53 72.2797 53 136.77C53 201.26 105.28 253.54 169.77 253.54Z" fill="#76BDC2" fill-opacity="0.25"/>
<path d="M317.286 222.321C315.506 224.54 314.319 225.871 311.946 225.871C309.572 225.871 308.385 224.54 306.605 222.321C304.825 220.103 302.897 217.589 298.891 217.589C294.886 217.589 292.957 220.103 291.177 222.321C289.397 224.54 288.21 225.871 285.837 225.871C283.463 225.871 282.277 224.54 280.496 222.321C278.716 220.103 276.788 217.589 272.783 217.589C268.777 217.589 266.849 220.103 265.069 222.321C263.288 224.54 262.102 225.871 259.728 225.871C257.355 225.871 256.168 224.54 254.388 222.321C252.608 220.103 250.679 217.589 246.674 217.589C242.668 217.589 240.74 220.103 238.96 222.321C237.18 224.54 235.993 225.871 233.619 225.871C231.246 225.871 230.059 224.54 228.279 222.321C226.499 220.103 224.57 217.589 220.565 217.589V220.547C222.938 220.547 224.125 221.878 225.905 224.096C227.686 226.314 229.614 228.828 233.619 228.828C237.625 228.828 239.553 226.314 241.333 224.096C243.113 221.878 244.3 220.547 246.674 220.547C249.047 220.547 250.234 221.878 252.014 224.096C253.794 226.314 255.723 228.828 259.728 228.828C263.733 228.828 265.662 226.314 267.442 224.096C269.222 221.878 270.409 220.547 272.783 220.547C275.156 220.547 276.343 221.878 278.123 224.096C279.903 226.314 281.832 228.828 285.837 228.828C289.842 228.828 291.771 226.314 293.551 224.096C295.331 221.878 296.518 220.547 298.891 220.547C301.265 220.547 302.452 221.878 304.232 224.096C306.012 226.314 307.94 228.828 311.946 228.828C315.951 228.828 317.88 226.314 319.66 224.096C321.44 221.878 322.627 220.547 325 220.547V217.589C320.995 217.589 319.066 220.103 317.286 222.321Z" fill="#76BDC2"/>
<path d="M1.84329 10C1.35443 10 0.885613 10.1939 0.53994 10.539C0.194268 10.8841 4.89368e-05 11.3521 0 11.8401V22.881C3.3468e-05 23.3665 0.192274 23.8323 0.534839 24.177C0.877404 24.5217 1.34253 24.7173 1.82889 24.7211C4.35676 24.7579 5.63629 25.1868 6.2787 25.8209C6.9211 26.4546 7.37162 27.7005 7.37315 30.2487C7.37189 32.7884 6.92035 34.0363 6.2787 34.6693C5.63607 35.3031 4.3568 35.7439 1.82889 35.7619C1.34253 35.7658 0.877404 35.9613 0.534839 36.306C0.192274 36.6507 3.3468e-05 37.1165 0 37.602V48.6429C4.89368e-05 49.1309 0.194268 49.5989 0.53994 49.944C0.885613 50.2891 1.35443 50.483 1.84329 50.483H44.2389H47.9255H64.5151C65.0039 50.483 65.4727 50.2891 65.8184 49.944C66.1641 49.5989 66.3583 49.1309 66.3583 48.6429V37.602C66.3583 37.1165 66.1661 36.6507 65.8235 36.306C65.4809 35.9613 65.0158 35.7658 64.5295 35.7619C62.2408 35.7619 60.9356 35.3181 60.2165 34.6406C59.4974 33.963 58.9867 32.7415 58.9852 30.2415C58.9851 27.7437 59.4899 26.5268 60.2093 25.8496C60.9286 25.1721 62.2407 24.7377 64.5295 24.7211C65.0158 24.7173 65.4809 24.5217 65.8235 24.177C66.1661 23.8323 66.3583 23.3665 66.3583 22.881V11.8401C66.3583 11.3521 66.1641 10.8841 65.8184 10.539C65.4727 10.1939 65.0039 10 64.5151 10H1.84329ZM3.68657 13.6803H44.2389V21.0408H47.9255V13.6803H62.6718V21.6087C60.8292 21.8442 58.9359 21.9875 57.6819 23.1685C55.9686 24.7815 55.2985 27.2207 55.2986 30.2415C55.3004 33.2634 55.9692 35.7079 57.6819 37.3217C58.9354 38.5027 60.8297 38.6403 62.6718 38.8743V46.8027H47.9255V43.1225H44.2389V46.8027H3.68657V38.8815C5.64079 38.6533 7.62932 38.5102 8.87082 37.2858C10.5501 35.6293 11.0599 33.2141 11.0597 30.2415C11.0579 27.2697 10.5496 24.8534 8.87082 23.1972C7.62975 21.9728 5.64039 21.8297 3.68657 21.6015V13.6803ZM44.2389 28.4014V35.7619H47.9255V28.4014H44.2389Z" fill="#76BDC2"/>
<path d="M43.7217 65.042C43.3132 65.042 42.9216 65.204 42.6328 65.4923C42.3439 65.7806 42.1817 66.1717 42.1816 66.5794V75.8038C42.1817 76.2095 42.3423 76.5987 42.6285 76.8867C42.9147 77.1746 43.3033 77.338 43.7096 77.3412C45.8216 77.372 46.8907 77.7303 47.4274 78.2601C47.9641 78.7895 48.3405 79.8304 48.3418 81.9594C48.3407 84.0814 47.9635 85.124 47.4274 85.6528C46.8905 86.1823 45.8217 86.5506 43.7096 86.5657C43.3033 86.5689 42.9147 86.7322 42.6285 87.0202C42.3423 87.3082 42.1817 87.6974 42.1816 88.1031V97.3275C42.1817 97.7352 42.3439 98.1262 42.6328 98.4145C42.9216 98.7029 43.3132 98.8648 43.7217 98.8649H79.1425H82.2226H96.0829C96.4914 98.8648 96.8831 98.7029 97.1719 98.4145C97.4607 98.1262 97.6229 97.7352 97.623 97.3275V88.1031C97.6229 87.6974 97.4623 87.3082 97.1761 87.0202C96.8899 86.7322 96.5013 86.5689 96.095 86.5657C94.1828 86.5657 93.0923 86.1949 92.4915 85.6288C91.8907 85.0627 91.4641 84.0422 91.4628 81.9534C91.4627 79.8666 91.8845 78.8499 92.4855 78.2841C93.0865 77.718 94.1828 77.3551 96.095 77.3412C96.5013 77.338 96.8899 77.1746 97.1761 76.8867C97.4623 76.5987 97.6229 76.2095 97.623 75.8038V66.5794C97.6229 66.1717 97.4607 65.7806 97.1719 65.4923C96.8831 65.204 96.4914 65.042 96.0829 65.042H43.7217ZM45.2617 68.1168H79.1425V74.2664H82.2226V68.1168H94.5429V74.7409C93.0034 74.9376 91.4217 75.0573 90.374 76.044C88.9425 77.3917 88.3826 79.4296 88.3827 81.9534C88.3843 84.4782 88.943 86.5205 90.374 87.8688C91.4212 88.8555 93.0039 88.9705 94.5429 89.166V95.7901H82.2226V92.7153H79.1425V95.7901H45.2617V89.172C46.8944 88.9814 48.5558 88.8618 49.5931 87.8388C50.9961 86.4548 51.422 84.437 51.4219 81.9534C51.4204 79.4705 50.9956 77.4517 49.5931 76.0681C48.5562 75.0451 46.8941 74.9255 45.2617 74.7348V68.1168ZM79.1425 80.416V86.5657H82.2226V80.416H79.1425Z" fill="#3BA0A8"/>
<path d="M276.181 84.3626C299.477 84.3626 318.363 65.4774 318.363 42.1813C318.363 18.8852 299.477 0 276.181 0C252.885 0 234 18.8852 234 42.1813C234 65.4774 252.885 84.3626 276.181 84.3626Z" fill="#76BDC2" fill-opacity="0.3"/>
<path d="M128 177V134H117.5C117.5 134 114 133.5 114 131C114 128.5 117.5 125.5 117.5 125.5L162.5 79.8077C162.5 79.8077 166 76 169.5 76C173 76 176.5 79.8077 176.5 79.8077L221.5 125.5C221.5 125.5 225.5 129 225 131.5C224.5 134 221 134 221 134H211V177H187V151.5C187 146 180.3 137.5 169.5 137.5C158.7 137.5 152 146 152 151.5V177H128Z" stroke="#76BDC2" stroke-width="8" stroke-linejoin="round"/>
</g>
<defs>
<clipPath id="clip0_40_13870">
<rect width="325" height="254" fill="white"/>
</clipPath>
</defs>
</svg>
