<svg width="112" height="127" viewBox="0 0 112 127" fill="none" xmlns="http://www.w3.org/2000/svg">
<path fill-rule="evenodd" clip-rule="evenodd" d="M61 5.40088C61 2.63946 58.7614 0.400879 56 0.400879C53.2386 0.400879 51 2.63946 51 5.40088V18.974C51 21.7354 53.2386 23.974 56 23.974C58.7614 23.974 61 21.7354 61 18.974V5.40088ZM14.5575 17.2139C12.2391 15.7137 9.14351 16.3771 7.64336 18.6955C6.14321 21.0139 6.80655 24.1094 9.12496 25.6096L20.6621 33.0748C22.9805 34.5749 26.0761 33.9116 27.5762 31.5932C29.0764 29.2748 28.413 26.1792 26.0946 24.6791L14.5575 17.2139ZM102.498 27.4689C104.939 26.1769 105.87 23.1511 104.578 20.7106C103.286 18.27 100.26 17.339 97.8193 18.6311L86.2822 24.739C83.8417 26.031 82.9106 29.0568 84.2027 31.4973C85.4947 33.9379 88.5205 34.8689 90.9611 33.5768L102.498 27.4689ZM102.667 107.558C102.667 112.691 98.4667 116.891 93.3333 116.891H112V126.225H0V116.891H18.6667C13.5333 116.891 9.33333 112.691 9.33333 107.558V60.8914C9.33333 55.758 13.5333 51.558 18.6667 51.558H93.3333C98.4667 51.558 102.667 55.758 102.667 60.8914V107.558ZM93.3333 60.8914H18.6667V107.558H93.3333V60.8914Z" fill="#76BDC2" fill-opacity="0.4"/>
</svg>
