<svg xmlns="http://www.w3.org/2000/svg" width="95" height="69" viewBox="0 0 95 69">
    <g fill="none" fill-rule="evenodd">
        <g>
            <g>
                <g transform="translate(-549 -1332) translate(492 1178) translate(57 154)">
                    <rect width="95" height="69" fill="#FFF" rx="4"/>
                    <path fill="#00737D" fill-rule="nonzero" d="M74.394 56.746c.258.15.856.432 1.447.432.76 0 1.145-.41 1.145-.936 0-.684-.613-1.001-1.256-1.001h-.598v-1.174h.569c.487-.007 1.115-.216 1.115-.806 0-.418-.31-.727-.923-.727-.51 0-1.049.244-1.307.417l-.296-1.18c.37-.267 1.123-.526 1.928-.526 1.336 0 2.075.785 2.075 1.742 0 .742-.377 1.325-1.145 1.62v.022c.746.151 1.352.785 1.352 1.699 0 1.238-.968 2.138-2.555 2.138-.805 0-1.492-.237-1.854-.496l.303-1.224zM79.696 51.202c.54-.094 1.24-.152 1.98-.152 1.232 0 2.03.245 2.65.77.672.562 1.093 1.448 1.093 2.73 0 1.382-.45 2.34-1.078 2.93-.68.634-1.72.936-2.99.936-.761 0-1.3-.05-1.662-.108v-7.106h.007zm1.47 5.904c.125.028.324.028.51.028 1.328.008 2.192-.806 2.192-2.534.008-1.505-.775-2.297-2.038-2.297-.325 0-.539.029-.664.065v4.738z"/>
                    <path fill="#00737D" fill-rule="nonzero" d="M87.085 53.319c.613.783.965 1.676.965 2.629 0 2.828-3.106 5.169-7.162 5.605v1.794c4.58-.443 8.105-3.065 8.105-6.24-.007-1.418-.718-2.732-1.908-3.788zM77.723 61.494c-3.84-.554-6.72-2.829-6.72-5.554 0-.945.352-1.838.965-2.629-1.197 1.064-1.908 2.378-1.908 3.803 0 3.072 3.3 5.628 7.663 6.189v1.425l2.342-2.267-2.342-2.267v1.3z"/>
                    <path fill="#5ABDC5" fill-rule="nonzero" stroke="#FFF" stroke-width=".55" d="M49.868 12H31.652C23.572 12 17 18.573 17 26.652v12.276c.008 6.995 5.677 12.664 12.672 12.672h22.176c6.995-.008 12.664-5.677 12.672-12.672V26.652C64.52 18.572 57.947 12 49.868 12zm-9.9 38.016h-1.584v-3.168h1.584v3.168zm1.584 0v-3.168h1.584v3.168h-1.584zm21.384-11.088c-.007 6.12-4.967 11.081-11.088 11.088H44.72v-3.96c0-.437-.355-.792-.792-.792h-6.336c-.437 0-.792.355-.792.792v3.96h-7.128c-6.12-.007-11.081-4.967-11.088-11.088V35.65c2.498 4.922 7.548 8.025 13.068 8.03h18.216c5.52-.005 10.57-3.108 13.068-8.03v3.278zm0-9.9c0 7.206-5.862 13.068-13.068 13.068H31.652c-7.206 0-13.068-5.862-13.068-13.068v-2.376c0-7.206 5.862-13.068 13.068-13.068h18.216c7.206 0 13.068 5.862 13.068 13.068v2.376z"/>
                    <path fill="#5ABDC5" fill-rule="nonzero" stroke="#FFF" stroke-width=".55" d="M58.184 27.84c-.006-5.246-4.258-9.498-9.504-9.504H32.84c-5.249 0-9.504 4.255-9.504 9.504s4.255 9.504 9.504 9.504h15.84c5.246-.006 9.498-4.258 9.504-9.504zm-32.39 3.611c.36-1.68 1.123-3.246 2.225-4.563l.742 1.039c-1.297 1.01-2.247 2.398-2.718 3.972-.088-.146-.17-.296-.248-.448h0zm8.012-11.531h6.162v1.584h-3.829c-.664 0-1.328.055-1.984.163l-.349-1.747zm13.559 1.747c-.656-.108-1.32-.163-1.984-.163h-3.829V19.92h6.162l-.35 1.747zM55.477 31.9c-.472-1.574-1.422-2.963-2.719-3.972l.743-1.04c1.102 1.317 1.866 2.884 2.224 4.563-.078.153-.16.303-.248.45h0zm-4.421-3.214v6.71c-.515.162-1.046.27-1.584.324v-7.68c.555.143 1.088.36 1.584.646h0zm1.584 1.296c.875.988 1.417 2.226 1.55 3.539-.467.453-.987.847-1.55 1.173v-4.712zm-1.225-2.898c-1.043-.52-2.189-.8-3.354-.824l.535-2.672c1.395.447 2.683 1.178 3.782 2.148l-.963 1.348zm-4.968-.828h-4.895v-3.168h3.829c.56 0 1.12.046 1.672.135l-.606 3.033zm-10.308-3.168h3.829v3.168h-4.895l-.606-3.033c.553-.09 1.112-.134 1.672-.135h0zm-2.68 3.172c-1.165.024-2.31.304-3.355.823l-.962-1.347c1.099-.97 2.387-1.701 3.782-2.148l.535 2.672zm-4.579 3.72v4.714c-.563-.326-1.083-.72-1.55-1.173.133-1.313.675-2.552 1.55-3.54h0zm1.584-1.295c.496-.286 1.03-.503 1.584-.645v7.68c-.538-.053-1.069-.162-1.584-.325v-6.71zm3.168-.845h1.584v7.92h-1.584v-7.92zm3.168 0h1.584v7.92H36.8v-7.92zm3.168 0h1.584v7.92h-1.584v-7.92zm3.168 0h1.584v7.92h-1.584v-7.92zm3.168 0h1.584v7.92h-1.584v-7.92zm10.234.976c-.518-1.19-1.223-2.289-2.089-3.255l1.137-1.592c.666 1.182 1.015 2.515 1.014 3.871 0 .326-.022.652-.062.976h0zm-1.923-6.212l-1.312 1.836c-1.282-1.1-2.778-1.923-4.395-2.414l.416-2.078c2.04.167 3.938 1.119 5.29 2.656zm-22.419-2.656l.416 2.078c-1.617.491-3.113 1.313-4.395 2.414l-1.312-1.836c1.353-1.537 3.25-2.49 5.291-2.656h0zm-6.262 4.021l1.137 1.592c-.866.966-1.571 2.065-2.089 3.255-.04-.324-.061-.65-.062-.976-.001-1.356.348-2.69 1.014-3.87h0z"/>
                </g>
            </g>
        </g>
    </g>
</svg>
