<svg xmlns="http://www.w3.org/2000/svg" width="95" height="69" viewBox="0 0 95 69">
    <g fill="none" fill-rule="evenodd">
        <g>
            <g>
                <g transform="translate(-549 -1490) translate(492 1178) translate(57 312)">
                    <rect width="95" height="69" fill="#FFF" rx="4"/>
                    <path fill="#5ABDC5" fill-rule="nonzero" d="M57.067 27.991c0-1.061-.863-1.925-1.925-1.925h-2.174c-.274 0-.534.057-.77.16V15.928c0-.319-.259-.577-.578-.577-.319 0-.578.258-.578.577v17.41H30.025v-14.33c0-.319-.259-.577-.578-.577-.319 0-.577.258-.577.577v7.22c-.236-.104-.497-.161-.77-.161h-2.174c-1.062 0-1.926.864-1.926 1.925v6.196c0 1.155.354 2.25 1.025 3.18-.002.054-.003.109-.003.164 0 1.399 1.01 2.567 2.338 2.813v.39c0 .79.492 1.466 1.186 1.74v4.516c-.671.106-1.186.69-1.186 1.39v.636c0 .777.631 1.408 1.407 1.408h4.576c.776 0 1.408-.631 1.408-1.408v-.636c0-.7-.515-1.284-1.186-1.39v-4.387h13.938v4.387c-.671.106-1.186.69-1.186 1.39v.636c0 .777.631 1.408 1.408 1.408H52.3c.776 0 1.408-.631 1.408-1.408v-.636c0-.7-.515-1.284-1.186-1.39v-4.516c.693-.274 1.186-.95 1.186-1.74v-.39c1.328-.246 2.338-1.414 2.338-2.813 0-.055-.002-.11-.004-.165.672-.93 1.025-2.024 1.025-3.179v-6.196zm-31.632 7.725c-.184-.482-.28-.997-.28-1.529v-6.196c0-.424.346-.77.77-.77H28.1c.424 0 .77.346.77.77v5.36c-1.515.124-2.805 1.057-3.435 2.365zm8.16 12.664v.636c0 .14-.113.252-.252.252h-4.576c-.139 0-.252-.113-.252-.252v-.636c0-.14.113-.252.252-.252h4.576c.139 0 .252.113.252.252zm-3.894-1.408v-4.369h2.708v4.369H29.7zm22.851 1.408v.636c0 .14-.113.252-.252.252h-4.576c-.139 0-.252-.113-.252-.252v-.636c0-.14.113-.252.252-.252H52.3c.14 0 .252.113.252.252zm-3.894-1.408v-4.369h2.708v4.369h-2.708zm3.894-6.239c0 .394-.32.715-.714.715H29.23c-.393 0-.714-.32-.714-.715v-.341h24.037v.341zm.632-1.497h-25.3c-.941 0-1.707-.764-1.707-1.705 0-1.676 1.364-3.04 3.04-3.04H51.85c1.676 0 3.04 1.364 3.04 3.04-.001.94-.766 1.705-1.707 1.705zm2.728-5.049c0 .532-.095 1.047-.28 1.53-.63-1.309-1.92-2.242-3.434-2.366v-5.36c0-.424.345-.77.77-.77h2.174c.424 0 .77.346.77.77v6.196z"/>
                    <path fill="#5ABDC5" fill-rule="nonzero" d="M29.447 21.123c.32 0 .578-.259.578-.578v-4.097c0-2.367 1.926-4.292 4.293-4.292H46.75c2.367 0 4.292 1.925 4.292 4.292v4.097c0 .32.259.578.578.578.32 0 .578-.259.578-.578v-4.097c0-3.004-2.444-5.448-5.448-5.448H34.318c-3.004 0-5.448 2.444-5.448 5.448v4.097c0 .32.258.578.577.578z"/>
                    <path fill="#00737D" fill-rule="nonzero" d="M74.394 56.746c.258.15.856.432 1.447.432.76 0 1.145-.41 1.145-.936 0-.684-.613-1.001-1.256-1.001h-.598v-1.174h.569c.487-.007 1.115-.216 1.115-.806 0-.418-.31-.727-.923-.727-.51 0-1.049.244-1.307.417l-.296-1.18c.37-.267 1.123-.526 1.928-.526 1.336 0 2.075.785 2.075 1.742 0 .742-.377 1.325-1.145 1.62v.022c.746.151 1.352.785 1.352 1.699 0 1.238-.968 2.138-2.555 2.138-.805 0-1.492-.237-1.854-.496l.303-1.224zM79.696 51.202c.54-.094 1.24-.152 1.98-.152 1.232 0 2.03.245 2.65.77.672.562 1.093 1.448 1.093 2.73 0 1.382-.45 2.34-1.078 2.93-.68.634-1.72.936-2.99.936-.761 0-1.3-.05-1.662-.108v-7.106h.007zm1.47 5.904c.125.028.324.028.51.028 1.328.008 2.192-.806 2.192-2.534.008-1.505-.775-2.297-2.038-2.297-.325 0-.539.029-.664.065v4.738z"/>
                    <path fill="#00737D" fill-rule="nonzero" d="M87.085 53.319c.613.783.965 1.676.965 2.629 0 2.828-3.106 5.169-7.162 5.605v1.794c4.58-.443 8.105-3.065 8.105-6.24-.007-1.418-.718-2.732-1.908-3.788zM77.723 61.494c-3.84-.554-6.72-2.829-6.72-5.554 0-.945.352-1.838.965-2.629-1.197 1.064-1.908 2.378-1.908 3.803 0 3.072 3.3 5.628 7.663 6.189v1.425l2.342-2.267-2.342-2.267v1.3z"/>
                </g>
            </g>
        </g>
    </g>
</svg>
