<svg xmlns="http://www.w3.org/2000/svg" width="95" height="69" viewBox="0 0 95 69">
    <g fill="none" fill-rule="evenodd">
        <g>
            <g>
                <g transform="translate(-549 -1411) translate(492 1178) translate(57 233)">
                    <rect width="95" height="69" fill="#FFF" rx="4"/>
                    <path fill="#5ABDC5" fill-rule="nonzero" stroke="#FFF" stroke-width=".5" d="M19.768 36.344h7.68v7.053c-.917.325-1.532 1.19-1.536 2.163v2.304c0 .848.688 1.536 1.536 1.536h3.84v3.072h-3.84c-.424 0-.768.344-.768.768v3.072c0 .424.344.768.768.768h27.136c.425 0 .769-.344.769-.768V53.24c0-.424-.344-.768-.769-.768H49.72V49.4h3.84c.848 0 1.536-.688 1.536-1.536V45.56c-.004-.973-.619-1.838-1.536-2.163v-7.053h7.68c.424 0 .768-.344.768-.768v-3.072c0-.424-.344-.768-.768-.768h-4.608v-3.072h3.84c.848 0 1.536-.688 1.536-1.536v-2.304c-.004-.973-.619-1.839-1.536-2.163v-7.053c-.002-2.544-2.064-4.606-4.608-4.608h-3.072c-2.544.002-4.605 2.064-4.608 4.608v7.053c-.284.102-.545.259-.768.461-.223-.202-.484-.36-.768-.46v-7.054c-.003-2.544-2.064-4.606-4.608-4.608h-3.072c-2.544.002-4.605 2.064-4.608 4.608v7.053c-.284.102-.545.259-.768.461-.223-.202-.484-.36-.768-.46v-7.054c-.003-2.544-2.064-4.606-4.608-4.608h-3.072c-2.544.002-4.606 2.064-4.608 4.608v7.053c-.917.324-1.532 1.19-1.536 2.163v2.304c0 .848.688 1.536 1.536 1.536h3.84v3.072h-4.608c-.424 0-.768.344-.768.768v3.072c0 .424.344.768.768.768h0zm7.68 11.52V45.56c0-.424.344-.768.768-.768h10.752c.424 0 .768.344.768.768v2.304H27.448zm1.536-4.608v-6.912c0-1.697 1.375-3.072 3.072-3.072h3.072c1.697 0 3.072 1.376 3.072 3.072v6.912h-9.216zm13.056-9.984h.415c-.402.448-.712.97-.914 1.536h-2.074c-.202-.567-.512-1.088-.914-1.536h3.487zm-2.304-1.536v-3.072h1.536v3.072h-1.536zm.768 12.119c-.223-.203-.484-.359-.768-.46v-7.05h1.536v7.052c-.284.101-.544.256-.768.458zm.768 5.545h3.84v3.072h-9.216V49.4h3.84c.27-.002.536-.075.768-.214.232.139.497.212.768.214zm-6.912 0v3.072h-1.536V49.4h1.536zm19.457 4.608v1.536H28.216v-1.536h25.6zm-7.17-1.536V49.4h1.537v3.072h-1.536zm6.913-4.608H41.272V45.56c0-.424.344-.768.768-.768h10.752c.424 0 .768.344.768.768v2.304zm-10.752-4.608v-6.912c0-1.697 1.375-3.072 3.072-3.072h3.072c1.697 0 3.072 1.376 3.072 3.072v6.912h-9.216zm17.664-9.984v1.536h-7.18c-.202-.567-.513-1.088-.915-1.536h8.095zm-6.912-1.536v-3.072h1.536v3.072H53.56zm-3.84-16.128c0-1.697 1.376-3.072 3.072-3.072h3.072c1.697 0 3.072 1.375 3.072 3.072v6.912H49.72v-6.912zm-1.536 9.216c0-.424.344-.768.768-.768h10.752c.424 0 .768.344.768.768v2.304H48.184v-2.304zm-.768 3.627c.232.138.498.212.768.213h3.84v3.072h-9.216v-3.072h3.84c.27-.002.536-.075.768-.213zm-11.52-12.843c0-1.697 1.375-3.072 3.072-3.072h3.072c1.697 0 3.072 1.375 3.072 3.072v6.912h-9.216v-6.912zm-1.536 9.216c0-.424.344-.768.768-.768H45.88c.424 0 .768.344.768.768v2.304H34.36v-2.304zm-.768 3.627c.232.138.497.212.768.213h3.84v3.072h-9.216v-3.072h3.84c.27-.002.536-.075.768-.213zm-11.52-12.843c0-1.697 1.375-3.072 3.072-3.072h3.072c1.697 0 3.072 1.375 3.072 3.072v6.912h-9.216v-6.912zm-1.536 11.52v-2.304c0-.424.344-.768.768-.768h10.752c.424 0 .768.344.768.768v2.304H20.536zm6.912 1.536v3.072h-1.536v-3.072h1.536zm-6.912 4.608h8.095c-.402.448-.713.97-.914 1.536h-7.181v-1.536z"/>
                    <path fill="#00737D" fill-rule="nonzero" d="M74.394 56.746c.258.15.856.432 1.447.432.76 0 1.145-.41 1.145-.936 0-.684-.613-1.001-1.256-1.001h-.598v-1.174h.569c.487-.007 1.115-.216 1.115-.806 0-.418-.31-.727-.923-.727-.51 0-1.049.244-1.307.417l-.296-1.18c.37-.267 1.123-.526 1.928-.526 1.336 0 2.075.785 2.075 1.742 0 .742-.377 1.325-1.145 1.62v.022c.746.151 1.352.785 1.352 1.699 0 1.238-.968 2.138-2.555 2.138-.805 0-1.492-.237-1.854-.496l.303-1.224zM79.696 51.202c.54-.094 1.24-.152 1.98-.152 1.232 0 2.03.245 2.65.77.672.562 1.093 1.448 1.093 2.73 0 1.382-.45 2.34-1.078 2.93-.68.634-1.72.936-2.99.936-.761 0-1.3-.05-1.662-.108v-7.106h.007zm1.47 5.904c.125.028.324.028.51.028 1.328.008 2.192-.806 2.192-2.534.008-1.505-.775-2.297-2.038-2.297-.325 0-.539.029-.664.065v4.738z"/>
                    <path fill="#00737D" fill-rule="nonzero" d="M87.085 53.319c.613.783.965 1.676.965 2.629 0 2.828-3.106 5.169-7.162 5.605v1.794c4.58-.443 8.105-3.065 8.105-6.24-.007-1.418-.718-2.732-1.908-3.788zM77.723 61.494c-3.84-.554-6.72-2.829-6.72-5.554 0-.945.352-1.838.965-2.629-1.197 1.064-1.908 2.378-1.908 3.803 0 3.072 3.3 5.628 7.663 6.189v1.425l2.342-2.267-2.342-2.267v1.3z"/>
                </g>
            </g>
        </g>
    </g>
</svg>
