<svg width="158" height="105" viewBox="0 0 158 105" fill="none" xmlns="http://www.w3.org/2000/svg">
<g clip-path="url(#clip0_12235_6555)">
<mask id="mask0_12235_6555" style="mask-type:luminance" maskUnits="userSpaceOnUse" x="0" y="0" width="158" height="105">
<path d="M157.241 0H0V104.828H157.241V0Z" fill="white"/>
</mask>
<g mask="url(#mask0_12235_6555)">
<path d="M157.241 0H0V104.828H157.241V0Z" fill="white"/>
<g opacity="0.4">
<path d="M100.241 6.55078H158.413V111.79H100.241V6.55078Z" fill="white"/>
<mask id="mask1_12235_6555" style="mask-type:luminance" maskUnits="userSpaceOnUse" x="99" y="6" width="60" height="107">
<g opacity="0.4">
<path d="M158.551 6.55273H99.5859V112.035H158.551V6.55273Z" fill="white"/>
<path d="M100.241 6.55273H158.413V111.792H100.241V6.55273Z" fill="black"/>
</g>
</mask>
<g mask="url(#mask1_12235_6555)">
<path d="M100.407 111.792V6.55273H100.075V111.792H100.407Z" fill="#BBBBBB"/>
</g>
<path d="M134.968 11.1387H103.515C103.155 11.1387 102.862 11.4309 102.862 11.7914V14.417C102.862 14.7775 103.155 15.0697 103.515 15.0697H134.968C135.329 15.0697 135.621 14.7775 135.621 14.417V11.7914C135.621 11.4309 135.329 11.1387 134.968 11.1387Z" fill="#E9E9E9"/>
<path d="M158.383 19.6543H100.242V42.4772H158.383V19.6543Z" fill="white"/>
<path d="M105.155 23.3232L104.687 23.7307L104.827 24.3373C104.835 24.369 104.832 24.4022 104.821 24.4328C104.81 24.4633 104.79 24.4898 104.763 24.5089C104.737 24.5281 104.706 24.539 104.673 24.5405C104.64 24.5418 104.608 24.5336 104.581 24.5168L104.051 24.1959L103.523 24.5168C103.496 24.5336 103.463 24.5418 103.431 24.5405C103.398 24.539 103.367 24.5281 103.34 24.5089C103.314 24.4898 103.294 24.4633 103.283 24.4328C103.271 24.4022 103.269 24.369 103.276 24.3373L103.416 23.7313L102.949 23.3232C102.924 23.3019 102.907 23.2738 102.898 23.2423C102.889 23.2109 102.89 23.1776 102.9 23.1466C102.91 23.1155 102.929 23.0882 102.955 23.068C102.98 23.0477 103.011 23.0354 103.044 23.0326L103.659 22.9793L103.899 22.4062C103.912 22.3762 103.933 22.3505 103.96 22.3324C103.987 22.3143 104.019 22.3047 104.052 22.3047C104.084 22.3047 104.116 22.3143 104.143 22.3324C104.171 22.3505 104.191 22.3762 104.204 22.4062L104.445 22.9793L105.06 23.0326C105.093 23.0354 105.124 23.0477 105.149 23.068C105.175 23.0882 105.194 23.1155 105.204 23.1466C105.214 23.1776 105.215 23.2109 105.206 23.2423C105.197 23.2738 105.18 23.3019 105.155 23.3232Z" fill="#FFA55A"/>
<path d="M104.098 29.8124L102.888 27.041H103.234L104.252 29.4036L105.266 27.041H105.604L104.389 29.8124H104.098ZM106.531 29.8478C106.23 29.8478 105.991 29.76 105.816 29.5844C105.64 29.4062 105.552 29.1651 105.552 28.8611C105.552 28.6645 105.592 28.4916 105.67 28.3422C105.749 28.1902 105.856 28.0736 105.993 27.9923C106.131 27.9085 106.291 27.8665 106.472 27.8665C106.732 27.8665 106.935 27.9504 107.081 28.1181C107.228 28.2832 107.302 28.5112 107.302 28.8021V28.924H105.863C105.873 29.1415 105.936 29.3079 106.052 29.4232C106.167 29.5359 106.327 29.5923 106.531 29.5923C106.646 29.5923 106.756 29.5752 106.861 29.5412C106.966 29.5045 107.066 29.4455 107.16 29.3643L107.27 29.5883C107.184 29.6696 107.074 29.7338 106.94 29.7809C106.806 29.8255 106.67 29.8478 106.531 29.8478ZM106.48 28.1024C106.299 28.1024 106.156 28.1587 106.052 28.2714C105.947 28.3841 105.885 28.5322 105.867 28.7156H107.026C107.019 28.5217 106.967 28.371 106.873 28.2636C106.781 28.1561 106.65 28.1024 106.48 28.1024ZM107.763 29.8124V27.9019H108.073V28.2282C108.136 28.1076 108.225 28.0172 108.341 27.9569C108.456 27.8967 108.586 27.8665 108.73 27.8665C109.183 27.8665 109.41 28.1181 109.41 28.6213V29.8124H109.092V28.6409C109.092 28.4627 109.056 28.333 108.985 28.2518C108.917 28.1679 108.807 28.126 108.655 28.126C108.48 28.126 108.339 28.181 108.235 28.2911C108.132 28.3985 108.081 28.5427 108.081 28.7235V29.8124H107.763ZM110.673 29.8478C110.214 29.8478 109.985 29.5949 109.985 29.0891V27.9019H110.304V29.0852C110.304 29.2555 110.338 29.3813 110.406 29.4625C110.477 29.5438 110.587 29.5844 110.736 29.5844C110.898 29.5844 111.031 29.5307 111.133 29.4232C111.235 29.3132 111.286 29.1677 111.286 28.9869V27.9019H111.605V29.8124H111.294V29.49C111.234 29.6054 111.149 29.6945 111.039 29.7574C110.931 29.8176 110.809 29.8478 110.673 29.8478ZM113.061 29.8478C112.76 29.8478 112.521 29.76 112.346 29.5844C112.17 29.4062 112.082 29.1651 112.082 28.8611C112.082 28.6645 112.122 28.4916 112.2 28.3422C112.279 28.1902 112.386 28.0736 112.523 27.9923C112.662 27.9085 112.821 27.8665 113.002 27.8665C113.262 27.8665 113.465 27.9504 113.612 28.1181C113.758 28.2832 113.832 28.5112 113.832 28.8021V28.924H112.393C112.403 29.1415 112.466 29.3079 112.582 29.4232C112.697 29.5359 112.857 29.5923 113.061 29.5923C113.177 29.5923 113.287 29.5752 113.391 29.5412C113.496 29.5045 113.596 29.4455 113.69 29.3643L113.8 29.5883C113.714 29.6696 113.604 29.7338 113.47 29.7809C113.336 29.8255 113.2 29.8478 113.061 29.8478ZM113.01 28.1024C112.829 28.1024 112.686 28.1587 112.582 28.2714C112.477 28.3841 112.415 28.5322 112.397 28.7156H113.557C113.549 28.5217 113.498 28.371 113.403 28.2636C113.311 28.1561 113.18 28.1024 113.01 28.1024ZM115.864 29.8124L115.042 27.9019H115.388L116.021 29.4507L116.662 27.9019H116.988L116.163 29.8124H115.864ZM117.286 27.4263V27.0685H117.679V27.4263H117.286ZM117.325 29.8124V27.9019H117.643V29.8124H117.325ZM119.1 29.8478C118.799 29.8478 118.56 29.76 118.384 29.5844C118.209 29.4062 118.121 29.1651 118.121 28.8611C118.121 28.6645 118.16 28.4916 118.239 28.3422C118.318 28.1902 118.425 28.0736 118.561 27.9923C118.7 27.9085 118.86 27.8665 119.041 27.8665C119.3 27.8665 119.504 27.9504 119.65 28.1181C119.797 28.2832 119.87 28.5112 119.87 28.8021V28.924H118.432C118.442 29.1415 118.505 29.3079 118.62 29.4232C118.736 29.5359 118.896 29.5923 119.1 29.5923C119.215 29.5923 119.325 29.5752 119.43 29.5412C119.535 29.5045 119.635 29.4455 119.729 29.3643L119.839 29.5883C119.752 29.6696 119.642 29.7338 119.509 29.7809C119.375 29.8255 119.239 29.8478 119.1 29.8478ZM119.049 28.1024C118.868 28.1024 118.725 28.1587 118.62 28.2714C118.516 28.3841 118.454 28.5322 118.436 28.7156H119.595C119.587 28.5217 119.536 28.371 119.442 28.2636C119.35 28.1561 119.219 28.1024 119.049 28.1024ZM120.815 29.8124L120.104 27.9019H120.438L120.976 29.4389L121.535 27.9019H121.806L122.356 29.4429L122.903 27.9019H123.221L122.506 29.8124H122.203L121.664 28.3304L121.122 29.8124H120.815Z" fill="#414141"/>
<path d="M103.982 34.4437C103.799 34.4437 103.624 34.4171 103.456 34.3637C103.291 34.3078 103.154 34.2329 103.045 34.1389L103.205 33.7656C103.433 33.9434 103.687 34.0323 103.967 34.0323C104.309 34.0323 104.481 33.8977 104.481 33.6284C104.481 33.5014 104.438 33.4075 104.351 33.3465C104.267 33.283 104.144 33.2513 103.982 33.2513H103.551V32.8475H103.936C104.078 32.8475 104.191 32.8131 104.275 32.7446C104.359 32.6734 104.401 32.5757 104.401 32.4512C104.401 32.3344 104.362 32.2455 104.283 32.1845C104.207 32.1236 104.095 32.0931 103.948 32.0931C103.684 32.0931 103.451 32.1846 103.251 32.3674L103.09 32.0016C103.197 31.9001 103.331 31.8213 103.49 31.7654C103.65 31.7096 103.817 31.6816 103.99 31.6816C104.269 31.6816 104.486 31.7451 104.641 31.8721C104.796 31.9966 104.874 32.1705 104.874 32.3941C104.874 32.5389 104.837 32.6658 104.763 32.7751C104.689 32.8843 104.589 32.963 104.462 33.0112C104.617 33.0544 104.737 33.1344 104.824 33.2513C104.91 33.3656 104.953 33.5052 104.953 33.6704C104.953 33.9091 104.867 34.0983 104.695 34.238C104.522 34.3752 104.285 34.4437 103.982 34.4437ZM106.342 34.4437C106.167 34.4437 105.997 34.4171 105.832 34.3637C105.667 34.3078 105.533 34.2329 105.428 34.1389L105.588 33.7656C105.82 33.9434 106.069 34.0323 106.335 34.0323C106.495 34.0323 106.62 33.9916 106.708 33.9103C106.8 33.8265 106.846 33.7148 106.846 33.5751C106.846 33.4329 106.802 33.3186 106.716 33.2322C106.629 33.1433 106.511 33.0989 106.361 33.0989C106.148 33.0989 105.972 33.184 105.832 33.3542H105.504V31.7197H107.154V32.1236H105.981V32.8513C106.115 32.7496 106.28 32.6989 106.476 32.6989C106.646 32.6989 106.793 32.7357 106.918 32.8093C107.045 32.8805 107.142 32.9808 107.211 33.1103C107.283 33.2373 107.318 33.3859 107.318 33.5561C107.318 33.7313 107.279 33.8862 107.2 34.0209C107.121 34.153 107.008 34.2571 106.861 34.3333C106.716 34.4069 106.543 34.4437 106.342 34.4437ZM109.97 34.4437C109.709 34.4437 109.485 34.365 109.299 34.2075C109.116 34.0501 108.993 33.8227 108.93 33.5256H108.56V33.1903H108.888C108.883 33.0989 108.883 33.0126 108.888 32.9313H108.56V32.596H108.93C108.996 32.3014 109.12 32.0753 109.303 31.9178C109.486 31.7604 109.709 31.6816 109.97 31.6816C110.118 31.6816 110.257 31.7083 110.389 31.7616C110.521 31.815 110.631 31.8937 110.717 31.9978L110.556 32.3369C110.475 32.248 110.389 32.1858 110.298 32.1502C110.206 32.1147 110.108 32.0969 110.004 32.0969C109.867 32.0969 109.748 32.1376 109.646 32.2188C109.547 32.2976 109.475 32.4233 109.429 32.596H110V32.9313H109.372C109.369 33.0176 109.371 33.104 109.376 33.1903H110V33.5256H109.429C109.475 33.7008 109.547 33.8291 109.646 33.9103C109.748 33.9891 109.867 34.0285 110.004 34.0285C110.108 34.0285 110.206 34.0107 110.298 33.9751C110.389 33.937 110.475 33.8748 110.556 33.7885L110.717 34.1237C110.631 34.2304 110.521 34.3104 110.389 34.3637C110.257 34.4171 110.118 34.4437 109.97 34.4437Z" fill="#414141"/>
<path d="M103.055 39.0061L103.094 38.7603H103.463L103.627 37.7283L103.331 37.8907L103.237 37.6634L103.769 37.3712H103.98L103.76 38.7603H104.105L104.066 39.0061H103.055ZM104.951 39.0293C104.776 39.0293 104.642 38.9768 104.549 38.8716C104.458 38.7649 104.413 38.6119 104.413 38.4125C104.413 38.1929 104.44 38.0043 104.494 37.8466C104.549 37.6874 104.628 37.5645 104.728 37.4779C104.83 37.3913 104.95 37.348 105.088 37.348C105.262 37.348 105.395 37.4005 105.486 37.5057C105.579 37.6108 105.626 37.7623 105.626 37.9603C105.626 38.1797 105.597 38.3699 105.542 38.5307C105.488 38.6899 105.41 38.8128 105.308 38.8994C105.208 38.986 105.088 39.0293 104.951 39.0293ZM104.965 38.7858C105.075 38.7858 105.163 38.7131 105.231 38.5678C105.301 38.4225 105.337 38.2053 105.338 37.9162C105.339 37.6997 105.251 37.5915 105.073 37.5915C104.965 37.5915 104.875 37.6642 104.805 37.8095C104.735 37.9548 104.7 38.1713 104.7 38.4588C104.7 38.6768 104.788 38.7858 104.965 38.7858ZM106.341 39.0293C106.167 39.0293 106.032 38.9768 105.94 38.8716C105.849 38.7649 105.803 38.6119 105.803 38.4125C105.803 38.1929 105.83 38.0043 105.884 37.8466C105.94 37.6874 106.018 37.5645 106.118 37.4779C106.22 37.3913 106.34 37.348 106.478 37.348C106.653 37.348 106.786 37.4005 106.877 37.5057C106.969 37.6108 107.016 37.7623 107.016 37.9603C107.016 38.1797 106.988 38.3699 106.933 38.5307C106.878 38.6899 106.8 38.8128 106.698 38.8994C106.598 38.986 106.479 39.0293 106.341 39.0293ZM106.355 38.7858C106.465 38.7858 106.554 38.7131 106.621 38.5678C106.692 38.4225 106.727 38.2053 106.728 37.9162C106.73 37.6997 106.642 37.5915 106.464 37.5915C106.356 37.5915 106.266 37.6642 106.195 37.8095C106.125 37.9548 106.091 38.1713 106.091 38.4588C106.091 38.6768 106.179 38.7858 106.355 38.7858ZM108.287 39.0293C108.136 39.0293 108.026 38.9884 107.958 38.9064C107.89 38.8229 107.866 38.7155 107.886 38.584L107.965 38.0901H107.747L107.782 37.8721H107.999L108.053 37.5335H108.343L108.29 37.8721H108.633L108.598 38.0901H108.255L108.178 38.5655C108.166 38.6459 108.175 38.7039 108.206 38.7394C108.238 38.7735 108.288 38.7904 108.354 38.7904C108.377 38.7904 108.4 38.7881 108.422 38.7835C108.443 38.7788 108.464 38.7735 108.484 38.7672L108.5 38.9852C108.476 38.9992 108.443 39.01 108.403 39.0177C108.363 39.0254 108.324 39.0293 108.287 39.0293ZM108.843 37.6286L108.89 37.3457H109.212L109.165 37.6286H108.843ZM108.639 39.0061L108.82 37.8721H109.11L108.929 39.0061H108.639ZM109.796 39.0293C109.615 39.0293 109.48 38.9821 109.39 38.8878C109.3 38.792 109.256 38.6667 109.256 38.5122C109.256 38.4286 109.268 38.3475 109.293 38.2686C109.319 38.1883 109.359 38.1172 109.411 38.0553C109.464 37.9919 109.53 37.9416 109.61 37.9046C109.692 37.8675 109.789 37.8489 109.898 37.8489C109.974 37.8489 110.047 37.8605 110.116 37.8837C110.186 37.9054 110.242 37.9355 110.285 37.9741L110.195 38.1759C110.122 38.1079 110.03 38.0739 109.916 38.0739C109.829 38.0739 109.757 38.0955 109.703 38.1388C109.651 38.1821 109.612 38.2369 109.587 38.3034C109.564 38.3699 109.553 38.4387 109.553 38.5098C109.553 38.5979 109.574 38.6691 109.618 38.7232C109.662 38.7773 109.735 38.8043 109.838 38.8043C109.881 38.8043 109.927 38.7959 109.975 38.7788C110.024 38.7619 110.069 38.7363 110.109 38.7023L110.176 38.9087C110.133 38.9473 110.075 38.9775 110.002 38.9992C109.931 39.0192 109.863 39.0293 109.796 39.0293ZM110.326 39.0061L110.584 37.3712H110.874L110.718 38.3545H110.723L111.25 37.8721H111.595L111.003 38.4286L111.461 39.0061H111.124L110.702 38.489H110.697L110.616 39.0061H110.326ZM112.133 39.0293C112.019 39.0293 111.92 39.0084 111.835 38.9667C111.751 38.9234 111.686 38.8631 111.64 38.7858C111.594 38.7085 111.57 38.618 111.57 38.5145C111.57 38.3877 111.596 38.2749 111.649 38.1759C111.703 38.0754 111.778 37.9958 111.871 37.9371C111.966 37.8783 112.074 37.8489 112.196 37.8489C112.32 37.8489 112.418 37.8767 112.491 37.9324C112.563 37.9865 112.613 38.0592 112.639 38.1504C112.667 38.2401 112.675 38.3382 112.662 38.4449L112.656 38.5052H111.841C111.839 38.5995 111.865 38.6737 111.92 38.7278C111.976 38.7819 112.055 38.809 112.159 38.809C112.227 38.809 112.291 38.7997 112.352 38.7812C112.414 38.7611 112.468 38.7317 112.516 38.693L112.588 38.8832C112.534 38.9296 112.466 38.9659 112.384 38.9922C112.304 39.0169 112.221 39.0293 112.133 39.0293ZM112.194 38.046C112.129 38.046 112.074 38.06 112.029 38.0878C111.985 38.114 111.949 38.1496 111.922 38.1944C111.896 38.2393 111.877 38.2872 111.865 38.3382H112.44C112.446 38.2548 112.43 38.1852 112.391 38.1295C112.352 38.0739 112.287 38.046 112.194 38.046ZM113.338 39.0293C113.186 39.0293 113.076 38.9884 113.008 38.9064C112.94 38.8229 112.916 38.7155 112.936 38.584L113.015 38.0901H112.797L112.832 37.8721H113.05L113.103 37.5335H113.393L113.34 37.8721H113.683L113.648 38.0901H113.305L113.228 38.5655C113.216 38.6459 113.225 38.7039 113.256 38.7394C113.288 38.7735 113.338 38.7904 113.404 38.7904C113.428 38.7904 113.45 38.7881 113.472 38.7835C113.494 38.7788 113.515 38.7735 113.534 38.7672L113.551 38.9852C113.526 38.9992 113.494 39.01 113.454 39.0177C113.413 39.0254 113.374 39.0293 113.338 39.0293ZM114.153 39.0293C114.057 39.0293 113.967 39.0177 113.882 38.9945C113.798 38.9697 113.728 38.9357 113.67 38.8924L113.762 38.7046C113.817 38.7433 113.879 38.7735 113.947 38.7951C114.016 38.8152 114.085 38.8252 114.153 38.8252C114.226 38.8252 114.282 38.812 114.32 38.7858C114.359 38.758 114.378 38.7216 114.378 38.6768C114.378 38.6165 114.336 38.5771 114.253 38.5586L114.039 38.5145C113.954 38.4974 113.888 38.4642 113.84 38.4147C113.792 38.3637 113.768 38.3004 113.768 38.2246C113.768 38.155 113.788 38.0924 113.826 38.0368C113.866 37.9796 113.924 37.9339 114 37.8999C114.077 37.8659 114.17 37.8489 114.278 37.8489C114.352 37.8489 114.427 37.8605 114.501 37.8837C114.577 37.9054 114.64 37.9378 114.691 37.9811L114.605 38.1666C114.558 38.128 114.504 38.0993 114.446 38.0808C114.387 38.0623 114.326 38.053 114.265 38.053C114.189 38.053 114.13 38.0677 114.09 38.0971C114.05 38.1249 114.03 38.162 114.03 38.2084C114.03 38.2362 114.039 38.2601 114.056 38.2802C114.074 38.3004 114.103 38.3142 114.142 38.322L114.355 38.3661C114.545 38.4062 114.64 38.5029 114.64 38.6559C114.64 38.775 114.596 38.8669 114.506 38.9319C114.417 38.9968 114.3 39.0293 114.153 39.0293ZM115.834 39.0293C115.764 39.0293 115.701 39.0138 115.644 38.9829C115.587 38.9504 115.54 38.9079 115.505 38.8554C115.471 38.8028 115.454 38.744 115.454 38.6791C115.454 38.5601 115.505 38.4727 115.606 38.417C115.71 38.3614 115.872 38.3336 116.091 38.3336H116.251L116.258 38.2918C116.271 38.2192 116.259 38.1636 116.224 38.1249C116.19 38.0862 116.129 38.0669 116.043 38.0669C115.905 38.0669 115.776 38.1056 115.653 38.1829L115.588 37.9834C115.647 37.9432 115.721 37.9107 115.811 37.886C115.901 37.8613 115.99 37.8489 116.08 37.8489C116.202 37.8489 116.298 37.8713 116.367 37.9162C116.437 37.961 116.484 38.022 116.509 38.0993C116.534 38.1767 116.538 38.2648 116.522 38.3637L116.421 39.0061H116.15L116.175 38.8391C116.137 38.904 116.087 38.952 116.026 38.9829C115.966 39.0138 115.902 39.0293 115.834 39.0293ZM115.924 38.8299C115.997 38.8299 116.061 38.8067 116.114 38.7603C116.169 38.7123 116.202 38.6482 116.214 38.5678L116.226 38.5006H116.105C115.969 38.5006 115.873 38.5122 115.817 38.5354C115.764 38.557 115.737 38.5987 115.737 38.6606C115.737 38.7147 115.755 38.7564 115.79 38.7858C115.827 38.8152 115.872 38.8299 115.924 38.8299ZM117.037 39.0061L116.727 37.8721H117.021L117.212 38.6652L117.664 37.8721H117.965L117.29 39.0061H117.037ZM118.291 39.0293C118.221 39.0293 118.158 39.0138 118.101 38.9829C118.044 38.9504 117.997 38.9079 117.962 38.8554C117.928 38.8028 117.911 38.744 117.911 38.6791C117.911 38.5601 117.962 38.4727 118.064 38.417C118.168 38.3614 118.329 38.3336 118.548 38.3336H118.709L118.715 38.2918C118.728 38.2192 118.717 38.1636 118.681 38.1249C118.646 38.0862 118.586 38.0669 118.5 38.0669C118.362 38.0669 118.232 38.1056 118.111 38.1829L118.045 37.9834C118.104 37.9432 118.178 37.9107 118.268 37.886C118.358 37.8613 118.447 37.8489 118.537 37.8489C118.659 37.8489 118.755 37.8713 118.825 37.9162C118.894 37.961 118.941 38.022 118.966 38.0993C118.99 38.1767 118.995 38.2648 118.98 38.3637L118.878 39.0061H118.607L118.632 38.8391C118.593 38.904 118.544 38.952 118.483 38.9829C118.423 39.0138 118.359 39.0293 118.291 39.0293ZM118.382 38.8299C118.455 38.8299 118.517 38.8067 118.572 38.7603C118.626 38.7123 118.659 38.6482 118.671 38.5678L118.683 38.5006H118.563C118.426 38.5006 118.331 38.5122 118.275 38.5354C118.221 38.557 118.194 38.5987 118.194 38.6606C118.194 38.7147 118.211 38.7564 118.247 38.7858C118.284 38.8152 118.329 38.8299 118.382 38.8299ZM119.376 37.6286L119.422 37.3457H119.745L119.699 37.6286H119.376ZM119.172 39.0061L119.353 37.8721H119.643L119.462 39.0061H119.172ZM120.165 39.0293C120.033 39.0293 119.938 38.9929 119.881 38.9203C119.824 38.8461 119.806 38.7387 119.828 38.5979L120.023 37.3712H120.313L120.118 38.5956C120.107 38.6636 120.113 38.7139 120.136 38.7464C120.161 38.7773 120.203 38.7927 120.261 38.7927C120.279 38.7927 120.296 38.792 120.313 38.7904C120.33 38.7873 120.347 38.7851 120.364 38.7835L120.324 39.0084C120.278 39.0224 120.225 39.0293 120.165 39.0293ZM120.891 39.0293C120.822 39.0293 120.758 39.0138 120.701 38.9829C120.643 38.9504 120.597 38.9079 120.562 38.8554C120.527 38.8028 120.51 38.744 120.51 38.6791C120.51 38.5601 120.562 38.4727 120.664 38.417C120.767 38.3614 120.929 38.3336 121.149 38.3336H121.308L121.315 38.2918C121.327 38.2192 121.316 38.1636 121.28 38.1249C121.246 38.0862 121.186 38.0669 121.099 38.0669C120.962 38.0669 120.832 38.1056 120.71 38.1829L120.645 37.9834C120.704 37.9432 120.778 37.9107 120.868 37.886C120.957 37.8613 121.047 37.8489 121.137 37.8489C121.259 37.8489 121.355 37.8713 121.424 37.9162C121.494 37.961 121.541 38.022 121.566 38.0993C121.591 38.1767 121.595 38.2648 121.58 38.3637L121.477 39.0061H121.206L121.232 38.8391C121.193 38.904 121.144 38.952 121.084 38.9829C121.023 39.0138 120.959 39.0293 120.891 39.0293ZM120.982 38.8299C121.054 38.8299 121.117 38.8067 121.172 38.7603C121.226 38.7123 121.259 38.6482 121.271 38.5678L121.283 38.5006H121.162C121.026 38.5006 120.93 38.5122 120.875 38.5354C120.82 38.557 120.793 38.5987 120.793 38.6606C120.793 38.7147 120.811 38.7564 120.847 38.7858C120.884 38.8152 120.929 38.8299 120.982 38.8299ZM122.449 39.0293C122.365 39.0293 122.291 39.0108 122.226 38.9736C122.163 38.935 122.116 38.8785 122.085 38.8043L122.055 39.0061H121.772L122.032 37.3712H122.321L122.215 38.0368C122.258 37.978 122.312 37.9324 122.375 37.8999C122.44 37.8659 122.511 37.8489 122.591 37.8489C122.72 37.8489 122.824 37.893 122.901 37.9811C122.98 38.0677 123.02 38.1867 123.02 38.3382C123.02 38.4666 122.996 38.5833 122.95 38.6884C122.905 38.792 122.84 38.8747 122.755 38.9365C122.67 38.9984 122.568 39.0293 122.449 39.0293ZM122.395 38.809C122.467 38.809 122.526 38.7889 122.574 38.7487C122.624 38.7085 122.661 38.6536 122.688 38.584C122.714 38.5145 122.728 38.4372 122.728 38.3521C122.728 38.2609 122.705 38.1913 122.66 38.1434C122.617 38.094 122.557 38.0692 122.479 38.0692C122.41 38.0692 122.35 38.0893 122.3 38.1295C122.251 38.1697 122.213 38.2246 122.187 38.2941C122.161 38.3622 122.148 38.4395 122.148 38.5261C122.148 38.6173 122.169 38.6876 122.213 38.7371C122.257 38.7851 122.318 38.809 122.395 38.809ZM123.564 39.0293C123.432 39.0293 123.338 38.9929 123.281 38.9203C123.224 38.8461 123.206 38.7387 123.227 38.5979L123.422 37.3712H123.712L123.517 38.5956C123.507 38.6636 123.512 38.7139 123.536 38.7464C123.56 38.7773 123.602 38.7927 123.661 38.7927C123.678 38.7927 123.695 38.792 123.712 38.7904C123.729 38.7873 123.746 38.7851 123.763 38.7835L123.723 39.0084C123.677 39.0224 123.624 39.0293 123.564 39.0293ZM124.481 39.0293C124.366 39.0293 124.267 39.0084 124.181 38.9667C124.098 38.9234 124.033 38.8631 123.987 38.7858C123.94 38.7085 123.917 38.618 123.917 38.5145C123.917 38.3877 123.944 38.2749 123.996 38.1759C124.05 38.0754 124.124 37.9958 124.219 37.9371C124.313 37.8783 124.421 37.8489 124.543 37.8489C124.667 37.8489 124.765 37.8767 124.838 37.9324C124.911 37.9865 124.96 38.0592 124.986 38.1504C125.014 38.2401 125.022 38.3382 125.01 38.4449L125.002 38.5052H124.189C124.185 38.5995 124.212 38.6737 124.267 38.7278C124.323 38.7819 124.403 38.809 124.506 38.809C124.574 38.809 124.638 38.7997 124.698 38.7812C124.761 38.7611 124.816 38.7317 124.863 38.693L124.935 38.8832C124.881 38.9296 124.813 38.9659 124.731 38.9922C124.65 39.0169 124.567 39.0293 124.481 39.0293ZM124.541 38.046C124.476 38.046 124.421 38.06 124.376 38.0878C124.331 38.114 124.296 38.1496 124.27 38.1944C124.244 38.2393 124.224 38.2872 124.212 38.3382H124.787C124.793 38.2548 124.777 38.1852 124.738 38.1295C124.7 38.0739 124.633 38.046 124.541 38.046Z" fill="#36AAC8"/>
<path d="M155.732 42.3125H102.892V42.4781H155.732V42.3125Z" fill="#BBBBBB"/>
<path d="M158.383 44.002H100.242V61.9387H158.383V44.002Z" fill="white"/>
<path d="M104.098 49.2733L102.888 46.502H103.234L104.252 48.8645L105.266 46.502H105.604L104.389 49.2733H104.098ZM106.531 49.3087C106.23 49.3087 105.991 49.2209 105.816 49.0453C105.64 48.8671 105.552 48.626 105.552 48.322C105.552 48.1255 105.592 47.9525 105.67 47.8031C105.749 47.6511 105.856 47.5345 105.993 47.4533C106.131 47.3694 106.291 47.3275 106.472 47.3275C106.732 47.3275 106.935 47.4113 107.081 47.5791C107.228 47.7442 107.302 47.9722 107.302 48.2631V48.3849H105.863C105.873 48.6024 105.936 48.7689 106.052 48.8842C106.167 48.9969 106.327 49.0532 106.531 49.0532C106.646 49.0532 106.756 49.0362 106.861 49.0021C106.966 48.9654 107.066 48.9064 107.16 48.8252L107.27 49.0493C107.184 49.1305 107.074 49.1947 106.94 49.2419C106.806 49.2864 106.67 49.3087 106.531 49.3087ZM106.48 47.5633C106.299 47.5633 106.156 47.6197 106.052 47.7324C105.947 47.8451 105.885 47.9931 105.867 48.1766H107.026C107.019 47.9826 106.967 47.832 106.873 47.7245C106.781 47.6171 106.65 47.5633 106.48 47.5633ZM107.763 49.2733V47.3629H108.073V47.6891C108.136 47.5686 108.225 47.4782 108.341 47.4179C108.456 47.3576 108.586 47.3275 108.73 47.3275C109.183 47.3275 109.41 47.5791 109.41 48.0822V49.2733H109.092V48.1019C109.092 47.9237 109.056 47.794 108.985 47.7127C108.917 47.6288 108.807 47.5869 108.655 47.5869C108.48 47.5869 108.339 47.642 108.235 47.752C108.132 47.8595 108.081 48.0036 108.081 48.1844V49.2733H107.763ZM110.673 49.3087C110.214 49.3087 109.985 49.0558 109.985 48.55V47.3629H110.304V48.5461C110.304 48.7164 110.338 48.8422 110.406 48.9235C110.477 49.0047 110.587 49.0453 110.736 49.0453C110.898 49.0453 111.031 48.9916 111.133 48.8842C111.235 48.7741 111.286 48.6286 111.286 48.4478V47.3629H111.605V49.2733H111.294V48.951C111.234 49.0663 111.149 49.1554 111.039 49.2183C110.931 49.2786 110.809 49.3087 110.673 49.3087ZM113.061 49.3087C112.76 49.3087 112.521 49.2209 112.346 49.0453C112.17 48.8671 112.082 48.626 112.082 48.322C112.082 48.1255 112.122 47.9525 112.2 47.8031C112.279 47.6511 112.386 47.5345 112.523 47.4533C112.662 47.3694 112.821 47.3275 113.002 47.3275C113.262 47.3275 113.465 47.4113 113.612 47.5791C113.758 47.7442 113.832 47.9722 113.832 48.2631V48.3849H112.393C112.403 48.6024 112.466 48.7689 112.582 48.8842C112.697 48.9969 112.857 49.0532 113.061 49.0532C113.177 49.0532 113.287 49.0362 113.391 49.0021C113.496 48.9654 113.596 48.9064 113.69 48.8252L113.8 49.0493C113.714 49.1305 113.604 49.1947 113.47 49.2419C113.336 49.2864 113.2 49.3087 113.061 49.3087ZM113.01 47.5633C112.829 47.5633 112.686 47.6197 112.582 47.7324C112.477 47.8451 112.415 47.9931 112.397 48.1766H113.557C113.549 47.9826 113.498 47.832 113.403 47.7245C113.311 47.6171 113.18 47.5633 113.01 47.5633ZM115.864 49.2733L115.042 47.3629H115.388L116.021 48.9117L116.662 47.3629H116.988L116.163 49.2733H115.864ZM117.286 46.8872V46.5295H117.679V46.8872H117.286ZM117.325 49.2733V47.3629H117.643V49.2733H117.325ZM119.1 49.3087C118.799 49.3087 118.56 49.2209 118.384 49.0453C118.209 48.8671 118.121 48.626 118.121 48.322C118.121 48.1255 118.16 47.9525 118.239 47.8031C118.318 47.6511 118.425 47.5345 118.561 47.4533C118.7 47.3694 118.86 47.3275 119.041 47.3275C119.3 47.3275 119.504 47.4113 119.65 47.5791C119.797 47.7442 119.87 47.9722 119.87 48.2631V48.3849H118.432C118.442 48.6024 118.505 48.7689 118.62 48.8842C118.736 48.9969 118.896 49.0532 119.1 49.0532C119.215 49.0532 119.325 49.0362 119.43 49.0021C119.535 48.9654 119.635 48.9064 119.729 48.8252L119.839 49.0493C119.752 49.1305 119.642 49.1947 119.509 49.2419C119.375 49.2864 119.239 49.3087 119.1 49.3087ZM119.049 47.5633C118.868 47.5633 118.725 47.6197 118.62 47.7324C118.516 47.8451 118.454 47.9931 118.436 48.1766H119.595C119.587 47.9826 119.536 47.832 119.442 47.7245C119.35 47.6171 119.219 47.5633 119.049 47.5633ZM120.815 49.2733L120.104 47.3629H120.438L120.976 48.8999L121.535 47.3629H121.806L122.356 48.9038L122.903 47.3629H123.221L122.506 49.2733H122.203L121.664 47.7913L121.122 49.2733H120.815Z" fill="#414141"/>
<path d="M104.222 53.8666V53.3561H103.052V52.998L104.305 51.1806H104.709V52.9522H105.087V53.3561H104.709V53.8666H104.222ZM104.222 52.9522V51.9274L103.521 52.9522H104.222ZM106.319 53.9047C106.002 53.9047 105.76 53.7853 105.592 53.5465C105.424 53.3052 105.34 52.9624 105.34 52.5179C105.34 52.0683 105.424 51.7267 105.592 51.4931C105.76 51.2594 106.002 51.1426 106.319 51.1426C106.639 51.1426 106.882 51.2594 107.047 51.4931C107.215 51.7267 107.299 52.0671 107.299 52.5141C107.299 52.9611 107.215 53.3052 107.047 53.5465C106.879 53.7853 106.637 53.9047 106.319 53.9047ZM106.319 53.5047C106.492 53.5047 106.619 53.4259 106.7 53.2684C106.784 53.1084 106.826 52.857 106.826 52.5141C106.826 52.1738 106.784 51.9274 106.7 51.775C106.619 51.6201 106.492 51.5426 106.319 51.5426C106.149 51.5426 106.022 51.6201 105.938 51.775C105.855 51.9274 105.813 52.1738 105.813 52.5141C105.813 52.857 105.855 53.1084 105.938 53.2684C106.022 53.4259 106.149 53.5047 106.319 53.5047ZM109.97 53.9047C109.708 53.9047 109.484 53.826 109.299 53.6685C109.116 53.511 108.993 53.2837 108.929 52.9865H108.56V52.6512H108.887C108.883 52.5598 108.883 52.4734 108.887 52.3922H108.56V52.0569H108.929C108.995 51.7623 109.12 51.5363 109.303 51.3788C109.486 51.2213 109.708 51.1426 109.97 51.1426C110.117 51.1426 110.257 51.1692 110.389 51.2226C110.521 51.2759 110.63 51.3547 110.717 51.4588L110.556 51.7979C110.475 51.709 110.389 51.6467 110.297 51.6112C110.206 51.5756 110.108 51.5578 110.004 51.5578C109.867 51.5578 109.748 51.5984 109.646 51.6798C109.546 51.7585 109.474 51.8842 109.429 52.0569H110V52.3922H109.372C109.369 52.4785 109.37 52.5649 109.375 52.6512H110V52.9865H109.429C109.474 53.1618 109.546 53.29 109.646 53.3713C109.748 53.45 109.867 53.4894 110.004 53.4894C110.108 53.4894 110.206 53.4716 110.297 53.4361C110.389 53.3979 110.475 53.3358 110.556 53.2494L110.717 53.5847C110.63 53.6913 110.521 53.7713 110.389 53.8247C110.257 53.878 110.117 53.9047 109.97 53.9047Z" fill="#414141"/>
<path d="M103.055 58.469L103.094 58.2232H103.463L103.627 57.1912L103.331 57.3536L103.238 57.1263L103.769 56.8341H103.98L103.76 58.2232H104.105L104.066 58.469H103.055ZM104.951 58.4922C104.776 58.4922 104.642 58.4396 104.55 58.3345C104.458 58.2278 104.413 58.0747 104.413 57.8753C104.413 57.6558 104.44 57.4672 104.494 57.3095C104.55 57.1503 104.628 57.0274 104.728 56.9407C104.83 56.8542 104.95 56.8109 105.088 56.8109C105.262 56.8109 105.395 56.8634 105.486 56.9686C105.579 57.0737 105.626 57.2252 105.626 57.4231C105.626 57.6426 105.597 57.8328 105.542 57.9936C105.488 58.1528 105.41 58.2757 105.308 58.3623C105.208 58.4489 105.088 58.4922 104.951 58.4922ZM104.965 58.2487C105.075 58.2487 105.163 58.176 105.231 58.0307C105.301 57.8854 105.337 57.6681 105.338 57.3791C105.339 57.1626 105.251 57.0544 105.073 57.0544C104.965 57.0544 104.875 57.1271 104.805 57.2724C104.735 57.4177 104.7 57.6341 104.7 57.9217C104.7 58.1397 104.788 58.2487 104.965 58.2487ZM106.341 58.4922C106.167 58.4922 106.032 58.4396 105.94 58.3345C105.849 58.2278 105.803 58.0747 105.803 57.8753C105.803 57.6558 105.83 57.4672 105.884 57.3095C105.94 57.1503 106.018 57.0274 106.118 56.9407C106.22 56.8542 106.34 56.8109 106.478 56.8109C106.653 56.8109 106.786 56.8634 106.877 56.9686C106.969 57.0737 107.016 57.2252 107.016 57.4231C107.016 57.6426 106.988 57.8328 106.933 57.9936C106.878 58.1528 106.8 58.2757 106.698 58.3623C106.598 58.4489 106.479 58.4922 106.341 58.4922ZM106.355 58.2487C106.465 58.2487 106.554 58.176 106.621 58.0307C106.692 57.8854 106.727 57.6681 106.728 57.3791C106.73 57.1626 106.642 57.0544 106.464 57.0544C106.356 57.0544 106.266 57.1271 106.195 57.2724C106.125 57.4177 106.091 57.6341 106.091 57.9217C106.091 58.1397 106.179 58.2487 106.355 58.2487ZM108.287 58.4922C108.136 58.4922 108.026 58.4512 107.958 58.3693C107.89 58.2857 107.866 58.1783 107.886 58.0469L107.965 57.553H107.747L107.782 57.335H107.999L108.053 56.9964H108.343L108.29 57.335H108.633L108.598 57.553H108.255L108.178 58.0284C108.166 58.1088 108.175 58.1667 108.206 58.2023C108.238 58.2363 108.288 58.2533 108.354 58.2533C108.377 58.2533 108.4 58.251 108.422 58.2464C108.443 58.2417 108.464 58.2363 108.484 58.2301L108.5 58.4481C108.476 58.4621 108.443 58.4729 108.403 58.4806C108.363 58.4883 108.324 58.4922 108.287 58.4922ZM108.843 57.0915L108.89 56.8086H109.212L109.165 57.0915H108.843ZM108.639 58.469L108.82 57.335H109.11L108.929 58.469H108.639ZM109.796 58.4922C109.615 58.4922 109.48 58.445 109.39 58.3507C109.3 58.2549 109.256 58.1296 109.256 57.975C109.256 57.8915 109.268 57.8104 109.293 57.7315C109.319 57.6511 109.359 57.58 109.411 57.5182C109.464 57.4548 109.53 57.4045 109.61 57.3675C109.692 57.3304 109.789 57.3118 109.898 57.3118C109.974 57.3118 110.047 57.3234 110.116 57.3466C110.186 57.3682 110.242 57.3984 110.285 57.437L110.195 57.6388C110.122 57.5708 110.03 57.5368 109.916 57.5368C109.829 57.5368 109.757 57.5584 109.703 57.6017C109.651 57.645 109.612 57.6998 109.587 57.7663C109.564 57.8328 109.553 57.9016 109.553 57.9727C109.553 58.0608 109.574 58.132 109.618 58.186C109.662 58.2401 109.735 58.2672 109.838 58.2672C109.881 58.2672 109.927 58.2588 109.975 58.2417C110.024 58.2247 110.069 58.1992 110.109 58.1652L110.176 58.3716C110.133 58.4102 110.075 58.4404 110.002 58.4621C109.931 58.4821 109.863 58.4922 109.796 58.4922ZM110.326 58.469L110.584 56.8341H110.874L110.718 57.8174H110.723L111.25 57.335H111.595L111.003 57.8915L111.461 58.469H111.124L110.702 57.9519H110.697L110.616 58.469H110.326ZM112.133 58.4922C112.019 58.4922 111.92 58.4713 111.835 58.4296C111.751 58.3862 111.686 58.326 111.64 58.2487C111.594 58.1714 111.57 58.0809 111.57 57.9774C111.57 57.8506 111.596 57.7377 111.649 57.6388C111.703 57.5383 111.778 57.4587 111.871 57.3999C111.966 57.3412 112.074 57.3118 112.196 57.3118C112.32 57.3118 112.418 57.3396 112.491 57.3953C112.563 57.4494 112.613 57.5221 112.639 57.6133C112.667 57.7029 112.675 57.8011 112.662 57.9078L112.656 57.9681H111.841C111.839 58.0624 111.865 58.1366 111.92 58.1907C111.976 58.2448 112.055 58.2719 112.159 58.2719C112.227 58.2719 112.291 58.2626 112.352 58.244C112.414 58.224 112.468 58.1945 112.516 58.1559L112.588 58.3461C112.534 58.3925 112.466 58.4288 112.384 58.455C112.304 58.4798 112.221 58.4922 112.133 58.4922ZM112.194 57.5089C112.129 57.5089 112.074 57.5228 112.029 57.5506C111.985 57.5769 111.949 57.6125 111.922 57.6573C111.896 57.7022 111.877 57.7501 111.865 57.8011H112.44C112.446 57.7176 112.43 57.6481 112.391 57.5924C112.352 57.5368 112.287 57.5089 112.194 57.5089ZM113.338 58.4922C113.186 58.4922 113.076 58.4512 113.008 58.3693C112.94 58.2857 112.916 58.1783 112.936 58.0469L113.015 57.553H112.797L112.832 57.335H113.05L113.103 56.9964H113.393L113.34 57.335H113.683L113.648 57.553H113.305L113.228 58.0284C113.216 58.1088 113.225 58.1667 113.256 58.2023C113.288 58.2363 113.338 58.2533 113.404 58.2533C113.428 58.2533 113.45 58.251 113.472 58.2464C113.494 58.2417 113.515 58.2363 113.534 58.2301L113.551 58.4481C113.526 58.4621 113.494 58.4729 113.454 58.4806C113.413 58.4883 113.374 58.4922 113.338 58.4922ZM114.153 58.4922C114.057 58.4922 113.967 58.4806 113.882 58.4574C113.798 58.4326 113.728 58.3986 113.67 58.3553L113.762 58.1675C113.817 58.2061 113.879 58.2363 113.947 58.258C114.016 58.278 114.085 58.2881 114.153 58.2881C114.226 58.2881 114.282 58.2749 114.32 58.2487C114.359 58.2208 114.378 58.1845 114.378 58.1397C114.378 58.0794 114.336 58.04 114.253 58.0214L114.039 57.9774C113.954 57.9603 113.888 57.9271 113.84 57.8776C113.792 57.8266 113.768 57.7632 113.768 57.6874C113.768 57.6179 113.788 57.5553 113.826 57.4996C113.866 57.4424 113.924 57.3968 114 57.3628C114.077 57.3288 114.17 57.3118 114.278 57.3118C114.352 57.3118 114.427 57.3234 114.501 57.3466C114.577 57.3682 114.64 57.4007 114.691 57.444L114.605 57.6295C114.558 57.5909 114.504 57.5622 114.446 57.5437C114.387 57.5252 114.326 57.5159 114.265 57.5159C114.189 57.5159 114.13 57.5305 114.09 57.5599C114.05 57.5877 114.03 57.6249 114.03 57.6713C114.03 57.699 114.039 57.723 114.056 57.7431C114.074 57.7632 114.103 57.7771 114.142 57.7849L114.355 57.829C114.545 57.8691 114.64 57.9658 114.64 58.1188C114.64 58.2379 114.596 58.3298 114.506 58.3948C114.417 58.4597 114.3 58.4922 114.153 58.4922ZM115.834 58.4922C115.764 58.4922 115.701 58.4767 115.644 58.4458C115.587 58.4133 115.54 58.3708 115.505 58.3182C115.471 58.2657 115.454 58.2069 115.454 58.142C115.454 58.023 115.505 57.9356 115.606 57.8799C115.71 57.8243 115.872 57.7965 116.091 57.7965H116.251L116.258 57.7547C116.271 57.6821 116.259 57.6264 116.224 57.5877C116.19 57.5491 116.129 57.5298 116.043 57.5298C115.905 57.5298 115.776 57.5684 115.653 57.6457L115.588 57.4463C115.647 57.4061 115.721 57.3736 115.811 57.3489C115.901 57.3241 115.99 57.3118 116.08 57.3118C116.202 57.3118 116.298 57.3342 116.367 57.3791C116.437 57.4239 116.484 57.4849 116.509 57.5622C116.534 57.6395 116.538 57.7277 116.522 57.8266L116.421 58.469H116.15L116.175 58.302C116.137 58.3669 116.087 58.4149 116.026 58.4458C115.966 58.4767 115.902 58.4922 115.834 58.4922ZM115.924 58.2928C115.997 58.2928 116.061 58.2696 116.115 58.2232C116.169 58.1752 116.202 58.1111 116.214 58.0307L116.226 57.9635H116.105C115.969 57.9635 115.873 57.975 115.817 57.9982C115.764 58.0199 115.737 58.0616 115.737 58.1235C115.737 58.1776 115.755 58.2193 115.79 58.2487C115.827 58.278 115.872 58.2928 115.924 58.2928ZM117.037 58.469L116.727 57.335H117.021L117.212 58.1281L117.664 57.335H117.965L117.29 58.469H117.037ZM118.291 58.4922C118.221 58.4922 118.158 58.4767 118.101 58.4458C118.044 58.4133 117.997 58.3708 117.962 58.3182C117.928 58.2657 117.911 58.2069 117.911 58.142C117.911 58.023 117.962 57.9356 118.064 57.8799C118.168 57.8243 118.329 57.7965 118.548 57.7965H118.709L118.715 57.7547C118.728 57.6821 118.717 57.6264 118.681 57.5877C118.646 57.5491 118.586 57.5298 118.5 57.5298C118.362 57.5298 118.232 57.5684 118.111 57.6457L118.045 57.4463C118.104 57.4061 118.178 57.3736 118.268 57.3489C118.358 57.3241 118.447 57.3118 118.537 57.3118C118.659 57.3118 118.755 57.3342 118.825 57.3791C118.894 57.4239 118.941 57.4849 118.966 57.5622C118.99 57.6395 118.995 57.7277 118.98 57.8266L118.878 58.469H118.607L118.632 58.302C118.593 58.3669 118.544 58.4149 118.483 58.4458C118.423 58.4767 118.359 58.4922 118.291 58.4922ZM118.382 58.2928C118.455 58.2928 118.517 58.2696 118.572 58.2232C118.626 58.1752 118.659 58.1111 118.671 58.0307L118.683 57.9635H118.563C118.426 57.9635 118.331 57.975 118.275 57.9982C118.221 58.0199 118.194 58.0616 118.194 58.1235C118.194 58.1776 118.211 58.2193 118.247 58.2487C118.284 58.278 118.329 58.2928 118.382 58.2928ZM119.376 57.0915L119.422 56.8086H119.745L119.699 57.0915H119.376ZM119.172 58.469L119.353 57.335H119.643L119.462 58.469H119.172ZM120.165 58.4922C120.033 58.4922 119.938 58.4558 119.881 58.3832C119.824 58.3089 119.806 58.2015 119.828 58.0608L120.023 56.8341H120.313L120.118 58.0585C120.107 58.1265 120.113 58.1768 120.136 58.2092C120.161 58.2401 120.203 58.2556 120.261 58.2556C120.279 58.2556 120.296 58.2549 120.313 58.2533C120.33 58.2502 120.347 58.2479 120.364 58.2464L120.324 58.4713C120.278 58.4852 120.225 58.4922 120.165 58.4922ZM120.891 58.4922C120.822 58.4922 120.758 58.4767 120.701 58.4458C120.643 58.4133 120.597 58.3708 120.562 58.3182C120.527 58.2657 120.51 58.2069 120.51 58.142C120.51 58.023 120.562 57.9356 120.664 57.8799C120.767 57.8243 120.929 57.7965 121.149 57.7965H121.308L121.316 57.7547C121.327 57.6821 121.316 57.6264 121.28 57.5877C121.246 57.5491 121.186 57.5298 121.099 57.5298C120.962 57.5298 120.832 57.5684 120.71 57.6457L120.645 57.4463C120.704 57.4061 120.778 57.3736 120.868 57.3489C120.957 57.3241 121.047 57.3118 121.137 57.3118C121.259 57.3118 121.355 57.3342 121.424 57.3791C121.494 57.4239 121.541 57.4849 121.566 57.5622C121.591 57.6395 121.595 57.7277 121.58 57.8266L121.477 58.469H121.206L121.232 58.302C121.193 58.3669 121.144 58.4149 121.084 58.4458C121.023 58.4767 120.959 58.4922 120.891 58.4922ZM120.982 58.2928C121.054 58.2928 121.117 58.2696 121.172 58.2232C121.226 58.1752 121.259 58.1111 121.271 58.0307L121.283 57.9635H121.162C121.026 57.9635 120.93 57.975 120.875 57.9982C120.82 58.0199 120.793 58.0616 120.793 58.1235C120.793 58.1776 120.811 58.2193 120.847 58.2487C120.884 58.278 120.929 58.2928 120.982 58.2928ZM122.449 58.4922C122.365 58.4922 122.291 58.4736 122.226 58.4365C122.163 58.3978 122.116 58.3414 122.085 58.2672L122.055 58.469H121.772L122.032 56.8341H122.321L122.215 57.4996C122.258 57.4409 122.312 57.3953 122.375 57.3628C122.44 57.3288 122.511 57.3118 122.591 57.3118C122.72 57.3118 122.824 57.3559 122.901 57.444C122.98 57.5305 123.02 57.6496 123.02 57.8011C123.02 57.9294 122.996 58.0461 122.95 58.1513C122.905 58.2549 122.84 58.3376 122.755 58.3994C122.67 58.4613 122.568 58.4922 122.449 58.4922ZM122.395 58.2719C122.467 58.2719 122.526 58.2517 122.574 58.2116C122.624 58.1714 122.661 58.1165 122.688 58.0469C122.714 57.9774 122.728 57.9 122.728 57.815C122.728 57.7238 122.705 57.6542 122.66 57.6063C122.617 57.5569 122.557 57.5321 122.479 57.5321C122.41 57.5321 122.35 57.5522 122.3 57.5924C122.251 57.6326 122.213 57.6874 122.187 57.757C122.161 57.8251 122.148 57.9023 122.148 57.989C122.148 58.0802 122.169 58.1505 122.213 58.2C122.257 58.2479 122.318 58.2719 122.395 58.2719ZM123.564 58.4922C123.432 58.4922 123.338 58.4558 123.281 58.3832C123.224 58.3089 123.206 58.2015 123.227 58.0608L123.422 56.8341H123.712L123.517 58.0585C123.507 58.1265 123.512 58.1768 123.536 58.2092C123.56 58.2401 123.602 58.2556 123.661 58.2556C123.678 58.2556 123.695 58.2549 123.712 58.2533C123.729 58.2502 123.746 58.2479 123.763 58.2464L123.723 58.4713C123.677 58.4852 123.624 58.4922 123.564 58.4922ZM124.481 58.4922C124.366 58.4922 124.267 58.4713 124.181 58.4296C124.098 58.3862 124.033 58.326 123.987 58.2487C123.94 58.1714 123.917 58.0809 123.917 57.9774C123.917 57.8506 123.944 57.7377 123.996 57.6388C124.05 57.5383 124.124 57.4587 124.219 57.3999C124.313 57.3412 124.421 57.3118 124.543 57.3118C124.667 57.3118 124.765 57.3396 124.838 57.3953C124.911 57.4494 124.96 57.5221 124.986 57.6133C125.014 57.7029 125.022 57.8011 125.01 57.9078L125.002 57.9681H124.189C124.185 58.0624 124.212 58.1366 124.267 58.1907C124.323 58.2448 124.403 58.2719 124.506 58.2719C124.574 58.2719 124.638 58.2626 124.698 58.244C124.761 58.224 124.816 58.1945 124.863 58.1559L124.935 58.3461C124.881 58.3925 124.813 58.4288 124.731 58.455C124.65 58.4798 124.567 58.4922 124.481 58.4922ZM124.541 57.5089C124.476 57.5089 124.421 57.5228 124.376 57.5506C124.331 57.5769 124.296 57.6125 124.27 57.6573C124.244 57.7022 124.224 57.7501 124.212 57.8011H124.787C124.793 57.7176 124.777 57.6481 124.738 57.5924C124.7 57.5368 124.633 57.5089 124.541 57.5089Z" fill="#36AAC8"/>
<path d="M155.732 61.7734H102.892V61.9391H155.732V61.7734Z" fill="#BBBBBB"/>
<path d="M158.383 62.8809H100.242V80.8176H158.383V62.8809Z" fill="white"/>
<path d="M104.098 68.1503L102.888 65.3789H103.234L104.252 67.7415L105.266 65.3789H105.604L104.389 68.1503H104.098ZM106.531 68.1857C106.23 68.1857 105.991 68.0979 105.816 67.9223C105.64 67.7441 105.552 67.503 105.552 67.199C105.552 67.0024 105.592 66.8295 105.67 66.6801C105.749 66.5281 105.856 66.4115 105.993 66.3302C106.131 66.2464 106.291 66.2044 106.472 66.2044C106.732 66.2044 106.935 66.2883 107.081 66.456C107.228 66.6211 107.302 66.8491 107.302 67.14V67.2619H105.863C105.873 67.4794 105.936 67.6458 106.052 67.7611C106.167 67.8738 106.327 67.9301 106.531 67.9301C106.646 67.9301 106.756 67.9131 106.861 67.879C106.966 67.8424 107.066 67.7834 107.16 67.7021L107.27 67.9262C107.184 68.0075 107.074 68.0717 106.94 68.1188C106.806 68.1634 106.67 68.1857 106.531 68.1857ZM106.48 66.4403C106.299 66.4403 106.156 66.4966 106.052 66.6093C105.947 66.722 105.885 66.8701 105.867 67.0535H107.026C107.019 66.8596 106.967 66.7089 106.873 66.6015C106.781 66.494 106.65 66.4403 106.48 66.4403ZM107.763 68.1503V66.2398H108.073V66.5661C108.136 66.4455 108.225 66.3551 108.341 66.2948C108.456 66.2346 108.586 66.2044 108.73 66.2044C109.183 66.2044 109.41 66.456 109.41 66.9592V68.1503H109.092V66.9788C109.092 66.8006 109.056 66.6709 108.985 66.5897C108.917 66.5058 108.807 66.4639 108.655 66.4639C108.48 66.4639 108.339 66.5189 108.235 66.629C108.132 66.7364 108.081 66.8806 108.081 67.0614V68.1503H107.763ZM110.673 68.1857C110.214 68.1857 109.985 67.9328 109.985 67.427V66.2398H110.304V67.423C110.304 67.5934 110.338 67.7192 110.406 67.8004C110.477 67.8817 110.587 67.9223 110.736 67.9223C110.898 67.9223 111.031 67.8686 111.133 67.7611C111.235 67.651 111.286 67.5056 111.286 67.3248V66.2398H111.605V68.1503H111.294V67.8279C111.234 67.9433 111.149 68.0324 111.039 68.0952C110.931 68.1555 110.809 68.1857 110.673 68.1857ZM113.061 68.1857C112.76 68.1857 112.521 68.0979 112.346 67.9223C112.17 67.7441 112.082 67.503 112.082 67.199C112.082 67.0024 112.122 66.8295 112.2 66.6801C112.279 66.5281 112.386 66.4115 112.523 66.3302C112.662 66.2464 112.821 66.2044 113.002 66.2044C113.262 66.2044 113.465 66.2883 113.612 66.456C113.758 66.6211 113.832 66.8491 113.832 67.14V67.2619H112.393C112.403 67.4794 112.466 67.6458 112.582 67.7611C112.697 67.8738 112.857 67.9301 113.061 67.9301C113.177 67.9301 113.287 67.9131 113.391 67.879C113.496 67.8424 113.596 67.7834 113.69 67.7021L113.8 67.9262C113.714 68.0075 113.604 68.0717 113.47 68.1188C113.336 68.1634 113.2 68.1857 113.061 68.1857ZM113.01 66.4403C112.829 66.4403 112.686 66.4966 112.582 66.6093C112.477 66.722 112.415 66.8701 112.397 67.0535H113.557C113.549 66.8596 113.498 66.7089 113.403 66.6015C113.311 66.494 113.18 66.4403 113.01 66.4403ZM115.864 68.1503L115.042 66.2398H115.388L116.021 67.7886L116.662 66.2398H116.988L116.163 68.1503H115.864ZM117.286 65.7641V65.4064H117.679V65.7641H117.286ZM117.325 68.1503V66.2398H117.643V68.1503H117.325ZM119.1 68.1857C118.799 68.1857 118.56 68.0979 118.384 67.9223C118.209 67.7441 118.121 67.503 118.121 67.199C118.121 67.0024 118.16 66.8295 118.239 66.6801C118.318 66.5281 118.425 66.4115 118.561 66.3302C118.7 66.2464 118.86 66.2044 119.041 66.2044C119.3 66.2044 119.504 66.2883 119.65 66.456C119.797 66.6211 119.87 66.8491 119.87 67.14V67.2619H118.432C118.442 67.4794 118.505 67.6458 118.62 67.7611C118.736 67.8738 118.896 67.9301 119.1 67.9301C119.215 67.9301 119.325 67.9131 119.43 67.879C119.535 67.8424 119.635 67.7834 119.729 67.7021L119.839 67.9262C119.752 68.0075 119.642 68.0717 119.509 68.1188C119.375 68.1634 119.239 68.1857 119.1 68.1857ZM119.049 66.4403C118.868 66.4403 118.725 66.4966 118.62 66.6093C118.516 66.722 118.454 66.8701 118.436 67.0535H119.595C119.587 66.8596 119.536 66.7089 119.442 66.6015C119.35 66.494 119.219 66.4403 119.049 66.4403ZM120.815 68.1503L120.104 66.2398H120.438L120.976 67.7768L121.535 66.2398H121.806L122.356 67.7808L122.903 66.2398H123.221L122.506 68.1503H122.203L121.664 66.6683L121.122 68.1503H120.815Z" fill="#414141"/>
<path d="M103.308 72.745V72.3415H103.914V70.6157L103.445 70.8974L103.255 70.5391L104.055 70.0595H104.401V72.3415H104.969V72.745H103.308ZM106.32 72.783C106.003 72.783 105.76 72.6638 105.593 72.4253C105.425 72.1842 105.341 71.8409 105.341 71.3967C105.341 70.9472 105.425 70.6052 105.593 70.372C105.76 70.1381 106.003 70.0215 106.32 70.0215C106.64 70.0215 106.883 70.1381 107.048 70.372C107.215 70.6052 107.299 70.9459 107.299 71.3928C107.299 71.8396 107.215 72.1842 107.048 72.4253C106.88 72.6638 106.638 72.783 106.32 72.783ZM106.32 72.3834C106.493 72.3834 106.62 72.3048 106.701 72.1469C106.785 71.987 106.827 71.7354 106.827 71.3928C106.827 71.0527 106.785 70.8064 106.701 70.6537C106.62 70.4984 106.493 70.4211 106.32 70.4211C106.15 70.4211 106.023 70.4984 105.939 70.6537C105.855 70.8064 105.813 71.0527 105.813 71.3928C105.813 71.7354 105.855 71.987 105.939 72.1469C106.023 72.3048 106.15 72.3834 106.32 72.3834ZM108.604 72.783C108.287 72.783 108.044 72.6638 107.876 72.4253C107.709 72.1842 107.626 71.8409 107.626 71.3967C107.626 70.9472 107.709 70.6052 107.876 70.372C108.044 70.1381 108.287 70.0215 108.604 70.0215C108.924 70.0215 109.167 70.1381 109.332 70.372C109.5 70.6052 109.583 70.9459 109.583 71.3928C109.583 71.8396 109.5 72.1842 109.332 72.4253C109.165 72.6638 108.922 72.783 108.604 72.783ZM108.604 72.3834C108.777 72.3834 108.904 72.3048 108.986 72.1469C109.069 71.987 109.111 71.7354 109.111 71.3928C109.111 71.0527 109.069 70.8064 108.986 70.6537C108.904 70.4984 108.777 70.4211 108.604 70.4211C108.434 70.4211 108.307 70.4984 108.224 70.6537C108.14 70.8064 108.098 71.0527 108.098 71.3928C108.098 71.7354 108.14 71.987 108.224 72.1469C108.307 72.3048 108.434 72.3834 108.604 72.3834ZM112.255 72.783C111.993 72.783 111.77 72.7044 111.584 72.5472C111.401 72.3899 111.278 72.1626 111.215 71.8651H110.845V71.5297H111.173C111.167 71.4386 111.167 71.3521 111.173 71.2709H110.845V70.9354H111.215C111.281 70.6413 111.405 70.4152 111.588 70.2573C111.771 70.1001 111.993 70.0215 112.255 70.0215C112.402 70.0215 112.542 70.0477 112.674 70.1014C112.806 70.1545 112.915 70.2331 113.001 70.3373L112.841 70.6767C112.76 70.5876 112.674 70.5253 112.583 70.4899C112.491 70.4546 112.393 70.4362 112.289 70.4362C112.152 70.4362 112.032 70.4768 111.931 70.5587C111.832 70.6373 111.76 70.7631 111.714 70.9354H112.285V71.2709H111.657C111.654 71.3574 111.656 71.4439 111.66 71.5297H112.285V71.8651H111.714C111.76 72.0407 111.832 72.1685 111.931 72.2497C112.032 72.329 112.152 72.3683 112.289 72.3683C112.393 72.3683 112.491 72.3506 112.583 72.3146C112.674 72.2766 112.76 72.2143 112.841 72.1279L113.001 72.4633C112.915 72.5701 112.806 72.65 112.674 72.7031C112.542 72.7568 112.402 72.783 112.255 72.783Z" fill="#414141"/>
<path d="M103.055 77.3458L103.094 77.1001H103.463L103.627 76.0682L103.331 76.23L103.238 76.0033L103.769 75.7111H103.98L103.76 77.1001H104.105L104.066 77.3458H103.055ZM104.951 77.3687C104.776 77.3687 104.642 77.3163 104.55 77.2114C104.458 77.1047 104.413 76.9513 104.413 76.7522C104.413 76.5327 104.44 76.344 104.494 76.1861C104.55 76.0269 104.628 75.9044 104.728 75.8172C104.83 75.7308 104.95 75.6875 105.088 75.6875C105.262 75.6875 105.395 75.7399 105.486 75.8454C105.579 75.9502 105.626 76.1022 105.626 76.3001C105.626 76.5196 105.597 76.7096 105.542 76.8701C105.488 77.0293 105.41 77.1525 105.308 77.239C105.208 77.3254 105.088 77.3687 104.951 77.3687ZM104.965 77.1256C105.075 77.1256 105.163 77.0529 105.231 76.9074C105.301 76.762 105.337 76.5451 105.338 76.2555C105.339 76.0393 105.251 75.9312 105.073 75.9312C104.965 75.9312 104.875 76.004 104.805 76.1494C104.735 76.2942 104.7 76.5111 104.7 76.7987C104.7 77.0162 104.788 77.1256 104.965 77.1256ZM106.341 77.3687C106.167 77.3687 106.032 77.3163 105.94 77.2114C105.849 77.1047 105.803 76.9513 105.803 76.7522C105.803 76.5327 105.83 76.344 105.884 76.1861C105.94 76.0269 106.018 75.9044 106.118 75.8172C106.22 75.7308 106.34 75.6875 106.478 75.6875C106.653 75.6875 106.786 75.7399 106.877 75.8454C106.969 75.9502 107.016 76.1022 107.016 76.3001C107.016 76.5196 106.988 76.7096 106.933 76.8701C106.878 77.0293 106.8 77.1525 106.698 77.239C106.598 77.3254 106.479 77.3687 106.341 77.3687ZM106.355 77.1256C106.465 77.1256 106.554 77.0529 106.621 76.9074C106.692 76.762 106.727 76.5451 106.728 76.2555C106.73 76.0393 106.642 75.9312 106.464 75.9312C106.356 75.9312 106.266 76.004 106.195 76.1494C106.125 76.2942 106.091 76.5111 106.091 76.7987C106.091 77.0162 106.179 77.1256 106.355 77.1256ZM108.287 77.3687C108.136 77.3687 108.026 77.3281 107.958 77.2462C107.89 77.1623 107.866 77.0549 107.886 76.9238L107.965 76.4298H107.747L107.782 76.2117H107.999L108.053 75.8729H108.343L108.29 76.2117H108.633L108.598 76.4298H108.255L108.178 76.9048C108.166 76.9854 108.175 77.0437 108.206 77.0791C108.238 77.1132 108.288 77.1302 108.354 77.1302C108.377 77.1302 108.4 77.1276 108.422 77.123C108.443 77.1184 108.464 77.1132 108.484 77.1066L108.5 77.3248C108.476 77.3386 108.443 77.3497 108.403 77.3575C108.363 77.3648 108.324 77.3687 108.287 77.3687ZM108.843 75.9679L108.89 75.6855H109.212L109.165 75.9679H108.843ZM108.639 77.3458L108.82 76.2117H109.11L108.929 77.3458H108.639ZM109.796 77.3687C109.615 77.3687 109.48 77.3215 109.39 77.2272C109.3 77.1315 109.256 77.0064 109.256 76.8518C109.256 76.7686 109.268 76.6873 109.293 76.608C109.319 76.5281 109.359 76.4567 109.411 76.3951C109.464 76.3315 109.53 76.2811 109.61 76.2444C109.692 76.2071 109.789 76.1887 109.898 76.1887C109.974 76.1887 110.047 76.1999 110.116 76.2234C110.186 76.2451 110.242 76.2752 110.285 76.3139L110.195 76.5157C110.122 76.4475 110.03 76.4134 109.916 76.4134C109.829 76.4134 109.757 76.4351 109.703 76.4783C109.651 76.5216 109.612 76.5766 109.587 76.6428C109.564 76.7096 109.553 76.7784 109.553 76.8491C109.553 76.9376 109.574 77.009 109.618 77.0627C109.662 77.1171 109.735 77.144 109.838 77.144C109.881 77.144 109.927 77.1354 109.975 77.1184C110.024 77.1014 110.069 77.0758 110.109 77.0418L110.176 77.2481C110.133 77.2868 110.075 77.3169 110.002 77.3385C109.931 77.3589 109.863 77.3687 109.796 77.3687ZM110.326 77.3458L110.584 75.7111H110.874L110.718 76.6939H110.723L111.25 76.2117H111.595L111.003 76.7685L111.461 77.3458H111.124L110.702 76.8288H110.697L110.616 77.3458H110.326ZM112.133 77.3687C112.019 77.3687 111.92 77.3477 111.835 77.3064C111.751 77.2632 111.686 77.2029 111.64 77.1256C111.594 77.0483 111.57 76.9579 111.57 76.8544C111.57 76.7273 111.596 76.6146 111.649 76.5157C111.703 76.4148 111.778 76.3355 111.871 76.2765C111.966 76.2182 112.074 76.1887 112.196 76.1887C112.32 76.1887 112.418 76.2162 112.491 76.2719C112.563 76.3263 112.613 76.399 112.639 76.4901C112.667 76.5799 112.675 76.6781 112.662 76.7843L112.656 76.8446H111.841C111.839 76.9389 111.865 77.0136 111.92 77.0673C111.976 77.1217 112.055 77.1485 112.159 77.1485C112.227 77.1485 112.291 77.1394 112.352 77.121C112.414 77.1007 112.468 77.0712 112.516 77.0326L112.588 77.2226C112.534 77.2691 112.466 77.3058 112.384 77.332C112.304 77.3562 112.221 77.3687 112.133 77.3687ZM112.194 76.3859C112.129 76.3859 112.074 76.3997 112.029 76.4272C111.985 76.4534 111.949 76.4894 111.922 76.534C111.896 76.5792 111.877 76.627 111.865 76.6781H112.44C112.446 76.5943 112.43 76.5248 112.391 76.4691C112.352 76.4134 112.287 76.3859 112.194 76.3859ZM113.338 77.3687C113.186 77.3687 113.076 77.3281 113.008 77.2462C112.94 77.1623 112.916 77.0549 112.936 76.9238L113.015 76.4298H112.797L112.832 76.2117H113.05L113.103 75.8729H113.393L113.34 76.2117H113.683L113.648 76.4298H113.305L113.228 76.9048C113.216 76.9854 113.225 77.0437 113.256 77.0791C113.288 77.1132 113.338 77.1302 113.404 77.1302C113.428 77.1302 113.45 77.1276 113.472 77.123C113.494 77.1184 113.515 77.1132 113.534 77.1066L113.551 77.3248C113.526 77.3386 113.494 77.3497 113.454 77.3575C113.413 77.3648 113.374 77.3687 113.338 77.3687ZM114.153 77.3687C114.057 77.3687 113.967 77.3576 113.882 77.334C113.798 77.3091 113.728 77.2757 113.67 77.2318L113.762 77.0444C113.817 77.083 113.879 77.1132 113.947 77.1348C114.016 77.1551 114.085 77.1649 114.153 77.1649C114.226 77.1649 114.282 77.1518 114.32 77.1256C114.359 77.0974 114.378 77.0614 114.378 77.0162C114.378 76.9559 114.336 76.9166 114.253 76.8983L114.039 76.8544C113.954 76.8373 113.888 76.8039 113.84 76.7541C113.792 76.703 113.768 76.6401 113.768 76.5641C113.768 76.4947 113.788 76.4318 113.826 76.3761C113.866 76.3191 113.924 76.2732 114 76.2398C114.077 76.2058 114.17 76.1887 114.278 76.1887C114.352 76.1887 114.427 76.1999 114.501 76.2234C114.577 76.2451 114.64 76.2772 114.691 76.3204L114.605 76.5065C114.558 76.4678 114.504 76.439 114.446 76.4207C114.387 76.4017 114.326 76.3925 114.265 76.3925C114.189 76.3925 114.13 76.4075 114.09 76.4364C114.05 76.4645 114.03 76.5019 114.03 76.5478C114.03 76.5759 114.039 76.5995 114.056 76.6198C114.074 76.6401 114.103 76.6539 114.142 76.6618L114.355 76.7057C114.545 76.7456 114.64 76.8426 114.64 76.9952C114.64 77.1145 114.596 77.2069 114.506 77.2717C114.417 77.3366 114.3 77.3687 114.153 77.3687ZM115.834 77.3687C115.764 77.3687 115.701 77.3536 115.644 77.3228C115.587 77.2901 115.54 77.2475 115.505 77.1951C115.471 77.1427 115.454 77.0837 115.454 77.0188C115.454 76.8996 115.505 76.8124 115.606 76.7568C115.71 76.7011 115.872 76.6729 116.091 76.6729H116.251L116.258 76.6316C116.271 76.5589 116.259 76.5032 116.224 76.4645C116.19 76.4259 116.129 76.4062 116.043 76.4062C115.905 76.4062 115.776 76.4449 115.653 76.5222L115.588 76.323C115.647 76.2831 115.721 76.2503 115.811 76.2254C115.901 76.2012 115.99 76.1887 116.08 76.1887C116.202 76.1887 116.298 76.211 116.367 76.2555C116.437 76.3008 116.484 76.3617 116.509 76.439C116.534 76.5163 116.538 76.6041 116.522 76.703L116.421 77.3458H116.15L116.175 77.1787C116.137 77.2436 116.087 77.2914 116.026 77.3228C115.966 77.3536 115.902 77.3687 115.834 77.3687ZM115.924 77.1695C115.997 77.1695 116.061 77.1466 116.115 77.1001C116.169 77.0522 116.202 76.988 116.214 76.9074L116.226 76.84H116.105C115.969 76.84 115.873 76.8518 115.817 76.8747C115.764 76.8963 115.737 76.9382 115.737 77.0005C115.737 77.0542 115.755 77.0961 115.79 77.1256C115.827 77.1551 115.872 77.1695 115.924 77.1695ZM117.037 77.3458L116.727 76.2117H117.021L117.212 77.0051L117.664 76.2117H117.965L117.29 77.3458H117.037ZM118.291 77.3687C118.221 77.3687 118.158 77.3536 118.101 77.3228C118.044 77.2901 117.997 77.2475 117.962 77.1951C117.928 77.1427 117.911 77.0837 117.911 77.0188C117.911 76.8996 117.962 76.8124 118.064 76.7568C118.168 76.7011 118.329 76.6729 118.548 76.6729H118.709L118.715 76.6316C118.728 76.5589 118.717 76.5032 118.681 76.4645C118.646 76.4259 118.586 76.4062 118.5 76.4062C118.362 76.4062 118.232 76.4449 118.111 76.5222L118.045 76.323C118.104 76.2831 118.178 76.2503 118.268 76.2254C118.358 76.2012 118.447 76.1887 118.537 76.1887C118.659 76.1887 118.755 76.211 118.825 76.2555C118.894 76.3008 118.941 76.3617 118.966 76.439C118.99 76.5163 118.995 76.6041 118.98 76.703L118.878 77.3458H118.607L118.632 77.1787C118.593 77.2436 118.544 77.2914 118.483 77.3228C118.423 77.3536 118.359 77.3687 118.291 77.3687ZM118.382 77.1695C118.455 77.1695 118.517 77.1466 118.572 77.1001C118.626 77.0522 118.659 76.988 118.671 76.9074L118.683 76.84H118.563C118.426 76.84 118.331 76.8518 118.275 76.8747C118.221 76.8963 118.194 76.9382 118.194 77.0005C118.194 77.0542 118.211 77.0961 118.247 77.1256C118.284 77.1551 118.329 77.1695 118.382 77.1695ZM119.376 75.9679L119.422 75.6855H119.745L119.699 75.9679H119.376ZM119.172 77.3458L119.353 76.2117H119.643L119.462 77.3458H119.172ZM120.165 77.3687C120.033 77.3687 119.938 77.3327 119.881 77.2599C119.824 77.1859 119.806 77.0784 119.828 76.9376L120.023 75.7111H120.313L120.118 76.935C120.107 77.0031 120.113 77.0535 120.136 77.0857C120.161 77.1171 120.203 77.1322 120.261 77.1322C120.279 77.1322 120.296 77.1315 120.313 77.1302C120.33 77.1269 120.347 77.1243 120.364 77.123L120.324 77.3477C120.278 77.3621 120.225 77.3687 120.165 77.3687ZM120.891 77.3687C120.822 77.3687 120.758 77.3536 120.701 77.3228C120.643 77.2901 120.597 77.2475 120.562 77.1951C120.527 77.1427 120.51 77.0837 120.51 77.0188C120.51 76.8996 120.562 76.8124 120.664 76.7568C120.767 76.7011 120.929 76.6729 121.149 76.6729H121.308L121.316 76.6316C121.327 76.5589 121.316 76.5032 121.28 76.4645C121.246 76.4259 121.186 76.4062 121.099 76.4062C120.962 76.4062 120.832 76.4449 120.71 76.5222L120.645 76.323C120.704 76.2831 120.778 76.2503 120.868 76.2254C120.957 76.2012 121.047 76.1887 121.137 76.1887C121.259 76.1887 121.355 76.211 121.424 76.2555C121.494 76.3008 121.541 76.3617 121.566 76.439C121.591 76.5163 121.595 76.6041 121.58 76.703L121.477 77.3458H121.206L121.232 77.1787C121.193 77.2436 121.144 77.2914 121.084 77.3228C121.023 77.3536 120.959 77.3687 120.891 77.3687ZM120.982 77.1695C121.054 77.1695 121.117 77.1466 121.172 77.1001C121.226 77.0522 121.259 76.988 121.271 76.9074L121.283 76.84H121.162C121.026 76.84 120.93 76.8518 120.875 76.8747C120.82 76.8963 120.793 76.9382 120.793 77.0005C120.793 77.0542 120.811 77.0961 120.847 77.1256C120.884 77.1551 120.929 77.1695 120.982 77.1695ZM122.449 77.3687C122.365 77.3687 122.291 77.3503 122.226 77.313C122.163 77.2743 122.116 77.218 122.085 77.144L122.055 77.3458H121.772L122.032 75.7111H122.321L122.215 76.3761C122.258 76.3178 122.312 76.2719 122.375 76.2398C122.44 76.2058 122.511 76.1887 122.591 76.1887C122.72 76.1887 122.824 76.2326 122.901 76.3204C122.98 76.4075 123.02 76.5261 123.02 76.6781C123.02 76.8059 122.996 76.9232 122.95 77.028C122.905 77.1315 122.84 77.2141 122.755 77.2763C122.67 77.3379 122.568 77.3687 122.449 77.3687ZM122.395 77.1485C122.467 77.1485 122.526 77.1282 122.574 77.0883C122.624 77.0483 122.661 76.9933 122.688 76.9238C122.714 76.8544 122.728 76.7771 122.728 76.6919C122.728 76.6008 122.705 76.5307 122.66 76.4829C122.617 76.4338 122.557 76.4089 122.479 76.4089C122.41 76.4089 122.35 76.4292 122.3 76.4691C122.251 76.5091 122.213 76.5641 122.187 76.6336C122.161 76.7017 122.148 76.779 122.148 76.8655C122.148 76.9566 122.169 77.0273 122.213 77.0765C122.257 77.1243 122.318 77.1485 122.395 77.1485ZM123.564 77.3687C123.432 77.3687 123.338 77.3327 123.281 77.2599C123.224 77.1859 123.206 77.0784 123.227 76.9376L123.422 75.7111H123.712L123.517 76.935C123.507 77.0031 123.512 77.0535 123.536 77.0857C123.56 77.1171 123.602 77.1322 123.661 77.1322C123.678 77.1322 123.695 77.1315 123.712 77.1302C123.729 77.1269 123.746 77.1243 123.763 77.123L123.723 77.3477C123.677 77.3621 123.624 77.3687 123.564 77.3687ZM124.481 77.3687C124.366 77.3687 124.267 77.3477 124.181 77.3064C124.098 77.2632 124.033 77.2029 123.987 77.1256C123.94 77.0483 123.917 76.9579 123.917 76.8544C123.917 76.7273 123.944 76.6146 123.996 76.5157C124.05 76.4148 124.124 76.3355 124.219 76.2765C124.313 76.2182 124.421 76.1887 124.543 76.1887C124.667 76.1887 124.765 76.2162 124.838 76.2719C124.911 76.3263 124.96 76.399 124.986 76.4901C125.014 76.5799 125.022 76.6781 125.01 76.7843L125.002 76.8446H124.189C124.185 76.9389 124.212 77.0136 124.267 77.0673C124.323 77.1217 124.403 77.1485 124.506 77.1485C124.574 77.1485 124.638 77.1394 124.698 77.121C124.761 77.1007 124.816 77.0712 124.863 77.0326L124.935 77.2226C124.881 77.2691 124.813 77.3058 124.731 77.332C124.65 77.3562 124.567 77.3687 124.481 77.3687ZM124.541 76.3859C124.476 76.3859 124.421 76.3997 124.376 76.4272C124.331 76.4534 124.296 76.4894 124.27 76.534C124.244 76.5792 124.224 76.627 124.212 76.6781H124.787C124.793 76.5943 124.777 76.5248 124.738 76.4691C124.7 76.4134 124.633 76.3859 124.541 76.3859Z" fill="#36AAC8"/>
<path d="M155.732 80.6523H102.892V80.818H155.732V80.6523Z" fill="#E8E8E8"/>
<path d="M158.383 80.7715H100.242V98.7082H158.383V80.7715Z" fill="#F1F1F1"/>
<path d="M104.098 86.0429L102.888 83.2715H103.234L104.252 85.634L105.266 83.2715H105.604L104.389 86.0429H104.098ZM106.531 86.0782C106.23 86.0782 105.991 85.9904 105.816 85.8149C105.64 85.6367 105.552 85.3956 105.552 85.0916C105.552 84.895 105.592 84.722 105.67 84.5727C105.749 84.4207 105.856 84.304 105.993 84.2228C106.131 84.1389 106.291 84.097 106.472 84.097C106.732 84.097 106.935 84.1809 107.081 84.3486C107.228 84.5137 107.302 84.7417 107.302 85.0326V85.1545H105.863C105.873 85.372 105.936 85.5384 106.052 85.6537C106.167 85.7664 106.327 85.8227 106.531 85.8227C106.646 85.8227 106.756 85.8057 106.861 85.7716C106.966 85.7349 107.066 85.676 107.16 85.5947L107.27 85.8188C107.184 85.9 107.074 85.9642 106.94 86.0114C106.806 86.056 106.67 86.0782 106.531 86.0782ZM106.48 84.3329C106.299 84.3329 106.156 84.3892 106.052 84.5019C105.947 84.6146 105.885 84.7627 105.867 84.9461H107.026C107.019 84.7522 106.967 84.6015 106.873 84.494C106.781 84.3866 106.65 84.3329 106.48 84.3329ZM107.763 86.0429V84.1324H108.073V84.4587C108.136 84.3381 108.225 84.2477 108.341 84.1874C108.456 84.1271 108.586 84.097 108.73 84.097C109.183 84.097 109.41 84.3486 109.41 84.8518V86.0429H109.092V84.8714C109.092 84.6932 109.056 84.5635 108.985 84.4822C108.917 84.3984 108.807 84.3564 108.655 84.3564C108.48 84.3564 108.339 84.4115 108.235 84.5216C108.132 84.629 108.081 84.7731 108.081 84.954V86.0429H107.763ZM110.673 86.0782C110.214 86.0782 109.985 85.8253 109.985 85.3196V84.1324H110.304V85.3156C110.304 85.486 110.338 85.6118 110.406 85.693C110.477 85.7742 110.587 85.8149 110.736 85.8149C110.898 85.8149 111.031 85.7611 111.133 85.6537C111.235 85.5436 111.286 85.3982 111.286 85.2173V84.1324H111.605V86.0429H111.294V85.7205C111.234 85.8358 111.149 85.9249 111.039 85.9878C110.931 86.0481 110.809 86.0782 110.673 86.0782ZM113.061 86.0782C112.76 86.0782 112.521 85.9904 112.346 85.8149C112.17 85.6367 112.082 85.3956 112.082 85.0916C112.082 84.895 112.122 84.722 112.2 84.5727C112.279 84.4207 112.386 84.304 112.523 84.2228C112.662 84.1389 112.821 84.097 113.002 84.097C113.262 84.097 113.465 84.1809 113.612 84.3486C113.758 84.5137 113.832 84.7417 113.832 85.0326V85.1545H112.393C112.403 85.372 112.466 85.5384 112.582 85.6537C112.697 85.7664 112.857 85.8227 113.061 85.8227C113.177 85.8227 113.287 85.8057 113.391 85.7716C113.496 85.7349 113.596 85.676 113.69 85.5947L113.8 85.8188C113.714 85.9 113.604 85.9642 113.47 86.0114C113.336 86.056 113.2 86.0782 113.061 86.0782ZM113.01 84.3329C112.829 84.3329 112.686 84.3892 112.582 84.5019C112.477 84.6146 112.415 84.7627 112.397 84.9461H113.557C113.549 84.7522 113.498 84.6015 113.403 84.494C113.311 84.3866 113.18 84.3329 113.01 84.3329ZM115.864 86.0429L115.042 84.1324H115.388L116.021 85.6812L116.662 84.1324H116.988L116.163 86.0429H115.864ZM117.286 83.6567V83.299H117.679V83.6567H117.286ZM117.325 86.0429V84.1324H117.643V86.0429H117.325ZM119.1 86.0782C118.799 86.0782 118.56 85.9904 118.384 85.8149C118.209 85.6367 118.121 85.3956 118.121 85.0916C118.121 84.895 118.16 84.722 118.239 84.5727C118.318 84.4207 118.425 84.304 118.561 84.2228C118.7 84.1389 118.86 84.097 119.041 84.097C119.3 84.097 119.504 84.1809 119.65 84.3486C119.797 84.5137 119.87 84.7417 119.87 85.0326V85.1545H118.432C118.442 85.372 118.505 85.5384 118.62 85.6537C118.736 85.7664 118.896 85.8227 119.1 85.8227C119.215 85.8227 119.325 85.8057 119.43 85.7716C119.535 85.7349 119.635 85.676 119.729 85.5947L119.839 85.8188C119.752 85.9 119.642 85.9642 119.509 86.0114C119.375 86.056 119.239 86.0782 119.1 86.0782ZM119.049 84.3329C118.868 84.3329 118.725 84.3892 118.62 84.5019C118.516 84.6146 118.454 84.7627 118.436 84.9461H119.595C119.587 84.7522 119.536 84.6015 119.442 84.494C119.35 84.3866 119.219 84.3329 119.049 84.3329ZM120.815 86.0429L120.104 84.1324H120.438L120.976 85.6694L121.535 84.1324H121.806L122.356 85.6734L122.903 84.1324H123.221L122.506 86.0429H122.203L121.664 84.5609L121.122 86.0429H120.815Z" fill="#A0A0A0"/>
<path d="M103.197 90.6363V90.2747L104.066 89.3489C104.182 89.2218 104.266 89.1098 104.317 89.0135C104.368 88.9145 104.393 88.8143 104.393 88.7127C104.393 88.4533 104.237 88.3236 103.925 88.3236C103.681 88.3236 103.456 88.4153 103.251 88.5981L103.087 88.2325C103.194 88.1362 103.327 88.0582 103.487 87.9999C103.646 87.9416 103.813 87.9121 103.986 87.9121C104.273 87.9121 104.492 87.977 104.645 88.1067C104.8 88.2364 104.878 88.4218 104.878 88.6629C104.878 88.8254 104.838 88.982 104.759 89.1314C104.683 89.2814 104.562 89.4426 104.397 89.6156L103.807 90.2327H104.98V90.6363H103.197ZM106.32 90.6743C106.002 90.6743 105.76 90.5551 105.592 90.3166C105.425 90.0748 105.341 89.7322 105.341 89.288C105.341 88.8379 105.425 88.4965 105.592 88.2626C105.76 88.0294 106.002 87.9121 106.32 87.9121C106.64 87.9121 106.882 88.0294 107.047 88.2626C107.215 88.4965 107.299 88.8372 107.299 89.284C107.299 89.7309 107.215 90.0748 107.047 90.3166C106.88 90.5551 106.637 90.6743 106.32 90.6743ZM106.32 90.2747C106.492 90.2747 106.62 90.196 106.701 90.0381C106.785 89.8783 106.827 89.6267 106.827 89.284C106.827 88.9433 106.785 88.697 106.701 88.545C106.62 88.3897 106.492 88.3124 106.32 88.3124C106.15 88.3124 106.023 88.3897 105.939 88.545C105.855 88.697 105.813 88.9433 105.813 89.284C105.813 89.6267 105.855 89.8783 105.939 90.0381C106.023 90.196 106.15 90.2747 106.32 90.2747ZM109.97 90.6743C109.709 90.6743 109.485 90.5957 109.299 90.4385C109.116 90.2806 108.993 90.0532 108.93 89.7564H108.56V89.421H108.888C108.883 89.3299 108.883 89.2434 108.888 89.1622H108.56V88.8267H108.93C108.996 88.5319 109.12 88.3059 109.303 88.1486C109.486 87.9914 109.709 87.9121 109.97 87.9121C110.118 87.9121 110.257 87.939 110.389 87.9927C110.521 88.0458 110.631 88.1244 110.717 88.2286L110.557 88.5679C110.475 88.4788 110.389 88.4166 110.298 88.3812C110.206 88.3452 110.108 88.3275 110.004 88.3275C109.867 88.3275 109.748 88.3681 109.646 88.4494C109.547 88.5286 109.475 88.6538 109.429 88.8267H110V89.1622H109.372C109.369 89.2487 109.371 89.3345 109.376 89.421H110V89.7564H109.429C109.475 89.9314 109.547 90.0598 109.646 90.141C109.748 90.2196 109.867 90.2589 110.004 90.2589C110.108 90.2589 110.206 90.2413 110.298 90.2059C110.389 90.1679 110.475 90.1056 110.557 90.0191L110.717 90.3546C110.631 90.4614 110.521 90.5413 110.389 90.5944C110.257 90.6481 110.118 90.6743 109.97 90.6743Z" fill="#A0A0A0"/>
<path d="M103.587 95.2593C103.468 95.2593 103.352 95.2442 103.239 95.2128C103.128 95.1807 103.03 95.1302 102.945 95.0621L103.051 94.8374C103.141 94.9009 103.234 94.9455 103.328 94.9717C103.422 94.9966 103.518 95.009 103.615 95.009C103.724 95.009 103.808 94.9881 103.87 94.9461C103.934 94.9049 103.965 94.8498 103.965 94.7817C103.965 94.7306 103.947 94.688 103.91 94.6539C103.872 94.6185 103.809 94.591 103.72 94.5707L103.467 94.5104C103.354 94.4842 103.264 94.4371 103.198 94.3689C103.131 94.2995 103.098 94.2071 103.098 94.0931C103.098 93.985 103.127 93.8926 103.186 93.8173C103.247 93.74 103.326 93.681 103.425 93.641C103.524 93.5991 103.631 93.5781 103.747 93.5781C103.849 93.5781 103.952 93.5938 104.056 93.6246C104.159 93.6554 104.25 93.7046 104.33 93.7727L104.218 93.9909C104.149 93.9319 104.072 93.8906 103.988 93.8658C103.905 93.8409 103.823 93.8284 103.743 93.8284C103.639 93.8284 103.555 93.85 103.49 93.8933C103.425 93.9365 103.393 93.9948 103.393 94.0675C103.393 94.1259 103.41 94.1711 103.444 94.2019C103.477 94.2326 103.528 94.2569 103.595 94.2739L103.847 94.3342C103.984 94.365 104.087 94.4167 104.155 94.4895C104.225 94.5609 104.26 94.6467 104.26 94.747C104.26 94.8597 104.229 94.9546 104.167 95.032C104.105 95.108 104.023 95.165 103.922 95.2036C103.819 95.241 103.708 95.2593 103.587 95.2593ZM104.974 95.2593C104.807 95.2593 104.676 95.2128 104.582 95.1204C104.488 95.0274 104.44 94.9029 104.44 94.747C104.44 94.6107 104.469 94.4934 104.524 94.3945C104.581 94.2936 104.658 94.2169 104.754 94.1625C104.849 94.1069 104.955 94.0787 105.071 94.0787C105.238 94.0787 105.369 94.1252 105.463 94.2182C105.557 94.3106 105.605 94.4351 105.605 94.5917C105.605 94.7273 105.576 94.8459 105.519 94.9461C105.463 95.0451 105.387 95.1224 105.291 95.1781C105.197 95.2324 105.091 95.2593 104.974 95.2593ZM104.981 95.0392C105.052 95.0392 105.111 95.0188 105.159 94.9789C105.209 94.9383 105.247 94.8839 105.273 94.8144C105.299 94.7443 105.312 94.667 105.312 94.5825C105.312 94.4908 105.29 94.4213 105.245 94.3735C105.202 94.3244 105.141 94.2995 105.064 94.2995C104.995 94.2995 104.935 94.3191 104.886 94.3598C104.836 94.3997 104.798 94.4547 104.772 94.5242C104.746 94.5923 104.733 94.6696 104.733 94.7561C104.733 94.8472 104.754 94.918 104.797 94.9671C104.843 95.0149 104.904 95.0392 104.981 95.0392ZM106.152 95.2593C106.021 95.2593 105.926 95.2233 105.869 95.1505C105.812 95.0759 105.795 94.9684 105.816 94.8282L106.011 93.6011H106.3L106.106 94.8256C106.095 94.8937 106.101 94.9442 106.124 94.9763C106.149 95.0071 106.191 95.0228 106.249 95.0228C106.266 95.0228 106.283 95.0221 106.3 95.0208C106.317 95.0175 106.335 95.0149 106.352 95.0136L106.312 95.2383C106.266 95.2528 106.213 95.2593 106.152 95.2593ZM106.93 95.2593C106.802 95.2593 106.698 95.2154 106.62 95.127C106.542 95.0392 106.504 94.9199 106.504 94.7699C106.504 94.6402 106.526 94.5235 106.571 94.42C106.617 94.3145 106.683 94.232 106.768 94.1717C106.853 94.1101 106.954 94.0787 107.072 94.0787C107.153 94.0787 107.226 94.0977 107.29 94.1344C107.353 94.1704 107.4 94.2241 107.431 94.2968L107.54 93.6011H107.83L107.57 95.2364H107.287L107.317 95.0529C107.274 95.1178 107.219 95.1689 107.153 95.2062C107.088 95.2416 107.014 95.2593 106.93 95.2593ZM107.044 95.0392C107.115 95.0392 107.174 95.0188 107.222 94.9789C107.272 94.9383 107.309 94.8839 107.336 94.8144C107.362 94.7443 107.376 94.667 107.376 94.5825C107.376 94.4908 107.353 94.4213 107.308 94.3735C107.265 94.3244 107.205 94.2995 107.127 94.2995C107.058 94.2995 106.998 94.3191 106.948 94.3598C106.899 94.3997 106.861 94.4547 106.835 94.5242C106.809 94.5923 106.796 94.6696 106.796 94.7561C106.796 94.8472 106.817 94.918 106.861 94.9671C106.905 95.0149 106.967 95.0392 107.044 95.0392ZM109.055 95.2593C108.888 95.2593 108.757 95.2128 108.663 95.1204C108.569 95.0274 108.521 94.9029 108.521 94.747C108.521 94.6107 108.549 94.4934 108.605 94.3945C108.662 94.2936 108.738 94.2169 108.835 94.1625C108.93 94.1069 109.036 94.0787 109.152 94.0787C109.319 94.0787 109.45 94.1252 109.544 94.2182C109.639 94.3106 109.686 94.4351 109.686 94.5917C109.686 94.7273 109.657 94.8459 109.6 94.9461C109.544 95.0451 109.468 95.1224 109.373 95.1781C109.278 95.2324 109.172 95.2593 109.055 95.2593ZM109.062 95.0392C109.133 95.0392 109.192 95.0188 109.24 94.9789C109.29 94.9383 109.327 94.8839 109.354 94.8144C109.38 94.7443 109.394 94.667 109.394 94.5825C109.394 94.4908 109.371 94.4213 109.326 94.3735C109.283 94.3244 109.223 94.2995 109.145 94.2995C109.076 94.2995 109.016 94.3191 108.966 94.3598C108.917 94.3997 108.879 94.4547 108.853 94.5242C108.827 94.5923 108.814 94.6696 108.814 94.7561C108.814 94.8472 108.835 94.918 108.879 94.9671C108.923 95.0149 108.985 95.0392 109.062 95.0392ZM110.235 95.2593C110.114 95.2593 110.02 95.2206 109.955 95.1433C109.891 95.066 109.873 94.9448 109.899 94.7791L110.006 94.1023H110.296L110.189 94.7771C110.161 94.9455 110.215 95.03 110.351 95.03C110.438 95.03 110.509 95.0012 110.562 94.9442C110.617 94.8865 110.651 94.8085 110.667 94.7096L110.762 94.1023H111.052L110.873 95.2364H110.591L110.618 95.0575C110.576 95.1224 110.522 95.1728 110.456 95.2082C110.391 95.2423 110.317 95.2593 110.235 95.2593ZM111.713 95.2593C111.561 95.2593 111.451 95.2187 111.384 95.1368C111.316 95.0529 111.292 94.9455 111.312 94.8144L111.39 94.3204H111.172L111.208 94.1023H111.425L111.479 93.7635H111.769L111.715 94.1023H112.059L112.023 94.3204H111.681L111.604 94.7954C111.592 94.876 111.601 94.9337 111.632 94.9697C111.664 95.0038 111.713 95.0208 111.78 95.0208C111.803 95.0208 111.826 95.0182 111.847 95.0136C111.869 95.009 111.89 95.0038 111.91 94.9972L111.926 95.2154C111.902 95.2292 111.869 95.2403 111.829 95.2475C111.789 95.2554 111.75 95.2593 111.713 95.2593Z" fill="#7A7A7A"/>
<path d="M155.732 98.543H102.892V98.7086H155.732V98.543Z" fill="#E8E8E8"/>
<path d="M158.383 80.7715H100.242V98.7082H158.383V80.7715Z" fill="#F1F1F1"/>
<path d="M104.098 86.0429L102.888 83.2715H103.234L104.252 85.634L105.266 83.2715H105.604L104.389 86.0429H104.098ZM106.531 86.0782C106.23 86.0782 105.991 85.9904 105.816 85.8149C105.64 85.6367 105.552 85.3956 105.552 85.0916C105.552 84.895 105.592 84.722 105.67 84.5727C105.749 84.4207 105.856 84.304 105.993 84.2228C106.131 84.1389 106.291 84.097 106.472 84.097C106.732 84.097 106.935 84.1809 107.081 84.3486C107.228 84.5137 107.302 84.7417 107.302 85.0326V85.1545H105.863C105.873 85.372 105.936 85.5384 106.052 85.6537C106.167 85.7664 106.327 85.8227 106.531 85.8227C106.646 85.8227 106.756 85.8057 106.861 85.7716C106.966 85.7349 107.066 85.676 107.16 85.5947L107.27 85.8188C107.184 85.9 107.074 85.9642 106.94 86.0114C106.806 86.056 106.67 86.0782 106.531 86.0782ZM106.48 84.3329C106.299 84.3329 106.156 84.3892 106.052 84.5019C105.947 84.6146 105.885 84.7627 105.867 84.9461H107.026C107.019 84.7522 106.967 84.6015 106.873 84.494C106.781 84.3866 106.65 84.3329 106.48 84.3329ZM107.763 86.0429V84.1324H108.073V84.4587C108.136 84.3381 108.225 84.2477 108.341 84.1874C108.456 84.1271 108.586 84.097 108.73 84.097C109.183 84.097 109.41 84.3486 109.41 84.8518V86.0429H109.092V84.8714C109.092 84.6932 109.056 84.5635 108.985 84.4822C108.917 84.3984 108.807 84.3564 108.655 84.3564C108.48 84.3564 108.339 84.4115 108.235 84.5216C108.132 84.629 108.081 84.7731 108.081 84.954V86.0429H107.763ZM110.673 86.0782C110.214 86.0782 109.985 85.8253 109.985 85.3196V84.1324H110.304V85.3156C110.304 85.486 110.338 85.6118 110.406 85.693C110.477 85.7742 110.587 85.8149 110.736 85.8149C110.898 85.8149 111.031 85.7611 111.133 85.6537C111.235 85.5436 111.286 85.3982 111.286 85.2173V84.1324H111.605V86.0429H111.294V85.7205C111.234 85.8358 111.149 85.9249 111.039 85.9878C110.931 86.0481 110.809 86.0782 110.673 86.0782ZM113.061 86.0782C112.76 86.0782 112.521 85.9904 112.346 85.8149C112.17 85.6367 112.082 85.3956 112.082 85.0916C112.082 84.895 112.122 84.722 112.2 84.5727C112.279 84.4207 112.386 84.304 112.523 84.2228C112.662 84.1389 112.821 84.097 113.002 84.097C113.262 84.097 113.465 84.1809 113.612 84.3486C113.758 84.5137 113.832 84.7417 113.832 85.0326V85.1545H112.393C112.403 85.372 112.466 85.5384 112.582 85.6537C112.697 85.7664 112.857 85.8227 113.061 85.8227C113.177 85.8227 113.287 85.8057 113.391 85.7716C113.496 85.7349 113.596 85.676 113.69 85.5947L113.8 85.8188C113.714 85.9 113.604 85.9642 113.47 86.0114C113.336 86.056 113.2 86.0782 113.061 86.0782ZM113.01 84.3329C112.829 84.3329 112.686 84.3892 112.582 84.5019C112.477 84.6146 112.415 84.7627 112.397 84.9461H113.557C113.549 84.7522 113.498 84.6015 113.403 84.494C113.311 84.3866 113.18 84.3329 113.01 84.3329ZM115.864 86.0429L115.042 84.1324H115.388L116.021 85.6812L116.662 84.1324H116.988L116.163 86.0429H115.864ZM117.286 83.6567V83.299H117.679V83.6567H117.286ZM117.325 86.0429V84.1324H117.643V86.0429H117.325ZM119.1 86.0782C118.799 86.0782 118.56 85.9904 118.384 85.8149C118.209 85.6367 118.121 85.3956 118.121 85.0916C118.121 84.895 118.16 84.722 118.239 84.5727C118.318 84.4207 118.425 84.304 118.561 84.2228C118.7 84.1389 118.86 84.097 119.041 84.097C119.3 84.097 119.504 84.1809 119.65 84.3486C119.797 84.5137 119.87 84.7417 119.87 85.0326V85.1545H118.432C118.442 85.372 118.505 85.5384 118.62 85.6537C118.736 85.7664 118.896 85.8227 119.1 85.8227C119.215 85.8227 119.325 85.8057 119.43 85.7716C119.535 85.7349 119.635 85.676 119.729 85.5947L119.839 85.8188C119.752 85.9 119.642 85.9642 119.509 86.0114C119.375 86.056 119.239 86.0782 119.1 86.0782ZM119.049 84.3329C118.868 84.3329 118.725 84.3892 118.62 84.5019C118.516 84.6146 118.454 84.7627 118.436 84.9461H119.595C119.587 84.7522 119.536 84.6015 119.442 84.494C119.35 84.3866 119.219 84.3329 119.049 84.3329ZM120.815 86.0429L120.104 84.1324H120.438L120.976 85.6694L121.535 84.1324H121.806L122.356 85.6734L122.903 84.1324H123.221L122.506 86.0429H122.203L121.664 84.5609L121.122 86.0429H120.815Z" fill="#A0A0A0"/>
<path d="M103.197 90.6363V90.2747L104.066 89.3489C104.182 89.2218 104.266 89.1098 104.317 89.0135C104.368 88.9145 104.393 88.8143 104.393 88.7127C104.393 88.4533 104.237 88.3236 103.925 88.3236C103.681 88.3236 103.456 88.4153 103.251 88.5981L103.087 88.2325C103.194 88.1362 103.327 88.0582 103.487 87.9999C103.646 87.9416 103.813 87.9121 103.986 87.9121C104.273 87.9121 104.492 87.977 104.645 88.1067C104.8 88.2364 104.878 88.4218 104.878 88.6629C104.878 88.8254 104.838 88.982 104.759 89.1314C104.683 89.2814 104.562 89.4426 104.397 89.6156L103.807 90.2327H104.98V90.6363H103.197ZM106.32 90.6743C106.002 90.6743 105.76 90.5551 105.592 90.3166C105.425 90.0748 105.341 89.7322 105.341 89.288C105.341 88.8379 105.425 88.4965 105.592 88.2626C105.76 88.0294 106.002 87.9121 106.32 87.9121C106.64 87.9121 106.882 88.0294 107.047 88.2626C107.215 88.4965 107.299 88.8372 107.299 89.284C107.299 89.7309 107.215 90.0748 107.047 90.3166C106.88 90.5551 106.637 90.6743 106.32 90.6743ZM106.32 90.2747C106.492 90.2747 106.62 90.196 106.701 90.0381C106.785 89.8783 106.827 89.6267 106.827 89.284C106.827 88.9433 106.785 88.697 106.701 88.545C106.62 88.3897 106.492 88.3124 106.32 88.3124C106.15 88.3124 106.023 88.3897 105.939 88.545C105.855 88.697 105.813 88.9433 105.813 89.284C105.813 89.6267 105.855 89.8783 105.939 90.0381C106.023 90.196 106.15 90.2747 106.32 90.2747ZM109.97 90.6743C109.709 90.6743 109.485 90.5957 109.299 90.4385C109.116 90.2806 108.993 90.0532 108.93 89.7564H108.56V89.421H108.888C108.883 89.3299 108.883 89.2434 108.888 89.1622H108.56V88.8267H108.93C108.996 88.5319 109.12 88.3059 109.303 88.1486C109.486 87.9914 109.709 87.9121 109.97 87.9121C110.118 87.9121 110.257 87.939 110.389 87.9927C110.521 88.0458 110.631 88.1244 110.717 88.2286L110.557 88.5679C110.475 88.4788 110.389 88.4166 110.298 88.3812C110.206 88.3452 110.108 88.3275 110.004 88.3275C109.867 88.3275 109.748 88.3681 109.646 88.4494C109.547 88.5286 109.475 88.6538 109.429 88.8267H110V89.1622H109.372C109.369 89.2487 109.371 89.3345 109.376 89.421H110V89.7564H109.429C109.475 89.9314 109.547 90.0598 109.646 90.141C109.748 90.2196 109.867 90.2589 110.004 90.2589C110.108 90.2589 110.206 90.2413 110.298 90.2059C110.389 90.1679 110.475 90.1056 110.557 90.0191L110.717 90.3546C110.631 90.4614 110.521 90.5413 110.389 90.5944C110.257 90.6481 110.118 90.6743 109.97 90.6743Z" fill="#A0A0A0"/>
<path d="M103.587 95.2593C103.468 95.2593 103.352 95.2442 103.239 95.2128C103.128 95.1807 103.03 95.1302 102.945 95.0621L103.051 94.8374C103.141 94.9009 103.234 94.9455 103.328 94.9717C103.422 94.9966 103.518 95.009 103.615 95.009C103.724 95.009 103.808 94.9881 103.87 94.9461C103.934 94.9049 103.965 94.8498 103.965 94.7817C103.965 94.7306 103.947 94.688 103.91 94.6539C103.872 94.6185 103.809 94.591 103.72 94.5707L103.467 94.5104C103.354 94.4842 103.264 94.4371 103.198 94.3689C103.131 94.2995 103.098 94.2071 103.098 94.0931C103.098 93.985 103.127 93.8926 103.186 93.8173C103.247 93.74 103.326 93.681 103.425 93.641C103.524 93.5991 103.631 93.5781 103.747 93.5781C103.849 93.5781 103.952 93.5938 104.056 93.6246C104.159 93.6554 104.25 93.7046 104.33 93.7727L104.218 93.9909C104.149 93.9319 104.072 93.8906 103.988 93.8658C103.905 93.8409 103.823 93.8284 103.743 93.8284C103.639 93.8284 103.555 93.85 103.49 93.8933C103.425 93.9365 103.393 93.9948 103.393 94.0675C103.393 94.1259 103.41 94.1711 103.444 94.2019C103.477 94.2326 103.528 94.2569 103.595 94.2739L103.847 94.3342C103.984 94.365 104.087 94.4167 104.155 94.4895C104.225 94.5609 104.26 94.6467 104.26 94.747C104.26 94.8597 104.229 94.9546 104.167 95.032C104.105 95.108 104.023 95.165 103.922 95.2036C103.819 95.241 103.708 95.2593 103.587 95.2593ZM104.974 95.2593C104.807 95.2593 104.676 95.2128 104.582 95.1204C104.488 95.0274 104.44 94.9029 104.44 94.747C104.44 94.6107 104.469 94.4934 104.524 94.3945C104.581 94.2936 104.658 94.2169 104.754 94.1625C104.849 94.1069 104.955 94.0787 105.071 94.0787C105.238 94.0787 105.369 94.1252 105.463 94.2182C105.557 94.3106 105.605 94.4351 105.605 94.5917C105.605 94.7273 105.576 94.8459 105.519 94.9461C105.463 95.0451 105.387 95.1224 105.291 95.1781C105.197 95.2324 105.091 95.2593 104.974 95.2593ZM104.981 95.0392C105.052 95.0392 105.111 95.0188 105.159 94.9789C105.209 94.9383 105.247 94.8839 105.273 94.8144C105.299 94.7443 105.312 94.667 105.312 94.5825C105.312 94.4908 105.29 94.4213 105.245 94.3735C105.202 94.3244 105.141 94.2995 105.064 94.2995C104.995 94.2995 104.935 94.3191 104.886 94.3598C104.836 94.3997 104.798 94.4547 104.772 94.5242C104.746 94.5923 104.733 94.6696 104.733 94.7561C104.733 94.8472 104.754 94.918 104.797 94.9671C104.843 95.0149 104.904 95.0392 104.981 95.0392ZM106.152 95.2593C106.021 95.2593 105.926 95.2233 105.869 95.1505C105.812 95.0759 105.795 94.9684 105.816 94.8282L106.011 93.6011H106.3L106.106 94.8256C106.095 94.8937 106.101 94.9442 106.124 94.9763C106.149 95.0071 106.191 95.0228 106.249 95.0228C106.266 95.0228 106.283 95.0221 106.3 95.0208C106.317 95.0175 106.335 95.0149 106.352 95.0136L106.312 95.2383C106.266 95.2528 106.213 95.2593 106.152 95.2593ZM106.93 95.2593C106.802 95.2593 106.698 95.2154 106.62 95.127C106.542 95.0392 106.504 94.9199 106.504 94.7699C106.504 94.6402 106.526 94.5235 106.571 94.42C106.617 94.3145 106.683 94.232 106.768 94.1717C106.853 94.1101 106.954 94.0787 107.072 94.0787C107.153 94.0787 107.226 94.0977 107.29 94.1344C107.353 94.1704 107.4 94.2241 107.431 94.2968L107.54 93.6011H107.83L107.57 95.2364H107.287L107.317 95.0529C107.274 95.1178 107.219 95.1689 107.153 95.2062C107.088 95.2416 107.014 95.2593 106.93 95.2593ZM107.044 95.0392C107.115 95.0392 107.174 95.0188 107.222 94.9789C107.272 94.9383 107.309 94.8839 107.336 94.8144C107.362 94.7443 107.376 94.667 107.376 94.5825C107.376 94.4908 107.353 94.4213 107.308 94.3735C107.265 94.3244 107.205 94.2995 107.127 94.2995C107.058 94.2995 106.998 94.3191 106.948 94.3598C106.899 94.3997 106.861 94.4547 106.835 94.5242C106.809 94.5923 106.796 94.6696 106.796 94.7561C106.796 94.8472 106.817 94.918 106.861 94.9671C106.905 95.0149 106.967 95.0392 107.044 95.0392ZM109.055 95.2593C108.888 95.2593 108.757 95.2128 108.663 95.1204C108.569 95.0274 108.521 94.9029 108.521 94.747C108.521 94.6107 108.549 94.4934 108.605 94.3945C108.662 94.2936 108.738 94.2169 108.835 94.1625C108.93 94.1069 109.036 94.0787 109.152 94.0787C109.319 94.0787 109.45 94.1252 109.544 94.2182C109.639 94.3106 109.686 94.4351 109.686 94.5917C109.686 94.7273 109.657 94.8459 109.6 94.9461C109.544 95.0451 109.468 95.1224 109.373 95.1781C109.278 95.2324 109.172 95.2593 109.055 95.2593ZM109.062 95.0392C109.133 95.0392 109.192 95.0188 109.24 94.9789C109.29 94.9383 109.327 94.8839 109.354 94.8144C109.38 94.7443 109.394 94.667 109.394 94.5825C109.394 94.4908 109.371 94.4213 109.326 94.3735C109.283 94.3244 109.223 94.2995 109.145 94.2995C109.076 94.2995 109.016 94.3191 108.966 94.3598C108.917 94.3997 108.879 94.4547 108.853 94.5242C108.827 94.5923 108.814 94.6696 108.814 94.7561C108.814 94.8472 108.835 94.918 108.879 94.9671C108.923 95.0149 108.985 95.0392 109.062 95.0392ZM110.235 95.2593C110.114 95.2593 110.02 95.2206 109.955 95.1433C109.891 95.066 109.873 94.9448 109.899 94.7791L110.006 94.1023H110.296L110.189 94.7771C110.161 94.9455 110.215 95.03 110.351 95.03C110.438 95.03 110.509 95.0012 110.562 94.9442C110.617 94.8865 110.651 94.8085 110.667 94.7096L110.762 94.1023H111.052L110.873 95.2364H110.591L110.618 95.0575C110.576 95.1224 110.522 95.1728 110.456 95.2082C110.391 95.2423 110.317 95.2593 110.235 95.2593ZM111.713 95.2593C111.561 95.2593 111.451 95.2187 111.384 95.1368C111.316 95.0529 111.292 94.9455 111.312 94.8144L111.39 94.3204H111.172L111.208 94.1023H111.425L111.479 93.7635H111.769L111.715 94.1023H112.059L112.023 94.3204H111.681L111.604 94.7954C111.592 94.876 111.601 94.9337 111.632 94.9697C111.664 95.0038 111.713 95.0208 111.78 95.0208C111.803 95.0208 111.826 95.0182 111.847 95.0136C111.869 95.009 111.89 95.0038 111.91 94.9972L111.926 95.2154C111.902 95.2292 111.869 95.2403 111.829 95.2475C111.789 95.2554 111.75 95.2593 111.713 95.2593Z" fill="#7A7A7A"/>
<path d="M155.732 98.543H102.892V98.7086H155.732V98.543Z" fill="#E8E8E8"/>
<path d="M155.732 19H102.892V19.1656H155.732V19Z" fill="#BBBBBB"/>
<path d="M165.234 0H0V6.79499H165.234V0Z" fill="#EFF0F0"/>
<path d="M158.412 98.2754H100.241V118.66H158.412V98.2754Z" fill="#E8E8E8"/>
<g opacity="0.4">
<path d="M62.4317 45.3867H39.7732L28.8545 53.1037V72.7247L32.0562 77.4863H70.2307L73.7607 72.7247V53.35L62.4317 45.3867Z" fill="#3BA0A8"/>
<path d="M85.0904 67.715V67.469V58.6026V49.8184H81.8065L81.8885 67.9616L81.7245 73.0511L79.1797 77.5668H82.6276L85.1724 73.0511L85.0904 67.715Z" fill="#A6E2E7"/>
<path d="M20.9733 67.9616L21.0554 49.8184H17.7715V58.6026V67.469V67.715L17.6895 73.0511L20.2344 77.5668H23.6824L21.1374 73.0511L20.9733 67.9616Z" fill="#A6E2E7"/>
<path d="M76.4704 49.8184L76.5524 67.9616L76.4704 73.0511L73.8438 77.5668H77.3736L79.8364 73.0511V67.715V67.469V58.6026V49.8184H76.4704Z" fill="#A6E2E7"/>
<path d="M26.3092 67.9616L26.3913 49.8184H23.0254V58.6026V67.469V67.715V73.0511L25.4883 77.5668H29.0184L26.3913 73.0511L26.3092 67.9616Z" fill="#A6E2E7"/>
<path d="M73.8434 21.0039H28.7725V48.0135H29.1009L39.6912 40.4606H62.4317L73.1862 48.0135H73.8434V21.0039Z" fill="#6BC1C8"/>
<path d="M70.1489 81.6719H31.1533V90.456H70.1489V81.6719Z" fill="#BABABA" stroke="white" stroke-width="0.820956"/>
</g>
</g>
<g filter="url(#filter0_d_12235_6555)">
<path d="M58.2591 77H7.74092C7.33172 77 7 77.3317 7 77.7409V98.2591C7 98.6683 7.33172 99 7.74092 99H58.2591C58.6683 99 59 98.6683 59 98.2591V77.7409C59 77.3317 58.6683 77 58.2591 77Z" fill="white"/>
<path d="M11.7104 81.1719C11.7004 81.1819 11.6885 81.1898 11.6754 81.1953C11.6624 81.2007 11.6483 81.2035 11.6342 81.2035C11.62 81.2035 11.606 81.2007 11.5929 81.1953C11.5798 81.1898 11.5679 81.1819 11.5579 81.1719L10.5565 80.1704L9.55516 81.1719C9.53494 81.1921 9.50751 81.2035 9.47892 81.2035C9.45032 81.2035 9.4229 81.1921 9.40267 81.1719C9.38245 81.1517 9.37109 81.1242 9.37109 81.0956C9.37109 81.067 9.38245 81.0396 9.40267 81.0194L10.4803 79.9418C10.4903 79.9317 10.5022 79.9238 10.5153 79.9184C10.5284 79.9129 10.5424 79.9102 10.5565 79.9102C10.5707 79.9102 10.5847 79.9129 10.5978 79.9184C10.6109 79.9238 10.6228 79.9317 10.6328 79.9418L11.7104 81.0194C11.7204 81.0294 11.7284 81.0413 11.7338 81.0544C11.7392 81.0675 11.742 81.0815 11.742 81.0956C11.742 81.1098 11.7392 81.1238 11.7338 81.1369C11.7284 81.15 11.7204 81.1619 11.7104 81.1719Z" fill="#343330"/>
<path d="M17.6695 78.6309C17.2885 78.6309 16.9161 78.7438 16.5993 78.9555C16.2825 79.1672 16.0356 79.468 15.8898 79.82C15.744 80.172 15.7058 80.5594 15.7802 80.9331C15.8545 81.3067 16.038 81.65 16.3074 81.9194C16.5768 82.1888 16.92 82.3723 17.2937 82.4466C17.6674 82.5209 18.0547 82.4828 18.4067 82.337C18.7587 82.1912 19.0596 81.9443 19.2713 81.6275C19.483 81.3107 19.5959 80.9382 19.5959 80.5572C19.5954 80.0465 19.3923 79.5568 19.0311 79.1957C18.67 78.8345 18.1803 78.6314 17.6695 78.6309ZM17.6695 82.1873C17.3472 82.1873 17.032 82.0917 16.764 81.9126C16.4959 81.7334 16.287 81.4789 16.1636 81.181C16.0402 80.8832 16.008 80.5554 16.0709 80.2392C16.1337 79.9231 16.289 79.6326 16.517 79.4046C16.7449 79.1767 17.0354 79.0214 17.3515 78.9585C17.6677 78.8957 17.9955 78.9279 18.2933 79.0513C18.5912 79.1747 18.8458 79.3836 19.0249 79.6517C19.204 79.9197 19.2996 80.2349 19.2996 80.5572C19.2991 80.9894 19.1272 81.4037 18.8216 81.7093C18.516 82.0149 18.1017 82.1868 17.6695 82.1873ZM17.9659 81.4463C17.9659 81.4856 17.9503 81.5233 17.9225 81.5511C17.8947 81.5789 17.857 81.5945 17.8177 81.5945C17.7391 81.5945 17.6637 81.5633 17.6082 81.5077C17.5526 81.4521 17.5214 81.3768 17.5214 81.2982V80.5572C17.4821 80.5572 17.4444 80.5416 17.4166 80.5138C17.3888 80.4861 17.3732 80.4484 17.3732 80.4091C17.3732 80.3698 17.3888 80.3321 17.4166 80.3043C17.4444 80.2765 17.4821 80.2609 17.5214 80.2609C17.6 80.2609 17.6753 80.2921 17.7309 80.3477C17.7865 80.4033 17.8177 80.4786 17.8177 80.5572V81.2982C17.857 81.2982 17.8947 81.3138 17.9225 81.3416C17.9503 81.3694 17.9659 81.407 17.9659 81.4463ZM17.3732 79.7422C17.3732 79.6983 17.3862 79.6553 17.4106 79.6187C17.4351 79.5822 17.4698 79.5537 17.5104 79.5369C17.551 79.5201 17.5957 79.5157 17.6388 79.5242C17.6819 79.5328 17.7215 79.554 17.7526 79.5851C17.7837 79.6161 17.8049 79.6558 17.8135 79.6989C17.822 79.742 17.8176 79.7867 17.8008 79.8273C17.784 79.8679 17.7555 79.9026 17.7189 79.927C17.6824 79.9515 17.6394 79.9645 17.5955 79.9645C17.5365 79.9645 17.48 79.9411 17.4383 79.8994C17.3966 79.8577 17.3732 79.8012 17.3732 79.7422Z" fill="#0080A2"/>
<path d="M21.4348 81.5565V79.6413H21.7825V81.5565H21.4348ZM22.1662 81.5565V80.2281H22.4977V80.4345C22.543 80.3585 22.6036 80.3005 22.6797 80.2607C22.7576 80.2208 22.8445 80.2009 22.9405 80.2009C23.2538 80.2009 23.4105 80.3829 23.4105 80.747V81.5565H23.0709V80.7633C23.0709 80.66 23.051 80.5849 23.0111 80.5378C22.9731 80.4907 22.9133 80.4671 22.8318 80.4671C22.7322 80.4671 22.6525 80.4988 22.5928 80.5622C22.5348 80.6238 22.5058 80.7062 22.5058 80.8094V81.5565H22.1662ZM23.8451 81.5565V80.4834H23.5897V80.2281H23.8451V80.2254C23.8451 80.037 23.894 79.8948 23.9918 79.7988C24.0914 79.7028 24.2453 79.6485 24.4536 79.6358L24.5867 79.6277L24.6084 79.8776L24.4835 79.8858C24.3748 79.893 24.2978 79.9202 24.2526 79.9673C24.2073 80.0126 24.1846 80.0805 24.1846 80.171V80.2281H24.546V80.4834H24.1846V81.5565H23.8451ZM25.3163 81.5837C25.1787 81.5837 25.0591 81.5556 24.9577 81.4995C24.8563 81.4433 24.7775 81.3637 24.7214 81.2604C24.6652 81.1554 24.6371 81.0322 24.6371 80.891C24.6371 80.7497 24.6652 80.6274 24.7214 80.5242C24.7775 80.421 24.8563 80.3413 24.9577 80.2851C25.0591 80.229 25.1787 80.2009 25.3163 80.2009C25.454 80.2009 25.5735 80.229 25.6749 80.2851C25.7763 80.3413 25.8551 80.421 25.9113 80.5242C25.9674 80.6274 25.9955 80.7497 25.9955 80.891C25.9955 81.0322 25.9674 81.1554 25.9113 81.2604C25.8551 81.3637 25.7763 81.4433 25.6749 81.4995C25.5735 81.5556 25.454 81.5837 25.3163 81.5837ZM25.3163 81.3256C25.4177 81.3256 25.4992 81.2894 25.5608 81.217C25.6224 81.1427 25.6532 81.034 25.6532 80.891C25.6532 80.7461 25.6224 80.6383 25.5608 80.5677C25.4992 80.4952 25.4177 80.459 25.3163 80.459C25.2149 80.459 25.1334 80.4952 25.0718 80.5677C25.0102 80.6383 24.9794 80.7461 24.9794 80.891C24.9794 81.034 25.0102 81.1427 25.0718 81.217C25.1334 81.2894 25.2149 81.3256 25.3163 81.3256ZM26.2758 81.5565V80.2281H26.6072V80.4617C26.6724 80.3041 26.8119 80.2172 27.0256 80.2009L27.1288 80.1928L27.1506 80.4807L26.9549 80.4997C26.7322 80.5215 26.6208 80.6356 26.6208 80.842V81.5565H26.2758ZM27.3451 81.5565V80.2281H27.6765V80.4318C27.7164 80.3594 27.7716 80.3032 27.8422 80.2634C27.9129 80.2217 27.9944 80.2009 28.0867 80.2009C28.286 80.2009 28.4164 80.2878 28.4779 80.4617C28.5196 80.3802 28.5794 80.3168 28.6572 80.2715C28.7351 80.2245 28.8239 80.2009 28.9235 80.2009C29.2223 80.2009 29.3717 80.3829 29.3717 80.747V81.5565H29.0321V80.7605C29.0321 80.6591 29.0149 80.5849 28.9805 80.5378C28.9479 80.4907 28.8918 80.4671 28.8121 80.4671C28.7233 80.4671 28.6536 80.4988 28.6029 80.5622C28.5522 80.6238 28.5268 80.7098 28.5268 80.8203V81.5565H28.1872V80.7605C28.1872 80.6591 28.17 80.5849 28.1356 80.5378C28.103 80.4907 28.0478 80.4671 27.9699 80.4671C27.8812 80.4671 27.8114 80.4988 27.7607 80.5622C27.71 80.6238 27.6847 80.7098 27.6847 80.8203V81.5565H27.3451ZM30.1594 81.5837C30.0634 81.5837 29.9774 81.5656 29.9014 81.5294C29.8271 81.4913 29.7682 81.4406 29.7248 81.3772C29.6831 81.3138 29.6623 81.2423 29.6623 81.1626C29.6623 81.0648 29.6876 80.9878 29.7384 80.9317C29.7891 80.8737 29.8715 80.8321 29.9856 80.8067C30.0997 80.7814 30.2527 80.7687 30.4447 80.7687H30.5398V80.7116C30.5398 80.6211 30.5199 80.5559 30.48 80.516C30.4402 80.4762 30.3732 80.4563 30.279 80.4563C30.2047 80.4563 30.1286 80.4681 30.0508 80.4916C29.9729 80.5133 29.8941 80.5477 29.8144 80.5948L29.7166 80.3639C29.7637 80.3313 29.8189 80.3032 29.8823 80.2797C29.9475 80.2543 30.0155 80.2353 30.0861 80.2226C30.1585 80.2082 30.2265 80.2009 30.2898 80.2009C30.4836 80.2009 30.6276 80.2462 30.7218 80.3367C30.816 80.4255 30.8631 80.564 30.8631 80.7524V81.5565H30.5452V81.3447C30.5144 81.419 30.4655 81.4778 30.3985 81.5212C30.3315 81.5629 30.2518 81.5837 30.1594 81.5837ZM30.2301 81.3501C30.3188 81.3501 30.3922 81.3193 30.4501 81.2577C30.5099 81.1961 30.5398 81.1182 30.5398 81.0241V80.9643H30.4474C30.2772 80.9643 30.1585 80.9779 30.0915 81.0051C30.0263 81.0304 29.9937 81.0775 29.9937 81.1463C29.9937 81.2061 30.0145 81.255 30.0562 81.293C30.0979 81.3311 30.1558 81.3501 30.2301 81.3501ZM31.8163 81.5837C31.4649 81.5837 31.2892 81.4098 31.2892 81.0621V80.4834H31.0339V80.2281H31.2892V79.8314H31.6288V80.2281H32.0309V80.4834H31.6288V81.0431C31.6288 81.13 31.6478 81.1952 31.6859 81.2387C31.7239 81.2822 31.7855 81.3039 31.8706 81.3039C31.896 81.3039 31.9222 81.3012 31.9494 81.2957C31.9766 81.2885 32.0046 81.2812 32.0336 81.274L32.0852 81.5239C32.0526 81.5421 32.011 81.5565 31.9603 81.5674C31.9114 81.5783 31.8634 81.5837 31.8163 81.5837ZM32.2286 79.9428V79.6115H32.609V79.9428H32.2286ZM32.2504 81.5565V80.2281H32.59V81.5565H32.2504ZM33.5486 81.5837C33.411 81.5837 33.2915 81.5556 33.19 81.4995C33.0886 81.4433 33.0098 81.3637 32.9537 81.2604C32.8975 81.1554 32.8695 81.0322 32.8695 80.891C32.8695 80.7497 32.8975 80.6274 32.9537 80.5242C33.0098 80.421 33.0886 80.3413 33.19 80.2851C33.2915 80.229 33.411 80.2009 33.5486 80.2009C33.6863 80.2009 33.8058 80.229 33.9072 80.2851C34.0087 80.3413 34.0875 80.421 34.1436 80.5242C34.1997 80.6274 34.2278 80.7497 34.2278 80.891C34.2278 81.0322 34.1997 81.1554 34.1436 81.2604C34.0875 81.3637 34.0087 81.4433 33.9072 81.4995C33.8058 81.5556 33.6863 81.5837 33.5486 81.5837ZM33.5486 81.3256C33.6501 81.3256 33.7316 81.2894 33.7931 81.217C33.8547 81.1427 33.8855 81.034 33.8855 80.891C33.8855 80.7461 33.8547 80.6383 33.7931 80.5677C33.7316 80.4952 33.6501 80.459 33.5486 80.459C33.4472 80.459 33.3657 80.4952 33.3041 80.5677C33.2426 80.6383 33.2118 80.7461 33.2118 80.891C33.2118 81.034 33.2426 81.1427 33.3041 81.217C33.3657 81.2894 33.4472 81.3256 33.5486 81.3256ZM34.5081 81.5565V80.2281H34.8395V80.4345C34.8848 80.3585 34.9455 80.3005 35.0216 80.2607C35.0994 80.2208 35.1864 80.2009 35.2824 80.2009C35.5957 80.2009 35.7524 80.3829 35.7524 80.747V81.5565H35.4128V80.7633C35.4128 80.66 35.3928 80.5849 35.353 80.5378C35.315 80.4907 35.2552 80.4671 35.1737 80.4671C35.0741 80.4671 34.9944 80.4988 34.9346 80.5622C34.8767 80.6238 34.8477 80.7062 34.8477 80.8094V81.5565H34.5081Z" fill="#202121"/>
<path d="M57.815 84.1133H13.5205V86.1879H57.815V84.1133Z" fill="#BABABA"/>
<path d="M39.4526 87.373H13.5205V89.4476H39.4526V87.373Z" fill="#BABABA"/>
<path d="M57.815 90.6328H13.5205V92.7074H57.815V90.6328Z" fill="#BABABA"/>
<path d="M39.4526 93.8926H13.5205V95.9671H39.4526V93.8926Z" fill="#BABABA"/>
</g>
</g>
<path d="M156.741 0.5H0.5V104.328H156.741V0.5Z" stroke="#E9E9E9"/>
</g>
<defs>
<filter id="filter0_d_12235_6555" x="5.81453" y="75.8145" width="54.3709" height="24.3709" filterUnits="userSpaceOnUse" color-interpolation-filters="sRGB">
<feFlood flood-opacity="0" result="BackgroundImageFix"/>
<feColorMatrix in="SourceAlpha" type="matrix" values="0 0 0 0 0 0 0 0 0 0 0 0 0 0 0 0 0 0 127 0" result="hardAlpha"/>
<feOffset/>
<feGaussianBlur stdDeviation="0.592734"/>
<feComposite in2="hardAlpha" operator="out"/>
<feColorMatrix type="matrix" values="0 0 0 0 0.375 0 0 0 0 0.375 0 0 0 0 0.375 0 0 0 0.4 0"/>
<feBlend mode="normal" in2="BackgroundImageFix" result="effect1_dropShadow_12235_6555"/>
<feBlend mode="normal" in="SourceGraphic" in2="effect1_dropShadow_12235_6555" result="shape"/>
</filter>
<clipPath id="clip0_12235_6555">
<rect width="158" height="105" fill="white"/>
</clipPath>
</defs>
</svg>
