<svg width="158" height="106" viewBox="0 0 158 106" fill="none" xmlns="http://www.w3.org/2000/svg">
<g clip-path="url(#clip0_12235_6619)">
<mask id="mask0_12235_6619" style="mask-type:luminance" maskUnits="userSpaceOnUse" x="0" y="0" width="158" height="106">
<path d="M157.241 0.828125H0V105.656H157.241V0.828125Z" fill="white"/>
</mask>
<g mask="url(#mask0_12235_6619)">
<path d="M157.241 0.828125H0V105.656H157.241V0.828125Z" fill="white"/>
<g opacity="0.4">
<path d="M165.234 0.828125H0V7.62311H165.234V0.828125Z" fill="#EFF0F0"/>
<path d="M165 6.82812H0V20.8281H165V6.82812Z" fill="#D9D9D9"/>
<g filter="url(#filter0_d_12235_6619)">
<path d="M148.002 24.8281H106.998C106.447 24.8281 106 25.275 106 25.8263V47.8299C106 48.3812 106.447 48.8281 106.998 48.8281H148.002C148.553 48.8281 149 48.3812 149 47.8299V25.8263C149 25.275 148.553 24.8281 148.002 24.8281Z" fill="white"/>
<path d="M145.381 39.8281H109.619C109.277 39.8281 109 40.0894 109 40.4115V46.2448C109 46.5669 109.277 46.8281 109.619 46.8281H145.381C145.723 46.8281 146 46.5669 146 46.2448V40.4115C146 40.0894 145.723 39.8281 145.381 39.8281Z" fill="#E0E0E0"/>
<path d="M110.191 28.9415V27.3925H111.149V27.5441H110.371V28.0846H111.105V28.2362H110.371V28.9415H110.191ZM111.349 28.9415V27.8737H111.523V28.0649C111.58 27.936 111.697 27.8649 111.874 27.8517L111.938 27.8451L111.951 27.9989L111.839 28.0121C111.738 28.0209 111.661 28.0531 111.608 28.1088C111.556 28.163 111.529 28.2377 111.529 28.3329V28.9415H111.349ZM112.568 28.9613C112.464 28.9613 112.374 28.9386 112.297 28.8932C112.221 28.8478 112.162 28.784 112.119 28.702C112.078 28.6185 112.058 28.5204 112.058 28.4076C112.058 28.2948 112.078 28.1974 112.119 28.1154C112.162 28.0319 112.221 27.9675 112.297 27.922C112.374 27.8766 112.464 27.8539 112.568 27.8539C112.67 27.8539 112.759 27.8766 112.836 27.922C112.913 27.9675 112.973 28.0319 113.014 28.1154C113.056 28.1974 113.077 28.2948 113.077 28.4076C113.077 28.5204 113.056 28.6185 113.014 28.702C112.973 28.784 112.913 28.8478 112.836 28.8932C112.759 28.9386 112.67 28.9613 112.568 28.9613ZM112.568 28.8185C112.667 28.8185 112.747 28.7833 112.807 28.713C112.867 28.6412 112.897 28.5394 112.897 28.4076C112.897 28.2743 112.867 28.1725 112.807 28.1022C112.747 28.0319 112.667 27.9967 112.568 27.9967C112.467 27.9967 112.386 28.0319 112.326 28.1022C112.267 28.1725 112.238 28.2743 112.238 28.4076C112.238 28.5394 112.267 28.6412 112.326 28.713C112.386 28.7833 112.467 28.8185 112.568 28.8185ZM113.349 28.9415V27.8737H113.523V28.0539C113.555 27.9894 113.6 27.9404 113.657 27.9067C113.714 27.8715 113.78 27.8539 113.857 27.8539C114.024 27.8539 114.13 27.9264 114.177 28.0714C114.21 28.0041 114.257 27.9513 114.32 27.9133C114.383 27.8737 114.456 27.8539 114.538 27.8539C114.775 27.8539 114.894 27.9946 114.894 28.2758V28.9415H114.716V28.2846C114.716 28.1864 114.698 28.1147 114.663 28.0693C114.629 28.0224 114.573 27.9989 114.494 27.9989C114.407 27.9989 114.338 28.0297 114.287 28.0912C114.236 28.1527 114.21 28.2348 114.21 28.3373V28.9415H114.032V28.2846C114.032 28.1864 114.015 28.1147 113.98 28.0693C113.946 28.0224 113.89 27.9989 113.81 27.9989C113.723 27.9989 113.653 28.0297 113.602 28.0912C113.552 28.1527 113.527 28.2348 113.527 28.3373V28.9415H113.349Z" fill="#414141"/>
<path d="M110.377 34.8281V34.3809L111.45 33.2368C111.594 33.0799 111.698 32.9417 111.761 32.8225C111.824 32.7001 111.855 32.5761 111.855 32.4505C111.855 32.1304 111.662 31.9703 111.276 31.9703C110.975 31.9703 110.697 32.0833 110.443 32.3093L110.24 31.8573C110.372 31.738 110.537 31.6423 110.734 31.5701C110.932 31.4979 111.138 31.4618 111.351 31.4618C111.706 31.4618 111.977 31.5419 112.166 31.7019C112.357 31.862 112.453 32.0911 112.453 32.3893C112.453 32.5902 112.404 32.7832 112.307 32.9684C112.213 33.1536 112.064 33.3529 111.86 33.5664L111.13 34.3291H112.58V34.8281H110.377ZM114.235 34.8752C113.843 34.8752 113.543 34.7277 113.336 34.4326C113.129 34.1345 113.025 33.7107 113.025 33.1615C113.025 32.6059 113.129 32.1837 113.336 31.895C113.543 31.6062 113.843 31.4618 114.235 31.4618C114.631 31.4618 114.931 31.6062 115.135 31.895C115.342 32.1837 115.445 32.6043 115.445 33.1567C115.445 33.7092 115.342 34.1345 115.135 34.4326C114.928 34.7277 114.628 34.8752 114.235 34.8752ZM114.235 34.3809C114.449 34.3809 114.606 34.2836 114.706 34.089C114.81 33.8912 114.862 33.5805 114.862 33.1567C114.862 32.7362 114.81 32.4317 114.706 32.2434C114.606 32.0519 114.449 31.9562 114.235 31.9562C114.025 31.9562 113.868 32.0519 113.765 32.2434C113.661 32.4317 113.609 32.7362 113.609 33.1567C113.609 33.5805 113.661 33.8912 113.765 34.089C113.868 34.2836 114.025 34.3809 114.235 34.3809ZM118.746 34.8752C118.423 34.8752 118.147 34.7779 117.918 34.5833C117.692 34.3887 117.54 34.1078 117.461 33.7406H117.004V33.3262H117.409C117.403 33.2132 117.403 33.1065 117.409 33.0061H117.004V32.5918H117.461C117.543 32.2277 117.697 31.9483 117.923 31.7537C118.149 31.5591 118.423 31.4618 118.746 31.4618C118.929 31.4618 119.101 31.4948 119.264 31.5607C119.428 31.6266 119.563 31.7239 119.669 31.8526L119.472 32.2716C119.371 32.1618 119.264 32.0849 119.151 32.0409C119.038 31.997 118.918 31.975 118.789 31.975C118.619 31.975 118.472 32.0252 118.346 32.1257C118.224 32.223 118.134 32.3783 118.078 32.5918H118.784V33.0061H118.007C118.004 33.1128 118.006 33.2195 118.012 33.3262H118.784V33.7406H118.078C118.134 33.9571 118.224 34.1156 118.346 34.2161C118.472 34.3134 118.619 34.362 118.789 34.362C118.918 34.362 119.038 34.3401 119.151 34.2961C119.264 34.249 119.371 34.1721 119.472 34.0654L119.669 34.4797C119.563 34.6116 119.428 34.7104 119.264 34.7763C119.101 34.8422 118.929 34.8752 118.746 34.8752Z" fill="#414141"/>
</g>
<path d="M9.95209 25.5203C9.88997 25.4439 9.85652 25.377 9.64149 25.377H9.1254C9.09195 25.377 9.0585 25.3865 9.03938 25.4056C8.99638 25.4391 8.98682 25.4964 9.02982 25.549L10.0524 26.9826H10.9938L9.95209 25.5203Z" fill="#3BA0A8"/>
<path d="M9.02725 28.4925C8.9938 28.5307 8.9938 28.5785 9.01292 28.612C9.03203 28.6454 9.07026 28.6645 9.12282 28.6645H9.69148C9.84917 28.6645 9.91129 28.6263 9.9543 28.5785C9.97341 28.5594 9.98775 28.5403 10.0069 28.5164L10.996 26.9824H10.0499L9.02725 28.4925Z" fill="#3BA0A8"/>
<path d="M13.1439 28.2789C12.9619 28.2789 12.7931 28.2559 12.6375 28.2098C12.4819 28.1616 12.3504 28.0969 12.2429 28.0158L12.3712 27.6837C12.4786 27.7605 12.5959 27.8196 12.723 27.8613C12.8523 27.9029 12.9926 27.9238 13.1439 27.9238C13.317 27.9238 13.4431 27.8953 13.522 27.8383C13.6009 27.7791 13.6404 27.7035 13.6404 27.6114C13.6404 27.5347 13.6119 27.4744 13.5549 27.4306C13.5001 27.3867 13.4047 27.3506 13.2688 27.3221L12.9071 27.2464C12.495 27.1588 12.289 26.9472 12.289 26.6119C12.289 26.4672 12.3273 26.3411 12.4041 26.2337C12.4808 26.1263 12.5871 26.043 12.723 25.9838C12.8589 25.9247 13.0156 25.8951 13.1932 25.8951C13.351 25.8951 13.499 25.9192 13.6371 25.9674C13.7752 26.0134 13.8902 26.0792 13.9823 26.1647L13.8541 26.4803C13.6721 26.3269 13.4507 26.2502 13.1899 26.2502C13.0386 26.2502 12.9203 26.282 12.8348 26.3455C12.7493 26.4091 12.7066 26.4924 12.7066 26.5954C12.7066 26.6743 12.7329 26.7379 12.7855 26.7861C12.8381 26.8321 12.9279 26.8683 13.0551 26.8946L13.4135 26.9702C13.6305 27.0163 13.7916 27.0886 13.8968 27.1873C14.0042 27.2859 14.0579 27.4174 14.0579 27.5818C14.0579 27.7199 14.0207 27.8416 13.9461 27.9468C13.8716 28.052 13.7653 28.1342 13.6272 28.1934C13.4913 28.2504 13.3302 28.2789 13.1439 28.2789ZM15.1721 28.2789C14.9902 28.2789 14.8334 28.2449 14.7019 28.1769C14.5704 28.109 14.4685 28.0125 14.3961 27.8876C14.326 27.7627 14.2909 27.6147 14.2909 27.4437C14.2909 27.2771 14.3249 27.1314 14.3928 27.0064C14.463 26.8815 14.5583 26.7839 14.6789 26.7138C14.8017 26.6414 14.9408 26.6053 15.0965 26.6053C15.3244 26.6053 15.5042 26.6776 15.6357 26.8223C15.7694 26.967 15.8363 27.1642 15.8363 27.4141V27.5358H14.6855C14.7162 27.8229 14.8806 27.9665 15.1787 27.9665C15.2686 27.9665 15.3584 27.9534 15.4483 27.9271C15.5382 27.8986 15.6204 27.8547 15.6949 27.7955L15.81 28.0717C15.7333 28.1353 15.6368 28.1857 15.5206 28.223C15.4045 28.2602 15.2883 28.2789 15.1721 28.2789ZM15.1129 26.8848C14.9924 26.8848 14.8948 26.922 14.8203 26.9965C14.7458 27.0711 14.7008 27.1719 14.6855 27.299H15.4943C15.4856 27.1653 15.4483 27.0634 15.3825 26.9933C15.319 26.9209 15.2291 26.8848 15.1129 26.8848ZM16.7207 28.2789C16.53 28.2789 16.3886 28.2274 16.2966 28.1243C16.2067 28.0191 16.1618 27.8657 16.1618 27.664V25.9279H16.5728V27.6443C16.5728 27.8416 16.6561 27.9402 16.8227 27.9402C16.8468 27.9402 16.8709 27.9391 16.895 27.9369C16.9191 27.9347 16.9421 27.9303 16.964 27.9238L16.9575 28.2493C16.8786 28.269 16.7996 28.2789 16.7207 28.2789ZM17.9881 28.2789C17.8062 28.2789 17.6494 28.2449 17.5179 28.1769C17.3864 28.109 17.2845 28.0125 17.2121 27.8876C17.142 27.7627 17.1069 27.6147 17.1069 27.4437C17.1069 27.2771 17.1409 27.1314 17.2089 27.0064C17.279 26.8815 17.3743 26.7839 17.4949 26.7138C17.6177 26.6414 17.7569 26.6053 17.9125 26.6053C18.1405 26.6053 18.3202 26.6776 18.4517 26.8223C18.5854 26.967 18.6523 27.1642 18.6523 27.4141V27.5358H17.5015C17.5322 27.8229 17.6966 27.9665 17.9947 27.9665C18.0846 27.9665 18.1744 27.9534 18.2643 27.9271C18.3542 27.8986 18.4364 27.8547 18.5109 27.7955L18.626 28.0717C18.5493 28.1353 18.4528 28.1857 18.3366 28.223C18.2205 28.2602 18.1043 28.2789 17.9881 28.2789ZM17.9289 26.8848C17.8084 26.8848 17.7108 26.922 17.6363 26.9965C17.5618 27.0711 17.5168 27.1719 17.5015 27.299H18.3103C18.3016 27.1653 18.2643 27.0634 18.1985 26.9933C18.135 26.9209 18.0451 26.8848 17.9289 26.8848ZM19.7209 28.2789C19.5521 28.2789 19.4052 28.2449 19.2803 28.1769C19.1553 28.1068 19.0589 28.0082 18.9909 27.881C18.923 27.7539 18.889 27.6048 18.889 27.4339C18.889 27.2629 18.923 27.116 18.9909 26.9933C19.0589 26.8683 19.1553 26.773 19.2803 26.7072C19.4052 26.6393 19.5521 26.6053 19.7209 26.6053C19.8239 26.6053 19.9258 26.6217 20.0267 26.6546C20.1275 26.6875 20.2108 26.7335 20.2765 26.7927L20.1549 27.0787C20.0979 27.0283 20.0332 26.99 19.9609 26.9637C19.8907 26.9374 19.8228 26.9242 19.757 26.9242C19.6146 26.9242 19.5039 26.9691 19.4249 27.059C19.3482 27.1467 19.3099 27.2727 19.3099 27.4371C19.3099 27.5994 19.3482 27.7276 19.4249 27.8218C19.5039 27.9139 19.6146 27.9599 19.757 27.9599C19.8206 27.9599 19.8886 27.9468 19.9609 27.9205C20.0332 27.8942 20.0979 27.8547 20.1549 27.8021L20.2765 28.0915C20.2108 28.1484 20.1264 28.1945 20.0234 28.2296C19.9225 28.2624 19.8217 28.2789 19.7209 28.2789ZM21.2716 28.2789C20.8464 28.2789 20.6337 28.0684 20.6337 27.6476V26.9472H20.3247V26.6382H20.6337V26.1581H21.0447V26.6382H21.5314V26.9472H21.0447V27.6246C21.0447 27.7298 21.0677 27.8087 21.1138 27.8613C21.1598 27.9139 21.2343 27.9402 21.3374 27.9402C21.3681 27.9402 21.3998 27.9369 21.4327 27.9303C21.4656 27.9216 21.4996 27.9128 21.5346 27.904L21.5971 28.2065C21.5577 28.2285 21.5072 28.246 21.4459 28.2591C21.3867 28.2723 21.3286 28.2789 21.2716 28.2789ZM22.8279 28.8378L23.1238 28.1802L22.4563 26.6382H22.8936L23.3441 27.7627L23.8044 26.6382H24.2187L23.252 28.8378H22.8279ZM25.115 28.2789C24.9484 28.2789 24.8038 28.2449 24.681 28.1769C24.5583 28.109 24.4629 28.0125 24.395 27.8876C24.327 27.7605 24.293 27.6114 24.293 27.4404C24.293 27.2695 24.327 27.1215 24.395 26.9965C24.4629 26.8716 24.5583 26.7752 24.681 26.7072C24.8038 26.6393 24.9484 26.6053 25.115 26.6053C25.2816 26.6053 25.4263 26.6393 25.5491 26.7072C25.6718 26.7752 25.7672 26.8716 25.8351 26.9965C25.9031 27.1215 25.937 27.2695 25.937 27.4404C25.937 27.6114 25.9031 27.7605 25.8351 27.8876C25.7672 28.0125 25.6718 28.109 25.5491 28.1769C25.4263 28.2449 25.2816 28.2789 25.115 28.2789ZM25.115 27.9665C25.2378 27.9665 25.3364 27.9227 25.411 27.835C25.4855 27.7451 25.5228 27.6136 25.5228 27.4404C25.5228 27.2651 25.4855 27.1346 25.411 27.0492C25.3364 26.9615 25.2378 26.9176 25.115 26.9176C24.9923 26.9176 24.8936 26.9615 24.8191 27.0492C24.7446 27.1346 24.7073 27.2651 24.7073 27.4404C24.7073 27.6136 24.7446 27.7451 24.8191 27.835C24.8936 27.9227 24.9923 27.9665 25.115 27.9665ZM26.8583 28.2789C26.4637 28.2789 26.2664 28.0575 26.2664 27.6147V26.6382H26.6774V27.6213C26.6774 27.7353 26.7004 27.8196 26.7465 27.8744C26.7925 27.9292 26.8659 27.9566 26.9668 27.9566C27.0764 27.9566 27.1662 27.9194 27.2364 27.8449C27.3065 27.7681 27.3416 27.6673 27.3416 27.5424V26.6382H27.7526V28.246H27.3515V28.006C27.244 28.1879 27.0796 28.2789 26.8583 28.2789ZM28.1804 28.246V26.6382H28.5815V26.9209C28.6604 26.7302 28.8292 26.625 29.0879 26.6053L29.2128 26.5954L29.2391 26.9439L29.0024 26.967C28.7328 26.9933 28.5979 27.1314 28.5979 27.3812V28.246H28.1804ZM31.0907 28.2789C30.6654 28.2789 30.4528 28.0684 30.4528 27.6476V26.9472H30.1437V26.6382H30.4528V26.1581H30.8638V26.6382H31.3504V26.9472H30.8638V27.6246C30.8638 27.7298 30.8868 27.8087 30.9329 27.8613C30.9789 27.9139 31.0534 27.9402 31.1565 27.9402C31.1871 27.9402 31.2189 27.9369 31.2518 27.9303C31.2847 27.9216 31.3187 27.9128 31.3537 27.904L31.4162 28.2065C31.3768 28.2285 31.3263 28.246 31.265 28.2591C31.2058 28.2723 31.1477 28.2789 31.0907 28.2789ZM31.5898 26.2929V25.8918H32.0501V26.2929H31.5898ZM31.6161 28.246V26.6382H32.0271V28.246H31.6161ZM33.1972 28.2789C33.0285 28.2789 32.8816 28.2449 32.7566 28.1769C32.6317 28.1068 32.5352 28.0082 32.4673 27.881C32.3993 27.7539 32.3654 27.6048 32.3654 27.4339C32.3654 27.2629 32.3993 27.116 32.4673 26.9933C32.5352 26.8683 32.6317 26.773 32.7566 26.7072C32.8816 26.6393 33.0285 26.6053 33.1972 26.6053C33.3003 26.6053 33.4022 26.6217 33.503 26.6546C33.6039 26.6875 33.6872 26.7335 33.7529 26.7927L33.6313 27.0787C33.5743 27.0283 33.5096 26.99 33.4373 26.9637C33.3671 26.9374 33.2992 26.9242 33.2334 26.9242C33.0909 26.9242 32.9802 26.9691 32.9013 27.059C32.8246 27.1467 32.7862 27.2727 32.7862 27.4371C32.7862 27.5994 32.8246 27.7276 32.9013 27.8218C32.9802 27.9139 33.0909 27.9599 33.2334 27.9599C33.297 27.9599 33.3649 27.9468 33.4373 27.9205C33.5096 27.8942 33.5743 27.8547 33.6313 27.8021L33.7529 28.0915C33.6872 28.1484 33.6028 28.1945 33.4997 28.2296C33.3989 28.2624 33.2981 28.2789 33.1972 28.2789ZM34.005 28.246V25.9279H34.416V27.3221H34.4226L35.0704 26.6382H35.5668L34.8369 27.4075L35.6129 28.246H35.1098L34.4226 27.5292H34.416V28.246H34.005ZM36.5282 28.2789C36.3462 28.2789 36.1895 28.2449 36.058 28.1769C35.9264 28.109 35.8245 28.0125 35.7522 27.8876C35.682 27.7627 35.647 27.6147 35.647 27.4437C35.647 27.2771 35.6809 27.1314 35.7489 27.0064C35.819 26.8815 35.9144 26.7839 36.0349 26.7138C36.1577 26.6414 36.2969 26.6053 36.4525 26.6053C36.6805 26.6053 36.8602 26.6776 36.9918 26.8223C37.1255 26.967 37.1923 27.1642 37.1923 27.4141V27.5358H36.0415C36.0722 27.8229 36.2366 27.9665 36.5347 27.9665C36.6246 27.9665 36.7145 27.9534 36.8043 27.9271C36.8942 27.8986 36.9764 27.8547 37.0509 27.7955L37.166 28.0717C37.0893 28.1353 36.9929 28.1857 36.8767 28.223C36.7605 28.2602 36.6443 28.2789 36.5282 28.2789ZM36.469 26.8848C36.3484 26.8848 36.2509 26.922 36.1763 26.9965C36.1018 27.0711 36.0569 27.1719 36.0415 27.299H36.8504C36.8416 27.1653 36.8043 27.0634 36.7386 26.9933C36.675 26.9209 36.5851 26.8848 36.469 26.8848ZM38.2479 28.2789C37.8227 28.2789 37.61 28.0684 37.61 27.6476V26.9472H37.301V26.6382H37.61V26.1581H38.021V26.6382H38.5077V26.9472H38.021V27.6246C38.021 27.7298 38.0441 27.8087 38.0901 27.8613C38.1361 27.9139 38.2106 27.9402 38.3137 27.9402C38.3444 27.9402 38.3761 27.9369 38.409 27.9303C38.4419 27.9216 38.4759 27.9128 38.511 27.904L38.5734 28.2065C38.534 28.2285 38.4836 28.246 38.4222 28.2591C38.363 28.2723 38.3049 28.2789 38.2479 28.2789ZM39.3619 28.2789C39.226 28.2789 39.0988 28.2624 38.9804 28.2296C38.8621 28.1967 38.7634 28.1495 38.6845 28.0882L38.7897 27.8186C38.8708 27.8734 38.9618 27.9161 39.0626 27.9468C39.1635 27.9753 39.2643 27.9895 39.3651 27.9895C39.4704 27.9895 39.5482 27.972 39.5986 27.9369C39.6512 27.8997 39.6775 27.8514 39.6775 27.7922C39.6775 27.7002 39.6096 27.641 39.4736 27.6147L39.1448 27.5522C38.8665 27.4996 38.7273 27.3549 38.7273 27.1182C38.7273 27.013 38.7558 26.922 38.8128 26.8453C38.8719 26.7686 38.953 26.7094 39.0561 26.6677C39.1591 26.6261 39.2775 26.6053 39.4112 26.6053C39.5252 26.6053 39.6348 26.6217 39.74 26.6546C39.8452 26.6853 39.9351 26.7324 40.0096 26.796L39.8978 27.0656C39.8342 27.013 39.7575 26.9713 39.6676 26.9407C39.58 26.91 39.4956 26.8946 39.4145 26.8946C39.3071 26.8946 39.227 26.9133 39.1744 26.9505C39.124 26.9878 39.0988 27.0371 39.0988 27.0985C39.0988 27.1949 39.1613 27.2541 39.2862 27.276L39.615 27.3385C39.7575 27.3648 39.8649 27.413 39.9373 27.4832C40.0118 27.5533 40.0491 27.6476 40.0491 27.7659C40.0491 27.926 39.9866 28.052 39.8616 28.1441C39.7367 28.2339 39.5701 28.2789 39.3619 28.2789Z" fill="#414141"/>
<mask id="mask1_12235_6619" style="mask-type:luminance" maskUnits="userSpaceOnUse" x="9" y="53" width="92" height="65">
<path d="M99.8112 53.8281H9.45292C9.20278 53.8281 9 54.0309 9 54.281V116.904C9 117.155 9.20278 117.357 9.45292 117.357H99.8112C100.061 117.357 100.264 117.155 100.264 116.904V54.281C100.264 54.0309 100.061 53.8281 99.8112 53.8281Z" fill="white"/>
</mask>
<g mask="url(#mask1_12235_6619)">
<path d="M100.264 53.8281H9V58.3574H100.264V53.8281Z" fill="#3BA0A8"/>
<path d="M100.264 58.3574H9V69.3574H100.264V58.3574Z" fill="#F1F1F1"/>
<path d="M100.264 69.3574H9V85.3574H100.264V69.3574Z" fill="white"/>
<path d="M10.8115 69.3574H98.4522V85.3574H10.8115V69.3574Z" fill="white"/>
<mask id="mask2_12235_6619" style="mask-type:luminance" maskUnits="userSpaceOnUse" x="10" y="69" width="89" height="17">
<g opacity="0.4">
<path d="M10.8115 69.3574H98.4522V85.3574H10.8115V69.3574Z" fill="white"/>
</g>
</mask>
<g mask="url(#mask2_12235_6619)">
<path d="M98.4522 85.2443H10.8115V85.4708H98.4522V85.2443Z" fill="#C6C6C6"/>
</g>
<path d="M85.4726 80.0928C85.4726 78.8733 84.4841 77.8848 83.2646 77.8848C82.0452 77.8848 81.0566 78.8733 81.0566 80.0928C81.0566 81.3122 82.0452 82.3008 83.2646 82.3008C84.4841 82.3008 85.4726 81.3122 85.4726 80.0928Z" fill="white"/>
<path d="M85.4726 80.0928C85.4726 78.8733 84.4841 77.8848 83.2646 77.8848C82.0452 77.8848 81.0566 78.8733 81.0566 80.0928C81.0566 81.3122 82.0452 82.3008 83.2646 82.3008C84.4841 82.3008 85.4726 81.3122 85.4726 80.0928Z" stroke="#A0A0A0" stroke-width="0.113231"/>
<path d="M85.4726 80.0928C85.4726 78.8733 84.4841 77.8848 83.2646 77.8848C82.0452 77.8848 81.0566 78.8733 81.0566 80.0928C81.0566 81.3122 82.0452 82.3008 83.2646 82.3008C84.4841 82.3008 85.4726 81.3122 85.4726 80.0928Z" stroke="#A0A0A0" stroke-width="0.113231"/>
<path d="M84.2623 80.093C84.2623 80.1099 84.2556 80.1261 84.2436 80.138C84.2317 80.15 84.2155 80.1567 84.1986 80.1567H82.3303C82.3134 80.1567 82.2972 80.15 82.2853 80.138C82.2733 80.1261 82.2666 80.1099 82.2666 80.093C82.2666 80.0761 82.2733 80.0599 82.2853 80.048C82.2972 80.036 82.3134 80.0293 82.3303 80.0293H84.1986C84.2155 80.0293 84.2317 80.036 84.2436 80.048C84.2556 80.0599 84.2623 80.0761 84.2623 80.093Z" fill="#A0A0A0"/>
<path d="M96.9658 80.0927C96.9658 78.842 95.9519 77.8281 94.7011 77.8281C93.4504 77.8281 92.4365 78.842 92.4365 80.0927C92.4365 81.3434 93.4504 82.3574 94.7011 82.3574C95.9519 82.3574 96.9658 81.3434 96.9658 80.0927Z" fill="#3BA0A8"/>
<path d="M95.6988 80.0936C95.6988 80.1104 95.6921 80.1266 95.6802 80.1386C95.6682 80.1505 95.652 80.1572 95.6351 80.1572H94.7647V81.0277C94.7647 81.0446 94.758 81.0608 94.746 81.0727C94.7341 81.0847 94.7179 81.0914 94.701 81.0914C94.6841 81.0914 94.6679 81.0847 94.6559 81.0727C94.644 81.0608 94.6373 81.0446 94.6373 81.0277V80.1572H93.7668C93.7499 80.1572 93.7337 80.1505 93.7218 80.1386C93.7098 80.1266 93.7031 80.1104 93.7031 80.0936C93.7031 80.0767 93.7098 80.0605 93.7218 80.0485C93.7337 80.0366 93.7499 80.0299 93.7668 80.0299H94.6373V79.1594C94.6373 79.1425 94.644 79.1263 94.6559 79.1144C94.6679 79.1024 94.6841 79.0957 94.701 79.0957C94.7179 79.0957 94.7341 79.1024 94.746 79.1144C94.758 79.1263 94.7647 79.1425 94.7647 79.1594V80.0299H95.6351C95.652 80.0299 95.6682 80.0366 95.6802 80.0485C95.6921 80.0605 95.6988 80.0767 95.6988 80.0936Z" fill="white"/>
<path d="M100.264 85.3574H9V101.357H100.264V85.3574Z" fill="white"/>
<path d="M10.8115 85.3574H98.4522V101.357H10.8115V85.3574Z" fill="white"/>
<mask id="mask3_12235_6619" style="mask-type:luminance" maskUnits="userSpaceOnUse" x="10" y="85" width="89" height="17">
<g opacity="0.4">
<path d="M10.8115 85.3574H98.4522V101.357H10.8115V85.3574Z" fill="white"/>
</g>
</mask>
<g mask="url(#mask3_12235_6619)">
<path d="M98.4522 101.244H10.8115V101.471H98.4522V101.244Z" fill="#C6C6C6"/>
</g>
<path d="M85.4726 96.0928C85.4726 94.8733 84.4841 93.8848 83.2646 93.8848C82.0452 93.8848 81.0566 94.8733 81.0566 96.0928C81.0566 97.3122 82.0452 98.3008 83.2646 98.3008C84.4841 98.3008 85.4726 97.3122 85.4726 96.0928Z" fill="white"/>
<path d="M85.4726 96.0928C85.4726 94.8733 84.4841 93.8848 83.2646 93.8848C82.0452 93.8848 81.0566 94.8733 81.0566 96.0928C81.0566 97.3122 82.0452 98.3008 83.2646 98.3008C84.4841 98.3008 85.4726 97.3122 85.4726 96.0928Z" stroke="#A0A0A0" stroke-width="0.113231"/>
<path d="M85.4726 96.0928C85.4726 94.8733 84.4841 93.8848 83.2646 93.8848C82.0452 93.8848 81.0566 94.8733 81.0566 96.0928C81.0566 97.3122 82.0452 98.3008 83.2646 98.3008C84.4841 98.3008 85.4726 97.3122 85.4726 96.0928Z" stroke="#A0A0A0" stroke-width="0.113231"/>
<path d="M84.2623 96.093C84.2623 96.1099 84.2556 96.1261 84.2436 96.138C84.2317 96.15 84.2155 96.1567 84.1986 96.1567H82.3303C82.3134 96.1567 82.2972 96.15 82.2853 96.138C82.2733 96.1261 82.2666 96.1099 82.2666 96.093C82.2666 96.0761 82.2733 96.0599 82.2853 96.048C82.2972 96.036 82.3134 96.0293 82.3303 96.0293H84.1986C84.2155 96.0293 84.2317 96.036 84.2436 96.048C84.2556 96.0599 84.2623 96.0761 84.2623 96.093Z" fill="#A0A0A0"/>
<path d="M96.9658 96.0927C96.9658 94.842 95.9519 93.8281 94.7011 93.8281C93.4504 93.8281 92.4365 94.842 92.4365 96.0927C92.4365 97.3434 93.4504 98.3574 94.7011 98.3574C95.9519 98.3574 96.9658 97.3434 96.9658 96.0927Z" fill="#3BA0A8"/>
<path d="M95.6988 96.0936C95.6988 96.1104 95.6921 96.1266 95.6802 96.1386C95.6682 96.1505 95.652 96.1572 95.6351 96.1572H94.7647V97.0277C94.7647 97.0446 94.758 97.0608 94.746 97.0727C94.7341 97.0847 94.7179 97.0914 94.701 97.0914C94.6841 97.0914 94.6679 97.0847 94.6559 97.0727C94.644 97.0608 94.6373 97.0446 94.6373 97.0277V96.1572H93.7668C93.7499 96.1572 93.7337 96.1505 93.7218 96.1386C93.7098 96.1266 93.7031 96.1104 93.7031 96.0936C93.7031 96.0767 93.7098 96.0605 93.7218 96.0485C93.7337 96.0366 93.7499 96.0299 93.7668 96.0299H94.6373V95.1594C94.6373 95.1425 94.644 95.1263 94.6559 95.1144C94.6679 95.1024 94.6841 95.0957 94.701 95.0957C94.7179 95.0957 94.7341 95.1024 94.746 95.1144C94.758 95.1263 94.7647 95.1425 94.7647 95.1594V96.0299H95.6351C95.652 96.0299 95.6682 96.0366 95.6802 96.0485C95.6921 96.0605 95.6988 96.0767 95.6988 96.0936Z" fill="white"/>
<path d="M100.264 101.357H9V117.357H100.264V101.357Z" fill="white"/>
<path d="M10.8115 101.357H98.4522V117.357H10.8115V101.357Z" fill="white"/>
</g>
<path d="M99.8111 53.8846H9.45295C9.23407 53.8846 9.05664 54.0621 9.05664 54.281V116.904C9.05664 117.123 9.23407 117.301 9.45295 117.301H99.8111C100.03 117.301 100.207 117.123 100.207 116.904V54.281C100.207 54.0621 100.03 53.8846 99.8111 53.8846Z" stroke="#C6C6C6" stroke-width="0.113231"/>
</g>
<g filter="url(#filter1_d_12235_6619)">
<path d="M99.2591 32.8281H9.74092C9.33172 32.8281 9 33.1598 9 33.569V49.0872C9 49.4964 9.33172 49.8281 9.74092 49.8281H99.2591C99.6683 49.8281 100 49.4964 100 49.0872V33.569C100 33.1598 99.6683 32.8281 99.2591 32.8281Z" fill="white"/>
<path d="M13.7104 37C13.7004 37.01 13.6885 37.018 13.6754 37.0234C13.6624 37.0288 13.6483 37.0316 13.6342 37.0316C13.62 37.0316 13.606 37.0288 13.5929 37.0234C13.5798 37.018 13.5679 37.01 13.5579 37L12.5565 35.9985L11.5552 37C11.5349 37.0202 11.5075 37.0316 11.4789 37.0316C11.4503 37.0316 11.4229 37.0202 11.4027 37C11.3825 36.9798 11.3711 36.9524 11.3711 36.9238C11.3711 36.8952 11.3825 36.8677 11.4027 36.8475L12.4803 35.7699C12.4903 35.7599 12.5022 35.7519 12.5153 35.7465C12.5284 35.7411 12.5424 35.7383 12.5565 35.7383C12.5707 35.7383 12.5847 35.7411 12.5978 35.7465C12.6109 35.7519 12.6228 35.7599 12.6328 35.7699L13.7104 36.8475C13.7204 36.8575 13.7284 36.8694 13.7338 36.8825C13.7392 36.8956 13.742 36.9096 13.742 36.9238C13.742 36.9379 13.7392 36.9519 13.7338 36.965C13.7284 36.9781 13.7204 36.99 13.7104 37Z" fill="#343330"/>
<path d="M19.6695 34.459C19.2885 34.459 18.9161 34.572 18.5993 34.7836C18.2825 34.9953 18.0356 35.2962 17.8898 35.6482C17.744 36.0002 17.7058 36.3875 17.7802 36.7612C17.8545 37.1349 18.038 37.4781 18.3074 37.7475C18.5768 38.0169 18.92 38.2004 19.2937 38.2747C19.6674 38.3491 20.0547 38.3109 20.4067 38.1651C20.7587 38.0193 21.0596 37.7724 21.2713 37.4556C21.483 37.1388 21.5959 36.7664 21.5959 36.3854C21.5954 35.8746 21.3923 35.385 21.0311 35.0238C20.67 34.6627 20.1803 34.4595 19.6695 34.459ZM19.6695 38.0154C19.3472 38.0154 19.032 37.9198 18.764 37.7407C18.4959 37.5616 18.287 37.307 18.1636 37.0091C18.0402 36.7113 18.008 36.3836 18.0709 36.0674C18.1337 35.7512 18.289 35.4607 18.517 35.2328C18.7449 35.0048 19.0354 34.8496 19.3515 34.7867C19.6677 34.7238 19.9955 34.7561 20.2933 34.8794C20.5912 35.0028 20.8458 35.2117 21.0249 35.4798C21.204 35.7478 21.2996 36.063 21.2996 36.3854C21.2991 36.8175 21.1272 37.2318 20.8216 37.5374C20.516 37.843 20.1017 38.0149 19.6695 38.0154ZM19.9659 37.2745C19.9659 37.3138 19.9503 37.3515 19.9225 37.3793C19.8947 37.407 19.857 37.4227 19.8177 37.4227C19.7391 37.4227 19.6637 37.3914 19.6082 37.3358C19.5526 37.2803 19.5214 37.2049 19.5214 37.1263V36.3854C19.4821 36.3854 19.4444 36.3698 19.4166 36.342C19.3888 36.3142 19.3732 36.2765 19.3732 36.2372C19.3732 36.1979 19.3888 36.1602 19.4166 36.1324C19.4444 36.1046 19.4821 36.089 19.5214 36.089C19.6 36.089 19.6753 36.1202 19.7309 36.1758C19.7865 36.2314 19.8177 36.3068 19.8177 36.3854V37.1263C19.857 37.1263 19.8947 37.1419 19.9225 37.1697C19.9503 37.1975 19.9659 37.2352 19.9659 37.2745ZM19.3732 35.5704C19.3732 35.5264 19.3862 35.4834 19.4106 35.4469C19.4351 35.4103 19.4698 35.3818 19.5104 35.365C19.551 35.3482 19.5957 35.3438 19.6388 35.3524C19.6819 35.3609 19.7215 35.3821 19.7526 35.4132C19.7837 35.4443 19.8049 35.4839 19.8135 35.527C19.822 35.5701 19.8176 35.6148 19.8008 35.6554C19.784 35.696 19.7555 35.7308 19.7189 35.7552C19.6824 35.7796 19.6394 35.7926 19.5955 35.7926C19.5365 35.7926 19.48 35.7692 19.4383 35.7275C19.3966 35.6858 19.3732 35.6293 19.3732 35.5704Z" fill="#0080A2"/>
<path d="M23.4348 37.3848V35.4695H23.7825V37.3848H23.4348ZM24.1662 37.3848V36.0563H24.4977V36.2628C24.543 36.1867 24.6036 36.1287 24.6797 36.0889C24.7576 36.0491 24.8445 36.0291 24.9405 36.0291C25.2538 36.0291 25.4105 36.2112 25.4105 36.5752V37.3848H25.0709V36.5915C25.0709 36.4883 25.051 36.4131 25.0111 36.366C24.9731 36.3189 24.9133 36.2954 24.8318 36.2954C24.7322 36.2954 24.6525 36.3271 24.5928 36.3905C24.5348 36.452 24.5058 36.5344 24.5058 36.6377V37.3848H24.1662ZM25.8451 37.3848V36.3117H25.5897V36.0563H25.8451V36.0536C25.8451 35.8652 25.894 35.7231 25.9918 35.6271C26.0914 35.5311 26.2453 35.4767 26.4536 35.4641L26.5867 35.4559L26.6084 35.7058L26.4835 35.714C26.3748 35.7212 26.2978 35.7484 26.2526 35.7955C26.2073 35.8408 26.1846 35.9087 26.1846 35.9993V36.0563H26.546V36.3117H26.1846V37.3848H25.8451ZM27.3163 37.4119C27.1787 37.4119 27.0591 37.3839 26.9577 37.3277C26.8563 37.2716 26.7775 37.1919 26.7214 37.0886C26.6652 36.9836 26.6371 36.8604 26.6371 36.7192C26.6371 36.5779 26.6652 36.4557 26.7214 36.3524C26.7775 36.2492 26.8563 36.1695 26.9577 36.1134C27.0591 36.0572 27.1787 36.0291 27.3163 36.0291C27.454 36.0291 27.5735 36.0572 27.6749 36.1134C27.7763 36.1695 27.8551 36.2492 27.9113 36.3524C27.9674 36.4557 27.9955 36.5779 27.9955 36.7192C27.9955 36.8604 27.9674 36.9836 27.9113 37.0886C27.8551 37.1919 27.7763 37.2716 27.6749 37.3277C27.5735 37.3839 27.454 37.4119 27.3163 37.4119ZM27.3163 37.1538C27.4177 37.1538 27.4992 37.1176 27.5608 37.0452C27.6224 36.9709 27.6532 36.8623 27.6532 36.7192C27.6532 36.5743 27.6224 36.4665 27.5608 36.3959C27.4992 36.3234 27.4177 36.2872 27.3163 36.2872C27.2149 36.2872 27.1334 36.3234 27.0718 36.3959C27.0102 36.4665 26.9794 36.5743 26.9794 36.7192C26.9794 36.8623 27.0102 36.9709 27.0718 37.0452C27.1334 37.1176 27.2149 37.1538 27.3163 37.1538ZM28.2758 37.3848V36.0563H28.6072V36.2899C28.6724 36.1324 28.8119 36.0454 29.0256 36.0291L29.1288 36.021L29.1506 36.309L28.9549 36.328C28.7322 36.3497 28.6208 36.4638 28.6208 36.6703V37.3848H28.2758ZM29.3451 37.3848V36.0563H29.6765V36.2601C29.7164 36.1876 29.7716 36.1315 29.8422 36.0916C29.9129 36.05 29.9944 36.0291 30.0867 36.0291C30.286 36.0291 30.4164 36.1161 30.4779 36.2899C30.5196 36.2084 30.5794 36.145 30.6572 36.0998C30.7351 36.0527 30.8239 36.0291 30.9235 36.0291C31.2223 36.0291 31.3717 36.2112 31.3717 36.5752V37.3848H31.0321V36.5888C31.0321 36.4874 31.0149 36.4131 30.9805 36.366C30.9479 36.3189 30.8918 36.2954 30.8121 36.2954C30.7233 36.2954 30.6536 36.3271 30.6029 36.3905C30.5522 36.452 30.5268 36.5381 30.5268 36.6485V37.3848H30.1872V36.5888C30.1872 36.4874 30.17 36.4131 30.1356 36.366C30.103 36.3189 30.0478 36.2954 29.9699 36.2954C29.8812 36.2954 29.8114 36.3271 29.7607 36.3905C29.71 36.452 29.6847 36.5381 29.6847 36.6485V37.3848H29.3451ZM32.1594 37.4119C32.0634 37.4119 31.9774 37.3938 31.9014 37.3576C31.8271 37.3196 31.7682 37.2689 31.7248 37.2055C31.6831 37.1421 31.6623 37.0705 31.6623 36.9908C31.6623 36.893 31.6876 36.8161 31.7384 36.7599C31.7891 36.702 31.8715 36.6603 31.9856 36.635C32.0997 36.6096 32.2527 36.5969 32.4447 36.5969H32.5398V36.5399C32.5398 36.4493 32.5199 36.3841 32.48 36.3443C32.4402 36.3044 32.3732 36.2845 32.279 36.2845C32.2047 36.2845 32.1286 36.2963 32.0508 36.3198C31.9729 36.3416 31.8941 36.376 31.8144 36.4231L31.7166 36.1921C31.7637 36.1595 31.8189 36.1315 31.8823 36.1079C31.9475 36.0826 32.0155 36.0635 32.0861 36.0509C32.1585 36.0364 32.2265 36.0291 32.2898 36.0291C32.4836 36.0291 32.6276 36.0744 32.7218 36.165C32.816 36.2537 32.8631 36.3923 32.8631 36.5806V37.3848H32.5452V37.1729C32.5144 37.2471 32.4655 37.306 32.3985 37.3494C32.3315 37.3911 32.2518 37.4119 32.1594 37.4119ZM32.2301 37.1783C32.3188 37.1783 32.3922 37.1475 32.4501 37.0859C32.5099 37.0244 32.5398 36.9465 32.5398 36.8523V36.7925H32.4474C32.2772 36.7925 32.1585 36.8061 32.0915 36.8333C32.0263 36.8586 31.9937 36.9057 31.9937 36.9745C31.9937 37.0343 32.0145 37.0832 32.0562 37.1212C32.0979 37.1593 32.1558 37.1783 32.2301 37.1783ZM33.8163 37.4119C33.4649 37.4119 33.2892 37.2381 33.2892 36.8903V36.3117H33.0339V36.0563H33.2892V35.6597H33.6288V36.0563H34.0309V36.3117H33.6288V36.8713C33.6288 36.9582 33.6478 37.0234 33.6859 37.0669C33.7239 37.1104 33.7855 37.1321 33.8706 37.1321C33.896 37.1321 33.9222 37.1294 33.9494 37.124C33.9766 37.1167 34.0046 37.1095 34.0336 37.1022L34.0852 37.3522C34.0526 37.3703 34.011 37.3848 33.9603 37.3956C33.9114 37.4065 33.8634 37.4119 33.8163 37.4119ZM34.2286 35.771V35.4396H34.609V35.771H34.2286ZM34.2504 37.3848V36.0563H34.59V37.3848H34.2504ZM35.5486 37.4119C35.411 37.4119 35.2915 37.3839 35.19 37.3277C35.0886 37.2716 35.0098 37.1919 34.9537 37.0886C34.8975 36.9836 34.8695 36.8604 34.8695 36.7192C34.8695 36.5779 34.8975 36.4557 34.9537 36.3524C35.0098 36.2492 35.0886 36.1695 35.19 36.1134C35.2915 36.0572 35.411 36.0291 35.5486 36.0291C35.6863 36.0291 35.8058 36.0572 35.9072 36.1134C36.0087 36.1695 36.0875 36.2492 36.1436 36.3524C36.1997 36.4557 36.2278 36.5779 36.2278 36.7192C36.2278 36.8604 36.1997 36.9836 36.1436 37.0886C36.0875 37.1919 36.0087 37.2716 35.9072 37.3277C35.8058 37.3839 35.6863 37.4119 35.5486 37.4119ZM35.5486 37.1538C35.6501 37.1538 35.7316 37.1176 35.7931 37.0452C35.8547 36.9709 35.8855 36.8623 35.8855 36.7192C35.8855 36.5743 35.8547 36.4665 35.7931 36.3959C35.7316 36.3234 35.6501 36.2872 35.5486 36.2872C35.4472 36.2872 35.3657 36.3234 35.3041 36.3959C35.2426 36.4665 35.2118 36.5743 35.2118 36.7192C35.2118 36.8623 35.2426 36.9709 35.3041 37.0452C35.3657 37.1176 35.4472 37.1538 35.5486 37.1538ZM36.5081 37.3848V36.0563H36.8395V36.2628C36.8848 36.1867 36.9455 36.1287 37.0216 36.0889C37.0994 36.0491 37.1864 36.0291 37.2824 36.0291C37.5957 36.0291 37.7524 36.2112 37.7524 36.5752V37.3848H37.4128V36.5915C37.4128 36.4883 37.3928 36.4131 37.353 36.366C37.315 36.3189 37.2552 36.2954 37.1737 36.2954C37.0741 36.2954 36.9944 36.3271 36.9346 36.3905C36.8767 36.452 36.8477 36.5344 36.8477 36.6377V37.3848H36.5081Z" fill="#202121"/>
<path d="M98.815 39.9414H15.5205V42.016H98.815V39.9414Z" fill="#BABABA"/>
<path d="M41.4526 43.2012H15.5205V45.2757H41.4526V43.2012Z" fill="#BABABA"/>
</g>
</g>
<path d="M156.741 1.32812H0.5V105.156H156.741V1.32812Z" stroke="#E9E9E9"/>
</g>
<defs>
<filter id="filter0_d_12235_6619" x="104.403" y="23.231" width="46.1942" height="27.1942" filterUnits="userSpaceOnUse" color-interpolation-filters="sRGB">
<feFlood flood-opacity="0" result="BackgroundImageFix"/>
<feColorMatrix in="SourceAlpha" type="matrix" values="0 0 0 0 0 0 0 0 0 0 0 0 0 0 0 0 0 0 127 0" result="hardAlpha"/>
<feOffset/>
<feGaussianBlur stdDeviation="0.798544"/>
<feComposite in2="hardAlpha" operator="out"/>
<feColorMatrix type="matrix" values="0 0 0 0 0.375 0 0 0 0 0.375 0 0 0 0 0.375 0 0 0 0.4 0"/>
<feBlend mode="normal" in2="BackgroundImageFix" result="effect1_dropShadow_12235_6619"/>
<feBlend mode="normal" in="SourceGraphic" in2="effect1_dropShadow_12235_6619" result="shape"/>
</filter>
<filter id="filter1_d_12235_6619" x="7.81453" y="31.6427" width="93.3709" height="19.3709" filterUnits="userSpaceOnUse" color-interpolation-filters="sRGB">
<feFlood flood-opacity="0" result="BackgroundImageFix"/>
<feColorMatrix in="SourceAlpha" type="matrix" values="0 0 0 0 0 0 0 0 0 0 0 0 0 0 0 0 0 0 127 0" result="hardAlpha"/>
<feOffset/>
<feGaussianBlur stdDeviation="0.592734"/>
<feComposite in2="hardAlpha" operator="out"/>
<feColorMatrix type="matrix" values="0 0 0 0 0.375 0 0 0 0 0.375 0 0 0 0 0.375 0 0 0 0.4 0"/>
<feBlend mode="normal" in2="BackgroundImageFix" result="effect1_dropShadow_12235_6619"/>
<feBlend mode="normal" in="SourceGraphic" in2="effect1_dropShadow_12235_6619" result="shape"/>
</filter>
<clipPath id="clip0_12235_6619">
<rect width="158" height="106" fill="white"/>
</clipPath>
</defs>
</svg>
