<svg xmlns="http://www.w3.org/2000/svg" version="1.1" viewBox="0 0 16 16"><path d="M4.19 12.67c.9.73 2 1.2 3.2 1.33v-1.22a4.79 4.79 0 0 1-2.34-.98m3.55.98V14c1.2-.12 2.32-.6 3.21-1.33l-.86-.87c-.66.52-1.47.87-2.35.98zm3.2-1.83.87.87c.73-.9 1.2-2.01 1.33-3.22h-1.22c-.1.88-.46 1.69-.98 2.35ZM9.8 8a1.8 1.8 0 1 0-3.6 0 1.8 1.8 0 0 0 3.6 0Zm-6.58.6H2c.12 1.2.6 2.32 1.33 3.21l.86-.86a4.74 4.74 0 0 1-.97-2.35Zm.97-3.55-.86-.86c-.73.9-1.2 2-1.33 3.2h1.22c.1-.87.46-1.68.97-2.34Zm8.6 2.35H14a6.02 6.02 0 0 0-1.33-3.21l-.87.86c.52.66.87 1.47.98 2.35zm-.98-4.07c-.9-.73-2-1.2-3.2-1.33v1.22c.87.1 1.68.46 2.34.97M7.4 3.22V2c-1.2.12-2.32.6-3.21 1.33l.86.86a4.79 4.79 0 0 1 2.35-.97Z"/></svg>