<svg xmlns="http://www.w3.org/2000/svg" version="1.1" viewBox="0 0 16 16"><path fill="#444" d="M13.24 5.37v7.12a1.5 1.5 0 0 1-1.5 1.5v-.75a.75.75 0 0 0 .75-.74V5.37H11a1.1 1.1 0 0 1-.79-.33 1.11 1.11 0 0 1-.33-.8v-1.5H5.75A.75.75 0 0 0 5 3.5v6.74h-.75V3.5A1.5 1.5 0 0 1 5.75 2h4.12ZM2.75 13.12a.87.87 0 0 0 .3.62c.1.08.22.14.36.19.14.04.3.07.5.07.25 0 .47-.04.64-.12a.91.91 0 0 0 .4-.33.88.88 0 0 0 .15-.5.8.8 0 0 0-.1-.41.75.75 0 0 0-.29-.27 1.53 1.53 0 0 0-.42-.16l-.46-.1a.72.72 0 0 1-.3-.14.27.27 0 0 1-.09-.1.27.27 0 0 1-.02-.12c0-.12.04-.21.13-.29a.6.6 0 0 1 .39-.11c.1 0 .2.02.27.05.08.03.14.07.19.14.04.05.08.12.09.19h.55a.81.81 0 0 0-.15-.43.9.9 0 0 0-.37-.3 1.36 1.36 0 0 0-.58-.12 1.41 1.41 0 0 0-.59.12.93.93 0 0 0-.4.3.82.82 0 0 0-.13.49.76.76 0 0 0 .35.67c.12.07.25.12.4.16l.47.1c.15.04.27.09.34.15a.3.3 0 0 1 .12.24.37.37 0 0 1-.06.22.42.42 0 0 1-.2.14.8.8 0 0 1-.3.06.84.84 0 0 1-.24-.03.6.6 0 0 1-.19-.09.43.43 0 0 1-.19-.29zm3.43.82h.71l1-3h-.66l-.67 2.35h-.03l-.67-2.35h-.69l1.01 3zm4.1-2.47a1 1 0 0 1 .11.37h-.58a.62.62 0 0 0-.07-.19.52.52 0 0 0-.13-.14.53.53 0 0 0-.17-.1.72.72 0 0 0-.23-.02.6.6 0 0 0-.5.22 1.01 1.01 0 0 0-.18.64v.37c0 .18.03.33.08.46a.66.66 0 0 0 .22.31.65.65 0 0 0 .4.11.73.73 0 0 0 .34-.07.5.5 0 0 0 .2-.2.56.56 0 0 0 .07-.27v-.2h-.62v-.43h1.18v.6c0 .14-.02.28-.07.4a.97.97 0 0 1-.59.58 1.49 1.49 0 0 1-.52.09 1.5 1.5 0 0 1-.57-.1 1.08 1.08 0 0 1-.63-.72 1.86 1.86 0 0 1-.08-.56v-.38c0-.27.05-.5.15-.7a1.12 1.12 0 0 1 .43-.48c.2-.12.43-.17.7-.17.18 0 .33.02.47.07a.98.98 0 0 1 .6.51z" stroke-width="2.83"/></svg>