<svg xmlns="http://www.w3.org/2000/svg" version="1.1" viewBox="0 0 16 16"><path d="M7.2 2a.8.8 0 0 0-.8.8v10.4c0 .44.35.8.8.8h1.97a.8.8 0 0 0 .8-.8V2.8a.8.8 0 0 0-.8-.8Zm0 .8h1.97V13.2H7.2V3.62Zm-2.18-.23a1.8 1.8 0 0 1-1.25 3.06c-.47 0-.92-.19-1.25-.52a1.8 1.8 0 0 1 1.25-3.06c.47 0 .92.19 1.25.52zm0 4.15a1.8 1.8 0 0 1-1.25 3.05c-.47 0-.92-.18-1.25-.52A1.8 1.8 0 0 1 3.77 6.2c.47 0 .92.18 1.25.52zm.52 5.41c0-.47-.19-.93-.52-1.27A1.76 1.76 0 0 0 2 12.13c0 .47.19.93.52 1.27a1.76 1.76 0 0 0 3.02-1.27zm7.94-9.56a1.8 1.8 0 0 1-1.25 3.06c-.47 0-.92-.19-1.25-.52a1.8 1.8 0 0 1 1.25-3.06c.47 0 .92.19 1.25.52zM14 8c0-.48-.19-.93-.52-1.27a1.76 1.76 0 0 0-3.02 1.27c0 .47.19.92.52 1.26A1.76 1.76 0 0 0 14 7.99Zm-.52 2.87a1.8 1.8 0 0 1-1.25 3.06c-.47 0-.92-.19-1.25-.52a1.8 1.8 0 0 1 1.25-3.06c.47 0 .92.19 1.25.52z"/></svg>