<svg width="16" height="12" viewBox="0 0 16 12" fill="currentColor" xmlns="http://www.w3.org/2000/svg">
<path d="M5.81851 11.3621C5.68621 11.3621 5.56218 11.3419 5.44641 11.3016C5.33065 11.262 5.22315 11.1941 5.12392 11.0982L0.857168 6.97196C0.675252 6.79603 0.588263 6.56797 0.596201 6.28777C0.604801 6.00821 0.700058 5.78047 0.881974 5.60454C1.06389 5.42862 1.29542 5.34066 1.57656 5.34066C1.85771 5.34066 2.08923 5.42862 2.27115 5.60454L5.81851 9.03507L14.228 0.902559C14.4099 0.726634 14.6457 0.638672 14.9355 0.638672C15.2246 0.638672 15.4601 0.726634 15.642 0.902559C15.8239 1.07848 15.9149 1.30623 15.9149 1.58579C15.9149 1.86599 15.8239 2.09405 15.642 2.26997L6.5131 11.0982C6.41387 11.1941 6.30638 11.262 6.19061 11.3016C6.07485 11.3419 5.95082 11.3621 5.81851 11.3621Z" fill="currentColor"/>
</svg>
