<svg width="16" height="16" viewBox="0 0 16 16" fill="none" xmlns="http://www.w3.org/2000/svg">
<path d="M11.1292 9.87919H10.4708L10.2375 9.65419C11.0542 8.70419 11.5458 7.47086 11.5458 6.12919C11.5458 3.13752 9.12083 0.712524 6.12916 0.712524C3.13749 0.712524 0.712494 3.13752 0.712494 6.12919C0.712494 9.12086 3.13749 11.5459 6.12916 11.5459C7.47083 11.5459 8.70416 11.0542 9.65416 10.2375L9.87916 10.4709V11.1292L14.0458 15.2875L15.2875 14.0459L11.1292 9.87919ZM6.12916 9.87919C4.05416 9.87919 2.37916 8.20419 2.37916 6.12919C2.37916 4.05419 4.05416 2.37919 6.12916 2.37919C8.20416 2.37919 9.87916 4.05419 9.87916 6.12919C9.87916 8.20419 8.20416 9.87919 6.12916 9.87919Z" fill="#19737D"/>
</svg>
