<svg width="22" height="20" viewBox="0 0 22 20" fill="currentColor" xmlns="http://www.w3.org/2000/svg">
<path d="M15.0998 10.3001L13.6498 8.8501C13.7998 8.06676 13.5748 7.33343 12.9748 6.6501C12.3748 5.96676 11.5998 5.7001 10.6498 5.8501L9.1998 4.4001C9.48314 4.26676 9.77047 4.16676 10.0618 4.1001C10.3538 4.03343 10.6665 4.0001 10.9998 4.0001C12.2498 4.0001 13.3125 4.43743 14.1878 5.3121C15.0625 6.18743 15.4998 7.2501 15.4998 8.5001C15.4998 8.83343 15.4665 9.1461 15.3998 9.4381C15.3331 9.72943 15.2331 10.0168 15.0998 10.3001ZM18.2998 13.4501L16.8498 12.0501C17.4831 11.5668 18.0458 11.0374 18.5378 10.4621C19.0291 9.88743 19.4498 9.23343 19.7998 8.5001C18.9665 6.81676 17.7705 5.4791 16.2118 4.4871C14.6538 3.49576 12.9165 3.0001 10.9998 3.0001C10.5165 3.0001 10.0415 3.03343 9.5748 3.1001C9.10814 3.16676 8.6498 3.26676 8.1998 3.4001L6.64981 1.8501C7.33314 1.56676 8.03314 1.3541 8.7498 1.2121C9.46647 1.07076 10.2165 1.0001 10.9998 1.0001C13.3831 1.0001 15.5248 1.6291 17.4248 2.8871C19.3248 4.14576 20.7498 5.78343 21.6998 7.8001C21.7498 7.88343 21.7831 7.98743 21.7998 8.1121C21.8165 8.23743 21.8248 8.36676 21.8248 8.5001C21.8248 8.63343 21.8125 8.76243 21.7878 8.8871C21.7625 9.01243 21.7331 9.11677 21.6998 9.2001C21.3165 10.0501 20.8375 10.8334 20.2628 11.5501C19.6875 12.2668 19.0331 12.9001 18.2998 13.4501ZM18.0998 18.9001L14.5998 15.4501C14.0165 15.6334 13.4291 15.7711 12.8378 15.8631C12.2458 15.9544 11.6331 16.0001 10.9998 16.0001C8.61647 16.0001 6.4748 15.3711 4.5748 14.1131C2.6748 12.8544 1.2498 11.2168 0.299805 9.2001C0.249805 9.11677 0.216471 9.01243 0.199805 8.8871C0.183138 8.76243 0.174805 8.63343 0.174805 8.5001C0.174805 8.36676 0.183138 8.24176 0.199805 8.1251C0.216471 8.00843 0.249805 7.90843 0.299805 7.8251C0.649805 7.0751 1.06647 6.38343 1.5498 5.7501C2.03314 5.11676 2.56647 4.53343 3.1498 4.0001L1.0748 1.9001C0.891471 1.71676 0.799805 1.48743 0.799805 1.2121C0.799805 0.937431 0.899805 0.700098 1.0998 0.500098C1.28314 0.316764 1.51647 0.225098 1.7998 0.225098C2.08314 0.225098 2.31647 0.316764 2.4998 0.500098L19.4998 17.5001C19.6831 17.6834 19.7791 17.9128 19.7878 18.1881C19.7958 18.4628 19.6998 18.7001 19.4998 18.9001C19.3165 19.0834 19.0831 19.1751 18.7998 19.1751C18.5165 19.1751 18.2831 19.0834 18.0998 18.9001ZM4.5498 5.4001C4.06647 5.83343 3.6248 6.30843 3.2248 6.8251C2.8248 7.34176 2.48314 7.9001 2.1998 8.5001C3.03314 10.1834 4.22881 11.5208 5.78681 12.5121C7.34547 13.5041 9.08314 14.0001 10.9998 14.0001C11.3331 14.0001 11.6581 13.9794 11.9748 13.9381C12.2915 13.8961 12.6165 13.8501 12.9498 13.8001L12.0498 12.8501C11.8665 12.9001 11.6915 12.9374 11.5248 12.9621C11.3581 12.9874 11.1831 13.0001 10.9998 13.0001C9.7498 13.0001 8.68714 12.5628 7.8118 11.6881C6.93714 10.8128 6.4998 9.7501 6.4998 8.5001C6.4998 8.31676 6.51214 8.14176 6.53681 7.9751C6.56214 7.80843 6.5998 7.63343 6.64981 7.4501L4.5498 5.4001Z" />
</svg>
