<svg width="25" height="24" viewBox="0 0 25 24" fill="none" xmlns="http://www.w3.org/2000/svg">
<path d="M10.0984 6.5V9.5H7.04714V6.5H10.0984ZM11.6241 5H5.5215V11H11.6241V5ZM10.0984 14.5V17.5H7.04714V14.5H10.0984ZM11.6241 13H5.5215V19H11.6241V13ZM18.2352 6.5V9.5H15.1839V6.5H18.2352ZM19.7608 5H13.6583V11H19.7608V5ZM13.6583 13H15.1839V14.5H13.6583V13ZM15.1839 14.5H16.7095V16H15.1839V14.5ZM16.7095 13H18.2352V14.5H16.7095V13ZM13.6583 16H15.1839V17.5H13.6583V16ZM15.1839 17.5H16.7095V19H15.1839V17.5ZM16.7095 16H18.2352V17.5H16.7095V16ZM18.2352 14.5H19.7608V16H18.2352V14.5ZM18.2352 17.5H19.7608V19H18.2352V17.5ZM22.8121 7H20.7779V4H17.7266V2H22.8121V7ZM22.8121 22V17H20.7779V20H17.7266V22H22.8121ZM2.47021 22H7.55569V20H4.5044V17H2.47021V22ZM2.47021 2V7H4.5044V4H7.55569V2H2.47021Z" fill="#3BA0A8"/>
</svg>
