<svg width="18" height="14" viewBox="0 0 18 14" fill="currentColor" xmlns="http://www.w3.org/2000/svg">
<path d="M17.3332 5.33325V1.99992C17.3332 1.08325 16.5832 0.333252 15.6665 0.333252H2.33317C1.4165 0.333252 0.674837 1.08325 0.674837 1.99992V5.33325C1.5915 5.33325 2.33317 6.08325 2.33317 6.99992C2.33317 7.91658 1.5915 8.66658 0.666504 8.66658V11.9999C0.666504 12.9166 1.4165 13.6666 2.33317 13.6666H15.6665C16.5832 13.6666 17.3332 12.9166 17.3332 11.9999V8.66658C16.4165 8.66658 15.6665 7.91658 15.6665 6.99992C15.6665 6.08325 16.4165 5.33325 17.3332 5.33325ZM15.6665 4.11659C14.6748 4.69159 13.9998 5.77492 13.9998 6.99992C13.9998 8.22492 14.6748 9.30825 15.6665 9.88325V11.9999H2.33317V9.88325C3.32484 9.30825 3.99984 8.22492 3.99984 6.99992C3.99984 5.76659 3.33317 4.69159 2.3415 4.11659L2.33317 1.99992H15.6665V4.11659ZM6.55817 10.3333L8.99984 8.76659L11.4415 10.3333L10.6998 7.53325L12.9415 5.69992L10.0498 5.52492L8.99984 2.83325L7.9415 5.51659L5.04984 5.69159L7.2915 7.52492L6.55817 10.3333Z" />
</svg>
