<svg width="240" height="160" viewBox="0 0 240 160" fill="none" xmlns="http://www.w3.org/2000/svg">
<g clip-path="url(#clip0_12235_4005)">
<mask id="mask0_12235_4005" style="mask-type:luminance" maskUnits="userSpaceOnUse" x="0" y="0" width="240" height="160">
<path d="M240 0H0V160H240V0Z" fill="white"/>
</mask>
<g mask="url(#mask0_12235_4005)">
<path d="M240 0H0V160H240V0Z" fill="white"/>
<path d="M153 10H241.788V170.629H153V10Z" fill="white"/>
<path d="M206.004 17H157.996C157.446 17 157 17.446 157 17.9962V22.0038C157 22.554 157.446 23 157.996 23H206.004C206.554 23 207 22.554 207 22.0038V17.9962C207 17.446 206.554 17 206.004 17Z" fill="#E9E9E9"/>
<path d="M241.741 30H153V64.835H241.741V30Z" fill="white"/>
<path d="M160.501 35.5994L159.788 36.2214L160.001 37.1473C160.013 37.1957 160.009 37.2464 159.992 37.293C159.975 37.3396 159.944 37.38 159.904 37.4093C159.864 37.4385 159.816 37.4552 159.766 37.4574C159.716 37.4595 159.667 37.447 159.625 37.4213L158.817 36.9315L158.011 37.4213C157.969 37.447 157.919 37.4595 157.87 37.4574C157.82 37.4552 157.772 37.4385 157.732 37.4093C157.692 37.38 157.661 37.3396 157.644 37.293C157.626 37.2464 157.623 37.1957 157.634 37.1473L157.848 36.2223L157.135 35.5994C157.097 35.5669 157.07 35.524 157.056 35.476C157.043 35.4281 157.044 35.3772 157.059 35.3299C157.075 35.2825 157.104 35.2408 157.143 35.2099C157.182 35.1789 157.229 35.1602 157.279 35.156L158.218 35.0746L158.585 34.1999C158.604 34.154 158.637 34.1148 158.678 34.0872C158.719 34.0596 158.768 34.0449 158.818 34.0449C158.867 34.0449 158.916 34.0596 158.957 34.0872C158.999 34.1148 159.031 34.154 159.05 34.1999L159.418 35.0746L160.357 35.156C160.407 35.1602 160.454 35.1789 160.493 35.2099C160.532 35.2408 160.561 35.2825 160.577 35.3299C160.592 35.3772 160.593 35.4281 160.58 35.476C160.566 35.524 160.539 35.5669 160.501 35.5994Z" fill="#FFA55A"/>
<path d="M158.887 45.5034L157.039 41.2734H157.567L159.121 44.8794L160.669 41.2734H161.185L159.331 45.5034H158.887ZM162.6 45.5574C162.14 45.5574 161.776 45.4234 161.508 45.1554C161.24 44.8834 161.106 44.5154 161.106 44.0514C161.106 43.7514 161.166 43.4874 161.286 43.2594C161.406 43.0274 161.57 42.8494 161.778 42.7254C161.99 42.5974 162.234 42.5334 162.51 42.5334C162.906 42.5334 163.216 42.6614 163.44 42.9174C163.664 43.1694 163.776 43.5174 163.776 43.9614V44.1474H161.58C161.596 44.4794 161.692 44.7334 161.868 44.9094C162.044 45.0814 162.288 45.1674 162.6 45.1674C162.776 45.1674 162.944 45.1414 163.104 45.0894C163.264 45.0334 163.416 44.9434 163.56 44.8194L163.728 45.1614C163.596 45.2854 163.428 45.3834 163.224 45.4554C163.02 45.5234 162.812 45.5574 162.6 45.5574ZM162.522 42.8934C162.246 42.8934 162.028 42.9794 161.868 43.1514C161.708 43.3234 161.614 43.5494 161.586 43.8294H163.356C163.344 43.5334 163.266 43.3034 163.122 43.1394C162.982 42.9754 162.782 42.8934 162.522 42.8934ZM164.48 45.5034V42.5874H164.954V43.0854C165.05 42.9014 165.186 42.7634 165.362 42.6714C165.538 42.5794 165.736 42.5334 165.956 42.5334C166.648 42.5334 166.994 42.9174 166.994 43.6854V45.5034H166.508V43.7154C166.508 43.4434 166.454 43.2454 166.346 43.1214C166.242 42.9934 166.074 42.9294 165.842 42.9294C165.574 42.9294 165.36 43.0134 165.2 43.1814C165.044 43.3454 164.966 43.5654 164.966 43.8414V45.5034H164.48ZM168.922 45.5574C168.222 45.5574 167.872 45.1714 167.872 44.3994V42.5874H168.358V44.3934C168.358 44.6534 168.41 44.8454 168.514 44.9694C168.622 45.0934 168.79 45.1554 169.018 45.1554C169.266 45.1554 169.468 45.0734 169.624 44.9094C169.78 44.7414 169.858 44.5194 169.858 44.2434V42.5874H170.344V45.5034H169.87V45.0114C169.778 45.1874 169.648 45.3234 169.48 45.4194C169.316 45.5114 169.13 45.5574 168.922 45.5574ZM172.567 45.5574C172.107 45.5574 171.743 45.4234 171.475 45.1554C171.207 44.8834 171.073 44.5154 171.073 44.0514C171.073 43.7514 171.133 43.4874 171.253 43.2594C171.373 43.0274 171.537 42.8494 171.745 42.7254C171.957 42.5974 172.201 42.5334 172.477 42.5334C172.873 42.5334 173.183 42.6614 173.407 42.9174C173.631 43.1694 173.743 43.5174 173.743 43.9614V44.1474H171.547C171.563 44.4794 171.659 44.7334 171.835 44.9094C172.011 45.0814 172.255 45.1674 172.567 45.1674C172.743 45.1674 172.911 45.1414 173.071 45.0894C173.231 45.0334 173.383 44.9434 173.527 44.8194L173.695 45.1614C173.563 45.2854 173.395 45.3834 173.191 45.4554C172.987 45.5234 172.779 45.5574 172.567 45.5574ZM172.489 42.8934C172.213 42.8934 171.995 42.9794 171.835 43.1514C171.675 43.3234 171.581 43.5494 171.553 43.8294H173.323C173.311 43.5334 173.233 43.3034 173.089 43.1394C172.949 42.9754 172.749 42.8934 172.489 42.8934ZM176.845 45.5034L175.591 42.5874H176.119L177.085 44.9514L178.063 42.5874H178.561L177.301 45.5034H176.845ZM179.015 41.8614V41.3154H179.615V41.8614H179.015ZM179.075 45.5034V42.5874H179.561V45.5034H179.075ZM181.784 45.5574C181.324 45.5574 180.96 45.4234 180.692 45.1554C180.424 44.8834 180.29 44.5154 180.29 44.0514C180.29 43.7514 180.35 43.4874 180.47 43.2594C180.59 43.0274 180.754 42.8494 180.962 42.7254C181.174 42.5974 181.418 42.5334 181.694 42.5334C182.09 42.5334 182.4 42.6614 182.624 42.9174C182.848 43.1694 182.96 43.5174 182.96 43.9614V44.1474H180.764C180.78 44.4794 180.876 44.7334 181.052 44.9094C181.228 45.0814 181.472 45.1674 181.784 45.1674C181.96 45.1674 182.128 45.1414 182.288 45.0894C182.448 45.0334 182.6 44.9434 182.744 44.8194L182.912 45.1614C182.78 45.2854 182.612 45.3834 182.408 45.4554C182.204 45.5234 181.996 45.5574 181.784 45.5574ZM181.706 42.8934C181.43 42.8934 181.212 42.9794 181.052 43.1514C180.892 43.3234 180.798 43.5494 180.77 43.8294H182.54C182.528 43.5334 182.45 43.3034 182.306 43.1394C182.166 42.9754 181.966 42.8934 181.706 42.8934ZM184.402 45.5034L183.316 42.5874H183.826L184.648 44.9334L185.5 42.5874H185.914L186.754 44.9394L187.588 42.5874H188.074L186.982 45.5034H186.52L185.698 43.2414L184.87 45.5034H184.402Z" fill="#414141"/>
<path d="M158.709 52.5732C158.43 52.5732 158.163 52.5325 157.907 52.4511C157.655 52.3658 157.445 52.2515 157.279 52.108L157.523 51.5382C157.872 51.8095 158.259 51.9452 158.686 51.9452C159.209 51.9452 159.471 51.7398 159.471 51.3288C159.471 51.135 159.405 50.9916 159.273 50.8985C159.145 50.8016 158.957 50.7532 158.709 50.7532H158.052V50.1368H158.639C158.856 50.1368 159.029 50.0844 159.157 49.9798C159.285 49.8712 159.349 49.722 159.349 49.532C159.349 49.3537 159.289 49.218 159.169 49.125C159.052 49.0319 158.882 48.9854 158.657 48.9854C158.254 48.9854 157.899 49.125 157.593 49.4041L157.348 48.8458C157.511 48.6908 157.715 48.5706 157.959 48.4853C158.203 48.4 158.457 48.3574 158.721 48.3574C159.147 48.3574 159.479 48.4543 159.715 48.6481C159.952 48.8381 160.07 49.1036 160.07 49.4448C160.07 49.6658 160.014 49.8596 159.901 50.0263C159.789 50.193 159.636 50.3132 159.442 50.3868C159.678 50.4527 159.862 50.5748 159.994 50.7532C160.126 50.9276 160.192 51.1408 160.192 51.3928C160.192 51.7572 160.06 52.046 159.797 52.2592C159.533 52.4686 159.171 52.5732 158.709 52.5732ZM162.312 52.5732C162.045 52.5732 161.785 52.5325 161.533 52.4511C161.281 52.3658 161.076 52.2515 160.917 52.108L161.161 51.5382C161.514 51.8095 161.894 51.9452 162.301 51.9452C162.545 51.9452 162.735 51.8832 162.87 51.7591C163.01 51.6312 163.08 51.4606 163.08 51.2474C163.08 51.0303 163.014 50.8559 162.882 50.7241C162.75 50.5884 162.57 50.5206 162.341 50.5206C162.016 50.5206 161.746 50.6504 161.533 50.9102H161.033V48.4155H163.551V49.0319H161.76V50.1426C161.965 49.9875 162.217 49.91 162.516 49.91C162.775 49.91 163 49.9662 163.19 50.0786C163.384 50.1872 163.533 50.3403 163.638 50.538C163.747 50.7318 163.801 50.9586 163.801 51.2184C163.801 51.4858 163.741 51.7223 163.621 51.9278C163.5 52.1294 163.328 52.2883 163.103 52.4046C162.882 52.517 162.618 52.5732 162.312 52.5732ZM167.849 52.5732C167.45 52.5732 167.108 52.4531 166.825 52.2127C166.546 51.9724 166.358 51.6254 166.261 51.1718H165.697V50.6601H166.197C166.19 50.5206 166.19 50.3888 166.197 50.2647H165.697V49.753H166.261C166.362 49.3033 166.552 48.9583 166.831 48.7179C167.11 48.4776 167.45 48.3574 167.849 48.3574C168.074 48.3574 168.287 48.3981 168.488 48.4795C168.69 48.5609 168.857 48.6811 168.989 48.84L168.744 49.3576C168.62 49.2219 168.488 49.1269 168.349 49.0726C168.209 49.0184 168.06 48.9912 167.901 48.9912C167.692 48.9912 167.51 49.0533 167.355 49.1773C167.203 49.2975 167.093 49.4894 167.023 49.753H167.895V50.2647H166.936C166.932 50.3965 166.934 50.5283 166.942 50.6601H167.895V51.1718H167.023C167.093 51.4393 167.203 51.6351 167.355 51.7591C167.51 51.8793 167.692 51.9394 167.901 51.9394C168.06 51.9394 168.209 51.9123 168.349 51.858C168.488 51.7998 168.62 51.7049 168.744 51.5731L168.989 52.0848C168.857 52.2476 168.69 52.3697 168.488 52.4511C168.287 52.5325 168.074 52.5732 167.849 52.5732Z" fill="#414141"/>
<path d="M157.293 59.5363L157.353 59.1611H157.916L158.167 57.586L157.714 57.8338L157.572 57.4869L158.383 57.0409H158.705L158.369 59.1611H158.896L158.836 59.5363H157.293ZM160.187 59.5717C159.92 59.5717 159.716 59.4915 159.574 59.331C159.435 59.1682 159.366 58.9346 159.366 58.6302C159.366 58.2951 159.407 58.0072 159.49 57.7665C159.574 57.5235 159.694 57.3359 159.847 57.2037C160.003 57.0716 160.186 57.0055 160.396 57.0055C160.662 57.0055 160.865 57.0857 161.004 57.2462C161.146 57.4067 161.217 57.6379 161.217 57.94C161.217 58.275 161.174 58.5653 161.089 58.8107C161.007 59.0537 160.888 59.2413 160.732 59.3735C160.579 59.5056 160.397 59.5717 160.187 59.5717ZM160.208 59.2C160.376 59.2 160.511 59.0891 160.615 58.8673C160.721 58.6455 160.776 58.314 160.778 57.8727C160.78 57.5423 160.646 57.3772 160.374 57.3772C160.209 57.3772 160.072 57.4881 159.964 57.7099C159.858 57.9317 159.805 58.2621 159.805 58.701C159.805 59.0337 159.939 59.2 160.208 59.2ZM162.309 59.5717C162.043 59.5717 161.838 59.4915 161.697 59.331C161.558 59.1682 161.488 58.9346 161.488 58.6302C161.488 58.2951 161.529 58.0072 161.612 57.7665C161.697 57.5235 161.816 57.3359 161.969 57.2037C162.125 57.0716 162.308 57.0055 162.518 57.0055C162.785 57.0055 162.988 57.0857 163.127 57.2462C163.268 57.4067 163.339 57.6379 163.339 57.94C163.339 58.275 163.297 58.5653 163.212 58.8107C163.129 59.0537 163.01 59.2413 162.854 59.3735C162.701 59.5056 162.519 59.5717 162.309 59.5717ZM162.33 59.2C162.498 59.2 162.634 59.0891 162.737 58.8673C162.844 58.6455 162.898 58.314 162.9 57.8727C162.903 57.5423 162.768 57.3772 162.497 57.3772C162.332 57.3772 162.195 57.4881 162.086 57.7099C161.98 57.9317 161.927 58.2621 161.927 58.701C161.927 59.0337 162.061 59.2 162.33 59.2ZM165.279 59.5717C165.048 59.5717 164.881 59.5092 164.777 59.3841C164.673 59.2567 164.636 59.0927 164.667 58.8921L164.787 58.1382H164.455L164.508 57.8055H164.84L164.922 57.2887H165.364L165.283 57.8055H165.807L165.754 58.1382H165.23L165.113 58.8638C165.094 58.9865 165.108 59.075 165.155 59.1292C165.205 59.1812 165.281 59.2071 165.382 59.2071C165.417 59.2071 165.452 59.2036 165.485 59.1965C165.518 59.1894 165.55 59.1812 165.58 59.1717L165.605 59.5044C165.567 59.5257 165.518 59.5422 165.456 59.554C165.395 59.5658 165.336 59.5717 165.279 59.5717ZM166.128 57.4338L166.199 57.002H166.691L166.62 57.4338H166.128ZM165.817 59.5363L166.093 57.8055H166.535L166.259 59.5363H165.817ZM167.582 59.5717C167.306 59.5717 167.1 59.4997 166.963 59.3558C166.826 59.2095 166.758 59.0183 166.758 58.7824C166.758 58.6549 166.777 58.5311 166.814 58.4107C166.854 58.288 166.915 58.1795 166.995 58.0851C167.075 57.9883 167.177 57.9116 167.299 57.855C167.424 57.7984 167.571 57.7701 167.738 57.7701C167.854 57.7701 167.965 57.7878 168.071 57.8231C168.177 57.8562 168.263 57.9022 168.329 57.9612L168.191 58.2691C168.08 58.1653 167.939 58.1134 167.766 58.1134C167.632 58.1134 167.523 58.1464 167.441 58.2125C167.361 58.2786 167.302 58.3623 167.264 58.4638C167.228 58.5653 167.211 58.6703 167.211 58.7788C167.211 58.9133 167.244 59.0219 167.31 59.1045C167.378 59.1871 167.49 59.2283 167.646 59.2283C167.712 59.2283 167.782 59.2154 167.855 59.1894C167.93 59.1635 167.999 59.1245 168.06 59.0726L168.163 59.3876C168.097 59.4466 168.008 59.4926 167.897 59.5257C167.789 59.5563 167.684 59.5717 167.582 59.5717ZM168.392 59.5363L168.785 57.0409H169.227L168.99 58.5417H168.997L169.801 57.8055H170.328L169.425 58.6549L170.123 59.5363H169.609L168.965 58.747H168.958L168.834 59.5363H168.392ZM171.15 59.5717C170.976 59.5717 170.824 59.5398 170.694 59.4761C170.566 59.41 170.467 59.318 170.397 59.2C170.326 59.082 170.29 58.944 170.29 58.7859C170.29 58.5924 170.33 58.4202 170.411 58.2691C170.493 58.1158 170.607 57.9942 170.75 57.9046C170.894 57.8149 171.06 57.7701 171.246 57.7701C171.435 57.7701 171.585 57.8125 171.696 57.8975C171.806 57.9801 171.882 58.091 171.922 58.2302C171.965 58.3671 171.976 58.5169 171.957 58.6797L171.947 58.7717H170.704C170.7 58.9157 170.74 59.029 170.825 59.1115C170.91 59.1941 171.031 59.2354 171.189 59.2354C171.293 59.2354 171.391 59.2213 171.483 59.193C171.578 59.1623 171.661 59.1174 171.734 59.0584L171.844 59.3487C171.762 59.4195 171.658 59.4749 171.533 59.5151C171.41 59.5528 171.283 59.5717 171.15 59.5717ZM171.242 58.0709C171.143 58.0709 171.06 58.0922 170.991 58.1346C170.923 58.1747 170.868 58.229 170.828 58.2974C170.788 58.3659 170.759 58.439 170.74 58.5169H171.618C171.627 58.3895 171.602 58.2833 171.543 58.1983C171.484 58.1134 171.384 58.0709 171.242 58.0709ZM172.988 59.5717C172.756 59.5717 172.589 59.5092 172.485 59.3841C172.381 59.2567 172.345 59.0927 172.375 58.8921L172.496 58.1382H172.163L172.216 57.8055H172.549L172.63 57.2887H173.072L172.991 57.8055H173.515L173.462 58.1382H172.938L172.821 58.8638C172.802 58.9865 172.816 59.075 172.864 59.1292C172.913 59.1812 172.989 59.2071 173.09 59.2071C173.126 59.2071 173.16 59.2036 173.193 59.1965C173.226 59.1894 173.258 59.1812 173.288 59.1717L173.313 59.5044C173.275 59.5257 173.226 59.5422 173.165 59.554C173.103 59.5658 173.044 59.5717 172.988 59.5717ZM174.233 59.5717C174.086 59.5717 173.948 59.554 173.819 59.5186C173.691 59.4808 173.584 59.4289 173.496 59.3628L173.635 59.0761C173.719 59.1351 173.814 59.1812 173.918 59.2142C174.024 59.2449 174.129 59.2602 174.233 59.2602C174.344 59.2602 174.429 59.2401 174.488 59.2C174.547 59.1576 174.576 59.1021 174.576 59.0337C174.576 58.9416 174.512 58.8815 174.385 58.8532L174.059 58.7859C173.929 58.7599 173.828 58.7092 173.755 58.6337C173.682 58.5558 173.645 58.4591 173.645 58.3435C173.645 58.2373 173.675 58.1417 173.734 58.0568C173.795 57.9695 173.883 57.8998 173.999 57.8479C174.117 57.796 174.259 57.7701 174.424 57.7701C174.537 57.7701 174.65 57.7878 174.764 57.8231C174.879 57.8562 174.976 57.9057 175.054 57.9718L174.923 58.255C174.85 58.196 174.768 58.1523 174.679 58.124C174.589 58.0957 174.497 58.0815 174.403 58.0815C174.287 58.0815 174.198 58.104 174.137 58.1488C174.076 58.1913 174.045 58.2479 174.045 58.3187C174.045 58.3612 174.058 58.3977 174.084 58.4284C174.112 58.4591 174.156 58.4803 174.215 58.4921L174.541 58.5594C174.831 58.6207 174.976 58.7682 174.976 59.0018C174.976 59.1835 174.908 59.3239 174.771 59.423C174.636 59.5221 174.457 59.5717 174.233 59.5717ZM176.798 59.5717C176.692 59.5717 176.595 59.5481 176.508 59.5009C176.421 59.4513 176.35 59.3864 176.296 59.3062C176.244 59.226 176.218 59.1363 176.218 59.0372C176.218 58.8555 176.296 58.7222 176.451 58.6372C176.609 58.5523 176.856 58.5098 177.191 58.5098H177.435L177.446 58.4461C177.465 58.3352 177.447 58.2503 177.393 58.1913C177.341 58.1323 177.249 58.1028 177.117 58.1028C176.907 58.1028 176.709 58.1618 176.522 58.2798L176.423 57.9753C176.513 57.914 176.626 57.8644 176.763 57.8267C176.9 57.7889 177.037 57.7701 177.173 57.7701C177.36 57.7701 177.506 57.8043 177.612 57.8727C177.718 57.9411 177.79 58.0343 177.828 58.1523C177.866 58.2703 177.873 58.4048 177.849 58.5558L177.694 59.5363H177.28L177.319 59.2814C177.26 59.3805 177.184 59.4537 177.092 59.5009C177 59.5481 176.902 59.5717 176.798 59.5717ZM176.936 59.2673C177.047 59.2673 177.144 59.2319 177.226 59.1611C177.309 59.0879 177.36 58.99 177.379 58.8673L177.396 58.7647H177.212C177.005 58.7647 176.858 58.7824 176.773 58.8178C176.691 58.8508 176.65 58.9145 176.65 59.0089C176.65 59.0915 176.677 59.1552 176.731 59.2C176.788 59.2449 176.856 59.2673 176.936 59.2673ZM178.635 59.5363L178.161 57.8055H178.61L178.901 59.016L179.591 57.8055H180.051L179.021 59.5363H178.635ZM180.549 59.5717C180.442 59.5717 180.346 59.5481 180.258 59.5009C180.171 59.4513 180.1 59.3864 180.046 59.3062C179.994 59.226 179.968 59.1363 179.968 59.0372C179.968 58.8555 180.046 58.7222 180.202 58.6372C180.36 58.5523 180.606 58.5098 180.941 58.5098H181.186L181.196 58.4461C181.215 58.3352 181.198 58.2503 181.143 58.1913C181.091 58.1323 180.999 58.1028 180.867 58.1028C180.657 58.1028 180.459 58.1618 180.273 58.2798L180.173 57.9753C180.263 57.914 180.376 57.8644 180.513 57.8267C180.65 57.7889 180.787 57.7701 180.924 57.7701C181.11 57.7701 181.257 57.8043 181.363 57.8727C181.469 57.9411 181.541 58.0343 181.579 58.1523C181.616 58.2703 181.623 58.4048 181.6 58.5558L181.444 59.5363H181.03L181.069 59.2814C181.01 59.3805 180.934 59.4537 180.842 59.5009C180.75 59.5481 180.652 59.5717 180.549 59.5717ZM180.687 59.2673C180.798 59.2673 180.894 59.2319 180.977 59.1611C181.059 59.0879 181.11 58.99 181.129 58.8673L181.147 58.7647H180.963C180.755 58.7647 180.609 58.7824 180.524 58.8178C180.441 58.8508 180.4 58.9145 180.4 59.0089C180.4 59.0915 180.427 59.1552 180.481 59.2C180.538 59.2449 180.606 59.2673 180.687 59.2673ZM182.205 57.4338L182.275 57.002H182.767L182.697 57.4338H182.205ZM181.893 59.5363L182.169 57.8055H182.612L182.336 59.5363H181.893ZM183.408 59.5717C183.207 59.5717 183.063 59.5162 182.976 59.4053C182.889 59.2921 182.861 59.1281 182.894 58.9133L183.192 57.0409H183.634L183.337 58.9098C183.32 59.0136 183.33 59.0903 183.365 59.1399C183.403 59.1871 183.467 59.2106 183.556 59.2106C183.582 59.2106 183.608 59.2095 183.634 59.2071C183.66 59.2024 183.686 59.1989 183.712 59.1965L183.652 59.5398C183.581 59.5611 183.5 59.5717 183.408 59.5717ZM184.517 59.5717C184.411 59.5717 184.314 59.5481 184.227 59.5009C184.139 59.4513 184.068 59.3864 184.014 59.3062C183.962 59.226 183.936 59.1363 183.936 59.0372C183.936 58.8555 184.014 58.7222 184.17 58.6372C184.328 58.5523 184.575 58.5098 184.91 58.5098H185.154L185.164 58.4461C185.183 58.3352 185.166 58.2503 185.111 58.1913C185.059 58.1323 184.967 58.1028 184.835 58.1028C184.625 58.1028 184.427 58.1618 184.241 58.2798L184.142 57.9753C184.231 57.914 184.344 57.8644 184.481 57.8267C184.618 57.7889 184.755 57.7701 184.892 57.7701C185.078 57.7701 185.225 57.8043 185.331 57.8727C185.437 57.9411 185.509 58.0343 185.547 58.1523C185.585 58.2703 185.592 58.4048 185.568 58.5558L185.412 59.5363H184.998L185.037 59.2814C184.978 59.3805 184.903 59.4537 184.811 59.5009C184.719 59.5481 184.621 59.5717 184.517 59.5717ZM184.655 59.2673C184.766 59.2673 184.862 59.2319 184.945 59.1611C185.028 59.0879 185.078 58.99 185.097 58.8673L185.115 58.7647H184.931C184.723 58.7647 184.577 58.7824 184.492 58.8178C184.409 58.8508 184.368 58.9145 184.368 59.0089C184.368 59.0915 184.395 59.1552 184.449 59.2C184.506 59.2449 184.575 59.2673 184.655 59.2673ZM186.895 59.5717C186.767 59.5717 186.654 59.5434 186.555 59.4867C186.458 59.4277 186.386 59.3416 186.339 59.2283L186.293 59.5363H185.861L186.258 57.0409H186.7L186.537 58.0568C186.603 57.9671 186.685 57.8975 186.782 57.8479C186.881 57.796 186.99 57.7701 187.111 57.7701C187.309 57.7701 187.467 57.8373 187.585 57.9718C187.705 58.104 187.766 58.2856 187.766 58.5169C187.766 58.7128 187.73 58.8909 187.659 59.0514C187.591 59.2095 187.492 59.3357 187.362 59.4301C187.232 59.5245 187.077 59.5717 186.895 59.5717ZM186.813 59.2354C186.922 59.2354 187.013 59.2048 187.086 59.1434C187.162 59.082 187.219 58.9983 187.259 58.8921C187.3 58.7859 187.32 58.6679 187.32 58.5381C187.32 58.3989 187.285 58.2927 187.217 58.2196C187.151 58.1441 187.059 58.1063 186.941 58.1063C186.835 58.1063 186.744 58.137 186.668 58.1983C186.593 58.2597 186.535 58.3435 186.495 58.4496C186.455 58.5535 186.435 58.6715 186.435 58.8036C186.435 58.9428 186.468 59.0502 186.534 59.1257C186.602 59.1989 186.695 59.2354 186.813 59.2354ZM188.596 59.5717C188.395 59.5717 188.251 59.5162 188.164 59.4053C188.077 59.2921 188.05 59.1281 188.083 58.9133L188.38 57.0409H188.823L188.525 58.9098C188.509 59.0136 188.518 59.0903 188.554 59.1399C188.591 59.1871 188.655 59.2106 188.745 59.2106C188.771 59.2106 188.797 59.2095 188.823 59.2071C188.849 59.2024 188.874 59.1989 188.9 59.1965L188.84 59.5398C188.769 59.5611 188.688 59.5717 188.596 59.5717ZM189.996 59.5717C189.821 59.5717 189.669 59.5398 189.539 59.4761C189.412 59.41 189.313 59.318 189.242 59.2C189.171 59.082 189.136 58.944 189.136 58.7859C189.136 58.5924 189.176 58.4202 189.256 58.2691C189.339 58.1158 189.452 57.9942 189.596 57.9046C189.74 57.8149 189.905 57.7701 190.091 57.7701C190.28 57.7701 190.43 57.8125 190.541 57.8975C190.652 57.9801 190.727 58.091 190.767 58.2302C190.81 58.3671 190.822 58.5169 190.803 58.6797L190.792 58.7717H189.55C189.545 58.9157 189.585 59.029 189.67 59.1115C189.755 59.1941 189.877 59.2354 190.035 59.2354C190.138 59.2354 190.236 59.2213 190.328 59.193C190.423 59.1623 190.507 59.1174 190.58 59.0584L190.689 59.3487C190.607 59.4195 190.503 59.4749 190.378 59.5151C190.255 59.5528 190.128 59.5717 189.996 59.5717ZM190.088 58.0709C189.989 58.0709 189.905 58.0922 189.836 58.1346C189.768 58.1747 189.714 58.229 189.674 58.2974C189.634 58.3659 189.604 58.439 189.585 58.5169H190.463C190.472 58.3895 190.448 58.2833 190.389 58.1983C190.33 58.1134 190.229 58.0709 190.088 58.0709Z" fill="#36AAC8"/>
<path d="M241.741 67.1621H153V94.5392H241.741V67.1621Z" fill="white"/>
<path d="M196.848 75.2066L195 70.9766H195.528L197.082 74.5826L198.63 70.9766H199.146L197.292 75.2066H196.848ZM200.561 75.2606C200.101 75.2606 199.737 75.1266 199.469 74.8586C199.201 74.5866 199.067 74.2186 199.067 73.7546C199.067 73.4546 199.127 73.1906 199.247 72.9626C199.367 72.7306 199.531 72.5526 199.739 72.4286C199.951 72.3006 200.195 72.2366 200.471 72.2366C200.867 72.2366 201.177 72.3646 201.401 72.6206C201.625 72.8726 201.737 73.2206 201.737 73.6646V73.8506H199.541C199.557 74.1826 199.653 74.4366 199.829 74.6126C200.005 74.7846 200.249 74.8706 200.561 74.8706C200.737 74.8706 200.905 74.8446 201.065 74.7926C201.225 74.7366 201.377 74.6466 201.521 74.5226L201.689 74.8646C201.557 74.9886 201.389 75.0866 201.185 75.1586C200.981 75.2266 200.773 75.2606 200.561 75.2606ZM200.483 72.5966C200.207 72.5966 199.989 72.6826 199.829 72.8546C199.669 73.0266 199.575 73.2526 199.547 73.5326H201.317C201.305 73.2366 201.227 73.0066 201.083 72.8426C200.943 72.6786 200.743 72.5966 200.483 72.5966ZM202.441 75.2066V72.2906H202.915V72.7886C203.011 72.6046 203.147 72.4666 203.323 72.3746C203.499 72.2826 203.697 72.2366 203.917 72.2366C204.609 72.2366 204.955 72.6206 204.955 73.3886V75.2066H204.469V73.4186C204.469 73.1466 204.415 72.9486 204.307 72.8246C204.203 72.6966 204.035 72.6326 203.803 72.6326C203.535 72.6326 203.321 72.7166 203.161 72.8846C203.005 73.0486 202.927 73.2686 202.927 73.5446V75.2066H202.441ZM206.883 75.2606C206.183 75.2606 205.833 74.8746 205.833 74.1026V72.2906H206.319V74.0966C206.319 74.3566 206.371 74.5486 206.475 74.6726C206.583 74.7966 206.751 74.8586 206.979 74.8586C207.227 74.8586 207.429 74.7766 207.585 74.6126C207.741 74.4446 207.819 74.2226 207.819 73.9466V72.2906H208.305V75.2066H207.831V74.7146C207.739 74.8906 207.609 75.0266 207.441 75.1226C207.277 75.2146 207.091 75.2606 206.883 75.2606ZM210.528 75.2606C210.068 75.2606 209.704 75.1266 209.436 74.8586C209.168 74.5866 209.034 74.2186 209.034 73.7546C209.034 73.4546 209.094 73.1906 209.214 72.9626C209.334 72.7306 209.498 72.5526 209.706 72.4286C209.918 72.3006 210.162 72.2366 210.438 72.2366C210.834 72.2366 211.144 72.3646 211.368 72.6206C211.592 72.8726 211.704 73.2206 211.704 73.6646V73.8506H209.508C209.524 74.1826 209.62 74.4366 209.796 74.6126C209.972 74.7846 210.216 74.8706 210.528 74.8706C210.704 74.8706 210.872 74.8446 211.032 74.7926C211.192 74.7366 211.344 74.6466 211.488 74.5226L211.656 74.8646C211.524 74.9886 211.356 75.0866 211.152 75.1586C210.948 75.2266 210.74 75.2606 210.528 75.2606ZM210.45 72.5966C210.174 72.5966 209.956 72.6826 209.796 72.8546C209.636 73.0266 209.542 73.2526 209.514 73.5326H211.284C211.272 73.2366 211.194 73.0066 211.05 72.8426C210.91 72.6786 210.71 72.5966 210.45 72.5966ZM214.806 75.2066L213.552 72.2906H214.08L215.046 74.6546L216.024 72.2906H216.522L215.262 75.2066H214.806ZM216.976 71.5646V71.0186H217.576V71.5646H216.976ZM217.036 75.2066V72.2906H217.522V75.2066H217.036ZM219.745 75.2606C219.285 75.2606 218.921 75.1266 218.653 74.8586C218.385 74.5866 218.251 74.2186 218.251 73.7546C218.251 73.4546 218.311 73.1906 218.431 72.9626C218.551 72.7306 218.715 72.5526 218.923 72.4286C219.135 72.3006 219.379 72.2366 219.655 72.2366C220.051 72.2366 220.361 72.3646 220.585 72.6206C220.809 72.8726 220.921 73.2206 220.921 73.6646V73.8506H218.725C218.741 74.1826 218.837 74.4366 219.013 74.6126C219.189 74.7846 219.433 74.8706 219.745 74.8706C219.921 74.8706 220.089 74.8446 220.249 74.7926C220.409 74.7366 220.561 74.6466 220.705 74.5226L220.873 74.8646C220.741 74.9886 220.573 75.0866 220.369 75.1586C220.165 75.2266 219.957 75.2606 219.745 75.2606ZM219.667 72.5966C219.391 72.5966 219.173 72.6826 219.013 72.8546C218.853 73.0266 218.759 73.2526 218.731 73.5326H220.501C220.489 73.2366 220.411 73.0066 220.267 72.8426C220.127 72.6786 219.927 72.5966 219.667 72.5966ZM222.363 75.2066L221.277 72.2906H221.787L222.609 74.6366L223.461 72.2906H223.875L224.715 74.6426L225.549 72.2906H226.035L224.943 75.2066H224.481L223.659 72.9446L222.831 75.2066H222.363Z" fill="#414141"/>
<path d="M197.036 82.2182V81.439H195.25V80.8924L197.163 78.1186H197.78V80.8226H198.356V81.439H197.78V82.2182H197.036ZM197.036 80.8226V79.2584L195.966 80.8226H197.036ZM200.237 82.2763C199.753 82.2763 199.383 82.0941 199.127 81.7297C198.871 81.3614 198.743 80.8381 198.743 80.1597C198.743 79.4735 198.871 78.9521 199.127 78.5955C199.383 78.2388 199.753 78.0605 200.237 78.0605C200.726 78.0605 201.096 78.2388 201.348 78.5955C201.604 78.9521 201.732 79.4716 201.732 80.1539C201.732 80.8362 201.604 81.3614 201.348 81.7297C201.092 82.0941 200.722 82.2763 200.237 82.2763ZM200.237 81.6658C200.501 81.6658 200.695 81.5456 200.819 81.3052C200.947 81.061 201.011 80.6772 201.011 80.1539C201.011 79.6344 200.947 79.2584 200.819 79.0258C200.695 78.7893 200.501 78.6711 200.237 78.6711C199.978 78.6711 199.784 78.7893 199.656 79.0258C199.528 79.2584 199.464 79.6344 199.464 80.1539C199.464 80.6772 199.528 81.061 199.656 81.3052C199.784 81.5456 199.978 81.6658 200.237 81.6658ZM205.809 82.2763C205.41 82.2763 205.068 82.1562 204.785 81.9158C204.506 81.6754 204.318 81.3285 204.221 80.8749H203.657V80.3632H204.157C204.15 80.2236 204.15 80.0918 204.157 79.9678H203.657V79.4561H204.221C204.322 79.0064 204.512 78.6614 204.791 78.421C205.07 78.1807 205.41 78.0605 205.809 78.0605C206.034 78.0605 206.247 78.1012 206.449 78.1826C206.65 78.264 206.817 78.3842 206.949 78.5431L206.704 79.0607C206.58 78.925 206.449 78.83 206.309 78.7757C206.169 78.7215 206.02 78.6943 205.861 78.6943C205.652 78.6943 205.47 78.7563 205.315 78.8804C205.163 79.0006 205.053 79.1925 204.983 79.4561H205.855V79.9678H204.896C204.892 80.0996 204.894 80.2314 204.902 80.3632H205.855V80.8749H204.983C205.053 81.1424 205.163 81.3382 205.315 81.4622C205.47 81.5824 205.652 81.6425 205.861 81.6425C206.02 81.6425 206.169 81.6154 206.309 81.5611C206.449 81.5029 206.58 81.408 206.704 81.2762L206.949 81.7879C206.817 81.9507 206.65 82.0728 206.449 82.1542C206.247 82.2356 206.034 82.2763 205.809 82.2763Z" fill="#414141"/>
<path d="M195.254 89.2413L195.314 88.8661H195.877L196.128 87.291L195.675 87.5388L195.534 87.1919L196.344 86.7459H196.666L196.33 88.8661H196.857L196.797 89.2413H195.254ZM198.148 89.2767C197.881 89.2767 197.677 89.1964 197.536 89.036C197.396 88.8732 197.327 88.6395 197.327 88.3351C197.327 88.0001 197.368 87.7122 197.451 87.4715C197.536 87.2285 197.655 87.0409 197.808 86.9087C197.964 86.7766 198.147 86.7105 198.357 86.7105C198.623 86.7105 198.826 86.7907 198.965 86.9512C199.107 87.1116 199.178 87.3429 199.178 87.6449C199.178 87.98 199.135 88.2703 199.05 88.5157C198.968 88.7587 198.849 88.9463 198.693 89.0785C198.54 89.2106 198.358 89.2767 198.148 89.2767ZM198.169 88.905C198.337 88.905 198.472 88.7941 198.576 88.5723C198.682 88.3505 198.737 88.0189 198.739 87.5777C198.741 87.2473 198.607 87.0822 198.335 87.0822C198.17 87.0822 198.033 87.1931 197.925 87.4149C197.819 87.6367 197.766 87.967 197.766 88.4059C197.766 88.7387 197.9 88.905 198.169 88.905ZM200.27 89.2767C200.004 89.2767 199.799 89.1964 199.658 89.036C199.519 88.8732 199.449 88.6395 199.449 88.3351C199.449 88.0001 199.49 87.7122 199.573 87.4715C199.658 87.2285 199.777 87.0409 199.93 86.9087C200.086 86.7766 200.269 86.7105 200.479 86.7105C200.746 86.7105 200.949 86.7907 201.088 86.9512C201.229 87.1116 201.3 87.3429 201.3 87.6449C201.3 87.98 201.258 88.2703 201.173 88.5157C201.09 88.7587 200.971 88.9463 200.815 89.0785C200.662 89.2106 200.48 89.2767 200.27 89.2767ZM200.291 88.905C200.459 88.905 200.595 88.7941 200.698 88.5723C200.805 88.3505 200.859 88.0189 200.861 87.5777C200.864 87.2473 200.729 87.0822 200.458 87.0822C200.293 87.0822 200.156 87.1931 200.047 87.4149C199.941 87.6367 199.888 87.967 199.888 88.4059C199.888 88.7387 200.022 88.905 200.291 88.905ZM203.24 89.2767C203.009 89.2767 202.842 89.2141 202.738 89.0891C202.634 88.9616 202.597 88.7976 202.628 88.5971L202.748 87.8432H202.416L202.469 87.5104H202.801L202.883 86.9937H203.325L203.244 87.5104H203.768L203.715 87.8432H203.191L203.074 88.5688C203.055 88.6915 203.069 88.7799 203.116 88.8342C203.166 88.8861 203.242 88.9121 203.343 88.9121C203.378 88.9121 203.413 88.9086 203.446 88.9015C203.479 88.8944 203.511 88.8861 203.541 88.8767L203.566 89.2094C203.528 89.2307 203.479 89.2472 203.417 89.259C203.356 89.2708 203.297 89.2767 203.24 89.2767ZM204.089 87.1388L204.16 86.707H204.652L204.581 87.1388H204.089ZM203.778 89.2413L204.054 87.5104H204.496L204.22 89.2413H203.778ZM205.543 89.2767C205.267 89.2767 205.061 89.2047 204.924 89.0608C204.787 88.9145 204.719 88.7233 204.719 88.4873C204.719 88.3599 204.738 88.236 204.775 88.1157C204.815 87.993 204.876 87.8844 204.956 87.7901C205.036 87.6933 205.138 87.6166 205.26 87.56C205.385 87.5034 205.532 87.475 205.699 87.475C205.815 87.475 205.926 87.4927 206.032 87.5281C206.138 87.5612 206.224 87.6072 206.29 87.6662L206.152 87.9741C206.041 87.8703 205.9 87.8184 205.727 87.8184C205.593 87.8184 205.484 87.8514 205.402 87.9175C205.322 87.9836 205.263 88.0673 205.225 88.1688C205.189 88.2703 205.172 88.3753 205.172 88.4838C205.172 88.6183 205.205 88.7269 205.271 88.8094C205.339 88.892 205.451 88.9333 205.607 88.9333C205.673 88.9333 205.743 88.9204 205.816 88.8944C205.891 88.8684 205.96 88.8295 206.021 88.7776L206.124 89.0926C206.058 89.1516 205.969 89.1976 205.858 89.2307C205.75 89.2613 205.645 89.2767 205.543 89.2767ZM206.353 89.2413L206.746 86.7459H207.188L206.951 88.2467H206.958L207.762 87.5104H208.289L207.386 88.3599L208.084 89.2413H207.57L206.926 88.452H206.919L206.795 89.2413H206.353ZM209.111 89.2767C208.937 89.2767 208.785 89.2448 208.655 89.1811C208.527 89.115 208.428 89.023 208.358 88.905C208.287 88.787 208.251 88.649 208.251 88.4909C208.251 88.2974 208.291 88.1251 208.372 87.9741C208.454 87.8207 208.568 87.6992 208.711 87.6095C208.855 87.5199 209.021 87.475 209.207 87.475C209.396 87.475 209.546 87.5175 209.657 87.6025C209.767 87.6851 209.843 87.796 209.883 87.9352C209.926 88.072 209.937 88.2219 209.918 88.3847L209.908 88.4767H208.665C208.661 88.6207 208.701 88.7339 208.786 88.8165C208.871 88.8991 208.992 88.9404 209.15 88.9404C209.254 88.9404 209.352 88.9263 209.444 88.8979C209.539 88.8673 209.622 88.8224 209.695 88.7634L209.805 89.0537C209.723 89.1245 209.619 89.1799 209.494 89.22C209.371 89.2578 209.244 89.2767 209.111 89.2767ZM209.203 87.7759C209.104 87.7759 209.021 87.7971 208.952 87.8396C208.884 87.8797 208.829 87.934 208.789 88.0024C208.749 88.0709 208.72 88.144 208.701 88.2219H209.579C209.588 88.0945 209.563 87.9883 209.504 87.9033C209.445 87.8184 209.345 87.7759 209.203 87.7759ZM210.949 89.2767C210.717 89.2767 210.55 89.2141 210.446 89.0891C210.342 88.9616 210.306 88.7976 210.336 88.5971L210.457 87.8432H210.124L210.177 87.5104H210.51L210.591 86.9937H211.033L210.952 87.5104H211.476L211.423 87.8432H210.899L210.782 88.5688C210.763 88.6915 210.777 88.7799 210.825 88.8342C210.874 88.8861 210.95 88.9121 211.051 88.9121C211.087 88.9121 211.121 88.9086 211.154 88.9015C211.187 88.8944 211.219 88.8861 211.249 88.8767L211.274 89.2094C211.236 89.2307 211.187 89.2472 211.126 89.259C211.064 89.2708 211.005 89.2767 210.949 89.2767ZM212.194 89.2767C212.047 89.2767 211.909 89.259 211.78 89.2236C211.652 89.1858 211.545 89.1339 211.457 89.0678L211.596 88.7811C211.68 88.8401 211.775 88.8861 211.879 88.9192C211.985 88.9498 212.09 88.9652 212.194 88.9652C212.305 88.9652 212.39 88.9451 212.449 88.905C212.508 88.8625 212.537 88.8071 212.537 88.7387C212.537 88.6466 212.473 88.5865 212.346 88.5581L212.02 88.4909C211.89 88.4649 211.789 88.4142 211.716 88.3387C211.643 88.2608 211.606 88.1641 211.606 88.0484C211.606 87.9423 211.636 87.8467 211.695 87.7617C211.756 87.6744 211.844 87.6048 211.96 87.5529C212.078 87.501 212.22 87.475 212.385 87.475C212.498 87.475 212.611 87.4927 212.725 87.5281C212.84 87.5612 212.937 87.6107 213.015 87.6768L212.884 87.96C212.811 87.901 212.729 87.8573 212.64 87.829C212.55 87.8007 212.458 87.7865 212.364 87.7865C212.248 87.7865 212.159 87.8089 212.098 87.8538C212.037 87.8962 212.006 87.9529 212.006 88.0237C212.006 88.0661 212.019 88.1027 212.045 88.1334C212.073 88.1641 212.117 88.1853 212.176 88.1971L212.502 88.2644C212.792 88.3257 212.937 88.4732 212.937 88.7068C212.937 88.8885 212.869 89.0289 212.732 89.128C212.597 89.2271 212.418 89.2767 212.194 89.2767ZM214.759 89.2767C214.653 89.2767 214.556 89.2531 214.469 89.2059C214.382 89.1563 214.311 89.0914 214.257 89.0112C214.205 88.931 214.179 88.8413 214.179 88.7422C214.179 88.5605 214.257 88.4272 214.412 88.3422C214.57 88.2573 214.817 88.2148 215.152 88.2148H215.396L215.407 88.1511C215.426 88.0402 215.408 87.9552 215.354 87.8962C215.302 87.8373 215.21 87.8078 215.078 87.8078C214.868 87.8078 214.67 87.8667 214.483 87.9847L214.384 87.6803C214.474 87.619 214.587 87.5694 214.724 87.5317C214.861 87.4939 214.998 87.475 215.134 87.475C215.321 87.475 215.467 87.5093 215.573 87.5777C215.679 87.6461 215.751 87.7393 215.789 87.8573C215.827 87.9753 215.834 88.1098 215.81 88.2608L215.655 89.2413H215.241L215.28 88.9864C215.221 89.0855 215.145 89.1587 215.053 89.2059C214.961 89.2531 214.863 89.2767 214.759 89.2767ZM214.897 88.9723C215.008 88.9723 215.105 88.9369 215.188 88.8661C215.27 88.7929 215.321 88.695 215.34 88.5723L215.357 88.4697H215.173C214.966 88.4697 214.819 88.4873 214.734 88.5227C214.652 88.5558 214.611 88.6195 214.611 88.7139C214.611 88.7965 214.638 88.8602 214.692 88.905C214.749 88.9498 214.817 88.9723 214.897 88.9723ZM216.596 89.2413L216.122 87.5104H216.571L216.862 88.721L217.552 87.5104H218.012L216.982 89.2413H216.596ZM218.51 89.2767C218.403 89.2767 218.307 89.2531 218.219 89.2059C218.132 89.1563 218.061 89.0914 218.007 89.0112C217.955 88.931 217.929 88.8413 217.929 88.7422C217.929 88.5605 218.007 88.4272 218.163 88.3422C218.321 88.2573 218.567 88.2148 218.902 88.2148H219.147L219.157 88.1511C219.176 88.0402 219.159 87.9552 219.104 87.8962C219.052 87.8373 218.96 87.8078 218.828 87.8078C218.618 87.8078 218.42 87.8667 218.234 87.9847L218.134 87.6803C218.224 87.619 218.337 87.5694 218.474 87.5317C218.611 87.4939 218.748 87.475 218.885 87.475C219.071 87.475 219.218 87.5093 219.324 87.5777C219.43 87.6461 219.502 87.7393 219.54 87.8573C219.577 87.9753 219.584 88.1098 219.561 88.2608L219.405 89.2413H218.991L219.03 88.9864C218.971 89.0855 218.895 89.1587 218.803 89.2059C218.711 89.2531 218.613 89.2767 218.51 89.2767ZM218.648 88.9723C218.759 88.9723 218.855 88.9369 218.938 88.8661C219.02 88.7929 219.071 88.695 219.09 88.5723L219.108 88.4697H218.924C218.716 88.4697 218.57 88.4873 218.485 88.5227C218.402 88.5558 218.361 88.6195 218.361 88.7139C218.361 88.7965 218.388 88.8602 218.442 88.905C218.499 88.9498 218.567 88.9723 218.648 88.9723ZM220.166 87.1388L220.236 86.707H220.728L220.658 87.1388H220.166ZM219.854 89.2413L220.13 87.5104H220.573L220.297 89.2413H219.854ZM221.369 89.2767C221.168 89.2767 221.024 89.2212 220.937 89.1103C220.85 88.997 220.822 88.833 220.855 88.6183L221.153 86.7459H221.595L221.298 88.6148C221.281 88.7186 221.291 88.7953 221.326 88.8448C221.364 88.892 221.428 88.9156 221.517 88.9156C221.543 88.9156 221.569 88.9145 221.595 88.9121C221.621 88.9074 221.647 88.9038 221.673 88.9015L221.613 89.2448C221.542 89.266 221.461 89.2767 221.369 89.2767ZM222.478 89.2767C222.372 89.2767 222.275 89.2531 222.188 89.2059C222.1 89.1563 222.029 89.0914 221.975 89.0112C221.923 88.931 221.897 88.8413 221.897 88.7422C221.897 88.5605 221.975 88.4272 222.131 88.3422C222.289 88.2573 222.536 88.2148 222.871 88.2148H223.115L223.126 88.1511C223.144 88.0402 223.127 87.9552 223.072 87.8962C223.02 87.8373 222.928 87.8078 222.796 87.8078C222.586 87.8078 222.388 87.8667 222.202 87.9847L222.103 87.6803C222.192 87.619 222.306 87.5694 222.442 87.5317C222.579 87.4939 222.716 87.475 222.853 87.475C223.039 87.475 223.186 87.5093 223.292 87.5777C223.398 87.6461 223.47 87.7393 223.508 87.8573C223.546 87.9753 223.553 88.1098 223.529 88.2608L223.373 89.2413H222.959L222.998 88.9864C222.939 89.0855 222.864 89.1587 222.772 89.2059C222.68 89.2531 222.582 89.2767 222.478 89.2767ZM222.616 88.9723C222.727 88.9723 222.823 88.9369 222.906 88.8661C222.989 88.7929 223.039 88.695 223.058 88.5723L223.076 88.4697H222.892C222.684 88.4697 222.538 88.4873 222.453 88.5227C222.37 88.5558 222.329 88.6195 222.329 88.7139C222.329 88.7965 222.356 88.8602 222.411 88.905C222.467 88.9498 222.536 88.9723 222.616 88.9723ZM224.856 89.2767C224.728 89.2767 224.615 89.2483 224.516 89.1917C224.419 89.1327 224.347 89.0466 224.3 88.9333L224.254 89.2413H223.822L224.219 86.7459H224.661L224.498 87.7617C224.564 87.6721 224.646 87.6025 224.743 87.5529C224.842 87.501 224.951 87.475 225.072 87.475C225.27 87.475 225.428 87.5423 225.546 87.6768C225.666 87.8089 225.727 87.9906 225.727 88.2219C225.727 88.4177 225.691 88.5959 225.62 88.7564C225.552 88.9145 225.453 89.0407 225.323 89.1351C225.193 89.2295 225.038 89.2767 224.856 89.2767ZM224.774 88.9404C224.883 88.9404 224.974 88.9097 225.047 88.8484C225.123 88.787 225.18 88.7033 225.22 88.5971C225.261 88.4909 225.281 88.3729 225.281 88.2431C225.281 88.1039 225.246 87.9977 225.178 87.9246C225.112 87.8491 225.02 87.8113 224.902 87.8113C224.796 87.8113 224.705 87.842 224.629 87.9033C224.554 87.9647 224.496 88.0484 224.456 88.1546C224.416 88.2585 224.396 88.3764 224.396 88.5086C224.396 88.6478 224.429 88.7552 224.495 88.8307C224.563 88.9038 224.656 88.9404 224.774 88.9404ZM226.557 89.2767C226.356 89.2767 226.213 89.2212 226.125 89.1103C226.038 88.997 226.011 88.833 226.044 88.6183L226.341 86.7459H226.784L226.486 88.6148C226.47 88.7186 226.479 88.7953 226.515 88.8448C226.552 88.892 226.616 88.9156 226.706 88.9156C226.732 88.9156 226.758 88.9145 226.784 88.9121C226.81 88.9074 226.835 88.9038 226.861 88.9015L226.801 89.2448C226.73 89.266 226.649 89.2767 226.557 89.2767ZM227.957 89.2767C227.782 89.2767 227.63 89.2448 227.5 89.1811C227.373 89.115 227.274 89.023 227.203 88.905C227.132 88.787 227.097 88.649 227.097 88.4909C227.097 88.2974 227.137 88.1251 227.217 87.9741C227.3 87.8207 227.413 87.6992 227.557 87.6095C227.701 87.5199 227.866 87.475 228.052 87.475C228.241 87.475 228.391 87.5175 228.502 87.6025C228.613 87.6851 228.688 87.796 228.728 87.9352C228.771 88.072 228.783 88.2219 228.764 88.3847L228.753 88.4767H227.511C227.506 88.6207 227.546 88.7339 227.631 88.8165C227.716 88.8991 227.838 88.9404 227.996 88.9404C228.1 88.9404 228.197 88.9263 228.289 88.8979C228.384 88.8673 228.468 88.8224 228.541 88.7634L228.651 89.0537C228.568 89.1245 228.464 89.1799 228.339 89.22C228.216 89.2578 228.089 89.2767 227.957 89.2767ZM228.049 87.7759C227.95 87.7759 227.866 87.7971 227.797 87.8396C227.729 87.8797 227.675 87.934 227.635 88.0024C227.595 88.0709 227.565 88.144 227.546 88.2219H228.424C228.433 88.0945 228.409 87.9883 228.35 87.9033C228.291 87.8184 228.19 87.7759 228.049 87.7759Z" fill="#36AAC8"/>
<path d="M241.741 95.9746H153V123.352H241.741V95.9746Z" fill="white"/>
<path d="M158.887 119.23L157.039 115H157.567L159.121 118.606L160.669 115H161.185L159.331 119.23H158.887ZM162.6 119.284C162.14 119.284 161.776 119.15 161.508 118.882C161.24 118.61 161.106 118.242 161.106 117.778C161.106 117.478 161.166 117.214 161.286 116.986C161.406 116.754 161.57 116.576 161.778 116.452C161.99 116.324 162.234 116.26 162.51 116.26C162.906 116.26 163.216 116.388 163.44 116.644C163.664 116.896 163.776 117.244 163.776 117.688V117.874H161.58C161.596 118.206 161.692 118.46 161.868 118.636C162.044 118.808 162.288 118.894 162.6 118.894C162.776 118.894 162.944 118.868 163.104 118.816C163.264 118.76 163.416 118.67 163.56 118.546L163.728 118.888C163.596 119.012 163.428 119.11 163.224 119.182C163.02 119.25 162.812 119.284 162.6 119.284ZM162.522 116.62C162.246 116.62 162.028 116.706 161.868 116.878C161.708 117.05 161.614 117.276 161.586 117.556H163.356C163.344 117.26 163.266 117.03 163.122 116.866C162.982 116.702 162.782 116.62 162.522 116.62ZM164.48 119.23V116.314H164.954V116.812C165.05 116.628 165.186 116.49 165.362 116.398C165.538 116.306 165.736 116.26 165.956 116.26C166.648 116.26 166.994 116.644 166.994 117.412V119.23H166.508V117.442C166.508 117.17 166.454 116.972 166.346 116.848C166.242 116.72 166.074 116.656 165.842 116.656C165.574 116.656 165.36 116.74 165.2 116.908C165.044 117.072 164.966 117.292 164.966 117.568V119.23H164.48ZM168.922 119.284C168.222 119.284 167.872 118.898 167.872 118.126V116.314H168.358V118.12C168.358 118.38 168.41 118.572 168.514 118.696C168.622 118.82 168.79 118.882 169.018 118.882C169.266 118.882 169.468 118.8 169.624 118.636C169.78 118.468 169.858 118.246 169.858 117.97V116.314H170.344V119.23H169.87V118.738C169.778 118.914 169.648 119.05 169.48 119.146C169.316 119.238 169.13 119.284 168.922 119.284ZM172.567 119.284C172.107 119.284 171.743 119.15 171.475 118.882C171.207 118.61 171.073 118.242 171.073 117.778C171.073 117.478 171.133 117.214 171.253 116.986C171.373 116.754 171.537 116.576 171.745 116.452C171.957 116.324 172.201 116.26 172.477 116.26C172.873 116.26 173.183 116.388 173.407 116.644C173.631 116.896 173.743 117.244 173.743 117.688V117.874H171.547C171.563 118.206 171.659 118.46 171.835 118.636C172.011 118.808 172.255 118.894 172.567 118.894C172.743 118.894 172.911 118.868 173.071 118.816C173.231 118.76 173.383 118.67 173.527 118.546L173.695 118.888C173.563 119.012 173.395 119.11 173.191 119.182C172.987 119.25 172.779 119.284 172.567 119.284ZM172.489 116.62C172.213 116.62 171.995 116.706 171.835 116.878C171.675 117.05 171.581 117.276 171.553 117.556H173.323C173.311 117.26 173.233 117.03 173.089 116.866C172.949 116.702 172.749 116.62 172.489 116.62ZM176.845 119.23L175.591 116.314H176.119L177.085 118.678L178.063 116.314H178.561L177.301 119.23H176.845ZM179.015 115.588V115.042H179.615V115.588H179.015ZM179.075 119.23V116.314H179.561V119.23H179.075ZM181.784 119.284C181.324 119.284 180.96 119.15 180.692 118.882C180.424 118.61 180.29 118.242 180.29 117.778C180.29 117.478 180.35 117.214 180.47 116.986C180.59 116.754 180.754 116.576 180.962 116.452C181.174 116.324 181.418 116.26 181.694 116.26C182.09 116.26 182.4 116.388 182.624 116.644C182.848 116.896 182.96 117.244 182.96 117.688V117.874H180.764C180.78 118.206 180.876 118.46 181.052 118.636C181.228 118.808 181.472 118.894 181.784 118.894C181.96 118.894 182.128 118.868 182.288 118.816C182.448 118.76 182.6 118.67 182.744 118.546L182.912 118.888C182.78 119.012 182.612 119.11 182.408 119.182C182.204 119.25 181.996 119.284 181.784 119.284ZM181.706 116.62C181.43 116.62 181.212 116.706 181.052 116.878C180.892 117.05 180.798 117.276 180.77 117.556H182.54C182.528 117.26 182.45 117.03 182.306 116.866C182.166 116.702 181.966 116.62 181.706 116.62ZM184.402 119.23L183.316 116.314H183.826L184.648 118.66L185.5 116.314H185.914L186.754 118.666L187.588 116.314H188.074L186.982 119.23H186.52L185.698 116.968L184.87 119.23H184.402Z" fill="#414141"/>
<path d="M157.681 126.243V125.627H158.606V122.993L157.89 123.423L157.6 122.876L158.821 122.144H159.35V125.627H160.216V126.243H157.681ZM162.278 126.301C161.794 126.301 161.424 126.119 161.168 125.755C160.912 125.387 160.784 124.863 160.784 124.185C160.784 123.499 160.912 122.977 161.168 122.621C161.424 122.264 161.794 122.086 162.278 122.086C162.767 122.086 163.137 122.264 163.389 122.621C163.645 122.977 163.773 123.497 163.773 124.179C163.773 124.861 163.645 125.387 163.389 125.755C163.133 126.119 162.763 126.301 162.278 126.301ZM162.278 125.691C162.542 125.691 162.736 125.571 162.86 125.33C162.988 125.086 163.052 124.702 163.052 124.179C163.052 123.66 162.988 123.284 162.86 123.051C162.736 122.814 162.542 122.696 162.278 122.696C162.019 122.696 161.825 122.814 161.697 123.051C161.569 123.284 161.505 123.66 161.505 124.179C161.505 124.702 161.569 125.086 161.697 125.33C161.825 125.571 162.019 125.691 162.278 125.691ZM165.765 126.301C165.28 126.301 164.91 126.119 164.654 125.755C164.398 125.387 164.271 124.863 164.271 124.185C164.271 123.499 164.398 122.977 164.654 122.621C164.91 122.264 165.28 122.086 165.765 122.086C166.253 122.086 166.624 122.264 166.876 122.621C167.132 122.977 167.259 123.497 167.259 124.179C167.259 124.861 167.132 125.387 166.876 125.755C166.62 126.119 166.25 126.301 165.765 126.301ZM165.765 125.691C166.029 125.691 166.222 125.571 166.347 125.33C166.474 125.086 166.538 124.702 166.538 124.179C166.538 123.66 166.474 123.284 166.347 123.051C166.222 122.814 166.029 122.696 165.765 122.696C165.505 122.696 165.311 122.814 165.184 123.051C165.056 123.284 164.992 123.66 164.992 124.179C164.992 124.702 165.056 125.086 165.184 125.33C165.311 125.571 165.505 125.691 165.765 125.691ZM171.337 126.301C170.937 126.301 170.596 126.181 170.313 125.941C170.034 125.701 169.846 125.354 169.749 124.9H169.185V124.388H169.685C169.677 124.249 169.677 124.117 169.685 123.993H169.185V123.481H169.749C169.85 123.032 170.04 122.687 170.319 122.446C170.598 122.206 170.937 122.086 171.337 122.086C171.561 122.086 171.775 122.126 171.976 122.208C172.178 122.289 172.344 122.409 172.476 122.568L172.232 123.086C172.108 122.95 171.976 122.855 171.837 122.801C171.697 122.747 171.548 122.719 171.389 122.719C171.18 122.719 170.997 122.781 170.842 122.906C170.691 123.026 170.581 123.218 170.511 123.481H171.383V123.993H170.424C170.42 124.125 170.422 124.257 170.429 124.388H171.383V124.9H170.511C170.581 125.168 170.691 125.363 170.842 125.487C170.997 125.608 171.18 125.668 171.389 125.668C171.548 125.668 171.697 125.641 171.837 125.586C171.976 125.528 172.108 125.433 172.232 125.301L172.476 125.813C172.344 125.976 172.178 126.098 171.976 126.179C171.775 126.261 171.561 126.301 171.337 126.301Z" fill="#414141"/>
<path d="M157.293 133.264L157.353 132.889H157.916L158.167 131.314L157.714 131.561L157.573 131.215L158.383 130.769H158.705L158.369 132.889H158.896L158.836 133.264H157.293ZM160.187 133.299C159.92 133.299 159.716 133.219 159.575 133.059C159.435 132.896 159.366 132.662 159.366 132.358C159.366 132.023 159.407 131.735 159.49 131.494C159.575 131.251 159.694 131.064 159.847 130.931C160.003 130.799 160.186 130.733 160.396 130.733C160.662 130.733 160.865 130.813 161.004 130.974C161.146 131.134 161.217 131.366 161.217 131.668C161.217 132.003 161.174 132.293 161.089 132.538C161.007 132.781 160.888 132.969 160.732 133.101C160.579 133.233 160.397 133.299 160.187 133.299ZM160.208 132.928C160.376 132.928 160.511 132.817 160.615 132.595C160.721 132.373 160.776 132.042 160.778 131.6C160.78 131.27 160.646 131.105 160.374 131.105C160.209 131.105 160.072 131.216 159.964 131.438C159.858 131.659 159.805 131.99 159.805 132.429C159.805 132.761 159.939 132.928 160.208 132.928ZM162.309 133.299C162.043 133.299 161.838 133.219 161.697 133.059C161.558 132.896 161.488 132.662 161.488 132.358C161.488 132.023 161.529 131.735 161.612 131.494C161.697 131.251 161.816 131.064 161.969 130.931C162.125 130.799 162.308 130.733 162.518 130.733C162.785 130.733 162.988 130.813 163.127 130.974C163.268 131.134 163.339 131.366 163.339 131.668C163.339 132.003 163.297 132.293 163.212 132.538C163.129 132.781 163.01 132.969 162.854 133.101C162.701 133.233 162.519 133.299 162.309 133.299ZM162.33 132.928C162.498 132.928 162.634 132.817 162.737 132.595C162.844 132.373 162.898 132.042 162.9 131.6C162.903 131.27 162.768 131.105 162.497 131.105C162.332 131.105 162.195 131.216 162.086 131.438C161.98 131.659 161.927 131.99 161.927 132.429C161.927 132.761 162.061 132.928 162.33 132.928ZM165.279 133.299C165.048 133.299 164.881 133.237 164.777 133.112C164.673 132.984 164.636 132.82 164.667 132.62L164.787 131.866H164.455L164.508 131.533H164.84L164.922 131.016H165.364L165.283 131.533H165.807L165.754 131.866H165.23L165.113 132.591C165.094 132.714 165.108 132.803 165.155 132.857C165.205 132.909 165.281 132.935 165.382 132.935C165.417 132.935 165.452 132.931 165.485 132.924C165.518 132.917 165.55 132.909 165.58 132.899L165.605 133.232C165.567 133.253 165.518 133.27 165.456 133.282C165.395 133.293 165.336 133.299 165.279 133.299ZM166.128 131.161L166.199 130.73H166.691L166.62 131.161H166.128ZM165.817 133.264L166.093 131.533H166.535L166.259 133.264H165.817ZM167.582 133.299C167.306 133.299 167.1 133.227 166.963 133.083C166.826 132.937 166.758 132.746 166.758 132.51C166.758 132.383 166.777 132.259 166.814 132.138C166.854 132.016 166.915 131.907 166.995 131.813C167.075 131.716 167.177 131.639 167.299 131.583C167.424 131.526 167.571 131.498 167.738 131.498C167.854 131.498 167.965 131.515 168.071 131.551C168.177 131.584 168.263 131.63 168.329 131.689L168.191 131.997C168.08 131.893 167.939 131.841 167.766 131.841C167.632 131.841 167.523 131.874 167.441 131.94C167.361 132.006 167.302 132.09 167.264 132.191C167.228 132.293 167.211 132.398 167.211 132.506C167.211 132.641 167.244 132.75 167.31 132.832C167.378 132.915 167.49 132.956 167.646 132.956C167.712 132.956 167.782 132.943 167.855 132.917C167.93 132.891 167.999 132.852 168.06 132.8L168.163 133.115C168.097 133.174 168.008 133.22 167.897 133.253C167.789 133.284 167.684 133.299 167.582 133.299ZM168.392 133.264L168.785 130.769H169.227L168.99 132.269H168.997L169.801 131.533H170.328L169.425 132.383L170.123 133.264H169.609L168.965 132.475H168.958L168.834 133.264H168.392ZM171.15 133.299C170.976 133.299 170.824 133.267 170.694 133.204C170.566 133.138 170.467 133.046 170.397 132.928C170.326 132.81 170.29 132.672 170.29 132.514C170.29 132.32 170.33 132.148 170.411 131.997C170.493 131.843 170.607 131.722 170.75 131.632C170.894 131.543 171.06 131.498 171.246 131.498C171.435 131.498 171.585 131.54 171.696 131.625C171.806 131.708 171.882 131.819 171.922 131.958C171.965 132.095 171.976 132.245 171.957 132.407L171.947 132.499H170.704C170.7 132.643 170.74 132.757 170.825 132.839C170.91 132.922 171.031 132.963 171.189 132.963C171.293 132.963 171.391 132.949 171.483 132.921C171.578 132.89 171.661 132.845 171.734 132.786L171.844 133.076C171.762 133.147 171.658 133.203 171.533 133.243C171.41 133.28 171.283 133.299 171.15 133.299ZM171.242 131.799C171.143 131.799 171.06 131.82 170.991 131.862C170.923 131.902 170.868 131.957 170.828 132.025C170.788 132.094 170.759 132.167 170.74 132.245H171.618C171.627 132.117 171.602 132.011 171.543 131.926C171.484 131.841 171.384 131.799 171.242 131.799ZM172.988 133.299C172.756 133.299 172.589 133.237 172.485 133.112C172.381 132.984 172.345 132.82 172.375 132.62L172.496 131.866H172.163L172.216 131.533H172.549L172.63 131.016H173.072L172.991 131.533H173.515L173.462 131.866H172.938L172.821 132.591C172.802 132.714 172.816 132.803 172.864 132.857C172.913 132.909 172.989 132.935 173.09 132.935C173.126 132.935 173.16 132.931 173.193 132.924C173.226 132.917 173.258 132.909 173.288 132.899L173.313 133.232C173.275 133.253 173.226 133.27 173.165 133.282C173.103 133.293 173.044 133.299 172.988 133.299ZM174.233 133.299C174.086 133.299 173.948 133.282 173.819 133.246C173.691 133.208 173.584 133.157 173.496 133.09L173.635 132.804C173.719 132.863 173.814 132.909 173.918 132.942C174.024 132.973 174.129 132.988 174.233 132.988C174.344 132.988 174.429 132.968 174.488 132.928C174.547 132.885 174.576 132.83 174.576 132.761C174.576 132.669 174.512 132.609 174.385 132.581L174.059 132.514C173.929 132.488 173.828 132.437 173.755 132.361C173.682 132.283 173.645 132.187 173.645 132.071C173.645 131.965 173.675 131.869 173.734 131.784C173.795 131.697 173.883 131.627 173.999 131.576C174.117 131.524 174.259 131.498 174.424 131.498C174.537 131.498 174.65 131.515 174.764 131.551C174.879 131.584 174.976 131.633 175.054 131.699L174.923 131.983C174.85 131.924 174.768 131.88 174.679 131.852C174.589 131.823 174.497 131.809 174.403 131.809C174.287 131.809 174.198 131.832 174.137 131.876C174.076 131.919 174.045 131.976 174.045 132.046C174.045 132.089 174.058 132.125 174.084 132.156C174.112 132.187 174.156 132.208 174.215 132.22L174.541 132.287C174.831 132.348 174.976 132.496 174.976 132.729C174.976 132.911 174.908 133.052 174.771 133.151C174.636 133.25 174.457 133.299 174.233 133.299ZM176.798 133.299C176.692 133.299 176.595 133.276 176.508 133.229C176.421 133.179 176.35 133.114 176.296 133.034C176.244 132.954 176.218 132.864 176.218 132.765C176.218 132.583 176.296 132.45 176.451 132.365C176.609 132.28 176.856 132.237 177.191 132.237H177.435L177.446 132.174C177.465 132.063 177.447 131.978 177.393 131.919C177.341 131.86 177.249 131.83 177.117 131.83C176.907 131.83 176.709 131.889 176.522 132.007L176.423 131.703C176.513 131.642 176.626 131.592 176.763 131.554C176.9 131.517 177.037 131.498 177.173 131.498C177.36 131.498 177.506 131.532 177.612 131.6C177.718 131.669 177.79 131.762 177.828 131.88C177.866 131.998 177.873 132.132 177.849 132.283L177.694 133.264H177.28L177.319 133.009C177.26 133.108 177.184 133.181 177.092 133.229C177 133.276 176.902 133.299 176.798 133.299ZM176.936 132.995C177.047 132.995 177.144 132.96 177.227 132.889C177.309 132.816 177.36 132.718 177.379 132.595L177.396 132.492H177.212C177.005 132.492 176.858 132.51 176.773 132.545C176.691 132.578 176.65 132.642 176.65 132.737C176.65 132.819 176.677 132.883 176.731 132.928C176.788 132.973 176.856 132.995 176.936 132.995ZM178.635 133.264L178.161 131.533H178.61L178.901 132.744L179.591 131.533H180.051L179.021 133.264H178.635ZM180.549 133.299C180.442 133.299 180.346 133.276 180.258 133.229C180.171 133.179 180.1 133.114 180.046 133.034C179.994 132.954 179.968 132.864 179.968 132.765C179.968 132.583 180.046 132.45 180.202 132.365C180.36 132.28 180.606 132.237 180.941 132.237H181.186L181.196 132.174C181.215 132.063 181.198 131.978 181.143 131.919C181.091 131.86 180.999 131.83 180.867 131.83C180.657 131.83 180.459 131.889 180.273 132.007L180.173 131.703C180.263 131.642 180.376 131.592 180.513 131.554C180.65 131.517 180.787 131.498 180.924 131.498C181.11 131.498 181.257 131.532 181.363 131.6C181.469 131.669 181.541 131.762 181.579 131.88C181.616 131.998 181.623 132.132 181.6 132.283L181.444 133.264H181.03L181.069 133.009C181.01 133.108 180.934 133.181 180.842 133.229C180.75 133.276 180.652 133.299 180.549 133.299ZM180.687 132.995C180.798 132.995 180.894 132.96 180.977 132.889C181.059 132.816 181.11 132.718 181.129 132.595L181.147 132.492H180.963C180.755 132.492 180.609 132.51 180.524 132.545C180.441 132.578 180.4 132.642 180.4 132.737C180.4 132.819 180.427 132.883 180.481 132.928C180.538 132.973 180.606 132.995 180.687 132.995ZM182.205 131.161L182.275 130.73H182.767L182.697 131.161H182.205ZM181.893 133.264L182.169 131.533H182.612L182.336 133.264H181.893ZM183.408 133.299C183.207 133.299 183.063 133.244 182.976 133.133C182.889 133.02 182.861 132.856 182.894 132.641L183.192 130.769H183.634L183.337 132.637C183.32 132.741 183.33 132.818 183.365 132.867C183.403 132.915 183.467 132.938 183.556 132.938C183.582 132.938 183.608 132.937 183.634 132.935C183.66 132.93 183.686 132.926 183.712 132.924L183.652 133.267C183.581 133.289 183.5 133.299 183.408 133.299ZM184.517 133.299C184.411 133.299 184.314 133.276 184.227 133.229C184.139 133.179 184.068 133.114 184.014 133.034C183.962 132.954 183.936 132.864 183.936 132.765C183.936 132.583 184.014 132.45 184.17 132.365C184.328 132.28 184.575 132.237 184.91 132.237H185.154L185.165 132.174C185.183 132.063 185.166 131.978 185.111 131.919C185.059 131.86 184.967 131.83 184.835 131.83C184.625 131.83 184.427 131.889 184.241 132.007L184.142 131.703C184.231 131.642 184.345 131.592 184.481 131.554C184.618 131.517 184.755 131.498 184.892 131.498C185.078 131.498 185.225 131.532 185.331 131.6C185.437 131.669 185.509 131.762 185.547 131.88C185.585 131.998 185.592 132.132 185.568 132.283L185.412 133.264H184.998L185.037 133.009C184.978 133.108 184.903 133.181 184.811 133.229C184.719 133.276 184.621 133.299 184.517 133.299ZM184.655 132.995C184.766 132.995 184.862 132.96 184.945 132.889C185.028 132.816 185.078 132.718 185.097 132.595L185.115 132.492H184.931C184.723 132.492 184.577 132.51 184.492 132.545C184.409 132.578 184.368 132.642 184.368 132.737C184.368 132.819 184.395 132.883 184.45 132.928C184.506 132.973 184.575 132.995 184.655 132.995ZM186.895 133.299C186.767 133.299 186.654 133.271 186.555 133.214C186.458 133.155 186.386 133.069 186.339 132.956L186.293 133.264H185.861L186.258 130.769H186.7L186.537 131.784C186.603 131.695 186.685 131.625 186.782 131.576C186.881 131.524 186.99 131.498 187.111 131.498C187.309 131.498 187.467 131.565 187.585 131.699C187.705 131.832 187.766 132.013 187.766 132.245C187.766 132.44 187.73 132.619 187.659 132.779C187.591 132.937 187.492 133.063 187.362 133.158C187.232 133.252 187.077 133.299 186.895 133.299ZM186.813 132.963C186.922 132.963 187.013 132.932 187.086 132.871C187.162 132.81 187.219 132.726 187.259 132.62C187.3 132.514 187.32 132.396 187.32 132.266C187.32 132.127 187.285 132.02 187.217 131.947C187.151 131.872 187.059 131.834 186.941 131.834C186.835 131.834 186.744 131.865 186.668 131.926C186.593 131.987 186.535 132.071 186.495 132.177C186.455 132.281 186.435 132.399 186.435 132.531C186.435 132.67 186.468 132.778 186.534 132.853C186.602 132.926 186.695 132.963 186.813 132.963ZM188.596 133.299C188.395 133.299 188.252 133.244 188.164 133.133C188.077 133.02 188.05 132.856 188.083 132.641L188.38 130.769H188.823L188.525 132.637C188.509 132.741 188.518 132.818 188.554 132.867C188.591 132.915 188.655 132.938 188.745 132.938C188.771 132.938 188.797 132.937 188.823 132.935C188.849 132.93 188.874 132.926 188.9 132.924L188.84 133.267C188.769 133.289 188.688 133.299 188.596 133.299ZM189.996 133.299C189.821 133.299 189.669 133.267 189.539 133.204C189.412 133.138 189.313 133.046 189.242 132.928C189.171 132.81 189.136 132.672 189.136 132.514C189.136 132.32 189.176 132.148 189.256 131.997C189.339 131.843 189.452 131.722 189.596 131.632C189.74 131.543 189.905 131.498 190.091 131.498C190.28 131.498 190.43 131.54 190.541 131.625C190.652 131.708 190.727 131.819 190.767 131.958C190.81 132.095 190.822 132.245 190.803 132.407L190.792 132.499H189.55C189.545 132.643 189.585 132.757 189.67 132.839C189.755 132.922 189.877 132.963 190.035 132.963C190.139 132.963 190.236 132.949 190.328 132.921C190.423 132.89 190.507 132.845 190.58 132.786L190.69 133.076C190.607 133.147 190.503 133.203 190.378 133.243C190.255 133.28 190.128 133.299 189.996 133.299ZM190.088 131.799C189.989 131.799 189.905 131.82 189.836 131.862C189.768 131.902 189.714 131.957 189.674 132.025C189.634 132.094 189.604 132.167 189.585 132.245H190.463C190.472 132.117 190.448 132.011 190.389 131.926C190.33 131.841 190.229 131.799 190.088 131.799Z" fill="#36AAC8"/>
<path d="M237.698 138.311H157.047V138.563H237.698V138.311Z" fill="#E8E8E8"/>
<path d="M237.698 150.406H157.047V150.659H237.698V150.406Z" fill="#E8E8E8"/>
<path d="M237.698 150.406H157.047V150.659H237.698V150.406Z" fill="#E8E8E8"/>
<path d="M237.698 29H157.047V29.2528H237.698V29Z" fill="#BBBBBB"/>
<path d="M241.788 150H153V181.113H241.788V150Z" fill="#E8E8E8"/>
</g>
<path d="M-5 11C-5 9.34315 -3.65685 8 -2 8H150C151.657 8 153 9.34315 153 11V134C153 135.657 151.657 137 150 137H-2C-3.65685 137 -5 135.657 -5 134V11Z" fill="#DADADA"/>
<path d="M96.0465 90.2325V63.5349C96.0465 61.4372 94.3302 59.7209 92.2326 59.7209H65.5349C63.4372 59.7209 61.7209 61.4372 61.7209 63.5349V90.2325C61.7209 92.3302 63.4372 94.0465 65.5349 94.0465H92.2326C94.3302 94.0465 96.0465 92.3302 96.0465 90.2325ZM72.2093 79.7442L76.9768 85.4842L83.6512 76.8837L92.2326 88.3256H65.5349L72.2093 79.7442Z" fill="#3BA0A8"/>
<path d="M63.5273 142C65.1842 142 66.5273 143.343 66.5273 145L66.5273 153.009C66.5273 154.666 65.1842 156.009 63.5273 156.009L56 156.009C54.3431 156.009 53 154.666 53 153.009L53 145C53 143.343 54.3431 142 56 142L63.5273 142Z" fill="#DADADA"/>
<path d="M81.0391 142C82.6959 142 84.0391 143.343 84.0391 145L84.0391 153.009C84.0391 154.666 82.6959 156.009 81.0391 156.009L73.5117 156.009C71.8548 156.009 70.5117 154.666 70.5117 153.009L70.5117 145C70.5117 143.343 71.8548 142 73.5117 142L81.0391 142Z" fill="#DADADA"/>
<path d="M98.5488 142C100.206 142 101.549 143.343 101.549 145L101.549 153.009C101.549 154.666 100.206 156.009 98.5488 156.009L91.0214 156.009C89.3646 156.009 88.0214 154.666 88.0214 153.009L88.0214 145C88.0214 143.343 89.3646 142 91.0214 142L98.5488 142Z" fill="#DADADA"/>
<path d="M188 70C189.657 70 191 71.3431 191 73L191 94C191 95.6569 189.657 97 188 97L161 97C159.343 97 158 95.6569 158 94L158 73C158 71.3431 159.343 70 161 70L188 70Z" fill="#DADADA"/>
<path d="M46.4008 147.06C46.4198 147.079 46.4349 147.102 46.4453 147.127C46.4556 147.152 46.4609 147.179 46.4609 147.205C46.4609 147.232 46.4556 147.259 46.4453 147.284C46.4349 147.309 46.4198 147.332 46.4008 147.351L44.4951 149.256L46.4008 151.161C46.4392 151.2 46.4609 151.252 46.4609 151.307C46.4609 151.361 46.4392 151.413 46.4008 151.452C46.3624 151.49 46.31 151.512 46.2556 151.512C46.2012 151.512 46.1491 151.49 46.1106 151.452L44.0601 149.401C44.0409 149.382 44.0259 149.359 44.0156 149.334C44.0051 149.31 44 149.283 44 149.256C44 149.229 44.0051 149.202 44.0156 149.177C44.0259 149.153 44.0409 149.13 44.0601 149.111L46.1106 147.06C46.1297 147.041 46.1523 147.026 46.1772 147.016C46.2021 147.006 46.2288 147 46.2556 147C46.2826 147 46.3093 147.006 46.3342 147.016C46.3591 147.026 46.3818 147.041 46.4008 147.06Z" fill="#BEBEBC"/>
<path d="M105.06 151.451C105.041 151.432 105.026 151.41 105.016 151.385C105.005 151.36 105 151.333 105 151.306C105 151.279 105.005 151.253 105.016 151.228C105.026 151.203 105.041 151.18 105.06 151.161L106.966 149.256L105.06 147.35C105.022 147.312 105 147.26 105 147.205C105 147.151 105.022 147.099 105.06 147.06C105.099 147.022 105.151 147 105.205 147C105.26 147 105.312 147.022 105.35 147.06L107.401 149.111C107.42 149.13 107.435 149.152 107.445 149.177C107.456 149.202 107.461 149.229 107.461 149.256C107.461 149.283 107.456 149.309 107.445 149.334C107.435 149.359 107.42 149.382 107.401 149.401L105.35 151.451C105.331 151.47 105.309 151.486 105.284 151.496C105.259 151.506 105.232 151.511 105.205 151.511C105.178 151.511 105.152 151.506 105.127 151.496C105.102 151.486 105.079 151.47 105.06 151.451Z" fill="#BEBEBC"/>
<path d="M153.506 170.629V10H153V170.629H153.506Z" fill="#DADADA"/>
<path d="M252.2 0H0V10.3713H252.2V0Z" fill="#EFF0F0"/>
<rect x="148" y="132" width="5" height="5" fill="#DADADA"/>
<path d="M179.25 87.0833V78.9167C179.25 78.275 178.725 77.75 178.083 77.75H169.917C169.275 77.75 168.75 78.275 168.75 78.9167V87.0833C168.75 87.725 169.275 88.25 169.917 88.25H178.083C178.725 88.25 179.25 87.725 179.25 87.0833ZM171.958 83.875L173.417 85.6308L175.458 83L178.083 86.5H169.917L171.958 83.875Z" fill="#3BA0A8"/>
<rect x="155.15" y="66.15" width="83.7" height="42.7" stroke="#3BA0A8" stroke-width="0.3"/>
<path d="M235.426 100H159.574C158.705 100 158 100.52 158 101.162V105.838C158 106.48 158.705 107 159.574 107H235.426C236.295 107 237 106.48 237 105.838V101.162C237 100.52 236.295 100 235.426 100Z" fill="#3BA0A8"/>
</g>
<defs>
<clipPath id="clip0_12235_4005">
<rect width="240" height="160" fill="white"/>
</clipPath>
</defs>
</svg>
