<svg width="240" height="160" viewBox="0 0 240 160" fill="none" xmlns="http://www.w3.org/2000/svg">
<g clip-path="url(#clip0_9012_678)">
<mask id="mask0_9012_678" style="mask-type:luminance" maskUnits="userSpaceOnUse" x="0" y="0" width="240" height="160">
<path d="M240 0H0V160H240V0Z" fill="white"/>
</mask>
<g mask="url(#mask0_9012_678)">
<mask id="mask1_9012_678" style="mask-type:luminance" maskUnits="userSpaceOnUse" x="0" y="0" width="240" height="160">
<path d="M240 0H0V160H240V0Z" fill="white"/>
</mask>
<g mask="url(#mask1_9012_678)">
<path d="M240 0H0V160H240V0Z" fill="white"/>
<path d="M252.2 0H0V10.3713H252.2V0Z" fill="#EFF0F0"/>
<path d="M0 10.3713H88.7884V171H0V10.3713Z" fill="white"/>
<mask id="mask2_9012_678" style="mask-type:luminance" maskUnits="userSpaceOnUse" x="0" y="10" width="90" height="162">
<path d="M90 10.3713H0V171.371H90V10.3713Z" fill="white"/>
<path d="M0 10.3713H88.7884V171H0V10.3713Z" fill="black"/>
</mask>
<g mask="url(#mask2_9012_678)">
<path d="M88.5356 10.3713V171H89.0415V10.3713H88.5356Z" fill="#BBBBBB"/>
</g>
<path d="M58.5809 17H10.5734C10.0232 17 9.57715 17.446 9.57715 17.9962V22.0038C9.57715 22.554 10.0232 23 10.5734 23H58.5809C59.1311 23 59.5771 22.554 59.5771 22.0038V17.9962C59.5771 17.446 59.1311 17 58.5809 17Z" fill="#E9E9E9"/>
<path d="M10.1338 30.1135H82.1695C83.1517 30.1135 83.9479 30.9097 83.9479 31.8919V55.227C83.9479 56.2092 83.1517 57.0054 82.1695 57.0054H10.1338V30.1135Z" fill="white"/>
<path d="M14.2124 39.6702V35.4402H15.8864C16.3424 35.4402 16.6904 35.5502 16.9304 35.7702C17.1744 35.9902 17.2964 36.3042 17.2964 36.7122C17.2964 37.1162 17.1744 37.4302 16.9304 37.6542C16.6904 37.8742 16.3424 37.9842 15.8864 37.9842H14.7044V39.6702H14.2124ZM14.7044 37.5702H15.8264C16.4824 37.5702 16.8104 37.2842 16.8104 36.7122C16.8104 36.1362 16.4824 35.8482 15.8264 35.8482H14.7044V37.5702ZM17.8846 39.6702V36.7542H18.3586V37.2762C18.5146 36.9242 18.8346 36.7302 19.3186 36.6942L19.4926 36.6762L19.5286 37.0962L19.2226 37.1322C18.9466 37.1562 18.7366 37.2442 18.5926 37.3962C18.4486 37.5442 18.3766 37.7482 18.3766 38.0082V39.6702H17.8846ZM19.975 36.0282V35.4822H20.575V36.0282H19.975ZM20.035 39.6702V36.7542H20.521V39.6702H20.035ZM22.6656 39.7242C22.3736 39.7242 22.1216 39.6622 21.9096 39.5382C21.6976 39.4102 21.5336 39.2322 21.4176 39.0042C21.3056 38.7722 21.2496 38.5022 21.2496 38.1942C21.2496 37.7302 21.3756 37.3662 21.6276 37.1022C21.8796 36.8342 22.2256 36.7002 22.6656 36.7002C22.8456 36.7002 23.0236 36.7322 23.1996 36.7962C23.3756 36.8602 23.5216 36.9502 23.6376 37.0662L23.4696 37.4202C23.3536 37.3082 23.2256 37.2262 23.0856 37.1742C22.9496 37.1222 22.8196 37.0962 22.6956 37.0962C22.3916 37.0962 22.1576 37.1922 21.9936 37.3842C21.8296 37.5722 21.7476 37.8442 21.7476 38.2002C21.7476 38.5482 21.8296 38.8242 21.9936 39.0282C22.1576 39.2282 22.3916 39.3282 22.6956 39.3282C22.8196 39.3282 22.9496 39.3022 23.0856 39.2502C23.2256 39.1982 23.3536 39.1142 23.4696 38.9982L23.6376 39.3522C23.5216 39.4682 23.3736 39.5602 23.1936 39.6282C23.0176 39.6922 22.8416 39.7242 22.6656 39.7242ZM25.4623 39.7242C25.0023 39.7242 24.6383 39.5902 24.3703 39.3222C24.1023 39.0502 23.9683 38.6822 23.9683 38.2182C23.9683 37.9182 24.0283 37.6542 24.1483 37.4262C24.2683 37.1942 24.4323 37.0162 24.6403 36.8922C24.8523 36.7642 25.0963 36.7002 25.3723 36.7002C25.7683 36.7002 26.0783 36.8282 26.3023 37.0842C26.5263 37.3362 26.6383 37.6842 26.6383 38.1282V38.3142H24.4423C24.4583 38.6462 24.5543 38.9002 24.7303 39.0762C24.9063 39.2482 25.1503 39.3342 25.4623 39.3342C25.6383 39.3342 25.8063 39.3082 25.9663 39.2562C26.1263 39.2002 26.2783 39.1102 26.4223 38.9862L26.5903 39.3282C26.4583 39.4522 26.2903 39.5502 26.0863 39.6222C25.8823 39.6902 25.6743 39.7242 25.4623 39.7242ZM25.3843 37.0602C25.1083 37.0602 24.8903 37.1462 24.7303 37.3182C24.5703 37.4902 24.4763 37.7162 24.4483 37.9962H26.2183C26.2063 37.7002 26.1283 37.4702 25.9843 37.3062C25.8443 37.1422 25.6443 37.0602 25.3843 37.0602ZM28.7567 39.6702V39.3462L30.4247 37.1322H28.7567V36.7542H30.9647V37.0782L29.2967 39.2922H31.0307V39.6702H28.7567ZM32.8134 39.7242C32.5294 39.7242 32.2834 39.6622 32.0754 39.5382C31.8674 39.4142 31.7054 39.2402 31.5894 39.0162C31.4774 38.7882 31.4214 38.5202 31.4214 38.2122C31.4214 37.9042 31.4774 37.6382 31.5894 37.4142C31.7054 37.1862 31.8674 37.0102 32.0754 36.8862C32.2834 36.7622 32.5294 36.7002 32.8134 36.7002C33.0934 36.7002 33.3374 36.7622 33.5454 36.8862C33.7574 37.0102 33.9194 37.1862 34.0314 37.4142C34.1474 37.6382 34.2054 37.9042 34.2054 38.2122C34.2054 38.5202 34.1474 38.7882 34.0314 39.0162C33.9194 39.2402 33.7574 39.4142 33.5454 39.5382C33.3374 39.6622 33.0934 39.7242 32.8134 39.7242ZM32.8134 39.3342C33.0854 39.3342 33.3034 39.2382 33.4674 39.0462C33.6314 38.8502 33.7134 38.5722 33.7134 38.2122C33.7134 37.8482 33.6314 37.5702 33.4674 37.3782C33.3034 37.1862 33.0854 37.0902 32.8134 37.0902C32.5374 37.0902 32.3174 37.1862 32.1534 37.3782C31.9934 37.5702 31.9134 37.8482 31.9134 38.2122C31.9134 38.5722 31.9934 38.8502 32.1534 39.0462C32.3174 39.2382 32.5374 39.3342 32.8134 39.3342ZM34.9354 39.6702V36.7542H35.4094V37.2522C35.5054 37.0682 35.6414 36.9302 35.8174 36.8382C35.9934 36.7462 36.1914 36.7002 36.4114 36.7002C37.1034 36.7002 37.4494 37.0842 37.4494 37.8522V39.6702H36.9634V37.8822C36.9634 37.6102 36.9094 37.4122 36.8014 37.2882C36.6974 37.1602 36.5294 37.0962 36.2974 37.0962C36.0294 37.0962 35.8154 37.1802 35.6554 37.3482C35.4994 37.5122 35.4214 37.7322 35.4214 38.0082V39.6702H34.9354ZM39.6596 39.7242C39.1996 39.7242 38.8356 39.5902 38.5676 39.3222C38.2996 39.0502 38.1656 38.6822 38.1656 38.2182C38.1656 37.9182 38.2256 37.6542 38.3456 37.4262C38.4656 37.1942 38.6296 37.0162 38.8376 36.8922C39.0496 36.7642 39.2936 36.7002 39.5696 36.7002C39.9656 36.7002 40.2756 36.8282 40.4996 37.0842C40.7236 37.3362 40.8356 37.6842 40.8356 38.1282V38.3142H38.6396C38.6556 38.6462 38.7516 38.9002 38.9276 39.0762C39.1036 39.2482 39.3476 39.3342 39.6596 39.3342C39.8356 39.3342 40.0036 39.3082 40.1636 39.2562C40.3236 39.2002 40.4756 39.1102 40.6196 38.9862L40.7876 39.3282C40.6556 39.4522 40.4876 39.5502 40.2836 39.6222C40.0796 39.6902 39.8716 39.7242 39.6596 39.7242ZM39.5816 37.0602C39.3056 37.0602 39.0876 37.1462 38.9276 37.3182C38.7676 37.4902 38.6736 37.7162 38.6456 37.9962H40.4156C40.4036 37.7002 40.3256 37.4702 40.1816 37.3062C40.0416 37.1422 39.8416 37.0602 39.5816 37.0602Z" fill="#414141"/>
<path d="M15.4707 50.5109C15.1719 50.5109 14.8856 50.4673 14.6118 50.3802C14.342 50.2889 14.118 50.1665 13.9395 50.0129L14.201 49.4029C14.5744 49.6934 14.9894 49.8386 15.4458 49.8386C16.006 49.8386 16.2861 49.6187 16.2861 49.1789C16.2861 48.9714 16.2156 48.8179 16.0745 48.7183C15.9375 48.6145 15.7363 48.5627 15.4707 48.5627H14.7674V47.9029H15.396C15.6284 47.9029 15.8131 47.8469 15.95 47.7348C16.0869 47.6186 16.1554 47.4589 16.1554 47.2556C16.1554 47.0647 16.0911 46.9194 15.9624 46.8198C15.8379 46.7203 15.6554 46.6705 15.4147 46.6705C14.9831 46.6705 14.6035 46.8198 14.2756 47.1186L14.0142 46.5211C14.1885 46.3551 14.4064 46.2265 14.6678 46.1352C14.9292 46.0439 15.201 45.9982 15.4832 45.9982C15.9396 45.9982 16.2944 46.102 16.5475 46.3095C16.8006 46.5128 16.9272 46.797 16.9272 47.1622C16.9272 47.3987 16.867 47.6062 16.7467 47.7846C16.6264 47.963 16.4625 48.0917 16.255 48.1705C16.5081 48.2411 16.7052 48.3718 16.8463 48.5627C16.9874 48.7494 17.0579 48.9776 17.0579 49.2473C17.0579 49.6374 16.9168 49.9465 16.6347 50.1748C16.3525 50.3988 15.9645 50.5109 15.4707 50.5109ZM19.3274 50.5109C19.041 50.5109 18.763 50.4673 18.4933 50.3802C18.2236 50.2889 18.0037 50.1665 17.8335 50.0129L18.0949 49.4029C18.4726 49.6934 18.8792 49.8386 19.3149 49.8386C19.5763 49.8386 19.7797 49.7722 19.9249 49.6395C20.0743 49.5025 20.149 49.3199 20.149 49.0917C20.149 48.8593 20.0784 48.6726 19.9373 48.5315C19.7963 48.3863 19.6033 48.3137 19.3585 48.3137C19.0099 48.3137 18.7215 48.4527 18.4933 48.7307H17.958V46.0605H20.6531V46.7203H18.736V47.9091C18.956 47.7431 19.2257 47.6601 19.5452 47.6601C19.8232 47.6601 20.0639 47.7203 20.2672 47.8406C20.4747 47.9568 20.6345 48.1207 20.7465 48.3324C20.8627 48.5398 20.9208 48.7826 20.9208 49.0606C20.9208 49.3469 20.8565 49.6 20.7278 49.82C20.5992 50.0357 20.4145 50.2059 20.1739 50.3304C19.9373 50.4507 19.6552 50.5109 19.3274 50.5109ZM25.2538 50.5109C24.8264 50.5109 24.4612 50.3822 24.1583 50.125C23.8595 49.8677 23.6583 49.4963 23.5545 49.0108H22.9508V48.4631H23.4861C23.4778 48.3137 23.4778 48.1726 23.4861 48.0398H22.9508V47.4921H23.5545C23.6624 47.0107 23.8658 46.6414 24.1645 46.3841C24.4633 46.1269 24.8264 45.9982 25.2538 45.9982C25.4945 45.9982 25.7227 46.0418 25.9385 46.1289C26.1542 46.2161 26.3327 46.3447 26.4737 46.5149L26.2123 47.0688C26.0795 46.9236 25.9385 46.8219 25.7891 46.7638C25.6397 46.7057 25.4799 46.6767 25.3098 46.6767C25.0857 46.6767 24.8907 46.7431 24.7247 46.8759C24.5629 47.0045 24.4446 47.2099 24.3699 47.4921H25.3036V48.0398H24.2766C24.2724 48.1809 24.2745 48.322 24.2828 48.4631H25.3036V49.0108H24.3699C24.4446 49.2971 24.5629 49.5067 24.7247 49.6395C24.8907 49.7681 25.0857 49.8324 25.3098 49.8324C25.4799 49.8324 25.6397 49.8034 25.7891 49.7453C25.9385 49.683 26.0795 49.5814 26.2123 49.4403L26.4737 49.988C26.3327 50.1623 26.1542 50.293 25.9385 50.3802C25.7227 50.4673 25.4945 50.5109 25.2538 50.5109Z" fill="#414141"/>
<path d="M10.1338 60.562H82.1695C83.1517 60.562 83.9479 61.3582 83.9479 62.3404V85.6755C83.9479 86.6577 83.1517 87.4539 82.1695 87.4539H10.1338V60.562Z" fill="white"/>
<path d="M14.2124 70.1189V65.8889H15.8864C16.3424 65.8889 16.6904 65.9989 16.9304 66.2189C17.1744 66.4389 17.2964 66.7529 17.2964 67.1609C17.2964 67.5649 17.1744 67.8789 16.9304 68.1029C16.6904 68.3229 16.3424 68.4329 15.8864 68.4329H14.7044V70.1189H14.2124ZM14.7044 68.0189H15.8264C16.4824 68.0189 16.8104 67.7329 16.8104 67.1609C16.8104 66.5849 16.4824 66.2969 15.8264 66.2969H14.7044V68.0189ZM17.8846 70.1189V67.2029H18.3586V67.7249C18.5146 67.3729 18.8346 67.1789 19.3186 67.1429L19.4926 67.1249L19.5286 67.5449L19.2226 67.5809C18.9466 67.6049 18.7366 67.6929 18.5926 67.8449C18.4486 67.9929 18.3766 68.1969 18.3766 68.4569V70.1189H17.8846ZM19.975 66.4769V65.9309H20.575V66.4769H19.975ZM20.035 70.1189V67.2029H20.521V70.1189H20.035ZM22.6656 70.1729C22.3736 70.1729 22.1216 70.1109 21.9096 69.9869C21.6976 69.8589 21.5336 69.6809 21.4176 69.4529C21.3056 69.2209 21.2496 68.9509 21.2496 68.6429C21.2496 68.1789 21.3756 67.8149 21.6276 67.5509C21.8796 67.2829 22.2256 67.1489 22.6656 67.1489C22.8456 67.1489 23.0236 67.1809 23.1996 67.2449C23.3756 67.3089 23.5216 67.3989 23.6376 67.5149L23.4696 67.8689C23.3536 67.7569 23.2256 67.6749 23.0856 67.6229C22.9496 67.5709 22.8196 67.5449 22.6956 67.5449C22.3916 67.5449 22.1576 67.6409 21.9936 67.8329C21.8296 68.0209 21.7476 68.2929 21.7476 68.6489C21.7476 68.9969 21.8296 69.2729 21.9936 69.4769C22.1576 69.6769 22.3916 69.7769 22.6956 69.7769C22.8196 69.7769 22.9496 69.7509 23.0856 69.6989C23.2256 69.6469 23.3536 69.5629 23.4696 69.4469L23.6376 69.8009C23.5216 69.9169 23.3736 70.0089 23.1936 70.0769C23.0176 70.1409 22.8416 70.1729 22.6656 70.1729ZM25.4623 70.1729C25.0023 70.1729 24.6383 70.0389 24.3703 69.7709C24.1023 69.4989 23.9683 69.1309 23.9683 68.6669C23.9683 68.3669 24.0283 68.1029 24.1483 67.8749C24.2683 67.6429 24.4323 67.4649 24.6403 67.3409C24.8523 67.2129 25.0963 67.1489 25.3723 67.1489C25.7683 67.1489 26.0783 67.2769 26.3023 67.5329C26.5263 67.7849 26.6383 68.1329 26.6383 68.5769V68.7629H24.4423C24.4583 69.0949 24.5543 69.3489 24.7303 69.5249C24.9063 69.6969 25.1503 69.7829 25.4623 69.7829C25.6383 69.7829 25.8063 69.7569 25.9663 69.7049C26.1263 69.6489 26.2783 69.5589 26.4223 69.4349L26.5903 69.7769C26.4583 69.9009 26.2903 69.9989 26.0863 70.0709C25.8823 70.1389 25.6743 70.1729 25.4623 70.1729ZM25.3843 67.5089C25.1083 67.5089 24.8903 67.5949 24.7303 67.7669C24.5703 67.9389 24.4763 68.1649 24.4483 68.4449H26.2183C26.2063 68.1489 26.1283 67.9189 25.9843 67.7549C25.8443 67.5909 25.6443 67.5089 25.3843 67.5089ZM28.7567 70.1189V69.7949L30.4247 67.5809H28.7567V67.2029H30.9647V67.5269L29.2967 69.7409H31.0307V70.1189H28.7567ZM32.8134 70.1729C32.5294 70.1729 32.2834 70.1109 32.0754 69.9869C31.8674 69.8629 31.7054 69.6889 31.5894 69.4649C31.4774 69.2369 31.4214 68.9689 31.4214 68.6609C31.4214 68.3529 31.4774 68.0869 31.5894 67.8629C31.7054 67.6349 31.8674 67.4589 32.0754 67.3349C32.2834 67.2109 32.5294 67.1489 32.8134 67.1489C33.0934 67.1489 33.3374 67.2109 33.5454 67.3349C33.7574 67.4589 33.9194 67.6349 34.0314 67.8629C34.1474 68.0869 34.2054 68.3529 34.2054 68.6609C34.2054 68.9689 34.1474 69.2369 34.0314 69.4649C33.9194 69.6889 33.7574 69.8629 33.5454 69.9869C33.3374 70.1109 33.0934 70.1729 32.8134 70.1729ZM32.8134 69.7829C33.0854 69.7829 33.3034 69.6869 33.4674 69.4949C33.6314 69.2989 33.7134 69.0209 33.7134 68.6609C33.7134 68.2969 33.6314 68.0189 33.4674 67.8269C33.3034 67.6349 33.0854 67.5389 32.8134 67.5389C32.5374 67.5389 32.3174 67.6349 32.1534 67.8269C31.9934 68.0189 31.9134 68.2969 31.9134 68.6609C31.9134 69.0209 31.9934 69.2989 32.1534 69.4949C32.3174 69.6869 32.5374 69.7829 32.8134 69.7829ZM34.9354 70.1189V67.2029H35.4094V67.7009C35.5054 67.5169 35.6414 67.3789 35.8174 67.2869C35.9934 67.1949 36.1914 67.1489 36.4114 67.1489C37.1034 67.1489 37.4494 67.5329 37.4494 68.3009V70.1189H36.9634V68.3309C36.9634 68.0589 36.9094 67.8609 36.8014 67.7369C36.6974 67.6089 36.5294 67.5449 36.2974 67.5449C36.0294 67.5449 35.8154 67.6289 35.6554 67.7969C35.4994 67.9609 35.4214 68.1809 35.4214 68.4569V70.1189H34.9354ZM39.6596 70.1729C39.1996 70.1729 38.8356 70.0389 38.5676 69.7709C38.2996 69.4989 38.1656 69.1309 38.1656 68.6669C38.1656 68.3669 38.2256 68.1029 38.3456 67.8749C38.4656 67.6429 38.6296 67.4649 38.8376 67.3409C39.0496 67.2129 39.2936 67.1489 39.5696 67.1489C39.9656 67.1489 40.2756 67.2769 40.4996 67.5329C40.7236 67.7849 40.8356 68.1329 40.8356 68.5769V68.7629H38.6396C38.6556 69.0949 38.7516 69.3489 38.9276 69.5249C39.1036 69.6969 39.3476 69.7829 39.6596 69.7829C39.8356 69.7829 40.0036 69.7569 40.1636 69.7049C40.3236 69.6489 40.4756 69.5589 40.6196 69.4349L40.7876 69.7769C40.6556 69.9009 40.4876 69.9989 40.2836 70.0709C40.0796 70.1389 39.8716 70.1729 39.6596 70.1729ZM39.5816 67.5089C39.3056 67.5089 39.0876 67.5949 38.9276 67.7669C38.7676 67.9389 38.6736 68.1649 38.6456 68.4449H40.4156C40.4036 68.1489 40.3256 67.9189 40.1816 67.7549C40.0416 67.5909 39.8416 67.5089 39.5816 67.5089Z" fill="#414141"/>
<path d="M15.5576 80.9595C15.0472 80.9595 14.6467 80.8495 14.3563 80.6296C14.0699 80.4097 13.9268 80.1047 13.9268 79.7146C13.9268 79.449 13.9953 79.2229 14.1322 79.0362C14.2733 78.8494 14.4559 78.7187 14.6799 78.644C14.4807 78.5569 14.3231 78.4241 14.2069 78.2457C14.0948 78.0673 14.0388 77.8618 14.0388 77.6295C14.0388 77.2602 14.1758 76.9718 14.4496 76.7643C14.7235 76.5527 15.0928 76.4469 15.5576 76.4469C16.0265 76.4469 16.3978 76.5527 16.6717 76.7643C16.9456 76.9718 17.0825 77.2602 17.0825 77.6295C17.0825 77.8618 17.0244 78.0693 16.9082 78.2519C16.7962 78.4303 16.6427 78.561 16.4476 78.644C16.6717 78.7187 16.8501 78.8515 16.9829 79.0424C17.1199 79.2291 17.1883 79.4532 17.1883 79.7146C17.1883 80.1047 17.0431 80.4097 16.7526 80.6296C16.4663 80.8495 16.0679 80.9595 15.5576 80.9595ZM15.5576 78.3639C15.8024 78.3639 15.9933 78.3059 16.1302 78.1897C16.2713 78.0735 16.3418 77.9137 16.3418 77.7104C16.3418 77.5112 16.2713 77.3556 16.1302 77.2436C15.9933 77.1274 15.8024 77.0693 15.5576 77.0693C15.3127 77.0693 15.1219 77.1274 14.9849 77.2436C14.848 77.3556 14.7795 77.5112 14.7795 77.7104C14.7795 77.9137 14.848 78.0735 14.9849 78.1897C15.1219 78.3059 15.3127 78.3639 15.5576 78.3639ZM15.5576 80.3371C16.1509 80.3371 16.4476 80.1109 16.4476 79.6586C16.4476 79.2105 16.1509 78.9864 15.5576 78.9864C15.2671 78.9864 15.0451 79.0424 14.8916 79.1544C14.7422 79.2665 14.6675 79.4345 14.6675 79.6586C14.6675 79.8827 14.7422 80.0528 14.8916 80.169C15.0451 80.281 15.2671 80.3371 15.5576 80.3371ZM19.2897 80.9595C18.771 80.9595 18.3747 80.7645 18.1009 80.3744C17.827 79.9802 17.6901 79.42 17.6901 78.6938C17.6901 77.9594 17.827 77.4013 18.1009 77.0195C18.3747 76.6377 18.771 76.4469 19.2897 76.4469C19.8126 76.4469 20.2088 76.6377 20.4786 77.0195C20.7524 77.4013 20.8894 77.9573 20.8894 78.6876C20.8894 79.4179 20.7524 79.9802 20.4786 80.3744C20.2047 80.7645 19.8084 80.9595 19.2897 80.9595ZM19.2897 80.3059C19.5719 80.3059 19.7794 80.1773 19.9121 79.92C20.0491 79.6586 20.1175 79.2478 20.1175 78.6876C20.1175 78.1316 20.0491 77.7291 19.9121 77.4801C19.7794 77.227 19.5719 77.1004 19.2897 77.1004C19.0117 77.1004 18.8042 77.227 18.6673 77.4801C18.5303 77.7291 18.4619 78.1316 18.4619 78.6876C18.4619 79.2478 18.5303 79.6586 18.6673 79.92C18.8042 80.1773 19.0117 80.3059 19.2897 80.3059ZM25.2535 80.9595C24.8261 80.9595 24.4609 80.8308 24.158 80.5736C23.8592 80.3163 23.658 79.9449 23.5542 79.4594H22.9505V78.9117H23.4858C23.4775 78.7623 23.4775 78.6212 23.4858 78.4884H22.9505V77.9407H23.5542C23.6621 77.4593 23.8655 77.09 24.1642 76.8328C24.463 76.5755 24.8261 76.4469 25.2535 76.4469C25.4942 76.4469 25.7224 76.4904 25.9382 76.5776C26.1539 76.6647 26.3324 76.7933 26.4734 76.9635L26.212 77.5174C26.0792 77.3722 25.9382 77.2705 25.7888 77.2124C25.6394 77.1544 25.4796 77.1253 25.3095 77.1253C25.0854 77.1253 24.8904 77.1917 24.7244 77.3245C24.5626 77.4531 24.4443 77.6585 24.3696 77.9407H25.3033V78.4884H24.2763C24.2721 78.6295 24.2742 78.7706 24.2825 78.9117H25.3033V79.4594H24.3696C24.4443 79.7457 24.5626 79.9553 24.7244 80.0881C24.8904 80.2167 25.0854 80.281 25.3095 80.281C25.4796 80.281 25.6394 80.252 25.7888 80.1939C25.9382 80.1316 26.0792 80.03 26.212 79.8889L26.4734 80.4366C26.3324 80.6109 26.1539 80.7416 25.9382 80.8288C25.7224 80.9159 25.4942 80.9595 25.2535 80.9595Z" fill="#414141"/>
<path d="M10.1338 91.0107H82.1695C83.1517 91.0107 83.9479 91.807 83.9479 92.7891V116.124C83.9479 117.106 83.1517 117.903 82.1695 117.903H10.1338V91.0107Z" fill="white"/>
<mask id="mask3_9012_678" style="mask-type:luminance" maskUnits="userSpaceOnUse" x="10" y="91" width="74" height="27">
<path d="M10.1338 91.0107H82.1695C83.1517 91.0107 83.9479 91.807 83.9479 92.7891V116.124C83.9479 117.106 83.1517 117.903 82.1695 117.903H10.1338V91.0107Z" fill="white"/>
</mask>
<g mask="url(#mask3_9012_678)">
<path d="M10.1338 90.5664H82.1695C83.3973 90.5664 84.3925 91.5616 84.3925 92.7893H83.5033C83.5033 92.0527 82.9062 91.4555 82.1695 91.4555H10.1338V90.5664ZM84.3925 116.124C84.3925 117.352 83.3973 118.347 82.1695 118.347H10.1338V117.458H82.1695C82.9062 117.458 83.5033 116.861 83.5033 116.124H84.3925ZM82.1695 90.5664C83.3973 90.5664 84.3925 91.5616 84.3925 92.7893V116.124C84.3925 117.352 83.3973 118.347 82.1695 118.347V117.458C82.9062 117.458 83.5033 116.861 83.5033 116.124V92.7893C83.5033 92.0527 82.9062 91.4555 82.1695 91.4555V90.5664Z" fill="#C6C6C6"/>
</g>
<path d="M10.1338 91.0107H82.1695C83.1517 91.0107 83.9479 91.807 83.9479 92.7891V116.124C83.9479 117.106 83.1517 117.903 82.1695 117.903H10.1338V91.0107Z" fill="white"/>
<path d="M14.2124 100.567V96.3375H15.8864C16.3424 96.3375 16.6904 96.4475 16.9304 96.6675C17.1744 96.8875 17.2964 97.2015 17.2964 97.6095C17.2964 98.0135 17.1744 98.3275 16.9304 98.5515C16.6904 98.7715 16.3424 98.8815 15.8864 98.8815H14.7044V100.567H14.2124ZM14.7044 98.4675H15.8264C16.4824 98.4675 16.8104 98.1815 16.8104 97.6095C16.8104 97.0335 16.4824 96.7455 15.8264 96.7455H14.7044V98.4675ZM17.8846 100.567V97.6515H18.3586V98.1735C18.5146 97.8215 18.8346 97.6275 19.3186 97.5915L19.4926 97.5735L19.5286 97.9935L19.2226 98.0295C18.9466 98.0535 18.7366 98.1415 18.5926 98.2935C18.4486 98.4415 18.3766 98.6455 18.3766 98.9055V100.567H17.8846ZM19.975 96.9255V96.3795H20.575V96.9255H19.975ZM20.035 100.567V97.6515H20.521V100.567H20.035ZM22.6656 100.621C22.3736 100.621 22.1216 100.559 21.9096 100.435C21.6976 100.307 21.5336 100.129 21.4176 99.9015C21.3056 99.6695 21.2496 99.3995 21.2496 99.0915C21.2496 98.6275 21.3756 98.2635 21.6276 97.9995C21.8796 97.7315 22.2256 97.5975 22.6656 97.5975C22.8456 97.5975 23.0236 97.6295 23.1996 97.6935C23.3756 97.7575 23.5216 97.8475 23.6376 97.9635L23.4696 98.3175C23.3536 98.2055 23.2256 98.1235 23.0856 98.0715C22.9496 98.0195 22.8196 97.9935 22.6956 97.9935C22.3916 97.9935 22.1576 98.0895 21.9936 98.2815C21.8296 98.4695 21.7476 98.7415 21.7476 99.0975C21.7476 99.4455 21.8296 99.7215 21.9936 99.9255C22.1576 100.125 22.3916 100.225 22.6956 100.225C22.8196 100.225 22.9496 100.199 23.0856 100.147C23.2256 100.095 23.3536 100.011 23.4696 99.8955L23.6376 100.249C23.5216 100.365 23.3736 100.457 23.1936 100.525C23.0176 100.589 22.8416 100.621 22.6656 100.621ZM25.4623 100.621C25.0023 100.621 24.6383 100.487 24.3703 100.219C24.1023 99.9475 23.9683 99.5795 23.9683 99.1155C23.9683 98.8155 24.0283 98.5515 24.1483 98.3235C24.2683 98.0915 24.4323 97.9135 24.6403 97.7895C24.8523 97.6615 25.0963 97.5975 25.3723 97.5975C25.7683 97.5975 26.0783 97.7255 26.3023 97.9815C26.5263 98.2335 26.6383 98.5815 26.6383 99.0255V99.2115H24.4423C24.4583 99.5435 24.5543 99.7975 24.7303 99.9735C24.9063 100.145 25.1503 100.231 25.4623 100.231C25.6383 100.231 25.8063 100.205 25.9663 100.153C26.1263 100.097 26.2783 100.007 26.4223 99.8835L26.5903 100.225C26.4583 100.349 26.2903 100.447 26.0863 100.519C25.8823 100.587 25.6743 100.621 25.4623 100.621ZM25.3843 97.9575C25.1083 97.9575 24.8903 98.0435 24.7303 98.2155C24.5703 98.3875 24.4763 98.6135 24.4483 98.8935H26.2183C26.2063 98.5975 26.1283 98.3675 25.9843 98.2035C25.8443 98.0395 25.6443 97.9575 25.3843 97.9575ZM28.7567 100.567V100.243L30.4247 98.0295H28.7567V97.6515H30.9647V97.9755L29.2967 100.189H31.0307V100.567H28.7567ZM32.8134 100.621C32.5294 100.621 32.2834 100.559 32.0754 100.435C31.8674 100.311 31.7054 100.137 31.5894 99.9135C31.4774 99.6855 31.4214 99.4175 31.4214 99.1095C31.4214 98.8015 31.4774 98.5355 31.5894 98.3115C31.7054 98.0835 31.8674 97.9075 32.0754 97.7835C32.2834 97.6595 32.5294 97.5975 32.8134 97.5975C33.0934 97.5975 33.3374 97.6595 33.5454 97.7835C33.7574 97.9075 33.9194 98.0835 34.0314 98.3115C34.1474 98.5355 34.2054 98.8015 34.2054 99.1095C34.2054 99.4175 34.1474 99.6855 34.0314 99.9135C33.9194 100.137 33.7574 100.311 33.5454 100.435C33.3374 100.559 33.0934 100.621 32.8134 100.621ZM32.8134 100.231C33.0854 100.231 33.3034 100.135 33.4674 99.9435C33.6314 99.7475 33.7134 99.4695 33.7134 99.1095C33.7134 98.7455 33.6314 98.4675 33.4674 98.2755C33.3034 98.0835 33.0854 97.9875 32.8134 97.9875C32.5374 97.9875 32.3174 98.0835 32.1534 98.2755C31.9934 98.4675 31.9134 98.7455 31.9134 99.1095C31.9134 99.4695 31.9934 99.7475 32.1534 99.9435C32.3174 100.135 32.5374 100.231 32.8134 100.231ZM34.9354 100.567V97.6515H35.4094V98.1495C35.5054 97.9655 35.6414 97.8275 35.8174 97.7355C35.9934 97.6435 36.1914 97.5975 36.4114 97.5975C37.1034 97.5975 37.4494 97.9815 37.4494 98.7495V100.567H36.9634V98.7795C36.9634 98.5075 36.9094 98.3095 36.8014 98.1855C36.6974 98.0575 36.5294 97.9935 36.2974 97.9935C36.0294 97.9935 35.8154 98.0775 35.6554 98.2455C35.4994 98.4095 35.4214 98.6295 35.4214 98.9055V100.567H34.9354ZM39.6596 100.621C39.1996 100.621 38.8356 100.487 38.5676 100.219C38.2996 99.9475 38.1656 99.5795 38.1656 99.1155C38.1656 98.8155 38.2256 98.5515 38.3456 98.3235C38.4656 98.0915 38.6296 97.9135 38.8376 97.7895C39.0496 97.6615 39.2936 97.5975 39.5696 97.5975C39.9656 97.5975 40.2756 97.7255 40.4996 97.9815C40.7236 98.2335 40.8356 98.5815 40.8356 99.0255V99.2115H38.6396C38.6556 99.5435 38.7516 99.7975 38.9276 99.9735C39.1036 100.145 39.3476 100.231 39.6596 100.231C39.8356 100.231 40.0036 100.205 40.1636 100.153C40.3236 100.097 40.4756 100.007 40.6196 99.8835L40.7876 100.225C40.6556 100.349 40.4876 100.447 40.2836 100.519C40.0796 100.587 39.8716 100.621 39.6596 100.621ZM39.5816 97.9575C39.3056 97.9575 39.0876 98.0435 38.9276 98.2155C38.7676 98.3875 38.6736 98.6135 38.6456 98.8935H40.4156C40.4036 98.5975 40.3256 98.3675 40.1816 98.2035C40.0416 98.0395 39.8416 97.9575 39.5816 97.9575Z" fill="#414141"/>
<path d="M14.3688 111.346V110.686H15.3585V107.866L14.5929 108.327L14.2817 107.742L15.5888 106.958H16.1552V110.686H17.0826V111.346H14.3688ZM19.3272 111.408C19.0408 111.408 18.7628 111.365 18.4931 111.277C18.2234 111.186 18.0035 111.064 17.8333 110.91L18.0947 110.3C18.4724 110.591 18.879 110.736 19.3147 110.736C19.5761 110.736 19.7795 110.669 19.9247 110.537C20.0741 110.4 20.1488 110.217 20.1488 109.989C20.1488 109.757 20.0782 109.57 19.9371 109.429C19.7961 109.284 19.6031 109.211 19.3583 109.211C19.0097 109.211 18.7213 109.35 18.4931 109.628H17.9578V106.958H20.6529V107.618H18.7358V108.806C18.9558 108.64 19.2255 108.557 19.545 108.557C19.823 108.557 20.0637 108.618 20.267 108.738C20.4745 108.854 20.6343 109.018 20.7463 109.23C20.8625 109.437 20.9206 109.68 20.9206 109.958C20.9206 110.244 20.8563 110.497 20.7276 110.717C20.599 110.933 20.4143 111.103 20.1737 111.228C19.9371 111.348 19.655 111.408 19.3272 111.408ZM23.022 111.408C22.5033 111.408 22.107 111.213 21.8331 110.823C21.5593 110.429 21.4223 109.869 21.4223 109.142C21.4223 108.408 21.5593 107.85 21.8331 107.468C22.107 107.086 22.5033 106.895 23.022 106.895C23.5448 106.895 23.9411 107.086 24.2108 107.468C24.4847 107.85 24.6216 108.406 24.6216 109.136C24.6216 109.867 24.4847 110.429 24.2108 110.823C23.9369 111.213 23.5407 111.408 23.022 111.408ZM23.022 110.755C23.3041 110.755 23.5116 110.626 23.6444 110.369C23.7813 110.107 23.8498 109.696 23.8498 109.136C23.8498 108.58 23.7813 108.178 23.6444 107.929C23.5116 107.676 23.3041 107.549 23.022 107.549C22.7439 107.549 22.5365 107.676 22.3995 107.929C22.2626 108.178 22.1941 108.58 22.1941 109.136C22.1941 109.696 22.2626 110.107 22.3995 110.369C22.5365 110.626 22.7439 110.755 23.022 110.755ZM28.9857 111.408C28.5583 111.408 28.1932 111.279 27.8903 111.022C27.5915 110.765 27.3902 110.394 27.2865 109.908H26.6827V109.36H27.218C27.2097 109.211 27.2097 109.07 27.218 108.937H26.6827V108.389H27.2865C27.3944 107.908 27.5977 107.539 27.8965 107.281C28.1952 107.024 28.5583 106.895 28.9857 106.895C29.2264 106.895 29.4546 106.939 29.6704 107.026C29.8862 107.113 30.0646 107.242 30.2057 107.412L29.9443 107.966C29.8115 107.821 29.6704 107.719 29.521 107.661C29.3716 107.603 29.2119 107.574 29.0418 107.574C28.8177 107.574 28.6227 107.64 28.4567 107.773C28.2948 107.902 28.1766 108.107 28.1019 108.389H29.0355V108.937H28.0085C28.0044 109.078 28.0064 109.219 28.0147 109.36H29.0355V109.908H28.1019C28.1766 110.194 28.2948 110.404 28.4567 110.537C28.6227 110.665 28.8177 110.73 29.0418 110.73C29.2119 110.73 29.3716 110.701 29.521 110.643C29.6704 110.58 29.8115 110.479 29.9443 110.338L30.2057 110.885C30.0646 111.06 29.8862 111.19 29.6704 111.277C29.4546 111.365 29.2264 111.408 28.9857 111.408Z" fill="#414141"/>
<path d="M184.291 69.2733H149.707L133.042 81.0519V111L137.928 118.267H196.195L201.582 111V81.4278L184.291 69.2733Z" fill="#3BA0A8"/>
<path d="M218.875 103.356V102.98V89.4472V76.0397H213.862L213.987 103.732L213.737 111.5L209.853 118.393H215.116L219 111.5L218.875 103.356Z" fill="#A6E2E7"/>
<path d="M121.012 103.732L121.137 76.0397H116.125V89.4472V102.98V103.356L116 111.5L119.884 118.393H125.147L121.263 111.5L121.012 103.732Z" fill="#A6E2E7"/>
<path d="M205.718 76.0397L205.843 103.732L205.718 111.5L201.708 118.393H207.096L210.855 111.5V103.356V102.98V89.4472V76.0397H205.718Z" fill="#A6E2E7"/>
<path d="M129.157 103.732L129.282 76.0397H124.145V89.4472V102.98V103.356V111.5L127.904 118.393H133.292L129.282 111.5L129.157 103.732Z" fill="#A6E2E7"/>
<path d="M201.708 32.0583H132.916V73.2836H133.417L149.581 61.7556H184.291L200.705 73.2836H201.708V32.0583Z" fill="#6BC1C8"/>
<path d="M196.069 124.658H136.55V138.066H196.069V124.658Z" fill="#BABABA" stroke="white" stroke-width="1.25304"/>
</g>
<path d="M76.4238 30.9891H12.8403C10.7693 30.9891 9.09033 32.6681 9.09033 34.7391V51.5443C9.09033 53.6154 10.7693 55.2943 12.8403 55.2943H76.4238C78.4949 55.2943 80.1738 53.6154 80.1738 51.5443V34.7391C80.1738 32.6681 78.4949 30.9891 76.4238 30.9891Z" stroke="#CCCCCC" stroke-width="0.5"/>
<path d="M76.4238 60.7554H12.8403C10.7693 60.7554 9.09033 62.4343 9.09033 64.5054V81.3106C9.09033 83.3816 10.7693 85.0606 12.8403 85.0606H76.4238C78.4949 85.0606 80.1738 83.3816 80.1738 81.3106V64.5054C80.1738 62.4343 78.4949 60.7554 76.4238 60.7554Z" stroke="#CCCCCC" stroke-width="0.5"/>
<path d="M76.4238 90.5216H12.8403C10.7693 90.5216 9.09033 92.2005 9.09033 94.2716V111.077C9.09033 113.148 10.7693 114.827 12.8403 114.827H76.4238C78.4949 114.827 80.1738 113.148 80.1738 111.077V94.2716C80.1738 92.2005 78.4949 90.5216 76.4238 90.5216Z" stroke="#CCCCCC" stroke-width="0.5"/>
</g>
</g>
<defs>
<clipPath id="clip0_9012_678">
<rect width="240" height="160" fill="white"/>
</clipPath>
</defs>
</svg>
