<svg width="240" height="160" viewBox="0 0 240 160" fill="none" xmlns="http://www.w3.org/2000/svg">
<g clip-path="url(#clip0_9007_23345)">
<mask id="mask0_9007_23345" style="mask-type:luminance" maskUnits="userSpaceOnUse" x="0" y="0" width="240" height="160">
<path d="M240 0H0V160H240V0Z" fill="white"/>
</mask>
<g mask="url(#mask0_9007_23345)">
<path d="M240 0H0V160H240V0Z" fill="white"/>
<path d="M153 10H241.788V170.629H153V10Z" fill="white"/>
<mask id="mask1_9007_23345" style="mask-type:luminance" maskUnits="userSpaceOnUse" x="152" y="10" width="90" height="161">
<path d="M242 10H152V171H242V10Z" fill="white"/>
<path d="M153 10H241.788V170.629H153V10Z" fill="black"/>
</mask>
<g mask="url(#mask1_9007_23345)">
<path d="M153.253 170.629V10H152.747V170.629H153.253Z" fill="#BBBBBB"/>
</g>
<path d="M206.004 17H157.996C157.446 17 157 17.446 157 17.9962V22.0038C157 22.554 157.446 23 157.996 23H206.004C206.554 23 207 22.554 207 22.0038V17.9962C207 17.446 206.554 17 206.004 17Z" fill="#E9E9E9"/>
<path d="M241.742 30H153.001V64.835H241.742V30Z" fill="white"/>
<path d="M160.5 35.5997L159.787 36.2217L160 37.1476C160.012 37.196 160.008 37.2467 159.991 37.2933C159.974 37.3399 159.943 37.3803 159.903 37.4096C159.863 37.4388 159.815 37.4555 159.765 37.4577C159.715 37.4598 159.666 37.4473 159.624 37.4216L158.816 36.9318L158.01 37.4216C157.968 37.4473 157.918 37.4598 157.869 37.4577C157.819 37.4555 157.771 37.4388 157.731 37.4096C157.691 37.3803 157.66 37.3399 157.643 37.2933C157.625 37.2467 157.622 37.196 157.633 37.1476L157.847 36.2226L157.134 35.5997C157.096 35.5672 157.069 35.5243 157.055 35.4763C157.042 35.4284 157.043 35.3775 157.058 35.3302C157.074 35.2828 157.103 35.2411 157.142 35.2102C157.181 35.1792 157.228 35.1605 157.278 35.1563L158.217 35.0749L158.584 34.2002C158.603 34.1543 158.636 34.1151 158.677 34.0875C158.718 34.0599 158.767 34.0452 158.817 34.0452C158.866 34.0452 158.915 34.0599 158.956 34.0875C158.998 34.1151 159.03 34.1543 159.049 34.2002L159.417 35.0749L160.356 35.1563C160.406 35.1605 160.453 35.1792 160.492 35.2102C160.531 35.2411 160.56 35.2828 160.576 35.3302C160.591 35.3775 160.592 35.4284 160.579 35.4763C160.565 35.5243 160.538 35.5672 160.5 35.5997Z" fill="#FFA55A"/>
<path d="M158.888 45.5031L157.04 41.2731H157.568L159.122 44.8791L160.67 41.2731H161.186L159.332 45.5031H158.888ZM162.601 45.5571C162.141 45.5571 161.777 45.4231 161.509 45.1551C161.241 44.8831 161.107 44.5151 161.107 44.0511C161.107 43.7511 161.167 43.4871 161.287 43.2591C161.407 43.0271 161.571 42.8491 161.779 42.7251C161.991 42.5971 162.235 42.5331 162.511 42.5331C162.907 42.5331 163.217 42.6611 163.441 42.9171C163.665 43.1691 163.777 43.5171 163.777 43.9611V44.1471H161.581C161.597 44.4791 161.693 44.7331 161.869 44.9091C162.045 45.0811 162.289 45.1671 162.601 45.1671C162.777 45.1671 162.945 45.1411 163.105 45.0891C163.265 45.0331 163.417 44.9431 163.561 44.8191L163.729 45.1611C163.597 45.2851 163.429 45.3831 163.225 45.4551C163.021 45.5231 162.813 45.5571 162.601 45.5571ZM162.523 42.8931C162.247 42.8931 162.029 42.9791 161.869 43.1511C161.709 43.3231 161.615 43.5491 161.587 43.8291H163.357C163.345 43.5331 163.267 43.3031 163.123 43.1391C162.983 42.9751 162.783 42.8931 162.523 42.8931ZM164.481 45.5031V42.5871H164.955V43.0851C165.051 42.9011 165.187 42.7631 165.363 42.6711C165.539 42.5791 165.737 42.5331 165.957 42.5331C166.649 42.5331 166.995 42.9171 166.995 43.6851V45.5031H166.509V43.7151C166.509 43.4431 166.455 43.2451 166.347 43.1211C166.243 42.9931 166.075 42.9291 165.843 42.9291C165.575 42.9291 165.361 43.0131 165.201 43.1811C165.045 43.3451 164.967 43.5651 164.967 43.8411V45.5031H164.481ZM168.923 45.5571C168.223 45.5571 167.873 45.1711 167.873 44.3991V42.5871H168.359V44.3931C168.359 44.6531 168.411 44.8451 168.515 44.9691C168.623 45.0931 168.791 45.1551 169.019 45.1551C169.267 45.1551 169.469 45.0731 169.625 44.9091C169.781 44.7411 169.859 44.5191 169.859 44.2431V42.5871H170.345V45.5031H169.871V45.0111C169.779 45.1871 169.649 45.3231 169.481 45.4191C169.317 45.5111 169.131 45.5571 168.923 45.5571ZM172.568 45.5571C172.108 45.5571 171.744 45.4231 171.476 45.1551C171.208 44.8831 171.074 44.5151 171.074 44.0511C171.074 43.7511 171.134 43.4871 171.254 43.2591C171.374 43.0271 171.538 42.8491 171.746 42.7251C171.958 42.5971 172.202 42.5331 172.478 42.5331C172.874 42.5331 173.184 42.6611 173.408 42.9171C173.632 43.1691 173.744 43.5171 173.744 43.9611V44.1471H171.548C171.564 44.4791 171.66 44.7331 171.836 44.9091C172.012 45.0811 172.256 45.1671 172.568 45.1671C172.744 45.1671 172.912 45.1411 173.072 45.0891C173.232 45.0331 173.384 44.9431 173.528 44.8191L173.696 45.1611C173.564 45.2851 173.396 45.3831 173.192 45.4551C172.988 45.5231 172.78 45.5571 172.568 45.5571ZM172.49 42.8931C172.214 42.8931 171.996 42.9791 171.836 43.1511C171.676 43.3231 171.582 43.5491 171.554 43.8291H173.324C173.312 43.5331 173.234 43.3031 173.09 43.1391C172.95 42.9751 172.75 42.8931 172.49 42.8931ZM176.846 45.5031L175.592 42.5871H176.12L177.086 44.9511L178.064 42.5871H178.562L177.302 45.5031H176.846ZM179.016 41.8611V41.3151H179.616V41.8611H179.016ZM179.076 45.5031V42.5871H179.562V45.5031H179.076ZM181.785 45.5571C181.325 45.5571 180.961 45.4231 180.693 45.1551C180.425 44.8831 180.291 44.5151 180.291 44.0511C180.291 43.7511 180.351 43.4871 180.471 43.2591C180.591 43.0271 180.755 42.8491 180.963 42.7251C181.175 42.5971 181.419 42.5331 181.695 42.5331C182.091 42.5331 182.401 42.6611 182.625 42.9171C182.849 43.1691 182.961 43.5171 182.961 43.9611V44.1471H180.765C180.781 44.4791 180.877 44.7331 181.053 44.9091C181.229 45.0811 181.473 45.1671 181.785 45.1671C181.961 45.1671 182.129 45.1411 182.289 45.0891C182.449 45.0331 182.601 44.9431 182.745 44.8191L182.913 45.1611C182.781 45.2851 182.613 45.3831 182.409 45.4551C182.205 45.5231 181.997 45.5571 181.785 45.5571ZM181.707 42.8931C181.431 42.8931 181.213 42.9791 181.053 43.1511C180.893 43.3231 180.799 43.5491 180.771 43.8291H182.541C182.529 43.5331 182.451 43.3031 182.307 43.1391C182.167 42.9751 181.967 42.8931 181.707 42.8931ZM184.403 45.5031L183.317 42.5871H183.827L184.649 44.9331L185.501 42.5871H185.915L186.755 44.9391L187.589 42.5871H188.075L186.983 45.5031H186.521L185.699 43.2411L184.871 45.5031H184.403Z" fill="#414141"/>
<path d="M158.709 52.5725C158.43 52.5725 158.163 52.5318 157.907 52.4504C157.655 52.3651 157.445 52.2508 157.279 52.1073L157.523 51.5375C157.872 51.8088 158.259 51.9445 158.686 51.9445C159.209 51.9445 159.471 51.7391 159.471 51.3281C159.471 51.1343 159.405 50.9909 159.273 50.8978C159.145 50.8009 158.957 50.7525 158.709 50.7525H158.052V50.1361H158.639C158.856 50.1361 159.029 50.0837 159.157 49.9791C159.285 49.8705 159.349 49.7213 159.349 49.5313C159.349 49.353 159.289 49.2173 159.169 49.1243C159.052 49.0312 158.882 48.9847 158.657 48.9847C158.254 48.9847 157.899 49.1243 157.593 49.4034L157.348 48.8451C157.511 48.6901 157.715 48.5699 157.959 48.4846C158.203 48.3993 158.457 48.3567 158.721 48.3567C159.147 48.3567 159.479 48.4536 159.715 48.6474C159.952 48.8374 160.07 49.1029 160.07 49.4441C160.07 49.6651 160.014 49.8589 159.901 50.0256C159.789 50.1923 159.636 50.3125 159.442 50.3861C159.678 50.452 159.862 50.5741 159.994 50.7525C160.126 50.9269 160.192 51.1401 160.192 51.3921C160.192 51.7565 160.06 52.0453 159.797 52.2585C159.533 52.4679 159.171 52.5725 158.709 52.5725ZM162.312 52.5725C162.045 52.5725 161.785 52.5318 161.533 52.4504C161.281 52.3651 161.076 52.2508 160.917 52.1073L161.161 51.5375C161.514 51.8088 161.894 51.9445 162.301 51.9445C162.545 51.9445 162.735 51.8825 162.87 51.7584C163.01 51.6305 163.08 51.4599 163.08 51.2467C163.08 51.0296 163.014 50.8552 162.882 50.7234C162.75 50.5877 162.57 50.5199 162.341 50.5199C162.016 50.5199 161.746 50.6497 161.533 50.9095H161.033V48.4148H163.551V49.0312H161.76V50.1419C161.965 49.9868 162.217 49.9093 162.516 49.9093C162.775 49.9093 163 49.9655 163.19 50.0779C163.384 50.1865 163.533 50.3396 163.638 50.5373C163.747 50.7311 163.801 50.9579 163.801 51.2177C163.801 51.4851 163.741 51.7216 163.621 51.9271C163.5 52.1287 163.328 52.2876 163.103 52.4039C162.882 52.5163 162.618 52.5725 162.312 52.5725ZM167.849 52.5725C167.45 52.5725 167.108 52.4524 166.825 52.212C166.546 51.9717 166.358 51.6247 166.261 51.1711H165.697V50.6594H166.197C166.19 50.5199 166.19 50.3881 166.197 50.264H165.697V49.7523H166.261C166.362 49.3026 166.552 48.9576 166.831 48.7172C167.11 48.4769 167.45 48.3567 167.849 48.3567C168.074 48.3567 168.287 48.3974 168.488 48.4788C168.69 48.5602 168.857 48.6804 168.989 48.8393L168.744 49.3569C168.62 49.2212 168.488 49.1262 168.349 49.0719C168.209 49.0177 168.06 48.9905 167.901 48.9905C167.692 48.9905 167.51 49.0526 167.355 49.1766C167.203 49.2968 167.093 49.4887 167.023 49.7523H167.895V50.264H166.936C166.932 50.3958 166.934 50.5276 166.942 50.6594H167.895V51.1711H167.023C167.093 51.4386 167.203 51.6344 167.355 51.7584C167.51 51.8786 167.692 51.9387 167.901 51.9387C168.06 51.9387 168.209 51.9116 168.349 51.8573C168.488 51.7991 168.62 51.7042 168.744 51.5724L168.989 52.0841C168.857 52.2469 168.69 52.369 168.488 52.4504C168.287 52.5318 168.074 52.5725 167.849 52.5725Z" fill="#414141"/>
<path d="M157.294 59.537L157.354 59.1618H157.917L158.168 57.5867L157.715 57.8345L157.573 57.4876L158.384 57.0416H158.706L158.37 59.1618H158.897L158.837 59.537H157.294ZM160.188 59.5724C159.921 59.5724 159.717 59.4922 159.575 59.3317C159.436 59.1689 159.367 58.9353 159.367 58.6309C159.367 58.2958 159.408 58.0079 159.491 57.7672C159.575 57.5242 159.695 57.3366 159.848 57.2044C160.004 57.0723 160.187 57.0062 160.397 57.0062C160.663 57.0062 160.866 57.0864 161.005 57.2469C161.147 57.4074 161.218 57.6386 161.218 57.9407C161.218 58.2757 161.175 58.566 161.09 58.8114C161.008 59.0544 160.889 59.242 160.733 59.3742C160.58 59.5063 160.398 59.5724 160.188 59.5724ZM160.209 59.2007C160.377 59.2007 160.512 59.0898 160.616 58.868C160.722 58.6462 160.777 58.3147 160.779 57.8734C160.781 57.543 160.647 57.3779 160.375 57.3779C160.21 57.3779 160.073 57.4888 159.965 57.7106C159.859 57.9324 159.806 58.2628 159.806 58.7017C159.806 59.0344 159.94 59.2007 160.209 59.2007ZM162.31 59.5724C162.044 59.5724 161.839 59.4922 161.698 59.3317C161.559 59.1689 161.489 58.9353 161.489 58.6309C161.489 58.2958 161.53 58.0079 161.613 57.7672C161.698 57.5242 161.817 57.3366 161.97 57.2044C162.126 57.0723 162.309 57.0062 162.519 57.0062C162.786 57.0062 162.989 57.0864 163.128 57.2469C163.269 57.4074 163.34 57.6386 163.34 57.9407C163.34 58.2757 163.298 58.566 163.213 58.8114C163.13 59.0544 163.011 59.242 162.855 59.3742C162.702 59.5063 162.52 59.5724 162.31 59.5724ZM162.331 59.2007C162.499 59.2007 162.635 59.0898 162.738 58.868C162.845 58.6462 162.899 58.3147 162.901 57.8734C162.904 57.543 162.769 57.3779 162.498 57.3779C162.333 57.3779 162.196 57.4888 162.087 57.7106C161.981 57.9324 161.928 58.2628 161.928 58.7017C161.928 59.0344 162.062 59.2007 162.331 59.2007ZM165.28 59.5724C165.049 59.5724 164.882 59.5099 164.778 59.3848C164.674 59.2574 164.637 59.0934 164.668 58.8928L164.788 58.1389H164.456L164.509 57.8062H164.841L164.923 57.2894H165.365L165.284 57.8062H165.808L165.755 58.1389H165.231L165.114 58.8645C165.095 58.9872 165.109 59.0757 165.156 59.1299C165.206 59.1819 165.282 59.2078 165.383 59.2078C165.418 59.2078 165.453 59.2043 165.486 59.1972C165.519 59.1901 165.551 59.1819 165.581 59.1724L165.606 59.5051C165.568 59.5264 165.519 59.5429 165.457 59.5547C165.396 59.5665 165.337 59.5724 165.28 59.5724ZM166.129 57.4345L166.2 57.0027H166.692L166.621 57.4345H166.129ZM165.818 59.537L166.094 57.8062H166.536L166.26 59.537H165.818ZM167.583 59.5724C167.307 59.5724 167.101 59.5004 166.964 59.3565C166.827 59.2102 166.759 59.019 166.759 58.7831C166.759 58.6556 166.778 58.5318 166.815 58.4114C166.855 58.2887 166.916 58.1802 166.996 58.0858C167.076 57.989 167.178 57.9123 167.3 57.8557C167.425 57.7991 167.572 57.7708 167.739 57.7708C167.855 57.7708 167.966 57.7885 168.072 57.8238C168.178 57.8569 168.264 57.9029 168.33 57.9619L168.192 58.2698C168.081 58.166 167.94 58.1141 167.767 58.1141C167.633 58.1141 167.524 58.1471 167.442 58.2132C167.362 58.2793 167.303 58.363 167.265 58.4645C167.229 58.566 167.212 58.671 167.212 58.7795C167.212 58.914 167.245 59.0226 167.311 59.1052C167.379 59.1878 167.491 59.229 167.647 59.229C167.713 59.229 167.783 59.2161 167.856 59.1901C167.931 59.1642 168 59.1252 168.061 59.0733L168.164 59.3883C168.098 59.4473 168.009 59.4933 167.898 59.5264C167.79 59.557 167.685 59.5724 167.583 59.5724ZM168.393 59.537L168.786 57.0416H169.228L168.991 58.5424H168.998L169.802 57.8062H170.329L169.426 58.6556L170.124 59.537H169.61L168.966 58.7477H168.959L168.835 59.537H168.393ZM171.151 59.5724C170.977 59.5724 170.825 59.5405 170.695 59.4768C170.567 59.4107 170.468 59.3187 170.398 59.2007C170.327 59.0827 170.291 58.9447 170.291 58.7866C170.291 58.5931 170.331 58.4209 170.412 58.2698C170.494 58.1165 170.608 57.9949 170.751 57.9053C170.895 57.8156 171.061 57.7708 171.247 57.7708C171.436 57.7708 171.586 57.8132 171.697 57.8982C171.807 57.9808 171.883 58.0917 171.923 58.2309C171.966 58.3678 171.977 58.5176 171.958 58.6804L171.948 58.7724H170.705C170.701 58.9164 170.741 59.0297 170.826 59.1122C170.911 59.1948 171.032 59.2361 171.19 59.2361C171.294 59.2361 171.392 59.222 171.484 59.1937C171.579 59.163 171.662 59.1181 171.735 59.0591L171.845 59.3494C171.763 59.4202 171.659 59.4756 171.534 59.5158C171.411 59.5535 171.284 59.5724 171.151 59.5724ZM171.243 58.0716C171.144 58.0716 171.061 58.0929 170.992 58.1353C170.924 58.1754 170.869 58.2297 170.829 58.2981C170.789 58.3666 170.76 58.4397 170.741 58.5176H171.619C171.628 58.3902 171.603 58.284 171.544 58.199C171.485 58.1141 171.385 58.0716 171.243 58.0716ZM172.989 59.5724C172.757 59.5724 172.59 59.5099 172.486 59.3848C172.382 59.2574 172.346 59.0934 172.376 58.8928L172.497 58.1389H172.164L172.217 57.8062H172.55L172.631 57.2894H173.073L172.992 57.8062H173.516L173.463 58.1389H172.939L172.822 58.8645C172.803 58.9872 172.817 59.0757 172.865 59.1299C172.914 59.1819 172.99 59.2078 173.091 59.2078C173.127 59.2078 173.161 59.2043 173.194 59.1972C173.227 59.1901 173.259 59.1819 173.289 59.1724L173.314 59.5051C173.276 59.5264 173.227 59.5429 173.166 59.5547C173.104 59.5665 173.045 59.5724 172.989 59.5724ZM174.234 59.5724C174.087 59.5724 173.949 59.5547 173.82 59.5193C173.692 59.4815 173.585 59.4296 173.497 59.3635L173.636 59.0768C173.72 59.1358 173.815 59.1819 173.919 59.2149C174.025 59.2456 174.13 59.2609 174.234 59.2609C174.345 59.2609 174.43 59.2408 174.489 59.2007C174.548 59.1583 174.577 59.1028 174.577 59.0344C174.577 58.9423 174.513 58.8822 174.386 58.8539L174.06 58.7866C173.93 58.7606 173.829 58.7099 173.756 58.6344C173.683 58.5565 173.646 58.4598 173.646 58.3442C173.646 58.238 173.676 58.1424 173.735 58.0575C173.796 57.9702 173.884 57.9005 174 57.8486C174.118 57.7967 174.26 57.7708 174.425 57.7708C174.538 57.7708 174.651 57.7885 174.765 57.8238C174.88 57.8569 174.977 57.9064 175.055 57.9725L174.924 58.2557C174.851 58.1967 174.769 58.153 174.68 58.1247C174.59 58.0964 174.498 58.0822 174.404 58.0822C174.288 58.0822 174.199 58.1047 174.138 58.1495C174.077 58.192 174.046 58.2486 174.046 58.3194C174.046 58.3619 174.059 58.3984 174.085 58.4291C174.113 58.4598 174.157 58.481 174.216 58.4928L174.542 58.5601C174.832 58.6214 174.977 58.7689 174.977 59.0025C174.977 59.1842 174.909 59.3246 174.772 59.4237C174.637 59.5228 174.458 59.5724 174.234 59.5724ZM176.799 59.5724C176.693 59.5724 176.596 59.5488 176.509 59.5016C176.422 59.452 176.351 59.3871 176.297 59.3069C176.245 59.2267 176.219 59.137 176.219 59.0379C176.219 58.8562 176.297 58.7229 176.452 58.6379C176.61 58.553 176.857 58.5105 177.192 58.5105H177.436L177.447 58.4468C177.466 58.3359 177.448 58.251 177.394 58.192C177.342 58.133 177.25 58.1035 177.118 58.1035C176.908 58.1035 176.71 58.1625 176.523 58.2805L176.424 57.976C176.514 57.9147 176.627 57.8651 176.764 57.8274C176.901 57.7896 177.038 57.7708 177.174 57.7708C177.361 57.7708 177.507 57.805 177.613 57.8734C177.719 57.9418 177.791 58.035 177.829 58.153C177.867 58.271 177.874 58.4055 177.85 58.5565L177.695 59.537H177.281L177.32 59.2821C177.261 59.3812 177.185 59.4544 177.093 59.5016C177.001 59.5488 176.903 59.5724 176.799 59.5724ZM176.937 59.268C177.048 59.268 177.145 59.2326 177.227 59.1618C177.31 59.0886 177.361 58.9907 177.38 58.868L177.397 58.7654H177.213C177.006 58.7654 176.859 58.7831 176.774 58.8185C176.692 58.8515 176.651 58.9152 176.651 59.0096C176.651 59.0922 176.678 59.1559 176.732 59.2007C176.789 59.2456 176.857 59.268 176.937 59.268ZM178.636 59.537L178.162 57.8062H178.611L178.902 59.0167L179.592 57.8062H180.052L179.022 59.537H178.636ZM180.55 59.5724C180.443 59.5724 180.347 59.5488 180.259 59.5016C180.172 59.452 180.101 59.3871 180.047 59.3069C179.995 59.2267 179.969 59.137 179.969 59.0379C179.969 58.8562 180.047 58.7229 180.203 58.6379C180.361 58.553 180.607 58.5105 180.942 58.5105H181.187L181.197 58.4468C181.216 58.3359 181.199 58.251 181.144 58.192C181.092 58.133 181 58.1035 180.868 58.1035C180.658 58.1035 180.46 58.1625 180.274 58.2805L180.174 57.976C180.264 57.9147 180.377 57.8651 180.514 57.8274C180.651 57.7896 180.788 57.7708 180.925 57.7708C181.111 57.7708 181.258 57.805 181.364 57.8734C181.47 57.9418 181.542 58.035 181.58 58.153C181.617 58.271 181.624 58.4055 181.601 58.5565L181.445 59.537H181.031L181.07 59.2821C181.011 59.3812 180.935 59.4544 180.843 59.5016C180.751 59.5488 180.653 59.5724 180.55 59.5724ZM180.688 59.268C180.799 59.268 180.895 59.2326 180.978 59.1618C181.06 59.0886 181.111 58.9907 181.13 58.868L181.148 58.7654H180.964C180.756 58.7654 180.61 58.7831 180.525 58.8185C180.442 58.8515 180.401 58.9152 180.401 59.0096C180.401 59.0922 180.428 59.1559 180.482 59.2007C180.539 59.2456 180.607 59.268 180.688 59.268ZM182.206 57.4345L182.276 57.0027H182.768L182.698 57.4345H182.206ZM181.894 59.537L182.17 57.8062H182.613L182.337 59.537H181.894ZM183.409 59.5724C183.208 59.5724 183.064 59.5169 182.977 59.406C182.89 59.2928 182.862 59.1288 182.895 58.914L183.193 57.0416H183.635L183.338 58.9105C183.321 59.0143 183.331 59.091 183.366 59.1406C183.404 59.1878 183.468 59.2113 183.557 59.2113C183.583 59.2113 183.609 59.2102 183.635 59.2078C183.661 59.2031 183.687 59.1996 183.713 59.1972L183.653 59.5405C183.582 59.5618 183.501 59.5724 183.409 59.5724ZM184.518 59.5724C184.412 59.5724 184.315 59.5488 184.228 59.5016C184.14 59.452 184.069 59.3871 184.015 59.3069C183.963 59.2267 183.937 59.137 183.937 59.0379C183.937 58.8562 184.015 58.7229 184.171 58.6379C184.329 58.553 184.576 58.5105 184.911 58.5105H185.155L185.165 58.4468C185.184 58.3359 185.167 58.251 185.112 58.192C185.06 58.133 184.968 58.1035 184.836 58.1035C184.626 58.1035 184.428 58.1625 184.242 58.2805L184.143 57.976C184.232 57.9147 184.345 57.8651 184.482 57.8274C184.619 57.7896 184.756 57.7708 184.893 57.7708C185.079 57.7708 185.226 57.805 185.332 57.8734C185.438 57.9418 185.51 58.035 185.548 58.153C185.586 58.271 185.593 58.4055 185.569 58.5565L185.413 59.537H184.999L185.038 59.2821C184.979 59.3812 184.904 59.4544 184.812 59.5016C184.72 59.5488 184.622 59.5724 184.518 59.5724ZM184.656 59.268C184.767 59.268 184.863 59.2326 184.946 59.1618C185.029 59.0886 185.079 58.9907 185.098 58.868L185.116 58.7654H184.932C184.724 58.7654 184.578 58.7831 184.493 58.8185C184.41 58.8515 184.369 58.9152 184.369 59.0096C184.369 59.0922 184.396 59.1559 184.45 59.2007C184.507 59.2456 184.576 59.268 184.656 59.268ZM186.896 59.5724C186.768 59.5724 186.655 59.5441 186.556 59.4874C186.459 59.4284 186.387 59.3423 186.34 59.229L186.294 59.537H185.862L186.259 57.0416H186.701L186.538 58.0575C186.604 57.9678 186.686 57.8982 186.783 57.8486C186.882 57.7967 186.991 57.7708 187.112 57.7708C187.31 57.7708 187.468 57.838 187.586 57.9725C187.706 58.1047 187.767 58.2863 187.767 58.5176C187.767 58.7135 187.731 58.8916 187.66 59.0521C187.592 59.2102 187.493 59.3364 187.363 59.4308C187.233 59.5252 187.078 59.5724 186.896 59.5724ZM186.814 59.2361C186.923 59.2361 187.014 59.2055 187.087 59.1441C187.163 59.0827 187.22 58.999 187.26 58.8928C187.301 58.7866 187.321 58.6686 187.321 58.5388C187.321 58.3996 187.286 58.2934 187.218 58.2203C187.152 58.1448 187.06 58.107 186.942 58.107C186.836 58.107 186.745 58.1377 186.669 58.199C186.594 58.2604 186.536 58.3442 186.496 58.4503C186.456 58.5542 186.436 58.6722 186.436 58.8043C186.436 58.9435 186.469 59.0509 186.535 59.1264C186.603 59.1996 186.696 59.2361 186.814 59.2361ZM188.597 59.5724C188.396 59.5724 188.252 59.5169 188.165 59.406C188.078 59.2928 188.051 59.1288 188.084 58.914L188.381 57.0416H188.824L188.526 58.9105C188.51 59.0143 188.519 59.091 188.555 59.1406C188.592 59.1878 188.656 59.2113 188.746 59.2113C188.772 59.2113 188.798 59.2102 188.824 59.2078C188.85 59.2031 188.875 59.1996 188.901 59.1972L188.841 59.5405C188.77 59.5618 188.689 59.5724 188.597 59.5724ZM189.997 59.5724C189.822 59.5724 189.67 59.5405 189.54 59.4768C189.413 59.4107 189.314 59.3187 189.243 59.2007C189.172 59.0827 189.137 58.9447 189.137 58.7866C189.137 58.5931 189.177 58.4209 189.257 58.2698C189.34 58.1165 189.453 57.9949 189.597 57.9053C189.741 57.8156 189.906 57.7708 190.092 57.7708C190.281 57.7708 190.431 57.8132 190.542 57.8982C190.653 57.9808 190.728 58.0917 190.768 58.2309C190.811 58.3678 190.823 58.5176 190.804 58.6804L190.793 58.7724H189.551C189.546 58.9164 189.586 59.0297 189.671 59.1122C189.756 59.1948 189.878 59.2361 190.036 59.2361C190.139 59.2361 190.237 59.222 190.329 59.1937C190.424 59.163 190.508 59.1181 190.581 59.0591L190.69 59.3494C190.608 59.4202 190.504 59.4756 190.379 59.5158C190.256 59.5535 190.129 59.5724 189.997 59.5724ZM190.089 58.0716C189.99 58.0716 189.906 58.0929 189.837 58.1353C189.769 58.1754 189.715 58.2297 189.675 58.2981C189.635 58.3666 189.605 58.4397 189.586 58.5176H190.464C190.473 58.3902 190.449 58.284 190.39 58.199C190.331 58.1141 190.23 58.0716 190.089 58.0716Z" fill="#36AAC8"/>
<path d="M237.697 64.5823H157.046V64.8351H237.697V64.5823Z" fill="#BBBBBB"/>
<path d="M241.742 67.1615H153.001V94.5386H241.742V67.1615Z" fill="white"/>
<path d="M158.888 75.2067L157.04 70.9767H157.568L159.122 74.5827L160.67 70.9767H161.186L159.332 75.2067H158.888ZM162.601 75.2607C162.141 75.2607 161.777 75.1267 161.509 74.8587C161.241 74.5867 161.107 74.2187 161.107 73.7547C161.107 73.4547 161.167 73.1907 161.287 72.9627C161.407 72.7307 161.571 72.5527 161.779 72.4287C161.991 72.3007 162.235 72.2367 162.511 72.2367C162.907 72.2367 163.217 72.3647 163.441 72.6207C163.665 72.8727 163.777 73.2207 163.777 73.6647V73.8507H161.581C161.597 74.1827 161.693 74.4367 161.869 74.6127C162.045 74.7847 162.289 74.8707 162.601 74.8707C162.777 74.8707 162.945 74.8447 163.105 74.7927C163.265 74.7367 163.417 74.6467 163.561 74.5227L163.729 74.8647C163.597 74.9887 163.429 75.0867 163.225 75.1587C163.021 75.2267 162.813 75.2607 162.601 75.2607ZM162.523 72.5967C162.247 72.5967 162.029 72.6827 161.869 72.8547C161.709 73.0267 161.615 73.2527 161.587 73.5327H163.357C163.345 73.2367 163.267 73.0067 163.123 72.8427C162.983 72.6787 162.783 72.5967 162.523 72.5967ZM164.481 75.2067V72.2907H164.955V72.7887C165.051 72.6047 165.187 72.4667 165.363 72.3747C165.539 72.2827 165.737 72.2367 165.957 72.2367C166.649 72.2367 166.995 72.6207 166.995 73.3887V75.2067H166.509V73.4187C166.509 73.1467 166.455 72.9487 166.347 72.8247C166.243 72.6967 166.075 72.6327 165.843 72.6327C165.575 72.6327 165.361 72.7167 165.201 72.8847C165.045 73.0487 164.967 73.2687 164.967 73.5447V75.2067H164.481ZM168.923 75.2607C168.223 75.2607 167.873 74.8747 167.873 74.1027V72.2907H168.359V74.0967C168.359 74.3567 168.411 74.5487 168.515 74.6727C168.623 74.7967 168.791 74.8587 169.019 74.8587C169.267 74.8587 169.469 74.7767 169.625 74.6127C169.781 74.4447 169.859 74.2227 169.859 73.9467V72.2907H170.345V75.2067H169.871V74.7147C169.779 74.8907 169.649 75.0267 169.481 75.1227C169.317 75.2147 169.131 75.2607 168.923 75.2607ZM172.568 75.2607C172.108 75.2607 171.744 75.1267 171.476 74.8587C171.208 74.5867 171.074 74.2187 171.074 73.7547C171.074 73.4547 171.134 73.1907 171.254 72.9627C171.374 72.7307 171.538 72.5527 171.746 72.4287C171.958 72.3007 172.202 72.2367 172.478 72.2367C172.874 72.2367 173.184 72.3647 173.408 72.6207C173.632 72.8727 173.744 73.2207 173.744 73.6647V73.8507H171.548C171.564 74.1827 171.66 74.4367 171.836 74.6127C172.012 74.7847 172.256 74.8707 172.568 74.8707C172.744 74.8707 172.912 74.8447 173.072 74.7927C173.232 74.7367 173.384 74.6467 173.528 74.5227L173.696 74.8647C173.564 74.9887 173.396 75.0867 173.192 75.1587C172.988 75.2267 172.78 75.2607 172.568 75.2607ZM172.49 72.5967C172.214 72.5967 171.996 72.6827 171.836 72.8547C171.676 73.0267 171.582 73.2527 171.554 73.5327H173.324C173.312 73.2367 173.234 73.0067 173.09 72.8427C172.95 72.6787 172.75 72.5967 172.49 72.5967ZM176.846 75.2067L175.592 72.2907H176.12L177.086 74.6547L178.064 72.2907H178.562L177.302 75.2067H176.846ZM179.016 71.5647V71.0187H179.616V71.5647H179.016ZM179.076 75.2067V72.2907H179.562V75.2067H179.076ZM181.785 75.2607C181.325 75.2607 180.961 75.1267 180.693 74.8587C180.425 74.5867 180.291 74.2187 180.291 73.7547C180.291 73.4547 180.351 73.1907 180.471 72.9627C180.591 72.7307 180.755 72.5527 180.963 72.4287C181.175 72.3007 181.419 72.2367 181.695 72.2367C182.091 72.2367 182.401 72.3647 182.625 72.6207C182.849 72.8727 182.961 73.2207 182.961 73.6647V73.8507H180.765C180.781 74.1827 180.877 74.4367 181.053 74.6127C181.229 74.7847 181.473 74.8707 181.785 74.8707C181.961 74.8707 182.129 74.8447 182.289 74.7927C182.449 74.7367 182.601 74.6467 182.745 74.5227L182.913 74.8647C182.781 74.9887 182.613 75.0867 182.409 75.1587C182.205 75.2267 181.997 75.2607 181.785 75.2607ZM181.707 72.5967C181.431 72.5967 181.213 72.6827 181.053 72.8547C180.893 73.0267 180.799 73.2527 180.771 73.5327H182.541C182.529 73.2367 182.451 73.0067 182.307 72.8427C182.167 72.6787 181.967 72.5967 181.707 72.5967ZM184.403 75.2067L183.317 72.2907H183.827L184.649 74.6367L185.501 72.2907H185.915L186.755 74.6427L187.589 72.2907H188.075L186.983 75.2067H186.521L185.699 72.9447L184.871 75.2067H184.403Z" fill="#414141"/>
<path d="M159.076 82.218V81.4388H157.29V80.8922L159.203 78.1184H159.82V80.8224H160.396V81.4388H159.82V82.218H159.076ZM159.076 80.8224V79.2582L158.006 80.8224H159.076ZM162.277 82.2761C161.793 82.2761 161.423 82.0939 161.167 81.7295C160.911 81.3612 160.783 80.8379 160.783 80.1595C160.783 79.4733 160.911 78.9519 161.167 78.5953C161.423 78.2386 161.793 78.0603 162.277 78.0603C162.766 78.0603 163.136 78.2386 163.388 78.5953C163.644 78.9519 163.772 79.4714 163.772 80.1537C163.772 80.836 163.644 81.3612 163.388 81.7295C163.132 82.0939 162.762 82.2761 162.277 82.2761ZM162.277 81.6656C162.541 81.6656 162.735 81.5454 162.859 81.305C162.987 81.0608 163.051 80.677 163.051 80.1537C163.051 79.6342 162.987 79.2582 162.859 79.0256C162.735 78.7891 162.541 78.6709 162.277 78.6709C162.018 78.6709 161.824 78.7891 161.696 79.0256C161.568 79.2582 161.504 79.6342 161.504 80.1537C161.504 80.677 161.568 81.0608 161.696 81.305C161.824 81.5454 162.018 81.6656 162.277 81.6656ZM167.849 82.2761C167.45 82.2761 167.108 82.156 166.825 81.9156C166.546 81.6752 166.358 81.3283 166.261 80.8747H165.697V80.363H166.197C166.19 80.2234 166.19 80.0916 166.197 79.9676H165.697V79.4559H166.261C166.362 79.0062 166.552 78.6612 166.831 78.4208C167.11 78.1805 167.45 78.0603 167.849 78.0603C168.074 78.0603 168.287 78.101 168.489 78.1824C168.69 78.2638 168.857 78.384 168.989 78.5429L168.744 79.0605C168.62 78.9248 168.489 78.8298 168.349 78.7755C168.209 78.7213 168.06 78.6941 167.901 78.6941C167.692 78.6941 167.51 78.7561 167.355 78.8802C167.203 79.0004 167.093 79.1923 167.023 79.4559H167.895V79.9676H166.936C166.932 80.0994 166.934 80.2312 166.942 80.363H167.895V80.8747H167.023C167.093 81.1422 167.203 81.338 167.355 81.462C167.51 81.5822 167.692 81.6423 167.901 81.6423C168.06 81.6423 168.209 81.6152 168.349 81.5609C168.489 81.5027 168.62 81.4078 168.744 81.276L168.989 81.7877C168.857 81.9505 168.69 82.0726 168.489 82.154C168.287 82.2354 168.074 82.2761 167.849 82.2761Z" fill="#414141"/>
<path d="M157.294 89.2406L157.354 88.8654H157.917L158.168 87.2903L157.715 87.5381L157.574 87.1912L158.384 86.7452H158.706L158.37 88.8654H158.897L158.837 89.2406H157.294ZM160.188 89.276C159.921 89.276 159.717 89.1957 159.576 89.0353C159.436 88.8725 159.367 88.6388 159.367 88.3344C159.367 87.9994 159.408 87.7115 159.491 87.4708C159.576 87.2278 159.695 87.0402 159.848 86.908C160.004 86.7759 160.187 86.7098 160.397 86.7098C160.663 86.7098 160.866 86.79 161.005 86.9505C161.147 87.1109 161.218 87.3422 161.218 87.6442C161.218 87.9793 161.175 88.2696 161.09 88.515C161.008 88.758 160.889 88.9456 160.733 89.0778C160.58 89.2099 160.398 89.276 160.188 89.276ZM160.209 88.9043C160.377 88.9043 160.512 88.7934 160.616 88.5716C160.722 88.3498 160.777 88.0182 160.779 87.577C160.781 87.2466 160.647 87.0815 160.375 87.0815C160.21 87.0815 160.073 87.1924 159.965 87.4142C159.859 87.636 159.806 87.9663 159.806 88.4052C159.806 88.738 159.94 88.9043 160.209 88.9043ZM162.31 89.276C162.044 89.276 161.839 89.1957 161.698 89.0353C161.559 88.8725 161.489 88.6388 161.489 88.3344C161.489 87.9994 161.53 87.7115 161.613 87.4708C161.698 87.2278 161.817 87.0402 161.97 86.908C162.126 86.7759 162.309 86.7098 162.519 86.7098C162.786 86.7098 162.989 86.79 163.128 86.9505C163.269 87.1109 163.34 87.3422 163.34 87.6442C163.34 87.9793 163.298 88.2696 163.213 88.515C163.13 88.758 163.011 88.9456 162.855 89.0778C162.702 89.2099 162.52 89.276 162.31 89.276ZM162.331 88.9043C162.499 88.9043 162.635 88.7934 162.738 88.5716C162.845 88.3498 162.899 88.0182 162.901 87.577C162.904 87.2466 162.769 87.0815 162.498 87.0815C162.333 87.0815 162.196 87.1924 162.087 87.4142C161.981 87.636 161.928 87.9663 161.928 88.4052C161.928 88.738 162.062 88.9043 162.331 88.9043ZM165.28 89.276C165.049 89.276 164.882 89.2134 164.778 89.0884C164.674 88.9609 164.637 88.7969 164.668 88.5964L164.788 87.8425H164.456L164.509 87.5097H164.841L164.923 86.993H165.365L165.284 87.5097H165.808L165.755 87.8425H165.231L165.114 88.5681C165.095 88.6908 165.109 88.7792 165.156 88.8335C165.206 88.8854 165.282 88.9114 165.383 88.9114C165.418 88.9114 165.453 88.9079 165.486 88.9008C165.519 88.8937 165.551 88.8854 165.581 88.876L165.606 89.2087C165.568 89.23 165.519 89.2465 165.457 89.2583C165.396 89.2701 165.337 89.276 165.28 89.276ZM166.129 87.1381L166.2 86.7063H166.692L166.621 87.1381H166.129ZM165.818 89.2406L166.094 87.5097H166.536L166.26 89.2406H165.818ZM167.583 89.276C167.307 89.276 167.101 89.204 166.964 89.0601C166.827 88.9138 166.759 88.7226 166.759 88.4866C166.759 88.3592 166.778 88.2353 166.815 88.115C166.855 87.9923 166.916 87.8837 166.996 87.7894C167.076 87.6926 167.178 87.6159 167.3 87.5593C167.425 87.5027 167.572 87.4743 167.739 87.4743C167.855 87.4743 167.966 87.492 168.072 87.5274C168.178 87.5605 168.264 87.6065 168.33 87.6655L168.192 87.9734C168.081 87.8696 167.94 87.8177 167.767 87.8177C167.633 87.8177 167.524 87.8507 167.442 87.9168C167.362 87.9829 167.303 88.0666 167.265 88.1681C167.229 88.2696 167.212 88.3746 167.212 88.4831C167.212 88.6176 167.245 88.7262 167.311 88.8087C167.379 88.8913 167.491 88.9326 167.647 88.9326C167.713 88.9326 167.783 88.9197 167.856 88.8937C167.931 88.8677 168 88.8288 168.061 88.7769L168.164 89.0919C168.098 89.1509 168.009 89.1969 167.898 89.23C167.79 89.2606 167.685 89.276 167.583 89.276ZM168.393 89.2406L168.786 86.7452H169.228L168.991 88.246H168.998L169.802 87.5097H170.329L169.426 88.3592L170.124 89.2406H169.61L168.966 88.4513H168.959L168.835 89.2406H168.393ZM171.151 89.276C170.977 89.276 170.825 89.2441 170.695 89.1804C170.567 89.1143 170.468 89.0223 170.398 88.9043C170.327 88.7863 170.291 88.6483 170.291 88.4902C170.291 88.2967 170.331 88.1244 170.412 87.9734C170.494 87.82 170.608 87.6985 170.751 87.6088C170.895 87.5192 171.061 87.4743 171.247 87.4743C171.436 87.4743 171.586 87.5168 171.697 87.6018C171.807 87.6844 171.883 87.7953 171.923 87.9345C171.966 88.0713 171.977 88.2212 171.958 88.384L171.948 88.476H170.705C170.701 88.62 170.741 88.7332 170.826 88.8158C170.911 88.8984 171.032 88.9397 171.19 88.9397C171.294 88.9397 171.392 88.9256 171.484 88.8972C171.579 88.8666 171.662 88.8217 171.735 88.7627L171.845 89.053C171.763 89.1238 171.659 89.1792 171.534 89.2193C171.411 89.2571 171.284 89.276 171.151 89.276ZM171.243 87.7752C171.144 87.7752 171.061 87.7964 170.992 87.8389C170.924 87.879 170.869 87.9333 170.829 88.0017C170.789 88.0702 170.76 88.1433 170.741 88.2212H171.619C171.628 88.0938 171.603 87.9876 171.544 87.9026C171.485 87.8177 171.385 87.7752 171.243 87.7752ZM172.989 89.276C172.757 89.276 172.59 89.2134 172.486 89.0884C172.382 88.9609 172.346 88.7969 172.376 88.5964L172.497 87.8425H172.164L172.217 87.5097H172.55L172.631 86.993H173.073L172.992 87.5097H173.516L173.463 87.8425H172.939L172.822 88.5681C172.803 88.6908 172.817 88.7792 172.865 88.8335C172.914 88.8854 172.99 88.9114 173.091 88.9114C173.127 88.9114 173.161 88.9079 173.194 88.9008C173.227 88.8937 173.259 88.8854 173.289 88.876L173.314 89.2087C173.276 89.23 173.227 89.2465 173.166 89.2583C173.104 89.2701 173.045 89.276 172.989 89.276ZM174.234 89.276C174.087 89.276 173.949 89.2583 173.82 89.2229C173.692 89.1851 173.585 89.1332 173.497 89.0671L173.636 88.7804C173.72 88.8394 173.815 88.8854 173.919 88.9185C174.025 88.9491 174.13 88.9645 174.234 88.9645C174.345 88.9645 174.43 88.9444 174.489 88.9043C174.548 88.8618 174.577 88.8064 174.577 88.738C174.577 88.6459 174.513 88.5858 174.386 88.5574L174.06 88.4902C173.93 88.4642 173.829 88.4135 173.756 88.338C173.683 88.2601 173.646 88.1634 173.646 88.0477C173.646 87.9416 173.676 87.846 173.735 87.761C173.796 87.6737 173.884 87.6041 174 87.5522C174.118 87.5003 174.26 87.4743 174.425 87.4743C174.538 87.4743 174.651 87.492 174.765 87.5274C174.88 87.5605 174.977 87.61 175.055 87.6761L174.924 87.9593C174.851 87.9003 174.769 87.8566 174.68 87.8283C174.59 87.8 174.498 87.7858 174.404 87.7858C174.288 87.7858 174.199 87.8082 174.138 87.8531C174.077 87.8955 174.046 87.9522 174.046 88.023C174.046 88.0654 174.059 88.102 174.085 88.1327C174.113 88.1634 174.157 88.1846 174.216 88.1964L174.542 88.2637C174.832 88.325 174.977 88.4725 174.977 88.7061C174.977 88.8878 174.909 89.0282 174.772 89.1273C174.637 89.2264 174.458 89.276 174.234 89.276ZM176.799 89.276C176.693 89.276 176.596 89.2524 176.509 89.2052C176.422 89.1556 176.351 89.0907 176.297 89.0105C176.245 88.9303 176.219 88.8406 176.219 88.7415C176.219 88.5598 176.297 88.4265 176.452 88.3415C176.61 88.2566 176.857 88.2141 177.192 88.2141H177.436L177.447 88.1504C177.466 88.0395 177.448 87.9545 177.394 87.8955C177.342 87.8366 177.25 87.8071 177.118 87.8071C176.908 87.8071 176.71 87.866 176.523 87.984L176.424 87.6796C176.514 87.6183 176.627 87.5687 176.764 87.531C176.901 87.4932 177.038 87.4743 177.174 87.4743C177.361 87.4743 177.507 87.5086 177.613 87.577C177.719 87.6454 177.791 87.7386 177.829 87.8566C177.867 87.9746 177.874 88.1091 177.85 88.2601L177.695 89.2406H177.281L177.32 88.9857C177.261 89.0848 177.185 89.158 177.093 89.2052C177.001 89.2524 176.903 89.276 176.799 89.276ZM176.937 88.9716C177.048 88.9716 177.145 88.9362 177.228 88.8654C177.31 88.7922 177.361 88.6943 177.38 88.5716L177.397 88.469H177.213C177.006 88.469 176.859 88.4866 176.774 88.522C176.692 88.5551 176.651 88.6188 176.651 88.7132C176.651 88.7958 176.678 88.8595 176.732 88.9043C176.789 88.9491 176.857 88.9716 176.937 88.9716ZM178.636 89.2406L178.162 87.5097H178.611L178.902 88.7203L179.592 87.5097H180.052L179.022 89.2406H178.636ZM180.55 89.276C180.443 89.276 180.347 89.2524 180.259 89.2052C180.172 89.1556 180.101 89.0907 180.047 89.0105C179.995 88.9303 179.969 88.8406 179.969 88.7415C179.969 88.5598 180.047 88.4265 180.203 88.3415C180.361 88.2566 180.607 88.2141 180.942 88.2141H181.187L181.197 88.1504C181.216 88.0395 181.199 87.9545 181.144 87.8955C181.092 87.8366 181 87.8071 180.868 87.8071C180.658 87.8071 180.46 87.866 180.274 87.984L180.174 87.6796C180.264 87.6183 180.377 87.5687 180.514 87.531C180.651 87.4932 180.788 87.4743 180.925 87.4743C181.111 87.4743 181.258 87.5086 181.364 87.577C181.47 87.6454 181.542 87.7386 181.58 87.8566C181.617 87.9746 181.624 88.1091 181.601 88.2601L181.445 89.2406H181.031L181.07 88.9857C181.011 89.0848 180.935 89.158 180.843 89.2052C180.751 89.2524 180.653 89.276 180.55 89.276ZM180.688 88.9716C180.799 88.9716 180.895 88.9362 180.978 88.8654C181.06 88.7922 181.111 88.6943 181.13 88.5716L181.148 88.469H180.964C180.756 88.469 180.61 88.4866 180.525 88.522C180.442 88.5551 180.401 88.6188 180.401 88.7132C180.401 88.7958 180.428 88.8595 180.482 88.9043C180.539 88.9491 180.607 88.9716 180.688 88.9716ZM182.206 87.1381L182.276 86.7063H182.768L182.698 87.1381H182.206ZM181.894 89.2406L182.17 87.5097H182.613L182.337 89.2406H181.894ZM183.409 89.276C183.208 89.276 183.064 89.2205 182.977 89.1096C182.89 88.9963 182.862 88.8323 182.895 88.6176L183.193 86.7452H183.635L183.338 88.6141C183.321 88.7179 183.331 88.7946 183.366 88.8441C183.404 88.8913 183.468 88.9149 183.557 88.9149C183.583 88.9149 183.609 88.9138 183.635 88.9114C183.661 88.9067 183.687 88.9031 183.713 88.9008L183.653 89.2441C183.582 89.2653 183.501 89.276 183.409 89.276ZM184.518 89.276C184.412 89.276 184.315 89.2524 184.228 89.2052C184.14 89.1556 184.069 89.0907 184.015 89.0105C183.963 88.9303 183.937 88.8406 183.937 88.7415C183.937 88.5598 184.015 88.4265 184.171 88.3415C184.329 88.2566 184.576 88.2141 184.911 88.2141H185.155L185.166 88.1504C185.184 88.0395 185.167 87.9545 185.112 87.8955C185.06 87.8366 184.968 87.8071 184.836 87.8071C184.626 87.8071 184.428 87.866 184.242 87.984L184.143 87.6796C184.232 87.6183 184.346 87.5687 184.482 87.531C184.619 87.4932 184.756 87.4743 184.893 87.4743C185.079 87.4743 185.226 87.5086 185.332 87.577C185.438 87.6454 185.51 87.7386 185.548 87.8566C185.586 87.9746 185.593 88.1091 185.569 88.2601L185.413 89.2406H184.999L185.038 88.9857C184.979 89.0848 184.904 89.158 184.812 89.2052C184.72 89.2524 184.622 89.276 184.518 89.276ZM184.656 88.9716C184.767 88.9716 184.863 88.9362 184.946 88.8654C185.029 88.7922 185.079 88.6943 185.098 88.5716L185.116 88.469H184.932C184.724 88.469 184.578 88.4866 184.493 88.522C184.41 88.5551 184.369 88.6188 184.369 88.7132C184.369 88.7958 184.396 88.8595 184.451 88.9043C184.507 88.9491 184.576 88.9716 184.656 88.9716ZM186.896 89.276C186.768 89.276 186.655 89.2476 186.556 89.191C186.459 89.132 186.387 89.0459 186.34 88.9326L186.294 89.2406H185.862L186.259 86.7452H186.701L186.538 87.761C186.604 87.6714 186.686 87.6018 186.783 87.5522C186.882 87.5003 186.991 87.4743 187.112 87.4743C187.31 87.4743 187.468 87.5416 187.586 87.6761C187.706 87.8082 187.767 87.9899 187.767 88.2212C187.767 88.417 187.731 88.5952 187.66 88.7557C187.592 88.9138 187.493 89.04 187.363 89.1344C187.233 89.2288 187.078 89.276 186.896 89.276ZM186.814 88.9397C186.923 88.9397 187.014 88.909 187.087 88.8477C187.163 88.7863 187.22 88.7026 187.26 88.5964C187.301 88.4902 187.321 88.3722 187.321 88.2424C187.321 88.1032 187.286 87.997 187.218 87.9239C187.152 87.8484 187.06 87.8106 186.942 87.8106C186.836 87.8106 186.745 87.8413 186.669 87.9026C186.594 87.964 186.536 88.0477 186.496 88.1539C186.456 88.2578 186.436 88.3757 186.436 88.5079C186.436 88.6471 186.469 88.7545 186.535 88.83C186.603 88.9031 186.696 88.9397 186.814 88.9397ZM188.597 89.276C188.396 89.276 188.253 89.2205 188.165 89.1096C188.078 88.9963 188.051 88.8323 188.084 88.6176L188.381 86.7452H188.824L188.526 88.6141C188.51 88.7179 188.519 88.7946 188.555 88.8441C188.592 88.8913 188.656 88.9149 188.746 88.9149C188.772 88.9149 188.798 88.9138 188.824 88.9114C188.85 88.9067 188.875 88.9031 188.901 88.9008L188.841 89.2441C188.77 89.2653 188.689 89.276 188.597 89.276ZM189.997 89.276C189.822 89.276 189.67 89.2441 189.54 89.1804C189.413 89.1143 189.314 89.0223 189.243 88.9043C189.172 88.7863 189.137 88.6483 189.137 88.4902C189.137 88.2967 189.177 88.1244 189.257 87.9734C189.34 87.82 189.453 87.6985 189.597 87.6088C189.741 87.5192 189.906 87.4743 190.092 87.4743C190.281 87.4743 190.431 87.5168 190.542 87.6018C190.653 87.6844 190.728 87.7953 190.768 87.9345C190.811 88.0713 190.823 88.2212 190.804 88.384L190.793 88.476H189.551C189.546 88.62 189.586 88.7332 189.671 88.8158C189.756 88.8984 189.878 88.9397 190.036 88.9397C190.14 88.9397 190.237 88.9256 190.329 88.8972C190.424 88.8666 190.508 88.8217 190.581 88.7627L190.691 89.053C190.608 89.1238 190.504 89.1792 190.379 89.2193C190.256 89.2571 190.129 89.276 189.997 89.276ZM190.089 87.7752C189.99 87.7752 189.906 87.7964 189.837 87.8389C189.769 87.879 189.715 87.9333 189.675 88.0017C189.635 88.0702 189.605 88.1433 189.586 88.2212H190.464C190.473 88.0938 190.449 87.9876 190.39 87.9026C190.331 87.8177 190.23 87.7752 190.089 87.7752Z" fill="#36AAC8"/>
<path d="M237.697 94.2858H157.046V94.5386H237.697V94.2858Z" fill="#BBBBBB"/>
<path d="M241.742 95.9749H153.001V123.352H241.742V95.9749Z" fill="white"/>
<path d="M158.888 104.02L157.04 99.79H157.568L159.122 103.396L160.67 99.79H161.186L159.332 104.02H158.888ZM162.601 104.074C162.141 104.074 161.777 103.94 161.509 103.672C161.241 103.4 161.107 103.032 161.107 102.568C161.107 102.268 161.167 102.004 161.287 101.776C161.407 101.544 161.571 101.366 161.779 101.242C161.991 101.114 162.235 101.05 162.511 101.05C162.907 101.05 163.217 101.178 163.441 101.434C163.665 101.686 163.777 102.034 163.777 102.478V102.664H161.581C161.597 102.996 161.693 103.25 161.869 103.426C162.045 103.598 162.289 103.684 162.601 103.684C162.777 103.684 162.945 103.658 163.105 103.606C163.265 103.55 163.417 103.46 163.561 103.336L163.729 103.678C163.597 103.802 163.429 103.9 163.225 103.972C163.021 104.04 162.813 104.074 162.601 104.074ZM162.523 101.41C162.247 101.41 162.029 101.496 161.869 101.668C161.709 101.84 161.615 102.066 161.587 102.346H163.357C163.345 102.05 163.267 101.82 163.123 101.656C162.983 101.492 162.783 101.41 162.523 101.41ZM164.481 104.02V101.104H164.955V101.602C165.051 101.418 165.187 101.28 165.363 101.188C165.539 101.096 165.737 101.05 165.957 101.05C166.649 101.05 166.995 101.434 166.995 102.202V104.02H166.509V102.232C166.509 101.96 166.455 101.762 166.347 101.638C166.243 101.51 166.075 101.446 165.843 101.446C165.575 101.446 165.361 101.53 165.201 101.698C165.045 101.862 164.967 102.082 164.967 102.358V104.02H164.481ZM168.923 104.074C168.223 104.074 167.873 103.688 167.873 102.916V101.104H168.359V102.91C168.359 103.17 168.411 103.362 168.515 103.486C168.623 103.61 168.791 103.672 169.019 103.672C169.267 103.672 169.469 103.59 169.625 103.426C169.781 103.258 169.859 103.036 169.859 102.76V101.104H170.345V104.02H169.871V103.528C169.779 103.704 169.649 103.84 169.481 103.936C169.317 104.028 169.131 104.074 168.923 104.074ZM172.568 104.074C172.108 104.074 171.744 103.94 171.476 103.672C171.208 103.4 171.074 103.032 171.074 102.568C171.074 102.268 171.134 102.004 171.254 101.776C171.374 101.544 171.538 101.366 171.746 101.242C171.958 101.114 172.202 101.05 172.478 101.05C172.874 101.05 173.184 101.178 173.408 101.434C173.632 101.686 173.744 102.034 173.744 102.478V102.664H171.548C171.564 102.996 171.66 103.25 171.836 103.426C172.012 103.598 172.256 103.684 172.568 103.684C172.744 103.684 172.912 103.658 173.072 103.606C173.232 103.55 173.384 103.46 173.528 103.336L173.696 103.678C173.564 103.802 173.396 103.9 173.192 103.972C172.988 104.04 172.78 104.074 172.568 104.074ZM172.49 101.41C172.214 101.41 171.996 101.496 171.836 101.668C171.676 101.84 171.582 102.066 171.554 102.346H173.324C173.312 102.05 173.234 101.82 173.09 101.656C172.95 101.492 172.75 101.41 172.49 101.41ZM176.846 104.02L175.592 101.104H176.12L177.086 103.468L178.064 101.104H178.562L177.302 104.02H176.846ZM179.016 100.378V99.832H179.616V100.378H179.016ZM179.076 104.02V101.104H179.562V104.02H179.076ZM181.785 104.074C181.325 104.074 180.961 103.94 180.693 103.672C180.425 103.4 180.291 103.032 180.291 102.568C180.291 102.268 180.351 102.004 180.471 101.776C180.591 101.544 180.755 101.366 180.963 101.242C181.175 101.114 181.419 101.05 181.695 101.05C182.091 101.05 182.401 101.178 182.625 101.434C182.849 101.686 182.961 102.034 182.961 102.478V102.664H180.765C180.781 102.996 180.877 103.25 181.053 103.426C181.229 103.598 181.473 103.684 181.785 103.684C181.961 103.684 182.129 103.658 182.289 103.606C182.449 103.55 182.601 103.46 182.745 103.336L182.913 103.678C182.781 103.802 182.613 103.9 182.409 103.972C182.205 104.04 181.997 104.074 181.785 104.074ZM181.707 101.41C181.431 101.41 181.213 101.496 181.053 101.668C180.893 101.84 180.799 102.066 180.771 102.346H182.541C182.529 102.05 182.451 101.82 182.307 101.656C182.167 101.492 181.967 101.41 181.707 101.41ZM184.403 104.02L183.317 101.104H183.827L184.649 103.45L185.501 101.104H185.915L186.755 103.456L187.589 101.104H188.075L186.983 104.02H186.521L185.699 101.758L184.871 104.02H184.403Z" fill="#414141"/>
<path d="M157.68 111.031V110.415H158.605V107.781L157.889 108.211L157.599 107.664L158.82 106.932H159.349V110.415H160.215V111.031H157.68ZM162.277 111.089C161.793 111.089 161.423 110.907 161.167 110.543C160.911 110.175 160.783 109.651 160.783 108.973C160.783 108.287 160.911 107.765 161.167 107.409C161.423 107.052 161.793 106.874 162.277 106.874C162.766 106.874 163.136 107.052 163.388 107.409C163.644 107.765 163.772 108.285 163.772 108.967C163.772 109.649 163.644 110.175 163.388 110.543C163.132 110.907 162.762 111.089 162.277 111.089ZM162.277 110.479C162.541 110.479 162.735 110.359 162.859 110.118C162.987 109.874 163.051 109.49 163.051 108.967C163.051 108.448 162.987 108.072 162.859 107.839C162.735 107.602 162.541 107.484 162.277 107.484C162.018 107.484 161.824 107.602 161.696 107.839C161.568 108.072 161.504 108.448 161.504 108.967C161.504 109.49 161.568 109.874 161.696 110.118C161.824 110.359 162.018 110.479 162.277 110.479ZM165.764 111.089C165.279 111.089 164.909 110.907 164.653 110.543C164.397 110.175 164.27 109.651 164.27 108.973C164.27 108.287 164.397 107.765 164.653 107.409C164.909 107.052 165.279 106.874 165.764 106.874C166.252 106.874 166.623 107.052 166.875 107.409C167.131 107.765 167.258 108.285 167.258 108.967C167.258 109.649 167.131 110.175 166.875 110.543C166.619 110.907 166.249 111.089 165.764 111.089ZM165.764 110.479C166.028 110.479 166.221 110.359 166.346 110.118C166.473 109.874 166.537 109.49 166.537 108.967C166.537 108.448 166.473 108.072 166.346 107.839C166.221 107.602 166.028 107.484 165.764 107.484C165.504 107.484 165.31 107.602 165.183 107.839C165.055 108.072 164.991 108.448 164.991 108.967C164.991 109.49 165.055 109.874 165.183 110.118C165.31 110.359 165.504 110.479 165.764 110.479ZM171.336 111.089C170.936 111.089 170.595 110.969 170.312 110.729C170.033 110.489 169.845 110.142 169.748 109.688H169.184V109.176H169.684C169.676 109.037 169.676 108.905 169.684 108.781H169.184V108.269H169.748C169.849 107.82 170.039 107.475 170.318 107.234C170.597 106.994 170.936 106.874 171.336 106.874C171.56 106.874 171.774 106.914 171.975 106.996C172.177 107.077 172.343 107.197 172.475 107.356L172.231 107.874C172.107 107.738 171.975 107.643 171.836 107.589C171.696 107.535 171.547 107.507 171.388 107.507C171.179 107.507 170.996 107.569 170.841 107.694C170.69 107.814 170.58 108.006 170.51 108.269H171.382V108.781H170.423C170.419 108.913 170.421 109.045 170.428 109.176H171.382V109.688H170.51C170.58 109.956 170.69 110.151 170.841 110.275C170.996 110.396 171.179 110.456 171.388 110.456C171.547 110.456 171.696 110.429 171.836 110.374C171.975 110.316 172.107 110.221 172.231 110.089L172.475 110.601C172.343 110.764 172.177 110.886 171.975 110.967C171.774 111.049 171.56 111.089 171.336 111.089Z" fill="#414141"/>
<path d="M157.294 118.054L157.354 117.679H157.917L158.168 116.104L157.715 116.351L157.574 116.005L158.384 115.559H158.706L158.37 117.679H158.897L158.837 118.054H157.294ZM160.188 118.089C159.921 118.089 159.717 118.009 159.576 117.849C159.436 117.686 159.367 117.452 159.367 117.148C159.367 116.813 159.408 116.525 159.491 116.284C159.576 116.041 159.695 115.854 159.848 115.721C160.004 115.589 160.187 115.523 160.397 115.523C160.663 115.523 160.866 115.603 161.005 115.764C161.147 115.924 161.218 116.156 161.218 116.458C161.218 116.793 161.175 117.083 161.09 117.328C161.008 117.571 160.889 117.759 160.733 117.891C160.58 118.023 160.398 118.089 160.188 118.089ZM160.209 117.718C160.377 117.718 160.512 117.607 160.616 117.385C160.722 117.163 160.777 116.832 160.779 116.39C160.781 116.06 160.647 115.895 160.375 115.895C160.21 115.895 160.073 116.006 159.965 116.228C159.859 116.449 159.806 116.78 159.806 117.219C159.806 117.551 159.94 117.718 160.209 117.718ZM162.31 118.089C162.044 118.089 161.839 118.009 161.698 117.849C161.559 117.686 161.489 117.452 161.489 117.148C161.489 116.813 161.53 116.525 161.613 116.284C161.698 116.041 161.817 115.854 161.97 115.721C162.126 115.589 162.309 115.523 162.519 115.523C162.786 115.523 162.989 115.603 163.128 115.764C163.269 115.924 163.34 116.156 163.34 116.458C163.34 116.793 163.298 117.083 163.213 117.328C163.13 117.571 163.011 117.759 162.855 117.891C162.702 118.023 162.52 118.089 162.31 118.089ZM162.331 117.718C162.499 117.718 162.635 117.607 162.738 117.385C162.845 117.163 162.899 116.832 162.901 116.39C162.904 116.06 162.769 115.895 162.498 115.895C162.333 115.895 162.196 116.006 162.087 116.228C161.981 116.449 161.928 116.78 161.928 117.219C161.928 117.551 162.062 117.718 162.331 117.718ZM165.28 118.089C165.049 118.089 164.882 118.027 164.778 117.902C164.674 117.774 164.637 117.61 164.668 117.41L164.788 116.656H164.456L164.509 116.323H164.841L164.923 115.806H165.365L165.284 116.323H165.808L165.755 116.656H165.231L165.114 117.381C165.095 117.504 165.109 117.593 165.156 117.647C165.206 117.699 165.282 117.725 165.383 117.725C165.418 117.725 165.453 117.721 165.486 117.714C165.519 117.707 165.551 117.699 165.581 117.689L165.606 118.022C165.568 118.043 165.519 118.06 165.457 118.072C165.396 118.083 165.337 118.089 165.28 118.089ZM166.129 115.951L166.2 115.52H166.692L166.621 115.951H166.129ZM165.818 118.054L166.094 116.323H166.536L166.26 118.054H165.818ZM167.583 118.089C167.307 118.089 167.101 118.017 166.964 117.873C166.827 117.727 166.759 117.536 166.759 117.3C166.759 117.173 166.778 117.049 166.815 116.928C166.855 116.806 166.916 116.697 166.996 116.603C167.076 116.506 167.178 116.429 167.3 116.373C167.425 116.316 167.572 116.288 167.739 116.288C167.855 116.288 167.966 116.305 168.072 116.341C168.178 116.374 168.264 116.42 168.33 116.479L168.192 116.787C168.081 116.683 167.94 116.631 167.767 116.631C167.633 116.631 167.524 116.664 167.442 116.73C167.362 116.796 167.303 116.88 167.265 116.981C167.229 117.083 167.212 117.188 167.212 117.296C167.212 117.431 167.245 117.54 167.311 117.622C167.379 117.705 167.491 117.746 167.647 117.746C167.713 117.746 167.783 117.733 167.856 117.707C167.931 117.681 168 117.642 168.061 117.59L168.164 117.905C168.098 117.964 168.009 118.01 167.898 118.043C167.79 118.074 167.685 118.089 167.583 118.089ZM168.393 118.054L168.786 115.559H169.228L168.991 117.059H168.998L169.802 116.323H170.329L169.426 117.173L170.124 118.054H169.61L168.966 117.265H168.959L168.835 118.054H168.393ZM171.151 118.089C170.977 118.089 170.825 118.057 170.695 117.994C170.567 117.928 170.468 117.836 170.398 117.718C170.327 117.6 170.291 117.462 170.291 117.304C170.291 117.11 170.331 116.938 170.412 116.787C170.494 116.633 170.608 116.512 170.751 116.422C170.895 116.333 171.061 116.288 171.247 116.288C171.436 116.288 171.586 116.33 171.697 116.415C171.807 116.498 171.883 116.609 171.923 116.748C171.966 116.885 171.977 117.035 171.958 117.197L171.948 117.289H170.705C170.701 117.433 170.741 117.547 170.826 117.629C170.911 117.712 171.032 117.753 171.19 117.753C171.294 117.753 171.392 117.739 171.484 117.711C171.579 117.68 171.662 117.635 171.735 117.576L171.845 117.866C171.763 117.937 171.659 117.993 171.534 118.033C171.411 118.07 171.284 118.089 171.151 118.089ZM171.243 116.589C171.144 116.589 171.061 116.61 170.992 116.652C170.924 116.692 170.869 116.747 170.829 116.815C170.789 116.884 170.76 116.957 170.741 117.035H171.619C171.628 116.907 171.603 116.801 171.544 116.716C171.485 116.631 171.385 116.589 171.243 116.589ZM172.989 118.089C172.757 118.089 172.59 118.027 172.486 117.902C172.382 117.774 172.346 117.61 172.376 117.41L172.497 116.656H172.164L172.217 116.323H172.55L172.631 115.806H173.073L172.992 116.323H173.516L173.463 116.656H172.939L172.822 117.381C172.803 117.504 172.817 117.593 172.865 117.647C172.914 117.699 172.99 117.725 173.091 117.725C173.127 117.725 173.161 117.721 173.194 117.714C173.227 117.707 173.259 117.699 173.289 117.689L173.314 118.022C173.276 118.043 173.227 118.06 173.166 118.072C173.104 118.083 173.045 118.089 172.989 118.089ZM174.234 118.089C174.087 118.089 173.949 118.072 173.82 118.036C173.692 117.998 173.585 117.947 173.497 117.88L173.636 117.594C173.72 117.653 173.815 117.699 173.919 117.732C174.025 117.763 174.13 117.778 174.234 117.778C174.345 117.778 174.43 117.758 174.489 117.718C174.548 117.675 174.577 117.62 174.577 117.551C174.577 117.459 174.513 117.399 174.386 117.371L174.06 117.304C173.93 117.278 173.829 117.227 173.756 117.151C173.683 117.073 173.646 116.977 173.646 116.861C173.646 116.755 173.676 116.659 173.735 116.574C173.796 116.487 173.884 116.417 174 116.366C174.118 116.314 174.26 116.288 174.425 116.288C174.538 116.288 174.651 116.305 174.765 116.341C174.88 116.374 174.977 116.423 175.055 116.489L174.924 116.773C174.851 116.714 174.769 116.67 174.68 116.642C174.59 116.613 174.498 116.599 174.404 116.599C174.288 116.599 174.199 116.622 174.138 116.666C174.077 116.709 174.046 116.766 174.046 116.836C174.046 116.879 174.059 116.915 174.085 116.946C174.113 116.977 174.157 116.998 174.216 117.01L174.542 117.077C174.832 117.138 174.977 117.286 174.977 117.519C174.977 117.701 174.909 117.842 174.772 117.941C174.637 118.04 174.458 118.089 174.234 118.089ZM176.799 118.089C176.693 118.089 176.596 118.066 176.509 118.019C176.422 117.969 176.351 117.904 176.297 117.824C176.245 117.744 176.219 117.654 176.219 117.555C176.219 117.373 176.297 117.24 176.452 117.155C176.61 117.07 176.857 117.027 177.192 117.027H177.436L177.447 116.964C177.466 116.853 177.448 116.768 177.394 116.709C177.342 116.65 177.25 116.62 177.118 116.62C176.908 116.62 176.71 116.679 176.523 116.797L176.424 116.493C176.514 116.432 176.627 116.382 176.764 116.344C176.901 116.307 177.038 116.288 177.174 116.288C177.361 116.288 177.507 116.322 177.613 116.39C177.719 116.459 177.791 116.552 177.829 116.67C177.867 116.788 177.874 116.922 177.85 117.073L177.695 118.054H177.281L177.32 117.799C177.261 117.898 177.185 117.971 177.093 118.019C177.001 118.066 176.903 118.089 176.799 118.089ZM176.937 117.785C177.048 117.785 177.145 117.75 177.228 117.679C177.31 117.606 177.361 117.508 177.38 117.385L177.397 117.282H177.213C177.006 117.282 176.859 117.3 176.774 117.335C176.692 117.368 176.651 117.432 176.651 117.527C176.651 117.609 176.678 117.673 176.732 117.718C176.789 117.763 176.857 117.785 176.937 117.785ZM178.636 118.054L178.162 116.323H178.611L178.902 117.534L179.592 116.323H180.052L179.022 118.054H178.636ZM180.55 118.089C180.443 118.089 180.347 118.066 180.259 118.019C180.172 117.969 180.101 117.904 180.047 117.824C179.995 117.744 179.969 117.654 179.969 117.555C179.969 117.373 180.047 117.24 180.203 117.155C180.361 117.07 180.607 117.027 180.942 117.027H181.187L181.197 116.964C181.216 116.853 181.199 116.768 181.144 116.709C181.092 116.65 181 116.62 180.868 116.62C180.658 116.62 180.46 116.679 180.274 116.797L180.174 116.493C180.264 116.432 180.377 116.382 180.514 116.344C180.651 116.307 180.788 116.288 180.925 116.288C181.111 116.288 181.258 116.322 181.364 116.39C181.47 116.459 181.542 116.552 181.58 116.67C181.617 116.788 181.624 116.922 181.601 117.073L181.445 118.054H181.031L181.07 117.799C181.011 117.898 180.935 117.971 180.843 118.019C180.751 118.066 180.653 118.089 180.55 118.089ZM180.688 117.785C180.799 117.785 180.895 117.75 180.978 117.679C181.06 117.606 181.111 117.508 181.13 117.385L181.148 117.282H180.964C180.756 117.282 180.61 117.3 180.525 117.335C180.442 117.368 180.401 117.432 180.401 117.527C180.401 117.609 180.428 117.673 180.482 117.718C180.539 117.763 180.607 117.785 180.688 117.785ZM182.206 115.951L182.276 115.52H182.768L182.698 115.951H182.206ZM181.894 118.054L182.17 116.323H182.613L182.337 118.054H181.894ZM183.409 118.089C183.208 118.089 183.064 118.034 182.977 117.923C182.89 117.81 182.862 117.646 182.895 117.431L183.193 115.559H183.635L183.338 117.427C183.321 117.531 183.331 117.608 183.366 117.657C183.404 117.705 183.468 117.728 183.557 117.728C183.583 117.728 183.609 117.727 183.635 117.725C183.661 117.72 183.687 117.716 183.713 117.714L183.653 118.057C183.582 118.079 183.501 118.089 183.409 118.089ZM184.518 118.089C184.412 118.089 184.315 118.066 184.228 118.019C184.14 117.969 184.069 117.904 184.015 117.824C183.963 117.744 183.937 117.654 183.937 117.555C183.937 117.373 184.015 117.24 184.171 117.155C184.329 117.07 184.576 117.027 184.911 117.027H185.155L185.166 116.964C185.184 116.853 185.167 116.768 185.112 116.709C185.06 116.65 184.968 116.62 184.836 116.62C184.626 116.62 184.428 116.679 184.242 116.797L184.143 116.493C184.232 116.432 184.346 116.382 184.482 116.344C184.619 116.307 184.756 116.288 184.893 116.288C185.079 116.288 185.226 116.322 185.332 116.39C185.438 116.459 185.51 116.552 185.548 116.67C185.586 116.788 185.593 116.922 185.569 117.073L185.413 118.054H184.999L185.038 117.799C184.979 117.898 184.904 117.971 184.812 118.019C184.72 118.066 184.622 118.089 184.518 118.089ZM184.656 117.785C184.767 117.785 184.863 117.75 184.946 117.679C185.029 117.606 185.079 117.508 185.098 117.385L185.116 117.282H184.932C184.724 117.282 184.578 117.3 184.493 117.335C184.41 117.368 184.369 117.432 184.369 117.527C184.369 117.609 184.396 117.673 184.451 117.718C184.507 117.763 184.576 117.785 184.656 117.785ZM186.896 118.089C186.768 118.089 186.655 118.061 186.556 118.004C186.459 117.945 186.387 117.859 186.34 117.746L186.294 118.054H185.862L186.259 115.559H186.701L186.538 116.574C186.604 116.485 186.686 116.415 186.783 116.366C186.882 116.314 186.991 116.288 187.112 116.288C187.31 116.288 187.468 116.355 187.586 116.489C187.706 116.622 187.767 116.803 187.767 117.035C187.767 117.23 187.731 117.409 187.66 117.569C187.592 117.727 187.493 117.853 187.363 117.948C187.233 118.042 187.078 118.089 186.896 118.089ZM186.814 117.753C186.923 117.753 187.014 117.722 187.087 117.661C187.163 117.6 187.22 117.516 187.26 117.41C187.301 117.304 187.321 117.186 187.321 117.056C187.321 116.917 187.286 116.81 187.218 116.737C187.152 116.662 187.06 116.624 186.942 116.624C186.836 116.624 186.745 116.655 186.669 116.716C186.594 116.777 186.536 116.861 186.496 116.967C186.456 117.071 186.436 117.189 186.436 117.321C186.436 117.46 186.469 117.568 186.535 117.643C186.603 117.716 186.696 117.753 186.814 117.753ZM188.597 118.089C188.396 118.089 188.253 118.034 188.165 117.923C188.078 117.81 188.051 117.646 188.084 117.431L188.381 115.559H188.824L188.526 117.427C188.51 117.531 188.519 117.608 188.555 117.657C188.592 117.705 188.656 117.728 188.746 117.728C188.772 117.728 188.798 117.727 188.824 117.725C188.85 117.72 188.875 117.716 188.901 117.714L188.841 118.057C188.77 118.079 188.689 118.089 188.597 118.089ZM189.997 118.089C189.822 118.089 189.67 118.057 189.54 117.994C189.413 117.928 189.314 117.836 189.243 117.718C189.172 117.6 189.137 117.462 189.137 117.304C189.137 117.11 189.177 116.938 189.257 116.787C189.34 116.633 189.453 116.512 189.597 116.422C189.741 116.333 189.906 116.288 190.092 116.288C190.281 116.288 190.431 116.33 190.542 116.415C190.653 116.498 190.728 116.609 190.768 116.748C190.811 116.885 190.823 117.035 190.804 117.197L190.793 117.289H189.551C189.546 117.433 189.586 117.547 189.671 117.629C189.756 117.712 189.878 117.753 190.036 117.753C190.14 117.753 190.237 117.739 190.329 117.711C190.424 117.68 190.508 117.635 190.581 117.576L190.691 117.866C190.608 117.937 190.504 117.993 190.379 118.033C190.256 118.07 190.129 118.089 189.997 118.089ZM190.089 116.589C189.99 116.589 189.906 116.61 189.837 116.652C189.769 116.692 189.715 116.747 189.675 116.815C189.635 116.884 189.605 116.957 189.586 117.035H190.464C190.473 116.907 190.449 116.801 190.39 116.716C190.331 116.631 190.23 116.589 190.089 116.589Z" fill="#36AAC8"/>
<path d="M237.697 123.099H157.046V123.352H237.697V123.099Z" fill="#E8E8E8"/>
<path d="M241.742 123.283H153.001V150.66H241.742V123.283Z" fill="#F1F1F1"/>
<path d="M158.888 131.328L157.04 127.098H157.568L159.122 130.704L160.67 127.098H161.186L159.332 131.328H158.888ZM162.601 131.382C162.141 131.382 161.777 131.248 161.509 130.98C161.241 130.708 161.107 130.34 161.107 129.876C161.107 129.576 161.167 129.312 161.287 129.084C161.407 128.852 161.571 128.674 161.779 128.55C161.991 128.422 162.235 128.358 162.511 128.358C162.907 128.358 163.217 128.486 163.441 128.742C163.665 128.994 163.777 129.342 163.777 129.786V129.972H161.581C161.597 130.304 161.693 130.558 161.869 130.734C162.045 130.906 162.289 130.992 162.601 130.992C162.777 130.992 162.945 130.966 163.105 130.914C163.265 130.858 163.417 130.768 163.561 130.644L163.729 130.986C163.597 131.11 163.429 131.208 163.225 131.28C163.021 131.348 162.813 131.382 162.601 131.382ZM162.523 128.718C162.247 128.718 162.029 128.804 161.869 128.976C161.709 129.148 161.615 129.374 161.587 129.654H163.357C163.345 129.358 163.267 129.128 163.123 128.964C162.983 128.8 162.783 128.718 162.523 128.718ZM164.481 131.328V128.412H164.955V128.91C165.051 128.726 165.187 128.588 165.363 128.496C165.539 128.404 165.737 128.358 165.957 128.358C166.649 128.358 166.995 128.742 166.995 129.51V131.328H166.509V129.54C166.509 129.268 166.455 129.07 166.347 128.946C166.243 128.818 166.075 128.754 165.843 128.754C165.575 128.754 165.361 128.838 165.201 129.006C165.045 129.17 164.967 129.39 164.967 129.666V131.328H164.481ZM168.923 131.382C168.223 131.382 167.873 130.996 167.873 130.224V128.412H168.359V130.218C168.359 130.478 168.411 130.67 168.515 130.794C168.623 130.918 168.791 130.98 169.019 130.98C169.267 130.98 169.469 130.898 169.625 130.734C169.781 130.566 169.859 130.344 169.859 130.068V128.412H170.345V131.328H169.871V130.836C169.779 131.012 169.649 131.148 169.481 131.244C169.317 131.336 169.131 131.382 168.923 131.382ZM172.568 131.382C172.108 131.382 171.744 131.248 171.476 130.98C171.208 130.708 171.074 130.34 171.074 129.876C171.074 129.576 171.134 129.312 171.254 129.084C171.374 128.852 171.538 128.674 171.746 128.55C171.958 128.422 172.202 128.358 172.478 128.358C172.874 128.358 173.184 128.486 173.408 128.742C173.632 128.994 173.744 129.342 173.744 129.786V129.972H171.548C171.564 130.304 171.66 130.558 171.836 130.734C172.012 130.906 172.256 130.992 172.568 130.992C172.744 130.992 172.912 130.966 173.072 130.914C173.232 130.858 173.384 130.768 173.528 130.644L173.696 130.986C173.564 131.11 173.396 131.208 173.192 131.28C172.988 131.348 172.78 131.382 172.568 131.382ZM172.49 128.718C172.214 128.718 171.996 128.804 171.836 128.976C171.676 129.148 171.582 129.374 171.554 129.654H173.324C173.312 129.358 173.234 129.128 173.09 128.964C172.95 128.8 172.75 128.718 172.49 128.718ZM176.846 131.328L175.592 128.412H176.12L177.086 130.776L178.064 128.412H178.562L177.302 131.328H176.846ZM179.016 127.686V127.14H179.616V127.686H179.016ZM179.076 131.328V128.412H179.562V131.328H179.076ZM181.785 131.382C181.325 131.382 180.961 131.248 180.693 130.98C180.425 130.708 180.291 130.34 180.291 129.876C180.291 129.576 180.351 129.312 180.471 129.084C180.591 128.852 180.755 128.674 180.963 128.55C181.175 128.422 181.419 128.358 181.695 128.358C182.091 128.358 182.401 128.486 182.625 128.742C182.849 128.994 182.961 129.342 182.961 129.786V129.972H180.765C180.781 130.304 180.877 130.558 181.053 130.734C181.229 130.906 181.473 130.992 181.785 130.992C181.961 130.992 182.129 130.966 182.289 130.914C182.449 130.858 182.601 130.768 182.745 130.644L182.913 130.986C182.781 131.11 182.613 131.208 182.409 131.28C182.205 131.348 181.997 131.382 181.785 131.382ZM181.707 128.718C181.431 128.718 181.213 128.804 181.053 128.976C180.893 129.148 180.799 129.374 180.771 129.654H182.541C182.529 129.358 182.451 129.128 182.307 128.964C182.167 128.8 181.967 128.718 181.707 128.718ZM184.403 131.328L183.317 128.412H183.827L184.649 130.758L185.501 128.412H185.915L186.755 130.764L187.589 128.412H188.075L186.983 131.328H186.521L185.699 129.066L184.871 131.328H184.403Z" fill="#A0A0A0"/>
<path d="M157.511 138.339V137.787L158.837 136.374C159.015 136.18 159.143 136.009 159.221 135.862C159.298 135.711 159.337 135.558 159.337 135.403C159.337 135.007 159.099 134.809 158.622 134.809C158.25 134.809 157.907 134.949 157.593 135.228L157.343 134.67C157.506 134.523 157.709 134.404 157.953 134.315C158.197 134.226 158.451 134.181 158.715 134.181C159.153 134.181 159.488 134.28 159.721 134.478C159.957 134.676 160.076 134.959 160.076 135.327C160.076 135.575 160.016 135.814 159.895 136.042C159.779 136.271 159.595 136.517 159.343 136.781L158.442 137.723H160.233V138.339H157.511ZM162.277 138.397C161.793 138.397 161.423 138.215 161.167 137.851C160.911 137.482 160.783 136.959 160.783 136.281C160.783 135.594 160.911 135.073 161.167 134.716C161.423 134.36 161.793 134.181 162.277 134.181C162.766 134.181 163.136 134.36 163.388 134.716C163.644 135.073 163.772 135.593 163.772 136.275C163.772 136.957 163.644 137.482 163.388 137.851C163.132 138.215 162.762 138.397 162.277 138.397ZM162.277 137.787C162.541 137.787 162.735 137.667 162.859 137.426C162.987 137.182 163.051 136.798 163.051 136.275C163.051 135.755 162.987 135.379 162.859 135.147C162.735 134.91 162.541 134.792 162.277 134.792C162.018 134.792 161.824 134.91 161.696 135.147C161.568 135.379 161.504 135.755 161.504 136.275C161.504 136.798 161.568 137.182 161.696 137.426C161.824 137.667 162.018 137.787 162.277 137.787ZM167.849 138.397C167.45 138.397 167.108 138.277 166.825 138.037C166.546 137.796 166.358 137.449 166.261 136.996H165.697V136.484H166.197C166.19 136.345 166.19 136.213 166.197 136.089H165.697V135.577H166.261C166.362 135.127 166.552 134.782 166.831 134.542C167.11 134.302 167.45 134.181 167.849 134.181C168.074 134.181 168.287 134.222 168.489 134.304C168.69 134.385 168.857 134.505 168.989 134.664L168.744 135.182C168.62 135.046 168.489 134.951 168.349 134.897C168.209 134.842 168.06 134.815 167.901 134.815C167.692 134.815 167.51 134.877 167.355 135.001C167.203 135.122 167.093 135.313 167.023 135.577H167.895V136.089H166.936C166.932 136.221 166.934 136.352 166.942 136.484H167.895V136.996H167.023C167.093 137.263 167.203 137.459 167.355 137.583C167.51 137.703 167.692 137.763 167.901 137.763C168.06 137.763 168.209 137.736 168.349 137.682C168.489 137.624 168.62 137.529 168.744 137.397L168.989 137.909C168.857 138.072 168.69 138.194 168.489 138.275C168.287 138.357 168.074 138.397 167.849 138.397Z" fill="#A0A0A0"/>
<path d="M158.108 145.397C157.926 145.397 157.749 145.374 157.577 145.326C157.407 145.277 157.257 145.2 157.128 145.096L157.29 144.753C157.427 144.85 157.568 144.918 157.712 144.958C157.855 144.996 158.002 145.015 158.15 145.015C158.316 145.015 158.445 144.983 158.54 144.919C158.637 144.856 158.685 144.772 158.685 144.668C158.685 144.59 158.657 144.525 158.6 144.473C158.543 144.419 158.447 144.377 158.31 144.346L157.924 144.254C157.752 144.214 157.615 144.142 157.513 144.038C157.412 143.932 157.361 143.791 157.361 143.617C157.361 143.452 157.406 143.311 157.496 143.196C157.588 143.078 157.709 142.988 157.86 142.927C158.011 142.863 158.175 142.831 158.352 142.831C158.508 142.831 158.665 142.855 158.823 142.902C158.981 142.949 159.12 143.024 159.241 143.128L159.071 143.461C158.965 143.371 158.848 143.308 158.72 143.27C158.593 143.232 158.468 143.213 158.345 143.213C158.187 143.213 158.058 143.246 157.959 143.312C157.86 143.378 157.811 143.467 157.811 143.578C157.811 143.667 157.837 143.736 157.889 143.783C157.94 143.83 158.017 143.867 158.119 143.893L158.504 143.985C158.714 144.032 158.871 144.111 158.975 144.222C159.081 144.331 159.134 144.462 159.134 144.615C159.134 144.787 159.087 144.932 158.993 145.05C158.898 145.166 158.773 145.253 158.618 145.312C158.462 145.369 158.292 145.397 158.108 145.397ZM160.224 145.397C159.969 145.397 159.77 145.326 159.626 145.185C159.482 145.043 159.41 144.853 159.41 144.615C159.41 144.407 159.453 144.228 159.537 144.077C159.625 143.923 159.742 143.806 159.888 143.723C160.034 143.638 160.196 143.595 160.373 143.595C160.628 143.595 160.827 143.666 160.971 143.808C161.115 143.949 161.187 144.139 161.187 144.378C161.187 144.585 161.143 144.766 161.056 144.919C160.971 145.07 160.855 145.188 160.709 145.273C160.565 145.356 160.403 145.397 160.224 145.397ZM160.235 145.061C160.343 145.061 160.434 145.03 160.507 144.969C160.583 144.907 160.641 144.824 160.681 144.718C160.721 144.611 160.741 144.493 160.741 144.364C160.741 144.224 160.707 144.118 160.638 144.045C160.572 143.97 160.48 143.932 160.362 143.932C160.256 143.932 160.165 143.962 160.09 144.024C160.014 144.085 159.956 144.169 159.916 144.275C159.876 144.379 159.856 144.497 159.856 144.629C159.856 144.768 159.889 144.876 159.955 144.951C160.024 145.024 160.117 145.061 160.235 145.061ZM162.023 145.397C161.822 145.397 161.678 145.342 161.591 145.231C161.504 145.117 161.477 144.953 161.51 144.739L161.807 142.866H162.249L161.952 144.735C161.936 144.839 161.945 144.916 161.98 144.965C162.018 145.012 162.082 145.036 162.171 145.036C162.197 145.036 162.223 145.035 162.249 145.033C162.275 145.028 162.301 145.024 162.327 145.022L162.267 145.365C162.196 145.387 162.115 145.397 162.023 145.397ZM163.21 145.397C163.014 145.397 162.856 145.33 162.736 145.195C162.618 145.061 162.559 144.879 162.559 144.65C162.559 144.452 162.593 144.274 162.662 144.116C162.732 143.955 162.833 143.829 162.962 143.737C163.092 143.643 163.247 143.595 163.426 143.595C163.551 143.595 163.662 143.624 163.759 143.68C163.856 143.735 163.928 143.817 163.975 143.928L164.141 142.866H164.584L164.187 145.362H163.755L163.801 145.082C163.735 145.181 163.651 145.259 163.55 145.316C163.451 145.37 163.338 145.397 163.21 145.397ZM163.384 145.061C163.492 145.061 163.583 145.03 163.656 144.969C163.732 144.907 163.789 144.824 163.83 144.718C163.87 144.611 163.89 144.493 163.89 144.364C163.89 144.224 163.856 144.118 163.787 144.045C163.721 143.97 163.629 143.932 163.511 143.932C163.405 143.932 163.314 143.962 163.238 144.024C163.163 144.085 163.105 144.169 163.065 144.275C163.025 144.379 163.005 144.497 163.005 144.629C163.005 144.768 163.038 144.876 163.104 144.951C163.172 145.024 163.266 145.061 163.384 145.061ZM166.453 145.397C166.198 145.397 165.999 145.326 165.855 145.185C165.711 145.043 165.639 144.853 165.639 144.615C165.639 144.407 165.681 144.228 165.766 144.077C165.854 143.923 165.97 143.806 166.117 143.723C166.263 143.638 166.425 143.595 166.602 143.595C166.856 143.595 167.056 143.666 167.2 143.808C167.344 143.949 167.416 144.139 167.416 144.378C167.416 144.585 167.372 144.766 167.285 144.919C167.2 145.07 167.084 145.188 166.938 145.273C166.794 145.356 166.632 145.397 166.453 145.397ZM166.464 145.061C166.572 145.061 166.663 145.03 166.736 144.969C166.812 144.907 166.869 144.824 166.909 144.718C166.95 144.611 166.97 144.493 166.97 144.364C166.97 144.224 166.935 144.118 166.867 144.045C166.801 143.97 166.709 143.932 166.591 143.932C166.485 143.932 166.394 143.962 166.318 144.024C166.243 144.085 166.185 144.169 166.145 144.275C166.105 144.379 166.085 144.497 166.085 144.629C166.085 144.768 166.118 144.876 166.184 144.951C166.252 145.024 166.346 145.061 166.464 145.061ZM168.255 145.397C168.069 145.397 167.926 145.338 167.827 145.22C167.73 145.102 167.702 144.917 167.742 144.664L167.905 143.631H168.347L168.184 144.661C168.142 144.918 168.224 145.047 168.432 145.047C168.564 145.047 168.672 145.003 168.754 144.916C168.837 144.828 168.89 144.709 168.913 144.558L169.059 143.631H169.501L169.228 145.362H168.797L168.839 145.089C168.775 145.188 168.693 145.265 168.591 145.319C168.492 145.371 168.38 145.397 168.255 145.397ZM170.51 145.397C170.279 145.397 170.111 145.335 170.008 145.21C169.904 145.082 169.867 144.918 169.898 144.718L170.018 143.964H169.685L169.739 143.631H170.071L170.153 143.114H170.595L170.514 143.631H171.038L170.984 143.964H170.461L170.344 144.689C170.325 144.812 170.339 144.9 170.386 144.955C170.436 145.007 170.511 145.033 170.613 145.033C170.648 145.033 170.682 145.029 170.715 145.022C170.749 145.015 170.78 145.007 170.811 144.997L170.836 145.33C170.798 145.351 170.749 145.368 170.687 145.379C170.626 145.391 170.567 145.397 170.51 145.397Z" fill="#7A7A7A"/>
<path d="M237.697 150.407H157.046V150.66H237.697V150.407Z" fill="#E8E8E8"/>
<path d="M241.742 123.283H153.001V150.66H241.742V123.283Z" fill="#F1F1F1"/>
<path d="M158.888 131.328L157.04 127.098H157.568L159.122 130.704L160.67 127.098H161.186L159.332 131.328H158.888ZM162.601 131.382C162.141 131.382 161.777 131.248 161.509 130.98C161.241 130.708 161.107 130.34 161.107 129.876C161.107 129.576 161.167 129.312 161.287 129.084C161.407 128.852 161.571 128.674 161.779 128.55C161.991 128.422 162.235 128.358 162.511 128.358C162.907 128.358 163.217 128.486 163.441 128.742C163.665 128.994 163.777 129.342 163.777 129.786V129.972H161.581C161.597 130.304 161.693 130.558 161.869 130.734C162.045 130.906 162.289 130.992 162.601 130.992C162.777 130.992 162.945 130.966 163.105 130.914C163.265 130.858 163.417 130.768 163.561 130.644L163.729 130.986C163.597 131.11 163.429 131.208 163.225 131.28C163.021 131.348 162.813 131.382 162.601 131.382ZM162.523 128.718C162.247 128.718 162.029 128.804 161.869 128.976C161.709 129.148 161.615 129.374 161.587 129.654H163.357C163.345 129.358 163.267 129.128 163.123 128.964C162.983 128.8 162.783 128.718 162.523 128.718ZM164.481 131.328V128.412H164.955V128.91C165.051 128.726 165.187 128.588 165.363 128.496C165.539 128.404 165.737 128.358 165.957 128.358C166.649 128.358 166.995 128.742 166.995 129.51V131.328H166.509V129.54C166.509 129.268 166.455 129.07 166.347 128.946C166.243 128.818 166.075 128.754 165.843 128.754C165.575 128.754 165.361 128.838 165.201 129.006C165.045 129.17 164.967 129.39 164.967 129.666V131.328H164.481ZM168.923 131.382C168.223 131.382 167.873 130.996 167.873 130.224V128.412H168.359V130.218C168.359 130.478 168.411 130.67 168.515 130.794C168.623 130.918 168.791 130.98 169.019 130.98C169.267 130.98 169.469 130.898 169.625 130.734C169.781 130.566 169.859 130.344 169.859 130.068V128.412H170.345V131.328H169.871V130.836C169.779 131.012 169.649 131.148 169.481 131.244C169.317 131.336 169.131 131.382 168.923 131.382ZM172.568 131.382C172.108 131.382 171.744 131.248 171.476 130.98C171.208 130.708 171.074 130.34 171.074 129.876C171.074 129.576 171.134 129.312 171.254 129.084C171.374 128.852 171.538 128.674 171.746 128.55C171.958 128.422 172.202 128.358 172.478 128.358C172.874 128.358 173.184 128.486 173.408 128.742C173.632 128.994 173.744 129.342 173.744 129.786V129.972H171.548C171.564 130.304 171.66 130.558 171.836 130.734C172.012 130.906 172.256 130.992 172.568 130.992C172.744 130.992 172.912 130.966 173.072 130.914C173.232 130.858 173.384 130.768 173.528 130.644L173.696 130.986C173.564 131.11 173.396 131.208 173.192 131.28C172.988 131.348 172.78 131.382 172.568 131.382ZM172.49 128.718C172.214 128.718 171.996 128.804 171.836 128.976C171.676 129.148 171.582 129.374 171.554 129.654H173.324C173.312 129.358 173.234 129.128 173.09 128.964C172.95 128.8 172.75 128.718 172.49 128.718ZM176.846 131.328L175.592 128.412H176.12L177.086 130.776L178.064 128.412H178.562L177.302 131.328H176.846ZM179.016 127.686V127.14H179.616V127.686H179.016ZM179.076 131.328V128.412H179.562V131.328H179.076ZM181.785 131.382C181.325 131.382 180.961 131.248 180.693 130.98C180.425 130.708 180.291 130.34 180.291 129.876C180.291 129.576 180.351 129.312 180.471 129.084C180.591 128.852 180.755 128.674 180.963 128.55C181.175 128.422 181.419 128.358 181.695 128.358C182.091 128.358 182.401 128.486 182.625 128.742C182.849 128.994 182.961 129.342 182.961 129.786V129.972H180.765C180.781 130.304 180.877 130.558 181.053 130.734C181.229 130.906 181.473 130.992 181.785 130.992C181.961 130.992 182.129 130.966 182.289 130.914C182.449 130.858 182.601 130.768 182.745 130.644L182.913 130.986C182.781 131.11 182.613 131.208 182.409 131.28C182.205 131.348 181.997 131.382 181.785 131.382ZM181.707 128.718C181.431 128.718 181.213 128.804 181.053 128.976C180.893 129.148 180.799 129.374 180.771 129.654H182.541C182.529 129.358 182.451 129.128 182.307 128.964C182.167 128.8 181.967 128.718 181.707 128.718ZM184.403 131.328L183.317 128.412H183.827L184.649 130.758L185.501 128.412H185.915L186.755 130.764L187.589 128.412H188.075L186.983 131.328H186.521L185.699 129.066L184.871 131.328H184.403Z" fill="#A0A0A0"/>
<path d="M157.511 138.339V137.787L158.837 136.374C159.015 136.18 159.143 136.009 159.221 135.862C159.298 135.711 159.337 135.558 159.337 135.403C159.337 135.007 159.099 134.809 158.622 134.809C158.25 134.809 157.907 134.949 157.593 135.228L157.343 134.67C157.506 134.523 157.709 134.404 157.953 134.315C158.197 134.226 158.451 134.181 158.715 134.181C159.153 134.181 159.488 134.28 159.721 134.478C159.957 134.676 160.076 134.959 160.076 135.327C160.076 135.575 160.016 135.814 159.895 136.042C159.779 136.271 159.595 136.517 159.343 136.781L158.442 137.723H160.233V138.339H157.511ZM162.277 138.397C161.793 138.397 161.423 138.215 161.167 137.851C160.911 137.482 160.783 136.959 160.783 136.281C160.783 135.594 160.911 135.073 161.167 134.716C161.423 134.36 161.793 134.181 162.277 134.181C162.766 134.181 163.136 134.36 163.388 134.716C163.644 135.073 163.772 135.593 163.772 136.275C163.772 136.957 163.644 137.482 163.388 137.851C163.132 138.215 162.762 138.397 162.277 138.397ZM162.277 137.787C162.541 137.787 162.735 137.667 162.859 137.426C162.987 137.182 163.051 136.798 163.051 136.275C163.051 135.755 162.987 135.379 162.859 135.147C162.735 134.91 162.541 134.792 162.277 134.792C162.018 134.792 161.824 134.91 161.696 135.147C161.568 135.379 161.504 135.755 161.504 136.275C161.504 136.798 161.568 137.182 161.696 137.426C161.824 137.667 162.018 137.787 162.277 137.787ZM167.849 138.397C167.45 138.397 167.108 138.277 166.825 138.037C166.546 137.796 166.358 137.449 166.261 136.996H165.697V136.484H166.197C166.19 136.345 166.19 136.213 166.197 136.089H165.697V135.577H166.261C166.362 135.127 166.552 134.782 166.831 134.542C167.11 134.302 167.45 134.181 167.849 134.181C168.074 134.181 168.287 134.222 168.489 134.304C168.69 134.385 168.857 134.505 168.989 134.664L168.744 135.182C168.62 135.046 168.489 134.951 168.349 134.897C168.209 134.842 168.06 134.815 167.901 134.815C167.692 134.815 167.51 134.877 167.355 135.001C167.203 135.122 167.093 135.313 167.023 135.577H167.895V136.089H166.936C166.932 136.221 166.934 136.352 166.942 136.484H167.895V136.996H167.023C167.093 137.263 167.203 137.459 167.355 137.583C167.51 137.703 167.692 137.763 167.901 137.763C168.06 137.763 168.209 137.736 168.349 137.682C168.489 137.624 168.62 137.529 168.744 137.397L168.989 137.909C168.857 138.072 168.69 138.194 168.489 138.275C168.287 138.357 168.074 138.397 167.849 138.397Z" fill="#A0A0A0"/>
<path d="M158.108 145.397C157.926 145.397 157.749 145.374 157.577 145.326C157.407 145.277 157.257 145.2 157.128 145.096L157.29 144.753C157.427 144.85 157.568 144.918 157.712 144.958C157.855 144.996 158.002 145.015 158.15 145.015C158.316 145.015 158.445 144.983 158.54 144.919C158.637 144.856 158.685 144.772 158.685 144.668C158.685 144.59 158.657 144.525 158.6 144.473C158.543 144.419 158.447 144.377 158.31 144.346L157.924 144.254C157.752 144.214 157.615 144.142 157.513 144.038C157.412 143.932 157.361 143.791 157.361 143.617C157.361 143.452 157.406 143.311 157.496 143.196C157.588 143.078 157.709 142.988 157.86 142.927C158.011 142.863 158.175 142.831 158.352 142.831C158.508 142.831 158.665 142.855 158.823 142.902C158.981 142.949 159.12 143.024 159.241 143.128L159.071 143.461C158.965 143.371 158.848 143.308 158.72 143.27C158.593 143.232 158.468 143.213 158.345 143.213C158.187 143.213 158.058 143.246 157.959 143.312C157.86 143.378 157.811 143.467 157.811 143.578C157.811 143.667 157.837 143.736 157.889 143.783C157.94 143.83 158.017 143.867 158.119 143.893L158.504 143.985C158.714 144.032 158.871 144.111 158.975 144.222C159.081 144.331 159.134 144.462 159.134 144.615C159.134 144.787 159.087 144.932 158.993 145.05C158.898 145.166 158.773 145.253 158.618 145.312C158.462 145.369 158.292 145.397 158.108 145.397ZM160.224 145.397C159.969 145.397 159.77 145.326 159.626 145.185C159.482 145.043 159.41 144.853 159.41 144.615C159.41 144.407 159.453 144.228 159.537 144.077C159.625 143.923 159.742 143.806 159.888 143.723C160.034 143.638 160.196 143.595 160.373 143.595C160.628 143.595 160.827 143.666 160.971 143.808C161.115 143.949 161.187 144.139 161.187 144.378C161.187 144.585 161.143 144.766 161.056 144.919C160.971 145.07 160.855 145.188 160.709 145.273C160.565 145.356 160.403 145.397 160.224 145.397ZM160.235 145.061C160.343 145.061 160.434 145.03 160.507 144.969C160.583 144.907 160.641 144.824 160.681 144.718C160.721 144.611 160.741 144.493 160.741 144.364C160.741 144.224 160.707 144.118 160.638 144.045C160.572 143.97 160.48 143.932 160.362 143.932C160.256 143.932 160.165 143.962 160.09 144.024C160.014 144.085 159.956 144.169 159.916 144.275C159.876 144.379 159.856 144.497 159.856 144.629C159.856 144.768 159.889 144.876 159.955 144.951C160.024 145.024 160.117 145.061 160.235 145.061ZM162.023 145.397C161.822 145.397 161.678 145.342 161.591 145.231C161.504 145.117 161.477 144.953 161.51 144.739L161.807 142.866H162.249L161.952 144.735C161.936 144.839 161.945 144.916 161.98 144.965C162.018 145.012 162.082 145.036 162.171 145.036C162.197 145.036 162.223 145.035 162.249 145.033C162.275 145.028 162.301 145.024 162.327 145.022L162.267 145.365C162.196 145.387 162.115 145.397 162.023 145.397ZM163.21 145.397C163.014 145.397 162.856 145.33 162.736 145.195C162.618 145.061 162.559 144.879 162.559 144.65C162.559 144.452 162.593 144.274 162.662 144.116C162.732 143.955 162.833 143.829 162.962 143.737C163.092 143.643 163.247 143.595 163.426 143.595C163.551 143.595 163.662 143.624 163.759 143.68C163.856 143.735 163.928 143.817 163.975 143.928L164.141 142.866H164.584L164.187 145.362H163.755L163.801 145.082C163.735 145.181 163.651 145.259 163.55 145.316C163.451 145.37 163.338 145.397 163.21 145.397ZM163.384 145.061C163.492 145.061 163.583 145.03 163.656 144.969C163.732 144.907 163.789 144.824 163.83 144.718C163.87 144.611 163.89 144.493 163.89 144.364C163.89 144.224 163.856 144.118 163.787 144.045C163.721 143.97 163.629 143.932 163.511 143.932C163.405 143.932 163.314 143.962 163.238 144.024C163.163 144.085 163.105 144.169 163.065 144.275C163.025 144.379 163.005 144.497 163.005 144.629C163.005 144.768 163.038 144.876 163.104 144.951C163.172 145.024 163.266 145.061 163.384 145.061ZM166.453 145.397C166.198 145.397 165.999 145.326 165.855 145.185C165.711 145.043 165.639 144.853 165.639 144.615C165.639 144.407 165.681 144.228 165.766 144.077C165.854 143.923 165.97 143.806 166.117 143.723C166.263 143.638 166.425 143.595 166.602 143.595C166.856 143.595 167.056 143.666 167.2 143.808C167.344 143.949 167.416 144.139 167.416 144.378C167.416 144.585 167.372 144.766 167.285 144.919C167.2 145.07 167.084 145.188 166.938 145.273C166.794 145.356 166.632 145.397 166.453 145.397ZM166.464 145.061C166.572 145.061 166.663 145.03 166.736 144.969C166.812 144.907 166.869 144.824 166.909 144.718C166.95 144.611 166.97 144.493 166.97 144.364C166.97 144.224 166.935 144.118 166.867 144.045C166.801 143.97 166.709 143.932 166.591 143.932C166.485 143.932 166.394 143.962 166.318 144.024C166.243 144.085 166.185 144.169 166.145 144.275C166.105 144.379 166.085 144.497 166.085 144.629C166.085 144.768 166.118 144.876 166.184 144.951C166.252 145.024 166.346 145.061 166.464 145.061ZM168.255 145.397C168.069 145.397 167.926 145.338 167.827 145.22C167.73 145.102 167.702 144.917 167.742 144.664L167.905 143.631H168.347L168.184 144.661C168.142 144.918 168.224 145.047 168.432 145.047C168.564 145.047 168.672 145.003 168.754 144.916C168.837 144.828 168.89 144.709 168.913 144.558L169.059 143.631H169.501L169.228 145.362H168.797L168.839 145.089C168.775 145.188 168.693 145.265 168.591 145.319C168.492 145.371 168.38 145.397 168.255 145.397ZM170.51 145.397C170.279 145.397 170.111 145.335 170.008 145.21C169.904 145.082 169.867 144.918 169.898 144.718L170.018 143.964H169.685L169.739 143.631H170.071L170.153 143.114H170.595L170.514 143.631H171.038L170.984 143.964H170.461L170.344 144.689C170.325 144.812 170.339 144.9 170.386 144.955C170.436 145.007 170.511 145.033 170.613 145.033C170.648 145.033 170.682 145.029 170.715 145.022C170.749 145.015 170.78 145.007 170.811 144.997L170.836 145.33C170.798 145.351 170.749 145.368 170.687 145.379C170.626 145.391 170.567 145.397 170.51 145.397Z" fill="#7A7A7A"/>
<path d="M237.697 150.407H157.046V150.66H237.697V150.407Z" fill="#E8E8E8"/>
<path d="M237.697 29H157.046V29.2528H237.697V29Z" fill="#BBBBBB"/>
<path d="M252.2 0H0V10.3713H252.2V0Z" fill="#EFF0F0"/>
<path d="M241.788 150H153V181.113H241.788V150Z" fill="#E8E8E8"/>
<path d="M95.2909 69.2733H60.7069L44.0415 81.0519V111L48.9283 118.267H107.195L112.582 111V81.4278L95.2909 69.2733Z" fill="#3BA0A8"/>
<path d="M129.875 103.356V102.98V89.4472V76.0397H124.862L124.987 103.732L124.737 111.5L120.853 118.393H126.116L130 111.5L129.875 103.356Z" fill="#A6E2E7"/>
<path d="M32.0122 103.732L32.1375 76.0397H27.1252V89.4472V102.98V103.356L27 111.5L30.8844 118.393H36.1472L32.2627 111.5L32.0122 103.732Z" fill="#A6E2E7"/>
<path d="M116.718 76.0397L116.843 103.732L116.718 111.5L112.708 118.393H118.096L121.855 111.5V103.356V102.98V89.4472V76.0397H116.718Z" fill="#A6E2E7"/>
<path d="M40.1572 103.732L40.2824 76.0397H35.145V89.4472V102.98V103.356V111.5L38.9041 118.393H44.2922L40.2824 111.5L40.1572 103.732Z" fill="#A6E2E7"/>
<path d="M112.708 32.0583H43.916V73.2835H44.4172L60.5814 61.7555H95.2907L111.705 73.2835H112.708V32.0583Z" fill="#6BC1C8"/>
<path d="M107.069 124.658H47.5498V138.066H107.069V124.658Z" fill="#BABABA" stroke="white" stroke-width="1.25304"/>
</g>
</g>
<defs>
<clipPath id="clip0_9007_23345">
<rect width="240" height="160" fill="white"/>
</clipPath>
</defs>
</svg>
