<svg width="42" height="48" viewBox="0 0 42 48" fill="none" xmlns="http://www.w3.org/2000/svg">
<path d="M33.0399 3.41209L31.8963 4.55575L33.0399 3.41209C32.4333 2.80545 31.6105 2.46464 30.7526 2.46464H5.61739C3.83088 2.46464 2.38261 3.91289 2.38261 5.69942V42.8768C2.38261 44.6633 3.83087 46.1116 5.61739 46.1116H36.3C38.0865 46.1116 39.5348 44.6633 39.5348 42.8768V11.2468C39.5348 10.3889 39.194 9.56609 38.5873 8.95945L33.0399 3.41209Z" fill="white" stroke="#C8C8C8" stroke-width="3.23478"/>
<path d="M30.3402 11.66V3.36364L32.1444 3L39 10.2167V11.66H30.3402Z" fill="#C8C8C8"/>
<path d="M18.3458 23.5674H9.13853C8.6919 23.5674 8.32983 23.9294 8.32983 24.3761V29.2535C8.32983 29.7001 8.6919 30.0622 9.13853 30.0622H18.3458C18.7925 30.0622 19.1545 29.7001 19.1545 29.2535V24.3761C19.1545 23.9294 18.7925 23.5674 18.3458 23.5674Z" fill="#EFF0F0"/>
<path d="M18.3458 14.1855H9.1385C8.69187 14.1855 8.3298 14.5476 8.3298 14.9942V19.8717C8.3298 20.3183 8.69187 20.6804 9.1385 20.6804H18.3458C18.7924 20.6804 19.1545 20.3183 19.1545 19.8717V14.9942C19.1545 14.5476 18.7924 14.1855 18.3458 14.1855Z" fill="#EFF0F0"/>
<path d="M18.3458 32.9482H9.13853C8.6919 32.9482 8.32983 33.3103 8.32983 33.7569V38.6344C8.32983 39.081 8.6919 39.4431 9.13853 39.4431H18.3458C18.7925 39.4431 19.1545 39.081 19.1545 38.6344V33.7569C19.1545 33.3103 18.7925 32.9482 18.3458 32.9482Z" fill="#EFF0F0"/>
<path d="M32.7787 23.5674H23.5714C23.1247 23.5674 22.7627 23.9294 22.7627 24.3761V29.2535C22.7627 29.7001 23.1247 30.0622 23.5714 30.0622H32.7787C33.2253 30.0622 33.5874 29.7001 33.5874 29.2535V24.3761C33.5874 23.9294 33.2253 23.5674 32.7787 23.5674Z" fill="#EFF0F0"/>
<path d="M32.7788 14.1855H23.5715C23.1249 14.1855 22.7628 14.5476 22.7628 14.9942V19.8717C22.7628 20.3183 23.1249 20.6804 23.5715 20.6804H32.7788C33.2254 20.6804 33.5875 20.3183 33.5875 19.8717V14.9942C33.5875 14.5476 33.2254 14.1855 32.7788 14.1855Z" fill="#EFF0F0"/>
<path d="M32.7787 32.9482H23.5714C23.1247 32.9482 22.7627 33.3103 22.7627 33.7569V38.6344C22.7627 39.081 23.1247 39.4431 23.5714 39.4431H32.7787C33.2253 39.4431 33.5874 39.081 33.5874 38.6344V33.7569C33.5874 33.3103 33.2253 32.9482 32.7787 32.9482Z" fill="#EFF0F0"/>
</svg>
