<svg width="120" height="80" viewBox="0 0 120 80" fill="none" xmlns="http://www.w3.org/2000/svg">
<g clip-path="url(#clip0_1384_37149)">
<mask id="mask0_1384_37149" style="mask-type:luminance" maskUnits="userSpaceOnUse" x="0" y="0" width="120" height="80">
<path d="M120 0H0V80H120V0Z" fill="white"/>
</mask>
<g mask="url(#mask0_1384_37149)">
<path d="M120 0H0V80H120V0Z" fill="white"/>
<path d="M114 20.2344H103V37.6965H114V20.2344Z" fill="white"/>
<path d="M8.76519 33.2344H24.5053C24.9279 33.2344 25.2705 33.577 25.2705 33.9995V46.2419C25.2705 46.6645 24.9279 47.0071 24.5053 47.0071H8.76519C8.34257 47.0071 8 46.6645 8 46.2419V33.9995C8 33.577 8.34257 33.2344 8.76519 33.2344Z" fill="white"/>
<path d="M8.76519 33.2344H24.5053C24.9279 33.2344 25.2705 33.577 25.2705 33.9995V46.2419C25.2705 46.6645 24.9279 47.0071 24.5053 47.0071H8.76519C8.34257 47.0071 8 46.6645 8 46.2419V33.9995C8 33.577 8.34257 33.2344 8.76519 33.2344Z" stroke="#C6C6C6" stroke-width="0.218613"/>
<path d="M14.4909 41.6848V41.2213H15.1861V39.2407L14.6483 39.5642L14.4297 39.1532L15.3479 38.6023H15.7457V41.2213H16.3972V41.6848H14.4909ZM17.7115 41.7285C17.5483 41.7285 17.3865 41.6979 17.2263 41.6367C17.0659 41.5726 16.9274 41.4866 16.8109 41.3788L16.9989 40.959C17.1038 41.0581 17.2175 41.1324 17.3399 41.182C17.4653 41.2315 17.5906 41.2563 17.7159 41.2563C17.9724 41.2563 18.1677 41.1674 18.3018 40.9896C18.4359 40.8118 18.5029 40.5466 18.5029 40.1939V40.0627C18.4446 40.223 18.347 40.3498 18.21 40.4431C18.073 40.5334 17.9127 40.5786 17.7291 40.5786C17.5542 40.5786 17.3982 40.5363 17.2612 40.4518C17.1242 40.3673 17.0149 40.2507 16.9333 40.102C16.8546 39.9505 16.8153 39.78 16.8153 39.5905C16.8153 39.3894 16.859 39.2116 16.9464 39.057C17.0339 38.9026 17.1534 38.7816 17.3049 38.6942C17.4594 38.6038 17.6358 38.5586 17.834 38.5586C18.2187 38.5586 18.5146 38.6927 18.7215 38.9609C18.9285 39.2261 19.032 39.6021 19.032 40.0889C19.032 40.6078 18.9154 41.0115 18.6822 41.3C18.449 41.5857 18.1254 41.7285 17.7115 41.7285ZM17.869 40.1327C18.0264 40.1327 18.1532 40.0816 18.2494 39.9796C18.3485 39.8747 18.398 39.7377 18.398 39.5686C18.398 39.3996 18.3485 39.2626 18.2494 39.1576C18.1532 39.0527 18.0264 39.0002 17.869 39.0002C17.7115 39.0002 17.5833 39.0527 17.4842 39.1576C17.388 39.2626 17.3399 39.3996 17.3399 39.5686C17.3399 39.7377 17.388 39.8747 17.4842 39.9796C17.5833 40.0816 17.7115 40.1327 17.869 40.1327Z" fill="#414141"/>
<path d="M27.6508 33.3477H43.3911C43.7501 33.3477 44.0416 33.639 44.0416 33.9984V46.2408C44.0416 46.6002 43.7501 46.8915 43.3911 46.8915H27.6508C27.2913 46.8915 27 46.6002 27 46.2408V33.9984C27 33.639 27.2913 33.3477 27.6508 33.3477Z" fill="#F2FEFF"/>
<path d="M27.6508 33.3477H43.3911C43.7501 33.3477 44.0416 33.639 44.0416 33.9984V46.2408C44.0416 46.6002 43.7501 46.8915 43.3911 46.8915H27.6508C27.2913 46.8915 27 46.6002 27 46.2408V33.9984C27 33.639 27.2913 33.3477 27.6508 33.3477Z" stroke="#3BA0A8" stroke-width="0.5"/>
<path d="M33.2499 41.6848V41.2694L34.2467 40.207C34.3808 40.0612 34.477 39.933 34.5353 39.8222C34.5936 39.7085 34.6228 39.5934 34.6228 39.4768C34.6228 39.1795 34.4435 39.0308 34.085 39.0308C33.8051 39.0308 33.5471 39.1358 33.311 39.3456L33.123 38.9259C33.2455 38.8151 33.3985 38.7262 33.5821 38.6592C33.7658 38.5921 33.9567 38.5586 34.1549 38.5586C34.4843 38.5586 34.7364 38.633 34.9113 38.7816C35.0891 38.9303 35.178 39.143 35.178 39.42C35.178 39.6065 35.1329 39.7858 35.0425 39.9578C34.955 40.1297 34.8166 40.3148 34.6271 40.513L33.9494 41.2213H35.2961V41.6848H33.2499ZM36.8334 41.7285C36.469 41.7285 36.1907 41.5915 35.9983 41.3175C35.8059 41.0406 35.7097 40.6471 35.7097 40.137C35.7097 39.6211 35.8059 39.229 35.9983 38.9609C36.1907 38.6927 36.469 38.5586 36.8334 38.5586C37.2007 38.5586 37.479 38.6927 37.6685 38.9609C37.8609 39.229 37.9571 39.6196 37.9571 40.1327C37.9571 40.6457 37.8609 41.0406 37.6685 41.3175C37.4761 41.5915 37.1978 41.7285 36.8334 41.7285ZM36.8334 41.2694C37.0316 41.2694 37.1773 41.1791 37.2706 40.9983C37.3668 40.8147 37.4149 40.5261 37.4149 40.1327C37.4149 39.742 37.3668 39.4593 37.2706 39.2844C37.1773 39.1066 37.0316 39.0177 36.8334 39.0177C36.6381 39.0177 36.4924 39.1066 36.3962 39.2844C36.3 39.4593 36.2519 39.742 36.2519 40.1327C36.2519 40.5261 36.3 40.8147 36.3962 40.9983C36.4924 41.1791 36.6381 41.2694 36.8334 41.2694Z" fill="#414141"/>
<path d="M46.7652 33.2344H62.5052C62.9281 33.2344 63.2705 33.577 63.2705 33.9995V46.2419C63.2705 46.6645 62.9281 47.0071 62.5052 47.0071H46.7652C46.3429 47.0071 46 46.6645 46 46.2419V33.9995C46 33.577 46.3429 33.2344 46.7652 33.2344Z" fill="white"/>
<path d="M46.7652 33.2344H62.5052C62.9281 33.2344 63.2705 33.577 63.2705 33.9995V46.2419C63.2705 46.6645 62.9281 47.0071 62.5052 47.0071H46.7652C46.3429 47.0071 46 46.6645 46 46.2419V33.9995C46 33.577 46.3429 33.2344 46.7652 33.2344Z" stroke="#C6C6C6" stroke-width="0.218613"/>
<path d="M52.365 41.6848V41.2694L53.3616 40.207C53.4959 40.0612 53.5921 39.933 53.6502 39.8222C53.7088 39.7085 53.7378 39.5934 53.7378 39.4768C53.7378 39.1795 53.5588 39.0308 53.2002 39.0308C52.9202 39.0308 52.6621 39.1358 52.4264 39.3456L52.2383 38.9259C52.3607 38.8151 52.5135 38.7262 52.6973 38.6592C52.8807 38.5921 53.0716 38.5586 53.2702 38.5586C53.5992 38.5586 53.8516 38.633 54.0264 38.7816C54.204 38.9303 54.293 39.143 54.293 39.42C54.293 39.6065 54.2478 39.7858 54.1578 39.9578C54.0702 40.1297 53.9316 40.3148 53.7421 40.513L53.0645 41.2213H54.4111V41.6848H52.365ZM55.1135 41.6848V41.2213H55.8088V39.2407L55.2707 39.5642L55.0521 39.1532L55.9702 38.6023H56.3683V41.2213H57.0197V41.6848H55.1135Z" fill="#414141"/>
<path d="M65.7652 33.2344H81.5052C81.9281 33.2344 82.2705 33.577 82.2705 33.9995V46.2419C82.2705 46.6645 81.9281 47.0071 81.5052 47.0071H65.7652C65.3424 47.0071 65 46.6645 65 46.2419V33.9995C65 33.577 65.3424 33.2344 65.7652 33.2344Z" fill="#F1F1F1"/>
<path d="M65.7652 33.2344H81.5052C81.9281 33.2344 82.2705 33.577 82.2705 33.9995V46.2419C82.2705 46.6645 81.9281 47.0071 81.5052 47.0071H65.7652C65.3424 47.0071 65 46.6645 65 46.2419V33.9995C65 33.577 65.3424 33.2344 65.7652 33.2344Z" stroke="#C6C6C6" stroke-width="0.218613"/>
<path d="M71.3669 41.6848V41.2694L72.364 40.207C72.4979 40.0612 72.594 39.933 72.6526 39.8222C72.7107 39.7085 72.7398 39.5934 72.7398 39.4768C72.7398 39.1795 72.5607 39.0308 72.2021 39.0308C71.9221 39.0308 71.6645 39.1358 71.4283 39.3456L71.2402 38.9259C71.3626 38.8151 71.5155 38.7262 71.6993 38.6592C71.8831 38.5921 72.074 38.5586 72.2721 38.5586C72.6017 38.5586 72.8536 38.633 73.0283 38.7816C73.2064 38.9303 73.295 39.143 73.295 39.42C73.295 39.6065 73.2498 39.7858 73.1598 39.9578C73.0721 40.1297 72.9336 40.3148 72.744 40.513L72.0664 41.2213H73.4131V41.6848H71.3669ZM73.9888 41.6848V41.2694L74.9855 40.207C75.1198 40.0612 75.216 39.933 75.274 39.8222C75.3326 39.7085 75.3617 39.5934 75.3617 39.4768C75.3617 39.1795 75.1821 39.0308 74.8236 39.0308C74.544 39.0308 74.286 39.1358 74.0498 39.3456L73.8617 38.9259C73.9845 38.8151 74.1374 38.7262 74.3212 38.6592C74.5045 38.5921 74.6955 38.5586 74.8936 38.5586C75.2231 38.5586 75.475 38.633 75.6502 38.7816C75.8279 38.9303 75.9169 39.143 75.9169 39.42C75.9169 39.6065 75.8717 39.7858 75.7812 39.9578C75.694 40.1297 75.5555 40.3148 75.3659 40.513L74.6883 41.2213H76.035V41.6848H73.9888Z" fill="#AFAFAF"/>
<path d="M84.7652 33.2344H100.505C100.928 33.2344 101.27 33.577 101.27 33.9995V46.2419C101.27 46.6645 100.928 47.0071 100.505 47.0071H84.7652C84.3424 47.0071 84 46.6645 84 46.2419V33.9995C84 33.577 84.3424 33.2344 84.7652 33.2344Z" fill="white"/>
<path d="M84.7652 33.2344H100.505C100.928 33.2344 101.27 33.577 101.27 33.9995V46.2419C101.27 46.6645 100.928 47.0071 100.505 47.0071H84.7652C84.3424 47.0071 84 46.6645 84 46.2419V33.9995C84 33.577 84.3424 33.2344 84.7652 33.2344Z" stroke="#C6C6C6" stroke-width="0.218613"/>
<path d="M90.363 41.6848V41.2694L91.3601 40.207C91.4939 40.0612 91.5901 39.933 91.6487 39.8222C91.7068 39.7085 91.7359 39.5934 91.7359 39.4768C91.7359 39.1795 91.5568 39.0308 91.1982 39.0308C90.9182 39.0308 90.6601 39.1358 90.4244 39.3456L90.2363 38.9259C90.3587 38.8151 90.5116 38.7262 90.6954 38.6592C90.8792 38.5921 91.0697 38.5586 91.2682 38.5586C91.5973 38.5586 91.8497 38.633 92.0244 38.7816C92.2025 38.9303 92.2911 39.143 92.2911 39.42C92.2911 39.6065 92.2459 39.7858 92.1559 39.9578C92.0682 40.1297 91.9297 40.3148 91.7401 40.513L91.0625 41.2213H92.4092V41.6848H90.363ZM93.8854 41.7285C93.6754 41.7285 93.4744 41.6979 93.282 41.6367C93.0925 41.5726 92.9354 41.4866 92.8097 41.3788L92.9935 40.9502C93.2559 41.1543 93.5473 41.2563 93.8678 41.2563C94.2616 41.2563 94.4582 41.1018 94.4582 40.7929C94.4582 40.6471 94.4087 40.5393 94.3097 40.4693C94.2135 40.3964 94.072 40.36 93.8854 40.36H93.3911V39.8965H93.833C93.9963 39.8965 94.1259 39.8572 94.222 39.7785C94.3182 39.6969 94.3663 39.5847 94.3663 39.4418C94.3663 39.3078 94.3211 39.2057 94.2306 39.1358C94.1435 39.0658 94.0149 39.0308 93.8459 39.0308C93.543 39.0308 93.2763 39.1358 93.0459 39.3456L92.862 38.9259C92.9849 38.8093 93.1378 38.719 93.3216 38.6548C93.5049 38.5907 93.6959 38.5586 93.8939 38.5586C94.2149 38.5586 94.464 38.6315 94.6416 38.7772C94.8197 38.92 94.9087 39.1197 94.9087 39.3762C94.9087 39.5424 94.8663 39.6881 94.7816 39.8135C94.6973 39.9388 94.582 40.0292 94.4363 40.0846C94.614 40.1341 94.7525 40.2259 94.8516 40.36C94.9506 40.4912 95.0001 40.6515 95.0001 40.841C95.0001 41.115 94.9011 41.3321 94.703 41.4924C94.5049 41.6498 94.232 41.7285 93.8854 41.7285Z" fill="#414141"/>
<path d="M112.37 35.6778H111.269V35.2542C111.269 35.1867 111.242 35.1221 111.195 35.0745C111.146 35.0268 111.082 35 111.014 35C110.947 35 110.882 35.0268 110.835 35.0745C110.787 35.1221 110.761 35.1867 110.761 35.2542V35.6778H107.202V35.2542C107.202 35.1867 107.175 35.1221 107.128 35.0745C107.08 35.0268 107.015 35 106.948 35C106.88 35 106.817 35.0268 106.768 35.0745C106.72 35.1221 106.694 35.1867 106.694 35.2542V35.6778H105.592C105.435 35.6778 105.284 35.7403 105.173 35.8515C105.062 35.9627 105 36.1134 105 36.2708V43.0477C105 43.2049 105.062 43.3558 105.173 43.467C105.284 43.5781 105.435 43.6406 105.592 43.6406H112.37C112.527 43.6406 112.678 43.5781 112.789 43.467C112.9 43.3558 112.962 43.2049 112.962 43.0477V36.2708C112.962 36.1134 112.9 35.9627 112.789 35.8515C112.678 35.7403 112.527 35.6778 112.37 35.6778ZM105.592 36.1861H106.694V36.6095C106.694 36.677 106.72 36.7416 106.768 36.7892C106.817 36.8369 106.88 36.8637 106.948 36.8637C107.015 36.8637 107.08 36.8369 107.128 36.7892C107.175 36.7416 107.202 36.677 107.202 36.6095V36.1861H110.761V36.6095C110.761 36.677 110.787 36.7416 110.835 36.7892C110.882 36.8369 110.947 36.8637 111.014 36.8637C111.082 36.8637 111.146 36.8369 111.195 36.7892C111.242 36.7416 111.269 36.677 111.269 36.6095V36.1861H112.37C112.392 36.1861 112.413 36.195 112.429 36.2108C112.446 36.2266 112.455 36.2483 112.455 36.2708V37.7109H105.508V36.2708C105.508 36.2483 105.517 36.2266 105.533 36.2108C105.549 36.195 105.57 36.1861 105.592 36.1861ZM112.37 43.1324H105.592C105.57 43.1324 105.549 43.1235 105.533 43.1076C105.517 43.0916 105.508 43.0702 105.508 43.0477V38.2192H112.455V43.0477C112.455 43.0702 112.446 43.0916 112.429 43.1076C112.413 43.1235 112.392 43.1324 112.37 43.1324ZM110.252 40.6757C110.252 40.7432 110.225 40.8077 110.177 40.8554C110.13 40.9031 110.065 40.9299 109.998 40.9299H109.236V41.6924C109.236 41.7597 109.209 41.8243 109.16 41.872C109.113 41.9196 109.049 41.9464 108.981 41.9464C108.913 41.9464 108.849 41.9196 108.802 41.872C108.753 41.8243 108.727 41.7597 108.727 41.6924V40.9299H107.964C107.897 40.9299 107.832 40.9031 107.785 40.8554C107.738 40.8077 107.711 40.7432 107.711 40.6757C107.711 40.6083 107.738 40.5438 107.785 40.4961C107.832 40.4484 107.897 40.4216 107.964 40.4216H108.727V39.6591C108.727 39.5918 108.753 39.5272 108.802 39.4795C108.849 39.4319 108.913 39.4051 108.981 39.4051C109.049 39.4051 109.113 39.4319 109.16 39.4795C109.209 39.5272 109.236 39.5918 109.236 39.6591V40.4216H109.998C110.065 40.4216 110.13 40.4484 110.177 40.4961C110.225 40.5438 110.252 40.6083 110.252 40.6757Z" fill="#343330"/>
</g>
</g>
<defs>
<clipPath id="clip0_1384_37149">
<rect width="120" height="80" fill="white"/>
</clipPath>
</defs>
</svg>
