<svg width="135" height="74" viewBox="0 0 135 74" fill="none" xmlns="http://www.w3.org/2000/svg">
<path d="M30 20.0357C30 18.9114 30.9621 18 32.1489 18H128.851C130.038 18 131 18.9114 131 20.0357V67.9643C131 69.0886 130.038 70 128.851 70H32.1489C30.9621 70 30 69.0886 30 67.9643V20.0357Z" fill="white"/>
<path d="M30 20.0357C30 18.9114 30.9621 18 32.1489 18H128.851C130.038 18 131 18.9114 131 20.0357V25.4286H30V20.0357Z" fill="#C6C6C6"/>
<path d="M130.25 20.0357V24.6786H30.75V20.0357C30.75 19.3634 31.3376 18.75 32.1489 18.75H128.851C129.662 18.75 130.25 19.3634 130.25 20.0357ZM30.75 67.9643V26.1786H130.25V67.9643C130.25 68.6366 129.662 69.25 128.851 69.25H32.1489C31.3376 69.25 30.75 68.6366 30.75 67.9643Z" stroke="#C6C6C6" stroke-width="1.5"/>
<path d="M41.4107 43.9801C25.0942 44.593 19.0808 30.9235 20.0517 22.5287H23.835L26.8477 16H59.4333C61.1516 18.7519 61.1516 23.4614 61.1516 23.4614C61.1517 29.6331 59.21 43.3114 41.4107 43.9801Z" fill="white"/>
<path d="M59.4333 16C61.1516 18.7519 61.1516 23.4614 61.1516 23.4614C61.1516 23.8365 61.1444 24.2371 61.1269 24.6588L19.9576 24.7624C19.937 23.9917 19.9691 23.2433 20.0517 22.5287H23.835L26.8477 16H59.4333Z" fill="#C6C6C6"/>
<path d="M34.1912 20.0416C34.1912 21.5869 32.8872 22.8396 31.2786 22.8396C29.67 22.8396 28.366 21.5869 28.366 20.0416C28.366 18.4963 29.67 17.2436 31.2786 17.2436C32.8872 17.2436 34.1912 18.4963 34.1912 20.0416Z" fill="#5A88C5"/>
<path d="M19.7521 24.08C19.7521 28.5745 21.156 32.7411 23.5492 36.1652L27.7907 40.4067L28.4695 41.0855L28.4168 41.1382C31.9087 43.6922 36.2142 45.2 40.8718 45.2C52.5359 45.2 61.9916 35.7443 61.9916 24.08C61.9916 12.4157 52.5359 2.95999 40.8718 2.95999C29.2077 2.95999 19.7521 12.4157 19.7521 24.08ZM8.78386 58.056L25.5513 41.2884C24.4339 40.2928 23.414 39.19 22.5079 37.9961L5.61608 54.8882C4.74131 55.763 4.74131 57.1813 5.61608 58.056C6.49084 58.9308 7.9091 58.9308 8.78386 58.056Z" stroke="#C6C6C6" stroke-width="1.91999"/>
<path d="M46 32.0014C50.4183 32.0014 54 28.4193 54 24.0007C54 19.582 50.4183 16 46 16C41.5817 16 38 19.582 38 24.0007C38 28.4193 41.5817 32.0014 46 32.0014Z" fill="#5A88C5"/>
<path d="M45.6516 27.5715C46.2806 27.5715 46.8113 27.4689 47.245 27.2636C47.6797 27.0584 48.0019 26.7847 48.2138 26.4437C48.4257 26.1027 48.5316 25.7308 48.5316 25.3269C48.5316 24.8038 48.3694 24.3657 48.045 24.0115C47.7206 23.6572 47.2538 23.4299 46.6447 23.3306L48.2138 21.5428V20.5H43.3476V21.7911H46.307L44.877 23.41V24.4727H45.6119C46.4792 24.4727 46.9128 24.7575 46.9128 25.3269C46.9128 25.6116 46.797 25.8312 46.5652 25.9868C46.3335 26.1424 46.0157 26.2208 45.6119 26.2208C45.2477 26.2208 44.8924 26.1656 44.5437 26.0563C44.1972 25.9482 43.8905 25.7937 43.6257 25.5951L43 26.8266C43.331 27.065 43.7338 27.2493 44.2061 27.3784C44.6806 27.5075 45.1617 27.5715 45.6516 27.5715Z" fill="white"/>
</svg>
