<svg width="137" height="76" viewBox="0 0 137 76" fill="none" xmlns="http://www.w3.org/2000/svg">
<rect x="1" y="1" width="24" height="74" fill="#C6C6C6"/>
<path d="M13 28C17.4183 28 21 24.4183 21 20C21 15.5817 17.4183 12 13 12C8.58172 12 5 15.5817 5 20C5 24.4183 8.58172 28 13 28Z" fill="#5A88C5"/>
<path d="M13.714 23.7167V16.5714H10.7148V17.8984H12.1052V23.7167H13.714Z" fill="white"/>
<rect x="5" y="5.11111" width="16" height="4.11111" fill="#5A88C5"/>
<rect x="25" y="9.22223" width="111" height="8.22222" fill="#EFF0F0"/>
<rect x="28" y="12.3055" width="24" height="2.05556" rx="1.02778" fill="#DADADA"/>
<g filter="url(#filter0_d_995_3487)">
<rect x="25" y="1" width="111" height="8" fill="white"/>
</g>
<ellipse cx="132" cy="5.1111" rx="2" ry="2.05556" fill="#DADADA"/>
<rect x="25" y="30" width="111" height="1" fill="#EFF0F0"/>
<rect x="25" y="48" width="111" height="1" fill="#EFF0F0"/>
<rect x="25" y="57" width="111" height="1" fill="#EFF0F0"/>
<rect x="25" y="39" width="111" height="1" fill="#EFF0F0"/>
<rect x="25" y="66" width="111" height="1" fill="#EFF0F0"/>
<rect x="25" y="17" width="111" height="6" fill="#E0E0E0"/>
<rect x="0.5" y="0.5" width="136" height="75" stroke="#C6C6C6"/>
<defs>
<filter id="filter0_d_995_3487" x="24" y="1" width="113" height="10" filterUnits="userSpaceOnUse" color-interpolation-filters="sRGB">
<feFlood flood-opacity="0" result="BackgroundImageFix"/>
<feColorMatrix in="SourceAlpha" type="matrix" values="0 0 0 0 0 0 0 0 0 0 0 0 0 0 0 0 0 0 127 0" result="hardAlpha"/>
<feOffset dy="1"/>
<feGaussianBlur stdDeviation="0.5"/>
<feComposite in2="hardAlpha" operator="out"/>
<feColorMatrix type="matrix" values="0 0 0 0 0 0 0 0 0 0 0 0 0 0 0 0 0 0 0.15 0"/>
<feBlend mode="normal" in2="BackgroundImageFix" result="effect1_dropShadow_995_3487"/>
<feBlend mode="normal" in="SourceGraphic" in2="effect1_dropShadow_995_3487" result="shape"/>
</filter>
</defs>
</svg>
