<svg width="137" height="76" viewBox="0 0 137 76" fill="none" xmlns="http://www.w3.org/2000/svg">
<rect x="1" y="1" width="8" height="74" fill="#C6C6C6"/>
<rect x="3" y="5.11111" width="4" height="4" fill="#5A88C5"/>
<rect x="9" y="9" width="127" height="8" fill="#EFF0F0"/>
<rect x="12" y="12" width="24" height="2" rx="1" fill="#DADADA"/>
<g filter="url(#filter0_d_995_3510)">
<rect x="9" y="1" width="127" height="8" fill="white"/>
</g>
<ellipse cx="132" cy="5.1111" rx="2" ry="2.05556" fill="#DADADA"/>
<rect x="9" y="30" width="127" height="1" fill="#EFF0F0"/>
<rect x="9" y="48" width="127" height="1" fill="#EFF0F0"/>
<rect x="9" y="57" width="127" height="1" fill="#EFF0F0"/>
<rect x="9" y="39" width="127" height="1" fill="#EFF0F0"/>
<rect x="9" y="66" width="127" height="1" fill="#EFF0F0"/>
<rect x="9" y="17" width="127" height="6" fill="#E0E0E0"/>
<path d="M11 27.4426C15.4183 27.4426 19 23.8607 19 19.4421C19 15.0236 15.4183 11.4417 11 11.4417C6.58172 11.4417 3 15.0236 3 19.4421C3 23.8607 6.58172 27.4426 11 27.4426Z" fill="#5A88C5"/>
<path d="M13.9279 22.4768V21.1658H10.9387L12.5375 19.6562C12.9944 19.2324 13.3022 18.855 13.4611 18.524C13.62 18.1929 13.6995 17.8387 13.6995 17.4613C13.6995 17.0442 13.5913 16.6811 13.3762 16.3732C13.1621 16.0654 12.8598 15.827 12.4724 15.6582C12.0862 15.4893 11.6338 15.4055 11.1174 15.4055C10.5017 15.4055 9.95548 15.5191 9.47879 15.7476C9.0021 15.976 8.62803 16.2927 8.35658 16.6966L9.52844 17.4514C9.69396 17.2196 9.8992 17.0464 10.1442 16.9294C10.3891 16.8147 10.6639 16.7562 10.9684 16.7562C11.3326 16.7562 11.6084 16.8301 11.7982 16.9802C11.9858 17.1292 12.0807 17.3421 12.0807 17.6202C12.0807 17.8122 12.0311 18.0064 11.9318 18.2007C11.8324 18.3971 11.6404 18.6299 11.3558 18.9014L8.67438 21.4339V22.4768H13.9279Z" fill="white"/>
<rect x="0.5" y="0.5" width="136" height="75" stroke="#C6C6C6"/>
<defs>
<filter id="filter0_d_995_3510" x="8" y="1" width="129" height="10" filterUnits="userSpaceOnUse" color-interpolation-filters="sRGB">
<feFlood flood-opacity="0" result="BackgroundImageFix"/>
<feColorMatrix in="SourceAlpha" type="matrix" values="0 0 0 0 0 0 0 0 0 0 0 0 0 0 0 0 0 0 127 0" result="hardAlpha"/>
<feOffset dy="1"/>
<feGaussianBlur stdDeviation="0.5"/>
<feComposite in2="hardAlpha" operator="out"/>
<feColorMatrix type="matrix" values="0 0 0 0 0 0 0 0 0 0 0 0 0 0 0 0 0 0 0.15 0"/>
<feBlend mode="normal" in2="BackgroundImageFix" result="effect1_dropShadow_995_3510"/>
<feBlend mode="normal" in="SourceGraphic" in2="effect1_dropShadow_995_3510" result="shape"/>
</filter>
</defs>
</svg>
