<svg width="24" height="16" viewBox="0 0 24 16" fill="none" xmlns="http://www.w3.org/2000/svg">
<path d="M23.1559 1.66433H20.878C20.5525 1.25755 20.0644 0.932129 19.5763 0.932129H4.93221C4.36272 1.01348 3.87458 1.25755 3.54916 1.66433H1.27119C1.02712 1.66433 0.86441 1.82704 0.86441 2.07111V14.5186C0.86441 14.7626 1.02712 14.9253 1.27119 14.9253H3.54916C3.87458 15.3321 4.36272 15.5762 4.85085 15.5762H19.4949C20.0644 15.5762 20.5525 15.3321 20.7966 14.9253H23.0746C23.3186 14.9253 23.4814 14.7626 23.4814 14.5186V2.07111C23.5627 1.82704 23.4 1.66433 23.1559 1.66433ZM1.67797 14.1118V2.47789H3.30509V2.55925V13.9491C3.30509 14.0304 3.30509 14.0304 3.30509 14.1118H1.67797ZM19.5763 14.0304H4.93221V2.6406H19.5763V14.0304ZM22.7492 14.1118H21.122C21.122 14.0304 21.122 14.0304 21.122 13.9491V2.55925V2.47789H22.7492V14.1118Z" fill="#414141"/>
<path d="M14.1254 5.65088L11.4407 8.90512L9.48814 6.62715L5.90848 10.8577H18.5186L14.1254 5.65088Z" fill="#414141"/>
<path d="M11.6847 6.38286C12.0915 6.38286 12.417 6.05744 12.417 5.65066C12.417 5.24388 12.0915 4.91846 11.6847 4.91846C11.278 4.91846 10.9525 5.24388 10.9525 5.65066C10.9525 6.05744 11.278 6.38286 11.6847 6.38286Z" fill="#414141"/>
</svg>
