<svg width="19" height="16" viewBox="0 0 19 16" fill="none" xmlns="http://www.w3.org/2000/svg">
<path d="M17.0847 0.932129H2.44067C1.54576 0.932129 0.813553 1.66433 0.813553 2.55925V13.9491C0.813553 14.844 1.54576 15.5762 2.44067 15.5762H17.0847C17.9797 15.5762 18.7119 14.844 18.7119 13.9491V2.55925C18.7119 1.66433 17.9797 0.932129 17.0847 0.932129ZM17.0847 2.55925V3.77959H2.44067V2.55925H17.0847ZM17.0847 4.59315V11.7525H2.44067V4.59315H17.0847ZM2.44067 13.9491V12.566H17.0847V13.9491H2.44067Z" fill="#414141"/>
<path d="M15.0508 10.3695L11.3898 5.97632L9.11187 8.74242L7.48475 6.78988L4.47458 10.3695H15.0508Z" fill="#414141"/>
<path d="M9.35593 6.54584C9.68135 6.54584 10.0068 6.30177 10.0068 5.89499C10.0068 5.56956 9.76271 5.24414 9.35593 5.24414C8.94915 5.24414 8.70508 5.48821 8.70508 5.89499C8.70508 6.30177 8.94915 6.54584 9.35593 6.54584Z" fill="#414141"/>
</svg>
