<svg width="150" height="229" viewBox="0 0 150 229" fill="none" xmlns="http://www.w3.org/2000/svg">
<g clip-path="url(#clip0_3487_5477)">
<mask id="mask0_3487_5477" style="mask-type:luminance" maskUnits="userSpaceOnUse" x="0" y="0" width="150" height="229">
<path d="M150 0H0V228.614H150V0Z" fill="white"/>
</mask>
<g mask="url(#mask0_3487_5477)">
<path d="M150 0H0V228.614H150V0Z" fill="white"/>
<path d="M157.316 0H0V9.92602H157.316V0Z" fill="#EFF0F0"/>
<path d="M17.2149 19.8518L17.2177 19.8494C17.2244 19.8426 17.2407 19.8362 17.2622 19.8362H17.6534C17.7323 19.8362 17.7732 19.8486 17.7994 19.8646C17.8218 19.8782 17.8354 19.8953 17.8538 19.9186C17.8575 19.9233 17.8614 19.9282 17.8656 19.9334L18.622 20.995H17.98L17.2135 19.9205L17.2123 19.919C17.2 19.904 17.197 19.8906 17.198 19.8805C17.199 19.8702 17.2043 19.86 17.2149 19.8518Z" fill="#BCBCBC" stroke="#BCBCBC" stroke-width="0.0577501"/>
<path d="M17.2112 22.187L17.2134 22.1842L17.98 21.0522H18.6282L17.9081 22.1688C17.9058 22.1717 17.9036 22.1745 17.9015 22.1772C17.8904 22.1912 17.8821 22.2016 17.8713 22.2124L17.8703 22.2135C17.8565 22.2288 17.8403 22.2421 17.8146 22.2519C17.7882 22.262 17.7504 22.2691 17.6928 22.2691H17.2617C17.2288 22.2691 17.2114 22.2574 17.2037 22.2438C17.1951 22.2288 17.1945 22.2062 17.2112 22.187Z" fill="#BCBCBC" stroke="#BCBCBC" stroke-width="0.0577501"/>
<path d="M19.8603 22.5904V19.4052H21.9793V19.866H20.416V20.7425H21.8799V21.2034H20.416V22.1296H21.9793V22.5904H19.8603ZM22.5019 22.5904V20.3811H23.0531V20.7244C23.1284 20.5979 23.2293 20.5015 23.3558 20.4353C23.4854 20.3691 23.6299 20.3359 23.7895 20.3359C24.3106 20.3359 24.5711 20.6386 24.5711 21.244V22.5904H24.0064V21.2711C24.0064 21.0994 23.9733 20.9745 23.907 20.8961C23.8437 20.8178 23.7443 20.7787 23.6088 20.7787C23.4432 20.7787 23.3106 20.8313 23.2112 20.9368C23.1149 21.0392 23.0666 21.1763 23.0666 21.3479V22.5904H22.5019ZM25.1268 19.9067V19.3555H25.7593V19.9067H25.1268ZM24.6479 23.4624L24.6072 23.0513L24.815 23.0287C25.0469 23.0016 25.1629 22.866 25.1629 22.622V20.3811H25.7277V22.5497C25.7277 22.845 25.6599 23.0618 25.5244 23.2003C25.3888 23.3419 25.1614 23.4247 24.8421 23.4488L24.6479 23.4624ZM27.3216 22.6356C27.0927 22.6356 26.8939 22.5889 26.7252 22.4955C26.5565 22.4022 26.4254 22.2696 26.3321 22.0979C26.2388 21.9233 26.192 21.7184 26.192 21.4835C26.192 21.2485 26.2388 21.0452 26.3321 20.8735C26.4254 20.7019 26.5565 20.5693 26.7252 20.476C26.8939 20.3826 27.0927 20.3359 27.3216 20.3359C27.5504 20.3359 27.7492 20.3826 27.9179 20.476C28.0866 20.5693 28.2177 20.7019 28.311 20.8735C28.4044 21.0452 28.4511 21.2485 28.4511 21.4835C28.4511 21.7184 28.4044 21.9233 28.311 22.0979C28.2177 22.2696 28.0866 22.4022 27.9179 22.4955C27.7492 22.5889 27.5504 22.6356 27.3216 22.6356ZM27.3216 22.2064C27.4903 22.2064 27.6258 22.1461 27.7282 22.0256C27.8306 21.9021 27.8818 21.7214 27.8818 21.4835C27.8818 21.2425 27.8306 21.0633 27.7282 20.9458C27.6258 20.8254 27.4903 20.7651 27.3216 20.7651C27.1529 20.7651 27.0173 20.8254 26.9149 20.9458C26.8125 21.0633 26.7613 21.2425 26.7613 21.4835C26.7613 21.7214 26.8125 21.9021 26.9149 22.0256C27.0173 22.1461 27.1529 22.2064 27.3216 22.2064ZM29.0719 23.4037L29.4785 22.5L28.5613 20.3811H29.1622L29.7812 21.9263L30.4137 20.3811H30.983L29.6547 23.4037H29.0719ZM33.481 22.6356C32.8968 22.6356 32.6045 22.3464 32.6045 21.7681V20.8058H32.1798V20.3811H32.6045V19.7214H33.1693V20.3811H33.838V20.8058H33.1693V21.7365C33.1693 21.8811 33.2009 21.9895 33.2642 22.0618C33.3274 22.1341 33.4299 22.1702 33.5714 22.1702C33.6136 22.1702 33.6572 22.1657 33.7024 22.1567C33.7476 22.1447 33.7943 22.1325 33.8425 22.1205L33.9283 22.5362C33.8741 22.5663 33.8049 22.5904 33.7205 22.6085C33.6392 22.6266 33.5594 22.6356 33.481 22.6356ZM34.203 22.5904V19.4052H34.7678V20.7019C34.8431 20.5814 34.944 20.491 35.0705 20.4308C35.197 20.3675 35.3371 20.3359 35.4907 20.3359C36.0117 20.3359 36.2723 20.6386 36.2723 21.244V22.5904H35.7075V21.2711C35.7075 21.0994 35.6744 20.9745 35.6082 20.8961C35.5449 20.8178 35.4455 20.7787 35.31 20.7787C35.1442 20.7787 35.0118 20.8313 34.9124 20.9368C34.816 21.0392 34.7678 21.1763 34.7678 21.3479V22.5904H34.203ZM37.9348 22.6356C37.6847 22.6356 37.4694 22.5889 37.2887 22.4955C37.108 22.4022 36.9679 22.2696 36.8685 22.0979C36.7721 21.9263 36.7239 21.7229 36.7239 21.488C36.7239 21.2591 36.7706 21.0588 36.864 20.8871C36.9603 20.7154 37.0913 20.5814 37.2571 20.485C37.4257 20.3856 37.617 20.3359 37.8309 20.3359C38.1441 20.3359 38.3911 20.4353 38.5718 20.6341C38.7555 20.8329 38.8474 21.104 38.8474 21.4473V21.6145H37.2661C37.3082 22.0091 37.5341 22.2064 37.9438 22.2064C38.0672 22.2064 38.1908 22.1883 38.3143 22.1522C38.4377 22.113 38.5507 22.0528 38.6532 21.9714L38.8113 22.351C38.7058 22.4383 38.5733 22.5075 38.4137 22.5588C38.254 22.61 38.0944 22.6356 37.9348 22.6356ZM37.8535 20.7199C37.6877 20.7199 37.5537 20.7712 37.4513 20.8735C37.3489 20.9759 37.2872 21.1145 37.2661 21.2892H38.3775C38.3654 21.1055 38.3143 20.9654 38.2239 20.869C38.1366 20.7696 38.013 20.7199 37.8535 20.7199ZM41.6013 22.6356C41.3513 22.6356 41.1359 22.5889 40.9552 22.4955C40.7745 22.4022 40.6344 22.2696 40.535 22.0979C40.4386 21.9263 40.3904 21.7229 40.3904 21.488C40.3904 21.2591 40.4372 21.0588 40.5305 20.8871C40.6269 20.7154 40.7579 20.5814 40.9236 20.485C41.0923 20.3856 41.2835 20.3359 41.4974 20.3359C41.8107 20.3359 42.0576 20.4353 42.2383 20.6341C42.422 20.8329 42.5139 21.104 42.5139 21.4473V21.6145H40.9326C40.9748 22.0091 41.2007 22.2064 41.6103 22.2064C41.7338 22.2064 41.8573 22.1883 41.9808 22.1522C42.1043 22.113 42.2173 22.0528 42.3197 21.9714L42.4778 22.351C42.3723 22.4383 42.2399 22.5075 42.0802 22.5588C41.9205 22.61 41.761 22.6356 41.6013 22.6356ZM41.52 20.7199C41.3543 20.7199 41.2202 20.7712 41.1178 20.8735C41.0155 20.9759 40.9537 21.1145 40.9326 21.2892H42.0441C42.032 21.1055 41.9808 20.9654 41.8904 20.869C41.8031 20.7696 41.6796 20.7199 41.52 20.7199ZM43.5765 22.5904L42.6187 20.3811H43.2196L43.834 21.9263L44.4711 20.3811H45.0358L44.0644 22.5904H43.5765ZM46.3532 22.6356C46.1032 22.6356 45.8878 22.5889 45.7071 22.4955C45.5264 22.4022 45.3863 22.2696 45.2869 22.0979C45.1905 21.9263 45.1424 21.7229 45.1424 21.488C45.1424 21.2591 45.189 21.0588 45.2824 20.8871C45.3788 20.7154 45.5098 20.5814 45.6755 20.485C45.8441 20.3856 46.0354 20.3359 46.2493 20.3359C46.5625 20.3359 46.8095 20.4353 46.9903 20.6341C47.174 20.8329 47.2659 21.104 47.2659 21.4473V21.6145H45.6845C45.7266 22.0091 45.9525 22.2064 46.3622 22.2064C46.4857 22.2064 46.6092 22.1883 46.7327 22.1522C46.8562 22.113 46.9691 22.0528 47.0716 21.9714L47.2297 22.351C47.1243 22.4383 46.9917 22.5075 46.8321 22.5588C46.6725 22.61 46.5128 22.6356 46.3532 22.6356ZM46.2719 20.7199C46.1062 20.7199 45.9722 20.7712 45.8698 20.8735C45.7673 20.9759 45.7056 21.1145 45.6845 21.2892H46.796C46.7839 21.1055 46.7327 20.9654 46.6424 20.869C46.555 20.7696 46.4315 20.7199 46.2719 20.7199ZM47.7131 22.5904V20.3811H48.2643V20.7244C48.3396 20.5979 48.4405 20.5015 48.567 20.4353C48.6966 20.3691 48.8411 20.3359 49.0007 20.3359C49.5218 20.3359 49.7823 20.6386 49.7823 21.244V22.5904H49.2176V21.2711C49.2176 21.0994 49.1845 20.9745 49.1182 20.8961C49.0549 20.8178 48.9555 20.7787 48.82 20.7787C48.6544 20.7787 48.5218 20.8313 48.4224 20.9368C48.3261 21.0392 48.2778 21.1763 48.2778 21.3479V22.5904H47.7131ZM51.368 22.6356C50.7837 22.6356 50.4915 22.3464 50.4915 21.7681V20.8058H50.0668V20.3811H50.4915V19.7214H51.0563V20.3811H51.7249V20.8058H51.0563V21.7365C51.0563 21.8811 51.0879 21.9895 51.1511 22.0618C51.2144 22.1341 51.3169 22.1702 51.4584 22.1702C51.5006 22.1702 51.5442 22.1657 51.5894 22.1567C51.6346 22.1447 51.6813 22.1325 51.7294 22.1205L51.8153 22.5362C51.7611 22.5663 51.6919 22.5904 51.6075 22.6085C51.5261 22.6266 51.4463 22.6356 51.368 22.6356Z" fill="#414141"/>
<g filter="url(#filter0_d_3487_5477)">
<mask id="mask1_3487_5477" style="mask-type:luminance" maskUnits="userSpaceOnUse" x="17" y="26" width="121" height="19">
<path d="M136.753 26.9636H17.7651C17.4357 26.9636 17.1687 27.2269 17.1687 27.5517V43.427C17.1687 43.7518 17.4357 44.015 17.7651 44.015H136.753C137.083 44.015 137.349 43.7518 137.349 43.427V27.5517C137.349 27.2269 137.083 26.9636 136.753 26.9636Z" fill="white"/>
</mask>
<g mask="url(#mask1_3487_5477)">
<path d="M134.955 27.1084H17.756C17.4316 27.1084 17.1685 27.3734 17.1685 27.7004V43.685C17.1685 44.0119 17.4316 44.2771 17.756 44.2771H134.955C135.28 44.2771 135.542 44.0119 135.542 43.685V27.7004C135.542 27.3734 135.28 27.1084 134.955 27.1084Z" fill="white"/>
<path d="M56.6089 26.9248H16.6391V44.0139H56.6089V26.9248Z" fill="#F9F9F9"/>
<path d="M72.1521 26.9336H55.498V44.0149H72.1521V26.9336Z" fill="#F1F1F1"/>
<path d="M72.289 27.1084H135.181C135.381 27.1084 135.542 27.3734 135.542 27.7004V43.685C135.542 44.012 135.381 44.2771 135.181 44.2771H72.289V27.1084Z" fill="white"/>
</g>
<path d="M97.6887 41.5392V40.5354H98.5164C98.7143 40.5354 98.8679 40.5586 98.9772 40.6052C99.0866 40.6508 99.1408 40.7143 99.1408 40.7959C99.1408 40.85 99.1155 40.8966 99.0631 40.9355C99.0115 40.9744 98.9402 41.0029 98.8489 41.0209C98.9555 41.0371 99.0387 41.0656 99.0983 41.1064C99.1588 41.1463 99.1896 41.197 99.1896 41.2587C99.1896 41.3479 99.1317 41.4172 99.0179 41.4666C98.9049 41.515 98.7477 41.5392 98.5453 41.5392H97.6887ZM98.0194 40.9611H98.4567C98.6908 40.9611 98.8082 40.9132 98.8082 40.8173C98.8082 40.7215 98.6908 40.6735 98.4567 40.6735H98.0194V40.9611ZM98.0194 41.4011H98.5019C98.7387 41.4011 98.8561 41.3508 98.8561 41.2502C98.8561 41.1495 98.7387 41.0993 98.5019 41.0993H98.0194V41.4011ZM99.9793 41.5535C99.6576 41.5535 99.4968 41.4575 99.4968 41.2658V40.843H99.832V41.2687C99.832 41.318 99.851 41.3545 99.889 41.3783C99.926 41.4021 99.9856 41.4139 100.069 41.4139C100.158 41.4139 100.231 41.3978 100.288 41.3656C100.345 41.3323 100.374 41.2886 100.374 41.2345V40.843H100.709V41.5392H100.382V41.4352C100.295 41.5141 100.16 41.5535 99.9793 41.5535ZM101.178 41.7955L101.419 41.5108L100.874 40.843H101.231L101.599 41.3299L101.974 40.843H102.312L101.523 41.7955H101.178ZM103.796 41.5535C103.449 41.5535 103.276 41.4623 103.276 41.2801V40.9768H103.024V40.843H103.276V40.6351H103.611V40.843H104.009V40.9768H103.611V41.2701C103.611 41.3157 103.63 41.3498 103.668 41.3727C103.705 41.3954 103.766 41.4069 103.85 41.4069C103.875 41.4069 103.901 41.4054 103.928 41.4025C103.955 41.3987 103.982 41.3949 104.011 41.3911L104.062 41.5222C104.03 41.5316 103.989 41.5392 103.938 41.5449C103.89 41.5506 103.843 41.5535 103.796 41.5535ZM104.204 40.6934V40.5198H104.58V40.6934H104.204ZM104.225 41.5392V40.843H104.561V41.5392H104.225ZM105.516 41.5535C105.378 41.5535 105.258 41.5388 105.156 41.5093C105.054 41.4789 104.975 41.4362 104.92 41.3812C104.864 41.3262 104.837 41.2616 104.837 41.1875C104.837 41.1134 104.864 41.0498 104.92 40.9968C104.975 40.9426 105.054 40.9014 105.156 40.8729C105.258 40.8435 105.378 40.8287 105.516 40.8287C105.6 40.8287 105.684 40.8359 105.765 40.85C105.847 40.8643 105.916 40.8843 105.969 40.9099L105.87 41.0337C105.824 41.0119 105.771 40.9953 105.712 40.9839C105.654 40.9726 105.599 40.9668 105.546 40.9668C105.429 40.9668 105.339 40.9863 105.274 41.0252C105.212 41.0632 105.181 41.1177 105.181 41.1889C105.181 41.2592 105.212 41.3148 105.274 41.3555C105.339 41.3954 105.429 41.4153 105.546 41.4153C105.597 41.4153 105.653 41.4097 105.712 41.3983C105.771 41.3869 105.824 41.3698 105.87 41.347L105.969 41.4723C105.916 41.497 105.846 41.5169 105.762 41.5321C105.681 41.5464 105.598 41.5535 105.516 41.5535ZM106.175 41.5392V40.5354H106.511V41.1391H106.516L107.045 40.843H107.45L106.854 41.1762L107.487 41.5392H107.077L106.516 41.2288H106.511V41.5392H106.175ZM108.235 41.5535C108.087 41.5535 107.958 41.5388 107.851 41.5093C107.743 41.48 107.66 41.4381 107.601 41.384C107.544 41.3299 107.515 41.2658 107.515 41.1918C107.515 41.1197 107.543 41.0565 107.599 41.0024C107.656 40.9484 107.734 40.9061 107.833 40.8757C107.932 40.8444 108.046 40.8287 108.173 40.8287C108.359 40.8287 108.506 40.8601 108.613 40.9227C108.722 40.9853 108.777 41.0708 108.777 41.179V41.2316H107.837C107.862 41.3561 107.997 41.4181 108.24 41.4181C108.313 41.4181 108.387 41.4125 108.461 41.4011C108.534 41.3888 108.601 41.3698 108.661 41.3441L108.755 41.4638C108.693 41.4913 108.614 41.5131 108.519 41.5293C108.425 41.5454 108.33 41.5535 108.235 41.5535ZM108.187 40.9497C108.088 40.9497 108.009 40.9659 107.947 40.9981C107.887 41.0304 107.851 41.0741 107.837 41.1292H108.498C108.49 41.0713 108.461 41.0272 108.406 40.9968C108.355 40.9654 108.281 40.9497 108.187 40.9497ZM109.639 41.5535C109.292 41.5535 109.118 41.4623 109.118 41.2801V40.9768H108.865V40.843H109.118V40.6351H109.454V40.843H109.85V40.9768H109.454V41.2701C109.454 41.3157 109.472 41.3498 109.51 41.3727C109.548 41.3954 109.608 41.4069 109.692 41.4069C109.718 41.4069 109.743 41.4054 109.77 41.4025C109.797 41.3987 109.825 41.3949 109.853 41.3911L109.905 41.5222C109.872 41.5316 109.831 41.5392 109.781 41.5449C109.733 41.5506 109.685 41.5535 109.639 41.5535ZM110.548 41.5535C110.437 41.5535 110.333 41.5464 110.236 41.5321C110.14 41.5179 110.059 41.4975 109.995 41.4709L110.081 41.3541C110.148 41.3778 110.221 41.3964 110.304 41.4097C110.386 41.422 110.468 41.4282 110.551 41.4282C110.637 41.4282 110.7 41.4206 110.741 41.4054C110.785 41.3892 110.806 41.3684 110.806 41.3427C110.806 41.3028 110.75 41.2773 110.639 41.2658L110.371 41.2388C110.143 41.216 110.03 41.1534 110.03 41.0508C110.03 41.0053 110.053 40.9659 110.1 40.9326C110.149 40.8995 110.215 40.8738 110.299 40.8558C110.383 40.8378 110.479 40.8287 110.589 40.8287C110.682 40.8287 110.77 40.8359 110.857 40.85C110.943 40.8634 111.016 40.8838 111.077 40.9113L110.985 41.0281C110.934 41.0053 110.871 40.9873 110.797 40.9739C110.726 40.9606 110.657 40.954 110.591 40.954C110.503 40.954 110.438 40.9621 110.395 40.9782C110.354 40.9944 110.333 41.0157 110.333 41.0422C110.333 41.0841 110.384 41.1097 110.487 41.1192L110.755 41.1462C110.871 41.1576 110.958 41.1785 111.018 41.2089C111.078 41.2392 111.109 41.2801 111.109 41.3313C111.109 41.4006 111.058 41.4552 110.956 41.495C110.853 41.534 110.718 41.5535 110.548 41.5535Z" fill="white"/>
<path d="M115.409 41.145L114.297 41.7347C114.282 41.7426 114.261 41.7467 114.239 41.7466C114.218 41.7464 114.197 41.7418 114.182 41.7336C114.166 41.7256 114.158 41.7146 114.157 41.7031C114.157 41.6917 114.165 41.6806 114.18 41.6723L115.232 41.1138L114.18 40.5553C114.165 40.5469 114.157 40.5359 114.157 40.5244C114.158 40.513 114.166 40.502 114.182 40.4939C114.197 40.4858 114.218 40.4811 114.239 40.481C114.261 40.4808 114.282 40.485 114.297 40.4928L115.409 41.0826C115.425 41.0908 115.434 41.102 115.434 41.1138C115.434 41.1255 115.425 41.1367 115.409 41.145Z" fill="white"/>
<path d="M38.2563 33.237H37.4622L37.0718 32.6349C37.0508 32.6027 37.0225 32.5763 36.9893 32.558C36.956 32.5397 36.919 32.5301 36.8812 32.53H35.0479C35.0102 32.5301 34.9731 32.5397 34.9399 32.558C34.9066 32.5763 34.8784 32.6027 34.8574 32.6349L34.4667 33.237H33.6728C33.4906 33.237 33.3156 33.3116 33.1868 33.4441C33.0578 33.5767 32.9854 33.7566 32.9854 33.9441V37.2435C32.9854 37.431 33.0578 37.6108 33.1868 37.7434C33.3156 37.876 33.4906 37.9505 33.6728 37.9505H38.2563C38.4386 37.9505 38.6134 37.876 38.7424 37.7434C38.8713 37.6108 38.9438 37.431 38.9438 37.2435V33.9441C38.9438 33.7566 38.8713 33.5767 38.7424 33.4441C38.6134 33.3116 38.4386 33.237 38.2563 33.237ZM36.9958 35.476C36.9958 35.6857 36.9353 35.8908 36.822 36.0652C36.7087 36.2395 36.5477 36.3755 36.3592 36.4558C36.1708 36.536 35.9634 36.557 35.7634 36.5161C35.5634 36.4752 35.3796 36.3741 35.2354 36.2259C35.0912 36.0775 34.9929 35.8886 34.9532 35.6828C34.9133 35.4771 34.9338 35.2639 35.0118 35.0701C35.0899 34.8764 35.2221 34.7107 35.3916 34.5942C35.5612 34.4776 35.7606 34.4154 35.9646 34.4154C36.2381 34.4154 36.5003 34.5272 36.6938 34.726C36.8872 34.9249 36.9958 35.1947 36.9958 35.476Z" fill="#AAAAAA"/>
</g>
<path d="M136.498 149.793H18.0723V173.287H136.498V149.793Z" fill="#3BA0A8"/>
<path d="M18.3179 143.007L18.3207 143.004C18.3275 142.997 18.3438 142.99 18.3653 142.99H18.7564C18.8353 142.99 18.8763 143.003 18.9025 143.019C18.9249 143.033 18.9384 143.05 18.9569 143.073C18.9606 143.078 18.9644 143.083 18.9687 143.088L19.725 144.15H19.0831L18.3166 143.075L18.3154 143.074C18.3031 143.058 18.3 143.045 18.301 143.035C18.302 143.025 18.3073 143.015 18.3179 143.007Z" fill="#BCBCBC" stroke="#BCBCBC" stroke-width="0.0577501"/>
<path d="M18.3143 145.342L18.3165 145.339L19.083 144.207H19.7313L19.0112 145.324C19.0088 145.327 19.0066 145.329 19.0046 145.332C18.9935 145.346 18.9851 145.356 18.9745 145.367L18.9734 145.368C18.9596 145.384 18.9433 145.397 18.9176 145.407C18.8913 145.417 18.8535 145.423 18.7958 145.423H18.3647C18.3318 145.423 18.3145 145.412 18.3068 145.399C18.2981 145.384 18.2976 145.361 18.3143 145.342Z" fill="#BCBCBC" stroke="#BCBCBC" stroke-width="0.0577501"/>
<path d="M22.4453 145.79C22.114 145.79 21.8293 145.724 21.5914 145.591C21.3565 145.456 21.1757 145.266 21.0492 145.022C20.9227 144.775 20.8595 144.484 20.8595 144.15C20.8595 143.816 20.9227 143.526 21.0492 143.282C21.1757 143.038 21.3565 142.851 21.5914 142.718C21.8293 142.582 22.114 142.514 22.4453 142.514C22.6591 142.514 22.861 142.548 23.0507 142.614C23.2435 142.68 23.4016 142.775 23.5251 142.898L23.3354 143.359C23.1998 143.245 23.0612 143.162 22.9197 143.111C22.7781 143.057 22.626 143.029 22.4634 143.029C22.1411 143.029 21.8956 143.127 21.7269 143.323C21.5582 143.516 21.4739 143.791 21.4739 144.15C21.4739 144.509 21.5582 144.785 21.7269 144.981C21.8956 145.177 22.1411 145.275 22.4634 145.275C22.626 145.275 22.7781 145.25 22.9197 145.198C23.0612 145.144 23.1998 145.06 23.3354 144.945L23.5251 145.406C23.4016 145.526 23.2435 145.621 23.0507 145.691C22.861 145.757 22.6591 145.79 22.4453 145.79ZM24.7179 145.79C24.1757 145.79 23.9046 145.485 23.9046 144.877V143.535H24.4694V144.886C24.4694 145.043 24.501 145.159 24.5643 145.234C24.6275 145.309 24.7285 145.347 24.867 145.347C25.0176 145.347 25.1412 145.296 25.2375 145.194C25.3339 145.088 25.3821 144.95 25.3821 144.778V143.535H25.9468V145.745H25.3956V145.415C25.2481 145.665 25.0221 145.79 24.7179 145.79ZM27.3434 145.79C27.1567 145.79 26.9819 145.767 26.8193 145.722C26.6566 145.677 26.5211 145.612 26.4126 145.528L26.5572 145.157C26.6687 145.232 26.7937 145.291 26.9322 145.334C27.0708 145.373 27.2093 145.392 27.3479 145.392C27.4924 145.392 27.5994 145.368 27.6687 145.32C27.7409 145.269 27.7771 145.203 27.7771 145.121C27.7771 144.995 27.6837 144.913 27.497 144.877L27.0452 144.792C26.6627 144.719 26.4714 144.52 26.4714 144.195C26.4714 144.051 26.5106 143.926 26.5888 143.82C26.6702 143.714 26.7817 143.633 26.9232 143.576C27.0648 143.519 27.2274 143.49 27.4111 143.49C27.5678 143.49 27.7184 143.513 27.8629 143.558C28.0075 143.601 28.131 143.665 28.2334 143.752L28.0798 144.123C27.9925 144.051 27.8871 143.994 27.7635 143.951C27.6431 143.909 27.5271 143.888 27.4156 143.888C27.2681 143.888 27.1581 143.913 27.0858 143.965C27.0166 144.016 26.9819 144.084 26.9819 144.168C26.9819 144.301 27.0678 144.382 27.2394 144.412L27.6912 144.498C27.8871 144.534 28.0346 144.6 28.134 144.697C28.2365 144.793 28.2876 144.923 28.2876 145.085C28.2876 145.305 28.2018 145.478 28.0301 145.605C27.8584 145.729 27.6295 145.79 27.3434 145.79ZM29.7307 145.79C29.1464 145.79 28.8542 145.501 28.8542 144.923V143.96H28.4295V143.535H28.8542V142.876H29.419V143.535H30.0876V143.96H29.419V144.891C29.419 145.035 29.4506 145.144 29.5138 145.216C29.5771 145.288 29.6796 145.325 29.8211 145.325C29.8633 145.325 29.9069 145.32 29.9521 145.311C29.9973 145.299 30.044 145.287 30.0921 145.275L30.178 145.691C30.1238 145.72 30.0546 145.745 29.9702 145.763C29.8888 145.781 29.809 145.79 29.7307 145.79ZM31.4382 145.79C31.2092 145.79 31.0104 145.743 30.8418 145.65C30.6731 145.557 30.5421 145.424 30.4487 145.252C30.3553 145.078 30.3087 144.873 30.3087 144.638C30.3087 144.403 30.3553 144.2 30.4487 144.028C30.5421 143.856 30.6731 143.723 30.8418 143.63C31.0104 143.537 31.2092 143.49 31.4382 143.49C31.6671 143.49 31.8659 143.537 32.0346 143.63C32.2032 143.723 32.3342 143.856 32.4276 144.028C32.521 144.2 32.5677 144.403 32.5677 144.638C32.5677 144.873 32.521 145.078 32.4276 145.252C32.3342 145.424 32.2032 145.557 32.0346 145.65C31.8659 145.743 31.6671 145.79 31.4382 145.79ZM31.4382 145.361C31.6068 145.361 31.7423 145.3 31.8448 145.18C31.9472 145.056 31.9984 144.876 31.9984 144.638C31.9984 144.397 31.9472 144.218 31.8448 144.1C31.7423 143.98 31.6068 143.92 31.4382 143.92C31.2695 143.92 31.1339 143.98 31.0315 144.1C30.9291 144.218 30.8779 144.397 30.8779 144.638C30.8779 144.876 30.9291 145.056 31.0315 145.18C31.1339 145.3 31.2695 145.361 31.4382 145.361ZM33.0428 145.745V143.535H33.594V143.874C33.6603 143.754 33.7521 143.66 33.8696 143.594C33.9871 143.525 34.1226 143.49 34.2762 143.49C34.6076 143.49 34.8245 143.635 34.9268 143.924C34.9962 143.788 35.0955 143.683 35.225 143.608C35.3546 143.529 35.5022 143.49 35.6678 143.49C36.1648 143.49 36.4133 143.793 36.4133 144.398V145.745H35.8485V144.421C35.8485 144.252 35.82 144.129 35.7627 144.051C35.7085 143.972 35.6151 143.933 35.4826 143.933C35.335 143.933 35.2191 143.985 35.1347 144.091C35.0504 144.193 35.0082 144.337 35.0082 144.52V145.745H34.4434V144.421C34.4434 144.252 34.4149 144.129 34.3576 144.051C34.3034 143.972 34.2115 143.933 34.082 143.933C33.9344 143.933 33.8185 143.985 33.7341 144.091C33.6498 144.193 33.6076 144.337 33.6076 144.52V145.745H33.0428ZM39.2347 145.79C39.0029 145.79 38.801 145.743 38.6293 145.65C38.4576 145.553 38.3252 145.418 38.2317 145.243C38.1384 145.069 38.0917 144.864 38.0917 144.629C38.0917 144.394 38.1384 144.192 38.2317 144.023C38.3252 143.852 38.4576 143.721 38.6293 143.63C38.801 143.537 39.0029 143.49 39.2347 143.49C39.3763 143.49 39.5164 143.513 39.6549 143.558C39.7935 143.603 39.9079 143.667 39.9983 143.748L39.8311 144.141C39.7529 144.071 39.664 144.019 39.5646 143.983C39.4682 143.947 39.3748 143.929 39.2844 143.929C39.0887 143.929 38.9365 143.99 38.8281 144.114C38.7227 144.234 38.67 144.407 38.67 144.633C38.67 144.857 38.7227 145.033 38.8281 145.162C38.9365 145.288 39.0887 145.352 39.2844 145.352C39.3718 145.352 39.4652 145.334 39.5646 145.298C39.664 145.261 39.7529 145.207 39.8311 145.135L39.9983 145.532C39.9079 145.611 39.792 145.674 39.6504 145.722C39.5119 145.767 39.3734 145.79 39.2347 145.79ZM41.3082 145.79C41.0793 145.79 40.8805 145.743 40.7118 145.65C40.5431 145.557 40.4121 145.424 40.3187 145.252C40.2254 145.078 40.1787 144.873 40.1787 144.638C40.1787 144.403 40.2254 144.2 40.3187 144.028C40.4121 143.856 40.5431 143.723 40.7118 143.63C40.8805 143.537 41.0793 143.49 41.3082 143.49C41.5371 143.49 41.7359 143.537 41.9046 143.63C42.0733 143.723 42.2043 143.856 42.2976 144.028C42.391 144.2 42.4377 144.403 42.4377 144.638C42.4377 144.873 42.391 145.078 42.2976 145.252C42.2043 145.424 42.0733 145.557 41.9046 145.65C41.7359 145.743 41.5371 145.79 41.3082 145.79ZM41.3082 145.361C41.4769 145.361 41.6124 145.3 41.7148 145.18C41.8172 145.056 41.8684 144.876 41.8684 144.638C41.8684 144.397 41.8172 144.218 41.7148 144.1C41.6124 143.98 41.4769 143.92 41.3082 143.92C41.1395 143.92 41.0039 143.98 40.9015 144.1C40.7992 144.218 40.7479 144.397 40.7479 144.638C40.7479 144.876 40.7992 145.056 40.9015 145.18C41.0039 145.3 41.1395 145.361 41.3082 145.361ZM42.9039 145.745V143.535H43.4551V143.879C43.5303 143.752 43.6313 143.656 43.7578 143.59C43.8873 143.524 44.0318 143.49 44.1915 143.49C44.7125 143.49 44.9731 143.793 44.9731 144.398V145.745H44.4084V144.426C44.4084 144.254 44.3752 144.129 44.309 144.051C44.2457 143.972 44.1463 143.933 44.0108 143.933C43.8451 143.933 43.7126 143.985 43.6132 144.091C43.5168 144.193 43.4686 144.331 43.4686 144.502V145.745H42.9039ZM46.5588 145.79C45.9744 145.79 45.6823 145.501 45.6823 144.923V143.96H45.2576V143.535H45.6823V142.876H46.2471V143.535H46.9157V143.96H46.2471V144.891C46.2471 145.035 46.2787 145.144 46.3419 145.216C46.4052 145.288 46.5076 145.325 46.6492 145.325C46.6913 145.325 46.735 145.32 46.7802 145.311C46.8254 145.299 46.872 145.287 46.9202 145.275L47.0061 145.691C46.9519 145.72 46.8826 145.745 46.7983 145.763C46.7169 145.781 46.6371 145.79 46.5588 145.79ZM48.3475 145.79C48.0975 145.79 47.8821 145.743 47.7014 145.65C47.5207 145.557 47.3806 145.424 47.2812 145.252C47.1848 145.081 47.1367 144.877 47.1367 144.642C47.1367 144.414 47.1834 144.213 47.2767 144.042C47.3731 143.87 47.5042 143.736 47.6698 143.639C47.8385 143.54 48.0297 143.49 48.2436 143.49C48.5569 143.49 48.8038 143.59 48.9846 143.789C49.1683 143.987 49.2602 144.258 49.2602 144.602V144.769H47.6788C47.721 145.164 47.9469 145.361 48.3565 145.361C48.4801 145.361 48.6035 145.343 48.727 145.307C48.8505 145.268 48.9635 145.207 49.0659 145.126L49.224 145.505C49.1186 145.593 48.9861 145.662 48.8264 145.713C48.6668 145.765 48.5072 145.79 48.3475 145.79ZM48.2662 143.874C48.1005 143.874 47.9665 143.926 47.8641 144.028C47.7617 144.13 47.6999 144.269 47.6788 144.444H48.7903C48.7783 144.26 48.727 144.12 48.6367 144.023C48.5493 143.924 48.4259 143.874 48.2662 143.874ZM49.7074 145.745V143.535H50.2586V143.879C50.3339 143.752 50.4349 143.656 50.5614 143.59C50.6909 143.524 50.8354 143.49 50.9951 143.49C51.5161 143.49 51.7767 143.793 51.7767 144.398V145.745H51.212V144.426C51.212 144.254 51.1788 144.129 51.1126 144.051C51.0493 143.972 50.9499 143.933 50.8144 143.933C50.6487 143.933 50.5162 143.985 50.4168 144.091C50.3204 144.193 50.2722 144.331 50.2722 144.502V145.745H49.7074ZM53.3624 145.79C52.778 145.79 52.4859 145.501 52.4859 144.923V143.96H52.0612V143.535H52.4859V142.876H53.0506V143.535H53.7193V143.96H53.0506V144.891C53.0506 145.035 53.0823 145.144 53.1455 145.216C53.2088 145.288 53.3112 145.325 53.4527 145.325C53.4949 145.325 53.5386 145.32 53.5838 145.311C53.629 145.299 53.6756 145.287 53.7238 145.275L53.8097 145.691C53.7555 145.72 53.6862 145.745 53.6018 145.763C53.5205 145.781 53.4406 145.79 53.3624 145.79Z" fill="#414141"/>
<path d="M132.846 193.423H21.8862V195.918H132.846V193.423Z" fill="#3BA0A8"/>
<path d="M118.413 197.789H21.8862V200.284H118.413V197.789Z" fill="#3BA0A8"/>
<path d="M130.14 202.156H21.8862V204.651H130.14V202.156Z" fill="#3BA0A8"/>
<path d="M126.078 206.753H21.6867V209.464H126.078V206.753Z" fill="#3BA0A8"/>
<path d="M130.464 211.271H21.6867V213.982H130.464V211.271Z" fill="#3BA0A8"/>
<path d="M130.464 215.79H21.6867V218.5H130.464V215.79Z" fill="#3BA0A8"/>
<path d="M21.9324 185.911L21.9352 185.908C21.9419 185.902 21.9582 185.895 21.9797 185.895H22.3709C22.4498 185.895 22.4907 185.907 22.5169 185.923C22.5393 185.937 22.5529 185.954 22.5713 185.977C22.575 185.982 22.5789 185.987 22.5832 185.992L23.3395 187.054H22.6976L21.931 185.979L21.9298 185.977C21.9176 185.963 21.9145 185.949 21.9155 185.94C21.9165 185.929 21.9218 185.919 21.9324 185.911Z" fill="#BCBCBC" stroke="#BCBCBC" stroke-width="0.0577501"/>
<path d="M21.9288 188.246L21.9309 188.243L22.6975 187.111H23.3457L22.6256 188.227C22.6233 188.23 22.6211 188.233 22.619 188.236C22.6079 188.25 22.5996 188.26 22.5889 188.271L22.5878 188.272C22.574 188.287 22.5578 188.301 22.5321 188.311C22.5057 188.321 22.4679 188.328 22.4103 188.328H21.9792C21.9463 188.328 21.9289 188.316 21.9213 188.302C21.9126 188.287 21.912 188.265 21.9288 188.246Z" fill="#BCBCBC" stroke="#BCBCBC" stroke-width="0.0577501"/>
<path d="M24.5778 188.649V185.463H25.9604C26.3097 185.463 26.5793 185.551 26.7691 185.725C26.9589 185.901 27.0537 186.145 27.0537 186.457C27.0537 186.771 26.9589 187.017 26.7691 187.194C26.5793 187.369 26.3097 187.456 25.9604 187.456H25.1561V188.649H24.5778ZM25.1561 187H25.87C26.2857 187 26.4935 186.819 26.4935 186.457C26.4935 186.1 26.2857 185.92 25.87 185.92H25.1561V187ZM28.2353 188.694C27.6931 188.694 27.422 188.39 27.422 187.781V186.439H27.9868V187.79C27.9868 187.947 28.0184 188.063 28.0817 188.138C28.1449 188.214 28.2459 188.251 28.3844 188.251C28.535 188.251 28.6585 188.2 28.7549 188.097C28.8513 187.993 28.8995 187.853 28.8995 187.682V186.439H29.4642V188.649H28.913V188.319C28.7654 188.569 28.5395 188.694 28.2353 188.694ZM30.052 188.649V186.439H30.6032V186.828C30.7117 186.566 30.9436 186.421 31.299 186.394L31.4707 186.381L31.5068 186.859L31.1815 186.891C30.811 186.927 30.6258 187.117 30.6258 187.46V188.649H30.052ZM32.8071 188.694C32.5752 188.694 32.3734 188.648 32.2017 188.554C32.03 188.458 31.8975 188.322 31.8041 188.147C31.7107 187.973 31.6641 187.768 31.6641 187.533C31.6641 187.298 31.7107 187.096 31.8041 186.927C31.8975 186.756 32.03 186.625 32.2017 186.534C32.3734 186.441 32.5752 186.394 32.8071 186.394C32.9486 186.394 33.0887 186.417 33.2273 186.462C33.3658 186.507 33.4803 186.57 33.5707 186.652L33.4035 187.045C33.3252 186.976 33.2364 186.923 33.137 186.887C33.0405 186.85 32.9472 186.832 32.8568 186.832C32.661 186.832 32.5089 186.895 32.4005 187.018C32.2951 187.139 32.2424 187.311 32.2424 187.537C32.2424 187.76 32.2951 187.937 32.4005 188.066C32.5089 188.192 32.661 188.256 32.8568 188.256C32.9441 188.256 33.0376 188.237 33.137 188.201C33.2364 188.165 33.3252 188.111 33.4035 188.039L33.5707 188.436C33.4803 188.515 33.3643 188.578 33.2228 188.626C33.0842 188.671 32.9457 188.694 32.8071 188.694ZM33.9171 188.649V185.463H34.4819V186.76C34.5572 186.64 34.6581 186.55 34.7846 186.489C34.9111 186.426 35.0512 186.394 35.2048 186.394C35.7258 186.394 35.9864 186.697 35.9864 187.302V188.649H35.4217V187.329C35.4217 187.158 35.3885 187.033 35.3223 186.954C35.259 186.877 35.1596 186.837 35.0241 186.837C34.8583 186.837 34.7259 186.89 34.6265 186.995C34.5301 187.098 34.4819 187.234 34.4819 187.406V188.649H33.9171ZM37.2874 188.694C37.1278 188.694 36.9847 188.664 36.8582 188.603C36.7347 188.54 36.6368 188.456 36.5645 188.35C36.4952 188.246 36.4606 188.126 36.4606 187.994C36.4606 187.831 36.5027 187.703 36.5871 187.609C36.6714 187.514 36.8085 187.444 36.9983 187.402C37.188 187.36 37.4425 187.338 37.7618 187.338H37.92V187.244C37.92 187.094 37.8868 186.985 37.8206 186.918C37.7542 186.852 37.6428 186.819 37.4862 186.819C37.3627 186.819 37.2362 186.839 37.1067 186.878C36.9771 186.914 36.8461 186.972 36.7136 187.049L36.551 186.665C36.6292 186.611 36.7211 186.565 36.8266 186.525C36.935 186.484 37.048 186.452 37.1654 186.43C37.2859 186.407 37.3989 186.394 37.5043 186.394C37.8265 186.394 38.066 186.47 38.2227 186.62C38.3793 186.768 38.4576 186.999 38.4576 187.311V188.649H37.929V188.296C37.8778 188.42 37.7964 188.518 37.685 188.59C37.5735 188.659 37.4411 188.694 37.2874 188.694ZM37.4049 188.305C37.5525 188.305 37.6745 188.255 37.7709 188.152C37.8703 188.05 37.92 187.92 37.92 187.763V187.664H37.7664C37.4832 187.664 37.2859 187.686 37.1745 187.731C37.0661 187.774 37.0118 187.853 37.0118 187.966C37.0118 188.066 37.0464 188.147 37.1157 188.21C37.185 188.274 37.2814 188.305 37.4049 188.305ZM39.8395 188.694C39.6528 188.694 39.4781 188.671 39.3154 188.626C39.1528 188.581 39.0172 188.517 38.9088 188.432L39.0534 188.061C39.1649 188.137 39.2898 188.196 39.4284 188.237C39.567 188.277 39.7055 188.296 39.844 188.296C39.9886 188.296 40.0956 188.273 40.1648 188.224C40.2371 188.173 40.2732 188.106 40.2732 188.025C40.2732 187.899 40.1799 187.817 39.9931 187.781L39.5413 187.695C39.1588 187.623 38.9675 187.424 38.9675 187.099C38.9675 186.954 39.0067 186.83 39.085 186.724C39.1663 186.619 39.2778 186.538 39.4193 186.48C39.5609 186.423 39.7236 186.394 39.9073 186.394C40.064 186.394 40.2145 186.417 40.3591 186.462C40.5037 186.504 40.6272 186.569 40.7296 186.656L40.576 187.027C40.4887 186.954 40.3832 186.897 40.2597 186.855C40.1392 186.813 40.0233 186.792 39.9118 186.792C39.7642 186.792 39.6543 186.818 39.582 186.868C39.5128 186.92 39.4781 186.988 39.4781 187.072C39.4781 187.205 39.5639 187.286 39.7356 187.316L40.1874 187.402C40.3832 187.438 40.5308 187.505 40.6302 187.6C40.7326 187.697 40.7838 187.826 40.7838 187.989C40.7838 188.209 40.6979 188.382 40.5263 188.509C40.3546 188.632 40.1257 188.694 39.8395 188.694ZM42.3257 188.694C42.0758 188.694 41.8604 188.648 41.6796 188.554C41.4989 188.461 41.3589 188.328 41.2595 188.156C41.1631 187.984 41.1149 187.781 41.1149 187.546C41.1149 187.318 41.1616 187.117 41.2549 186.945C41.3514 186.774 41.4824 186.64 41.648 186.543C41.8167 186.444 42.008 186.394 42.2218 186.394C42.5351 186.394 42.782 186.493 42.9628 186.692C43.1466 186.891 43.2384 187.162 43.2384 187.506V187.673H41.657C41.6992 188.068 41.9251 188.265 42.3348 188.265C42.4583 188.265 42.5818 188.247 42.7052 188.21C42.8288 188.172 42.9417 188.111 43.0441 188.03L43.2022 188.409C43.0969 188.497 42.9643 188.566 42.8046 188.617C42.6451 188.668 42.4854 188.694 42.3257 188.694ZM42.2444 186.778C42.0788 186.778 41.9448 186.83 41.8423 186.932C41.7399 187.035 41.6782 187.173 41.657 187.347H42.7685C42.7565 187.164 42.7052 187.024 42.6149 186.927C42.5276 186.828 42.4041 186.778 42.2444 186.778ZM45.9155 188.694C45.3311 188.694 45.039 188.405 45.039 187.826V186.864H44.6143V186.439H45.039V185.78H45.6038V186.439H46.2724V186.864H45.6038V187.795C45.6038 187.939 45.6354 188.048 45.6986 188.12C45.7619 188.192 45.8643 188.228 46.0059 188.228C46.048 188.228 46.0917 188.224 46.1369 188.215C46.1821 188.203 46.2287 188.191 46.277 188.179L46.3628 188.594C46.3086 188.625 46.2393 188.649 46.155 188.667C46.0736 188.685 45.9938 188.694 45.9155 188.694ZM47.7042 188.694C47.4542 188.694 47.2389 188.648 47.0581 188.554C46.8774 188.461 46.7373 188.328 46.6379 188.156C46.5415 187.984 46.4934 187.781 46.4934 187.546C46.4934 187.318 46.5401 187.117 46.6334 186.945C46.7298 186.774 46.8609 186.64 47.0265 186.543C47.1952 186.444 47.3864 186.394 47.6003 186.394C47.9136 186.394 48.1605 186.493 48.3413 186.692C48.525 186.891 48.6169 187.162 48.6169 187.506V187.673H47.0355C47.0777 188.068 47.3036 188.265 47.7132 188.265C47.8368 188.265 47.9602 188.247 48.0837 188.21C48.2073 188.172 48.3202 188.111 48.4226 188.03L48.5807 188.409C48.4753 188.497 48.3428 188.566 48.1831 188.617C48.0235 188.668 47.8639 188.694 47.7042 188.694ZM47.6229 186.778C47.4573 186.778 47.3232 186.83 47.2208 186.932C47.1184 187.035 47.0566 187.173 47.0355 187.347H48.147C48.135 187.164 48.0837 187.024 47.9934 186.927C47.906 186.828 47.7826 186.778 47.6229 186.778ZM49.0642 188.649V186.439H49.6154V186.828C49.7238 186.566 49.9557 186.421 50.3111 186.394L50.4828 186.381L50.519 186.859L50.1937 186.891C49.8232 186.927 49.6379 187.117 49.6379 187.46V188.649H49.0642ZM50.8425 188.649V186.439H51.3937V186.778C51.4599 186.658 51.5518 186.565 51.6693 186.498C51.7867 186.429 51.9223 186.394 52.0759 186.394C52.4072 186.394 52.624 186.539 52.7265 186.828C52.7957 186.692 52.8951 186.587 53.0247 186.512C53.1542 186.434 53.3017 186.394 53.4675 186.394C53.9645 186.394 54.2129 186.697 54.2129 187.302V188.649H53.6482V187.325C53.6482 187.157 53.6195 187.033 53.5623 186.954C53.5081 186.877 53.4147 186.837 53.2822 186.837C53.1346 186.837 53.0186 186.89 52.9343 186.995C52.8499 187.098 52.8078 187.241 52.8078 187.424V188.649H52.2431V187.325C52.2431 187.157 52.2144 187.033 52.1572 186.954C52.103 186.877 52.0111 186.837 51.8816 186.837C51.734 186.837 51.618 186.89 51.5337 186.995C51.4493 187.098 51.4072 187.241 51.4072 187.424V188.649H50.8425ZM55.6042 188.694C55.4176 188.694 55.2428 188.671 55.0801 188.626C54.9175 188.581 54.782 188.517 54.6735 188.432L54.8181 188.061C54.9296 188.137 55.0546 188.196 55.1931 188.237C55.3317 188.277 55.4702 188.296 55.6088 188.296C55.7533 188.296 55.8603 188.273 55.9295 188.224C56.0018 188.173 56.038 188.106 56.038 188.025C56.038 187.899 55.9446 187.817 55.7579 187.781L55.306 187.695C54.9235 187.623 54.7323 187.424 54.7323 187.099C54.7323 186.954 54.7715 186.83 54.8497 186.724C54.931 186.619 55.0426 186.538 55.1841 186.48C55.3257 186.423 55.4883 186.394 55.672 186.394C55.8287 186.394 55.9792 186.417 56.1238 186.462C56.2684 186.504 56.3919 186.569 56.4943 186.656L56.3407 187.027C56.2534 186.954 56.1479 186.897 56.0244 186.855C55.904 186.813 55.788 186.792 55.6765 186.792C55.529 186.792 55.419 186.818 55.3467 186.868C55.2775 186.92 55.2428 186.988 55.2428 187.072C55.2428 187.205 55.3286 187.286 55.5003 187.316L55.9521 187.402C56.1479 187.438 56.2955 187.505 56.3949 187.6C56.4974 187.697 56.5485 187.826 56.5485 187.989C56.5485 188.209 56.4627 188.382 56.291 188.509C56.1193 188.632 55.8904 188.694 55.6042 188.694Z" fill="#414141"/>
<path d="M136.498 106.889H18.0723V130.383H136.498V106.889Z" fill="#3BA0A8"/>
<path d="M18.3179 99.7001L18.3207 99.6974C18.3275 99.6911 18.3438 99.6838 18.3653 99.6838H18.7564C18.8353 99.6838 18.8763 99.6965 18.9025 99.7128C18.9249 99.7263 18.9384 99.7435 18.9569 99.767C18.9606 99.7715 18.9644 99.776 18.9687 99.7814L19.725 100.843H19.0831L18.3166 99.7688L18.3154 99.767C18.3031 99.7516 18.3 99.739 18.301 99.7281C18.302 99.7182 18.3073 99.7082 18.3179 99.7001Z" fill="#BCBCBC" stroke="#BCBCBC" stroke-width="0.0577501"/>
<path d="M18.3143 102.035L18.3165 102.033L19.083 100.9H19.7313L19.0112 102.017C19.0088 102.02 19.0066 102.023 19.0046 102.025C18.9935 102.04 18.9851 102.05 18.9745 102.061L18.9734 102.062C18.9596 102.077 18.9433 102.09 18.9176 102.1C18.8913 102.11 18.8535 102.118 18.7958 102.118H18.3647C18.3318 102.118 18.3145 102.106 18.3068 102.092C18.2981 102.077 18.2976 102.054 18.3143 102.035Z" fill="#BCBCBC" stroke="#BCBCBC" stroke-width="0.0577501"/>
<path d="M22.4453 102.483C22.114 102.483 21.8293 102.417 21.5914 102.285C21.3565 102.149 21.1757 101.959 21.0492 101.715C20.9227 101.469 20.8595 101.178 20.8595 100.843C20.8595 100.509 20.9227 100.22 21.0492 99.9758C21.1757 99.7319 21.3565 99.5439 21.5914 99.4111C21.8293 99.2755 22.114 99.2078 22.4453 99.2078C22.6591 99.2078 22.861 99.2412 23.0507 99.3072C23.2435 99.374 23.4016 99.4689 23.5251 99.5918L23.3354 100.053C23.1998 99.9388 23.0612 99.8557 22.9197 99.8041C22.7781 99.7499 22.626 99.7228 22.4634 99.7228C22.1411 99.7228 21.8956 99.8213 21.7269 100.016C21.5582 100.21 21.4739 100.485 21.4739 100.843C21.4739 101.202 21.5582 101.479 21.7269 101.675C21.8956 101.871 22.1411 101.968 22.4634 101.968C22.626 101.968 22.7781 101.943 22.9197 101.891C23.0612 101.837 23.1998 101.753 23.3354 101.638L23.5251 102.099C23.4016 102.22 23.2435 102.315 23.0507 102.384C22.861 102.451 22.6591 102.483 22.4453 102.483ZM24.7179 102.483C24.1757 102.483 23.9046 102.18 23.9046 101.571V100.229H24.4694V101.58C24.4694 101.737 24.501 101.853 24.5643 101.928C24.6275 102.004 24.7285 102.041 24.867 102.041C25.0176 102.041 25.1412 101.99 25.2375 101.887C25.3339 101.782 25.3821 101.643 25.3821 101.471V100.229H25.9468V102.438H25.3956V102.108C25.2481 102.359 25.0221 102.483 24.7179 102.483ZM27.3434 102.483C27.1567 102.483 26.9819 102.461 26.8193 102.416C26.6566 102.37 26.5211 102.306 26.4126 102.221L26.5572 101.851C26.6687 101.927 26.7937 101.985 26.9322 102.027C27.0708 102.067 27.2093 102.086 27.3479 102.086C27.4924 102.086 27.5994 102.062 27.6687 102.013C27.7409 101.963 27.7771 101.896 27.7771 101.815C27.7771 101.688 27.6837 101.607 27.497 101.571L27.0452 101.485C26.6627 101.413 26.4714 101.214 26.4714 100.888C26.4714 100.744 26.5106 100.619 26.5888 100.513C26.6702 100.409 26.7817 100.327 26.9232 100.27C27.0648 100.213 27.2274 100.184 27.4111 100.184C27.5678 100.184 27.7184 100.206 27.8629 100.251C28.0075 100.294 28.131 100.359 28.2334 100.446L28.0798 100.816C27.9925 100.744 27.8871 100.687 27.7635 100.645C27.6431 100.603 27.5271 100.581 27.4156 100.581C27.2681 100.581 27.1581 100.607 27.0858 100.658C27.0166 100.71 26.9819 100.777 26.9819 100.861C26.9819 100.994 27.0678 101.076 27.2394 101.105L27.6912 101.191C27.8871 101.227 28.0346 101.294 28.134 101.39C28.2365 101.487 28.2876 101.616 28.2876 101.779C28.2876 101.999 28.2018 102.172 28.0301 102.298C27.8584 102.422 27.6295 102.483 27.3434 102.483ZM29.7307 102.483C29.1464 102.483 28.8542 102.194 28.8542 101.616V100.654H28.4295V100.229H28.8542V99.5692H29.419V100.229H30.0876V100.654H29.419V101.584C29.419 101.729 29.4506 101.837 29.5138 101.91C29.5771 101.982 29.6796 102.018 29.8211 102.018C29.8633 102.018 29.9069 102.013 29.9521 102.004C29.9973 101.993 30.044 101.981 30.0921 101.968L30.178 102.384C30.1238 102.415 30.0546 102.438 29.9702 102.456C29.8888 102.474 29.809 102.483 29.7307 102.483ZM31.4382 102.483C31.2092 102.483 31.0104 102.437 30.8418 102.343C30.6731 102.25 30.5421 102.117 30.4487 101.946C30.3553 101.771 30.3087 101.566 30.3087 101.331C30.3087 101.096 30.3553 100.893 30.4487 100.721C30.5421 100.55 30.6731 100.418 30.8418 100.324C31.0104 100.231 31.2092 100.184 31.4382 100.184C31.6671 100.184 31.8659 100.231 32.0346 100.324C32.2032 100.418 32.3342 100.55 32.4276 100.721C32.521 100.893 32.5677 101.096 32.5677 101.331C32.5677 101.566 32.521 101.771 32.4276 101.946C32.3342 102.117 32.2032 102.25 32.0346 102.343C31.8659 102.437 31.6671 102.483 31.4382 102.483ZM31.4382 102.054C31.6068 102.054 31.7423 101.995 31.8448 101.873C31.9472 101.751 31.9984 101.57 31.9984 101.331C31.9984 101.091 31.9472 100.911 31.8448 100.794C31.7423 100.673 31.6068 100.613 31.4382 100.613C31.2695 100.613 31.1339 100.673 31.0315 100.794C30.9291 100.911 30.8779 101.091 30.8779 101.331C30.8779 101.57 30.9291 101.751 31.0315 101.873C31.1339 101.995 31.2695 102.054 31.4382 102.054ZM33.0428 102.438V100.229H33.594V100.568C33.6603 100.448 33.7521 100.354 33.8696 100.288C33.9871 100.219 34.1226 100.184 34.2762 100.184C34.6076 100.184 34.8245 100.328 34.9268 100.617C34.9962 100.482 35.0955 100.377 35.225 100.301C35.3546 100.223 35.5022 100.184 35.6678 100.184C36.1648 100.184 36.4133 100.486 36.4133 101.092V102.438H35.8485V101.114C35.8485 100.946 35.82 100.823 35.7627 100.744C35.7085 100.666 35.6151 100.626 35.4826 100.626C35.335 100.626 35.2191 100.68 35.1347 100.785C35.0504 100.888 35.0082 101.03 35.0082 101.214V102.438H34.4434V101.114C34.4434 100.946 34.4149 100.823 34.3576 100.744C34.3034 100.666 34.2115 100.626 34.082 100.626C33.9344 100.626 33.8185 100.68 33.7341 100.785C33.6498 100.888 33.6076 101.03 33.6076 101.214V102.438H33.0428ZM39.2347 102.483C39.0029 102.483 38.801 102.437 38.6293 102.343C38.4576 102.248 38.3252 102.112 38.2317 101.937C38.1384 101.762 38.0917 101.557 38.0917 101.322C38.0917 101.087 38.1384 100.886 38.2317 100.717C38.3252 100.545 38.4576 100.414 38.6293 100.324C38.801 100.231 39.0029 100.184 39.2347 100.184C39.3763 100.184 39.5164 100.206 39.6549 100.251C39.7935 100.297 39.9079 100.36 39.9983 100.441L39.8311 100.834C39.7529 100.766 39.664 100.712 39.5646 100.676C39.4682 100.64 39.3748 100.622 39.2844 100.622C39.0887 100.622 38.9365 100.684 38.8281 100.807C38.7227 100.928 38.67 101.101 38.67 101.327C38.67 101.55 38.7227 101.726 38.8281 101.855C38.9365 101.982 39.0887 102.045 39.2844 102.045C39.3718 102.045 39.4652 102.027 39.5646 101.991C39.664 101.955 39.7529 101.901 39.8311 101.828L39.9983 102.226C39.9079 102.304 39.792 102.368 39.6504 102.416C39.5119 102.461 39.3734 102.483 39.2347 102.483ZM41.3082 102.483C41.0793 102.483 40.8805 102.437 40.7118 102.343C40.5431 102.25 40.4121 102.117 40.3187 101.946C40.2254 101.771 40.1787 101.566 40.1787 101.331C40.1787 101.096 40.2254 100.893 40.3187 100.721C40.4121 100.55 40.5431 100.418 40.7118 100.324C40.8805 100.231 41.0793 100.184 41.3082 100.184C41.5371 100.184 41.7359 100.231 41.9046 100.324C42.0733 100.418 42.2043 100.55 42.2976 100.721C42.391 100.893 42.4377 101.096 42.4377 101.331C42.4377 101.566 42.391 101.771 42.2976 101.946C42.2043 102.117 42.0733 102.25 41.9046 102.343C41.7359 102.437 41.5371 102.483 41.3082 102.483ZM41.3082 102.054C41.4769 102.054 41.6124 101.995 41.7148 101.873C41.8172 101.751 41.8684 101.57 41.8684 101.331C41.8684 101.091 41.8172 100.911 41.7148 100.794C41.6124 100.673 41.4769 100.613 41.3082 100.613C41.1395 100.613 41.0039 100.673 40.9015 100.794C40.7992 100.911 40.7479 101.091 40.7479 101.331C40.7479 101.57 40.7992 101.751 40.9015 101.873C41.0039 101.995 41.1395 102.054 41.3082 102.054ZM42.9039 102.438V100.229H43.4551V100.572C43.5303 100.446 43.6313 100.35 43.7578 100.283C43.8873 100.217 44.0318 100.184 44.1915 100.184C44.7125 100.184 44.9731 100.486 44.9731 101.092V102.438H44.4084V101.119C44.4084 100.947 44.3752 100.823 44.309 100.744C44.2457 100.666 44.1463 100.626 44.0108 100.626C43.8451 100.626 43.7126 100.68 43.6132 100.785C43.5168 100.888 43.4686 101.024 43.4686 101.196V102.438H42.9039ZM46.5588 102.483C45.9744 102.483 45.6823 102.194 45.6823 101.616V100.654H45.2576V100.229H45.6823V99.5692H46.2471V100.229H46.9157V100.654H46.2471V101.584C46.2471 101.729 46.2787 101.837 46.3419 101.91C46.4052 101.982 46.5076 102.018 46.6492 102.018C46.6913 102.018 46.735 102.013 46.7802 102.004C46.8254 101.993 46.872 101.981 46.9202 101.968L47.0061 102.384C46.9519 102.415 46.8826 102.438 46.7983 102.456C46.7169 102.474 46.6371 102.483 46.5588 102.483ZM48.3475 102.483C48.0975 102.483 47.8821 102.437 47.7014 102.343C47.5207 102.25 47.3806 102.117 47.2812 101.946C47.1848 101.774 47.1367 101.571 47.1367 101.336C47.1367 101.107 47.1834 100.907 47.2767 100.735C47.3731 100.563 47.5042 100.429 47.6698 100.333C47.8385 100.233 48.0297 100.184 48.2436 100.184C48.5569 100.184 48.8038 100.283 48.9846 100.482C49.1683 100.681 49.2602 100.952 49.2602 101.295V101.462H47.6788C47.721 101.857 47.9469 102.054 48.3565 102.054C48.4801 102.054 48.6035 102.036 48.727 102C48.8505 101.961 48.9635 101.901 49.0659 101.819L49.224 102.199C49.1186 102.286 48.9861 102.356 48.8264 102.407C48.6668 102.458 48.5072 102.483 48.3475 102.483ZM48.2662 100.568C48.1005 100.568 47.9665 100.619 47.8641 100.721C47.7617 100.824 47.6999 100.963 47.6788 101.137H48.7903C48.7783 100.954 48.727 100.813 48.6367 100.717C48.5493 100.617 48.4259 100.568 48.2662 100.568ZM49.7074 102.438V100.229H50.2586V100.572C50.3339 100.446 50.4349 100.35 50.5614 100.283C50.6909 100.217 50.8354 100.184 50.9951 100.184C51.5161 100.184 51.7767 100.486 51.7767 101.092V102.438H51.212V101.119C51.212 100.947 51.1788 100.823 51.1126 100.744C51.0493 100.666 50.9499 100.626 50.8144 100.626C50.6487 100.626 50.5162 100.68 50.4168 100.785C50.3204 100.888 50.2722 101.024 50.2722 101.196V102.438H49.7074ZM53.3624 102.483C52.778 102.483 52.4859 102.194 52.4859 101.616V100.654H52.0612V100.229H52.4859V99.5692H53.0506V100.229H53.7193V100.654H53.0506V101.584C53.0506 101.729 53.0823 101.837 53.1455 101.91C53.2088 101.982 53.3112 102.018 53.4527 102.018C53.4949 102.018 53.5386 102.013 53.5838 102.004C53.629 101.993 53.6756 101.981 53.7238 101.968L53.8097 102.384C53.7555 102.415 53.6862 102.438 53.6018 102.456C53.5205 102.474 53.4406 102.483 53.3624 102.483Z" fill="#414141"/>
<g filter="url(#filter1_d_3487_5477)">
<mask id="mask2_3487_5477" style="mask-type:luminance" maskUnits="userSpaceOnUse" x="17" y="63" width="119" height="25">
<path d="M134.76 63.1648H17.7551C17.4313 63.1648 17.1687 63.5341 17.1687 63.9894V86.253C17.1687 86.7085 17.4313 87.0777 17.7551 87.0777H134.76C135.084 87.0777 135.346 86.7085 135.346 86.253V63.9894C135.346 63.5341 135.084 63.1648 134.76 63.1648Z" fill="white"/>
</mask>
<g mask="url(#mask2_3487_5477)">
<path d="M134.76 63.165H17.7551C17.4312 63.165 17.1687 63.5343 17.1687 63.9896V86.2533C17.1687 86.7086 17.4312 87.0778 17.7551 87.0778H134.76C135.084 87.0778 135.346 86.7086 135.346 86.2533V63.9896C135.346 63.5343 135.084 63.165 134.76 63.165Z" fill="white"/>
<path d="M71.2371 63.1226H135.284C135.488 63.1226 135.651 63.4923 135.651 63.9486V86.2512C135.651 86.7074 135.488 87.0773 135.284 87.0773H71.2371V63.1226Z" fill="white"/>
</g>
<path d="M96.346 83.6057V82.1979H97.1593C97.3545 82.1979 97.5054 82.2305 97.6129 82.2958C97.7204 82.3597 97.7738 82.4488 97.7738 82.5633C97.7738 82.6393 97.7485 82.7046 97.6978 82.759C97.6463 82.8136 97.5759 82.8536 97.4864 82.8789C97.5921 82.9015 97.6734 82.9414 97.7322 82.9987C97.7918 83.0546 97.8216 83.1258 97.8216 83.2124C97.8216 83.3374 97.7647 83.4347 97.6527 83.5039C97.5424 83.5717 97.387 83.6057 97.1882 83.6057H96.346ZM96.6713 82.795H97.1015C97.331 82.795 97.4466 82.7278 97.4466 82.5933C97.4466 82.4589 97.331 82.3916 97.1015 82.3916H96.6713V82.795ZM96.6713 83.412H97.1457C97.378 83.412 97.4936 83.3415 97.4936 83.2004C97.4936 83.0592 97.378 82.9886 97.1457 82.9886H96.6713V83.412ZM98.5987 83.6257C98.2816 83.6257 98.1234 83.4912 98.1234 83.2222V82.6293H98.4533V83.2263C98.4533 83.2955 98.4722 83.3468 98.5093 83.38C98.5463 83.4133 98.6051 83.4301 98.6855 83.4301C98.774 83.4301 98.8463 83.4074 98.9024 83.3621C98.9584 83.3156 98.9864 83.2542 98.9864 83.1784V82.6293H99.3162V83.6057H98.9945V83.4599C98.9087 83.5705 98.7768 83.6257 98.5987 83.6257ZM99.7762 83.9651L100.014 83.5658L99.478 82.6293H99.8286L100.191 83.3121L100.56 82.6293H100.892L100.116 83.9651H99.7762ZM102.351 83.6257C102.011 83.6257 101.84 83.4979 101.84 83.2423V82.817H101.592V82.6293H101.84V82.3377H102.17V82.6293H102.56V82.817H102.17V83.2283C102.17 83.2923 102.188 83.3402 102.225 83.3721C102.262 83.404 102.322 83.42 102.405 83.42C102.429 83.42 102.454 83.418 102.481 83.414C102.508 83.4087 102.535 83.4033 102.563 83.3981L102.613 83.5818C102.581 83.5951 102.54 83.6057 102.492 83.6138C102.444 83.6216 102.398 83.6257 102.351 83.6257ZM102.753 82.4196V82.176H103.121V82.4196H102.753ZM102.773 83.6057V82.6293H103.103V83.6057H102.773ZM104.042 83.6257C103.907 83.6257 103.789 83.6051 103.689 83.5638C103.589 83.5212 103.511 83.4612 103.457 83.3841C103.401 83.3069 103.374 83.2164 103.374 83.1125C103.374 83.0087 103.401 82.9194 103.457 82.845C103.511 82.7691 103.589 82.7111 103.689 82.6712C103.789 82.6299 103.907 82.6093 104.042 82.6093C104.125 82.6093 104.207 82.6193 104.288 82.6393C104.369 82.6592 104.436 82.6872 104.489 82.7231L104.391 82.8968C104.345 82.8662 104.293 82.8429 104.235 82.8269C104.179 82.811 104.124 82.803 104.072 82.803C103.957 82.803 103.869 82.8303 103.804 82.8848C103.743 82.9381 103.713 83.0146 103.713 83.1145C103.713 83.213 103.743 83.2909 103.804 83.3481C103.869 83.404 103.957 83.432 104.072 83.432C104.123 83.432 104.177 83.424 104.235 83.408C104.293 83.392 104.345 83.3681 104.391 83.3362L104.489 83.5118C104.436 83.5464 104.368 83.5744 104.285 83.5957C104.205 83.6158 104.123 83.6257 104.042 83.6257ZM104.691 83.6057V82.1979H105.021V83.0446H105.026L105.546 82.6293H105.944L105.359 83.0965L105.981 83.6057H105.578L105.026 83.1704H105.021V83.6057H104.691ZM106.716 83.6257C106.57 83.6257 106.444 83.6051 106.338 83.5638C106.233 83.5225 106.151 83.4639 106.093 83.388C106.037 83.3121 106.009 83.2222 106.009 83.1185C106.009 83.0174 106.035 82.9288 106.091 82.8528C106.148 82.777 106.223 82.7178 106.32 82.6752C106.419 82.6313 106.531 82.6093 106.655 82.6093C106.838 82.6093 106.982 82.6532 107.088 82.7411C107.196 82.8289 107.249 82.9488 107.249 83.1005V83.1743H106.326C106.35 83.3488 106.482 83.4359 106.721 83.4359C106.794 83.4359 106.866 83.428 106.938 83.412C107.01 83.3946 107.076 83.3681 107.135 83.3321L107.228 83.4999C107.167 83.5385 107.089 83.5691 106.996 83.5917C106.903 83.6144 106.81 83.6257 106.716 83.6257ZM106.669 82.779C106.572 82.779 106.494 82.8017 106.434 82.847C106.373 82.8922 106.338 82.9534 106.326 83.0307H106.975C106.968 82.9494 106.938 82.8875 106.885 82.845C106.834 82.801 106.762 82.779 106.669 82.779ZM108.097 83.6257C107.755 83.6257 107.584 83.4979 107.584 83.2423V82.817H107.337V82.6293H107.584V82.3377H107.914V82.6293H108.305V82.817H107.914V83.2283C107.914 83.2923 107.933 83.3402 107.97 83.3721C108.007 83.404 108.067 83.42 108.149 83.42C108.174 83.42 108.2 83.418 108.226 83.414C108.252 83.4087 108.279 83.4033 108.307 83.3981L108.358 83.5818C108.326 83.5951 108.285 83.6057 108.237 83.6138C108.189 83.6216 108.142 83.6257 108.097 83.6257ZM108.991 83.6257C108.882 83.6257 108.78 83.6158 108.685 83.5957C108.589 83.5758 108.51 83.5472 108.447 83.5099L108.531 83.3461C108.596 83.3794 108.67 83.4053 108.751 83.424C108.831 83.4414 108.913 83.4499 108.993 83.4499C109.078 83.4499 109.14 83.4393 109.181 83.418C109.223 83.3954 109.244 83.3661 109.244 83.3301C109.244 83.2742 109.189 83.2383 109.08 83.2222L108.817 83.1844C108.593 83.1525 108.482 83.0646 108.482 82.9208C108.482 82.8569 108.504 82.8017 108.55 82.7551C108.597 82.7085 108.662 82.6726 108.745 82.6473C108.828 82.622 108.923 82.6093 109.03 82.6093C109.122 82.6093 109.21 82.6193 109.295 82.6393C109.379 82.6579 109.451 82.6865 109.511 82.7251L109.42 82.8889C109.37 82.8569 109.308 82.8317 109.236 82.813C109.166 82.7943 109.098 82.785 109.033 82.785C108.947 82.785 108.883 82.7964 108.84 82.8189C108.8 82.8415 108.78 82.8715 108.78 82.9088C108.78 82.9673 108.829 83.0034 108.93 83.0167L109.194 83.0546C109.308 83.0706 109.394 83.0999 109.452 83.1424C109.513 83.185 109.542 83.2423 109.542 83.3141C109.542 83.4114 109.492 83.4879 109.392 83.5437C109.291 83.5984 109.157 83.6257 108.991 83.6257Z" fill="white"/>
<path d="M113.771 83.0526L112.679 83.8796C112.663 83.8906 112.643 83.8965 112.621 83.8962C112.6 83.896 112.579 83.8895 112.565 83.8781C112.55 83.8667 112.541 83.8513 112.541 83.8352C112.54 83.8192 112.549 83.8037 112.562 83.792L113.598 83.0087L112.562 82.2255C112.549 82.2139 112.54 82.1983 112.541 82.1822C112.541 82.1662 112.55 82.1508 112.565 82.1394C112.579 82.1281 112.6 82.1215 112.621 82.1214C112.643 82.121 112.663 82.127 112.679 82.138L113.771 82.965C113.787 82.9765 113.796 82.9923 113.796 83.0087C113.796 83.0252 113.787 83.041 113.771 83.0526Z" fill="white"/>
</g>
<mask id="mask3_3487_5477" style="mask-type:luminance" maskUnits="userSpaceOnUse" x="17" y="56" width="121" height="30">
<path d="M137.151 56.9277H17.1687V85.6212H137.151V56.9277Z" fill="white"/>
</mask>
<g mask="url(#mask3_3487_5477)">
<path d="M17.2147 57.8037L17.2175 57.8013C17.2243 57.7945 17.2405 57.7881 17.262 57.7881H17.6532C17.7321 57.7881 17.773 57.8005 17.7992 57.8165C17.8216 57.8301 17.8352 57.8472 17.8536 57.8705C17.8573 57.8752 17.8612 57.8801 17.8655 57.8853L18.6218 58.9469H17.9799L17.2133 57.8724L17.2122 57.8709C17.1999 57.8559 17.1968 57.8425 17.1978 57.8324C17.1988 57.8221 17.2041 57.8119 17.2147 57.8037Z" fill="#BCBCBC" stroke="#BCBCBC" stroke-width="0.0577501"/>
<path d="M17.2111 60.1389L17.2132 60.1361L17.9798 59.0042H18.628L17.9079 60.1207C17.9056 60.1236 17.9034 60.1264 17.9013 60.1291C17.8902 60.1431 17.8819 60.1536 17.8712 60.1643L17.8702 60.1654C17.8563 60.1807 17.8401 60.194 17.8144 60.2038C17.788 60.2139 17.7502 60.221 17.6926 60.221H17.2615C17.2286 60.221 17.2112 60.2093 17.2036 60.1957C17.1949 60.1807 17.1943 60.1581 17.2111 60.1389Z" fill="#BCBCBC" stroke="#BCBCBC" stroke-width="0.0577501"/>
<path d="M21.2879 60.5874C20.9806 60.5874 20.711 60.5196 20.4791 60.3841C20.2501 60.2485 20.0725 60.0588 19.946 59.8148C19.8195 59.5678 19.7562 59.2787 19.7562 58.9473C19.7562 58.613 19.8195 58.3238 19.946 58.0798C20.0725 57.8359 20.2501 57.6476 20.4791 57.5151C20.708 57.3795 20.9776 57.3118 21.2879 57.3118C21.5981 57.3118 21.8676 57.3795 22.0966 57.5151C22.3255 57.6476 22.5032 57.8359 22.6297 58.0798C22.7562 58.3238 22.8195 58.6114 22.8195 58.9428C22.8195 59.2771 22.7562 59.5678 22.6297 59.8148C22.5032 60.0588 22.3255 60.2485 22.0966 60.3841C21.8676 60.5196 21.5981 60.5874 21.2879 60.5874ZM21.2879 60.0904C21.58 60.0904 21.8074 59.9894 21.9701 59.7877C22.1327 59.5859 22.2141 59.3058 22.2141 58.9473C22.2141 58.5859 22.1327 58.3057 21.9701 58.1069C21.8104 57.9082 21.583 57.8088 21.2879 57.8088C20.9956 57.8088 20.7683 57.9082 20.6056 58.1069C20.443 58.3057 20.3616 58.5859 20.3616 58.9473C20.3616 59.3058 20.443 59.5859 20.6056 59.7877C20.7683 59.9894 20.9956 60.0904 21.2879 60.0904ZM23.3532 60.5422V58.3329H23.9044V58.7214C24.0129 58.4594 24.2448 58.3148 24.6002 58.2877L24.7719 58.2741L24.8081 58.753L24.4828 58.7847C24.1123 58.8208 23.927 59.0106 23.927 59.3539V60.5422H23.3532ZM25.9367 60.5874C25.7438 60.5874 25.5737 60.5407 25.4261 60.4473C25.2816 60.354 25.1686 60.2214 25.0873 60.0497C25.006 59.8751 24.9653 59.6702 24.9653 59.4353C24.9653 59.1973 25.006 58.994 25.0873 58.8253C25.1686 58.6536 25.2816 58.5211 25.4261 58.4277C25.5737 58.3344 25.7438 58.2877 25.9367 58.2877C26.0933 58.2877 26.2349 58.3223 26.3614 58.3916C26.4879 58.4609 26.5828 58.5527 26.646 58.6672V57.3569H27.2108V60.5422H26.6596V60.1762C26.5993 60.3027 26.5044 60.4037 26.3749 60.4789C26.2454 60.5512 26.0993 60.5874 25.9367 60.5874ZM26.0948 60.1582C26.2634 60.1582 26.399 60.0979 26.5014 59.9774C26.6038 59.8539 26.6551 59.6732 26.6551 59.4353C26.6551 59.1943 26.6038 59.0151 26.5014 58.8976C26.399 58.7772 26.2634 58.7169 26.0948 58.7169C25.9261 58.7169 25.7906 58.7772 25.6882 58.8976C25.5857 59.0151 25.5346 59.1943 25.5346 59.4353C25.5346 59.6732 25.5857 59.8539 25.6882 59.9774C25.7906 60.0979 25.9261 60.1582 26.0948 60.1582ZM28.8852 60.5874C28.6352 60.5874 28.4198 60.5407 28.2391 60.4473C28.0584 60.354 27.9183 60.2214 27.8189 60.0497C27.7226 59.878 27.6743 59.6747 27.6743 59.4398C27.6743 59.2109 27.721 59.0106 27.8144 58.8389C27.9108 58.6672 28.0418 58.5332 28.2075 58.4368C28.3762 58.3374 28.5675 58.2877 28.7813 58.2877C29.0945 58.2877 29.3415 58.3871 29.5222 58.5859C29.706 58.7847 29.7978 59.0557 29.7978 59.3991V59.5663H28.2165C28.2587 59.9609 28.4846 60.1582 28.8942 60.1582C29.0177 60.1582 29.1413 60.1401 29.2647 60.1039C29.3882 60.0648 29.5012 60.0045 29.6035 59.9232L29.7617 60.3027C29.6563 60.3901 29.5238 60.4593 29.3641 60.5106C29.2045 60.5618 29.0448 60.5874 28.8852 60.5874ZM28.8038 58.6717C28.6382 58.6717 28.5042 58.7229 28.4017 58.8253C28.2994 58.9277 28.2376 59.0663 28.2165 59.241H29.3279C29.3159 59.0573 29.2647 58.9172 29.1743 58.8208C29.087 58.7214 28.9635 58.6717 28.8038 58.6717ZM30.2451 60.5422V58.3329H30.7963V58.7214C30.9047 58.4594 31.1367 58.3148 31.4921 58.2877L31.6638 58.2741L31.6999 58.753L31.3746 58.7847C31.0041 58.8208 30.8189 59.0106 30.8189 59.3539V60.5422H30.2451ZM34.0408 60.5874C33.8541 60.5874 33.6794 60.5648 33.5167 60.5196C33.3541 60.4744 33.2185 60.4096 33.1101 60.3253L33.2547 59.9548C33.3662 60.0301 33.4912 60.0888 33.6297 60.131C33.7683 60.1702 33.9068 60.1898 34.0454 60.1898C34.1899 60.1898 34.2969 60.1657 34.3661 60.1175C34.4384 60.0663 34.4746 60 34.4746 59.9187C34.4746 59.7922 34.3812 59.7109 34.1944 59.6747L33.7426 59.5889C33.3601 59.5166 33.1688 59.3178 33.1688 58.9925C33.1688 58.8479 33.2081 58.7229 33.2863 58.6175C33.3676 58.512 33.4791 58.4307 33.6207 58.3735C33.7622 58.3163 33.9249 58.2877 34.1086 58.2877C34.2653 58.2877 34.4158 58.3103 34.5604 58.3554C34.705 58.3976 34.8285 58.4623 34.9309 58.5497L34.7773 58.9202C34.69 58.8479 34.5845 58.7907 34.461 58.7485C34.3406 58.7063 34.2246 58.6853 34.1131 58.6853C33.9656 58.6853 33.8556 58.7108 33.7833 58.7621C33.7141 58.8133 33.6794 58.8811 33.6794 58.9654C33.6794 59.0979 33.7652 59.1793 33.9369 59.2094L34.3887 59.2952C34.5845 59.3313 34.7321 59.3976 34.8315 59.494C34.934 59.5904 34.9851 59.7199 34.9851 59.8825C34.9851 60.1024 34.8993 60.2756 34.7276 60.4021C34.5559 60.5257 34.327 60.5874 34.0408 60.5874ZM36.238 60.5874C35.6958 60.5874 35.4247 60.2831 35.4247 59.6747V58.3329H35.9895V59.6838C35.9895 59.8404 36.0211 59.9564 36.0844 60.0316C36.1476 60.1069 36.2485 60.1446 36.3871 60.1446C36.5376 60.1446 36.6611 60.0934 36.7575 59.991C36.8539 59.8855 36.9021 59.747 36.9021 59.5753V58.3329H37.4669V60.5422H36.9157V60.2124C36.768 60.4624 36.5421 60.5874 36.238 60.5874ZM38.0637 60.5422V58.3329H38.6149V58.6717C38.6812 58.5513 38.7731 58.4578 38.8905 58.3916C39.008 58.3223 39.1435 58.2877 39.2972 58.2877C39.6284 58.2877 39.8453 58.4323 39.9478 58.7214C40.017 58.5859 40.1164 58.4804 40.246 58.4051C40.3754 58.3268 40.523 58.2877 40.6887 58.2877C41.1857 58.2877 41.4342 58.5904 41.4342 59.1958V60.5422H40.8694V59.2184C40.8694 59.0497 40.8408 58.9263 40.7836 58.8479C40.7294 58.7696 40.636 58.7304 40.5035 58.7304C40.3558 58.7304 40.2399 58.7831 40.1556 58.8886C40.0712 58.991 40.0291 59.1341 40.0291 59.3178V60.5422H39.4643V59.2184C39.4643 59.0497 39.4357 58.9263 39.3785 58.8479C39.3243 58.7696 39.2324 58.7304 39.1029 58.7304C38.9552 58.7304 38.8393 58.7831 38.755 58.8886C38.6706 58.991 38.6285 59.1341 38.6285 59.3178V60.5422H38.0637ZM42.0258 60.5422V58.3329H42.577V58.6717C42.6433 58.5513 42.7351 58.4578 42.8526 58.3916C42.9701 58.3223 43.1056 58.2877 43.2592 58.2877C43.5906 58.2877 43.8075 58.4323 43.9098 58.7214C43.9791 58.5859 44.0785 58.4804 44.208 58.4051C44.3376 58.3268 44.4852 58.2877 44.6508 58.2877C45.1478 58.2877 45.3963 58.5904 45.3963 59.1958V60.5422H44.8315V59.2184C44.8315 59.0497 44.803 58.9263 44.7457 58.8479C44.6915 58.7696 44.5981 58.7304 44.4656 58.7304C44.318 58.7304 44.2021 58.7831 44.1177 58.8886C44.0334 58.991 43.9912 59.1341 43.9912 59.3178V60.5422H43.4264V59.2184C43.4264 59.0497 43.3979 58.9263 43.3406 58.8479C43.2863 58.7696 43.1945 58.7304 43.065 58.7304C42.9174 58.7304 42.8015 58.7831 42.7171 58.8886C42.6328 58.991 42.5906 59.1341 42.5906 59.3178V60.5422H42.0258ZM46.7063 60.5874C46.5467 60.5874 46.4036 60.5573 46.2771 60.497C46.1536 60.4338 46.0557 60.3494 45.9835 60.244C45.9141 60.1385 45.8795 60.0196 45.8795 59.8871C45.8795 59.7244 45.9217 59.5964 46.006 59.503C46.0904 59.4066 46.2274 59.3374 46.4172 59.2952C46.6069 59.253 46.8615 59.232 47.1807 59.232H47.3389V59.1371C47.3389 58.9864 47.3057 58.878 47.2395 58.8118C47.1732 58.7455 47.0617 58.7124 46.9051 58.7124C46.7816 58.7124 46.6551 58.732 46.5256 58.7711C46.3961 58.8073 46.2651 58.8645 46.1325 58.9428L45.9699 58.5588C46.0482 58.5045 46.14 58.4578 46.2455 58.4187C46.3539 58.3765 46.4669 58.3449 46.5844 58.3238C46.7048 58.2997 46.8178 58.2877 46.9232 58.2877C47.2455 58.2877 47.485 58.3629 47.6416 58.5136C47.7982 58.6611 47.8765 58.8916 47.8765 59.2048V60.5422H47.3479V60.1898C47.2967 60.3133 47.2154 60.4112 47.1039 60.4835C46.9925 60.5528 46.86 60.5874 46.7063 60.5874ZM46.8238 60.1988C46.9714 60.1988 47.0934 60.1476 47.1898 60.0452C47.2892 59.9428 47.3389 59.8132 47.3389 59.6566V59.5573H47.1853C46.9022 59.5573 46.7048 59.5798 46.5934 59.625C46.485 59.6672 46.4307 59.7455 46.4307 59.86C46.4307 59.9594 46.4654 60.0407 46.5347 60.1039C46.604 60.1672 46.7003 60.1988 46.8238 60.1988ZM48.4498 60.5422V58.3329H49.001V58.7214C49.1094 58.4594 49.3413 58.3148 49.6968 58.2877L49.8685 58.2741L49.9046 58.753L49.5793 58.7847C49.2088 58.8208 49.0236 59.0106 49.0236 59.3539V60.5422H48.4498ZM50.5546 61.3554L50.9612 60.4518L50.044 58.3329H50.6449L51.2639 59.878L51.8964 58.3329H52.4657L51.1374 61.3554H50.5546Z" fill="#414141"/>
</g>
<path d="M55.0586 67.531H19.876V70.0261H55.0586V67.531Z" fill="#E6E6E6"/>
<path d="M65.884 71.8975H19.876V74.3925H65.884V71.8975Z" fill="#E6E6E6"/>
<path d="M55.0586 76.2637H19.876V78.7588H55.0586V76.2637Z" fill="#E6E6E6"/>
<path d="M129.934 67.531H109.186V70.0261H129.934V67.531Z" fill="#E6E6E6"/>
<path d="M129.934 71.8975H109.186V74.3925H129.934V71.8975Z" fill="#E6E6E6"/>
<path d="M129.934 76.2637H109.186V78.7588H129.934V76.2637Z" fill="#E6E6E6"/>
<path d="M129.934 81.2529H109.186V83.748H129.934V81.2529Z" fill="#AAAAAA"/>
<path d="M41.073 81.2529H20.3243V83.748H41.073V81.2529Z" fill="#AAAAAA"/>
</g>
<path d="M149.688 0.312012H0.311939V228.303H149.688V0.312012Z" stroke="#EFF0F0" stroke-width="0.616638"/>
</g>
<defs>
<filter id="filter0_d_3487_5477" x="15.6776" y="26.1799" width="121.355" height="20.0334" filterUnits="userSpaceOnUse" color-interpolation-filters="sRGB">
<feFlood flood-opacity="0" result="BackgroundImageFix"/>
<feColorMatrix in="SourceAlpha" type="matrix" values="0 0 0 0 0 0 0 0 0 0 0 0 0 0 0 0 0 0 127 0" result="hardAlpha"/>
<feOffset dy="0.707301"/>
<feGaussianBlur stdDeviation="0.745522"/>
<feComposite in2="hardAlpha" operator="out"/>
<feColorMatrix type="matrix" values="0 0 0 0 0 0 0 0 0 0 0 0 0 0 0 0 0 0 0.15 0"/>
<feBlend mode="normal" in2="BackgroundImageFix" result="effect1_dropShadow_3487_5477"/>
<feBlend mode="normal" in="SourceGraphic" in2="effect1_dropShadow_3487_5477" result="shape"/>
</filter>
<filter id="filter1_d_3487_5477" x="15.6776" y="62.3811" width="121.16" height="26.8949" filterUnits="userSpaceOnUse" color-interpolation-filters="sRGB">
<feFlood flood-opacity="0" result="BackgroundImageFix"/>
<feColorMatrix in="SourceAlpha" type="matrix" values="0 0 0 0 0 0 0 0 0 0 0 0 0 0 0 0 0 0 127 0" result="hardAlpha"/>
<feOffset dy="0.707301"/>
<feGaussianBlur stdDeviation="0.745522"/>
<feComposite in2="hardAlpha" operator="out"/>
<feColorMatrix type="matrix" values="0 0 0 0 0 0 0 0 0 0 0 0 0 0 0 0 0 0 0.15 0"/>
<feBlend mode="normal" in2="BackgroundImageFix" result="effect1_dropShadow_3487_5477"/>
<feBlend mode="normal" in="SourceGraphic" in2="effect1_dropShadow_3487_5477" result="shape"/>
</filter>
<clipPath id="clip0_3487_5477">
<rect width="150" height="228.614" fill="white"/>
</clipPath>
</defs>
</svg>
