<svg xmlns="http://www.w3.org/2000/svg" width="106" height="196" viewBox="0 0 106 196">
  <g fill="none" fill-rule="evenodd">
    <path fill="#979797" fill-rule="nonzero" d="M96,0 C101.522847,0 106,4.4771525 106,10 L106,186 C106,191.522847 101.522847,196 96,196 L10,196 C4.4771525,196 0,191.522847 0,186 L0,10 C0,4.4771525 4.4771525,0 10,0 L96,0 Z M96,1 L10,1 C5.1181973,1 1.14420858,4.88681368 1.00383711,9.73463775 L1,10 L1,186 C1,190.881803 4.88681368,194.855791 9.73463775,194.996163 L10,195 L96,195 C100.881803,195 104.855791,191.113186 104.996163,186.265362 L105,186 L105,10 C105,5.1181973 101.113186,1.14420858 96.2653623,1.00383711 L96,1 Z M51.5,176 C55.3659932,176 58.5,179.134007 58.5,183 C58.5,186.865993 55.3659932,190 51.5,190 C47.6340068,190 44.5,186.865993 44.5,183 C44.5,179.134007 47.6340068,176 51.5,176 Z M51.5,177 C48.1862915,177 45.5,179.686292 45.5,183 C45.5,186.313708 48.1862915,189 51.5,189 C54.8137085,189 57.5,186.313708 57.5,183 C57.5,179.686292 54.8137085,177 51.5,177 Z M45,29 L45,30 C45,34.418278 48.581722,38 53,38 C57.3349143,38 60.8645429,34.5521622 60.9961932,30.2491793 L61,30 L61,29 L93,29 L93,165 L13,165 L13,29 L45,29 Z M44,30 L14,30 L14,164 L92,164 L92,30 L62,30 C62,34.9705627 57.9705627,39 53,39 C48.0294373,39 44,34.9705627 44,30 Z M49.3076923,145.692308 L49.3076923,154 L41,154 L41,145.692308 L49.3076923,145.692308 Z M57.6153846,153.076924 L56.6923077,153.076924 L56.6923077,152.153847 L57.6153846,152.153847 L57.6153846,151.230769 L55.7692308,151.230769 L55.7692308,150.307692 L58.5384615,150.307692 L58.5384615,149.384616 L54.8461538,149.384616 L54.8461538,146.615385 L53.9230769,146.615385 L53.9230769,149.384616 L53,149.384616 L53,150.307692 L51.1538462,150.307692 L51.1538462,148.461539 L52.0769231,148.461539 L52.0769231,146.615385 L51.1538462,146.615385 L51.1538462,148.461539 L50.2307692,148.461539 L50.2307692,146.615385 L51.1538462,146.615385 L51.1538462,145.692308 L50.2307692,145.692308 L50.2307692,144.769231 L46.5384615,144.769231 L46.5384615,143.846154 L50.2307692,143.846154 L50.2307692,134.615385 L51.1538462,134.615385 L51.1538462,139.230769 L52.0769231,139.230769 L52.0769231,136.461539 L53,136.461539 L53,139.230769 L53.9230769,139.230769 L53.9230769,140.153847 L61.3076923,140.153847 L61.3076923,139.230769 L63.1538462,139.230769 L63.1538462,140.153847 L65,140.153847 L65,142.923077 L64.0769231,142.923077 L64.0769231,142 L63.1538462,142 L63.1538462,141.076924 L60.3846154,141.076924 L60.3846154,142 L59.4615385,142 L59.4615385,142.923077 L60.3846154,142.923077 L60.3846154,144.769231 L61.3076923,144.769231 L61.3076923,146.615385 L60.3846154,146.615385 L60.3846154,149.384616 L61.3076923,149.384616 L61.3076923,150.307692 L65,150.307692 L65,151.230769 L60.3846154,151.230769 L60.3846154,154 L59.4615385,154 L59.4615385,152.153847 L57.6153846,152.153847 L57.6153846,153.076924 Z M51.1538462,150.307692 L51.1538462,152.153847 L52.0769231,152.153847 L52.0769231,153.076924 L53,153.076924 L53,154 L50.2307692,154 L50.2307692,150.307692 L51.1538462,150.307692 Z M48.3846154,146.615385 L41.9230769,146.615385 L41.9230769,153.076924 L48.3846154,153.076924 L48.3846154,146.615385 Z M64.0769231,152.153847 L64.0769231,153.076924 L63.1538462,153.076924 L63.1538462,152.153847 L64.0769231,152.153847 Z M54.8461538,151.230769 L54.8461538,152.153847 L53.9230769,152.153847 L53.9230769,151.230769 L54.8461538,151.230769 Z M47.4615385,147.538462 L47.4615385,152.153847 L42.8461538,152.153847 L42.8461538,147.538462 L47.4615385,147.538462 Z M63.1538462,147.538462 L63.1538462,149.384616 L61.3076923,149.384616 L61.3076923,147.538462 L63.1538462,147.538462 Z M57.6153846,145.692308 L55.7692308,145.692308 L55.7692308,147.538462 L56.6923077,147.538462 L56.6923077,148.461539 L59.4615385,148.461539 L59.4615385,146.615385 L57.6153846,146.615385 L57.6153846,145.692308 Z M64.0769231,145.692308 L64.0769231,146.615385 L63.1538462,146.615385 L63.1538462,145.692308 L64.0769231,145.692308 Z M55.7692308,141.076924 L53,141.076924 L53,142 L51.1538462,142 L51.1538462,143.846154 L52.0769231,143.846154 L52.0769231,144.769231 L51.1538462,144.769231 L51.1538462,145.692308 L54.8461538,145.692308 L54.8461538,143.846154 L58.5384615,143.846154 L58.5384615,142.923077 L55.7692308,142.923077 L55.7692308,141.076924 Z M46.5384615,141.076924 L46.5384615,142 L49.3076923,142 L49.3076923,142.923077 L45.6153846,142.923077 L45.6153846,144.769231 L41,144.769231 L41,142.923077 L41.9230769,142.923077 L41.9230769,143.846154 L44.6923077,143.846154 L44.6923077,141.076924 L46.5384615,141.076924 Z M59.4615385,143.846154 L58.5384615,143.846154 L58.5384615,144.769231 L59.4615385,144.769231 L59.4615385,143.846154 Z M62.2307692,143.846154 L62.2307692,144.769231 L61.3076923,144.769231 L61.3076923,143.846154 L62.2307692,143.846154 Z M54.8461538,142.923077 L54.8461538,143.846154 L53.9230769,143.846154 L53.9230769,142.923077 L54.8461538,142.923077 Z M61.3076923,142 L61.3076923,142.923077 L60.3846154,142.923077 L60.3846154,142 L61.3076923,142 Z M58.5384615,141.076924 L56.6923077,141.076924 L56.6923077,142 L58.5384615,142 L58.5384615,141.076924 Z M44.6923077,139.230769 L44.6923077,140.153847 L41.9230769,140.153847 L41.9230769,142 L41,142 L41,139.230769 L44.6923077,139.230769 Z M49.3076923,139.230769 L49.3076923,141.076924 L46.5384615,141.076924 L46.5384615,139.230769 L49.3076923,139.230769 Z M54.8461538,137.384616 L54.8461538,138.307692 L53.9230769,138.307692 L53.9230769,137.384616 L54.8461538,137.384616 Z M49.3076923,130 L49.3076923,138.307692 L41,138.307692 L41,130 L49.3076923,130 Z M65,130 L65,138.307692 L56.6923077,138.307692 L56.6923077,130 L65,130 Z M48.3846154,130.923077 L41.9230769,130.923077 L41.9230769,137.384616 L48.3846154,137.384616 L48.3846154,130.923077 Z M64.0769231,130.923077 L57.6153846,130.923077 L57.6153846,137.384616 L64.0769231,137.384616 L64.0769231,130.923077 Z M63.1538462,131.846154 L63.1538462,136.461539 L58.5384615,136.461539 L58.5384615,131.846154 L63.1538462,131.846154 Z M47.4615385,131.846154 L47.4615385,136.461539 L42.8461538,136.461539 L42.8461538,131.846154 L47.4615385,131.846154 Z M55.7692308,130 L55.7692308,132.769231 L53.9230769,132.769231 L53.9230769,133.692308 L55.7692308,133.692308 L55.7692308,135.538462 L54.8461538,135.538462 L54.8461538,136.461539 L53.9230769,136.461539 L53.9230769,134.615385 L53,134.615385 L53,133.692308 L52.0769231,133.692308 L52.0769231,134.615385 L51.1538462,134.615385 L51.1538462,132.769231 L50.2307692,132.769231 L50.2307692,130 L55.7692308,130 Z M53,130.923077 L51.1538462,130.923077 L51.1538462,131.846154 L52.0769231,131.846154 L52.0769231,132.769231 L53,132.769231 L53,130.923077 Z M87,103 L87,121 L20,121 L20,103 L87,103 Z M87,83 L87,101 L20,101 L20,83 L87,83 Z M87,65 L87,81 L20,81 L20,65 L87,65 Z M87,42 L87,52 L66,52 L66,42 L87,42 Z M41,42 L41,52 L20,52 L20,42 L41,42 Z M40,43 L21,43 L21,51 L40,51 L40,43 Z"/>
    <path fill="#C55A87" d="M53,105 C56.8659932,105 60,108.134007 60,112 C60,115.865993 56.8659932,119 53,119 C49.1340068,119 46,115.865993 46,112 C46,108.134007 49.1340068,105 53,105 Z M53,86 C56.8659932,86 60,89.1340068 60,93 C60,96.8659932 56.8659932,100 53,100 C49.1340068,100 46,96.8659932 46,93 C46,89.1340068 49.1340068,86 53,86 Z M53,67 C56.8659932,67 60,70.1340068 60,74 C60,77.8659932 56.8659932,81 53,81 C49.1340068,81 46,77.8659932 46,74 C46,70.1340068 49.1340068,67 53,67 Z M76,40 C79.8659932,40 83,43.1340068 83,47 C83,50.8659932 79.8659932,54 76,54 C72.1340068,54 69,50.8659932 69,47 C69,43.1340068 72.1340068,40 76,40 Z"/>
    <path fill="#FFF" fill-rule="nonzero" d="M55.365,108 L52.305,112.21 L54.185,112.21 L54.185,110.9 L55.715,110.9 L55.715,112.21 L56.855,112.21 L56.855,113.53 L55.715,113.53 L55.715,115 L54.135,115 L54.135,113.53 L50.365,113.53 L50.365,112.44 L53.665,108 L55.365,108 Z M55.78,89 L55.78,90.05 L54.2,91.85 L54.4232812,91.8935156 C54.9285937,92.0090885 55.3241667,92.2229167 55.61,92.535 C55.9366667,92.8916667 56.1,93.3333333 56.1,93.86 C56.1,94.2666667 55.9933333,94.6416667 55.78,94.985 C55.5666667,95.3283333 55.2416667,95.6033333 54.805,95.81 C54.3683333,96.0166667 53.8333333,96.12 53.2,96.12 C52.7066667,96.12 52.2216667,96.055 51.745,95.925 C51.2683333,95.795 50.8633333,95.61 50.53,95.37 L50.53,95.37 L51.16,94.13 L51.325,94.2446 C51.5516667,94.3902 51.805,94.507 52.085,94.595 C52.435,94.705 52.7933333,94.76 53.16,94.76 C53.5666667,94.76 53.8866667,94.6816667 54.12,94.525 C54.3533333,94.3683333 54.47,94.1466667 54.47,93.86 C54.47,93.2866667 54.0333333,93 53.16,93 L53.16,93 L52.42,93 L52.42,91.93 L53.86,90.3 L50.88,90.3 L50.88,89 L55.78,89 Z M53.34,69.88 C53.86,69.88 54.315,69.965 54.705,70.135 C55.095,70.305 55.3983333,70.545 55.615,70.855 C55.8316667,71.165 55.94,71.53 55.94,71.95 C55.94,72.33 55.86,72.6866667 55.7,73.02 C55.54,73.3533333 55.23,73.7333333 54.77,74.16 L54.77,74.16 L53.16,75.68 L56.17,75.68 L56.17,77 L50.88,77 L50.88,75.95 L53.58,73.4 L53.7155556,73.2665278 C53.9285185,73.0493981 54.0766667,72.8588889 54.16,72.695 C54.26,72.4983333 54.31,72.3033333 54.31,72.11 C54.31,71.83 54.215,71.615 54.025,71.465 C53.835,71.315 53.5566667,71.24 53.19,71.24 C52.8833333,71.24 52.6066667,71.2983333 52.36,71.415 C52.1133333,71.5316667 51.9066667,71.7066667 51.74,71.94 L51.74,71.94 L50.56,71.18 L50.6834694,71.0111224 C50.9430612,70.6841837 51.2785714,70.4221429 51.69,70.225 C52.17,69.995 52.72,69.88 53.34,69.88 Z M77.63,43 L77.63,50 L76.01,50 L76.01,44.3 L74.61,44.3 L74.61,43 L77.63,43 Z"/>
  </g>
</svg>
