<svg width="122" height="158" viewBox="0 0 122 158" fill="none" xmlns="http://www.w3.org/2000/svg">
<path d="M47.0094 0C47.2824 7.22441 53.4417 13 61 13C68.5583 13 74.7176 7.22441 74.9906 0H122V158H0V0H47.0094ZM46.079 0.999H1V157H121V0.999H75.92L75.8874 1.28613C74.988 8.37242 68.8131 13.8418 61.3263 13.9966L61 14C53.367 14 47.025 8.47511 46.1126 1.28613L46.079 0.999Z" fill="#CDCDCD"/>
<path d="M111.435 116V101H10.0664V116H111.435Z" fill="#E9E9E9"/>
<path d="M111.435 91V76H10.0664V91H111.435Z" fill="#E9E9E9"/>
<path d="M111.435 66V51H10.0664V66H111.435Z" fill="#E9E9E9"/>
<path d="M111.435 41V26H10.0664V41H111.435Z" fill="#E9E9E9"/>
<path d="M13.3705 115.608C17.4045 115.608 20.6746 112.338 20.6746 108.304C20.6746 104.27 17.4045 101 13.3705 101C9.33656 101 6.06641 104.27 6.06641 108.304C6.06641 112.338 9.33656 115.608 13.3705 115.608Z" fill="#C55A87"/>
<path d="M16.0427 111.075V109.878H13.3135L14.7733 108.5C15.1904 108.113 15.4715 107.768 15.6166 107.466C15.7617 107.164 15.8342 106.84 15.8342 106.496C15.8342 106.115 15.7355 105.783 15.539 105.502C15.3436 105.221 15.0675 105.004 14.7139 104.849C14.3613 104.695 13.9482 104.619 13.4767 104.619C12.9146 104.619 12.4159 104.723 11.9806 104.931C11.5454 105.14 11.2039 105.429 10.9561 105.798L12.026 106.487C12.1771 106.275 12.3645 106.117 12.5881 106.01C12.8118 105.905 13.0627 105.852 13.3407 105.852C13.6732 105.852 13.925 105.919 14.0983 106.056C14.2696 106.192 14.3562 106.387 14.3562 106.641C14.3562 106.816 14.3109 106.993 14.2202 107.171C14.1296 107.35 13.9543 107.563 13.6943 107.81L11.2462 110.123V111.075H16.0427Z" fill="white"/>
</svg>
