<svg width="122" height="158" viewBox="0 0 122 158" fill="none" xmlns="http://www.w3.org/2000/svg">
<path d="M47.0094 0C47.2824 7.22441 53.4417 13 61 13C68.5583 13 74.7176 7.22441 74.9906 0H122V158H0V0H47.0094ZM46.079 0.999H1V157H121V0.999H75.92L75.8874 1.28613C74.988 8.37242 68.8131 13.8418 61.3263 13.9966L61 14C53.367 14 47.025 8.47511 46.1126 1.28613L46.079 0.999Z" fill="#C6C6C6"/>
<path d="M42 10V23H11V10H42ZM41 11H12V22H41V11ZM58.85 143.838V146.147H60V147.301H61.15V148.456H57.7V143.838H58.85ZM56.55 138.066V148.456H46.2V138.066H56.55ZM58.85 124.213V129.985H60V126.522H61.15V129.985H62.3V131.14H71.5V129.985H73.8V131.14H76.1V134.603H74.95V133.449H73.8V132.294H70.35V133.449H69.2V134.603H70.35V136.912H71.5V139.221H70.35V142.684H71.5V143.838H76.1V144.993H70.35V148.456H69.2V146.147H66.9V147.301H65.75V146.147H66.9V144.993H64.6V143.838H68.05V142.684H63.45V139.221H62.3V142.684H61.15V143.838H58.85V141.529H60V139.221H58.85V141.529H57.7V139.221H58.85V138.066H57.7V136.912H53.1V135.757H57.7V124.213H58.85ZM55.4 139.221H47.35V147.301H55.4V139.221ZM74.95 146.147V147.301H73.8V146.147H74.95ZM54.25 140.375V146.147H48.5V140.375H54.25ZM63.45 144.993V146.147H62.3V144.993H63.45ZM73.8 140.375V142.684H71.5V140.375H73.8ZM66.9 138.066H64.6V140.375H65.75V141.529H69.2V139.221H66.9V138.066ZM74.95 138.066V139.221H73.8V138.066H74.95ZM64.6 132.294H61.15V133.449H58.85V135.757H60V136.912H58.85V138.066H63.45V135.757H68.05V134.603H64.6V132.294ZM69.2 135.757H68.05V136.912H69.2V135.757ZM72.65 135.757V136.912H71.5V135.757H72.65ZM53.1 132.294V133.449H56.55V134.603H51.95V136.912H46.2V134.603H47.35V135.757H50.8V132.294H53.1ZM63.45 134.603V135.757H62.3V134.603H63.45ZM71.5 133.449V134.603H70.35V133.449H71.5ZM68.05 132.294H65.75V133.449H68.05V132.294ZM50.8 129.985V131.14H47.35V133.449H46.2V129.985H50.8ZM56.55 129.985V132.294H53.1V129.985H56.55ZM56.55 118.441V128.831H46.2V118.441H56.55ZM76.1 118.441V128.831H65.75V118.441H76.1ZM63.45 127.676V128.831H62.3V127.676H63.45ZM74.95 119.596H66.9V127.676H74.95V119.596ZM55.4 119.596H47.35V127.676H55.4V119.596ZM73.8 120.75V126.522H68.05V120.75H73.8ZM54.25 120.75V126.522H48.5V120.75H54.25ZM64.6 118.441V121.904H62.3V123.059H64.6V125.368H63.45V126.522H62.3V124.213H61.15V123.059H60V124.213H58.85V121.904H57.7V118.441H64.6ZM61.15 119.596H58.85V120.75H60V121.904H61.15V119.596Z" fill="#E9E9E9"/>
<path d="M111.435 104V89H10.0664V104H111.435Z" fill="#E9E9E9"/>
<path d="M61.0664 49V34H10.0664V49H61.0664Z" fill="#E9E9E9"/>
<path d="M61.0664 69V54H10.0664V69H61.0664Z" fill="#E9E9E9"/>
<path d="M111.066 72V34H76.0664V72H111.066Z" fill="#E9E9E9"/>
<path d="M94.3705 60.6082C98.4045 60.6082 101.675 57.338 101.675 53.3041C101.675 49.2702 98.4045 46 94.3705 46C90.3366 46 87.0664 49.2702 87.0664 53.3041C87.0664 57.338 90.3366 60.6082 94.3705 60.6082Z" fill="#C55A87"/>
<path d="M93.8194 56.7581C94.3936 56.7581 94.8782 56.6644 95.2741 56.477C95.6711 56.2896 95.9653 56.0397 96.1587 55.7284C96.3521 55.4171 96.4488 55.0776 96.4488 54.7089C96.4488 54.2314 96.3008 53.8304 96.0046 53.508C95.7084 53.1846 95.2822 52.9771 94.7261 52.8864L96.1587 51.2543V50.3022H91.7158V51.481H94.4178L93.1121 52.9589V53.9291H93.7831C94.575 53.9291 94.9709 54.189 94.9709 54.7089C94.9709 54.9688 94.8651 55.1693 94.6535 55.3114C94.442 55.4534 94.1518 55.5249 93.7831 55.5249C93.4506 55.5249 93.1262 55.4746 92.8079 55.3748C92.4915 55.2761 92.2115 55.135 91.9697 54.9537L91.3984 56.078C91.7007 56.2956 92.0684 56.4639 92.4996 56.5818C92.9328 56.6996 93.3721 56.7581 93.8194 56.7581Z" fill="white"/>
<path d="M13.3705 48.6082C17.4045 48.6082 20.6746 45.338 20.6746 41.3041C20.6746 37.2702 17.4045 34 13.3705 34C9.33656 34 6.06641 37.2702 6.06641 41.3041C6.06641 45.338 9.33656 48.6082 13.3705 48.6082Z" fill="#C55A87"/>
<path d="M14.1431 44.0746V37.7276H11.4048V38.9064H12.6742V44.0746H14.1431Z" fill="white"/>
</svg>
