<svg xmlns="http://www.w3.org/2000/svg" width="106" height="196" viewBox="0 0 106 196">
  <path fill="#979797" d="M96,0 C101.522847,0 106,4.4771525 106,10 L106,186 C106,191.522847 101.522847,196 96,196 L10,196 C4.4771525,196 0,191.522847 0,186 L0,10 C0,4.4771525 4.4771525,0 10,0 L96,0 Z M96,1 L10,1 C5.1181973,1 1.14420858,4.88681368 1.00383711,9.73463775 L1,10 L1,186 C1,190.881803 4.88681368,194.855791 9.73463775,194.996163 L10,195 L96,195 C100.881803,195 104.855791,191.113186 104.996163,186.265362 L105,186 L105,10 C105,5.1181973 101.113186,1.14420858 96.2653623,1.00383711 L96,1 Z M51.5,176 C55.3659932,176 58.5,179.134007 58.5,183 C58.5,186.865993 55.3659932,190 51.5,190 C47.6340068,190 44.5,186.865993 44.5,183 C44.5,179.134007 47.6340068,176 51.5,176 Z M51.5,177 C48.1862915,177 45.5,179.686292 45.5,183 C45.5,186.313708 48.1862915,189 51.5,189 C54.8137085,189 57.5,186.313708 57.5,183 C57.5,179.686292 54.8137085,177 51.5,177 Z M45,29 L45,30 C45,34.418278 48.581722,38 53,38 C57.3349143,38 60.8645429,34.5521622 60.9961932,30.2491793 L61,30 L61,29 L93,29 L93,165 L13,165 L13,29 L45,29 Z M44,30 L14,30 L14,164 L92,164 L92,30 L62,30 C62,34.9705627 57.9705627,39 53,39 C48.0294373,39 44,34.9705627 44,30 Z M52,151 L52,153 L53,153 L53,154 L54,154 L54,155 L51,155 L51,151 L52,151 Z M50,146 L50,155 L41,155 L41,146 L50,146 Z M52,134 L52,139 L53,139 L53,136 L54,136 L54,139 L55,139 L55,140 L63,140 L63,139 L65,139 L65,140 L67,140 L67,143 L66,143 L66,142 L65,142 L65,141 L62,141 L62,142 L61,142 L61,143 L62,143 L62,145 L63,145 L63,147 L62,147 L62,150 L63,150 L63,151 L67,151 L67,152 L62,152 L62,155 L61,155 L61,153 L59,153 L59,154 L58,154 L58,153 L59,153 L59,152 L57,152 L57,151 L60,151 L60,150 L56,150 L56,147 L55,147 L55,150 L54,150 L54,151 L52,151 L52,149 L53,149 L53,147 L52,147 L52,149 L51,149 L51,147 L52,147 L52,146 L51,146 L51,145 L47,145 L47,144 L51,144 L51,134 L52,134 Z M49,147 L42,147 L42,154 L49,154 L49,147 Z M66,153 L66,154 L65,154 L65,153 L66,153 Z M48,148 L48,153 L43,153 L43,148 L48,148 Z M56,152 L56,153 L55,153 L55,152 L56,152 Z M65,148 L65,150 L63,150 L63,148 L65,148 Z M59,146 L57,146 L57,148 L58,148 L58,149 L61,149 L61,147 L59,147 L59,146 Z M66,146 L66,147 L65,147 L65,146 L66,146 Z M57,141 L54,141 L54,142 L52,142 L52,144 L53,144 L53,145 L52,145 L52,146 L56,146 L56,144 L60,144 L60,143 L57,143 L57,141 Z M61,144 L60,144 L60,145 L61,145 L61,144 Z M64,144 L64,145 L63,145 L63,144 L64,144 Z M47,141 L47,142 L50,142 L50,143 L46,143 L46,145 L41,145 L41,143 L42,143 L42,144 L45,144 L45,141 L47,141 Z M56,143 L56,144 L55,144 L55,143 L56,143 Z M63,142 L63,143 L62,143 L62,142 L63,142 Z M60,141 L58,141 L58,142 L60,142 L60,141 Z M45,139 L45,140 L42,140 L42,142 L41,142 L41,139 L45,139 Z M50,139 L50,141 L47,141 L47,139 L50,139 Z M50,129 L50,138 L41,138 L41,129 L50,129 Z M67,129 L67,138 L58,138 L58,129 L67,129 Z M56,137 L56,138 L55,138 L55,137 L56,137 Z M66,130 L59,130 L59,137 L66,137 L66,130 Z M49,130 L42,130 L42,137 L49,137 L49,130 Z M65,131 L65,136 L60,136 L60,131 L65,131 Z M48,131 L48,136 L43,136 L43,131 L48,131 Z M57,129 L57,132 L55,132 L55,133 L57,133 L57,135 L56,135 L56,136 L55,136 L55,134 L54,134 L54,133 L53,133 L53,134 L52,134 L52,132 L51,132 L51,129 L57,129 Z M54,130 L52,130 L52,131 L53,131 L53,132 L54,132 L54,130 Z M87,103 L87,121 L20,121 L20,103 L87,103 Z M87,83 L87,101 L20,101 L20,83 L87,83 Z M87,65 L87,81 L20,81 L20,65 L87,65 Z M87,42 L87,52 L66,52 L66,42 L87,42 Z M41,42 L41,52 L20,52 L20,42 L41,42 Z M40,43 L21,43 L21,51 L40,51 L40,43 Z"/>
</svg>
