<svg xmlns="http://www.w3.org/2000/svg" width="106" height="196" viewBox="0 0 106 196">
  <g fill="none" fill-rule="evenodd">
    <path fill="#979797" fill-rule="nonzero" d="M96,0 C101.522847,0 106,4.4771525 106,10 L106,186 C106,191.522847 101.522847,196 96,196 L10,196 C4.4771525,196 0,191.522847 0,186 L0,10 C0,4.4771525 4.4771525,0 10,0 L96,0 Z M96,1 L10,1 C5.1181973,1 1.14420858,4.88681368 1.00383711,9.73463775 L1,10 L1,186 C1,190.881803 4.88681368,194.855791 9.73463775,194.996163 L10,195 L96,195 C100.881803,195 104.855791,191.113186 104.996163,186.265362 L105,186 L105,10 C105,5.1181973 101.113186,1.14420858 96.2653623,1.00383711 L96,1 Z M51.5,176 C55.3659932,176 58.5,179.134007 58.5,183 C58.5,186.865993 55.3659932,190 51.5,190 C47.6340068,190 44.5,186.865993 44.5,183 C44.5,179.134007 47.6340068,176 51.5,176 Z M51.5,177 C48.1862915,177 45.5,179.686292 45.5,183 C45.5,186.313708 48.1862915,189 51.5,189 C54.8137085,189 57.5,186.313708 57.5,183 C57.5,179.686292 54.8137085,177 51.5,177 Z M45,29 L45,30 C45,34.418278 48.581722,38 53,38 C57.3349143,38 60.8645429,34.5521622 60.9961932,30.2491793 L61,30 L61,29 L93,29 L93,165 L13,165 L13,29 L45,29 Z M44,30 L14,30 L14,164 L92,164 L92,30 L62,30 C62,34.9705627 57.9705627,39 53,39 C48.0294373,39 44,34.9705627 44,30 Z M87,46 L87,139 L20,139 L20,46 L87,46 Z"/>
    <circle cx="53" cy="85" r="7" fill="#C55A87"/>
    <polygon fill="#FFF" fill-rule="nonzero" points="54.63 88 54.63 81 51.61 81 51.61 82.3 53.01 82.3 53.01 88"/>
  </g>
</svg>
