<svg xmlns="http://www.w3.org/2000/svg" width="12" height="18" viewBox="0 0 12 18">
    <g fill="none" fill-rule="evenodd">
        <g fill="#414141" fill-rule="nonzero">
            <g>
                <g>
                    <g>
                        <path d="M14.102 6l-.002.1c0 1.38 1.12 2.5 2.5 2.5s2.5-1.12 2.5-2.5l-.004-.1H22.5v18h-12V6h3.602zM21 7.5h-.854C19.518 8.976 18.122 10 16.5 10c-1.622 0-3.018-1.025-3.646-2.5H12v15h9v-15zM19.5 19v1.5h-6V19h6zm0-3v1.5h-6V16h6zm0-3v1.5h-6V13h6z" transform="translate(-660 -242) translate(154 208) translate(255 4) translate(240.5 24)"/>
                    </g>
                </g>
            </g>
        </g>
    </g>
</svg>
