<svg width="22" height="22" viewBox="0 0 22 22" fill="none" xmlns="http://www.w3.org/2000/svg">
<circle cx="11" cy="11" r="9" fill="#B19AF1"/>
<path d="M11.0002 1.83334C5.94016 1.83334 1.8335 5.94001 1.8335 11C1.8335 16.06 5.94016 20.1667 11.0002 20.1667C16.0602 20.1667 20.1668 16.06 20.1668 11C20.1668 5.94001 16.0602 1.83334 11.0002 1.83334ZM11.0002 18.3333C6.9485 18.3333 3.66683 15.0517 3.66683 11C3.66683 6.94834 6.9485 3.66668 11.0002 3.66668C15.0518 3.66668 18.3335 6.94834 18.3335 11C18.3335 15.0517 15.0518 18.3333 11.0002 18.3333Z" fill="#414141"/>
<path d="M11.0002 15.5833C13.5315 15.5833 15.5835 13.5313 15.5835 11C15.5835 8.4687 13.5315 6.41668 11.0002 6.41668C8.46886 6.41668 6.41683 8.4687 6.41683 11C6.41683 13.5313 8.46886 15.5833 11.0002 15.5833Z" fill="#414141"/>
<circle cx="11" cy="11" r="3" fill="#B19AF1"/>
</svg>
