<svg width="22" height="22" viewBox="0 0 22 22" fill="none" xmlns="http://www.w3.org/2000/svg">
    <circle cx="11" cy="11" r="9" fill="#FFCB69"/>
    <path
        d="M10.991 1.8335C5.931 1.8335 1.8335 5.94016 1.8335 11.0002C1.8335 16.0602 5.931 20.1668 10.991 20.1668C16.0602 20.1668 20.1668 16.0602 20.1668 11.0002C20.1668 5.94016 16.0602 1.8335 10.991 1.8335ZM11.0002 18.3335C6.9485 18.3335 3.66683 15.0518 3.66683 11.0002C3.66683 6.9485 6.9485 3.66683 11.0002 3.66683C15.0518 3.66683 18.3335 6.9485 18.3335 11.0002C18.3335 15.0518 15.0518 18.3335 11.0002 18.3335Z"
        fill="#414141"/>
    <path d="M10.5 6.5L10.5 11.5L14 11.5" stroke="#414141" stroke-width="1.8" stroke-linecap="round"
          stroke-linejoin="round"/>
</svg>
