<svg width="22" height="22" viewBox="0 0 22 22" fill="none" xmlns="http://www.w3.org/2000/svg">
<g id="block">
<path id="Vector" d="M11.0002 1.8335C5.94016 1.8335 1.8335 5.94016 1.8335 11.0002C1.8335 16.0602 5.94016 20.1668 11.0002 20.1668C16.0602 20.1668 20.1668 16.0602 20.1668 11.0002C20.1668 5.94016 16.0602 1.8335 11.0002 1.8335ZM3.66683 11.0002C3.66683 6.9485 6.9485 3.66683 11.0002 3.66683C12.696 3.66683 14.2543 4.24433 15.4918 5.216L5.216 15.4918C4.24433 14.2543 3.66683 12.696 3.66683 11.0002ZM11.0002 18.3335C9.30433 18.3335 7.746 17.756 6.5085 16.7843L16.7843 6.5085C17.756 7.746 18.3335 9.30433 18.3335 11.0002C18.3335 15.0518 15.0518 18.3335 11.0002 18.3335Z" fill="#414141"/>
</g>
</svg>
