<svg width="24" height="24" viewBox="0 1 24 24" fill="none" xmlns="http://www.w3.org/2000/svg">
<path fill-rule="evenodd" clip-rule="evenodd" d="M16.85 12H14.15V8.84995H11V6.14995L14.15 6.14994V3H16.85V6.14994H20V8.84994H16.85V12ZM7.25 11C9.53375 11 11.4762 12.4613 12.1937 14.5H21.25V18H19.5V21.5H16V18H12.1937C11.4762 20.0387 9.53375 21.5 7.25 21.5C4.35375 21.5 2 19.1462 2 16.25C2 13.3538 4.35375 11 7.25 11ZM5.5 16.25C5.5 17.2125 6.2875 18 7.25 18C8.2125 18 9 17.2125 9 16.25C9 15.2875 8.2125 14.5 7.25 14.5C6.2875 14.5 5.5 15.2875 5.5 16.25Z" fill="#414141"/>
</svg>
