<svg width="24" height="24" viewBox="0 1 24 24" fill="none" xmlns="http://www.w3.org/2000/svg">
<path fill-rule="evenodd" clip-rule="evenodd" d="M16.2464 1.04067C16.4459 0.958004 16.6757 1.0037 16.8284 1.15645L18.7868 3.11478C18.8869 3.21494 18.9432 3.35079 18.9432 3.49244C18.9432 3.63409 18.8869 3.76994 18.7868 3.8701L16.8284 5.82844C16.6757 5.98118 16.4459 6.02688 16.2464 5.94421C16.0468 5.86154 15.9167 5.6668 15.9167 5.45078V4.57589C14.8474 4.81931 14.0473 5.77749 14.0473 6.91953C14.0473 7.32578 14.1479 7.7082 14.3255 8.0358C14.4382 8.24364 14.4008 8.50084 14.2336 8.66802L13.5188 9.38281C13.4042 9.49747 13.2436 9.55383 13.0825 9.53601C12.9213 9.51819 12.777 9.42812 12.6901 9.29118C12.2565 8.60745 12 7.79409 12 6.91953C12 4.64135 13.7098 2.76413 15.9167 2.50045V1.53411C15.9167 1.31809 16.0468 1.12334 16.2464 1.04067ZM19.819 4.30304C19.9802 4.32086 20.1246 4.41094 20.2114 4.54787C20.645 5.2316 20.9015 6.04496 20.9015 6.91953C20.9015 9.1977 19.1918 11.0749 16.9849 11.3386V12.3049C16.9849 12.521 16.8547 12.7157 16.6551 12.7984C16.4556 12.881 16.2259 12.8354 16.0731 12.6826L14.1148 10.7243C14.0146 10.6241 13.9583 10.4883 13.9583 10.3466C13.9583 10.205 14.0146 10.0691 14.1148 9.96895L16.0731 8.01062C16.2259 7.85787 16.4556 7.81217 16.6551 7.89484C16.8547 7.97751 16.9849 8.17226 16.9849 8.38828V9.26316C18.0541 9.01975 18.8542 8.06157 18.8542 6.91953C18.8542 6.5181 18.751 6.1375 18.5724 5.79651C18.464 5.58958 18.5027 5.33622 18.6679 5.17103L19.3827 4.45624C19.4973 4.34158 19.6579 4.28522 19.819 4.30304ZM7.25 11C9.53375 11 11.4762 12.4613 12.1937 14.5H21.25V18H19.5V21.5H16V18H12.1937C11.4762 20.0387 9.53375 21.5 7.25 21.5C4.35375 21.5 2 19.1462 2 16.25C2 13.3538 4.35375 11 7.25 11ZM5.5 16.25C5.5 17.2125 6.2875 18 7.25 18C8.2125 18 9 17.2125 9 16.25C9 15.2875 8.2125 14.5 7.25 14.5C6.2875 14.5 5.5 15.2875 5.5 16.25Z" fill="#414141"/>
</svg>
