<svg width="120" height="80" viewBox="0 0 120 80" fill="none" xmlns="http://www.w3.org/2000/svg">
<g clip-path="url(#clip0_1384_7544)">
<mask id="mask0_1384_7544" style="mask-type:luminance" maskUnits="userSpaceOnUse" x="0" y="0" width="120" height="80">
<path d="M120 0H0V80H120V0Z" fill="white"/>
</mask>
<g mask="url(#mask0_1384_7544)">
<path d="M120 0H0V80H120V0Z" fill="white"/>
<mask id="mask1_1384_7544" style="mask-type:luminance" maskUnits="userSpaceOnUse" x="0" y="1" width="120" height="80">
<path d="M116.939 1H3.06122C1.37055 1 0 2.33713 0 3.98656V77.456C0 79.1054 1.37055 80.4425 3.06122 80.4425H116.939C118.629 80.4425 120 79.1054 120 77.456V3.98656C120 2.33713 118.629 1 116.939 1Z" fill="white"/>
</mask>
<g mask="url(#mask1_1384_7544)">
<mask id="mask2_1384_7544" style="mask-type:luminance" maskUnits="userSpaceOnUse" x="0" y="0" width="120" height="82">
<path d="M116.939 0H3.06122C1.37055 0 0 1.37055 0 3.06122V78.3674C0 80.058 1.37055 81.4286 3.06122 81.4286H116.939C118.629 81.4286 120 80.058 120 78.3674V3.06122C120 1.37055 118.629 0 116.939 0Z" fill="white"/>
</mask>
<g mask="url(#mask2_1384_7544)">
<path d="M116.939 0H3.06122C1.37055 0 0 1.37055 0 3.06122V78.3674C0 80.058 1.37055 81.4286 3.06122 81.4286H116.939C118.629 81.4286 120 80.058 120 78.3674V3.06122C120 1.37055 118.629 0 116.939 0Z" fill="white"/>
<g filter="url(#filter0_d_1384_7544)">
<mask id="mask3_1384_7544" style="mask-type:luminance" maskUnits="userSpaceOnUse" x="5" y="12" width="109" height="30">
<path d="M113.43 12.2734H6.25985C5.96317 12.2734 5.72266 12.7204 5.72266 13.2717V40.2244C5.72266 40.7757 5.96317 41.2227 6.25985 41.2227H113.43C113.727 41.2227 113.967 40.7757 113.967 40.2244V13.2717C113.967 12.7204 113.727 12.2734 113.43 12.2734Z" fill="white"/>
</mask>
<g mask="url(#mask3_1384_7544)">
<path d="M113.43 12.2737H6.25985C5.96317 12.2737 5.72266 12.7206 5.72266 13.2719V40.2246C5.72266 40.7759 5.96317 41.2229 6.25985 41.2229H113.43C113.727 41.2229 113.967 40.7759 113.967 40.2246V13.2719C113.967 12.7206 113.727 12.2737 113.43 12.2737Z" fill="white"/>
<path d="M41.2461 12.2095H5.24609V41.2228H41.2461V12.2095Z" fill="#F9F9F9"/>
<path d="M55.2461 12.2227H40.2461V41.2227H55.2461V12.2227Z" fill="#F1F1F1"/>
<path d="M55.2461 12.2227H113.91C114.096 12.2227 114.246 12.6704 114.246 13.2227V40.2226C114.246 40.775 114.096 41.2227 113.91 41.2227H55.2461V12.2227Z" fill="white"/>
</g>
<path d="M45.398 26.7186V26.2593L46.5003 25.0844C46.6486 24.9233 46.7549 24.7814 46.8194 24.6589C46.8839 24.5333 46.9161 24.406 46.9161 24.277C46.9161 23.9482 46.7179 23.7839 46.3214 23.7839C46.012 23.7839 45.7268 23.8999 45.4657 24.132L45.2578 23.6678C45.3932 23.5453 45.5624 23.447 45.7654 23.3729C45.9685 23.2988 46.1796 23.2617 46.3988 23.2617C46.763 23.2617 47.0418 23.3439 47.2352 23.5083C47.4318 23.6727 47.5301 23.9079 47.5301 24.2142C47.5301 24.4204 47.4802 24.6186 47.3803 24.8088C47.2835 24.999 47.1305 25.2037 46.921 25.4228L46.1715 26.2061H47.6607V26.7186H45.398ZM49.3606 26.7669C48.9577 26.7669 48.6499 26.6154 48.4372 26.3124C48.2245 26.0062 48.1181 25.5711 48.1181 25.0071C48.1181 24.4365 48.2245 24.003 48.4372 23.7065C48.6499 23.41 48.9577 23.2617 49.3606 23.2617C49.7667 23.2617 50.0745 23.41 50.2841 23.7065C50.4968 24.003 50.6031 24.435 50.6031 25.0022C50.6031 25.5695 50.4968 26.0062 50.2841 26.3124C50.0713 26.6154 49.7635 26.7669 49.3606 26.7669ZM49.3606 26.2593C49.5798 26.2593 49.7409 26.1594 49.8441 25.9595C49.9504 25.7565 50.0036 25.4374 50.0036 25.0022C50.0036 24.5703 49.9504 24.2577 49.8441 24.0643C49.7409 23.8677 49.5798 23.7694 49.3606 23.7694C49.1447 23.7694 48.9835 23.8677 48.8771 24.0643C48.7708 24.2577 48.7176 24.5703 48.7176 25.0022C48.7176 25.4374 48.7708 25.7565 48.8771 25.9595C48.9835 26.1594 49.1447 26.2593 49.3606 26.2593Z" fill="#414141"/>
<path d="M45.2461 31.011V29.4961H45.8091C46.0627 29.4961 46.2582 29.5612 46.3957 29.6916C46.5347 29.822 46.6042 30.0089 46.6042 30.2525C46.6042 30.4945 46.5347 30.6815 46.3957 30.8133C46.2582 30.9451 46.0627 31.011 45.8091 31.011H45.2461ZM45.5212 30.7832H45.7919C46.1414 30.7832 46.3162 30.6063 46.3162 30.2525C46.3162 29.9 46.1414 29.7238 45.7919 29.7238H45.5212V30.7832ZM46.6881 31.011L47.3735 29.4961H47.5992L48.2847 31.011H48.0053L47.8549 30.6607H47.1157L46.9674 31.011H46.6881ZM47.4831 29.7948L47.2102 30.4415H47.7604L47.4875 29.7948H47.4831ZM48.6478 31.011V29.726H48.1278V29.4961H49.4428V29.726H48.9229V31.011H48.6478ZM49.6171 31.011V29.4961H50.6249V29.7153H49.8814V30.1321H50.5776V30.3513H49.8814V30.7918H50.6249V31.011H49.6171Z" fill="#414141"/>
<path d="M110.359 33.2227H59.1331C58.6432 33.2227 58.2461 33.4465 58.2461 33.7227V38.7227C58.2461 38.9988 58.6432 39.2227 59.1331 39.2227H110.359C110.849 39.2227 111.246 38.9988 111.246 38.7227V33.7227C111.246 33.4465 110.849 33.2227 110.359 33.2227Z" fill="#3BA0A8"/>
<path d="M78.2461 37.0199V35.3156H78.9909C79.1695 35.3156 79.3081 35.3551 79.4067 35.4341C79.5048 35.5115 79.5539 35.6194 79.5539 35.758C79.5539 35.8499 79.5305 35.9289 79.4839 35.9949C79.4372 36.061 79.3729 36.1094 79.2905 36.14C79.3872 36.1674 79.462 36.2157 79.5153 36.285C79.5701 36.3527 79.5977 36.4389 79.5977 36.5437C79.5977 36.6951 79.5458 36.8128 79.4429 36.8966C79.3415 36.9788 79.1995 37.0199 79.0171 37.0199H78.2461ZM78.5437 36.0384H78.9376C79.1486 36.0384 79.2543 35.9571 79.2543 35.7943C79.2543 35.6315 79.1486 35.5501 78.9376 35.5501H78.5437V36.0384ZM78.5437 36.7854H78.9786C79.1914 36.7854 79.2976 36.7 79.2976 36.5292C79.2976 36.3583 79.1914 36.2729 78.9786 36.2729H78.5437V36.7854ZM80.3092 37.0441C80.0192 37.0441 79.8744 36.8813 79.8744 36.5557V35.8378H80.1763V36.5606C80.1763 36.6444 80.1935 36.7064 80.2273 36.7467C80.2611 36.787 80.3149 36.8072 80.3892 36.8072C80.4697 36.8072 80.5359 36.7798 80.5873 36.725C80.6388 36.6686 80.6645 36.5944 80.6645 36.5026V35.8378H80.9669V37.0199H80.6721V36.8434C80.593 36.9772 80.4721 37.0441 80.3092 37.0441ZM81.3879 37.455L81.6056 36.9716L81.1145 35.8378H81.436L81.7675 36.6645L82.1056 35.8378H82.4104L81.6994 37.455H81.3879ZM83.7468 37.0441C83.4344 37.0441 83.2781 36.8894 83.2781 36.5799V36.065H83.0505V35.8378H83.2781V35.4848H83.5801V35.8378H83.9377V36.065H83.5801V36.563C83.5801 36.6404 83.5972 36.6984 83.631 36.7371C83.6649 36.7757 83.7196 36.7951 83.7953 36.7951C83.8177 36.7951 83.8411 36.7927 83.8654 36.7878C83.8896 36.7814 83.9144 36.7749 83.9401 36.7685L83.9863 36.9909C83.9573 37.007 83.9201 37.0199 83.8749 37.0296C83.8315 37.0392 83.7887 37.0441 83.7468 37.0441ZM84.114 35.584V35.2891H84.4521V35.584H84.114ZM84.133 37.0199V35.8378H84.4354V37.0199H84.133ZM85.2955 37.0441C85.1717 37.0441 85.0636 37.0191 84.9717 36.9691C84.8798 36.9175 84.8088 36.845 84.7588 36.7516C84.7088 36.6581 84.684 36.5485 84.684 36.4228C84.684 36.2971 84.7088 36.1891 84.7588 36.0989C84.8088 36.007 84.8798 35.9369 84.9717 35.8886C85.0636 35.8386 85.1717 35.8136 85.2955 35.8136C85.3713 35.8136 85.4465 35.8257 85.5203 35.8499C85.5946 35.874 85.656 35.9079 85.7041 35.9514L85.6146 36.1617C85.5727 36.1246 85.5251 36.0964 85.4722 36.0771C85.4203 36.0578 85.3708 36.0481 85.3222 36.0481C85.2174 36.0481 85.136 36.0812 85.0779 36.1472C85.0217 36.2117 84.9936 36.3043 84.9936 36.4252C84.9936 36.5445 85.0217 36.6388 85.0779 36.708C85.136 36.7757 85.2174 36.8096 85.3222 36.8096C85.3689 36.8096 85.4189 36.7999 85.4722 36.7806C85.5251 36.7612 85.5727 36.7322 85.6146 36.6936L85.7041 36.9063C85.656 36.9482 85.5937 36.982 85.5179 37.0078C85.4441 37.032 85.3698 37.0441 85.2955 37.0441ZM85.8894 37.0199V35.3156H86.1918V36.3406H86.1966L86.6728 35.8378H87.0376L86.5009 36.4035L87.0715 37.0199H86.7019L86.1966 36.4929H86.1918V37.0199H85.8894ZM87.7444 37.0441C87.6106 37.0441 87.4953 37.0191 87.3986 36.9691C87.302 36.9192 87.2272 36.8483 87.1739 36.7564C87.1224 36.6645 87.0967 36.5557 87.0967 36.4301C87.0967 36.3076 87.1215 36.2004 87.1715 36.1085C87.2234 36.0167 87.2934 35.945 87.382 35.8934C87.472 35.8402 87.5744 35.8136 87.6892 35.8136C87.8563 35.8136 87.9887 35.8668 88.0854 35.9731C88.1835 36.0795 88.233 36.2246 88.233 36.4083V36.4977H87.3867C87.4091 36.7089 87.5301 36.8144 87.7492 36.8144C87.8154 36.8144 87.8816 36.8047 87.9478 36.7854C88.0135 36.7644 88.074 36.7322 88.1287 36.6887L88.2135 36.8918C88.1573 36.9385 88.0863 36.9756 88.0006 37.003C87.9154 37.0304 87.8301 37.0441 87.7444 37.0441ZM87.7011 36.0191C87.6125 36.0191 87.5406 36.0465 87.4858 36.1013C87.431 36.1561 87.3982 36.2302 87.3867 36.3237H87.9816C87.9749 36.2254 87.9478 36.1505 87.8992 36.0989C87.8525 36.0457 87.7863 36.0191 87.7011 36.0191ZM89.0088 37.0441C88.6964 37.0441 88.5397 36.8894 88.5397 36.5799V36.065H88.3126V35.8378H88.5397V35.4848H88.8422V35.8378H89.1998V36.065H88.8422V36.563C88.8422 36.6404 88.8588 36.6984 88.8931 36.7371C88.9269 36.7757 88.9817 36.7951 89.0574 36.7951C89.0798 36.7951 89.1031 36.7927 89.1274 36.7878C89.1517 36.7814 89.1765 36.7749 89.2022 36.7685L89.2484 36.9909C89.2193 37.007 89.1822 37.0199 89.137 37.0296C89.0936 37.0392 89.0508 37.0441 89.0088 37.0441ZM89.828 37.0441C89.728 37.0441 89.6346 37.032 89.5475 37.0078C89.4603 36.9837 89.3879 36.949 89.3298 36.9039L89.4075 36.7056C89.467 36.7459 89.5337 36.7773 89.608 36.7999C89.6823 36.8209 89.7561 36.8313 89.8304 36.8313C89.9075 36.8313 89.9647 36.8184 90.0018 36.7927C90.0409 36.7652 90.0599 36.7298 90.0599 36.6863C90.0599 36.6186 90.0099 36.5751 89.9099 36.5557L89.6684 36.5098C89.4637 36.4712 89.3613 36.3648 89.3613 36.1907C89.3613 36.1134 89.3822 36.0465 89.4241 35.9901C89.4679 35.9337 89.5275 35.8902 89.6032 35.8596C89.6789 35.8289 89.7661 35.8136 89.8642 35.8136C89.948 35.8136 90.0285 35.8257 90.1061 35.8499C90.1833 35.8725 90.2495 35.9071 90.3042 35.9538L90.2219 36.1521C90.1752 36.1134 90.119 36.0828 90.0528 36.0602C89.9885 36.0376 89.9261 36.0263 89.8666 36.0263C89.7875 36.0263 89.7289 36.0401 89.6904 36.0674C89.6532 36.0948 89.6346 36.1311 89.6346 36.1762C89.6346 36.2471 89.6804 36.2907 89.7723 36.3068L90.0142 36.3527C90.119 36.3721 90.1976 36.4075 90.2509 36.4591C90.3057 36.5106 90.3333 36.5799 90.3333 36.6669C90.3333 36.7846 90.2871 36.8773 90.1952 36.9449C90.1033 37.011 89.9809 37.0441 89.828 37.0441Z" fill="white"/>
<path d="M94.2054 36.3501L93.2044 37.3513C93.1901 37.3646 93.1715 37.3717 93.152 37.3714C93.1324 37.3711 93.1139 37.3632 93.1001 37.3494C93.0862 37.3357 93.0786 37.3171 93.0781 37.2976C93.0777 37.2782 93.0853 37.2594 93.0982 37.2452L94.0464 36.297L93.0982 35.3489C93.0853 35.3347 93.0777 35.3159 93.0781 35.2964C93.0786 35.277 93.0862 35.2584 93.1001 35.2446C93.1139 35.2309 93.1324 35.223 93.152 35.2227C93.1715 35.2223 93.1901 35.2295 93.2044 35.2428L94.2054 36.244C94.2197 36.258 94.2278 36.2771 94.2278 36.297C94.2278 36.3169 94.2197 36.336 94.2054 36.3501Z" fill="white"/>
<path d="M59.2698 18.5627C59.0915 18.5627 58.926 18.5401 58.7735 18.495C58.6209 18.4477 58.492 18.3843 58.3867 18.3048L58.5124 17.9793C58.6177 18.0545 58.7327 18.1125 58.8573 18.1533C58.9841 18.1942 59.1216 18.2146 59.2698 18.2146C59.4396 18.2146 59.5631 18.1867 59.6405 18.1308C59.7179 18.0727 59.7566 17.9986 59.7566 17.9084C59.7566 17.8332 59.7286 17.7741 59.6727 17.7311C59.619 17.6881 59.5256 17.6527 59.3923 17.6247L59.0378 17.5506C58.6338 17.4647 58.4318 17.2573 58.4318 16.9286C58.4318 16.7867 58.4694 16.6631 58.5446 16.5579C58.6198 16.4526 58.724 16.3709 58.8573 16.3129C58.9905 16.2549 59.1441 16.2259 59.3182 16.2259C59.4729 16.2259 59.618 16.2495 59.7533 16.2968C59.8887 16.3419 60.0015 16.4064 60.0917 16.4902L59.9661 16.7996C59.7877 16.6492 59.5707 16.574 59.315 16.574C59.1667 16.574 59.0507 16.6051 58.9669 16.6675C58.8831 16.7298 58.8412 16.8114 58.8412 16.9124C58.8412 16.9898 58.867 17.0521 58.9185 17.0994C58.9701 17.1445 59.0582 17.1799 59.1828 17.2057L59.5341 17.2799C59.7469 17.325 59.9048 17.3959 60.008 17.4926C60.1133 17.5893 60.1659 17.7182 60.1659 17.8794C60.1659 18.0147 60.1294 18.134 60.0563 18.2371C59.9832 18.3403 59.879 18.4209 59.7436 18.4789C59.6104 18.5347 59.4525 18.5627 59.2698 18.5627ZM61.2581 18.5627C61.0798 18.5627 60.9261 18.5294 60.7972 18.4627C60.6682 18.3962 60.5683 18.3016 60.4974 18.1791C60.4287 18.0566 60.3943 17.9116 60.3943 17.744C60.3943 17.5807 60.4276 17.4378 60.4942 17.3153C60.5629 17.1928 60.6564 17.0972 60.7746 17.0285C60.8949 16.9576 61.0314 16.9221 61.184 16.9221C61.4074 16.9221 61.5836 16.993 61.7126 17.1348C61.8436 17.2766 61.9092 17.47 61.9092 17.715V17.8342H60.7811C60.8112 18.1157 60.9723 18.2565 61.2645 18.2565C61.3527 18.2565 61.4408 18.2436 61.5288 18.2178C61.6169 18.1899 61.6975 18.1469 61.7706 18.0889L61.8834 18.3596C61.8082 18.4219 61.7137 18.4714 61.5997 18.5079C61.4859 18.5444 61.372 18.5627 61.2581 18.5627ZM61.2001 17.1961C61.0819 17.1961 60.9863 17.2326 60.9132 17.3056C60.8402 17.3787 60.7961 17.4775 60.7811 17.6022H61.574C61.5653 17.4711 61.5288 17.3712 61.4644 17.3024C61.402 17.2315 61.314 17.1961 61.2001 17.1961ZM62.8052 18.5627C62.672 18.5627 62.5473 18.5466 62.4313 18.5143C62.3152 18.4821 62.2186 18.4359 62.1412 18.3757L62.2443 18.1115C62.3239 18.1651 62.413 18.207 62.5119 18.2371C62.6107 18.2651 62.7096 18.2791 62.8084 18.2791C62.9116 18.2791 62.9879 18.2619 63.0372 18.2275C63.0888 18.1909 63.1146 18.1437 63.1146 18.0856C63.1146 17.9954 63.048 17.9374 62.9148 17.9116L62.5925 17.8504C62.3196 17.7988 62.1831 17.657 62.1831 17.4249C62.1831 17.3217 62.211 17.2326 62.2669 17.1574C62.3249 17.0822 62.4045 17.0241 62.5054 16.9833C62.6064 16.9425 62.7224 16.9221 62.8536 16.9221C62.9653 16.9221 63.0727 16.9382 63.1758 16.9704C63.279 17.0005 63.3671 17.0467 63.4402 17.1091L63.3306 17.3733C63.2683 17.3217 63.193 17.2809 63.105 17.2508C63.019 17.2208 62.9363 17.2057 62.8567 17.2057C62.7514 17.2057 62.6731 17.224 62.6215 17.2605C62.572 17.297 62.5473 17.3454 62.5473 17.4056C62.5473 17.5001 62.6086 17.5581 62.7311 17.5796L63.0534 17.6408C63.193 17.6666 63.2983 17.7139 63.3692 17.7827C63.4423 17.8514 63.4788 17.9438 63.4788 18.0599C63.4788 18.2167 63.4176 18.3403 63.2951 18.4305C63.1726 18.5187 63.0093 18.5627 62.8052 18.5627ZM64.379 18.5627C64.2458 18.5627 64.1211 18.5466 64.0051 18.5143C63.8891 18.4821 63.7924 18.4359 63.715 18.3757L63.8181 18.1115C63.8977 18.1651 63.9868 18.207 64.0857 18.2371C64.1845 18.2651 64.2834 18.2791 64.3822 18.2791C64.4854 18.2791 64.5617 18.2619 64.6111 18.2275C64.6626 18.1909 64.6884 18.1437 64.6884 18.0856C64.6884 17.9954 64.6218 17.9374 64.4886 17.9116L64.1663 17.8504C63.8934 17.7988 63.757 17.657 63.757 17.4249C63.757 17.3217 63.7849 17.2326 63.8407 17.1574C63.8987 17.0822 63.9783 17.0241 64.0792 16.9833C64.1802 16.9425 64.2963 16.9221 64.4274 16.9221C64.5391 16.9221 64.6465 16.9382 64.7497 16.9704C64.8528 17.0005 64.9409 17.0467 65.014 17.1091L64.9044 17.3733C64.8421 17.3217 64.7668 17.2809 64.6788 17.2508C64.5928 17.2208 64.5101 17.2057 64.4306 17.2057C64.3253 17.2057 64.2469 17.224 64.1953 17.2605C64.1459 17.297 64.1211 17.3454 64.1211 17.4056C64.1211 17.5001 64.1824 17.5581 64.3049 17.5796L64.6272 17.6408C64.7668 17.6666 64.8721 17.7139 64.943 17.7827C65.0161 17.8514 65.0526 17.9438 65.0526 18.0599C65.0526 18.2167 64.9914 18.3403 64.8689 18.4305C64.7465 18.5187 64.5831 18.5627 64.379 18.5627ZM65.3501 16.6159V16.2227H65.8013V16.6159H65.3501ZM65.3759 18.5305V16.9543H65.7788V18.5305H65.3759ZM66.9161 18.5627C66.7528 18.5627 66.6111 18.5294 66.4907 18.4627C66.3704 18.3962 66.2769 18.3016 66.2103 18.1791C66.1437 18.0545 66.1104 17.9084 66.1104 17.7408C66.1104 17.5732 66.1437 17.4281 66.2103 17.3056C66.2769 17.1832 66.3704 17.0886 66.4907 17.022C66.6111 16.9554 66.7528 16.9221 66.9161 16.9221C67.0795 16.9221 67.2213 16.9554 67.3416 17.022C67.462 17.0886 67.5554 17.1832 67.622 17.3056C67.6887 17.4281 67.722 17.5732 67.722 17.7408C67.722 17.9084 67.6887 18.0545 67.622 18.1791C67.5554 18.3016 67.462 18.3962 67.3416 18.4627C67.2213 18.5294 67.0795 18.5627 66.9161 18.5627ZM66.9161 18.2565C67.0365 18.2565 67.1332 18.2135 67.2062 18.1276C67.2793 18.0394 67.3159 17.9105 67.3159 17.7408C67.3159 17.5689 67.2793 17.441 67.2062 17.3572C67.1332 17.2713 67.0365 17.2283 66.9161 17.2283C66.7958 17.2283 66.6991 17.2713 66.6261 17.3572C66.553 17.441 66.5165 17.5689 66.5165 17.7408C66.5165 17.9105 66.553 18.0394 66.6261 18.1276C66.6991 18.2135 66.7958 18.2565 66.9161 18.2565ZM68.0545 18.5305V16.9543H68.4477V17.1993C68.5014 17.109 68.5734 17.0403 68.6637 16.993C68.7561 16.9457 68.8592 16.9221 68.9731 16.9221C69.3448 16.9221 69.5307 17.1381 69.5307 17.57V18.5305H69.1278V17.5893C69.1278 17.4668 69.1042 17.3776 69.0569 17.3217C69.0118 17.2659 68.9409 17.238 68.8442 17.238C68.726 17.238 68.6315 17.2755 68.5605 17.3507C68.4918 17.4238 68.4574 17.5216 68.4574 17.6441V18.5305H68.0545ZM71.034 18.5305V16.9543H71.4273V17.1993C71.481 17.109 71.553 17.0403 71.6432 16.993C71.7356 16.9457 71.8388 16.9221 71.9526 16.9221C72.3244 16.9221 72.5103 17.1381 72.5103 17.57V18.5305H72.1074V17.5893C72.1074 17.4668 72.0837 17.3776 72.0365 17.3217C71.9914 17.2659 71.9204 17.238 71.8237 17.238C71.7056 17.238 71.611 17.2755 71.5401 17.3507C71.4713 17.4238 71.437 17.5216 71.437 17.6441V18.5305H71.034ZM73.4384 18.5627C73.3245 18.5627 73.2225 18.5412 73.1322 18.4982C73.0441 18.4531 72.9743 18.3929 72.9227 18.3177C72.8733 18.2425 72.8486 18.1577 72.8486 18.0631C72.8486 17.9471 72.8787 17.8557 72.9388 17.7891C72.999 17.7204 73.0968 17.6709 73.2321 17.6408C73.3675 17.6108 73.5491 17.5957 73.7769 17.5957H73.8897V17.5281C73.8897 17.4206 73.866 17.3433 73.8188 17.296C73.7715 17.2487 73.692 17.2251 73.5802 17.2251C73.4922 17.2251 73.4019 17.239 73.3095 17.267C73.2171 17.2927 73.1236 17.3336 73.0291 17.3895L72.913 17.1155C72.9689 17.0768 73.0344 17.0435 73.1096 17.0156C73.187 16.9855 73.2676 16.9629 73.3514 16.9479C73.4373 16.9307 73.5179 16.9221 73.5931 16.9221C73.8231 16.9221 73.9939 16.9758 74.1056 17.0832C74.2173 17.1885 74.2732 17.3529 74.2732 17.5764V18.5305H73.8961V18.2791C73.8596 18.3672 73.8016 18.437 73.722 18.4886C73.6426 18.538 73.548 18.5627 73.4384 18.5627ZM73.5222 18.2855C73.6275 18.2855 73.7145 18.249 73.7833 18.1759C73.8542 18.1028 73.8897 18.0104 73.8897 17.8987V17.8278H73.7801C73.5781 17.8278 73.4373 17.8439 73.3579 17.8761C73.2805 17.9062 73.2418 17.9621 73.2418 18.0437C73.2418 18.1147 73.2665 18.1727 73.3159 18.2178C73.3654 18.2629 73.4341 18.2855 73.5222 18.2855ZM74.6886 18.5305V16.9543H75.0818V17.1961C75.1291 17.1101 75.1947 17.0435 75.2784 16.9962C75.3622 16.9468 75.4589 16.9221 75.5685 16.9221C75.8049 16.9221 75.9596 17.0252 76.0327 17.2315C76.0821 17.1348 76.153 17.0596 76.2454 17.0059C76.3378 16.95 76.4431 16.9221 76.5612 16.9221C76.9158 16.9221 77.0931 17.1381 77.0931 17.57V18.5305H76.6902V17.5861C76.6902 17.4657 76.6698 17.3776 76.629 17.3217C76.5903 17.2659 76.5237 17.238 76.4291 17.238C76.3238 17.238 76.2411 17.2755 76.1809 17.3507C76.1208 17.4238 76.0907 17.5259 76.0907 17.657V18.5305H75.6878V17.5861C75.6878 17.4657 75.6674 17.3776 75.6266 17.3217C75.5878 17.2659 75.5223 17.238 75.4299 17.238C75.3246 17.238 75.2419 17.2755 75.1817 17.3507C75.1216 17.4238 75.0915 17.5259 75.0915 17.657V18.5305H74.6886ZM78.2855 18.5627C78.1072 18.5627 77.9535 18.5294 77.8246 18.4627C77.6957 18.3962 77.5958 18.3016 77.5248 18.1791C77.4561 18.0566 77.4217 17.9116 77.4217 17.744C77.4217 17.5807 77.455 17.4378 77.5216 17.3153C77.5904 17.1928 77.6839 17.0972 77.802 17.0285C77.9224 16.9576 78.0588 16.9221 78.2114 16.9221C78.4349 16.9221 78.6111 16.993 78.74 17.1348C78.8711 17.2766 78.9366 17.47 78.9366 17.715V17.8342H77.8085C77.8385 18.1157 77.9997 18.2565 78.2919 18.2565C78.38 18.2565 78.4682 18.2436 78.5563 18.2178C78.6444 18.1899 78.7249 18.1469 78.798 18.0889L78.9108 18.3596C78.8356 18.4219 78.741 18.4714 78.6272 18.5079C78.5133 18.5444 78.3994 18.5627 78.2855 18.5627ZM78.2275 17.1961C78.1093 17.1961 78.0137 17.2326 77.9406 17.3056C77.8676 17.3787 77.8235 17.4775 77.8085 17.6022H78.6014C78.5928 17.4711 78.5563 17.3712 78.4918 17.3024C78.4295 17.2315 78.3414 17.1961 78.2275 17.1961Z" fill="#414141"/>
<path d="M58.9015 22.3511L58.2461 20.8362H58.3879L58.9681 22.1856L59.5483 20.8362H59.6857L59.0282 22.3511H58.9015ZM60.1974 22.3683C60.0369 22.3683 59.9102 22.321 59.817 22.2264C59.7254 22.1304 59.6795 21.9994 59.6795 21.8332C59.6795 21.7257 59.7003 21.6312 59.7418 21.5495C59.7834 21.4679 59.8407 21.4041 59.9137 21.3583C59.9882 21.3125 60.0735 21.2895 60.1694 21.2895C60.3084 21.2895 60.4166 21.3347 60.4939 21.4249C60.5713 21.5151 60.61 21.6391 60.61 21.7967V21.8568H59.8084C59.8128 21.9857 59.8479 22.0853 59.9137 22.1555C59.9811 22.2243 60.0742 22.2587 60.1931 22.2587C60.2575 22.2587 60.3177 22.2486 60.3736 22.2286C60.4309 22.2085 60.4867 22.1748 60.5412 22.1276L60.5928 22.2264C60.5469 22.2708 60.4882 22.3059 60.4166 22.3317C60.3449 22.3561 60.2719 22.3683 60.1974 22.3683ZM60.1716 21.3948C60.0627 21.3948 59.9775 21.4292 59.9159 21.498C59.8557 21.5653 59.8206 21.6527 59.8106 21.7601H60.4918C60.4889 21.6455 60.4603 21.556 60.4058 21.4915C60.3514 21.4271 60.2733 21.3948 60.1716 21.3948ZM60.8771 22.3511V21.3089H61.0061V21.4958C61.0404 21.4271 61.0899 21.3755 61.1543 21.3411C61.2188 21.3067 61.2904 21.2895 61.3692 21.2895C61.617 21.2895 61.741 21.4242 61.741 21.6935V22.3511H61.6099V21.7043C61.6099 21.6011 61.5891 21.5252 61.5475 21.4765C61.506 21.4278 61.4401 21.4034 61.3499 21.4034C61.2467 21.4034 61.1636 21.4357 61.1006 21.5001C61.039 21.5632 61.0082 21.6484 61.0082 21.7558V22.3511H60.8771ZM62.447 22.3683C62.1992 22.3683 62.0752 22.2336 62.0752 21.9643V21.3089H62.2063V21.9578C62.2063 22.0595 62.2271 22.1347 62.2686 22.1834C62.3102 22.2321 62.3754 22.2565 62.4642 22.2565C62.5601 22.2565 62.6382 22.2243 62.6984 22.1598C62.76 22.0954 62.7908 22.0094 62.7908 21.902V21.3089H62.9219V22.3511H62.7951V22.1662C62.7607 22.2321 62.7127 22.2823 62.6511 22.3167C62.591 22.3511 62.5229 22.3683 62.447 22.3683ZM63.7206 22.3683C63.5602 22.3683 63.4334 22.321 63.3403 22.2264C63.2486 22.1304 63.2028 21.9994 63.2028 21.8332C63.2028 21.7257 63.2236 21.6312 63.2651 21.5495C63.3066 21.4679 63.3639 21.4041 63.437 21.3583C63.5115 21.3125 63.5967 21.2895 63.6927 21.2895C63.8316 21.2895 63.9398 21.3347 64.0171 21.4249C64.0945 21.5151 64.1332 21.6391 64.1332 21.7967V21.8568H63.3317C63.336 21.9857 63.3711 22.0853 63.437 22.1555C63.5043 22.2243 63.5974 22.2587 63.7163 22.2587C63.7808 22.2587 63.841 22.2486 63.8968 22.2286C63.9541 22.2085 64.01 22.1748 64.0644 22.1276L64.116 22.2264C64.0701 22.2708 64.0114 22.3059 63.9398 22.3317C63.8682 22.3561 63.7951 22.3683 63.7206 22.3683ZM63.6949 21.3948C63.586 21.3948 63.5007 21.4292 63.4392 21.498C63.379 21.5653 63.3439 21.6527 63.3339 21.7601H64.015C64.0121 21.6455 63.9835 21.556 63.9291 21.4915C63.8746 21.4271 63.7965 21.3948 63.6949 21.3948ZM65.419 22.3511V21.3089H65.548V21.4958C65.5824 21.4271 65.6318 21.3755 65.6963 21.3411C65.7607 21.3067 65.8323 21.2895 65.9111 21.2895C66.159 21.2895 66.2829 21.4242 66.2829 21.6935V22.3511H66.1518V21.7043C66.1518 21.6011 66.131 21.5252 66.0895 21.4765C66.0479 21.4278 65.982 21.4034 65.8918 21.4034C65.7887 21.4034 65.7056 21.4357 65.6426 21.5001C65.5809 21.5632 65.5501 21.6484 65.5501 21.7558V22.3511H65.419ZM66.9438 22.3683C66.8736 22.3683 66.8106 22.3546 66.7547 22.3274C66.7003 22.3002 66.6565 22.263 66.6236 22.2157C66.5921 22.1684 66.5763 22.1154 66.5763 22.0566C66.5763 21.9793 66.5957 21.9192 66.6343 21.8761C66.673 21.8318 66.7382 21.8002 66.8299 21.7816C66.9216 21.763 67.0476 21.7537 67.2081 21.7537H67.2747V21.6763C67.2747 21.5803 67.2553 21.5109 67.2167 21.4679C67.178 21.4235 67.1164 21.4013 67.0319 21.4013C66.9689 21.4013 66.9079 21.4106 66.8492 21.4292C66.7919 21.4479 66.7325 21.4772 66.6709 21.5173L66.6193 21.4163C66.6737 21.3777 66.7382 21.3468 66.8127 21.3239C66.8872 21.301 66.9595 21.2895 67.0297 21.2895C67.1558 21.2895 67.2489 21.3218 67.309 21.3862C67.3707 21.4507 67.4015 21.5495 67.4015 21.6828V22.3511H67.2768V22.1641C67.2482 22.2286 67.2045 22.2787 67.1457 22.3145C67.0884 22.3503 67.0211 22.3683 66.9438 22.3683ZM66.961 22.263C67.0226 22.263 67.0763 22.2486 67.1221 22.2199C67.1694 22.1899 67.2066 22.1491 67.2338 22.0975C67.2611 22.0459 67.2747 21.9872 67.2747 21.9213V21.8504H67.2102C67.0813 21.8504 66.9803 21.8561 66.9072 21.8676C66.8356 21.8791 66.7855 21.8991 66.7568 21.9277C66.7282 21.9564 66.7138 21.9958 66.7138 22.0459C66.7138 22.1104 66.7361 22.1627 66.7805 22.2028C66.8249 22.2429 66.885 22.263 66.961 22.263ZM67.7484 22.3511V21.3089H67.8774V21.4915C67.9418 21.3569 68.0514 21.2895 68.2061 21.2895C68.3723 21.2895 68.4776 21.3619 68.522 21.5066C68.5521 21.4392 68.5979 21.3862 68.6595 21.3476C68.7211 21.3089 68.7927 21.2895 68.8744 21.2895C69.105 21.2895 69.2203 21.4242 69.2203 21.6935V22.3511H69.0893V21.7043C69.0893 21.6011 69.0706 21.5252 69.0334 21.4765C68.9976 21.4278 68.9367 21.4034 68.8507 21.4034C68.759 21.4034 68.686 21.4357 68.6315 21.5001C68.5771 21.5632 68.5499 21.6491 68.5499 21.758V22.3511H68.4188V21.7043C68.4188 21.6011 68.4002 21.5252 68.3629 21.4765C68.3271 21.4278 68.267 21.4034 68.1824 21.4034C68.0893 21.4034 68.0156 21.4357 67.9611 21.5001C67.9067 21.5632 67.8795 21.6491 67.8795 21.758V22.3511H67.7484ZM70.0169 22.3683C69.8564 22.3683 69.7296 22.321 69.6365 22.2264C69.5448 22.1304 69.499 21.9994 69.499 21.8332C69.499 21.7257 69.5197 21.6312 69.5613 21.5495C69.6029 21.4679 69.6601 21.4041 69.7332 21.3583C69.8077 21.3125 69.8929 21.2895 69.9889 21.2895C70.1279 21.2895 70.236 21.3347 70.3134 21.4249C70.3907 21.5151 70.4294 21.6391 70.4294 21.7967V21.8568H69.6279C69.6322 21.9857 69.6673 22.0853 69.7332 22.1555C69.8005 22.2243 69.8936 22.2587 70.0125 22.2587C70.077 22.2587 70.1372 22.2486 70.193 22.2286C70.2503 22.2085 70.3062 22.1748 70.3607 22.1276L70.4122 22.2264C70.3664 22.2708 70.3077 22.3059 70.236 22.3317C70.1644 22.3561 70.0913 22.3683 70.0169 22.3683ZM69.991 21.3948C69.8822 21.3948 69.7969 21.4292 69.7353 21.498C69.6752 21.5653 69.6401 21.6527 69.63 21.7601H70.3112C70.3084 21.6455 70.2797 21.556 70.2253 21.4915C70.1708 21.4271 70.0928 21.3948 69.991 21.3948Z" fill="#414141"/>
<path d="M58.2461 30.567V29.2415H59.1129V29.4333H58.4866V29.8074H59.0733V29.9992H58.4866V30.567H58.2461ZM59.261 30.567V29.6476H59.4901V29.8093C59.5353 29.7002 59.632 29.64 59.7796 29.6288L59.8511 29.6231L59.8663 29.8224L59.731 29.8356C59.5767 29.8506 59.4996 29.9296 59.4996 30.0725V30.567H59.261ZM60.4016 30.5858C60.3063 30.5858 60.2235 30.5663 60.1535 30.5275C60.0835 30.4887 60.0287 30.4335 59.9901 30.362C59.9511 30.2894 59.9315 30.2041 59.9315 30.1063C59.9315 30.0086 59.9511 29.924 59.9901 29.8525C60.0287 29.7811 60.0835 29.7259 60.1535 29.687C60.2235 29.6482 60.3063 29.6288 60.4016 29.6288C60.4968 29.6288 60.5797 29.6482 60.6497 29.687C60.7202 29.7259 60.7745 29.7811 60.8135 29.8525C60.8521 29.924 60.8717 30.0086 60.8717 30.1063C60.8717 30.2041 60.8521 30.2894 60.8135 30.362C60.7745 30.4335 60.7202 30.4887 60.6497 30.5275C60.5797 30.5663 60.4968 30.5858 60.4016 30.5858ZM60.4016 30.4072C60.4721 30.4072 60.5283 30.3821 60.5711 30.332C60.6135 30.2806 60.635 30.2053 60.635 30.1063C60.635 30.0061 60.6135 29.9315 60.5711 29.8826C60.5283 29.8324 60.4721 29.8074 60.4016 29.8074C60.3316 29.8074 60.2749 29.8324 60.2325 29.8826C60.1897 29.9315 60.1687 30.0061 60.1687 30.1063C60.1687 30.2053 60.1897 30.2806 60.2325 30.332C60.2749 30.3821 60.3316 30.4072 60.4016 30.4072ZM61.0693 30.567V29.6476H61.2988V29.7886C61.3265 29.7385 61.3646 29.6996 61.4136 29.672C61.4627 29.6432 61.5189 29.6288 61.5827 29.6288C61.7208 29.6288 61.8108 29.689 61.8537 29.8093C61.8823 29.7529 61.9237 29.709 61.9775 29.6777C62.0313 29.6451 62.0928 29.6288 62.1618 29.6288C62.3685 29.6288 62.4723 29.7548 62.4723 30.0067V30.567H62.2371V30.0161C62.2371 29.9459 62.2252 29.8945 62.2013 29.8619C62.179 29.8294 62.1399 29.8131 62.0847 29.8131C62.0232 29.8131 61.9751 29.835 61.9399 29.8788C61.9051 29.9215 61.8875 29.981 61.8875 30.0575V30.567H61.6522V30.0161C61.6522 29.9459 61.6403 29.8945 61.6165 29.8619C61.5941 29.8294 61.556 29.8131 61.5017 29.8131C61.4403 29.8131 61.3922 29.835 61.357 29.8788C61.3222 29.9215 61.3046 29.981 61.3046 30.0575V30.567H61.0693ZM63.712 30.5858C63.5477 30.5858 63.4205 30.5282 63.3305 30.4128C63.2415 30.2975 63.1967 30.1358 63.1967 29.9277C63.1967 29.7034 63.2472 29.5297 63.3472 29.4069C63.4486 29.2841 63.5887 29.2227 63.7668 29.2227C63.8368 29.2227 63.9063 29.2358 63.9754 29.2621C64.0444 29.2872 64.103 29.3236 64.1521 29.3712L64.073 29.5517C64.0268 29.5091 63.9773 29.4777 63.9244 29.4577C63.872 29.4364 63.8182 29.4257 63.763 29.4257C63.6539 29.4257 63.5706 29.464 63.5129 29.5404C63.4553 29.6169 63.4263 29.731 63.4263 29.8826V29.9371C63.4524 29.8682 63.4953 29.8143 63.5539 29.7754C63.6129 29.7366 63.6806 29.7171 63.7572 29.7171C63.8334 29.7171 63.9016 29.7353 63.9601 29.7717C64.0192 29.808 64.0654 29.8582 64.0992 29.9221C64.133 29.986 64.1501 30.0593 64.1501 30.1421C64.1501 30.2273 64.1311 30.3038 64.094 30.3715C64.0573 30.4379 64.0058 30.4905 63.9396 30.5294C63.8744 30.567 63.7987 30.5858 63.712 30.5858ZM63.6987 30.394C63.7668 30.394 63.8211 30.3721 63.8625 30.3282C63.9049 30.2831 63.9263 30.2242 63.9263 30.1515C63.9263 30.0788 63.9049 30.0198 63.8625 29.9747C63.8211 29.9296 63.7668 29.907 63.6987 29.907C63.631 29.907 63.5763 29.9296 63.5334 29.9747C63.492 30.0198 63.4715 30.0788 63.4715 30.1515C63.4715 30.2242 63.492 30.2831 63.5334 30.3282C63.5763 30.3721 63.631 30.394 63.6987 30.394ZM64.4426 30.817L64.3468 30.7418C64.3783 30.7105 64.4011 30.6805 64.4164 30.6516C64.4326 30.624 64.444 30.5958 64.4502 30.567H64.3278V30.3056H64.5912V30.4786C64.5912 30.5425 64.5802 30.6008 64.5573 30.6535C64.5359 30.7074 64.4978 30.7619 64.4426 30.817ZM65.257 30.5858C65.1003 30.5858 64.9807 30.5269 64.8979 30.409C64.815 30.29 64.7736 30.1208 64.7736 29.9014C64.7736 29.6796 64.815 29.511 64.8979 29.3956C64.9807 29.2803 65.1003 29.2227 65.257 29.2227C65.4151 29.2227 65.5346 29.2803 65.616 29.3956C65.6989 29.511 65.7403 29.6789 65.7403 29.8995C65.7403 30.1201 65.6989 30.29 65.616 30.409C65.5332 30.5269 65.4136 30.5858 65.257 30.5858ZM65.257 30.3884C65.3422 30.3884 65.4046 30.3495 65.4451 30.2718C65.4865 30.1928 65.507 30.0688 65.507 29.8995C65.507 29.7316 65.4865 29.61 65.4451 29.5348C65.4046 29.4583 65.3422 29.4201 65.257 29.4201C65.1731 29.4201 65.1103 29.4583 65.0688 29.5348C65.0274 29.61 65.0069 29.7316 65.0069 29.8995C65.0069 30.0688 65.0274 30.1928 65.0688 30.2718C65.1103 30.3495 65.1731 30.3884 65.257 30.3884ZM66.3842 30.5858C66.2276 30.5858 66.108 30.5269 66.0251 30.409C65.9423 30.29 65.9013 30.1208 65.9013 29.9014C65.9013 29.6796 65.9423 29.511 66.0251 29.3956C66.108 29.2803 66.2276 29.2227 66.3842 29.2227C66.5424 29.2227 66.6619 29.2803 66.7433 29.3956C66.8262 29.511 66.8676 29.6789 66.8676 29.8995C66.8676 30.1201 66.8262 30.29 66.7433 30.409C66.6605 30.5269 66.5409 30.5858 66.3842 30.5858ZM66.3842 30.3884C66.4695 30.3884 66.5323 30.3495 66.5723 30.2718C66.6138 30.1928 66.6343 30.0688 66.6343 29.8995C66.6343 29.7316 66.6138 29.61 66.5723 29.5348C66.5323 29.4583 66.4695 29.4201 66.3842 29.4201C66.3004 29.4201 66.2375 29.4583 66.1961 29.5348C66.1547 29.61 66.1342 29.7316 66.1342 29.8995C66.1342 30.0688 66.1547 30.1928 66.1961 30.2718C66.2375 30.3495 66.3004 30.3884 66.3842 30.3884ZM68.1859 30.5858C68.0568 30.5858 67.9463 30.547 67.8549 30.4692C67.7644 30.3915 67.7039 30.2793 67.6725 30.1327H67.4901V29.9672H67.652C67.6492 29.9221 67.6492 29.8795 67.652 29.8394H67.4901V29.6739H67.6725C67.7049 29.5285 67.7663 29.417 67.8568 29.3392C67.9468 29.2615 68.0568 29.2227 68.1859 29.2227C68.2583 29.2227 68.3273 29.2358 68.3926 29.2621C68.4578 29.2885 68.5116 29.3273 68.5545 29.3787L68.4754 29.5461C68.4354 29.5022 68.3926 29.4715 68.3473 29.4539C68.3026 29.4364 68.254 29.4276 68.2026 29.4276C68.1349 29.4276 68.0759 29.4476 68.0259 29.4878C67.9773 29.5266 67.9416 29.5887 67.9187 29.6739H68.2006V29.8394H67.8906C67.8892 29.882 67.8901 29.9246 67.8925 29.9672H68.2006V30.1327H67.9187C67.9416 30.2192 67.9773 30.2825 68.0259 30.3226C68.0759 30.3614 68.1349 30.3808 68.2026 30.3808C68.254 30.3808 68.3026 30.3721 68.3473 30.3545C68.3926 30.3357 68.4354 30.305 68.4754 30.2624L68.5545 30.4279C68.5116 30.4805 68.4578 30.52 68.3926 30.5463C68.3273 30.5726 68.2583 30.5858 68.1859 30.5858Z" fill="#414141"/>
<path d="M26.3711 24.4609H25.2883L24.7559 23.6625C24.7273 23.6197 24.6887 23.5847 24.6434 23.5604C24.5981 23.5362 24.5475 23.5235 24.4961 23.5234H21.9961C21.9447 23.5235 21.8941 23.5362 21.8488 23.5604C21.8035 23.5847 21.7649 23.6197 21.7363 23.6625L21.2035 24.4609H20.1211C19.8725 24.4609 19.634 24.5597 19.4582 24.7355C19.2824 24.9113 19.1836 25.1498 19.1836 25.3984V29.7734C19.1836 30.0221 19.2824 30.2605 19.4582 30.4364C19.634 30.6122 19.8725 30.7109 20.1211 30.7109H26.3711C26.6197 30.7109 26.8582 30.6122 27.034 30.4364C27.2098 30.2605 27.3086 30.0221 27.3086 29.7734V25.3984C27.3086 25.1498 27.2098 24.9113 27.034 24.7355C26.8582 24.5597 26.6197 24.4609 26.3711 24.4609ZM24.6523 27.4297C24.6523 27.7078 24.5699 27.9797 24.4153 28.211C24.2608 28.4422 24.0412 28.6225 23.7842 28.7289C23.5273 28.8353 23.2445 28.8632 22.9717 28.8089C22.699 28.7547 22.4484 28.6207 22.2517 28.4241C22.0551 28.2274 21.9211 27.9768 21.8669 27.704C21.8126 27.4312 21.8405 27.1485 21.9469 26.8915C22.0533 26.6346 22.2336 26.415 22.4648 26.2604C22.6961 26.1059 22.968 26.0234 23.2461 26.0234C23.6191 26.0234 23.9767 26.1716 24.2405 26.4353C24.5042 26.699 24.6523 27.0567 24.6523 27.4297Z" fill="#3BA0A8"/>
</g>
<g filter="url(#filter1_d_1384_7544)">
<mask id="mask4_1384_7544" style="mask-type:luminance" maskUnits="userSpaceOnUse" x="5" y="44" width="109" height="30">
<path d="M113.43 44.2227H6.25985C5.96317 44.2227 5.72266 44.6696 5.72266 45.2209V72.1736C5.72266 72.7249 5.96317 73.1719 6.25985 73.1719H113.43C113.727 73.1719 113.967 72.7249 113.967 72.1736V45.2209C113.967 44.6696 113.727 44.2227 113.43 44.2227Z" fill="white"/>
</mask>
<g mask="url(#mask4_1384_7544)">
<path d="M113.43 44.2227H6.25985C5.96317 44.2227 5.72266 44.6696 5.72266 45.2209V72.1736C5.72266 72.725 5.96317 73.1719 6.25985 73.1719H113.43C113.727 73.1719 113.967 72.725 113.967 72.1736V45.2209C113.967 44.6696 113.727 44.2227 113.43 44.2227Z" fill="white"/>
<path d="M41.2461 44.1584H5.24609V73.1717H41.2461V44.1584Z" fill="#F9F9F9"/>
<path d="M55.2461 44.1716H40.2461V73.1716H55.2461V44.1716Z" fill="#F1F1F1"/>
<path d="M55.2461 44.1716H113.91C114.096 44.1716 114.246 44.6193 114.246 45.1716V72.1716C114.246 72.7239 114.096 73.1716 113.91 73.1716H55.2461V44.1716Z" fill="white"/>
</g>
<path d="M110.359 65.1719H59.1331C58.6432 65.1719 58.2461 65.3957 58.2461 65.6719V70.6719C58.2461 70.948 58.6432 71.1719 59.1331 71.1719H110.359C110.849 71.1719 111.246 70.948 111.246 70.6719V65.6719C111.246 65.3957 110.849 65.1719 110.359 65.1719Z" fill="#3BA0A8"/>
<path d="M26.3711 56.4609H25.2883L24.7559 55.6625C24.7273 55.6197 24.6887 55.5847 24.6434 55.5604C24.5981 55.5362 24.5475 55.5235 24.4961 55.5234H21.9961C21.9447 55.5235 21.8941 55.5362 21.8488 55.5604C21.8035 55.5847 21.7649 55.6197 21.7363 55.6625L21.2035 56.4609H20.1211C19.8725 56.4609 19.634 56.5597 19.4582 56.7355C19.2824 56.9113 19.1836 57.1498 19.1836 57.3984V61.7734C19.1836 62.0221 19.2824 62.2605 19.4582 62.4364C19.634 62.6122 19.8725 62.7109 20.1211 62.7109H26.3711C26.6197 62.7109 26.8582 62.6122 27.034 62.4364C27.2098 62.2605 27.3086 62.0221 27.3086 61.7734V57.3984C27.3086 57.1498 27.2098 56.9113 27.034 56.7355C26.8582 56.5597 26.6197 56.4609 26.3711 56.4609ZM24.6523 59.4297C24.6523 59.7078 24.5699 59.9797 24.4153 60.211C24.2608 60.4422 24.0412 60.6225 23.7842 60.7289C23.5273 60.8353 23.2445 60.8632 22.9717 60.8089C22.699 60.7547 22.4484 60.6207 22.2517 60.4241C22.0551 60.2274 21.9211 59.9768 21.8669 59.704C21.8126 59.4312 21.8405 59.1485 21.9469 58.8915C22.0533 58.6346 22.2336 58.415 22.4648 58.2604C22.6961 58.1059 22.968 58.0234 23.2461 58.0234C23.6191 58.0234 23.9767 58.1716 24.2405 58.4353C24.5042 58.699 24.6523 59.0567 24.6523 59.4297Z" fill="#3BA0A8"/>
</g>
<g filter="url(#filter2_d_1384_7544)">
<mask id="mask5_1384_7544" style="mask-type:luminance" maskUnits="userSpaceOnUse" x="5" y="76" width="109" height="30">
<path d="M113.43 76.1719H6.25985C5.96317 76.1719 5.72266 76.6188 5.72266 77.1701V104.123C5.72266 104.674 5.96317 105.121 6.25985 105.121H113.43C113.727 105.121 113.967 104.674 113.967 104.123V77.1701C113.967 76.6188 113.727 76.1719 113.43 76.1719Z" fill="white"/>
</mask>
<g mask="url(#mask5_1384_7544)">
<path d="M113.43 76.1719H6.25985C5.96317 76.1719 5.72266 76.6188 5.72266 77.1701V104.123C5.72266 104.674 5.96317 105.121 6.25985 105.121H113.43C113.727 105.121 113.967 104.674 113.967 104.123V77.1701C113.967 76.6188 113.727 76.1719 113.43 76.1719Z" fill="white"/>
<path d="M41.2461 76.1077H5.24609V105.121H41.2461V76.1077Z" fill="#F9F9F9"/>
<path d="M55.2461 76.1208H40.2461V105.121H55.2461V76.1208Z" fill="#F1F1F1"/>
<path d="M55.2461 76.1208H113.91C114.096 76.1208 114.246 76.5685 114.246 77.1208V104.121C114.246 104.673 114.096 105.121 113.91 105.121H55.2461V76.1208Z" fill="white"/>
</g>
</g>
</g>
</g>
</g>
</g>
<defs>
<filter id="filter0_d_1384_7544" x="3.72266" y="11.2222" width="112.244" height="32.9492" filterUnits="userSpaceOnUse" color-interpolation-filters="sRGB">
<feFlood flood-opacity="0" result="BackgroundImageFix"/>
<feColorMatrix in="SourceAlpha" type="matrix" values="0 0 0 0 0 0 0 0 0 0 0 0 0 0 0 0 0 0 127 0" result="hardAlpha"/>
<feOffset dy="0.948733"/>
<feGaussianBlur stdDeviation="1"/>
<feComposite in2="hardAlpha" operator="out"/>
<feColorMatrix type="matrix" values="0 0 0 0 0 0 0 0 0 0 0 0 0 0 0 0 0 0 0.15 0"/>
<feBlend mode="normal" in2="BackgroundImageFix" result="effect1_dropShadow_1384_7544"/>
<feBlend mode="normal" in="SourceGraphic" in2="effect1_dropShadow_1384_7544" result="shape"/>
</filter>
<filter id="filter1_d_1384_7544" x="3.72266" y="43.1714" width="112.244" height="32.9492" filterUnits="userSpaceOnUse" color-interpolation-filters="sRGB">
<feFlood flood-opacity="0" result="BackgroundImageFix"/>
<feColorMatrix in="SourceAlpha" type="matrix" values="0 0 0 0 0 0 0 0 0 0 0 0 0 0 0 0 0 0 127 0" result="hardAlpha"/>
<feOffset dy="0.948733"/>
<feGaussianBlur stdDeviation="1"/>
<feComposite in2="hardAlpha" operator="out"/>
<feColorMatrix type="matrix" values="0 0 0 0 0 0 0 0 0 0 0 0 0 0 0 0 0 0 0.15 0"/>
<feBlend mode="normal" in2="BackgroundImageFix" result="effect1_dropShadow_1384_7544"/>
<feBlend mode="normal" in="SourceGraphic" in2="effect1_dropShadow_1384_7544" result="shape"/>
</filter>
<filter id="filter2_d_1384_7544" x="3.72266" y="75.1206" width="112.244" height="32.9492" filterUnits="userSpaceOnUse" color-interpolation-filters="sRGB">
<feFlood flood-opacity="0" result="BackgroundImageFix"/>
<feColorMatrix in="SourceAlpha" type="matrix" values="0 0 0 0 0 0 0 0 0 0 0 0 0 0 0 0 0 0 127 0" result="hardAlpha"/>
<feOffset dy="0.948733"/>
<feGaussianBlur stdDeviation="1"/>
<feComposite in2="hardAlpha" operator="out"/>
<feColorMatrix type="matrix" values="0 0 0 0 0 0 0 0 0 0 0 0 0 0 0 0 0 0 0.15 0"/>
<feBlend mode="normal" in2="BackgroundImageFix" result="effect1_dropShadow_1384_7544"/>
<feBlend mode="normal" in="SourceGraphic" in2="effect1_dropShadow_1384_7544" result="shape"/>
</filter>
<clipPath id="clip0_1384_7544">
<rect width="120" height="80" fill="white"/>
</clipPath>
</defs>
</svg>
