<svg width="120" height="80" viewBox="0 0 120 80" fill="none" xmlns="http://www.w3.org/2000/svg">
<g clip-path="url(#clip0_1384_7649)">
<mask id="mask0_1384_7649" style="mask-type:luminance" maskUnits="userSpaceOnUse" x="0" y="0" width="120" height="80">
<path d="M120 0H0V80H120V0Z" fill="white"/>
</mask>
<g mask="url(#mask0_1384_7649)">
<path d="M120 0H0V80H120V0Z" fill="white"/>
<mask id="mask1_1384_7649" style="mask-type:luminance" maskUnits="userSpaceOnUse" x="0" y="1" width="120" height="80">
<path d="M116.939 1H3.06122C1.37055 1 0 2.33713 0 3.98656V77.456C0 79.1054 1.37055 80.4425 3.06122 80.4425H116.939C118.629 80.4425 120 79.1054 120 77.456V3.98656C120 2.33713 118.629 1 116.939 1Z" fill="white"/>
</mask>
<g mask="url(#mask1_1384_7649)">
<path d="M116.939 0H3.06122C1.37055 0 0 1.33713 0 2.98656V76.456C0 78.1054 1.37055 79.4425 3.06122 79.4425H116.939C118.629 79.4425 120 78.1054 120 76.456V2.98656C120 1.33713 118.629 0 116.939 0Z" fill="white"/>
<g filter="url(#filter0_d_1384_7649)">
<mask id="mask2_1384_7649" style="mask-type:luminance" maskUnits="userSpaceOnUse" x="5" y="12" width="109" height="16">
<path d="M113.428 12.0732H6.2579C5.96121 12.0732 5.7207 12.3078 5.7207 12.5973V26.7478C5.7207 27.0372 5.96121 27.2719 6.2579 27.2719H113.428C113.725 27.2719 113.965 27.0372 113.965 26.7478V12.5973C113.965 12.3078 113.725 12.0732 113.428 12.0732Z" fill="white"/>
</mask>
<g mask="url(#mask2_1384_7649)">
<path d="M113.428 12.0732H6.2579C5.96121 12.0732 5.7207 12.3078 5.7207 12.5973V26.7478C5.7207 27.0372 5.96121 27.2719 6.2579 27.2719H113.428C113.725 27.2719 113.965 27.0372 113.965 26.7478V12.5973C113.965 12.3078 113.725 12.0732 113.428 12.0732Z" fill="white"/>
<path d="M19.6878 12.0732H5.7207V27.2719H19.6878V12.0732Z" fill="#F1F1F1"/>
<path d="M10.1949 19.4357V18.9876L11.2972 17.8414C11.4455 17.6842 11.5518 17.5458 11.6163 17.4263C11.6807 17.3037 11.713 17.1795 11.713 17.0537C11.713 16.7329 11.5148 16.5726 11.1183 16.5726C10.8089 16.5726 10.5237 16.6858 10.2626 16.9122L10.0547 16.4594C10.19 16.3399 10.3592 16.244 10.5623 16.1717C10.7654 16.0993 10.9765 16.0632 11.1957 16.0632C11.5599 16.0632 11.8387 16.1434 12.0321 16.3037C12.2287 16.4641 12.327 16.6936 12.327 16.9924C12.327 17.1936 12.2771 17.387 12.1771 17.5725C12.0804 17.7581 11.9273 17.9578 11.7178 18.1716L10.9684 18.9357H12.4576V19.4357H10.1949ZM14.1575 19.4829C13.7546 19.4829 13.4468 19.3351 13.234 19.0395C13.0213 18.7408 12.9149 18.3162 12.9149 17.766C12.9149 17.2093 13.0213 16.7864 13.234 16.4971C13.4468 16.2078 13.7546 16.0632 14.1575 16.0632C14.5636 16.0632 14.8714 16.2078 15.0809 16.4971C15.2937 16.7864 15.4 17.2078 15.4 17.7612C15.4 18.3146 15.2937 18.7408 15.0809 19.0395C14.8682 19.3351 14.5604 19.4829 14.1575 19.4829ZM14.1575 18.9876C14.3766 18.9876 14.5378 18.8901 14.641 18.6951C14.7473 18.4971 14.8005 18.1857 14.8005 17.7612C14.8005 17.3398 14.7473 17.0348 14.641 16.8462C14.5378 16.6543 14.3766 16.5584 14.1575 16.5584C13.9415 16.5584 13.7804 16.6543 13.674 16.8462C13.5676 17.0348 13.5144 17.3398 13.5144 17.7612C13.5144 18.1857 13.5676 18.4971 13.674 18.6951C13.7804 18.8901 13.9415 18.9876 14.1575 18.9876Z" fill="#414141"/>
<path d="M10.043 23.6234V22.1455H10.606C10.8595 22.1455 11.055 22.209 11.1926 22.3363C11.3316 22.4634 11.401 22.6458 11.401 22.8834C11.401 23.1196 11.3316 23.302 11.1926 23.4306C11.055 23.5591 10.8595 23.6234 10.606 23.6234H10.043ZM10.318 23.4012H10.5888C10.9383 23.4012 11.1131 23.2286 11.1131 22.8834C11.1131 22.5396 10.9383 22.3677 10.5888 22.3677H10.318V23.4012ZM11.485 23.6234L12.1704 22.1455H12.3961L13.0815 23.6234H12.8022L12.6518 23.2817H11.9126L11.7643 23.6234H11.485ZM12.28 22.4369L12.0071 23.0679H12.5572L12.2843 22.4369H12.28ZM13.4447 23.6234V22.3698H12.9247V22.1455H14.2397V22.3698H13.7198V23.6234H13.4447ZM14.414 23.6234V22.1455H15.4218V22.3593H14.6783V22.766H15.3745V22.9798H14.6783V23.4096H15.4218V23.6234H14.414Z" fill="#414141"/>
<path d="M20 12H113.741C114.037 12 114.278 12.2346 114.278 12.5241V26.6746C114.278 26.9641 114.037 27.1987 113.741 27.1987H20V12Z" fill="white"/>
<path d="M22.8714 19.0015C22.6931 19.0015 22.5276 18.9795 22.375 18.9354C22.2225 18.8893 22.0935 18.8275 21.9883 18.7499L22.1139 18.4323C22.2192 18.5057 22.3342 18.5623 22.4588 18.6021C22.5856 18.642 22.7231 18.6619 22.8714 18.6619C23.0411 18.6619 23.1647 18.6346 23.242 18.5801C23.3194 18.5235 23.3581 18.4512 23.3581 18.3632C23.3581 18.2898 23.3301 18.2321 23.2743 18.1902C23.2206 18.1483 23.1271 18.1137 22.9939 18.0864L22.6393 18.0141C22.2353 17.9303 22.0334 17.728 22.0334 17.4072C22.0334 17.2688 22.071 17.1483 22.1462 17.0456C22.2214 16.9429 22.3256 16.8632 22.4588 16.8066C22.592 16.75 22.7457 16.7217 22.9198 16.7217C23.0744 16.7217 23.2195 16.7447 23.3549 16.7909C23.4903 16.8349 23.603 16.8978 23.6933 16.9795L23.5676 17.2814C23.3892 17.1347 23.1722 17.0613 22.9165 17.0613C22.7683 17.0613 22.6522 17.0917 22.5684 17.1525C22.4846 17.2133 22.4427 17.293 22.4427 17.3915C22.4427 17.4669 22.4685 17.5277 22.52 17.5739C22.5716 17.6179 22.6597 17.6524 22.7844 17.6776L23.1357 17.75C23.3484 17.794 23.5063 17.8632 23.6095 17.9575C23.7148 18.0518 23.7674 18.1776 23.7674 18.3349C23.7674 18.4669 23.7309 18.5832 23.6578 18.6839C23.5848 18.7845 23.4806 18.8631 23.3452 18.9197C23.212 18.9742 23.0541 19.0015 22.8714 19.0015ZM24.8596 19.0015C24.6813 19.0015 24.5277 18.969 24.3987 18.904C24.2698 18.839 24.1699 18.7468 24.0989 18.6273C24.0302 18.5078 23.9958 18.3663 23.9958 18.2028C23.9958 18.0434 24.0291 17.904 24.0958 17.7845C24.1645 17.665 24.258 17.5717 24.3762 17.5047C24.4965 17.4355 24.6329 17.4009 24.7855 17.4009C25.009 17.4009 25.1852 17.4701 25.3141 17.6084C25.4452 17.7468 25.5107 17.9355 25.5107 18.1745V18.2908H24.3826C24.4127 18.5655 24.5739 18.7028 24.8661 18.7028C24.9542 18.7028 25.0423 18.6902 25.1304 18.665C25.2185 18.6377 25.299 18.5958 25.3721 18.5392L25.4849 18.8034C25.4097 18.8642 25.3152 18.9124 25.2013 18.948C25.0874 18.9837 24.9735 19.0015 24.8596 19.0015ZM24.8016 17.6682C24.6834 17.6682 24.5878 17.7038 24.5148 17.7751C24.4417 17.8464 24.3977 17.9428 24.3826 18.0644H25.1755C25.1669 17.9365 25.1304 17.839 25.0659 17.772C25.0036 17.7028 24.9155 17.6682 24.8016 17.6682ZM26.4067 19.0015C26.2735 19.0015 26.1489 18.9858 26.0329 18.9543C25.9168 18.9229 25.8201 18.8778 25.7428 18.8191L25.8459 18.5613C25.9254 18.6136 26.0146 18.6545 26.1134 18.6839C26.2123 18.7112 26.3111 18.7248 26.4099 18.7248C26.5131 18.7248 26.5894 18.708 26.6388 18.6745C26.6904 18.6388 26.7162 18.5927 26.7162 18.5361C26.7162 18.448 26.6495 18.3914 26.5163 18.3663L26.194 18.3066C25.9211 18.2562 25.7847 18.1179 25.7847 17.8915C25.7847 17.7908 25.8126 17.7038 25.8685 17.6305C25.9265 17.5571 26.006 17.5005 26.107 17.4606C26.208 17.4208 26.324 17.4009 26.4551 17.4009C26.5668 17.4009 26.6743 17.4166 26.7774 17.4481C26.8805 17.4774 26.9686 17.5225 27.0417 17.5833L26.9321 17.8411C26.8698 17.7908 26.7946 17.751 26.7065 17.7216C26.6205 17.6923 26.5378 17.6776 26.4583 17.6776C26.353 17.6776 26.2746 17.6954 26.223 17.7311C26.1736 17.7667 26.1489 17.8139 26.1489 17.8726C26.1489 17.9648 26.2101 18.0214 26.3326 18.0424L26.6549 18.1021C26.7946 18.1273 26.8999 18.1734 26.9708 18.2405C27.0438 18.3076 27.0804 18.3977 27.0804 18.511C27.0804 18.664 27.0191 18.7845 26.8967 18.8726C26.7742 18.9585 26.6109 19.0015 26.4067 19.0015ZM27.9806 19.0015C27.8473 19.0015 27.7227 18.9858 27.6067 18.9543C27.4906 18.9229 27.3939 18.8778 27.3166 18.8191L27.4197 18.5613C27.4992 18.6136 27.5884 18.6545 27.6872 18.6839C27.7861 18.7112 27.8849 18.7248 27.9838 18.7248C28.0869 18.7248 28.1632 18.708 28.2126 18.6745C28.2642 18.6388 28.29 18.5927 28.29 18.5361C28.29 18.448 28.2234 18.3914 28.0902 18.3663L27.7678 18.3066C27.4949 18.2562 27.3585 18.1179 27.3585 17.8915C27.3585 17.7908 27.3864 17.7038 27.4423 17.6305C27.5003 17.5571 27.5798 17.5005 27.6808 17.4606C27.7818 17.4208 27.8978 17.4009 28.0289 17.4009C28.1406 17.4009 28.2481 17.4166 28.3512 17.4481C28.4543 17.4774 28.5424 17.5225 28.6155 17.5833L28.5059 17.8411C28.4436 17.7908 28.3684 17.751 28.2803 17.7216C28.1944 17.6923 28.1116 17.6776 28.0321 17.6776C27.9268 17.6776 27.8484 17.6954 27.7968 17.7311C27.7474 17.7667 27.7227 17.8139 27.7227 17.8726C27.7227 17.9648 27.7839 18.0214 27.9064 18.0424L28.2287 18.1021C28.3684 18.1273 28.4737 18.1734 28.5446 18.2405C28.6176 18.3076 28.6542 18.3977 28.6542 18.511C28.6542 18.664 28.5929 18.7845 28.4705 18.8726C28.348 18.9585 28.1847 19.0015 27.9806 19.0015ZM28.9516 17.1022V16.7185H29.4029V17.1022H28.9516ZM28.9774 18.9701V17.4324H29.3803V18.9701H28.9774ZM30.5177 19.0015C30.3544 19.0015 30.2126 18.969 30.0923 18.904C29.9719 18.839 29.8785 18.7468 29.8118 18.6273C29.7452 18.5057 29.7119 18.3632 29.7119 18.1996C29.7119 18.0361 29.7452 17.8946 29.8118 17.7751C29.8785 17.6556 29.9719 17.5634 30.0923 17.4984C30.2126 17.4334 30.3544 17.4009 30.5177 17.4009C30.681 17.4009 30.8228 17.4334 30.9432 17.4984C31.0635 17.5634 31.157 17.6556 31.2236 17.7751C31.2902 17.8946 31.3235 18.0361 31.3235 18.1996C31.3235 18.3632 31.2902 18.5057 31.2236 18.6273C31.157 18.7468 31.0635 18.839 30.9432 18.904C30.8228 18.969 30.681 19.0015 30.5177 19.0015ZM30.5177 18.7028C30.638 18.7028 30.7347 18.6608 30.8078 18.577C30.8809 18.491 30.9174 18.3652 30.9174 18.1996C30.9174 18.0319 30.8809 17.9072 30.8078 17.8254C30.7347 17.7416 30.638 17.6997 30.5177 17.6997C30.3974 17.6997 30.3007 17.7416 30.2276 17.8254C30.1546 17.9072 30.118 18.0319 30.118 18.1996C30.118 18.3652 30.1546 18.491 30.2276 18.577C30.3007 18.6608 30.3974 18.7028 30.5177 18.7028ZM31.656 18.9701V17.4324H32.0493V17.6714C32.103 17.5833 32.175 17.5162 32.2652 17.4701C32.3576 17.424 32.4608 17.4009 32.5747 17.4009C32.9464 17.4009 33.1322 17.6116 33.1322 18.033V18.9701H32.7293V18.0518C32.7293 17.9323 32.7057 17.8453 32.6584 17.7908C32.6133 17.7363 32.5424 17.7091 32.4457 17.7091C32.3275 17.7091 32.233 17.7457 32.1621 17.8191C32.0933 17.8904 32.0589 17.9858 32.0589 18.1053V18.9701H31.656ZM34.6356 18.9701V17.4324H35.0288V17.6714C35.0825 17.5833 35.1545 17.5162 35.2448 17.4701C35.3371 17.424 35.4403 17.4009 35.5542 17.4009C35.9259 17.4009 36.1118 17.6116 36.1118 18.033V18.9701H35.7089V18.0518C35.7089 17.9323 35.6853 17.8453 35.638 17.7908C35.5929 17.7363 35.522 17.7091 35.4253 17.7091C35.3071 17.7091 35.2126 17.7457 35.1416 17.8191C35.0729 17.8904 35.0385 17.9858 35.0385 18.1053V18.9701H34.6356ZM37.04 19.0015C36.9261 19.0015 36.824 18.9805 36.7338 18.9386C36.6456 18.8946 36.5758 18.8359 36.5242 18.7625C36.4748 18.6891 36.4501 18.6063 36.4501 18.5141C36.4501 18.4009 36.4802 18.3118 36.5403 18.2468C36.6005 18.1797 36.6983 18.1315 36.8337 18.1021C36.9691 18.0728 37.1506 18.0581 37.3784 18.0581H37.4912V17.9921C37.4912 17.8873 37.4676 17.8118 37.4203 17.7657C37.373 17.7195 37.2935 17.6965 37.1818 17.6965C37.0937 17.6965 37.0034 17.7101 36.911 17.7374C36.8186 17.7625 36.7252 17.8023 36.6306 17.8569L36.5146 17.5896C36.5704 17.5519 36.636 17.5193 36.7112 17.4921C36.7886 17.4627 36.8691 17.4407 36.9529 17.4261C37.0389 17.4093 37.1195 17.4009 37.1947 17.4009C37.4246 17.4009 37.5954 17.4533 37.7072 17.5581C37.8189 17.6609 37.8747 17.8212 37.8747 18.0393V18.9701H37.4977V18.7248C37.4611 18.8107 37.4031 18.8788 37.3236 18.9292C37.2441 18.9774 37.1496 19.0015 37.04 19.0015ZM37.1238 18.731C37.2291 18.731 37.3161 18.6954 37.3848 18.6241C37.4557 18.5529 37.4912 18.4627 37.4912 18.3537V18.2845H37.3816C37.1796 18.2845 37.0389 18.3002 36.9594 18.3317C36.882 18.3611 36.8433 18.4156 36.8433 18.4952C36.8433 18.5644 36.8681 18.621 36.9175 18.665C36.9669 18.709 37.0356 18.731 37.1238 18.731ZM38.2901 18.9701V17.4324H38.6834V17.6682C38.7307 17.5843 38.7962 17.5193 38.88 17.4732C38.9638 17.425 39.0605 17.4009 39.1701 17.4009C39.4064 17.4009 39.5611 17.5015 39.6342 17.7028C39.6836 17.6084 39.7545 17.5351 39.8469 17.4827C39.9393 17.4282 40.0446 17.4009 40.1628 17.4009C40.5174 17.4009 40.6946 17.6116 40.6946 18.033V18.9701H40.2917V18.0487C40.2917 17.9313 40.2713 17.8453 40.2305 17.7908C40.1918 17.7363 40.1252 17.7091 40.0307 17.7091C39.9254 17.7091 39.8427 17.7457 39.7825 17.8191C39.7223 17.8904 39.6922 17.99 39.6922 18.1179V18.9701H39.2893V18.0487C39.2893 17.9313 39.2689 17.8453 39.2281 17.7908C39.1894 17.7363 39.1239 17.7091 39.0315 17.7091C38.9262 17.7091 38.8434 17.7457 38.7833 17.8191C38.7231 17.8904 38.693 17.99 38.693 18.1179V18.9701H38.2901ZM41.887 19.0015C41.7087 19.0015 41.5551 18.969 41.4261 18.904C41.2972 18.839 41.1973 18.7468 41.1264 18.6273C41.0576 18.5078 41.0232 18.3663 41.0232 18.2028C41.0232 18.0434 41.0566 17.904 41.1231 17.7845C41.1919 17.665 41.2854 17.5717 41.4036 17.5047C41.5239 17.4355 41.6604 17.4009 41.8129 17.4009C42.0364 17.4009 42.2126 17.4701 42.3415 17.6084C42.4726 17.7468 42.5381 17.9355 42.5381 18.1745V18.2908H41.41C41.4401 18.5655 41.6013 18.7028 41.8935 18.7028C41.9816 18.7028 42.0697 18.6902 42.1578 18.665C42.2459 18.6377 42.3265 18.5958 42.3995 18.5392L42.5124 18.8034C42.4371 18.8642 42.3426 18.9124 42.2287 18.948C42.1148 18.9837 42.0009 19.0015 41.887 19.0015ZM41.829 17.6682C41.7108 17.6682 41.6152 17.7038 41.5421 17.7751C41.4691 17.8464 41.425 17.9428 41.41 18.0644H42.2029C42.1943 17.9365 42.1578 17.839 42.0933 17.772C42.031 17.7028 41.9429 17.6682 41.829 17.6682Z" fill="#414141"/>
<path d="M22.503 22.6975L21.8477 21.2195H21.9895L22.5696 22.5361L23.1498 21.2195H23.2873L22.6298 22.6975H22.503ZM23.7989 22.7142C23.6385 22.7142 23.5117 22.6681 23.4186 22.5759C23.3269 22.4822 23.2811 22.3543 23.2811 22.1922C23.2811 22.0874 23.3019 21.9952 23.3434 21.9155C23.3849 21.8358 23.4422 21.7736 23.5153 21.7289C23.5898 21.6842 23.675 21.6618 23.771 21.6618C23.91 21.6618 24.0181 21.7058 24.0955 21.7939C24.1728 21.8819 24.2115 22.0028 24.2115 22.1566V22.2153H23.41C23.4143 22.341 23.4494 22.4382 23.5153 22.5067C23.5826 22.5738 23.6757 22.6073 23.7947 22.6073C23.8591 22.6073 23.9193 22.5975 23.9752 22.578C24.0324 22.5584 24.0883 22.5256 24.1427 22.4794L24.1943 22.5759C24.1485 22.6192 24.0897 22.6534 24.0181 22.6786C23.9465 22.7023 23.8734 22.7142 23.7989 22.7142ZM23.7732 21.7646C23.6643 21.7646 23.5791 21.7981 23.5174 21.8652C23.4573 21.9309 23.4222 22.0161 23.4122 22.1209H24.0933C24.0905 22.0092 24.0618 21.9218 24.0074 21.8589C23.953 21.796 23.8749 21.7646 23.7732 21.7646ZM24.4787 22.6975V21.6807H24.6076V21.8631C24.642 21.796 24.6914 21.7457 24.7559 21.7122C24.8204 21.6786 24.892 21.6618 24.9708 21.6618C25.2186 21.6618 25.3425 21.7932 25.3425 22.0559V22.6975H25.2114V22.0664C25.2114 21.9658 25.1906 21.8917 25.1491 21.8442C25.1076 21.7967 25.0417 21.7729 24.9514 21.7729C24.8483 21.7729 24.7652 21.8044 24.7021 21.8673C24.6406 21.9288 24.6098 22.0119 24.6098 22.1168V22.6975H24.4787ZM26.0486 22.7142C25.8007 22.7142 25.6768 22.5828 25.6768 22.3201V21.6807H25.8079V22.3138C25.8079 22.4131 25.8286 22.4864 25.8702 22.5339C25.9117 22.5814 25.9769 22.6052 26.0657 22.6052C26.1617 22.6052 26.2398 22.5738 26.2999 22.5109C26.3615 22.448 26.3924 22.3641 26.3924 22.2593V21.6807H26.5234V22.6975H26.3966V22.5171C26.3623 22.5814 26.3143 22.6304 26.2527 22.6639C26.1925 22.6975 26.1245 22.7142 26.0486 22.7142ZM27.3222 22.7142C27.1617 22.7142 27.035 22.6681 26.9419 22.5759C26.8502 22.4822 26.8043 22.3543 26.8043 22.1922C26.8043 22.0874 26.8251 21.9952 26.8667 21.9155C26.9082 21.8358 26.9655 21.7736 27.0385 21.7289C27.1131 21.6842 27.1983 21.6618 27.2943 21.6618C27.4332 21.6618 27.5414 21.7058 27.6187 21.7939C27.6961 21.8819 27.7348 22.0028 27.7348 22.1566V22.2153H26.9333C26.9376 22.341 26.9727 22.4382 27.0385 22.5067C27.1059 22.5738 27.199 22.6073 27.3179 22.6073C27.3823 22.6073 27.4425 22.5975 27.4984 22.578C27.5557 22.5584 27.6116 22.5256 27.666 22.4794L27.7176 22.5759C27.6717 22.6192 27.613 22.6534 27.5414 22.6786C27.4697 22.7023 27.3967 22.7142 27.3222 22.7142ZM27.2964 21.7646C27.1875 21.7646 27.1023 21.7981 27.0407 21.8652C26.9805 21.9309 26.9454 22.0161 26.9354 22.1209H27.6166C27.6137 22.0092 27.5851 21.9218 27.5306 21.8589C27.4762 21.796 27.3981 21.7646 27.2964 21.7646ZM29.0206 22.6975V21.6807H29.1495V21.8631C29.1839 21.796 29.2334 21.7457 29.2978 21.7122C29.3623 21.6786 29.4339 21.6618 29.5127 21.6618C29.7605 21.6618 29.8844 21.7932 29.8844 22.0559V22.6975H29.7534V22.0664C29.7534 21.9658 29.7326 21.8917 29.691 21.8442C29.6495 21.7967 29.5836 21.7729 29.4933 21.7729C29.3902 21.7729 29.3071 21.8044 29.2441 21.8673C29.1825 21.9288 29.1517 22.0119 29.1517 22.1168V22.6975H29.0206ZM30.5453 22.7142C30.4751 22.7142 30.4121 22.701 30.3563 22.6744C30.3018 22.6478 30.2581 22.6115 30.2251 22.5654C30.1937 22.5193 30.1779 22.4676 30.1779 22.4102C30.1779 22.3348 30.1972 22.2761 30.2359 22.2341C30.2746 22.1908 30.3398 22.1601 30.4315 22.1419C30.5231 22.1237 30.6492 22.1147 30.8096 22.1147H30.8763V22.0392C30.8763 21.9456 30.8569 21.8778 30.8182 21.8358C30.7795 21.7925 30.718 21.7708 30.6334 21.7708C30.5704 21.7708 30.5095 21.78 30.4508 21.7981C30.3935 21.8163 30.3341 21.8449 30.2724 21.8841L30.2209 21.7855C30.2753 21.7478 30.3398 21.7177 30.4143 21.6954C30.4887 21.673 30.5611 21.6618 30.6313 21.6618C30.7574 21.6618 30.8505 21.6933 30.9106 21.7562C30.9722 21.8191 31.003 21.9155 31.003 22.0455V22.6975H30.8784V22.515C30.8497 22.578 30.8061 22.6269 30.7473 22.6618C30.69 22.6968 30.6227 22.7142 30.5453 22.7142ZM30.5625 22.6115C30.6241 22.6115 30.6779 22.5975 30.7237 22.5696C30.771 22.5402 30.8082 22.5004 30.8354 22.4501C30.8626 22.3998 30.8763 22.3425 30.8763 22.2782V22.209H30.8118C30.6829 22.209 30.5819 22.2146 30.5088 22.2258C30.4372 22.237 30.387 22.2565 30.3584 22.2845C30.3297 22.3124 30.3154 22.3508 30.3154 22.3998C30.3154 22.4626 30.3376 22.5137 30.382 22.5528C30.4265 22.5919 30.4866 22.6115 30.5625 22.6115ZM31.3499 22.6975V21.6807H31.4789V21.8589C31.5434 21.7275 31.6529 21.6618 31.8077 21.6618C31.9738 21.6618 32.0791 21.7324 32.1235 21.8736C32.1536 21.8079 32.1994 21.7562 32.2611 21.7184C32.3226 21.6807 32.3943 21.6618 32.4759 21.6618C32.7066 21.6618 32.8219 21.7932 32.8219 22.0559V22.6975H32.6908V22.0664C32.6908 21.9658 32.6722 21.8917 32.635 21.8442C32.5991 21.7967 32.5382 21.7729 32.4523 21.7729C32.3606 21.7729 32.2875 21.8044 32.2331 21.8673C32.1787 21.9288 32.1515 22.0126 32.1515 22.1189V22.6975H32.0204V22.0664C32.0204 21.9658 32.0018 21.8917 31.9645 21.8442C31.9287 21.7967 31.8685 21.7729 31.784 21.7729C31.6909 21.7729 31.6171 21.8044 31.5627 21.8673C31.5083 21.9288 31.4811 22.0126 31.4811 22.1189V22.6975H31.3499ZM33.6184 22.7142C33.458 22.7142 33.3312 22.6681 33.238 22.5759C33.1464 22.4822 33.1005 22.3543 33.1005 22.1922C33.1005 22.0874 33.1213 21.9952 33.1628 21.9155C33.2044 21.8358 33.2617 21.7736 33.3348 21.7289C33.4092 21.6842 33.4945 21.6618 33.5905 21.6618C33.7294 21.6618 33.8376 21.7058 33.9149 21.7939C33.9923 21.8819 34.0309 22.0028 34.0309 22.1566V22.2153H33.2295C33.2337 22.341 33.2688 22.4382 33.3348 22.5067C33.4021 22.5738 33.4952 22.6073 33.6141 22.6073C33.6786 22.6073 33.7387 22.5975 33.7946 22.578C33.8519 22.5584 33.9078 22.5256 33.9622 22.4794L34.0137 22.5759C33.9679 22.6192 33.9092 22.6534 33.8376 22.6786C33.766 22.7023 33.6929 22.7142 33.6184 22.7142ZM33.5926 21.7646C33.4837 21.7646 33.3985 21.7981 33.3369 21.8652C33.2768 21.9309 33.2417 22.0161 33.2316 22.1209H33.9128C33.9099 22.0092 33.8813 21.9218 33.8268 21.8589C33.7724 21.796 33.6943 21.7646 33.5926 21.7646Z" fill="#414141"/>
<path d="M77.7148 16.4678V15.1746H78.5816V15.3617H77.9553V15.7267H78.5421V15.9138H77.9553V16.4678H77.7148ZM78.7297 16.4678V15.5708H78.9588V15.7286C79.004 15.6222 79.1007 15.5635 79.2484 15.5525L79.3198 15.547L79.335 15.7414L79.1998 15.7542C79.0455 15.7689 78.9683 15.846 78.9683 15.9854V16.4678H78.7297ZM79.8703 16.4861C79.7751 16.4861 79.6922 16.4672 79.6222 16.4293C79.5522 16.3914 79.4974 16.3376 79.4589 16.2678C79.4198 16.1969 79.4003 16.1138 79.4003 16.0184C79.4003 15.923 79.4198 15.8405 79.4589 15.7708C79.4974 15.701 79.5522 15.6472 79.6222 15.6093C79.6922 15.5714 79.7751 15.5525 79.8703 15.5525C79.9656 15.5525 80.0485 15.5714 80.1185 15.6093C80.189 15.6472 80.2432 15.701 80.2823 15.7708C80.3209 15.8405 80.3404 15.923 80.3404 16.0184C80.3404 16.1138 80.3209 16.1969 80.2823 16.2678C80.2432 16.3376 80.189 16.3914 80.1185 16.4293C80.0485 16.4672 79.9656 16.4861 79.8703 16.4861ZM79.8703 16.3119C79.9408 16.3119 79.997 16.2875 80.0399 16.2386C80.0823 16.1885 80.1037 16.115 80.1037 16.0184C80.1037 15.9206 80.0823 15.8478 80.0399 15.8001C79.997 15.7512 79.9408 15.7267 79.8703 15.7267C79.8003 15.7267 79.7437 15.7512 79.7013 15.8001C79.6584 15.8478 79.6375 15.9206 79.6375 16.0184C79.6375 16.115 79.6584 16.1885 79.7013 16.2386C79.7437 16.2875 79.8003 16.3119 79.8703 16.3119ZM80.538 16.4678V15.5708H80.7676V15.7084C80.7952 15.6595 80.8333 15.6216 80.8824 15.5947C80.9314 15.5665 80.9876 15.5525 81.0514 15.5525C81.1896 15.5525 81.2796 15.6112 81.3224 15.7286C81.351 15.6735 81.3924 15.6307 81.4463 15.6002C81.5001 15.5684 81.5615 15.5525 81.6306 15.5525C81.8373 15.5525 81.9411 15.6754 81.9411 15.9212V16.4678H81.7058V15.9303C81.7058 15.8618 81.6939 15.8117 81.6701 15.7799C81.6477 15.7481 81.6087 15.7323 81.5534 15.7323C81.492 15.7323 81.4439 15.7536 81.4086 15.7964C81.3739 15.838 81.3562 15.8961 81.3562 15.9707V16.4678H81.121V15.9303C81.121 15.8618 81.1091 15.8117 81.0853 15.7799C81.0629 15.7481 81.0248 15.7323 80.9705 15.7323C80.909 15.7323 80.8609 15.7536 80.8257 15.7964C80.7909 15.838 80.7733 15.8961 80.7733 15.9707V16.4678H80.538ZM83.1807 16.4861C83.0164 16.4861 82.8893 16.4299 82.7993 16.3174C82.7102 16.2049 82.6654 16.0471 82.6654 15.8441C82.6654 15.6253 82.7159 15.4559 82.8159 15.3361C82.9174 15.2163 83.0574 15.1562 83.2355 15.1562C83.3055 15.1562 83.3751 15.1691 83.4441 15.1948C83.5132 15.2193 83.5718 15.2547 83.6208 15.3012L83.5418 15.4773C83.4956 15.4357 83.446 15.4051 83.3932 15.3855C83.3408 15.3648 83.287 15.3544 83.2317 15.3544C83.1227 15.3544 83.0393 15.3917 82.9817 15.4663C82.9241 15.5409 82.895 15.6522 82.895 15.8001V15.8533C82.9212 15.7861 82.9641 15.7335 83.0226 15.6956C83.0817 15.6576 83.1493 15.6387 83.226 15.6387C83.3022 15.6387 83.3703 15.6564 83.4289 15.6919C83.4879 15.7273 83.5341 15.7763 83.5679 15.8386C83.6018 15.901 83.6189 15.9725 83.6189 16.0532C83.6189 16.1364 83.5998 16.2111 83.5627 16.2771C83.526 16.342 83.4746 16.3933 83.4084 16.4312C83.3431 16.4679 83.2674 16.4861 83.1807 16.4861ZM83.1674 16.2992C83.2355 16.2992 83.2898 16.2776 83.3312 16.2348C83.3736 16.1908 83.3951 16.1334 83.3951 16.0625C83.3951 15.9916 83.3736 15.934 83.3312 15.89C83.2898 15.846 83.2355 15.8239 83.1674 15.8239C83.0998 15.8239 83.045 15.846 83.0022 15.89C82.9607 15.934 82.9402 15.9916 82.9402 16.0625C82.9402 16.1334 82.9607 16.1908 83.0022 16.2348C83.045 16.2776 83.0998 16.2992 83.1674 16.2992ZM83.9113 16.7118L83.8156 16.6384C83.847 16.6078 83.8699 16.5786 83.8851 16.5504C83.9013 16.5235 83.9127 16.4959 83.9189 16.4678H83.7965V16.2128H84.0599V16.3816C84.0599 16.4439 84.049 16.5008 84.0261 16.5522C84.0047 16.6047 83.9666 16.658 83.9113 16.7118ZM84.7257 16.4861C84.569 16.4861 84.4495 16.4286 84.3666 16.3137C84.2837 16.1975 84.2423 16.0325 84.2423 15.8184C84.2423 15.602 84.2837 15.4375 84.3666 15.325C84.4495 15.2125 84.569 15.1562 84.7257 15.1562C84.8838 15.1562 85.0034 15.2125 85.0848 15.325C85.1677 15.4375 85.2091 15.6014 85.2091 15.8166C85.2091 16.0319 85.1677 16.1975 85.0848 16.3137C85.0019 16.4286 84.8824 16.4861 84.7257 16.4861ZM84.7257 16.2936C84.811 16.2936 84.8733 16.2556 84.9138 16.1798C84.9553 16.1028 84.9757 15.9817 84.9757 15.8166C84.9757 15.6528 84.9553 15.5341 84.9138 15.4608C84.8733 15.3862 84.811 15.3488 84.7257 15.3488C84.6419 15.3488 84.579 15.3862 84.5376 15.4608C84.4961 15.5341 84.4757 15.6528 84.4757 15.8166C84.4757 15.9817 84.4961 16.1028 84.5376 16.1798C84.579 16.2556 84.6419 16.2936 84.7257 16.2936ZM85.853 16.4861C85.6963 16.4861 85.5768 16.4286 85.4939 16.3137C85.411 16.1975 85.3701 16.0325 85.3701 15.8184C85.3701 15.602 85.411 15.4375 85.4939 15.325C85.5768 15.2125 85.6963 15.1562 85.853 15.1562C86.0111 15.1562 86.1306 15.2125 86.2121 15.325C86.2949 15.4375 86.3364 15.6014 86.3364 15.8166C86.3364 16.0319 86.2949 16.1975 86.2121 16.3137C86.1292 16.4286 86.0097 16.4861 85.853 16.4861ZM85.853 16.2936C85.9382 16.2936 86.0011 16.2556 86.0411 16.1798C86.0825 16.1028 86.103 15.9817 86.103 15.8166C86.103 15.6528 86.0825 15.5341 86.0411 15.4608C86.0011 15.3862 85.9382 15.3488 85.853 15.3488C85.7692 15.3488 85.7063 15.3862 85.6649 15.4608C85.6234 15.5341 85.603 15.6528 85.603 15.8166C85.603 15.9817 85.6234 16.1028 85.6649 16.1798C85.7063 16.2556 85.7692 16.2936 85.853 16.2936ZM87.6546 16.4861C87.5256 16.4861 87.4151 16.4483 87.3236 16.3724C87.2332 16.2966 87.1727 16.1871 87.1412 16.0441H86.9588V15.8827H87.1208C87.1179 15.8386 87.1179 15.797 87.1208 15.7579H86.9588V15.5965H87.1412C87.1736 15.4546 87.2351 15.3459 87.3255 15.2701C87.4156 15.1943 87.5256 15.1562 87.6546 15.1562C87.727 15.1562 87.7961 15.1691 87.8613 15.1948C87.9266 15.2205 87.9804 15.2584 88.0232 15.3085L87.9442 15.4718C87.9042 15.4289 87.8613 15.399 87.8161 15.3819C87.7713 15.3648 87.7227 15.3562 87.6713 15.3562C87.6037 15.3562 87.5446 15.3757 87.4946 15.4149C87.446 15.4528 87.4103 15.5133 87.3875 15.5965H87.6694V15.7579H87.3594C87.3579 15.7995 87.3589 15.8411 87.3613 15.8827H87.6694V16.0441H87.3875C87.4103 16.1284 87.446 16.1902 87.4946 16.2293C87.5446 16.2672 87.6037 16.2862 87.6713 16.2862C87.7227 16.2862 87.7713 16.2776 87.8161 16.2605C87.8613 16.2422 87.9042 16.2123 87.9442 16.1707L88.0232 16.3321C87.9804 16.3834 87.9266 16.422 87.8613 16.4476C87.7961 16.4733 87.727 16.4861 87.6546 16.4861Z" fill="#414141"/>
<path d="M109.129 18.4451H78.1055C77.8089 18.4451 77.5684 18.6798 77.5684 18.9692V24.2102C77.5684 24.4996 77.8089 24.7343 78.1055 24.7343H109.129C109.425 24.7343 109.666 24.4996 109.666 24.2102V18.9692C109.666 18.6798 109.425 18.4451 109.129 18.4451Z" fill="#3BA0A8"/>
<path d="M86.9395 22.2908V20.628H87.6843C87.8629 20.628 88.0015 20.6666 88.1001 20.7436C88.1982 20.8191 88.2472 20.9245 88.2472 21.0597C88.2472 21.1493 88.2239 21.2263 88.1772 21.2908C88.1306 21.3553 88.0663 21.4024 87.9839 21.4323C88.0805 21.459 88.1553 21.5061 88.2087 21.5737C88.2634 21.6397 88.291 21.7239 88.291 21.8262C88.291 21.9739 88.2391 22.0887 88.1363 22.1705C88.0348 22.2507 87.8929 22.2908 87.7105 22.2908H86.9395ZM87.2371 21.3332H87.631C87.8419 21.3332 87.9477 21.2537 87.9477 21.0949C87.9477 20.9362 87.8419 20.8568 87.631 20.8568H87.2371V21.3332ZM87.2371 22.062H87.6719C87.8848 22.062 87.991 21.9787 87.991 21.812C87.991 21.6453 87.8848 21.562 87.6719 21.562H87.2371V22.062ZM89.0026 22.3144C88.7125 22.3144 88.5677 22.1555 88.5677 21.8379V21.1375H88.8697V21.8426C88.8697 21.9243 88.8868 21.9849 88.9206 22.0242C88.9545 22.0635 89.0083 22.0832 89.0826 22.0832C89.1631 22.0832 89.2293 22.0565 89.2807 22.003C89.3321 21.948 89.3578 21.8756 89.3578 21.7861V21.1375H89.6603V22.2908H89.3655V22.1186C89.2864 22.2491 89.1654 22.3144 89.0026 22.3144ZM90.0813 22.7153L90.2989 22.2436L89.8079 21.1375H90.1294L90.4608 21.944L90.799 21.1375H91.1038L90.3927 22.7153H90.0813ZM92.4401 22.3144C92.1277 22.3144 91.9715 22.1634 91.9715 21.8615V21.3591H91.7439V21.1375H91.9715V20.7931H92.2734V21.1375H92.6311V21.3591H92.2734V21.8449C92.2734 21.9204 92.2906 21.977 92.3244 22.0147C92.3582 22.0524 92.413 22.0714 92.4887 22.0714C92.5111 22.0714 92.5344 22.0691 92.5587 22.0643C92.583 22.0581 92.6078 22.0517 92.6335 22.0455L92.6797 22.2625C92.6506 22.2782 92.6135 22.2907 92.5682 22.3001C92.5249 22.3095 92.482 22.3144 92.4401 22.3144ZM92.8073 20.8897V20.6021H93.1454V20.8897H92.8073ZM92.8264 22.2908V21.1375H93.1288V22.2908H92.8264ZM93.9889 22.3144C93.8651 22.3144 93.757 22.2899 93.665 22.2411C93.5731 22.1908 93.5022 22.12 93.4522 22.0289C93.4022 21.9377 93.3774 21.8309 93.3774 21.7082C93.3774 21.5856 93.4022 21.4802 93.4522 21.3922C93.5022 21.3026 93.5731 21.2342 93.665 21.187C93.757 21.1383 93.8651 21.1138 93.9889 21.1138C94.0646 21.1138 94.1399 21.1257 94.2137 21.1493C94.288 21.1728 94.3494 21.2059 94.3975 21.2483L94.308 21.4535C94.2661 21.4173 94.2184 21.3898 94.1656 21.371C94.1137 21.3521 94.0641 21.3426 94.0156 21.3426C93.9108 21.3426 93.8293 21.3749 93.7712 21.4394C93.715 21.5023 93.6869 21.5926 93.6869 21.7106C93.6869 21.8269 93.715 21.9189 93.7712 21.9865C93.8293 22.0525 93.9108 22.0856 94.0156 22.0856C94.0622 22.0856 94.1122 22.0761 94.1656 22.0573C94.2184 22.0384 94.2661 22.0101 94.308 21.9724L94.3975 22.1798C94.3494 22.2207 94.287 22.2537 94.2113 22.2789C94.1375 22.3025 94.0632 22.3144 93.9889 22.3144ZM94.5828 22.2908V20.628H94.8852V21.628H94.89L95.3662 21.1375H95.731L95.1943 21.6894L95.7648 22.2908H95.3952L94.89 21.7766H94.8852V22.2908H94.5828ZM96.4378 22.3144C96.3039 22.3144 96.1887 22.2899 96.092 22.2411C95.9953 22.1924 95.9206 22.1233 95.8672 22.0337C95.8158 21.944 95.7901 21.8379 95.7901 21.7153C95.7901 21.5958 95.8148 21.4913 95.8648 21.4016C95.9167 21.312 95.9868 21.242 96.0753 21.1917C96.1653 21.1399 96.2677 21.1138 96.3825 21.1138C96.5497 21.1138 96.6821 21.1658 96.7788 21.2695C96.8769 21.3733 96.9264 21.5147 96.9264 21.694V21.7812H96.0801C96.1025 21.9873 96.2234 22.0903 96.4425 22.0903C96.5087 22.0903 96.5749 22.0808 96.6411 22.062C96.7068 22.0415 96.7673 22.0101 96.8221 21.9676L96.9069 22.1658C96.8507 22.2113 96.7797 22.2475 96.694 22.2743C96.6087 22.301 96.5235 22.3144 96.4378 22.3144ZM96.3944 21.3144C96.3058 21.3144 96.2339 21.3411 96.1792 21.3946C96.1244 21.448 96.0915 21.5203 96.0801 21.6115H96.6749C96.6683 21.5156 96.6411 21.4425 96.5925 21.3922C96.5459 21.3403 96.4797 21.3144 96.3944 21.3144ZM97.7022 22.3144C97.3898 22.3144 97.2331 22.1634 97.2331 21.8615V21.3591H97.0059V21.1375H97.2331V20.7931H97.5355V21.1375H97.8932V21.3591H97.5355V21.8449C97.5355 21.9204 97.5522 21.977 97.5865 22.0147C97.6203 22.0524 97.6751 22.0714 97.7508 22.0714C97.7732 22.0714 97.7965 22.0691 97.8208 22.0643C97.8451 22.0581 97.8698 22.0517 97.8956 22.0455L97.9418 22.2625C97.9127 22.2782 97.8756 22.2907 97.8303 22.3001C97.787 22.3095 97.7441 22.3144 97.7022 22.3144ZM98.5214 22.3144C98.4213 22.3144 98.328 22.3025 98.2408 22.2789C98.1537 22.2553 98.0813 22.2216 98.0232 22.1776L98.1008 21.9841C98.1604 22.0234 98.227 22.054 98.3013 22.076C98.3756 22.0965 98.4494 22.1068 98.5237 22.1068C98.6009 22.1068 98.658 22.0941 98.6952 22.069C98.7342 22.0422 98.7533 22.0077 98.7533 21.9653C98.7533 21.8993 98.7033 21.8568 98.6033 21.8379L98.3618 21.7931C98.157 21.7554 98.0546 21.6516 98.0546 21.4818C98.0546 21.4063 98.0756 21.3411 98.1175 21.2861C98.1613 21.231 98.2208 21.1886 98.2966 21.1587C98.3723 21.1288 98.4594 21.1138 98.5575 21.1138C98.6414 21.1138 98.7219 21.1257 98.7995 21.1493C98.8766 21.1713 98.9428 21.2051 98.9976 21.2507L98.9152 21.444C98.8685 21.4062 98.8123 21.3765 98.7461 21.3545C98.6818 21.3324 98.6195 21.3214 98.5599 21.3214C98.4809 21.3214 98.4223 21.3348 98.3837 21.3615C98.3466 21.3882 98.328 21.4236 98.328 21.4676C98.328 21.5367 98.3737 21.5792 98.4656 21.5949L98.7076 21.6397C98.8123 21.6586 98.8909 21.6933 98.9443 21.7436C98.999 21.7939 99.0266 21.8615 99.0266 21.9464C99.0266 22.0612 98.9805 22.1516 98.8885 22.2176C98.7966 22.2821 98.6742 22.3144 98.5214 22.3144Z" fill="white"/>
<path d="M102.899 21.6373L101.898 22.614C101.883 22.627 101.865 22.634 101.845 22.6337C101.826 22.6334 101.807 22.6257 101.793 22.6122C101.78 22.5988 101.772 22.5807 101.772 22.5617C101.771 22.5428 101.779 22.5244 101.792 22.5105L102.74 21.5855L101.792 20.6605C101.779 20.6466 101.771 20.6283 101.772 20.6093C101.772 20.5903 101.78 20.5722 101.793 20.5588C101.807 20.5454 101.826 20.5377 101.845 20.5374C101.865 20.537 101.883 20.5441 101.898 20.557L102.899 21.5338C102.913 21.5475 102.921 21.5661 102.921 21.5855C102.921 21.6049 102.913 21.6235 102.899 21.6373Z" fill="white"/>
</g>
</g>
<g filter="url(#filter1_d_1384_7649)">
<mask id="mask3_1384_7649" style="mask-type:luminance" maskUnits="userSpaceOnUse" x="5" y="31" width="109" height="16">
<path d="M113.428 31.3416H6.2579C5.96121 31.3416 5.7207 31.5762 5.7207 31.8657V46.0162C5.7207 46.3056 5.96121 46.5403 6.2579 46.5403H113.428C113.725 46.5403 113.965 46.3056 113.965 46.0162V31.8657C113.965 31.5762 113.725 31.3416 113.428 31.3416Z" fill="white"/>
</mask>
<g mask="url(#mask3_1384_7649)">
<path d="M113.428 31.3416H6.2579C5.96121 31.3416 5.7207 31.5762 5.7207 31.8657V46.0162C5.7207 46.3056 5.96121 46.5403 6.2579 46.5403H113.428C113.725 46.5403 113.965 46.3056 113.965 46.0162V31.8657C113.965 31.5762 113.725 31.3416 113.428 31.3416Z" fill="white"/>
<path d="M19.6878 31.3416H5.7207V46.5403H19.6878V31.3416Z" fill="#F1F1F1"/>
<path d="M19.6875 31.3416H113.428C113.725 31.3416 113.965 31.5762 113.965 31.8657V46.0164C113.965 46.3058 113.725 46.5405 113.428 46.5405H19.6875V31.3416Z" fill="white"/>
<path d="M109.129 35.7966H78.1055C77.8089 35.7966 77.5684 36.0312 77.5684 36.3207V41.5616C77.5684 41.8511 77.8089 42.0857 78.1055 42.0857H109.129C109.425 42.0857 109.666 41.8511 109.666 41.5616V36.3207C109.666 36.0312 109.425 35.7966 109.129 35.7966Z" fill="#3BA0A8"/>
</g>
</g>
<g filter="url(#filter2_d_1384_7649)">
<mask id="mask4_1384_7649" style="mask-type:luminance" maskUnits="userSpaceOnUse" x="5" y="50" width="109" height="16">
<path d="M113.428 50.6897H6.2579C5.96121 50.6897 5.7207 50.9243 5.7207 51.2138V65.3643C5.7207 65.6538 5.96121 65.8884 6.2579 65.8884H113.428C113.725 65.8884 113.965 65.6538 113.965 65.3643V51.2138C113.965 50.9243 113.725 50.6897 113.428 50.6897Z" fill="white"/>
</mask>
<g mask="url(#mask4_1384_7649)">
<path d="M113.428 50.6897H6.2579C5.96121 50.6897 5.7207 50.9243 5.7207 51.2138V65.3643C5.7207 65.6538 5.96121 65.8884 6.2579 65.8884H113.428C113.725 65.8884 113.965 65.6538 113.965 65.3643V51.2138C113.965 50.9243 113.725 50.6897 113.428 50.6897Z" fill="white"/>
<path d="M19.6878 50.6897H5.7207V65.8884H19.6878V50.6897Z" fill="#F1F1F1"/>
<path d="M19.6875 50.6897H113.428C113.725 50.6897 113.965 50.9243 113.965 51.2138V65.3642C113.965 65.6537 113.725 65.8883 113.428 65.8883H19.6875V50.6897Z" fill="white"/>
<path d="M109.129 55.1448H78.1055C77.8089 55.1448 77.5684 55.3795 77.5684 55.6689V60.9099C77.5684 61.1993 77.8089 61.434 78.1055 61.434H109.129C109.425 61.434 109.666 61.1993 109.666 60.9099V55.6689C109.666 55.3795 109.425 55.1448 109.129 55.1448Z" fill="#3BA0A8"/>
</g>
</g>
<g filter="url(#filter3_d_1384_7649)">
<mask id="mask5_1384_7649" style="mask-type:luminance" maskUnits="userSpaceOnUse" x="5" y="69" width="109" height="16">
<path d="M113.428 69.5732H6.2579C5.96121 69.5732 5.7207 69.8078 5.7207 70.0973V84.2478C5.7207 84.5373 5.96121 84.7719 6.2579 84.7719H113.428C113.725 84.7719 113.965 84.5373 113.965 84.2478V70.0973C113.965 69.8078 113.725 69.5732 113.428 69.5732Z" fill="white"/>
</mask>
<g mask="url(#mask5_1384_7649)">
<path d="M113.428 69.5732H6.2579C5.96121 69.5732 5.7207 69.8078 5.7207 70.0973V84.2478C5.7207 84.5373 5.96121 84.7719 6.2579 84.7719H113.428C113.725 84.7719 113.965 84.5373 113.965 84.2478V70.0973C113.965 69.8078 113.725 69.5732 113.428 69.5732Z" fill="white"/>
<path d="M19.6878 69.5732H5.7207V84.7719H19.6878V69.5732Z" fill="#F1F1F1"/>
<path d="M19.6875 69.5732H113.428C113.725 69.5732 113.965 69.8078 113.965 70.0973V84.2477C113.965 84.5372 113.725 84.7718 113.428 84.7718H19.6875V69.5732Z" fill="white"/>
<path d="M109.129 74.0283H78.1055C77.8089 74.0283 77.5684 74.263 77.5684 74.5524V79.7934C77.5684 80.0828 77.8089 80.3175 78.1055 80.3175H109.129C109.425 80.3175 109.666 80.0828 109.666 79.7934V74.5524C109.666 74.263 109.425 74.0283 109.129 74.0283Z" fill="#3BA0A8"/>
</g>
</g>
</g>
</g>
</g>
<defs>
<filter id="filter0_d_1384_7649" x="3.7207" y="11.022" width="112.244" height="19.1987" filterUnits="userSpaceOnUse" color-interpolation-filters="sRGB">
<feFlood flood-opacity="0" result="BackgroundImageFix"/>
<feColorMatrix in="SourceAlpha" type="matrix" values="0 0 0 0 0 0 0 0 0 0 0 0 0 0 0 0 0 0 127 0" result="hardAlpha"/>
<feOffset dy="0.948733"/>
<feGaussianBlur stdDeviation="1"/>
<feComposite in2="hardAlpha" operator="out"/>
<feColorMatrix type="matrix" values="0 0 0 0 0 0 0 0 0 0 0 0 0 0 0 0 0 0 0.15 0"/>
<feBlend mode="normal" in2="BackgroundImageFix" result="effect1_dropShadow_1384_7649"/>
<feBlend mode="normal" in="SourceGraphic" in2="effect1_dropShadow_1384_7649" result="shape"/>
</filter>
<filter id="filter1_d_1384_7649" x="3.7207" y="30.2903" width="112.244" height="19.1987" filterUnits="userSpaceOnUse" color-interpolation-filters="sRGB">
<feFlood flood-opacity="0" result="BackgroundImageFix"/>
<feColorMatrix in="SourceAlpha" type="matrix" values="0 0 0 0 0 0 0 0 0 0 0 0 0 0 0 0 0 0 127 0" result="hardAlpha"/>
<feOffset dy="0.948733"/>
<feGaussianBlur stdDeviation="1"/>
<feComposite in2="hardAlpha" operator="out"/>
<feColorMatrix type="matrix" values="0 0 0 0 0 0 0 0 0 0 0 0 0 0 0 0 0 0 0.15 0"/>
<feBlend mode="normal" in2="BackgroundImageFix" result="effect1_dropShadow_1384_7649"/>
<feBlend mode="normal" in="SourceGraphic" in2="effect1_dropShadow_1384_7649" result="shape"/>
</filter>
<filter id="filter2_d_1384_7649" x="3.7207" y="49.6384" width="112.244" height="19.1987" filterUnits="userSpaceOnUse" color-interpolation-filters="sRGB">
<feFlood flood-opacity="0" result="BackgroundImageFix"/>
<feColorMatrix in="SourceAlpha" type="matrix" values="0 0 0 0 0 0 0 0 0 0 0 0 0 0 0 0 0 0 127 0" result="hardAlpha"/>
<feOffset dy="0.948733"/>
<feGaussianBlur stdDeviation="1"/>
<feComposite in2="hardAlpha" operator="out"/>
<feColorMatrix type="matrix" values="0 0 0 0 0 0 0 0 0 0 0 0 0 0 0 0 0 0 0.15 0"/>
<feBlend mode="normal" in2="BackgroundImageFix" result="effect1_dropShadow_1384_7649"/>
<feBlend mode="normal" in="SourceGraphic" in2="effect1_dropShadow_1384_7649" result="shape"/>
</filter>
<filter id="filter3_d_1384_7649" x="3.7207" y="68.522" width="112.244" height="19.1987" filterUnits="userSpaceOnUse" color-interpolation-filters="sRGB">
<feFlood flood-opacity="0" result="BackgroundImageFix"/>
<feColorMatrix in="SourceAlpha" type="matrix" values="0 0 0 0 0 0 0 0 0 0 0 0 0 0 0 0 0 0 127 0" result="hardAlpha"/>
<feOffset dy="0.948733"/>
<feGaussianBlur stdDeviation="1"/>
<feComposite in2="hardAlpha" operator="out"/>
<feColorMatrix type="matrix" values="0 0 0 0 0 0 0 0 0 0 0 0 0 0 0 0 0 0 0.15 0"/>
<feBlend mode="normal" in2="BackgroundImageFix" result="effect1_dropShadow_1384_7649"/>
<feBlend mode="normal" in="SourceGraphic" in2="effect1_dropShadow_1384_7649" result="shape"/>
</filter>
<clipPath id="clip0_1384_7649">
<rect width="120" height="80" fill="white"/>
</clipPath>
</defs>
</svg>
