<svg width="120" height="80" viewBox="0 0 120 80" fill="none" xmlns="http://www.w3.org/2000/svg">
<g clip-path="url(#clip0_1384_37179)">
<rect width="120" height="80" fill="white"/>
<g clip-path="url(#clip1_1384_37179)">
<mask id="mask0_1384_37179" style="mask-type:luminance" maskUnits="userSpaceOnUse" x="0" y="-1" width="121" height="82">
<path d="M117.179 -0.632812H3.30146C1.61079 -0.632812 0.240234 0.737744 0.240234 2.42841V77.7345C0.240234 79.4252 1.61079 80.7958 3.30146 80.7958H117.179C118.87 80.7958 120.24 79.4252 120.24 77.7345V2.42841C120.24 0.737744 118.87 -0.632812 117.179 -0.632812Z" fill="white"/>
</mask>
<g mask="url(#mask0_1384_37179)">
<path d="M117.179 -0.636719H3.30146C1.61079 -0.636719 0.240234 0.733838 0.240234 2.4245V77.7306C0.240234 79.4213 1.61079 80.7919 3.30146 80.7919H117.179C118.87 80.7919 120.24 79.4213 120.24 77.7306V2.4245C120.24 0.733838 118.87 -0.636719 117.179 -0.636719Z" fill="white"/>
<path d="M176.891 -51H3.31168C2.58726 -51 2 -50.4127 2 -49.6883V91.3069C2 92.0313 2.58726 92.6186 3.31168 92.6186H176.891C177.615 92.6186 178.202 92.0313 178.202 91.3069V-49.6883C178.202 -50.4127 177.615 -51 176.891 -51Z" fill="white"/>
</g>
</g>
<rect x="4" y="-15" width="111" height="92.6279" rx="1.2907" fill="white"/>
<line x1="4" y1="1.79942" x2="115" y2="1.79942" stroke="#E8E8E8" stroke-width="0.215116"/>
<path d="M4 3.6278C4 3.15258 4.38524 2.76733 4.86046 2.76733H16.0465C16.5217 2.76733 16.907 3.15258 16.907 3.6278V14.8138C16.907 15.2891 16.5217 15.6743 16.0465 15.6743H4.86046C4.38524 15.6743 4 15.2891 4 14.8138V3.6278Z" fill="white"/>
<path d="M8.88812 8.4563V8.17019L9.57477 7.43837C9.66713 7.33798 9.73338 7.24964 9.77354 7.17335C9.81369 7.09504 9.83377 7.01574 9.83377 6.93543C9.83377 6.73064 9.71029 6.62824 9.46334 6.62824C9.2706 6.62824 9.09291 6.70052 8.93028 6.84508L8.80078 6.55596C8.88511 6.47967 8.99051 6.41843 9.117 6.37225C9.24349 6.32607 9.375 6.30298 9.51153 6.30298C9.7384 6.30298 9.91207 6.35418 10.0325 6.45658C10.155 6.55897 10.2162 6.70554 10.2162 6.89628C10.2162 7.02477 10.1851 7.14825 10.1229 7.26671C10.0627 7.38516 9.96729 7.51266 9.83678 7.64918L9.36998 8.13707H10.2976V8.4563H8.88812ZM11.1938 8.48642C11.0814 8.48642 10.97 8.46533 10.8596 8.42317C10.7491 8.379 10.6538 8.31977 10.5735 8.24548L10.703 7.95637C10.7752 8.02463 10.8535 8.07583 10.9379 8.10996C11.0242 8.14409 11.1105 8.16116 11.1969 8.16116C11.3735 8.16116 11.5081 8.09992 11.6004 7.97745C11.6928 7.85498 11.739 7.67227 11.739 7.42933V7.33898C11.6988 7.44941 11.6315 7.53675 11.5372 7.601C11.4428 7.66324 11.3324 7.69436 11.2059 7.69436C11.0854 7.69436 10.978 7.66524 10.8837 7.60702C10.7893 7.54879 10.714 7.46848 10.6578 7.36609C10.6036 7.26169 10.5765 7.14423 10.5765 7.01373C10.5765 6.87519 10.6066 6.75272 10.6668 6.64631C10.727 6.5399 10.8094 6.45658 10.9138 6.39635C11.0202 6.33411 11.1416 6.30298 11.2782 6.30298C11.5432 6.30298 11.747 6.39534 11.8895 6.58005C12.0321 6.76276 12.1034 7.02176 12.1034 7.35705C12.1034 7.71443 12.0231 7.99251 11.8624 8.19128C11.7018 8.38804 11.4789 8.48642 11.1938 8.48642ZM11.3023 7.38717C11.4107 7.38717 11.498 7.35204 11.5643 7.28176C11.6325 7.20948 11.6667 7.11512 11.6667 6.99867C11.6667 6.88222 11.6325 6.78786 11.5643 6.71558C11.498 6.6433 11.4107 6.60716 11.3023 6.60716C11.1938 6.60716 11.1055 6.6433 11.0372 6.71558C10.971 6.78786 10.9379 6.88222 10.9379 6.99867C10.9379 7.11512 10.971 7.20948 11.0372 7.28176C11.1055 7.35204 11.1938 7.38717 11.3023 7.38717Z" fill="#E8E8E8"/>
<path d="M20.3496 3.6278C20.3496 3.15258 20.7349 2.76733 21.2101 2.76733H32.3961C32.8713 2.76733 33.2566 3.15258 33.2566 3.6278V14.8138C33.2566 15.2891 32.8713 15.6743 32.3961 15.6743H21.2101C20.7349 15.6743 20.3496 15.2891 20.3496 14.8138V3.6278Z" fill="white"/>
<path d="M25.8581 8.48642C25.7136 8.48642 25.575 8.46533 25.4425 8.42317C25.312 8.379 25.2036 8.31977 25.1173 8.24548L25.2438 7.95035C25.4244 8.09089 25.6252 8.16116 25.8461 8.16116C26.1171 8.16116 26.2526 8.05475 26.2526 7.84193C26.2526 7.74154 26.2185 7.66725 26.1503 7.61907C26.084 7.56887 25.9866 7.54378 25.8581 7.54378H25.5178V7.22454H25.822C25.9344 7.22454 26.0238 7.19744 26.09 7.14323C26.1563 7.08701 26.1894 7.00971 26.1894 6.91133C26.1894 6.81898 26.1583 6.74871 26.096 6.70052C26.0358 6.65233 25.9475 6.62824 25.831 6.62824C25.6222 6.62824 25.4385 6.70052 25.2799 6.84508L25.1534 6.55596C25.2377 6.47565 25.3431 6.41341 25.4696 6.36924C25.5961 6.32507 25.7276 6.30298 25.8641 6.30298C26.085 6.30298 26.2567 6.35318 26.3791 6.45357C26.5016 6.55195 26.5628 6.68948 26.5628 6.86616C26.5628 6.9806 26.5337 7.08099 26.4755 7.16732C26.4173 7.25366 26.338 7.3159 26.2376 7.35404C26.3601 7.38817 26.4554 7.45142 26.5237 7.54378C26.592 7.63412 26.6261 7.74455 26.6261 7.87505C26.6261 8.06378 26.5578 8.21336 26.4213 8.32379C26.2848 8.43221 26.097 8.48642 25.8581 8.48642ZM27.7061 8.48642C27.4551 8.48642 27.2634 8.39205 27.1309 8.20332C26.9984 8.01259 26.9321 7.74154 26.9321 7.39018C26.9321 7.03481 26.9984 6.76477 27.1309 6.58005C27.2634 6.39534 27.4551 6.30298 27.7061 6.30298C27.9591 6.30298 28.1508 6.39534 28.2813 6.58005C28.4138 6.76477 28.4801 7.03381 28.4801 7.38717C28.4801 7.74054 28.4138 8.01259 28.2813 8.20332C28.1488 8.39205 27.9571 8.48642 27.7061 8.48642ZM27.7061 8.17019C27.8426 8.17019 27.943 8.10795 28.0072 7.98347C28.0735 7.85698 28.1066 7.65822 28.1066 7.38717C28.1066 7.11813 28.0735 6.92338 28.0072 6.80292C27.943 6.68044 27.8426 6.61921 27.7061 6.61921C27.5716 6.61921 27.4712 6.68044 27.4049 6.80292C27.3387 6.92338 27.3055 7.11813 27.3055 7.38717C27.3055 7.65822 27.3387 7.85698 27.4049 7.98347C27.4712 8.10795 27.5716 8.17019 27.7061 8.17019Z" fill="#E8E8E8"/>
<path d="M36.6973 3.6278C36.6973 3.15258 37.0825 2.76733 37.5577 2.76733H48.7438C49.219 2.76733 49.6042 3.15258 49.6042 3.6278V14.8138C49.6042 15.2891 49.219 15.6743 48.7438 15.6743H37.5577C37.0825 15.6743 36.6973 15.2891 36.6973 14.8138V3.6278Z" fill="white"/>
<path d="M42.2058 8.48642C42.0612 8.48642 41.9227 8.46533 41.7902 8.42317C41.6597 8.379 41.5513 8.31977 41.4649 8.24548L41.5914 7.95035C41.7721 8.09089 41.9729 8.16116 42.1937 8.16116C42.4648 8.16116 42.6003 8.05475 42.6003 7.84193C42.6003 7.74154 42.5662 7.66725 42.4979 7.61907C42.4317 7.56887 42.3343 7.54378 42.2058 7.54378H41.8655V7.22454H42.1696C42.2821 7.22454 42.3714 7.19744 42.4377 7.14323C42.5039 7.08701 42.5371 7.00971 42.5371 6.91133C42.5371 6.81898 42.5059 6.74871 42.4437 6.70052C42.3835 6.65233 42.2951 6.62824 42.1787 6.62824C41.9699 6.62824 41.7862 6.70052 41.6275 6.84508L41.5011 6.55596C41.5854 6.47565 41.6908 6.41341 41.8173 6.36924C41.9438 6.32507 42.0753 6.30298 42.2118 6.30298C42.4327 6.30298 42.6043 6.35318 42.7268 6.45357C42.8493 6.55195 42.9105 6.68948 42.9105 6.86616C42.9105 6.9806 42.8814 7.08099 42.8232 7.16732C42.7649 7.25366 42.6856 7.3159 42.5852 7.35404C42.7077 7.38817 42.8031 7.45142 42.8713 7.54378C42.9396 7.63412 42.9737 7.74455 42.9737 7.87505C42.9737 8.06378 42.9055 8.21336 42.769 8.32379C42.6324 8.43221 42.4447 8.48642 42.2058 8.48642ZM43.4785 8.4563V8.13707H43.9574V6.7728L43.5869 6.99566L43.4364 6.71257L44.0688 6.3331H44.3429V8.13707H44.7916V8.4563H43.4785Z" fill="#E8E8E8"/>
<path d="M53.0469 3.6278C53.0469 3.15258 53.4321 2.76733 53.9073 2.76733H65.0934C65.5686 2.76733 65.9539 3.15258 65.9539 3.6278V14.8138C65.9539 15.2891 65.5686 15.6743 65.0934 15.6743H53.9073C53.4321 15.6743 53.0469 15.2891 53.0469 14.8138V3.6278Z" fill="white"/>
<path d="M58.9252 8.4563V8.13707H59.4041V6.7728L59.0336 6.99566L58.8831 6.71257L59.5155 6.3331H59.7896V8.13707H60.2383V8.4563H58.9252Z" fill="#414141"/>
<path d="M69.3945 3.6278C69.3945 3.15258 69.7798 2.76733 70.255 2.76733H81.441C81.9163 2.76733 82.3015 3.15258 82.3015 3.6278V14.8138C82.3015 15.2891 81.9163 15.6743 81.441 15.6743H70.255C69.7798 15.6743 69.3945 15.2891 69.3945 14.8138V3.6278Z" fill="white"/>
<path d="M75.1855 8.4563V8.17019L75.8722 7.43837C75.9646 7.33798 76.0308 7.24964 76.071 7.17335C76.1111 7.09504 76.1312 7.01574 76.1312 6.93543C76.1312 6.73064 76.0077 6.62824 75.7608 6.62824C75.568 6.62824 75.3903 6.70052 75.2277 6.84508L75.0982 6.55596C75.1825 6.47967 75.2879 6.41843 75.4144 6.37225C75.5409 6.32607 75.6724 6.30298 75.809 6.30298C76.0358 6.30298 76.2095 6.35418 76.33 6.45658C76.4524 6.55897 76.5137 6.70554 76.5137 6.89628C76.5137 7.02477 76.4826 7.14825 76.4203 7.26671C76.3601 7.38516 76.2647 7.51266 76.1342 7.64918L75.6674 8.13707H76.595V8.4563H75.1855Z" fill="#414141"/>
<path d="M85.7441 3.6278C85.7441 3.15258 86.1294 2.76733 86.6046 2.76733H97.7907C98.2659 2.76733 98.6511 3.15258 98.6511 3.6278V14.8138C98.6511 15.2891 98.2659 15.6743 97.7907 15.6743H86.6046C86.1294 15.6743 85.7441 15.2891 85.7441 14.8138V3.6278Z" fill="white"/>
<path d="M92.1556 8.48642C92.011 8.48642 91.8725 8.46533 91.7399 8.42317C91.6094 8.379 91.501 8.31977 91.4147 8.24548L91.5412 7.95035C91.7219 8.09089 91.9227 8.16116 92.1435 8.16116C92.4146 8.16116 92.5501 8.05475 92.5501 7.84193C92.5501 7.74154 92.5159 7.66725 92.4477 7.61907C92.3814 7.56887 92.2841 7.54378 92.1556 7.54378H91.8152V7.22454H92.1194C92.2318 7.22454 92.3212 7.19744 92.3874 7.14323C92.4537 7.08701 92.4868 7.00971 92.4868 6.91133C92.4868 6.81898 92.4557 6.74871 92.3935 6.70052C92.3332 6.65233 92.2449 6.62824 92.1284 6.62824C91.9196 6.62824 91.7359 6.70052 91.5773 6.84508L91.4508 6.55596C91.5352 6.47565 91.6406 6.41341 91.7671 6.36924C91.8935 6.32507 92.0251 6.30298 92.1616 6.30298C92.3824 6.30298 92.5541 6.35318 92.6766 6.45357C92.799 6.55195 92.8603 6.68948 92.8603 6.86616C92.8603 6.9806 92.8312 7.08099 92.7729 7.16732C92.7147 7.25366 92.6354 7.3159 92.535 7.35404C92.6575 7.38817 92.7529 7.45142 92.8211 7.54378C92.8894 7.63412 92.9235 7.74455 92.9235 7.87505C92.9235 8.06378 92.8553 8.21336 92.7187 8.32379C92.5822 8.43221 92.3945 8.48642 92.1556 8.48642Z" fill="#414141"/>
<path d="M102.094 3.6278C102.094 3.15258 102.479 2.76733 102.954 2.76733H114.14C114.615 2.76733 115.001 3.15258 115.001 3.6278V14.8138C115.001 15.2891 114.615 15.6743 114.14 15.6743H102.954C102.479 15.6743 102.094 15.2891 102.094 14.8138V3.6278Z" fill="white"/>
<path d="M108.695 8.4563V8.05274H107.77V7.76965L108.761 6.3331H109.08V7.73351H109.379V8.05274H109.08V8.4563H108.695ZM108.695 7.73351V6.92338L108.141 7.73351H108.695Z" fill="#414141"/>
<path d="M4 18.2557C4 17.7805 4.38524 17.3953 4.86046 17.3953H16.0465C16.5217 17.3953 16.907 17.7805 16.907 18.2557V29.4418C16.907 29.917 16.5217 30.3022 16.0465 30.3022H4.86046C4.38524 30.3022 4 29.917 4 29.4418V18.2557Z" fill="white"/>
<path d="M10.4716 23.1143C10.3331 23.1143 10.1986 23.0933 10.0681 23.0511C9.93758 23.0069 9.83117 22.9477 9.74886 22.8734L9.87534 22.5783C10.058 22.7188 10.2548 22.7891 10.4656 22.7891C10.5921 22.7891 10.6905 22.757 10.7608 22.6927C10.833 22.6265 10.8692 22.5381 10.8692 22.4277C10.8692 22.3153 10.835 22.2249 10.7668 22.1566C10.6985 22.0864 10.6052 22.0512 10.4867 22.0512C10.3181 22.0512 10.1785 22.1185 10.0681 22.253H9.80909V20.961H11.1131V21.2803H10.1855V21.8555C10.292 21.7752 10.4225 21.735 10.5771 21.735C10.7116 21.735 10.828 21.7641 10.9264 21.8224C11.0268 21.8786 11.1041 21.9579 11.1583 22.0603C11.2145 22.1607 11.2426 22.2781 11.2426 22.4126C11.2426 22.5512 11.2115 22.6736 11.1493 22.7801C11.087 22.8845 10.9977 22.9668 10.8812 23.027C10.7668 23.0852 10.6303 23.1143 10.4716 23.1143Z" fill="#414141"/>
<path d="M20.3496 18.2557C20.3496 17.7805 20.7349 17.3953 21.2101 17.3953H32.3961C32.8713 17.3953 33.2566 17.7805 33.2566 18.2557V29.4418C33.2566 29.917 32.8713 30.3022 32.3961 30.3022H21.2101C20.7349 30.3022 20.3496 29.917 20.3496 29.4418V18.2557Z" fill="white"/>
<path d="M26.8815 23.1143C26.6185 23.1143 26.4147 23.022 26.2701 22.8373C26.1276 22.6526 26.0563 22.3936 26.0563 22.0603C26.0563 21.7009 26.1366 21.4228 26.2972 21.2261C26.4599 21.0293 26.6837 20.9309 26.9688 20.9309C27.0813 20.9309 27.1927 20.952 27.3031 20.9942C27.4135 21.0343 27.5079 21.0925 27.5862 21.1688L27.4597 21.4579C27.3854 21.3897 27.3061 21.3395 27.2218 21.3074C27.1375 21.2732 27.0511 21.2562 26.9628 21.2562C26.7881 21.2562 26.6546 21.3174 26.5623 21.4399C26.4699 21.5624 26.4237 21.7451 26.4237 21.988V22.0753C26.4659 21.9649 26.5341 21.8786 26.6285 21.8163C26.7229 21.7541 26.8313 21.723 26.9538 21.723C27.0762 21.723 27.1847 21.7521 27.279 21.8103C27.3734 21.8685 27.4477 21.9488 27.5019 22.0512C27.5561 22.1536 27.5832 22.2711 27.5832 22.4036C27.5832 22.5401 27.5531 22.6626 27.4928 22.771C27.4346 22.8774 27.3523 22.9618 27.2459 23.024C27.1415 23.0842 27.02 23.1143 26.8815 23.1143ZM26.8604 22.8072C26.9688 22.8072 27.0562 22.772 27.1224 22.7018C27.1907 22.6295 27.2248 22.5351 27.2248 22.4187C27.2248 22.3022 27.1907 22.2078 27.1224 22.1356C27.0562 22.0633 26.9688 22.0271 26.8604 22.0271C26.752 22.0271 26.6636 22.0633 26.5954 22.1356C26.5291 22.2078 26.496 22.3022 26.496 22.4187C26.496 22.5351 26.5291 22.6295 26.5954 22.7018C26.6636 22.772 26.752 22.8072 26.8604 22.8072Z" fill="#414141"/>
<path d="M36.6973 18.2557C36.6973 17.7805 37.0825 17.3953 37.5577 17.3953H48.7438C49.219 17.3953 49.6042 17.7805 49.6042 18.2557V29.4418C49.6042 29.917 49.219 30.3022 48.7438 30.3022H37.5577C37.0825 30.3022 36.6973 29.917 36.6973 29.4418V18.2557Z" fill="white"/>
<path d="M42.5064 23.0842L43.4641 21.2833H42.413V20.961H43.8917V21.2501L42.931 23.0842H42.5064Z" fill="#414141"/>
<path d="M53.0469 18.2557C53.0469 17.7805 53.4321 17.3953 53.9073 17.3953H65.0934C65.5686 17.3953 65.9539 17.7805 65.9539 18.2557V29.4418C65.9539 29.917 65.5686 30.3022 65.0934 30.3022H53.9073C53.4321 30.3022 53.0469 29.917 53.0469 29.4418V18.2557Z" fill="white"/>
<path d="M59.5005 23.1143C59.2535 23.1143 59.0598 23.0611 58.9192 22.9547C58.7807 22.8483 58.7114 22.7007 58.7114 22.512C58.7114 22.3835 58.7445 22.2741 58.8108 22.1838C58.8791 22.0934 58.9674 22.0302 59.0758 21.994C58.9794 21.9519 58.9031 21.8876 58.8469 21.8013C58.7927 21.7149 58.7656 21.6156 58.7656 21.5031C58.7656 21.3244 58.8319 21.1849 58.9644 21.0845C59.0969 20.9821 59.2756 20.9309 59.5005 20.9309C59.7273 20.9309 59.907 20.9821 60.0395 21.0845C60.172 21.1849 60.2383 21.3244 60.2383 21.5031C60.2383 21.6156 60.2102 21.7159 60.154 21.8043C60.0998 21.8906 60.0255 21.9539 59.9311 21.994C60.0395 22.0302 60.1259 22.0944 60.1901 22.1868C60.2564 22.2771 60.2895 22.3855 60.2895 22.512C60.2895 22.7007 60.2192 22.8483 60.0787 22.9547C59.9401 23.0611 59.7474 23.1143 59.5005 23.1143ZM59.5005 21.8585C59.6189 21.8585 59.7113 21.8304 59.7775 21.7742C59.8458 21.718 59.8799 21.6407 59.8799 21.5423C59.8799 21.4459 59.8458 21.3706 59.7775 21.3164C59.7113 21.2602 59.6189 21.2321 59.5005 21.2321C59.382 21.2321 59.2896 21.2602 59.2234 21.3164C59.1571 21.3706 59.124 21.4459 59.124 21.5423C59.124 21.6407 59.1571 21.718 59.2234 21.7742C59.2896 21.8304 59.382 21.8585 59.5005 21.8585ZM59.5005 22.8132C59.7876 22.8132 59.9311 22.7038 59.9311 22.4849C59.9311 22.2681 59.7876 22.1597 59.5005 22.1597C59.3599 22.1597 59.2525 22.1868 59.1782 22.241C59.1059 22.2952 59.0698 22.3765 59.0698 22.4849C59.0698 22.5933 59.1059 22.6757 59.1782 22.7319C59.2525 22.7861 59.3599 22.8132 59.5005 22.8132Z" fill="#414141"/>
<path d="M69.3945 18.2557C69.3945 17.7805 69.7798 17.3953 70.255 17.3953H81.441C81.9163 17.3953 82.3015 17.7805 82.3015 18.2557V29.4418C82.3015 29.917 81.9163 30.3022 81.441 30.3022H70.255C69.7798 30.3022 69.3945 29.917 69.3945 29.4418V18.2557Z" fill="white"/>
<path d="M75.6855 23.1143C75.573 23.1143 75.4616 23.0933 75.3512 23.0511C75.2408 23.0069 75.1454 22.9477 75.0651 22.8734L75.1946 22.5843C75.2669 22.6526 75.3452 22.7038 75.4295 22.7379C75.5158 22.772 75.6022 22.7891 75.6885 22.7891C75.8652 22.7891 75.9997 22.7279 76.092 22.6054C76.1844 22.4829 76.2306 22.3002 76.2306 22.0573V21.9669C76.1904 22.0773 76.1232 22.1647 76.0288 22.2289C75.9344 22.2912 75.824 22.3223 75.6975 22.3223C75.5771 22.3223 75.4696 22.2932 75.3753 22.2349C75.2809 22.1767 75.2056 22.0964 75.1494 21.994C75.0952 21.8896 75.0681 21.7722 75.0681 21.6417C75.0681 21.5031 75.0982 21.3807 75.1584 21.2742C75.2187 21.1678 75.301 21.0845 75.4054 21.0243C75.5118 20.962 75.6333 20.9309 75.7698 20.9309C76.0348 20.9309 76.2386 21.0233 76.3812 21.208C76.5237 21.3907 76.595 21.6497 76.595 21.985C76.595 22.3424 76.5147 22.6204 76.3541 22.8192C76.1934 23.016 75.9706 23.1143 75.6855 23.1143ZM75.7939 22.0151C75.9023 22.0151 75.9897 21.98 76.0559 21.9097C76.1242 21.8374 76.1583 21.7431 76.1583 21.6266C76.1583 21.5102 76.1242 21.4158 76.0559 21.3435C75.9897 21.2712 75.9023 21.2351 75.7939 21.2351C75.6855 21.2351 75.5971 21.2712 75.5289 21.3435C75.4626 21.4158 75.4295 21.5102 75.4295 21.6266C75.4295 21.7431 75.4626 21.8374 75.5289 21.9097C75.5971 21.98 75.6855 22.0151 75.7939 22.0151Z" fill="#414141"/>
<path d="M85.7441 18.2557C85.7441 17.7805 86.1294 17.3953 86.6046 17.3953H97.7907C98.2659 17.3953 98.6511 17.7805 98.6511 18.2557V29.4418C98.6511 29.917 98.2659 30.3022 97.7907 30.3022H86.6046C86.1294 30.3022 85.7441 29.917 85.7441 29.4418V18.2557Z" fill="white"/>
<path d="M90.7196 23.0842V22.765H91.1984V21.4007L90.828 21.6236L90.6774 21.3405L91.3099 20.961H91.5839V22.765H92.0327V23.0842H90.7196ZM93.1006 23.1143C92.8496 23.1143 92.6579 23.02 92.5254 22.8313C92.3929 22.6405 92.3266 22.3695 92.3266 22.0181C92.3266 21.6627 92.3929 21.3927 92.5254 21.208C92.6579 21.0233 92.8496 20.9309 93.1006 20.9309C93.3536 20.9309 93.5453 21.0233 93.6758 21.208C93.8084 21.3927 93.8746 21.6617 93.8746 22.0151C93.8746 22.3685 93.8084 22.6405 93.6758 22.8313C93.5433 23.02 93.3516 23.1143 93.1006 23.1143ZM93.1006 22.7981C93.2371 22.7981 93.3375 22.7359 93.4018 22.6114C93.468 22.4849 93.5012 22.2861 93.5012 22.0151C93.5012 21.7461 93.468 21.5513 93.4018 21.4308C93.3375 21.3084 93.2371 21.2471 93.1006 21.2471C92.9661 21.2471 92.8657 21.3084 92.7995 21.4308C92.7332 21.5513 92.7001 21.7461 92.7001 22.0151C92.7001 22.2861 92.7332 22.4849 92.7995 22.6114C92.8657 22.7359 92.9661 22.7981 93.1006 22.7981Z" fill="#414141"/>
<path d="M102.094 18.2557C102.094 17.7805 102.479 17.3953 102.954 17.3953H114.14C114.615 17.3953 115.001 17.7805 115.001 18.2557V29.4418C115.001 29.917 114.615 30.3022 114.14 30.3022H102.954C102.479 30.3022 102.094 29.917 102.094 29.4418V18.2557Z" fill="white"/>
<path d="M107.069 23.0842V22.765H107.548V21.4007L107.178 21.6236L107.027 21.3405L107.659 20.961H107.934V22.765H108.382V23.0842H107.069ZM108.875 23.0842V22.765H109.354V21.4007L108.983 21.6236L108.833 21.3405L109.465 20.961H109.739V22.765H110.188V23.0842H108.875Z" fill="#414141"/>
<path d="M4 32.8837C4 32.4084 4.38524 32.0232 4.86046 32.0232H16.0465C16.5217 32.0232 16.907 32.4084 16.907 32.8837V44.0697C16.907 44.5449 16.5217 44.9302 16.0465 44.9302H4.86046C4.38524 44.9302 4 44.5449 4 44.0697V32.8837Z" fill="white"/>
<path d="M8.97546 37.7122V37.3929H9.4543V36.0287L9.08387 36.2515L8.93329 35.9684L9.56573 35.589H9.83979V37.3929H10.2885V37.7122H8.97546ZM10.6939 37.7122V37.4261L11.3806 36.6942C11.4729 36.5938 11.5392 36.5055 11.5793 36.4292C11.6195 36.3509 11.6396 36.2716 11.6396 36.1913C11.6396 35.9865 11.5161 35.8841 11.2691 35.8841C11.0764 35.8841 10.8987 35.9564 10.7361 36.1009L10.6066 35.8118C10.6909 35.7355 10.7963 35.6743 10.9228 35.6281C11.0493 35.5819 11.1808 35.5588 11.3173 35.5588C11.5442 35.5588 11.7179 35.61 11.8383 35.7124C11.9608 35.8148 12.022 35.9614 12.022 36.1521C12.022 36.2806 11.9909 36.4041 11.9287 36.5226C11.8685 36.641 11.7731 36.7685 11.6426 36.905L11.1758 37.3929H12.1034V37.7122H10.6939Z" fill="#414141"/>
<path d="M20.3496 32.8837C20.3496 32.4084 20.7349 32.0232 21.2101 32.0232H32.3961C32.8713 32.0232 33.2566 32.4084 33.2566 32.8837V44.0697C33.2566 44.5449 32.8713 44.9302 32.3961 44.9302H21.2101C20.7349 44.9302 20.3496 44.5449 20.3496 44.0697V32.8837Z" fill="white"/>
<path d="M25.3251 37.7122V37.3929H25.8039V36.0287L25.4335 36.2515L25.2829 35.9684L25.9153 35.589H26.1894V37.3929H26.6381V37.7122H25.3251ZM27.6639 37.7423C27.5194 37.7423 27.3808 37.7212 27.2483 37.679C27.1178 37.6349 27.0094 37.5756 26.9231 37.5013L27.0496 37.2062C27.2302 37.3467 27.431 37.417 27.6519 37.417C27.9229 37.417 28.0584 37.3106 28.0584 37.0978C28.0584 36.9974 28.0243 36.9231 27.9561 36.8749C27.8898 36.8247 27.7924 36.7996 27.6639 36.7996H27.3236V36.4804H27.6278C27.7402 36.4804 27.8296 36.4533 27.8958 36.3991C27.9621 36.3429 27.9952 36.2656 27.9952 36.1672C27.9952 36.0748 27.9641 36.0046 27.9018 35.9564C27.8416 35.9082 27.7533 35.8841 27.6368 35.8841C27.428 35.8841 27.2443 35.9564 27.0857 36.1009L26.9592 35.8118C27.0435 35.7315 27.1489 35.6693 27.2754 35.6251C27.4019 35.5809 27.5334 35.5588 27.6699 35.5588C27.8908 35.5588 28.0625 35.609 28.1849 35.7094C28.3074 35.8078 28.3686 35.9453 28.3686 36.122C28.3686 36.2365 28.3395 36.3368 28.2813 36.4232C28.2231 36.5095 28.1438 36.5718 28.0434 36.6099C28.1659 36.644 28.2612 36.7073 28.3295 36.7996C28.3978 36.89 28.4319 37.0004 28.4319 37.1309C28.4319 37.3196 28.3636 37.4692 28.2271 37.5796C28.0906 37.6881 27.9028 37.7423 27.6639 37.7423Z" fill="#414141"/>
<path d="M36.6973 32.8837C36.6973 32.4084 37.0825 32.0232 37.5577 32.0232H48.7438C49.219 32.0232 49.6042 32.4084 49.6042 32.8837V44.0697C49.6042 44.5449 49.219 44.9302 48.7438 44.9302H37.5577C37.0825 44.9302 36.6973 44.5449 36.6973 44.0697V32.8837Z" fill="white"/>
<path d="M41.6727 37.7122V37.3929H42.1516V36.0287L41.7811 36.2515L41.6306 35.9684L42.263 35.589H42.5371V37.3929H42.9858V37.7122H41.6727ZM44.2013 37.7122V37.3086H43.2767V37.0255L44.2676 35.589H44.5868V36.9894H44.885V37.3086H44.5868V37.7122H44.2013ZM44.2013 36.9894V36.1792L43.6472 36.9894H44.2013Z" fill="#414141"/>
<path d="M53.0469 32.8837C53.0469 32.4084 53.4321 32.0232 53.9073 32.0232H65.0934C65.5686 32.0232 65.9539 32.4084 65.9539 32.8837V44.0697C65.9539 44.5449 65.5686 44.9302 65.0934 44.9302H53.9073C53.4321 44.9302 53.0469 44.5449 53.0469 44.0697V32.8837Z" fill="white"/>
<path d="M58.0223 37.7122V37.3929H58.5012V36.0287L58.1307 36.2515L57.9802 35.9684L58.6126 35.589H58.8867V37.3929H59.3354V37.7122H58.0223ZM60.4214 37.7423C60.2829 37.7423 60.1484 37.7212 60.0179 37.679C59.8874 37.6349 59.7809 37.5756 59.6986 37.5013L59.8251 37.2062C60.0078 37.3467 60.2046 37.417 60.4154 37.417C60.5419 37.417 60.6403 37.3849 60.7105 37.3206C60.7828 37.2544 60.819 37.166 60.819 37.0556C60.819 36.9432 60.7848 36.8528 60.7166 36.7846C60.6483 36.7143 60.5549 36.6792 60.4365 36.6792C60.2678 36.6792 60.1283 36.7464 60.0179 36.8809H59.7589V35.589H61.0629V35.9082H60.1353V36.4834C60.2417 36.4031 60.3722 36.3629 60.5268 36.3629C60.6613 36.3629 60.7778 36.3921 60.8762 36.4503C60.9766 36.5065 61.0539 36.5858 61.1081 36.6882C61.1643 36.7886 61.1924 36.906 61.1924 37.0406C61.1924 37.1791 61.1613 37.3016 61.099 37.408C61.0368 37.5124 60.9475 37.5947 60.831 37.6549C60.7166 37.7132 60.58 37.7423 60.4214 37.7423Z" fill="#414141"/>
<path d="M70.255 32.2383H81.441C81.7975 32.2383 82.0864 32.5272 82.0864 32.8837V44.0697C82.0864 44.4261 81.7975 44.7151 81.441 44.7151H70.255C69.8986 44.7151 69.6096 44.4261 69.6096 44.0697V32.8837C69.6096 32.5272 69.8986 32.2383 70.255 32.2383Z" fill="#C8F8FE"/>
<path d="M70.255 32.2383H81.441C81.7975 32.2383 82.0864 32.5272 82.0864 32.8837V44.0697C82.0864 44.4261 81.7975 44.7151 81.441 44.7151H70.255C69.8986 44.7151 69.6096 44.4261 69.6096 44.0697V32.8837C69.6096 32.5272 69.8986 32.2383 70.255 32.2383Z" stroke="#19737D" stroke-width="0.430233"/>
<path d="M74.3714 38.9766V38.6573H74.8503V37.2931L74.4799 37.5159L74.3293 37.2328L74.9617 36.8534H75.2358V38.6573H75.6845V38.9766H74.3714ZM76.8308 39.0067C76.5677 39.0067 76.364 38.9143 76.2194 38.7296C76.0769 38.5449 76.0056 38.2859 76.0056 37.9526C76.0056 37.5932 76.0859 37.3151 76.2465 37.1184C76.4091 36.9216 76.633 36.8232 76.9181 36.8232C77.0305 36.8232 77.142 36.8443 77.2524 36.8865C77.3628 36.9266 77.4572 36.9849 77.5355 37.0612L77.409 37.3503C77.3347 37.282 77.2554 37.2318 77.1711 37.1997C77.0868 37.1656 77.0004 37.1485 76.9121 37.1485C76.7374 37.1485 76.6039 37.2097 76.5115 37.3322C76.4192 37.4547 76.373 37.6374 76.373 37.8803V37.9677C76.4152 37.8572 76.4834 37.7709 76.5778 37.7087C76.6722 37.6464 76.7806 37.6153 76.903 37.6153C77.0255 37.6153 77.1339 37.6444 77.2283 37.7026C77.3227 37.7609 77.3969 37.8412 77.4512 37.9436C77.5054 38.046 77.5325 38.1634 77.5325 38.2959C77.5325 38.4325 77.5024 38.5549 77.4421 38.6634C77.3839 38.7698 77.3016 38.8541 77.1952 38.9163C77.0908 38.9766 76.9693 39.0067 76.8308 39.0067ZM76.8097 38.6995C76.9181 38.6995 77.0054 38.6644 77.0717 38.5941C77.14 38.5218 77.1741 38.4274 77.1741 38.311C77.1741 38.1945 77.14 38.1002 77.0717 38.0279C77.0054 37.9556 76.9181 37.9195 76.8097 37.9195C76.7013 37.9195 76.6129 37.9556 76.5447 38.0279C76.4784 38.1002 76.4453 38.1945 76.4453 38.311C76.4453 38.4274 76.4784 38.5218 76.5447 38.5941C76.6129 38.6644 76.7013 38.6995 76.8097 38.6995Z" fill="#414141"/>
<path d="M86.6046 32.1308H97.7907C98.2065 32.1308 98.5436 32.4678 98.5436 32.8837V44.0697C98.5436 44.4855 98.2065 44.8226 97.7907 44.8226H86.6046C86.1888 44.8226 85.8517 44.4855 85.8517 44.0697V32.8837C85.8517 32.4678 86.1888 32.1308 86.6046 32.1308Z" fill="white"/>
<path d="M86.6046 32.1308H97.7907C98.2065 32.1308 98.5436 32.4678 98.5436 32.8837V44.0697C98.5436 44.4855 98.2065 44.8226 97.7907 44.8226H86.6046C86.1888 44.8226 85.8517 44.4855 85.8517 44.0697V32.8837C85.8517 32.4678 86.1888 32.1308 86.6046 32.1308Z" stroke="#C6C6C6" stroke-width="0.215116"/>
<path d="M90.721 38.9766V38.6573H91.1999V37.2931L90.8295 37.5159L90.6789 37.2328L91.3113 36.8534H91.5854V38.6573H92.0341V38.9766H90.721ZM92.4576 38.9766L93.4153 37.1756H92.3642V36.8534H93.8429V37.1425L92.8822 38.9766H92.4576Z" fill="#414141"/>
<path d="M102.954 32.1308H114.14C114.556 32.1308 114.893 32.4678 114.893 32.8837V44.0697C114.893 44.4855 114.556 44.8226 114.14 44.8226H102.954C102.538 44.8226 102.201 44.4855 102.201 44.0697V32.8837C102.201 32.4678 102.538 32.1308 102.954 32.1308Z" fill="white"/>
<path d="M102.954 32.1308H114.14C114.556 32.1308 114.893 32.4678 114.893 32.8837V44.0697C114.893 44.4855 114.556 44.8226 114.14 44.8226H102.954C102.538 44.8226 102.201 44.4855 102.201 44.0697V32.8837C102.201 32.4678 102.538 32.1308 102.954 32.1308Z" stroke="#C6C6C6" stroke-width="0.215116"/>
<path d="M107.071 38.9766V38.6573H107.55V37.2931L107.179 37.5159L107.028 37.2328L107.661 36.8534H107.935V38.6573H108.384V38.9766H107.071ZM109.452 39.0067C109.205 39.0067 109.011 38.9535 108.87 38.8471C108.732 38.7407 108.663 38.5931 108.663 38.4044C108.663 38.2759 108.696 38.1664 108.762 38.0761C108.83 37.9857 108.919 37.9225 109.027 37.8864C108.931 37.8442 108.854 37.7799 108.798 37.6936C108.744 37.6073 108.717 37.5079 108.717 37.3955C108.717 37.2168 108.783 37.0772 108.916 36.9768C109.048 36.8744 109.227 36.8232 109.452 36.8232C109.679 36.8232 109.858 36.8744 109.991 36.9768C110.123 37.0772 110.19 37.2168 110.19 37.3955C110.19 37.5079 110.161 37.6083 110.105 37.6966C110.051 37.783 109.977 37.8462 109.882 37.8864C109.991 37.9225 110.077 37.9867 110.141 38.0791C110.208 38.1694 110.241 38.2779 110.241 38.4044C110.241 38.5931 110.17 38.7407 110.03 38.8471C109.891 38.9535 109.699 39.0067 109.452 39.0067ZM109.452 37.7508C109.57 37.7508 109.662 37.7227 109.729 37.6665C109.797 37.6103 109.831 37.533 109.831 37.4346C109.831 37.3382 109.797 37.2629 109.729 37.2087C109.662 37.1525 109.57 37.1244 109.452 37.1244C109.333 37.1244 109.241 37.1525 109.175 37.2087C109.108 37.2629 109.075 37.3382 109.075 37.4346C109.075 37.533 109.108 37.6103 109.175 37.6665C109.241 37.7227 109.333 37.7508 109.452 37.7508ZM109.452 38.7055C109.739 38.7055 109.882 38.5961 109.882 38.3772C109.882 38.1604 109.739 38.052 109.452 38.052C109.311 38.052 109.204 38.0791 109.129 38.1333C109.057 38.1875 109.021 38.2688 109.021 38.3772C109.021 38.4857 109.057 38.568 109.129 38.6242C109.204 38.6784 109.311 38.7055 109.452 38.7055Z" fill="#414141"/>
<path d="M4 47.5113C4 47.0361 4.38524 46.6509 4.86046 46.6509H16.0465C16.5217 46.6509 16.907 47.0361 16.907 47.5113V58.6974C16.907 59.1726 16.5217 59.5579 16.0465 59.5579H4.86046C4.38524 59.5579 4 59.1726 4 58.6974V47.5113Z" fill="white"/>
<path d="M8.97546 52.3398V52.0206H9.4543V50.6563L9.08387 50.8792L8.93329 50.5961L9.56573 50.2166H9.83979V52.0206H10.2885V52.3398H8.97546ZM11.1938 52.37C11.0814 52.37 10.97 52.3489 10.8596 52.3067C10.7491 52.2625 10.6538 52.2033 10.5735 52.129L10.703 51.8399C10.7752 51.9082 10.8535 51.9594 10.9379 51.9935C11.0242 52.0276 11.1105 52.0447 11.1969 52.0447C11.3735 52.0447 11.5081 51.9835 11.6004 51.861C11.6928 51.7385 11.739 51.5558 11.739 51.3129V51.2225C11.6988 51.333 11.6315 51.4203 11.5372 51.4845C11.4428 51.5468 11.3324 51.5779 11.2059 51.5779C11.0854 51.5779 10.978 51.5488 10.8837 51.4906C10.7893 51.4323 10.714 51.352 10.6578 51.2496C10.6036 51.1452 10.5765 51.0278 10.5765 50.8973C10.5765 50.7587 10.6066 50.6363 10.6668 50.5299C10.727 50.4234 10.8094 50.3401 10.9138 50.2799C11.0202 50.2177 11.1416 50.1865 11.2782 50.1865C11.5432 50.1865 11.747 50.2789 11.8895 50.4636C12.0321 50.6463 12.1034 50.9053 12.1034 51.2406C12.1034 51.598 12.0231 51.8761 11.8624 52.0748C11.7018 52.2716 11.4789 52.37 11.1938 52.37ZM11.3023 51.2707C11.4107 51.2707 11.498 51.2356 11.5643 51.1653C11.6325 51.093 11.6667 50.9987 11.6667 50.8822C11.6667 50.7658 11.6325 50.6714 11.5643 50.5991C11.498 50.5268 11.4107 50.4907 11.3023 50.4907C11.1938 50.4907 11.1055 50.5268 11.0372 50.5991C10.971 50.6714 10.9379 50.7658 10.9379 50.8822C10.9379 50.9987 10.971 51.093 11.0372 51.1653C11.1055 51.2356 11.1938 51.2707 11.3023 51.2707Z" fill="#414141"/>
<path d="M20.3496 47.5113C20.3496 47.0361 20.7349 46.6509 21.2101 46.6509H32.3961C32.8713 46.6509 33.2566 47.0361 33.2566 47.5113V58.6974C33.2566 59.1726 32.8713 59.5579 32.3961 59.5579H21.2101C20.7349 59.5579 20.3496 59.1726 20.3496 58.6974V47.5113Z" fill="white"/>
<path d="M25.2377 52.3398V52.0537L25.9244 51.3219C26.0167 51.2215 26.083 51.1332 26.1231 51.0569C26.1633 50.9786 26.1834 50.8993 26.1834 50.819C26.1834 50.6142 26.0599 50.5118 25.8129 50.5118C25.6202 50.5118 25.4425 50.5841 25.2799 50.7286L25.1504 50.4395C25.2347 50.3632 25.3401 50.302 25.4666 50.2558C25.5931 50.2096 25.7246 50.1865 25.8611 50.1865C26.088 50.1865 26.2617 50.2377 26.3821 50.3401C26.5046 50.4425 26.5659 50.5891 26.5659 50.7798C26.5659 50.9083 26.5347 51.0318 26.4725 51.1503C26.4123 51.2687 26.3169 51.3962 26.1864 51.5327L25.7196 52.0206H26.6472V52.3398H25.2377ZM27.7061 52.37C27.4551 52.37 27.2634 52.2756 27.1309 52.0869C26.9984 51.8961 26.9321 51.6251 26.9321 51.2737C26.9321 50.9184 26.9984 50.6483 27.1309 50.4636C27.2634 50.2789 27.4551 50.1865 27.7061 50.1865C27.9591 50.1865 28.1508 50.2789 28.2813 50.4636C28.4138 50.6483 28.4801 50.9174 28.4801 51.2707C28.4801 51.6241 28.4138 51.8961 28.2813 52.0869C28.1488 52.2756 27.9571 52.37 27.7061 52.37ZM27.7061 52.0537C27.8426 52.0537 27.943 51.9915 28.0072 51.867C28.0735 51.7405 28.1066 51.5418 28.1066 51.2707C28.1066 51.0017 28.0735 50.8069 28.0072 50.6865C27.943 50.564 27.8426 50.5028 27.7061 50.5028C27.5716 50.5028 27.4712 50.564 27.4049 50.6865C27.3387 50.8069 27.3055 51.0017 27.3055 51.2707C27.3055 51.5418 27.3387 51.7405 27.4049 51.867C27.4712 51.9915 27.5716 52.0537 27.7061 52.0537Z" fill="#414141"/>
<path d="M36.6973 47.5113C36.6973 47.0361 37.0825 46.6509 37.5577 46.6509H48.7438C49.219 46.6509 49.6042 47.0361 49.6042 47.5113V58.6974C49.6042 59.1726 49.219 59.5579 48.7438 59.5579H37.5577C37.0825 59.5579 36.6973 59.1726 36.6973 58.6974V47.5113Z" fill="white"/>
<path d="M41.5854 52.3398V52.0537L42.272 51.3219C42.3644 51.2215 42.4306 51.1332 42.4708 51.0569C42.511 50.9786 42.531 50.8993 42.531 50.819C42.531 50.6142 42.4076 50.5118 42.1606 50.5118C41.9679 50.5118 41.7902 50.5841 41.6275 50.7286L41.498 50.4395C41.5824 50.3632 41.6878 50.302 41.8143 50.2558C41.9408 50.2096 42.0723 50.1865 42.2088 50.1865C42.4357 50.1865 42.6093 50.2377 42.7298 50.3401C42.8523 50.4425 42.9135 50.5891 42.9135 50.7798C42.9135 50.9083 42.8824 51.0318 42.8202 51.1503C42.7599 51.2687 42.6646 51.3962 42.534 51.5327L42.0672 52.0206H42.9948V52.3398H41.5854ZM43.4785 52.3398V52.0206H43.9574V50.6563L43.5869 50.8792L43.4364 50.5961L44.0688 50.2166H44.3429V52.0206H44.7916V52.3398H43.4785Z" fill="#414141"/>
<path d="M53.9073 46.7584H65.0934C65.5092 46.7584 65.8463 47.0955 65.8463 47.5113V58.6974C65.8463 59.1132 65.5092 59.4503 65.0934 59.4503H53.9073C53.4915 59.4503 53.1544 59.1132 53.1544 58.6974V47.5113C53.1544 47.0955 53.4915 46.7584 53.9073 46.7584Z" fill="white"/>
<path d="M53.9073 46.7584H65.0934C65.5092 46.7584 65.8463 47.0955 65.8463 47.5113V58.6974C65.8463 59.1132 65.5092 59.4503 65.0934 59.4503H53.9073C53.4915 59.4503 53.1544 59.1132 53.1544 58.6974V47.5113C53.1544 47.0955 53.4915 46.7584 53.9073 46.7584Z" stroke="#C6C6C6" stroke-width="0.215116"/>
<path d="M57.9364 53.6042V53.3181L58.6231 52.5863C58.7155 52.4859 58.7817 52.3976 58.8219 52.3213C58.862 52.243 58.8821 52.1637 58.8821 52.0834C58.8821 51.8786 58.7586 51.7762 58.5117 51.7762C58.3189 51.7762 58.1412 51.8485 57.9786 51.993L57.8491 51.7039C57.9334 51.6276 58.0388 51.5664 58.1653 51.5202C58.2918 51.474 58.4233 51.4509 58.5599 51.4509C58.7867 51.4509 58.9604 51.5021 59.0809 51.6045C59.2033 51.7069 59.2646 51.8535 59.2646 52.0442C59.2646 52.1727 59.2335 52.2962 59.1712 52.4147C59.111 52.5331 59.0156 52.6606 58.8851 52.7971L58.4183 53.285H59.3459V53.6042H57.9364ZM59.7422 53.6042V53.3181L60.4289 52.5863C60.5213 52.4859 60.5875 52.3976 60.6277 52.3213C60.6678 52.243 60.6879 52.1637 60.6879 52.0834C60.6879 51.8786 60.5644 51.7762 60.3175 51.7762C60.1247 51.7762 59.947 51.8485 59.7844 51.993L59.6549 51.7039C59.7392 51.6276 59.8446 51.5664 59.9711 51.5202C60.0976 51.474 60.2291 51.4509 60.3657 51.4509C60.5925 51.4509 60.7662 51.5021 60.8867 51.6045C61.0091 51.7069 61.0704 51.8535 61.0704 52.0442C61.0704 52.1727 61.0393 52.2962 60.977 52.4147C60.9168 52.5331 60.8214 52.6606 60.6909 52.7971L60.2241 53.285H61.1517V53.6042H59.7422Z" fill="#414141"/>
<path d="M70.255 46.7584H81.441C81.8569 46.7584 82.1939 47.0955 82.1939 47.5113V58.6974C82.1939 59.1132 81.8569 59.4503 81.441 59.4503H70.255C69.8392 59.4503 69.5021 59.1132 69.5021 58.6974V47.5113C69.5021 47.0955 69.8392 46.7584 70.255 46.7584Z" fill="white"/>
<path d="M70.255 46.7584H81.441C81.8569 46.7584 82.1939 47.0955 82.1939 47.5113V58.6974C82.1939 59.1132 81.8569 59.4503 81.441 59.4503H70.255C69.8392 59.4503 69.5021 59.1132 69.5021 58.6974V47.5113C69.5021 47.0955 69.8392 46.7584 70.255 46.7584Z" stroke="#C6C6C6" stroke-width="0.215116"/>
<path d="M74.2841 53.6042V53.3181L74.9708 52.5863C75.0631 52.4859 75.1294 52.3976 75.1695 52.3213C75.2097 52.243 75.2298 52.1637 75.2298 52.0834C75.2298 51.8786 75.1063 51.7762 74.8593 51.7762C74.6666 51.7762 74.4889 51.8485 74.3263 51.993L74.1968 51.7039C74.2811 51.6276 74.3865 51.5664 74.513 51.5202C74.6395 51.474 74.771 51.4509 74.9075 51.4509C75.1344 51.4509 75.3081 51.5021 75.4285 51.6045C75.551 51.7069 75.6122 51.8535 75.6122 52.0442C75.6122 52.1727 75.5811 52.2962 75.5189 52.4147C75.4586 52.5331 75.3633 52.6606 75.2328 52.7971L74.766 53.285H75.6935V53.6042H74.2841ZM76.7103 53.6344C76.5657 53.6344 76.4272 53.6133 76.2947 53.5711C76.1642 53.5269 76.0558 53.4677 75.9694 53.3934L76.0959 53.0983C76.2766 53.2388 76.4774 53.3091 76.6983 53.3091C76.9693 53.3091 77.1048 53.2027 77.1048 52.9899C77.1048 52.8895 77.0707 52.8152 77.0024 52.767C76.9362 52.7168 76.8388 52.6917 76.7103 52.6917H76.37V52.3725H76.6742C76.7866 52.3725 76.8759 52.3454 76.9422 52.2912C77.0084 52.235 77.0416 52.1577 77.0416 52.0593C77.0416 51.9669 77.0105 51.8967 76.9482 51.8485C76.888 51.8003 76.7996 51.7762 76.6832 51.7762C76.4744 51.7762 76.2907 51.8485 76.1321 51.993L76.0056 51.7039C76.0899 51.6236 76.1953 51.5614 76.3218 51.5172C76.4483 51.473 76.5798 51.4509 76.7163 51.4509C76.9372 51.4509 77.1088 51.5011 77.2313 51.6015C77.3538 51.6999 77.415 51.8374 77.415 52.0141C77.415 52.1286 77.3859 52.2289 77.3277 52.3153C77.2695 52.4016 77.1902 52.4638 77.0898 52.502C77.2122 52.5361 77.3076 52.5994 77.3759 52.6917C77.4441 52.7821 77.4783 52.8925 77.4783 53.023C77.4783 53.2117 77.41 53.3613 77.2735 53.4717C77.1369 53.5802 76.9492 53.6344 76.7103 53.6344Z" fill="#414141"/>
<path d="M86.6046 46.7584H97.7907C98.2065 46.7584 98.5436 47.0955 98.5436 47.5113V58.6974C98.5436 59.1132 98.2065 59.4503 97.7907 59.4503H86.6046C86.1888 59.4503 85.8517 59.1132 85.8517 58.6974V47.5113C85.8517 47.0955 86.1888 46.7584 86.6046 46.7584Z" fill="white"/>
<path d="M86.6046 46.7584H97.7907C98.2065 46.7584 98.5436 47.0955 98.5436 47.5113V58.6974C98.5436 59.1132 98.2065 59.4503 97.7907 59.4503H86.6046C86.1888 59.4503 85.8517 59.1132 85.8517 58.6974V47.5113C85.8517 47.0955 86.1888 46.7584 86.6046 46.7584Z" stroke="#C6C6C6" stroke-width="0.215116"/>
<path d="M90.6337 53.6042V53.3181L91.3204 52.5863C91.4127 52.4859 91.479 52.3976 91.5191 52.3213C91.5593 52.243 91.5794 52.1637 91.5794 52.0834C91.5794 51.8786 91.4559 51.7762 91.2089 51.7762C91.0162 51.7762 90.8385 51.8485 90.6759 51.993L90.5464 51.7039C90.6307 51.6276 90.7361 51.5664 90.8626 51.5202C90.9891 51.474 91.1206 51.4509 91.2571 51.4509C91.484 51.4509 91.6577 51.5021 91.7781 51.6045C91.9006 51.7069 91.9618 51.8535 91.9618 52.0442C91.9618 52.1727 91.9307 52.2962 91.8685 52.4147C91.8082 52.5331 91.7129 52.6606 91.5824 52.7971L91.1156 53.285H92.0432V53.6042H90.6337ZM93.2496 53.6042V53.2007H92.3251V52.9176L93.3159 51.4811H93.6351V52.8815H93.9333V53.2007H93.6351V53.6042H93.2496ZM93.2496 52.8815V52.0713L92.6955 52.8815H93.2496Z" fill="#414141"/>
<path d="M102.954 46.7584H114.14C114.556 46.7584 114.893 47.0955 114.893 47.5113V58.6974C114.893 59.1132 114.556 59.4503 114.14 59.4503H102.954C102.538 59.4503 102.201 59.1132 102.201 58.6974V47.5113C102.201 47.0955 102.538 46.7584 102.954 46.7584Z" fill="white"/>
<path d="M102.954 46.7584H114.14C114.556 46.7584 114.893 47.0955 114.893 47.5113V58.6974C114.893 59.1132 114.556 59.4503 114.14 59.4503H102.954C102.538 59.4503 102.201 59.1132 102.201 58.6974V47.5113C102.201 47.0955 102.538 46.7584 102.954 46.7584Z" stroke="#C6C6C6" stroke-width="0.215116"/>
<path d="M106.983 53.6042V53.3181L107.67 52.5863C107.762 52.4859 107.829 52.3976 107.869 52.3213C107.909 52.243 107.929 52.1637 107.929 52.0834C107.929 51.8786 107.805 51.7762 107.559 51.7762C107.366 51.7762 107.188 51.8485 107.025 51.993L106.896 51.7039C106.98 51.6276 107.086 51.5664 107.212 51.5202C107.339 51.474 107.47 51.4509 107.607 51.4509C107.834 51.4509 108.007 51.5021 108.128 51.6045C108.25 51.7069 108.311 51.8535 108.311 52.0442C108.311 52.1727 108.28 52.2962 108.218 52.4147C108.158 52.5331 108.062 52.6606 107.932 52.7971L107.465 53.285H108.393V53.6042H106.983ZM109.47 53.6344C109.331 53.6344 109.197 53.6133 109.066 53.5711C108.936 53.5269 108.829 53.4677 108.747 53.3934L108.873 53.0983C109.056 53.2388 109.253 53.3091 109.464 53.3091C109.59 53.3091 109.689 53.277 109.759 53.2127C109.831 53.1465 109.867 53.0581 109.867 52.9477C109.867 52.8353 109.833 52.7449 109.765 52.6767C109.697 52.6064 109.603 52.5713 109.485 52.5713C109.316 52.5713 109.177 52.6385 109.066 52.773H108.807V51.4811H110.111V51.8003H109.184V52.3755C109.29 52.2952 109.421 52.255 109.575 52.255C109.71 52.255 109.826 52.2842 109.925 52.3424C110.025 52.3986 110.102 52.4779 110.156 52.5803C110.213 52.6807 110.241 52.7981 110.241 52.9327C110.241 53.0712 110.21 53.1937 110.147 53.3001C110.085 53.4045 109.996 53.4868 109.879 53.547C109.765 53.6053 109.628 53.6344 109.47 53.6344Z" fill="#414141"/>
<path d="M4 62.1395C4 61.6643 4.38524 61.2791 4.86046 61.2791H16.0465C16.5217 61.2791 16.907 61.6643 16.907 62.1395V73.3256C16.907 73.8008 16.5217 74.186 16.0465 74.186H4.86046C4.38524 74.186 4 73.8008 4 73.3256V62.1395Z" fill="#F1F1F1"/>
<path d="M8.88957 68.2327V67.9466L9.57622 67.2147C9.66858 67.1143 9.73484 67.026 9.77499 66.9497C9.81515 66.8714 9.83522 66.7921 9.83522 66.7118C9.83522 66.507 9.71175 66.4046 9.46479 66.4046C9.27205 66.4046 9.09436 66.4769 8.93173 66.6214L8.80223 66.3323C8.88656 66.256 8.99197 66.1948 9.11846 66.1486C9.24494 66.1024 9.37645 66.0794 9.51298 66.0794C9.73985 66.0794 9.91353 66.1305 10.034 66.2329C10.1565 66.3353 10.2177 66.4819 10.2177 66.6726C10.2177 66.8011 10.1866 66.9246 10.1243 67.0431C10.0641 67.1615 9.96874 67.289 9.83823 67.4255L9.37143 67.9134H10.299V68.2327H8.88957ZM11.4362 68.2628C11.1732 68.2628 10.9694 68.1704 10.8249 67.9857C10.6823 67.801 10.611 67.542 10.611 67.2087C10.611 66.8493 10.6914 66.5713 10.852 66.3745C11.0146 66.1777 11.2385 66.0794 11.5236 66.0794C11.636 66.0794 11.7474 66.1004 11.8579 66.1426C11.9683 66.1828 12.0627 66.241 12.141 66.3173L12.0145 66.6064C11.9402 66.5381 11.8609 66.4879 11.7765 66.4558C11.6922 66.4217 11.6059 66.4046 11.5175 66.4046C11.3429 66.4046 11.2094 66.4658 11.117 66.5883C11.0246 66.7108 10.9785 66.8935 10.9785 67.1364V67.2238C11.0206 67.1133 11.0889 67.027 11.1833 66.9648C11.2776 66.9025 11.386 66.8714 11.5085 66.8714C11.631 66.8714 11.7394 66.9005 11.8338 66.9587C11.9281 67.017 12.0024 67.0973 12.0566 67.1997C12.1108 67.3021 12.1379 67.4195 12.1379 67.552C12.1379 67.6886 12.1078 67.811 12.0476 67.9195C11.9894 68.0259 11.9071 68.1102 11.8006 68.1724C11.6962 68.2327 11.5748 68.2628 11.4362 68.2628ZM11.4152 67.9556C11.5236 67.9556 11.6109 67.9205 11.6772 67.8502C11.7454 67.7779 11.7796 67.6835 11.7796 67.5671C11.7796 67.4506 11.7454 67.3563 11.6772 67.284C11.6109 67.2117 11.5236 67.1756 11.4152 67.1756C11.3067 67.1756 11.2184 67.2117 11.1501 67.284C11.0839 67.3563 11.0507 67.4506 11.0507 67.5671C11.0507 67.6835 11.0839 67.7779 11.1501 67.8502C11.2184 67.9205 11.3067 67.9556 11.4152 67.9556Z" fill="#A0A0A0"/>
<path d="M21.2101 61.3866H32.3961C32.8119 61.3866 33.149 61.7237 33.149 62.1395V73.3256C33.149 73.7414 32.8119 74.0785 32.3961 74.0785H21.2101C20.7943 74.0785 20.4572 73.7414 20.4572 73.3256V62.1395C20.4572 61.7237 20.7943 61.3866 21.2101 61.3866Z" fill="white"/>
<path d="M21.2101 61.3866H32.3961C32.8119 61.3866 33.149 61.7237 33.149 62.1395V73.3256C33.149 73.7414 32.8119 74.0785 32.3961 74.0785H21.2101C20.7943 74.0785 20.4572 73.7414 20.4572 73.3256V62.1395C20.4572 61.7237 20.7943 61.3866 21.2101 61.3866Z" stroke="#C6C6C6" stroke-width="0.215116"/>
<path d="M25.2392 68.2324V67.9463L25.9258 67.2145C26.0182 67.1141 26.0844 67.0258 26.1246 66.9495C26.1648 66.8712 26.1848 66.7919 26.1848 66.7115C26.1848 66.5068 26.0614 66.4044 25.8144 66.4044C25.6217 66.4044 25.444 66.4766 25.2813 66.6212L25.1518 66.3321C25.2362 66.2558 25.3416 66.1946 25.4681 66.1484C25.5946 66.1022 25.7261 66.0791 25.8626 66.0791C26.0895 66.0791 26.2631 66.1303 26.3836 66.2327C26.5061 66.3351 26.5673 66.4817 26.5673 66.6724C26.5673 66.8009 26.5362 66.9244 26.4739 67.0428C26.4137 67.1613 26.3183 67.2888 26.1878 67.4253L25.721 67.9132H26.6486V68.2324H25.2392ZM27.0631 68.2324L28.0207 66.4315H26.9697V66.1092H28.4484V66.3983L27.4877 68.2324H27.0631Z" fill="#414141"/>
<path d="M36.6973 62.1395C36.6973 61.6643 37.0825 61.2791 37.5577 61.2791H48.7438C49.219 61.2791 49.6042 61.6643 49.6042 62.1395V73.3256C49.6042 73.8008 49.219 74.186 48.7438 74.186H37.5577C37.0825 74.186 36.6973 73.8008 36.6973 73.3256V62.1395Z" fill="white"/>
<path d="M41.5854 66.968V66.6819L42.272 65.9501C42.3644 65.8497 42.4306 65.7614 42.4708 65.6851C42.511 65.6068 42.531 65.5275 42.531 65.4471C42.531 65.2424 42.4076 65.14 42.1606 65.14C41.9679 65.14 41.7902 65.2122 41.6275 65.3568L41.498 65.0677C41.5824 64.9914 41.6878 64.9301 41.8143 64.884C41.9408 64.8378 42.0723 64.8147 42.2088 64.8147C42.4357 64.8147 42.6093 64.8659 42.7298 64.9683C42.8523 65.0707 42.9135 65.2173 42.9135 65.408C42.9135 65.5365 42.8824 65.66 42.8202 65.7784C42.7599 65.8969 42.6646 66.0244 42.534 66.1609L42.0672 66.6488H42.9948V66.968H41.5854ZM44.0537 66.9981C43.8068 66.9981 43.613 66.9449 43.4725 66.8385C43.334 66.7321 43.2647 66.5845 43.2647 66.3958C43.2647 66.2673 43.2978 66.1579 43.3641 66.0675C43.4323 65.9772 43.5207 65.9139 43.6291 65.8778C43.5327 65.8356 43.4564 65.7714 43.4002 65.6851C43.346 65.5987 43.3189 65.4993 43.3189 65.3869C43.3189 65.2082 43.3852 65.0687 43.5177 64.9683C43.6502 64.8659 43.8289 64.8147 44.0537 64.8147C44.2806 64.8147 44.4603 64.8659 44.5928 64.9683C44.7253 65.0687 44.7916 65.2082 44.7916 65.3869C44.7916 65.4993 44.7635 65.5997 44.7073 65.6881C44.6531 65.7744 44.5788 65.8377 44.4844 65.8778C44.5928 65.9139 44.6792 65.9782 44.7434 66.0706C44.8097 66.1609 44.8428 66.2693 44.8428 66.3958C44.8428 66.5845 44.7725 66.7321 44.632 66.8385C44.4934 66.9449 44.3007 66.9981 44.0537 66.9981ZM44.0537 65.7423C44.1722 65.7423 44.2646 65.7142 44.3308 65.658C44.3991 65.6017 44.4332 65.5244 44.4332 65.4261C44.4332 65.3297 44.3991 65.2544 44.3308 65.2002C44.2646 65.144 44.1722 65.1159 44.0537 65.1159C43.9353 65.1159 43.8429 65.144 43.7767 65.2002C43.7104 65.2544 43.6773 65.3297 43.6773 65.4261C43.6773 65.5244 43.7104 65.6017 43.7767 65.658C43.8429 65.7142 43.9353 65.7423 44.0537 65.7423ZM44.0537 66.697C44.3409 66.697 44.4844 66.5875 44.4844 66.3687C44.4844 66.1519 44.3409 66.0434 44.0537 66.0434C43.9132 66.0434 43.8058 66.0706 43.7315 66.1248C43.6592 66.179 43.6231 66.2603 43.6231 66.3687C43.6231 66.4771 43.6592 66.5594 43.7315 66.6157C43.8058 66.6699 43.9132 66.697 44.0537 66.697Z" fill="#414141"/>
<path d="M53.0469 62.1395C53.0469 61.6643 53.4321 61.2791 53.9073 61.2791H65.0934C65.5686 61.2791 65.9539 61.6643 65.9539 62.1395V73.3256C65.9539 73.8008 65.5686 74.186 65.0934 74.186H53.9073C53.4321 74.186 53.0469 73.8008 53.0469 73.3256V62.1395Z" fill="white"/>
<path d="M57.935 66.968V66.6819L58.6216 65.9501C58.714 65.8497 58.7803 65.7614 58.8204 65.6851C58.8606 65.6068 58.8806 65.5275 58.8806 65.4471C58.8806 65.2424 58.7572 65.14 58.5102 65.14C58.3175 65.14 58.1398 65.2122 57.9772 65.3568L57.8477 65.0677C57.932 64.9914 58.0374 64.9301 58.1639 64.884C58.2904 64.8378 58.4219 64.8147 58.5584 64.8147C58.7853 64.8147 58.9589 64.8659 59.0794 64.9683C59.2019 65.0707 59.2631 65.2173 59.2631 65.408C59.2631 65.5365 59.232 65.66 59.1698 65.7784C59.1095 65.8969 59.0142 66.0244 58.8837 66.1609L58.4169 66.6488H59.3444V66.968H57.935ZM60.2407 66.9981C60.1283 66.9981 60.0169 66.9771 59.9064 66.9349C59.796 66.8907 59.7006 66.8315 59.6203 66.7572L59.7498 66.4681C59.8221 66.5364 59.9004 66.5875 59.9847 66.6217C60.0711 66.6558 60.1574 66.6729 60.2437 66.6729C60.4204 66.6729 60.5549 66.6116 60.6473 66.4892C60.7397 66.3667 60.7858 66.184 60.7858 65.9411V65.8507C60.7457 65.9611 60.6784 66.0485 60.584 66.1127C60.4897 66.175 60.3793 66.2061 60.2528 66.2061C60.1323 66.2061 60.0249 66.177 59.9305 66.1187C59.8362 66.0605 59.7609 65.9802 59.7047 65.8778C59.6504 65.7734 59.6233 65.656 59.6233 65.5254C59.6233 65.3869 59.6535 65.2644 59.7137 65.158C59.7739 65.0516 59.8562 64.9683 59.9606 64.9081C60.0671 64.8458 60.1885 64.8147 60.325 64.8147C60.5901 64.8147 60.7939 64.9071 60.9364 65.0918C61.079 65.2745 61.1502 65.5335 61.1502 65.8688C61.1502 66.2262 61.0699 66.5042 60.9093 66.703C60.7487 66.8998 60.5258 66.9981 60.2407 66.9981ZM60.3491 65.8989C60.4576 65.8989 60.5449 65.8638 60.6112 65.7935C60.6794 65.7212 60.7135 65.6268 60.7135 65.5104C60.7135 65.3939 60.6794 65.2996 60.6112 65.2273C60.5449 65.155 60.4576 65.1189 60.3491 65.1189C60.2407 65.1189 60.1524 65.155 60.0841 65.2273C60.0179 65.2996 59.9847 65.3939 59.9847 65.5104C59.9847 65.6268 60.0179 65.7212 60.0841 65.7935C60.1524 65.8638 60.2407 65.8989 60.3491 65.8989Z" fill="#414141"/>
<path d="M69.3945 62.1395C69.3945 61.6643 69.7798 61.2791 70.255 61.2791H81.441C81.9163 61.2791 82.3015 61.6643 82.3015 62.1395V73.3256C82.3015 73.8008 81.9163 74.186 81.441 74.186H70.255C69.7798 74.186 69.3945 73.8008 69.3945 73.3256V62.1395Z" fill="white"/>
<path d="M74.903 66.9981C74.7585 66.9981 74.62 66.9771 74.4874 66.9349C74.3569 66.8907 74.2485 66.8315 74.1622 66.7572L74.2887 66.4621C74.4694 66.6026 74.6701 66.6729 74.891 66.6729C75.162 66.6729 75.2976 66.5665 75.2976 66.3536C75.2976 66.2533 75.2634 66.179 75.1952 66.1308C75.1289 66.0806 75.0315 66.0555 74.903 66.0555H74.5627V65.7363H74.8669C74.9793 65.7363 75.0687 65.7092 75.1349 65.6549C75.2012 65.5987 75.2343 65.5214 75.2343 65.4231C75.2343 65.3307 75.2032 65.2604 75.141 65.2122C75.0807 65.1641 74.9924 65.14 74.8759 65.14C74.6671 65.14 74.4834 65.2122 74.3248 65.3568L74.1983 65.0677C74.2826 64.9874 74.3881 64.9251 74.5145 64.881C74.641 64.8368 74.7725 64.8147 74.9091 64.8147C75.1299 64.8147 75.3016 64.8649 75.4241 64.9653C75.5465 65.0637 75.6078 65.2012 75.6078 65.3779C75.6078 65.4923 75.5787 65.5927 75.5204 65.679C75.4622 65.7654 75.3829 65.8276 75.2825 65.8658C75.405 65.8999 75.5004 65.9631 75.5686 66.0555C75.6369 66.1458 75.671 66.2563 75.671 66.3868C75.671 66.5755 75.6027 66.7251 75.4662 66.8355C75.3297 66.9439 75.142 66.9981 74.903 66.9981ZM76.751 66.9981C76.5 66.9981 76.3083 66.9038 76.1758 66.715C76.0433 66.5243 75.977 66.2533 75.977 65.9019C75.977 65.5465 76.0433 65.2765 76.1758 65.0918C76.3083 64.9071 76.5 64.8147 76.751 64.8147C77.004 64.8147 77.1957 64.9071 77.3262 65.0918C77.4587 65.2765 77.525 65.5455 77.525 65.8989C77.525 66.2523 77.4587 66.5243 77.3262 66.715C77.1937 66.9038 77.002 66.9981 76.751 66.9981ZM76.751 66.6819C76.8875 66.6819 76.9879 66.6197 77.0522 66.4952C77.1184 66.3687 77.1516 66.1699 77.1516 65.8989C77.1516 65.6299 77.1184 65.4351 77.0522 65.3146C76.9879 65.1922 76.8875 65.1309 76.751 65.1309C76.6165 65.1309 76.5161 65.1922 76.4498 65.3146C76.3836 65.4351 76.3505 65.6299 76.3505 65.8989C76.3505 66.1699 76.3836 66.3687 76.4498 66.4952C76.5161 66.6197 76.6165 66.6819 76.751 66.6819Z" fill="#414141"/>
<path d="M85.7441 62.1395C85.7441 61.6643 86.1294 61.2791 86.6046 61.2791H97.7907C98.2659 61.2791 98.6511 61.6643 98.6511 62.1395V73.3256C98.6511 73.8008 98.2659 74.186 97.7907 74.186H86.6046C86.1294 74.186 85.7441 73.8008 85.7441 73.3256V62.1395Z" fill="white"/>
<path d="M91.6225 66.968V66.6488H92.1013V65.2845L91.7309 65.5074L91.5803 65.2243L92.2128 64.8448H92.4868V66.6488H92.9356V66.968H91.6225Z" fill="#E8E8E8"/>
<path d="M102.094 62.1395C102.094 61.6643 102.479 61.2791 102.954 61.2791H114.14C114.615 61.2791 115.001 61.6643 115.001 62.1395V73.3256C115.001 73.8008 114.615 74.186 114.14 74.186H102.954C102.479 74.186 102.094 73.8008 102.094 73.3256V62.1395Z" fill="white"/>
<path d="M107.885 66.968V66.6819L108.571 65.9501C108.664 65.8497 108.73 65.7614 108.77 65.6851C108.81 65.6068 108.83 65.5275 108.83 65.4471C108.83 65.2424 108.707 65.14 108.46 65.14C108.267 65.14 108.09 65.2122 107.927 65.3568L107.797 65.0677C107.882 64.9914 107.987 64.9301 108.114 64.884C108.24 64.8378 108.372 64.8147 108.508 64.8147C108.735 64.8147 108.909 64.8659 109.029 64.9683C109.152 65.0707 109.213 65.2173 109.213 65.408C109.213 65.5365 109.182 65.66 109.12 65.7784C109.059 65.8969 108.964 66.0244 108.833 66.1609L108.367 66.6488H109.294V66.968H107.885Z" fill="#E8E8E8"/>
</g>
<defs>
<clipPath id="clip0_1384_37179">
<rect width="120" height="80" fill="white"/>
</clipPath>
<clipPath id="clip1_1384_37179">
<rect width="120" height="81.4286" fill="white" transform="translate(0.246094 -0.625)"/>
</clipPath>
</defs>
</svg>
