<svg width="120" height="80" viewBox="0 0 120 80" fill="none" xmlns="http://www.w3.org/2000/svg">
<g clip-path="url(#clip0_1384_37256)">
<rect width="120" height="80" fill="white"/>
<path d="M17.1102 29H56.1524C57.1723 29 57.999 29.8263 57.999 30.8456V51.8787C57.999 52.898 57.1723 53.7254 56.1524 53.7254H17.1102C16.0904 53.7254 15.2637 52.898 15.2637 51.8787V30.8456C15.2637 29.8263 16.0904 29 17.1102 29Z" fill="white"/>
<path d="M17.1102 29H56.1524C57.1723 29 57.999 29.8263 57.999 30.8456V51.8787C57.999 52.898 57.1723 53.7254 56.1524 53.7254H17.1102C16.0904 53.7254 15.2637 52.898 15.2637 51.8787V30.8456C15.2637 29.8263 16.0904 29 17.1102 29Z" stroke="#C6C6C6" stroke-width="0.527597"/>
<path d="M27.3045 43.4988V42.7162H28.479V39.3694L27.5704 39.9164L27.2012 39.2223L28.7523 38.2915H29.4244V42.7162H30.525V43.4988H27.3045ZM33.1442 43.5724C32.5287 43.5724 32.0585 43.341 31.7335 42.8783C31.4084 42.4102 31.2459 41.746 31.2459 40.8834C31.2459 40.0123 31.4084 39.3502 31.7335 38.8971C32.0585 38.4439 32.5287 38.2179 33.1442 38.2179C33.7648 38.2179 34.2349 38.4439 34.555 38.8971C34.8801 39.3502 35.0426 40.0102 35.0426 40.877C35.0426 41.7428 34.8801 42.4102 34.555 42.8783C34.23 43.341 33.7598 43.5724 33.1442 43.5724ZM33.1442 42.7973C33.4791 42.7973 33.7253 42.6448 33.8829 42.3388C34.0454 42.0285 34.1266 41.5413 34.1266 40.877C34.1266 40.217 34.0454 39.7394 33.8829 39.444C33.7253 39.1434 33.4791 38.993 33.1442 38.993C32.8143 38.993 32.5681 39.1434 32.4057 39.444C32.2432 39.7394 32.1619 40.217 32.1619 40.877C32.1619 41.5413 32.2432 42.0285 32.4057 42.3388C32.5681 42.6448 32.8143 42.7973 33.1442 42.7973ZM35.7561 40.9058V39.8865H36.7902V40.9058H35.7561ZM35.7561 43.4988V42.4721H36.7902V43.4988H35.7561ZM39.4054 43.5724C38.7898 43.5724 38.3196 43.341 37.9946 42.8783C37.6695 42.4102 37.507 41.746 37.507 40.8834C37.507 40.0123 37.6695 39.3502 37.9946 38.8971C38.3196 38.4439 38.7898 38.2179 39.4054 38.2179C40.0258 38.2179 40.496 38.4439 40.8161 38.8971C41.1412 39.3502 41.3037 40.0102 41.3037 40.877C41.3037 41.7428 41.1412 42.4102 40.8161 42.8783C40.4911 43.341 40.0209 43.5724 39.4054 43.5724ZM39.4054 42.7973C39.7402 42.7973 39.9864 42.6448 40.144 42.3388C40.3065 42.0285 40.3877 41.5413 40.3877 40.877C40.3877 40.217 40.3065 39.7394 40.144 39.444C39.9864 39.1434 39.7402 38.993 39.4054 38.993C39.0754 38.993 38.8292 39.1434 38.6668 39.444C38.5043 39.7394 38.423 40.217 38.423 40.877C38.423 41.5413 38.5043 42.0285 38.6668 42.3388C38.8292 42.6448 39.0754 42.7973 39.4054 42.7973ZM43.8343 43.5724C43.2188 43.5724 42.7485 43.341 42.4235 42.8783C42.0986 42.4102 41.936 41.746 41.936 40.8834C41.936 40.0123 42.0986 39.3502 42.4235 38.8971C42.7485 38.4439 43.2188 38.2179 43.8343 38.2179C44.4548 38.2179 44.9251 38.4439 45.2452 38.8971C45.5701 39.3502 45.7326 40.0102 45.7326 40.877C45.7326 41.7428 45.5701 42.4102 45.2452 42.8783C44.9201 43.341 44.4499 43.5724 43.8343 43.5724ZM43.8343 42.7973C44.1691 42.7973 44.4153 42.6448 44.5729 42.3388C44.7354 42.0285 44.8166 41.5413 44.8166 40.877C44.8166 40.217 44.7354 39.7394 44.5729 39.444C44.4153 39.1434 44.1691 38.993 43.8343 38.993C43.5044 38.993 43.2582 39.1434 43.0957 39.444C42.9332 39.7394 42.8519 40.217 42.8519 40.877C42.8519 41.5413 42.9332 42.0285 43.0957 42.3388C43.2582 42.6448 43.5044 42.7973 43.8343 42.7973Z" fill="#414141"/>
<path d="M15 51.8898H58.263C58.263 53.0551 57.3181 54.0009 56.1526 54.0009H17.1103C15.9448 54.0009 15 53.0551 15 51.8898Z" fill="#FFA55A"/>
<path d="M64.5966 29H103.639C104.659 29 105.485 29.8263 105.485 30.8456V51.8787C105.485 52.898 104.659 53.7254 103.639 53.7254H64.5966C63.5767 53.7254 62.75 52.898 62.75 51.8787V30.8456C62.75 29.8263 63.5767 29 64.5966 29Z" fill="white"/>
<path d="M64.5966 29H103.639C104.659 29 105.485 29.8263 105.485 30.8456V51.8787C105.485 52.898 104.659 53.7254 103.639 53.7254H64.5966C63.5767 53.7254 62.75 52.898 62.75 51.8787V30.8456C62.75 29.8263 63.5767 29 64.5966 29Z" stroke="#C6C6C6" stroke-width="0.527597"/>
<path d="M74.7889 43.4988V42.7162H75.9633V39.3694L75.0548 39.9164L74.6855 39.2223L76.2367 38.2915H76.9088V42.7162H78.0093V43.4988H74.7889ZM80.6286 43.5724C80.0131 43.5724 79.5429 43.341 79.2179 42.8783C78.8928 42.4102 78.7303 41.746 78.7303 40.8834C78.7303 40.0123 78.8928 39.3502 79.2179 38.8971C79.5429 38.4439 80.0131 38.2179 80.6286 38.2179C81.2491 38.2179 81.7193 38.4439 82.0394 38.8971C82.3645 39.3502 82.527 40.0102 82.527 40.877C82.527 41.7428 82.3645 42.4102 82.0394 42.8783C81.7144 43.341 81.2442 43.5724 80.6286 43.5724ZM80.6286 42.7973C80.9635 42.7973 81.2097 42.6448 81.3673 42.3388C81.5298 42.0285 81.611 41.5413 81.611 40.877C81.611 40.217 81.5298 39.7394 81.3673 39.444C81.2097 39.1434 80.9635 38.993 80.6286 38.993C80.2987 38.993 80.0525 39.1434 79.89 39.444C79.7275 39.7394 79.6463 40.217 79.6463 40.877C79.6463 41.5413 79.7275 42.0285 79.89 42.3388C80.0525 42.6448 80.2987 42.7973 80.6286 42.7973ZM83.2405 40.9058V39.8865H84.2746V40.9058H83.2405ZM83.2405 43.4988V42.4721H84.2746V43.4988H83.2405ZM85.479 43.4988V42.7162H86.6534V39.3694L85.7449 39.9164L85.3756 39.2223L86.9267 38.2915H87.5988V42.7162H88.6994V43.4988H85.479ZM91.363 43.5724C91.0232 43.5724 90.6933 43.5212 90.3732 43.4178C90.0531 43.309 89.7921 43.164 89.5903 42.9817L89.9005 42.2578C90.3486 42.6021 90.8311 42.7749 91.3483 42.7749C91.6584 42.7749 91.8997 42.696 92.0721 42.5382C92.2493 42.3761 92.338 42.1597 92.338 41.8889C92.338 41.6127 92.2543 41.3909 92.0868 41.2235C91.9194 41.0519 91.6905 40.9655 91.4 40.9655C90.9863 40.9655 90.644 41.1297 90.3732 41.4602H89.738V38.2915H92.9363V39.0741H90.6613V40.4847C90.9223 40.2885 91.2424 40.1893 91.6215 40.1893C91.9514 40.1893 92.237 40.2608 92.4783 40.4036C92.7245 40.5422 92.9141 40.7363 93.047 40.9868C93.185 41.2331 93.2539 41.5221 93.2539 41.8515C93.2539 42.1917 93.1775 42.4913 93.025 42.7525C92.8723 43.0084 92.6532 43.2109 92.3675 43.3581C92.0868 43.501 91.752 43.5724 91.363 43.5724Z" fill="#414141"/>
<path d="M62.4844 51.8898H105.747C105.747 53.0551 104.803 54.0009 103.637 54.0009H64.5947C63.4291 54.0009 62.4844 53.0551 62.4844 51.8898Z" fill="#9EC84F"/>
<path d="M112.077 29H151.12C152.139 29 152.966 29.8263 152.966 30.8456V51.8787C152.966 52.898 152.139 53.7254 151.12 53.7254H112.077C111.057 53.7254 110.23 52.898 110.23 51.8787V30.8456C110.23 29.8263 111.057 29 112.077 29Z" fill="white"/>
<path d="M112.077 29H151.12C152.139 29 152.966 29.8263 152.966 30.8456V51.8787C152.966 52.898 152.139 53.7254 151.12 53.7254H112.077C111.057 53.7254 110.23 52.898 110.23 51.8787V30.8456C110.23 29.8263 111.057 29 112.077 29Z" stroke="#C6C6C6" stroke-width="0.527597"/>
<path d="M109.967 51.8898H153.23C153.23 53.0551 152.286 54.0009 151.12 54.0009H112.078C110.913 54.0009 109.967 53.0551 109.967 51.8898Z" fill="#9EC84F"/>
</g>
<defs>
<clipPath id="clip0_1384_37256">
<rect width="120" height="80" fill="white"/>
</clipPath>
</defs>
</svg>
