<svg width="120" height="80" viewBox="0 0 120 80" fill="none" xmlns="http://www.w3.org/2000/svg">
<g clip-path="url(#clip0_1384_37283)">
<rect width="120" height="80" fill="white"/>
<mask id="mask0_1384_37283" style="mask-type:luminance" maskUnits="userSpaceOnUse" x="0" y="1" width="120" height="80">
<path d="M116.939 1H3.06122C1.37055 1 0 2.33713 0 3.98656V77.456C0 79.1054 1.37055 80.4425 3.06122 80.4425H116.939C118.629 80.4425 120 79.1054 120 77.456V3.98656C120 2.33713 118.629 1 116.939 1Z" fill="white"/>
</mask>
<g mask="url(#mask0_1384_37283)">
<path d="M116.939 0H3.06122C1.37055 0 0 1.33713 0 2.98656V76.456C0 78.1054 1.37055 79.4425 3.06122 79.4425H116.939C118.629 79.4425 120 78.1054 120 76.456V2.98656C120 1.33713 118.629 0 116.939 0Z" fill="white"/>
<g filter="url(#filter0_d_1384_37283)">
<mask id="mask1_1384_37283" style="mask-type:luminance" maskUnits="userSpaceOnUse" x="5" y="14" width="109" height="16">
<path d="M113.428 14H6.2579C5.96121 14 5.7207 14.2346 5.7207 14.5241V28.6746C5.7207 28.9641 5.96121 29.1987 6.2579 29.1987H113.428C113.725 29.1987 113.965 28.9641 113.965 28.6746V14.5241C113.965 14.2346 113.725 14 113.428 14Z" fill="white"/>
</mask>
<g mask="url(#mask1_1384_37283)">
<path d="M113.428 14H6.2579C5.96121 14 5.7207 14.2346 5.7207 14.5241V28.6746C5.7207 28.9641 5.96121 29.1987 6.2579 29.1987H113.428C113.725 29.1987 113.965 28.9641 113.965 28.6746V14.5241C113.965 14.2346 113.725 14 113.428 14Z" fill="white"/>
<path d="M19.6878 14H5.7207V29.1987H19.6878V14Z" fill="#F1F1F1"/>
<path d="M10.1949 21.3627V20.9146L11.2972 19.7684C11.4455 19.6111 11.5518 19.4728 11.6163 19.3533C11.6807 19.2306 11.713 19.1064 11.713 18.9806C11.713 18.6599 11.5148 18.4995 11.1183 18.4995C10.8089 18.4995 10.5237 18.6127 10.2626 18.8391L10.0547 18.3863C10.19 18.2668 10.3592 18.1709 10.5623 18.0986C10.7654 18.0263 10.9765 17.9901 11.1957 17.9901C11.5599 17.9901 11.8387 18.0703 12.0321 18.2307C12.2287 18.391 12.327 18.6206 12.327 18.9193C12.327 19.1206 12.2771 19.3139 12.1771 19.4995C12.0804 19.685 11.9273 19.8847 11.7178 20.0985L10.9684 20.8627H12.4576V21.3627H10.1949ZM14.1575 21.4098C13.7546 21.4098 13.4468 21.262 13.234 20.9664C13.0213 20.6677 12.9149 20.2432 12.9149 19.6929C12.9149 19.1363 13.0213 18.7134 13.234 18.424C13.4468 18.1348 13.7546 17.9901 14.1575 17.9901C14.5636 17.9901 14.8714 18.1348 15.0809 18.424C15.2937 18.7134 15.4 19.1347 15.4 19.6882C15.4 20.2416 15.2937 20.6677 15.0809 20.9664C14.8682 21.262 14.5604 21.4098 14.1575 21.4098ZM14.1575 20.9146C14.3766 20.9146 14.5378 20.8171 14.641 20.6221C14.7473 20.424 14.8005 20.1127 14.8005 19.6882C14.8005 19.2668 14.7473 18.9618 14.641 18.7731C14.5378 18.5813 14.3766 18.4854 14.1575 18.4854C13.9415 18.4854 13.7804 18.5813 13.674 18.7731C13.5676 18.9618 13.5144 19.2668 13.5144 19.6882C13.5144 20.1127 13.5676 20.424 13.674 20.6221C13.7804 20.8171 13.9415 20.9146 14.1575 20.9146Z" fill="#414141"/>
<path d="M10.043 25.5503V24.0724H10.606C10.8595 24.0724 11.055 24.136 11.1926 24.2632C11.3316 24.3903 11.401 24.5727 11.401 24.8103C11.401 25.0465 11.3316 25.2289 11.1926 25.3575C11.055 25.486 10.8595 25.5503 10.606 25.5503H10.043ZM10.318 25.3281H10.5888C10.9383 25.3281 11.1131 25.1555 11.1131 24.8103C11.1131 24.4665 10.9383 24.2946 10.5888 24.2946H10.318V25.3281ZM11.485 25.5503L12.1704 24.0724H12.3961L13.0815 25.5503H12.8022L12.6518 25.2086H11.9126L11.7643 25.5503H11.485ZM12.28 24.3638L12.0071 24.9948H12.5572L12.2843 24.3638H12.28ZM13.4447 25.5503V24.2967H12.9247V24.0724H14.2397V24.2967H13.7198V25.5503H13.4447ZM14.414 25.5503V24.0724H15.4218V24.2862H14.6783V24.6929H15.3745V24.9067H14.6783V25.3365H15.4218V25.5503H14.414Z" fill="#414141"/>
<path d="M20 13.9269H113.741C114.037 13.9269 114.278 14.1615 114.278 14.451V28.6015C114.278 28.8909 114.037 29.1256 113.741 29.1256H20V13.9269Z" fill="white"/>
<path d="M22.8714 20.9284C22.6931 20.9284 22.5276 20.9065 22.375 20.8624C22.2225 20.8163 22.0935 20.7545 21.9883 20.6769L22.114 20.3593C22.2193 20.4327 22.3342 20.4893 22.4589 20.5291C22.5856 20.5689 22.7231 20.5888 22.8714 20.5888C23.0412 20.5888 23.1647 20.5616 23.2421 20.5071C23.3194 20.4505 23.3581 20.3782 23.3581 20.2901C23.3581 20.2168 23.3302 20.1591 23.2743 20.1171C23.2206 20.0752 23.1271 20.0407 22.9939 20.0134L22.6394 19.941C22.2354 19.8572 22.0334 19.6549 22.0334 19.3342C22.0334 19.1958 22.071 19.0752 22.1462 18.9726C22.2214 18.8698 22.3256 18.7901 22.4589 18.7336C22.5921 18.677 22.7457 18.6487 22.9198 18.6487C23.0745 18.6487 23.2195 18.6717 23.3549 18.7179C23.4903 18.7619 23.6031 18.8248 23.6933 18.9065L23.5676 19.2084C23.3893 19.0616 23.1722 18.9883 22.9165 18.9883C22.7683 18.9883 22.6522 19.0187 22.5684 19.0795C22.4846 19.1402 22.4427 19.2199 22.4427 19.3184C22.4427 19.3939 22.4685 19.4547 22.5201 19.5009C22.5716 19.5449 22.6597 19.5794 22.7844 19.6046L23.1357 19.6769C23.3484 19.7209 23.5064 19.7901 23.6095 19.8845C23.7148 19.9788 23.7675 20.1046 23.7675 20.2618C23.7675 20.3939 23.7309 20.5102 23.6579 20.6109C23.5848 20.7115 23.4806 20.7901 23.3452 20.8467C23.212 20.9012 23.0541 20.9284 22.8714 20.9284ZM24.8596 20.9284C24.6813 20.9284 24.5277 20.896 24.3987 20.831C24.2698 20.766 24.1699 20.6738 24.099 20.5543C24.0302 20.4348 23.9959 20.2932 23.9959 20.1297C23.9959 19.9704 24.0292 19.831 24.0958 19.7115C24.1645 19.592 24.258 19.4987 24.3762 19.4317C24.4965 19.3625 24.6329 19.3279 24.7855 19.3279C25.009 19.3279 25.1852 19.3971 25.3141 19.5354C25.4452 19.6738 25.5107 19.8625 25.5107 20.1014V20.2178H24.3826C24.4127 20.4924 24.5739 20.6297 24.8661 20.6297C24.9542 20.6297 25.0423 20.6171 25.1304 20.592C25.2185 20.5647 25.2991 20.5228 25.3721 20.4662L25.4849 20.7304C25.4097 20.7911 25.3152 20.8394 25.2013 20.875C25.0874 20.9106 24.9736 20.9284 24.8596 20.9284ZM24.8016 19.5952C24.6835 19.5952 24.5878 19.6308 24.5148 19.7021C24.4417 19.7734 24.3977 19.8698 24.3826 19.9914H25.1755C25.1669 19.8635 25.1304 19.766 25.0659 19.6989C25.0036 19.6297 24.9155 19.5952 24.8016 19.5952ZM26.4067 20.9284C26.2735 20.9284 26.1489 20.9127 26.0329 20.8813C25.9168 20.8499 25.8201 20.8048 25.7428 20.7461L25.8459 20.4882C25.9254 20.5406 26.0146 20.5815 26.1135 20.6109C26.2123 20.6381 26.3111 20.6517 26.41 20.6517C26.5131 20.6517 26.5894 20.635 26.6388 20.6014C26.6904 20.5658 26.7162 20.5197 26.7162 20.4631C26.7162 20.375 26.6496 20.3184 26.5164 20.2932L26.194 20.2335C25.9211 20.1832 25.7847 20.0448 25.7847 19.8184C25.7847 19.7178 25.8126 19.6308 25.8685 19.5574C25.9265 19.4841 26.006 19.4274 26.107 19.3876C26.208 19.3478 26.324 19.3279 26.4551 19.3279C26.5668 19.3279 26.6743 19.3436 26.7774 19.375C26.8806 19.4044 26.9687 19.4495 27.0417 19.5103L26.9321 19.7681C26.8698 19.7178 26.7946 19.678 26.7065 19.6486C26.6206 19.6193 26.5378 19.6046 26.4583 19.6046C26.353 19.6046 26.2746 19.6224 26.223 19.658C26.1736 19.6937 26.1489 19.7409 26.1489 19.7996C26.1489 19.8918 26.2101 19.9484 26.3326 19.9694L26.6549 20.0291C26.7946 20.0543 26.8999 20.1004 26.9708 20.1675C27.0439 20.2346 27.0804 20.3247 27.0804 20.4379C27.0804 20.5909 27.0191 20.7115 26.8967 20.7995C26.7742 20.8855 26.6109 20.9284 26.4067 20.9284ZM27.9806 20.9284C27.8473 20.9284 27.7227 20.9127 27.6067 20.8813C27.4906 20.8499 27.3939 20.8048 27.3166 20.7461L27.4197 20.4882C27.4992 20.5406 27.5884 20.5815 27.6873 20.6109C27.7861 20.6381 27.885 20.6517 27.9838 20.6517C28.0869 20.6517 28.1632 20.635 28.2126 20.6014C28.2642 20.5658 28.29 20.5197 28.29 20.4631C28.29 20.375 28.2234 20.3184 28.0902 20.2932L27.7678 20.2335C27.495 20.1832 27.3585 20.0448 27.3585 19.8184C27.3585 19.7178 27.3864 19.6308 27.4423 19.5574C27.5003 19.4841 27.5798 19.4274 27.6808 19.3876C27.7818 19.3478 27.8978 19.3279 28.0289 19.3279C28.1407 19.3279 28.2481 19.3436 28.3513 19.375C28.4544 19.4044 28.5425 19.4495 28.6155 19.5103L28.5059 19.7681C28.4436 19.7178 28.3684 19.678 28.2803 19.6486C28.1944 19.6193 28.1117 19.6046 28.0321 19.6046C27.9269 19.6046 27.8484 19.6224 27.7969 19.658C27.7474 19.6937 27.7227 19.7409 27.7227 19.7996C27.7227 19.8918 27.7839 19.9484 27.9064 19.9694L28.2288 20.0291C28.3684 20.0543 28.4737 20.1004 28.5446 20.1675C28.6177 20.2346 28.6542 20.3247 28.6542 20.4379C28.6542 20.5909 28.593 20.7115 28.4705 20.7995C28.348 20.8855 28.1847 20.9284 27.9806 20.9284ZM28.9517 19.0292V18.6455H29.4029V19.0292H28.9517ZM28.9774 20.897V19.3593H29.3803V20.897H28.9774ZM30.5177 20.9284C30.3544 20.9284 30.2126 20.896 30.0923 20.831C29.9719 20.766 29.8785 20.6738 29.8119 20.5543C29.7452 20.4327 29.7119 20.2901 29.7119 20.1266C29.7119 19.9631 29.7452 19.8216 29.8119 19.7021C29.8785 19.5826 29.9719 19.4903 30.0923 19.4253C30.2126 19.3604 30.3544 19.3279 30.5177 19.3279C30.681 19.3279 30.8228 19.3604 30.9432 19.4253C31.0635 19.4903 31.157 19.5826 31.2236 19.7021C31.2902 19.8216 31.3235 19.9631 31.3235 20.1266C31.3235 20.2901 31.2902 20.4327 31.2236 20.5543C31.157 20.6738 31.0635 20.766 30.9432 20.831C30.8228 20.896 30.681 20.9284 30.5177 20.9284ZM30.5177 20.6297C30.6381 20.6297 30.7347 20.5878 30.8078 20.5039C30.8809 20.418 30.9174 20.2922 30.9174 20.1266C30.9174 19.9589 30.8809 19.8341 30.8078 19.7524C30.7347 19.6685 30.6381 19.6266 30.5177 19.6266C30.3974 19.6266 30.3007 19.6685 30.2276 19.7524C30.1546 19.8341 30.118 19.9589 30.118 20.1266C30.118 20.2922 30.1546 20.418 30.2276 20.5039C30.3007 20.5878 30.3974 20.6297 30.5177 20.6297ZM31.656 20.897V19.3593H32.0493V19.5983C32.103 19.5103 32.175 19.4432 32.2653 19.3971C32.3577 19.351 32.4608 19.3279 32.5747 19.3279C32.9464 19.3279 33.1323 19.5386 33.1323 19.96V20.897H32.7294V19.9788C32.7294 19.8593 32.7057 19.7723 32.6585 19.7178C32.6134 19.6633 32.5424 19.6361 32.4458 19.6361C32.3276 19.6361 32.233 19.6727 32.1621 19.7461C32.0933 19.8174 32.0589 19.9127 32.0589 20.0323V20.897H31.656ZM34.6356 20.897V19.3593H35.0288V19.5983C35.0826 19.5103 35.1545 19.4432 35.2448 19.3971C35.3372 19.351 35.4403 19.3279 35.5542 19.3279C35.926 19.3279 36.1118 19.5386 36.1118 19.96V20.897H35.7089V19.9788C35.7089 19.8593 35.6853 19.7723 35.638 19.7178C35.5929 19.6633 35.522 19.6361 35.4253 19.6361C35.3071 19.6361 35.2126 19.6727 35.1417 19.7461C35.0729 19.8174 35.0385 19.9127 35.0385 20.0323V20.897H34.6356ZM37.04 20.9284C36.9261 20.9284 36.824 20.9075 36.7338 20.8656C36.6457 20.8215 36.5758 20.7628 36.5243 20.6895C36.4748 20.6161 36.4501 20.5333 36.4501 20.441C36.4501 20.3279 36.4802 20.2387 36.5404 20.1738C36.6006 20.1067 36.6983 20.0585 36.8337 20.0291C36.9691 19.9998 37.1506 19.9851 37.3784 19.9851H37.4912V19.9191C37.4912 19.8142 37.4676 19.7388 37.4203 19.6927C37.373 19.6465 37.2936 19.6235 37.1818 19.6235C37.0937 19.6235 37.0035 19.6371 36.911 19.6644C36.8186 19.6895 36.7252 19.7293 36.6306 19.7839L36.5146 19.5166C36.5705 19.4788 36.636 19.4463 36.7112 19.4191C36.7886 19.3897 36.8692 19.3677 36.9529 19.3531C37.0389 19.3363 37.1195 19.3279 37.1947 19.3279C37.4246 19.3279 37.5954 19.3803 37.7072 19.4851C37.8189 19.5878 37.8748 19.7482 37.8748 19.9662V20.897H37.4977V20.6517C37.4611 20.7377 37.4031 20.8058 37.3236 20.8561C37.2441 20.9044 37.1496 20.9284 37.04 20.9284ZM37.1238 20.658C37.2291 20.658 37.3161 20.6224 37.3848 20.5511C37.4558 20.4798 37.4912 20.3897 37.4912 20.2807V20.2115H37.3816C37.1796 20.2115 37.0389 20.2272 36.9594 20.2587C36.882 20.288 36.8434 20.3425 36.8434 20.4222C36.8434 20.4914 36.8681 20.5479 36.9175 20.592C36.9669 20.636 37.0357 20.658 37.1238 20.658ZM38.2902 20.897V19.3593H38.6834V19.5952C38.7307 19.5113 38.7962 19.4463 38.88 19.4002C38.9638 19.352 39.0605 19.3279 39.1701 19.3279C39.4064 19.3279 39.5612 19.4285 39.6342 19.6297C39.6837 19.5354 39.7546 19.4621 39.847 19.4096C39.9394 19.3551 40.0447 19.3279 40.1628 19.3279C40.5174 19.3279 40.6946 19.5386 40.6946 19.96V20.897H40.2917V19.9757C40.2917 19.8582 40.2714 19.7723 40.2305 19.7178C40.1918 19.6633 40.1252 19.6361 40.0307 19.6361C39.9254 19.6361 39.8427 19.6727 39.7825 19.7461C39.7223 19.8174 39.6922 19.917 39.6922 20.0448V20.897H39.2893V19.9757C39.2893 19.8582 39.2689 19.7723 39.2281 19.7178C39.1894 19.6633 39.1239 19.6361 39.0315 19.6361C38.9262 19.6361 38.8435 19.6727 38.7833 19.7461C38.7232 19.8174 38.6931 19.917 38.6931 20.0448V20.897H38.2902ZM41.8871 20.9284C41.7087 20.9284 41.5551 20.896 41.4262 20.831C41.2972 20.766 41.1973 20.6738 41.1264 20.5543C41.0576 20.4348 41.0233 20.2932 41.0233 20.1297C41.0233 19.9704 41.0566 19.831 41.1232 19.7115C41.1919 19.592 41.2854 19.4987 41.4036 19.4317C41.5239 19.3625 41.6604 19.3279 41.8129 19.3279C42.0364 19.3279 42.2126 19.3971 42.3416 19.5354C42.4726 19.6738 42.5382 19.8625 42.5382 20.1014V20.2178H41.4101C41.4401 20.4924 41.6013 20.6297 41.8935 20.6297C41.9816 20.6297 42.0697 20.6171 42.1578 20.592C42.2459 20.5647 42.3265 20.5228 42.3996 20.4662L42.5124 20.7304C42.4371 20.7911 42.3426 20.8394 42.2287 20.875C42.1149 20.9106 42.0009 20.9284 41.8871 20.9284ZM41.8291 19.5952C41.7109 19.5952 41.6152 19.6308 41.5422 19.7021C41.4691 19.7734 41.4251 19.8698 41.4101 19.9914H42.203C42.1943 19.8635 42.1578 19.766 42.0933 19.6989C42.031 19.6297 41.9429 19.5952 41.8291 19.5952Z" fill="#414141"/>
<path d="M22.503 24.6243L21.8477 23.1464H21.9895L22.5696 24.4629L23.1498 23.1464H23.2873L22.6298 24.6243H22.503ZM23.7989 24.6411C23.6385 24.6411 23.5117 24.5949 23.4186 24.5027C23.3269 24.409 23.2811 24.2812 23.2811 24.1191C23.2811 24.0143 23.3019 23.922 23.3434 23.8423C23.3849 23.7627 23.4422 23.7005 23.5153 23.6558C23.5898 23.611 23.675 23.5887 23.771 23.5887C23.91 23.5887 24.0181 23.6327 24.0955 23.7207C24.1728 23.8088 24.2115 23.9297 24.2115 24.0834V24.1421H23.41C23.4143 24.2679 23.4494 24.365 23.5153 24.4335C23.5826 24.5006 23.6757 24.5342 23.7947 24.5342C23.8591 24.5342 23.9193 24.5244 23.9752 24.5048C24.0324 24.4853 24.0883 24.4524 24.1427 24.4063L24.1943 24.5027C24.1485 24.546 24.0897 24.5803 24.0181 24.6055C23.9465 24.6292 23.8734 24.6411 23.7989 24.6411ZM23.7732 23.6914C23.6643 23.6914 23.5791 23.725 23.5174 23.792C23.4573 23.8577 23.4222 23.943 23.4122 24.0478H24.0933C24.0905 23.936 24.0618 23.8487 24.0074 23.7857C23.953 23.7229 23.8749 23.6914 23.7732 23.6914ZM24.4787 24.6243V23.6076H24.6076V23.7899C24.642 23.7229 24.6914 23.6726 24.7559 23.639C24.8204 23.6055 24.892 23.5887 24.9708 23.5887C25.2186 23.5887 25.3425 23.72 25.3425 23.9828V24.6243H25.2114V23.9933C25.2114 23.8927 25.1906 23.8186 25.1491 23.7711C25.1076 23.7236 25.0417 23.6998 24.9514 23.6998C24.8483 23.6998 24.7652 23.7312 24.7021 23.7942C24.6406 23.8556 24.6098 23.9388 24.6098 24.0436V24.6243H24.4787ZM26.0486 24.6411C25.8007 24.6411 25.6768 24.5097 25.6768 24.2469V23.6076H25.8079V24.2407C25.8079 24.3399 25.8286 24.4133 25.8702 24.4608C25.9117 24.5083 25.9769 24.532 26.0657 24.532C26.1617 24.532 26.2398 24.5006 26.2999 24.4377C26.3615 24.3749 26.3924 24.291 26.3924 24.1862V23.6076H26.5234V24.6243H26.3966V24.444C26.3623 24.5083 26.3143 24.5572 26.2527 24.5908C26.1925 24.6243 26.1245 24.6411 26.0486 24.6411ZM27.3222 24.6411C27.1617 24.6411 27.035 24.5949 26.9419 24.5027C26.8502 24.409 26.8043 24.2812 26.8043 24.1191C26.8043 24.0143 26.8251 23.922 26.8667 23.8423C26.9082 23.7627 26.9655 23.7005 27.0385 23.6558C27.1131 23.611 27.1983 23.5887 27.2943 23.5887C27.4332 23.5887 27.5414 23.6327 27.6187 23.7207C27.6961 23.8088 27.7348 23.9297 27.7348 24.0834V24.1421H26.9333C26.9376 24.2679 26.9727 24.365 27.0385 24.4335C27.1059 24.5006 27.199 24.5342 27.3179 24.5342C27.3823 24.5342 27.4425 24.5244 27.4984 24.5048C27.5557 24.4853 27.6116 24.4524 27.666 24.4063L27.7176 24.5027C27.6717 24.546 27.613 24.5803 27.5414 24.6055C27.4697 24.6292 27.3967 24.6411 27.3222 24.6411ZM27.2964 23.6914C27.1875 23.6914 27.1023 23.725 27.0407 23.792C26.9805 23.8577 26.9454 23.943 26.9354 24.0478H27.6166C27.6137 23.936 27.5851 23.8487 27.5306 23.7857C27.4762 23.7229 27.3981 23.6914 27.2964 23.6914ZM29.0206 24.6243V23.6076H29.1495V23.7899C29.1839 23.7229 29.2334 23.6726 29.2978 23.639C29.3623 23.6055 29.4339 23.5887 29.5127 23.5887C29.7605 23.5887 29.8844 23.72 29.8844 23.9828V24.6243H29.7534V23.9933C29.7534 23.8927 29.7326 23.8186 29.691 23.7711C29.6495 23.7236 29.5836 23.6998 29.4933 23.6998C29.3902 23.6998 29.3071 23.7312 29.2441 23.7942C29.1825 23.8556 29.1517 23.9388 29.1517 24.0436V24.6243H29.0206ZM30.5453 24.6411C30.4751 24.6411 30.4121 24.6278 30.3563 24.6012C30.3018 24.5747 30.2581 24.5384 30.2251 24.4922C30.1937 24.4461 30.1779 24.3944 30.1779 24.3371C30.1779 24.2616 30.1972 24.2029 30.2359 24.161C30.2746 24.1177 30.3398 24.0869 30.4315 24.0688C30.5231 24.0506 30.6492 24.0415 30.8096 24.0415H30.8763V23.966C30.8763 23.8724 30.8569 23.8046 30.8182 23.7627C30.7795 23.7193 30.718 23.6977 30.6334 23.6977C30.5704 23.6977 30.5095 23.7068 30.4508 23.725C30.3935 23.7431 30.3341 23.7718 30.2724 23.8109L30.2209 23.7124C30.2753 23.6747 30.3398 23.6446 30.4143 23.6222C30.4887 23.5999 30.5611 23.5887 30.6313 23.5887C30.7574 23.5887 30.8505 23.6201 30.9106 23.683C30.9722 23.7459 31.003 23.8423 31.003 23.9723V24.6243H30.8784V24.4419C30.8497 24.5048 30.8061 24.5537 30.7473 24.5887C30.69 24.6236 30.6227 24.6411 30.5453 24.6411ZM30.5625 24.5384C30.6241 24.5384 30.6779 24.5244 30.7237 24.4964C30.771 24.4671 30.8082 24.4273 30.8354 24.3769C30.8626 24.3266 30.8763 24.2693 30.8763 24.205V24.1358H30.8118C30.6829 24.1358 30.5819 24.1414 30.5088 24.1526C30.4372 24.1638 30.387 24.1834 30.3584 24.2113C30.3297 24.2393 30.3154 24.2777 30.3154 24.3266C30.3154 24.3895 30.3376 24.4405 30.382 24.4796C30.4265 24.5188 30.4866 24.5384 30.5625 24.5384ZM31.3499 24.6243V23.6076H31.4789V23.7857C31.5434 23.6544 31.6529 23.5887 31.8077 23.5887C31.9738 23.5887 32.0791 23.6593 32.1235 23.8004C32.1536 23.7347 32.1994 23.683 32.2611 23.6453C32.3226 23.6076 32.3943 23.5887 32.4759 23.5887C32.7066 23.5887 32.8219 23.72 32.8219 23.9828V24.6243H32.6908V23.9933C32.6908 23.8927 32.6722 23.8186 32.635 23.7711C32.5991 23.7236 32.5382 23.6998 32.4523 23.6998C32.3606 23.6998 32.2875 23.7312 32.2331 23.7942C32.1787 23.8556 32.1515 23.9395 32.1515 24.0457V24.6243H32.0204V23.9933C32.0204 23.8927 32.0018 23.8186 31.9645 23.7711C31.9287 23.7236 31.8685 23.6998 31.784 23.6998C31.6909 23.6998 31.6171 23.7312 31.5627 23.7942C31.5083 23.8556 31.4811 23.9395 31.4811 24.0457V24.6243H31.3499ZM33.6184 24.6411C33.458 24.6411 33.3312 24.5949 33.238 24.5027C33.1464 24.409 33.1005 24.2812 33.1005 24.1191C33.1005 24.0143 33.1213 23.922 33.1628 23.8423C33.2044 23.7627 33.2617 23.7005 33.3348 23.6558C33.4092 23.611 33.4945 23.5887 33.5905 23.5887C33.7294 23.5887 33.8376 23.6327 33.9149 23.7207C33.9923 23.8088 34.0309 23.9297 34.0309 24.0834V24.1421H33.2295C33.2337 24.2679 33.2688 24.365 33.3348 24.4335C33.4021 24.5006 33.4952 24.5342 33.6141 24.5342C33.6786 24.5342 33.7387 24.5244 33.7946 24.5048C33.8519 24.4853 33.9078 24.4524 33.9622 24.4063L34.0137 24.5027C33.9679 24.546 33.9092 24.5803 33.8376 24.6055C33.766 24.6292 33.6929 24.6411 33.6184 24.6411ZM33.5926 23.6914C33.4837 23.6914 33.3985 23.725 33.3369 23.792C33.2768 23.8577 33.2417 23.943 33.2316 24.0478H33.9128C33.9099 23.936 33.8813 23.8487 33.8268 23.7857C33.7724 23.7229 33.6943 23.6914 33.5926 23.6914Z" fill="#414141"/>
<path d="M77.7148 18.3947V17.1015H78.5816V17.2886H77.9553V17.6536H78.5421V17.8407H77.9553V18.3947H77.7148ZM78.7297 18.3947V17.4977H78.9588V17.6555C79.004 17.5491 79.1007 17.4903 79.2484 17.4794L79.3198 17.4738L79.335 17.6683L79.1998 17.6811C79.0455 17.6958 78.9683 17.7728 78.9683 17.9123V18.3947H78.7297ZM79.8703 18.413C79.7751 18.413 79.6922 18.394 79.6222 18.3562C79.5522 18.3183 79.4974 18.2645 79.4589 18.1947C79.4198 18.1238 79.4003 18.0406 79.4003 17.9453C79.4003 17.8499 79.4198 17.7673 79.4589 17.6977C79.4974 17.6279 79.5522 17.5741 79.6222 17.5362C79.6922 17.4983 79.7751 17.4794 79.8703 17.4794C79.9656 17.4794 80.0485 17.4983 80.1185 17.5362C80.189 17.5741 80.2432 17.6279 80.2823 17.6977C80.3209 17.7673 80.3404 17.8499 80.3404 17.9453C80.3404 18.0406 80.3209 18.1238 80.2823 18.1947C80.2432 18.2645 80.189 18.3183 80.1185 18.3562C80.0485 18.394 79.9656 18.413 79.8703 18.413ZM79.8703 18.2388C79.9408 18.2388 79.997 18.2143 80.0399 18.1654C80.0823 18.1153 80.1037 18.0419 80.1037 17.9453C80.1037 17.8475 80.0823 17.7747 80.0399 17.727C79.997 17.678 79.9408 17.6536 79.8703 17.6536C79.8003 17.6536 79.7437 17.678 79.7013 17.727C79.6584 17.7747 79.6375 17.8475 79.6375 17.9453C79.6375 18.0419 79.6584 18.1153 79.7013 18.1654C79.7437 18.2143 79.8003 18.2388 79.8703 18.2388ZM80.538 18.3947V17.4977H80.7676V17.6353C80.7952 17.5864 80.8333 17.5485 80.8824 17.5216C80.9314 17.4934 80.9876 17.4794 81.0514 17.4794C81.1896 17.4794 81.2796 17.5381 81.3224 17.6555C81.351 17.6004 81.3924 17.5576 81.4463 17.527C81.5001 17.4953 81.5615 17.4794 81.6306 17.4794C81.8373 17.4794 81.9411 17.6023 81.9411 17.8481V18.3947H81.7058V17.8572C81.7058 17.7887 81.6939 17.7386 81.6701 17.7068C81.6477 17.675 81.6087 17.6591 81.5534 17.6591C81.492 17.6591 81.4439 17.6805 81.4086 17.7233C81.3739 17.7649 81.3562 17.823 81.3562 17.8976V18.3947H81.121V17.8572C81.121 17.7887 81.1091 17.7386 81.0853 17.7068C81.0629 17.675 81.0248 17.6591 80.9705 17.6591C80.909 17.6591 80.8609 17.6805 80.8257 17.7233C80.7909 17.7649 80.7733 17.823 80.7733 17.8976V18.3947H80.538ZM83.1807 18.413C83.0164 18.413 82.8893 18.3568 82.7993 18.2442C82.7102 18.1318 82.6654 17.974 82.6654 17.771C82.6654 17.5521 82.7159 17.3827 82.8159 17.2629C82.9174 17.1431 83.0574 17.0831 83.2355 17.0831C83.3055 17.0831 83.3751 17.096 83.4441 17.1216C83.5132 17.1461 83.5718 17.1816 83.6208 17.228L83.5418 17.4041C83.4956 17.3626 83.446 17.332 83.3932 17.3124C83.3408 17.2917 83.287 17.2812 83.2317 17.2812C83.1227 17.2812 83.0393 17.3186 82.9817 17.3931C82.9241 17.4678 82.895 17.579 82.895 17.727V17.7802C82.9212 17.7129 82.9641 17.6603 83.0226 17.6224C83.0817 17.5845 83.1493 17.5656 83.226 17.5656C83.3022 17.5656 83.3703 17.5833 83.4289 17.6188C83.4879 17.6542 83.5341 17.7031 83.5679 17.7655C83.6018 17.8279 83.6189 17.8994 83.6189 17.9801C83.6189 18.0633 83.5998 18.1379 83.5627 18.2039C83.526 18.2687 83.4746 18.3201 83.4084 18.358C83.3431 18.3947 83.2674 18.413 83.1807 18.413ZM83.1674 18.2259C83.2355 18.2259 83.2898 18.2045 83.3312 18.1617C83.3736 18.1177 83.3951 18.0602 83.3951 17.9893C83.3951 17.9184 83.3736 17.8609 83.3312 17.8169C83.2898 17.7728 83.2355 17.7508 83.1674 17.7508C83.0998 17.7508 83.045 17.7728 83.0022 17.8169C82.9607 17.8609 82.9402 17.9184 82.9402 17.9893C82.9402 18.0602 82.9607 18.1177 83.0022 18.1617C83.045 18.2045 83.0998 18.2259 83.1674 18.2259ZM83.9113 18.6386L83.8156 18.5653C83.847 18.5347 83.8699 18.5054 83.8851 18.4772C83.9013 18.4503 83.9127 18.4228 83.9189 18.3947H83.7965V18.1397H84.0599V18.3085C84.0599 18.3708 84.049 18.4277 84.0261 18.4791C84.0047 18.5316 83.9666 18.5848 83.9113 18.6386ZM84.7257 18.413C84.569 18.413 84.4495 18.3555 84.3666 18.2406C84.2837 18.1244 84.2423 17.9593 84.2423 17.7453C84.2423 17.5289 84.2837 17.3644 84.3666 17.2519C84.4495 17.1394 84.569 17.0831 84.7257 17.0831C84.8838 17.0831 85.0034 17.1394 85.0848 17.2519C85.1677 17.3644 85.2091 17.5282 85.2091 17.7435C85.2091 17.9587 85.1677 18.1244 85.0848 18.2406C85.0019 18.3555 84.8824 18.413 84.7257 18.413ZM84.7257 18.2204C84.811 18.2204 84.8733 18.1825 84.9138 18.1067C84.9553 18.0296 84.9757 17.9086 84.9757 17.7435C84.9757 17.5796 84.9553 17.461 84.9138 17.3877C84.8733 17.313 84.811 17.2757 84.7257 17.2757C84.6419 17.2757 84.579 17.313 84.5376 17.3877C84.4961 17.461 84.4757 17.5796 84.4757 17.7435C84.4757 17.9086 84.4961 18.0296 84.5376 18.1067C84.579 18.1825 84.6419 18.2204 84.7257 18.2204ZM85.853 18.413C85.6963 18.413 85.5768 18.3555 85.4939 18.2406C85.411 18.1244 85.3701 17.9593 85.3701 17.7453C85.3701 17.5289 85.411 17.3644 85.4939 17.2519C85.5768 17.1394 85.6963 17.0831 85.853 17.0831C86.0111 17.0831 86.1306 17.1394 86.2121 17.2519C86.2949 17.3644 86.3364 17.5282 86.3364 17.7435C86.3364 17.9587 86.2949 18.1244 86.2121 18.2406C86.1292 18.3555 86.0097 18.413 85.853 18.413ZM85.853 18.2204C85.9382 18.2204 86.0011 18.1825 86.0411 18.1067C86.0825 18.0296 86.103 17.9086 86.103 17.7435C86.103 17.5796 86.0825 17.461 86.0411 17.3877C86.0011 17.313 85.9382 17.2757 85.853 17.2757C85.7692 17.2757 85.7063 17.313 85.6649 17.3877C85.6234 17.461 85.603 17.5796 85.603 17.7435C85.603 17.9086 85.6234 18.0296 85.6649 18.1067C85.7063 18.1825 85.7692 18.2204 85.853 18.2204ZM87.6546 18.413C87.5256 18.413 87.4151 18.3751 87.3236 18.2993C87.2332 18.2235 87.1727 18.114 87.1412 17.971H86.9588V17.8095H87.1208C87.1179 17.7655 87.1179 17.7239 87.1208 17.6848H86.9588V17.5234H87.1412C87.1736 17.3815 87.2351 17.2727 87.3255 17.1969C87.4156 17.121 87.5256 17.0831 87.6546 17.0831C87.727 17.0831 87.7961 17.096 87.8613 17.1216C87.9266 17.1473 87.9804 17.1853 88.0232 17.2354L87.9442 17.3987C87.9042 17.3558 87.8613 17.3259 87.8161 17.3088C87.7713 17.2917 87.7227 17.2831 87.6713 17.2831C87.6037 17.2831 87.5446 17.3026 87.4946 17.3418C87.446 17.3797 87.4103 17.4402 87.3875 17.5234H87.6694V17.6848H87.3594C87.3579 17.7264 87.3589 17.768 87.3613 17.8095H87.6694V17.971H87.3875C87.4103 18.0553 87.446 18.1171 87.4946 18.1562C87.5446 18.1941 87.6037 18.2131 87.6713 18.2131C87.7227 18.2131 87.7713 18.2045 87.8161 18.1874C87.8613 18.1691 87.9042 18.1391 87.9442 18.0975L88.0232 18.2589C87.9804 18.3103 87.9266 18.3488 87.8613 18.3745C87.7961 18.4002 87.727 18.413 87.6546 18.413Z" fill="#414141"/>
<path d="M109.129 20.3719H78.1055C77.8089 20.3719 77.5684 20.6066 77.5684 20.896V26.137C77.5684 26.4264 77.8089 26.6611 78.1055 26.6611H109.129C109.425 26.6611 109.666 26.4264 109.666 26.137V20.896C109.666 20.6066 109.425 20.3719 109.129 20.3719Z" fill="#3BA0A8"/>
<path d="M86.9395 24.2175V22.5549H87.6843C87.8629 22.5549 88.0015 22.5934 88.1001 22.6704C88.1982 22.7459 88.2472 22.8512 88.2472 22.9865C88.2472 23.0761 88.2239 23.1531 88.1772 23.2176C88.1306 23.2821 88.0663 23.3292 87.9839 23.3591C88.0805 23.3858 88.1553 23.433 88.2087 23.5006C88.2634 23.5666 88.291 23.6507 88.291 23.753C88.291 23.9007 88.2391 24.0155 88.1363 24.0973C88.0348 24.1774 87.8929 24.2175 87.7105 24.2175H86.9395ZM87.2371 23.26H87.631C87.8419 23.26 87.9477 23.1806 87.9477 23.0218C87.9477 22.863 87.8419 22.7836 87.631 22.7836H87.2371V23.26ZM87.2371 23.9888H87.6719C87.8848 23.9888 87.991 23.9055 87.991 23.7388C87.991 23.5721 87.8848 23.4888 87.6719 23.4888H87.2371V23.9888ZM89.0026 24.2412C88.7125 24.2412 88.5677 24.0823 88.5677 23.7647V23.0643H88.8697V23.7695C88.8697 23.8512 88.8868 23.9117 88.9206 23.951C88.9545 23.9903 89.0083 24.01 89.0826 24.01C89.1631 24.01 89.2293 23.9833 89.2807 23.9298C89.3321 23.8748 89.3578 23.8024 89.3578 23.7129V23.0643H89.6603V24.2175H89.3655V24.0454C89.2864 24.1759 89.1654 24.2412 89.0026 24.2412ZM90.0813 24.6421L90.2989 24.1704L89.8079 23.0643H90.1294L90.4608 23.8708L90.799 23.0643H91.1038L90.3927 24.6421H90.0813ZM92.4401 24.2412C92.1277 24.2412 91.9715 24.0902 91.9715 23.7883V23.286H91.7439V23.0643H91.9715V22.7199H92.2734V23.0643H92.6311V23.286H92.2734V23.7718C92.2734 23.8473 92.2906 23.9039 92.3244 23.9416C92.3582 23.9793 92.413 23.9982 92.4887 23.9982C92.5111 23.9982 92.5344 23.9959 92.5587 23.9911C92.583 23.9849 92.6078 23.9785 92.6335 23.9723L92.6797 24.1893C92.6506 24.205 92.6135 24.2175 92.5682 24.227C92.5249 24.2364 92.482 24.2412 92.4401 24.2412ZM92.8073 22.8166V22.5289H93.1454V22.8166H92.8073ZM92.8264 24.2175V23.0643H93.1288V24.2175H92.8264ZM93.9889 24.2412C93.8651 24.2412 93.757 24.2168 93.665 24.168C93.5731 24.1177 93.5022 24.0469 93.4522 23.9558C93.4022 23.8646 93.3774 23.7577 93.3774 23.635C93.3774 23.5124 93.4022 23.407 93.4522 23.319C93.5022 23.2294 93.5731 23.161 93.665 23.1138C93.757 23.0651 93.8651 23.0407 93.9889 23.0407C94.0646 23.0407 94.1399 23.0525 94.2137 23.0761C94.288 23.0996 94.3494 23.1327 94.3975 23.1751L94.308 23.3803C94.2661 23.3441 94.2184 23.3166 94.1656 23.2978C94.1137 23.2789 94.0641 23.2695 94.0156 23.2695C93.9108 23.2695 93.8293 23.3017 93.7712 23.3662C93.715 23.4291 93.6869 23.5194 93.6869 23.6374C93.6869 23.7537 93.715 23.8457 93.7712 23.9133C93.8293 23.9793 93.9108 24.0124 94.0156 24.0124C94.0622 24.0124 94.1122 24.0029 94.1656 23.9841C94.2184 23.9652 94.2661 23.9369 94.308 23.8992L94.3975 24.1067C94.3494 24.1476 94.287 24.1806 94.2113 24.2057C94.1375 24.2293 94.0632 24.2412 93.9889 24.2412ZM94.5828 24.2175V22.5549H94.8852V23.5548H94.89L95.3662 23.0643H95.731L95.1943 23.6162L95.7648 24.2175H95.3952L94.89 23.7034H94.8852V24.2175H94.5828ZM96.4378 24.2412C96.3039 24.2412 96.1887 24.2168 96.092 24.168C95.9953 24.1193 95.9206 24.0501 95.8672 23.9605C95.8158 23.8708 95.7901 23.7647 95.7901 23.6421C95.7901 23.5226 95.8148 23.4181 95.8648 23.3284C95.9167 23.2388 95.9868 23.1688 96.0753 23.1185C96.1653 23.0667 96.2677 23.0407 96.3825 23.0407C96.5497 23.0407 96.6821 23.0926 96.7788 23.1963C96.8769 23.3001 96.9264 23.4416 96.9264 23.6209V23.7081H96.0801C96.1025 23.9141 96.2234 24.0171 96.4425 24.0171C96.5087 24.0171 96.5749 24.0076 96.6411 23.9888C96.7068 23.9683 96.7673 23.9369 96.8221 23.8944L96.9069 24.0926C96.8507 24.1381 96.7797 24.1743 96.694 24.2011C96.6087 24.2278 96.5235 24.2412 96.4378 24.2412ZM96.3944 23.2412C96.3058 23.2412 96.2339 23.2679 96.1792 23.3214C96.1244 23.3748 96.0915 23.4471 96.0801 23.5383H96.6749C96.6683 23.4424 96.6411 23.3693 96.5925 23.319C96.5459 23.2671 96.4797 23.2412 96.3944 23.2412ZM97.7022 24.2412C97.3898 24.2412 97.2331 24.0902 97.2331 23.7883V23.286H97.0059V23.0643H97.2331V22.7199H97.5355V23.0643H97.8932V23.286H97.5355V23.7718C97.5355 23.8473 97.5522 23.9039 97.5865 23.9416C97.6203 23.9793 97.6751 23.9982 97.7508 23.9982C97.7732 23.9982 97.7965 23.9959 97.8208 23.9911C97.8451 23.9849 97.8698 23.9785 97.8956 23.9723L97.9418 24.1893C97.9127 24.205 97.8756 24.2175 97.8303 24.227C97.787 24.2364 97.7441 24.2412 97.7022 24.2412ZM98.5214 24.2412C98.4213 24.2412 98.328 24.2293 98.2408 24.2057C98.1537 24.1822 98.0813 24.1484 98.0232 24.1044L98.1008 23.9109C98.1604 23.9502 98.227 23.9809 98.3013 24.0029C98.3756 24.0234 98.4494 24.0336 98.5237 24.0336C98.6009 24.0336 98.658 24.021 98.6952 23.9959C98.7342 23.9691 98.7533 23.9345 98.7533 23.8921C98.7533 23.826 98.7033 23.7836 98.6033 23.7647L98.3618 23.7199C98.157 23.6822 98.0546 23.5784 98.0546 23.4086C98.0546 23.3331 98.0756 23.2679 98.1175 23.2129C98.1613 23.1578 98.2208 23.1154 98.2966 23.0855C98.3723 23.0556 98.4594 23.0407 98.5575 23.0407C98.6414 23.0407 98.7219 23.0525 98.7995 23.0761C98.8766 23.0981 98.9428 23.1319 98.9976 23.1775L98.9152 23.3709C98.8685 23.3331 98.8123 23.3033 98.7461 23.2813C98.6818 23.2592 98.6195 23.2482 98.5599 23.2482C98.4809 23.2482 98.4223 23.2616 98.3837 23.2883C98.3466 23.315 98.328 23.3504 98.328 23.3944C98.328 23.4636 98.3737 23.5061 98.4656 23.5218L98.7076 23.5666C98.8123 23.5855 98.8909 23.6201 98.9443 23.6704C98.999 23.7207 99.0266 23.7883 99.0266 23.8732C99.0266 23.988 98.9805 24.0784 98.8885 24.1444C98.7966 24.2089 98.6742 24.2412 98.5214 24.2412Z" fill="white"/>
<path d="M102.899 23.5642L101.898 24.5409C101.883 24.5539 101.865 24.5609 101.845 24.5606C101.826 24.5603 101.807 24.5525 101.793 24.5391C101.78 24.5257 101.772 24.5076 101.772 24.4886C101.771 24.4697 101.779 24.4513 101.792 24.4374L102.74 23.5124L101.792 22.5874C101.779 22.5735 101.771 22.5552 101.772 22.5362C101.772 22.5172 101.78 22.4991 101.793 22.4857C101.807 22.4722 101.826 22.4646 101.845 22.4642C101.865 22.4639 101.883 22.4709 101.898 22.4839L102.899 23.4607C102.913 23.4744 102.921 23.493 102.921 23.5124C102.921 23.5318 102.913 23.5504 102.899 23.5642Z" fill="white"/>
</g>
</g>
<g filter="url(#filter1_d_1384_37283)">
<mask id="mask2_1384_37283" style="mask-type:luminance" maskUnits="userSpaceOnUse" x="5" y="33" width="109" height="16">
<path d="M113.428 33.2656H6.2579C5.96121 33.2656 5.7207 33.5003 5.7207 33.7897V47.9402C5.7207 48.2297 5.96121 48.4643 6.2579 48.4643H113.428C113.725 48.4643 113.965 48.2297 113.965 47.9402V33.7897C113.965 33.5003 113.725 33.2656 113.428 33.2656Z" fill="white"/>
</mask>
<g mask="url(#mask2_1384_37283)">
<path d="M113.428 33.2656H6.2579C5.96121 33.2656 5.7207 33.5003 5.7207 33.7897V47.9402C5.7207 48.2297 5.96121 48.4643 6.2579 48.4643H113.428C113.725 48.4643 113.965 48.2297 113.965 47.9402V33.7897C113.965 33.5003 113.725 33.2656 113.428 33.2656Z" fill="white"/>
<path d="M19.6878 33.2656H5.7207V48.4643H19.6878V33.2656Z" fill="#F1F1F1"/>
<path d="M19.6875 33.2656H113.428C113.725 33.2656 113.965 33.5003 113.965 33.7897V47.9404C113.965 48.2299 113.725 48.4645 113.428 48.4645H19.6875V33.2656Z" fill="white"/>
<path d="M109.129 37.7207H78.1055C77.8089 37.7207 77.5684 37.9553 77.5684 38.2448V43.4857C77.5684 43.7752 77.8089 44.0098 78.1055 44.0098H109.129C109.425 44.0098 109.666 43.7752 109.666 43.4857V38.2448C109.666 37.9553 109.425 37.7207 109.129 37.7207Z" fill="#3BA0A8"/>
</g>
</g>
<g filter="url(#filter2_d_1384_37283)">
<mask id="mask3_1384_37283" style="mask-type:luminance" maskUnits="userSpaceOnUse" x="5" y="52" width="109" height="16">
<path d="M113.428 52.6172H6.2579C5.96121 52.6172 5.7207 52.8518 5.7207 53.1413V67.2918C5.7207 67.5813 5.96121 67.8159 6.2579 67.8159H113.428C113.725 67.8159 113.965 67.5813 113.965 67.2918V53.1413C113.965 52.8518 113.725 52.6172 113.428 52.6172Z" fill="white"/>
</mask>
<g mask="url(#mask3_1384_37283)">
<path d="M113.428 52.6172H6.2579C5.96121 52.6172 5.7207 52.8518 5.7207 53.1413V67.2918C5.7207 67.5813 5.96121 67.8159 6.2579 67.8159H113.428C113.725 67.8159 113.965 67.5813 113.965 67.2918V53.1413C113.965 52.8518 113.725 52.6172 113.428 52.6172Z" fill="white"/>
<path d="M19.6878 52.6172H5.7207V67.8159H19.6878V52.6172Z" fill="#F1F1F1"/>
<path d="M19.6875 52.6172H113.428C113.725 52.6172 113.965 52.8518 113.965 53.1413V67.2917C113.965 67.5812 113.725 67.8158 113.428 67.8158H19.6875V52.6172Z" fill="white"/>
<path d="M109.129 57.0723H78.1055C77.8089 57.0723 77.5684 57.3069 77.5684 57.5964V62.8373C77.5684 63.1268 77.8089 63.3614 78.1055 63.3614H109.129C109.425 63.3614 109.666 63.1268 109.666 62.8373V57.5964C109.666 57.3069 109.425 57.0723 109.129 57.0723Z" fill="#3BA0A8"/>
</g>
</g>
</g>
</g>
<defs>
<filter id="filter0_d_1384_37283" x="1.92577" y="11.1538" width="115.834" height="22.7886" filterUnits="userSpaceOnUse" color-interpolation-filters="sRGB">
<feFlood flood-opacity="0" result="BackgroundImageFix"/>
<feColorMatrix in="SourceAlpha" type="matrix" values="0 0 0 0 0 0 0 0 0 0 0 0 0 0 0 0 0 0 127 0" result="hardAlpha"/>
<feOffset dy="0.948733"/>
<feGaussianBlur stdDeviation="1.89747"/>
<feComposite in2="hardAlpha" operator="out"/>
<feColorMatrix type="matrix" values="0 0 0 0 0 0 0 0 0 0 0 0 0 0 0 0 0 0 0.3 0"/>
<feBlend mode="normal" in2="BackgroundImageFix" result="effect1_dropShadow_1384_37283"/>
<feBlend mode="normal" in="SourceGraphic" in2="effect1_dropShadow_1384_37283" result="shape"/>
</filter>
<filter id="filter1_d_1384_37283" x="1.92577" y="30.4194" width="115.834" height="22.7886" filterUnits="userSpaceOnUse" color-interpolation-filters="sRGB">
<feFlood flood-opacity="0" result="BackgroundImageFix"/>
<feColorMatrix in="SourceAlpha" type="matrix" values="0 0 0 0 0 0 0 0 0 0 0 0 0 0 0 0 0 0 127 0" result="hardAlpha"/>
<feOffset dy="0.948733"/>
<feGaussianBlur stdDeviation="1.89747"/>
<feComposite in2="hardAlpha" operator="out"/>
<feColorMatrix type="matrix" values="0 0 0 0 0 0 0 0 0 0 0 0 0 0 0 0 0 0 0.3 0"/>
<feBlend mode="normal" in2="BackgroundImageFix" result="effect1_dropShadow_1384_37283"/>
<feBlend mode="normal" in="SourceGraphic" in2="effect1_dropShadow_1384_37283" result="shape"/>
</filter>
<filter id="filter2_d_1384_37283" x="1.92577" y="49.771" width="115.834" height="22.7886" filterUnits="userSpaceOnUse" color-interpolation-filters="sRGB">
<feFlood flood-opacity="0" result="BackgroundImageFix"/>
<feColorMatrix in="SourceAlpha" type="matrix" values="0 0 0 0 0 0 0 0 0 0 0 0 0 0 0 0 0 0 127 0" result="hardAlpha"/>
<feOffset dy="0.948733"/>
<feGaussianBlur stdDeviation="1.89747"/>
<feComposite in2="hardAlpha" operator="out"/>
<feColorMatrix type="matrix" values="0 0 0 0 0 0 0 0 0 0 0 0 0 0 0 0 0 0 0.3 0"/>
<feBlend mode="normal" in2="BackgroundImageFix" result="effect1_dropShadow_1384_37283"/>
<feBlend mode="normal" in="SourceGraphic" in2="effect1_dropShadow_1384_37283" result="shape"/>
</filter>
<clipPath id="clip0_1384_37283">
<rect width="120" height="80" fill="white"/>
</clipPath>
</defs>
</svg>
