<svg width="120" height="80" viewBox="0 0 120 80" fill="none" xmlns="http://www.w3.org/2000/svg">
<g clip-path="url(#clip0_1384_7597)">
<mask id="mask0_1384_7597" style="mask-type:luminance" maskUnits="userSpaceOnUse" x="0" y="0" width="120" height="80">
<path d="M120 0H0V80H120V0Z" fill="white"/>
</mask>
<g mask="url(#mask0_1384_7597)">
<path d="M120 0H0V80H120V0Z" fill="white"/>
<mask id="mask1_1384_7597" style="mask-type:luminance" maskUnits="userSpaceOnUse" x="0" y="-1" width="121" height="82">
<path d="M117.179 -1H3.30145C1.61079 -1 0.240234 0.370555 0.240234 2.06122V77.3674C0.240234 79.058 1.61079 80.4286 3.30145 80.4286H117.179C118.87 80.4286 120.24 79.058 120.24 77.3674V2.06122C120.24 0.370555 118.87 -1 117.179 -1Z" fill="white"/>
</mask>
<g mask="url(#mask1_1384_7597)">
<path d="M117.179 -1H3.30145C1.61079 -1 0.240234 0.370555 0.240234 2.06122V77.3674C0.240234 79.058 1.61079 80.4286 3.30145 80.4286H117.179C118.87 80.4286 120.24 79.058 120.24 77.3674V2.06122C120.24 0.370555 118.87 -1 117.179 -1Z" fill="white"/>
<g filter="url(#filter0_d_1384_7597)">
<mask id="mask2_1384_7597" style="mask-type:luminance" maskUnits="userSpaceOnUse" x="11" y="11" width="48" height="53">
<path d="M57.7671 11.8984H11.7251C11.4605 11.8984 11.2461 12.1129 11.2461 12.3774V63.4195C11.2461 63.684 11.4605 63.8984 11.7251 63.8984H57.7671C58.0317 63.8984 58.2461 63.684 58.2461 63.4195V12.3774C58.2461 12.1129 58.0317 11.8984 57.7671 11.8984Z" fill="white"/>
</mask>
<g mask="url(#mask2_1384_7597)">
<path d="M60.2461 11.8984H11.2461V32.8984H60.2461V11.8984Z" fill="#F9F9F9"/>
<path d="M58.2461 32.8984H11.2461V37.0894H58.2461V32.8984Z" fill="#F1F1F1"/>
<path d="M14.3065 35.3876V35.1898L14.7814 34.6836C14.8452 34.6142 14.891 34.5531 14.9188 34.5003C14.9466 34.4462 14.9605 34.3914 14.9605 34.3358C14.9605 34.1942 14.8751 34.1234 14.7043 34.1234C14.571 34.1234 14.4481 34.1734 14.3356 34.2733L14.2461 34.0734C14.3044 34.0206 14.3773 33.9783 14.4648 33.9463C14.5523 33.9144 14.6432 33.8984 14.7376 33.8984C14.8945 33.8984 15.0146 33.9338 15.0979 34.0047C15.1826 34.0755 15.225 34.1768 15.225 34.3087C15.225 34.3976 15.2035 34.483 15.1604 34.5649C15.1188 34.6468 15.0528 34.735 14.9626 34.8294L14.6397 35.1668H15.2812V35.3876H14.3065ZM16.0135 35.4084C15.84 35.4084 15.7074 35.3432 15.6157 35.2127C15.5241 35.0808 15.4783 34.8933 15.4783 34.6503C15.4783 34.4045 15.5241 34.2178 15.6157 34.09C15.7074 33.9623 15.84 33.8984 16.0135 33.8984C16.1885 33.8984 16.3211 33.9623 16.4113 34.09C16.503 34.2178 16.5488 34.4039 16.5488 34.6482C16.5488 34.8926 16.503 35.0808 16.4113 35.2127C16.3197 35.3432 16.1871 35.4084 16.0135 35.4084ZM16.0135 35.1898C16.1079 35.1898 16.1774 35.1467 16.2218 35.0606C16.2676 34.9731 16.2905 34.8357 16.2905 34.6482C16.2905 34.4622 16.2676 34.3275 16.2218 34.2442C16.1774 34.1595 16.1079 34.1171 16.0135 34.1171C15.9205 34.1171 15.8511 34.1595 15.8053 34.2442C15.7594 34.3275 15.7365 34.4622 15.7365 34.6482C15.7365 34.8357 15.7594 34.9731 15.8053 35.0606C15.8511 35.1467 15.9205 35.1898 16.0135 35.1898Z" fill="#414141"/>
<path d="M17.4941 35.4498V33.9349H18.0571C18.3106 33.9349 18.5061 34.0001 18.6437 34.1305C18.7827 34.2608 18.8521 34.4478 18.8521 34.6913C18.8521 34.9334 18.7827 35.1203 18.6437 35.2521C18.5061 35.3839 18.3106 35.4498 18.0571 35.4498H17.4941ZM17.7691 35.222H18.0399C18.3894 35.222 18.5642 35.0451 18.5642 34.6913C18.5642 34.3389 18.3894 34.1627 18.0399 34.1627H17.7691V35.222ZM18.9361 35.4498L19.6215 33.9349H19.8472L20.5326 35.4498H20.2533L20.1029 35.0996H19.3637L19.2154 35.4498H18.9361ZM19.7311 34.2336L19.4582 34.8804H20.0083L19.7354 34.2336H19.7311ZM20.8958 35.4498V34.1649H20.3758V33.9349H21.6908V34.1649H21.1708V35.4498H20.8958ZM21.8651 35.4498V33.9349H22.8729V34.1541H22.1294V34.571H22.8256V34.7901H22.1294V35.2307H22.8729V35.4498H21.8651Z" fill="#414141"/>
<path d="M38.3711 21.0859H37.2883L36.7559 20.2875C36.7273 20.2447 36.6887 20.2097 36.6434 20.1854C36.5981 20.1612 36.5475 20.1485 36.4961 20.1484H33.9961C33.9447 20.1485 33.8941 20.1612 33.8488 20.1854C33.8035 20.2097 33.7649 20.2447 33.7363 20.2875L33.2035 21.0859H32.1211C31.8725 21.0859 31.634 21.1847 31.4582 21.3605C31.2824 21.5363 31.1836 21.7748 31.1836 22.0234V26.3984C31.1836 26.6471 31.2824 26.8855 31.4582 27.0614C31.634 27.2372 31.8725 27.3359 32.1211 27.3359H38.3711C38.6197 27.3359 38.8582 27.2372 39.034 27.0614C39.2098 26.8855 39.3086 26.6471 39.3086 26.3984V22.0234C39.3086 21.7748 39.2098 21.5363 39.034 21.3605C38.8582 21.1847 38.6197 21.0859 38.3711 21.0859ZM36.6523 24.0547C36.6523 24.3328 36.5699 24.6047 36.4153 24.836C36.2608 25.0672 36.0412 25.2475 35.7842 25.3539C35.5273 25.4603 35.2445 25.4882 34.9717 25.4339C34.699 25.3797 34.4484 25.2457 34.2517 25.0491C34.0551 24.8524 33.9211 24.6018 33.8669 24.329C33.8126 24.0562 33.8405 23.7735 33.9469 23.5165C34.0533 23.2596 34.2336 23.04 34.4648 22.8854C34.6961 22.7309 34.968 22.6484 35.2461 22.6484C35.6191 22.6484 35.9767 22.7966 36.2405 23.0603C36.5042 23.324 36.6523 23.6817 36.6523 24.0547Z" fill="#3BA0A8"/>
<path d="M58.2461 37.0895H11.2461V64.0895H58.2461V37.0895Z" fill="white"/>
<path d="M14.2461 54.2428V52.9172H15.1129V53.109H14.4866V53.4832H15.0733V53.675H14.4866V54.2428H14.2461ZM15.261 54.2428V53.3233H15.4901V53.4851C15.5353 53.376 15.632 53.3158 15.7796 53.3046L15.8511 53.2989L15.8663 53.4982L15.731 53.5114C15.5767 53.5264 15.4996 53.6054 15.4996 53.7483V54.2428H15.261ZM16.4016 54.2616C16.3063 54.2616 16.2235 54.2421 16.1535 54.2033C16.0835 54.1645 16.0287 54.1093 15.9901 54.0378C15.9511 53.9651 15.9315 53.8799 15.9315 53.7821C15.9315 53.6843 15.9511 53.5998 15.9901 53.5283C16.0287 53.4568 16.0835 53.4017 16.1535 53.3628C16.2235 53.324 16.3063 53.3046 16.4016 53.3046C16.4968 53.3046 16.5797 53.324 16.6497 53.3628C16.7202 53.4017 16.7745 53.4568 16.8135 53.5283C16.8521 53.5998 16.8717 53.6843 16.8717 53.7821C16.8717 53.8799 16.8521 53.9651 16.8135 54.0378C16.7745 54.1093 16.7202 54.1645 16.6497 54.2033C16.5797 54.2421 16.4968 54.2616 16.4016 54.2616ZM16.4016 54.083C16.4721 54.083 16.5283 54.0579 16.5711 54.0078C16.6135 53.9564 16.635 53.8811 16.635 53.7821C16.635 53.6819 16.6135 53.6073 16.5711 53.5584C16.5283 53.5082 16.4721 53.4832 16.4016 53.4832C16.3316 53.4832 16.2749 53.5082 16.2325 53.5584C16.1897 53.6073 16.1687 53.6819 16.1687 53.7821C16.1687 53.8811 16.1897 53.9564 16.2325 54.0078C16.2749 54.0579 16.3316 54.083 16.4016 54.083ZM17.0693 54.2428V53.3233H17.2988V53.4644C17.3265 53.4143 17.3646 53.3754 17.4136 53.3478C17.4627 53.319 17.5189 53.3046 17.5827 53.3046C17.7208 53.3046 17.8108 53.3647 17.8537 53.4851C17.8823 53.4286 17.9237 53.3848 17.9775 53.3534C18.0313 53.3209 18.0928 53.3046 18.1618 53.3046C18.3685 53.3046 18.4723 53.4306 18.4723 53.6825V54.2428H18.2371V53.6919C18.2371 53.6217 18.2252 53.5703 18.2013 53.5377C18.179 53.5051 18.1399 53.4888 18.0847 53.4888C18.0232 53.4888 17.9751 53.5108 17.9399 53.5546C17.9051 53.5972 17.8875 53.6568 17.8875 53.7333V54.2428H17.6522V53.6919C17.6522 53.6217 17.6403 53.5703 17.6165 53.5377C17.5941 53.5051 17.556 53.4888 17.5017 53.4888C17.4403 53.4888 17.3922 53.5108 17.357 53.5546C17.3222 53.5972 17.3046 53.6568 17.3046 53.7333V54.2428H17.0693ZM19.712 54.2616C19.5477 54.2616 19.4205 54.2039 19.3305 54.0886C19.2415 53.9733 19.1967 53.8116 19.1967 53.6035C19.1967 53.3792 19.2472 53.2055 19.3472 53.0827C19.4486 52.9599 19.5887 52.8984 19.7668 52.8984C19.8368 52.8984 19.9063 52.9116 19.9754 52.9379C20.0444 52.963 20.103 52.9994 20.1521 53.047L20.073 53.2275C20.0268 53.1849 19.9773 53.1535 19.9244 53.1335C19.872 53.1122 19.8182 53.1015 19.763 53.1015C19.6539 53.1015 19.5706 53.1398 19.5129 53.2162C19.4553 53.2927 19.4263 53.4067 19.4263 53.5584V53.6129C19.4524 53.544 19.4953 53.4901 19.5539 53.4512C19.6129 53.4124 19.6806 53.3929 19.7572 53.3929C19.8334 53.3929 19.9016 53.4111 19.9601 53.4475C20.0192 53.4838 20.0654 53.5339 20.0992 53.5979C20.133 53.6618 20.1501 53.7351 20.1501 53.8178C20.1501 53.9031 20.1311 53.9796 20.094 54.0472C20.0573 54.1137 20.0058 54.1663 19.9396 54.2052C19.8744 54.2428 19.7987 54.2616 19.712 54.2616ZM19.6987 54.0698C19.7668 54.0698 19.8211 54.0479 19.8625 54.004C19.9049 53.9589 19.9263 53.8999 19.9263 53.8273C19.9263 53.7545 19.9049 53.6956 19.8625 53.6505C19.8211 53.6054 19.7668 53.5828 19.6987 53.5828C19.631 53.5828 19.5763 53.6054 19.5334 53.6505C19.492 53.6956 19.4715 53.7545 19.4715 53.8273C19.4715 53.8999 19.492 53.9589 19.5334 54.004C19.5763 54.0479 19.631 54.0698 19.6987 54.0698ZM20.4426 54.4928L20.3468 54.4176C20.3783 54.3863 20.4011 54.3562 20.4164 54.3274C20.4326 54.2998 20.444 54.2716 20.4502 54.2428H20.3278V53.9814H20.5912V54.1544C20.5912 54.2183 20.5802 54.2766 20.5573 54.3293C20.5359 54.3831 20.4978 54.4377 20.4426 54.4928ZM21.257 54.2616C21.1003 54.2616 20.9807 54.2026 20.8979 54.0848C20.815 53.9658 20.7736 53.7965 20.7736 53.5772C20.7736 53.3554 20.815 53.1868 20.8979 53.0714C20.9807 52.9561 21.1003 52.8984 21.257 52.8984C21.4151 52.8984 21.5346 52.9561 21.616 53.0714C21.6989 53.1868 21.7403 53.3547 21.7403 53.5753C21.7403 53.7959 21.6989 53.9658 21.616 54.0848C21.5332 54.2026 21.4136 54.2616 21.257 54.2616ZM21.257 54.0642C21.3422 54.0642 21.4046 54.0253 21.4451 53.9476C21.4865 53.8686 21.507 53.7445 21.507 53.5753C21.507 53.4074 21.4865 53.2858 21.4451 53.2106C21.4046 53.1341 21.3422 53.0958 21.257 53.0958C21.1731 53.0958 21.1103 53.1341 21.0688 53.2106C21.0274 53.2858 21.0069 53.4074 21.0069 53.5753C21.0069 53.7445 21.0274 53.8686 21.0688 53.9476C21.1103 54.0253 21.1731 54.0642 21.257 54.0642ZM22.3842 54.2616C22.2276 54.2616 22.108 54.2026 22.0251 54.0848C21.9423 53.9658 21.9013 53.7965 21.9013 53.5772C21.9013 53.3554 21.9423 53.1868 22.0251 53.0714C22.108 52.9561 22.2276 52.8984 22.3842 52.8984C22.5424 52.8984 22.6619 52.9561 22.7433 53.0714C22.8262 53.1868 22.8676 53.3547 22.8676 53.5753C22.8676 53.7959 22.8262 53.9658 22.7433 54.0848C22.6605 54.2026 22.5409 54.2616 22.3842 54.2616ZM22.3842 54.0642C22.4695 54.0642 22.5323 54.0253 22.5723 53.9476C22.6138 53.8686 22.6343 53.7445 22.6343 53.5753C22.6343 53.4074 22.6138 53.2858 22.5723 53.2106C22.5323 53.1341 22.4695 53.0958 22.3842 53.0958C22.3004 53.0958 22.2375 53.1341 22.1961 53.2106C22.1547 53.2858 22.1342 53.4074 22.1342 53.5753C22.1342 53.7445 22.1547 53.8686 22.1961 53.9476C22.2375 54.0253 22.3004 54.0642 22.3842 54.0642ZM24.1859 54.2616C24.0568 54.2616 23.9463 54.2227 23.8549 54.145C23.7644 54.0673 23.7039 53.9551 23.6725 53.8085H23.4901V53.643H23.652C23.6492 53.5979 23.6492 53.5552 23.652 53.5151H23.4901V53.3497H23.6725C23.7049 53.2043 23.7663 53.0927 23.8568 53.015C23.9468 52.9373 24.0568 52.8984 24.1859 52.8984C24.2583 52.8984 24.3273 52.9116 24.3926 52.9379C24.4578 52.9643 24.5116 53.0031 24.5545 53.0545L24.4754 53.2219C24.4354 53.1779 24.3926 53.1473 24.3473 53.1297C24.3026 53.1122 24.254 53.1034 24.2026 53.1034C24.1349 53.1034 24.0759 53.1234 24.0259 53.1636C23.9773 53.2024 23.9416 53.2644 23.9187 53.3497H24.2006V53.5151H23.8906C23.8892 53.5578 23.8901 53.6004 23.8925 53.643H24.2006V53.8085H23.9187C23.9416 53.8949 23.9773 53.9582 24.0259 53.9983C24.0759 54.0372 24.1349 54.0566 24.2026 54.0566C24.254 54.0566 24.3026 54.0479 24.3473 54.0303C24.3926 54.0115 24.4354 53.9808 24.4754 53.9382L24.5545 54.1036C24.5116 54.1563 24.4578 54.1958 24.3926 54.2221C24.3273 54.2484 24.2583 54.2616 24.1859 54.2616Z" fill="#414141"/>
<path d="M15.1292 42.2384C14.9509 42.2384 14.7854 42.2159 14.6329 42.1708C14.4803 42.1235 14.3513 42.0601 14.2461 41.9806L14.3718 41.6551C14.4771 41.7303 14.592 41.7883 14.7167 41.8291C14.8435 41.87 14.9809 41.8903 15.1292 41.8903C15.299 41.8903 15.4225 41.8624 15.4999 41.8066C15.5773 41.7485 15.6159 41.6744 15.6159 41.5842C15.6159 41.509 15.588 41.4499 15.5321 41.4069C15.4784 41.3639 15.3849 41.3285 15.2517 41.3005L14.8972 41.2264C14.4932 41.1404 14.2912 40.9331 14.2912 40.6043C14.2912 40.4625 14.3288 40.3389 14.404 40.2337C14.4792 40.1284 14.5834 40.0467 14.7167 39.9887C14.8499 39.9307 15.0035 39.9017 15.1776 39.9017C15.3323 39.9017 15.4773 39.9253 15.6127 39.9726C15.7481 40.0177 15.8609 40.0822 15.9511 40.1659L15.8254 40.4754C15.6471 40.325 15.43 40.2498 15.1744 40.2498C15.0261 40.2498 14.91 40.2809 14.8263 40.3433C14.7424 40.4055 14.7005 40.4872 14.7005 40.5882C14.7005 40.6655 14.7263 40.7279 14.7779 40.7752C14.8295 40.8203 14.9176 40.8557 15.0422 40.8815L15.3935 40.9557C15.6063 41.0008 15.7642 41.0717 15.8673 41.1684C15.9726 41.2651 16.0253 41.394 16.0253 41.5552C16.0253 41.6905 15.9887 41.8098 15.9157 41.9129C15.8426 42.0161 15.7384 42.0967 15.603 42.1547C15.4698 42.2105 15.3119 42.2384 15.1292 42.2384ZM17.1174 42.2384C16.9391 42.2384 16.7855 42.2051 16.6565 42.1385C16.5276 42.0719 16.4277 41.9774 16.3568 41.8549C16.2881 41.7324 16.2537 41.5874 16.2537 41.4198C16.2537 41.2565 16.287 41.1136 16.3536 40.9911C16.4223 40.8686 16.5158 40.773 16.634 40.7042C16.7543 40.6333 16.8908 40.5979 17.0433 40.5979C17.2668 40.5979 17.443 40.6688 17.5719 40.8106C17.703 40.9524 17.7685 41.1458 17.7685 41.3908V41.51H16.6404C16.6705 41.7915 16.8317 41.9323 17.1239 41.9323C17.212 41.9323 17.3001 41.9194 17.3882 41.8936C17.4763 41.8656 17.5569 41.8227 17.6299 41.7647L17.7428 42.0354C17.6676 42.0977 17.573 42.1471 17.4591 42.1837C17.3452 42.2202 17.2314 42.2384 17.1174 42.2384ZM17.0594 40.8718C16.9413 40.8718 16.8457 40.9084 16.7726 40.9814C16.6995 41.0545 16.6555 41.1533 16.6404 41.2779H17.4333C17.4247 41.1469 17.3882 41.047 17.3238 40.9782C17.2614 40.9073 17.1734 40.8718 17.0594 40.8718ZM18.6645 42.2384C18.5313 42.2384 18.4067 42.2223 18.2907 42.1901C18.1746 42.1579 18.0779 42.1117 18.0006 42.0515L18.1037 41.7872C18.1832 41.8409 18.2724 41.8828 18.3713 41.9129C18.4701 41.9409 18.569 41.9548 18.6678 41.9548C18.7709 41.9548 18.8472 41.9376 18.8966 41.9033C18.9482 41.8667 18.974 41.8194 18.974 41.7614C18.974 41.6712 18.9074 41.6132 18.7742 41.5874L18.4518 41.5262C18.179 41.4746 18.0425 41.3328 18.0425 41.1007C18.0425 40.9975 18.0704 40.9084 18.1263 40.8332C18.1843 40.758 18.2638 40.6999 18.3648 40.6591C18.4658 40.6183 18.5818 40.5979 18.7129 40.5979C18.8247 40.5979 18.9321 40.614 19.0352 40.6462C19.1384 40.6763 19.2265 40.7225 19.2995 40.7848L19.1899 41.0491C19.1276 40.9975 19.0524 40.9567 18.9643 40.9266C18.8784 40.8966 18.7957 40.8815 18.7161 40.8815C18.6108 40.8815 18.5324 40.8998 18.4809 40.9363C18.4314 40.9728 18.4067 41.0212 18.4067 41.0813C18.4067 41.1759 18.4679 41.2339 18.5904 41.2554L18.9128 41.3166C19.0524 41.3424 19.1577 41.3897 19.2286 41.4584C19.3017 41.5272 19.3382 41.6196 19.3382 41.7357C19.3382 41.8925 19.277 42.0161 19.1545 42.1063C19.032 42.1944 18.8687 42.2384 18.6645 42.2384ZM20.2384 42.2384C20.1051 42.2384 19.9805 42.2223 19.8645 42.1901C19.7484 42.1579 19.6518 42.1117 19.5744 42.0515L19.6775 41.7872C19.7571 41.8409 19.8462 41.8828 19.9451 41.9129C20.0439 41.9409 20.1428 41.9548 20.2416 41.9548C20.3447 41.9548 20.421 41.9376 20.4704 41.9033C20.522 41.8667 20.5478 41.8194 20.5478 41.7614C20.5478 41.6712 20.4812 41.6132 20.348 41.5874L20.0257 41.5262C19.7528 41.4746 19.6163 41.3328 19.6163 41.1007C19.6163 40.9975 19.6442 40.9084 19.7001 40.8332C19.7581 40.758 19.8376 40.6999 19.9386 40.6591C20.0396 40.6183 20.1556 40.5979 20.2867 40.5979C20.3985 40.5979 20.5059 40.614 20.6091 40.6462C20.7122 40.6763 20.8003 40.7225 20.8733 40.7848L20.7638 41.0491C20.7015 40.9975 20.6262 40.9567 20.5382 40.9266C20.4522 40.8966 20.3695 40.8815 20.2899 40.8815C20.1847 40.8815 20.1062 40.8998 20.0547 40.9363C20.0052 40.9728 19.9805 41.0212 19.9805 41.0813C19.9805 41.1759 20.0418 41.2339 20.1642 41.2554L20.4866 41.3166C20.6262 41.3424 20.7315 41.3897 20.8024 41.4584C20.8755 41.5272 20.912 41.6196 20.912 41.7357C20.912 41.8925 20.8508 42.0161 20.7283 42.1063C20.6058 42.1944 20.4425 42.2384 20.2384 42.2384ZM21.2095 40.2917V39.8984H21.6607V40.2917H21.2095ZM21.2352 42.2062V40.6301H21.6381V42.2062H21.2352ZM22.7755 42.2384C22.6122 42.2384 22.4704 42.2051 22.3501 42.1385C22.2297 42.0719 22.1363 41.9774 22.0697 41.8549C22.003 41.7303 21.9698 41.5842 21.9698 41.4166C21.9698 41.2489 22.003 41.1039 22.0697 40.9814C22.1363 40.8589 22.2297 40.7644 22.3501 40.6978C22.4704 40.6312 22.6122 40.5979 22.7755 40.5979C22.9388 40.5979 23.0807 40.6312 23.201 40.6978C23.3214 40.7644 23.4148 40.8589 23.4814 40.9814C23.548 41.1039 23.5813 41.2489 23.5813 41.4166C23.5813 41.5842 23.548 41.7303 23.4814 41.8549C23.4148 41.9774 23.3214 42.0719 23.201 42.1385C23.0807 42.2051 22.9388 42.2384 22.7755 42.2384ZM22.7755 41.9323C22.8959 41.9323 22.9926 41.8893 23.0656 41.8033C23.1387 41.7152 23.1752 41.5863 23.1752 41.4166C23.1752 41.2446 23.1387 41.1168 23.0656 41.033C22.9926 40.947 22.8959 40.9041 22.7755 40.9041C22.6552 40.9041 22.5585 40.947 22.4854 41.033C22.4124 41.1168 22.3759 41.2446 22.3759 41.4166C22.3759 41.5863 22.4124 41.7152 22.4854 41.8033C22.5585 41.8893 22.6552 41.9323 22.7755 41.9323ZM23.9139 42.2062V40.6301H24.3071V40.8751C24.3608 40.7848 24.4328 40.7161 24.5231 40.6688C24.6155 40.6215 24.7186 40.5979 24.8325 40.5979C25.2042 40.5979 25.3901 40.8138 25.3901 41.2457V42.2062H24.9872V41.2651C24.9872 41.1426 24.9636 41.0534 24.9163 40.9975C24.8712 40.9417 24.8002 40.9138 24.7036 40.9138C24.5854 40.9138 24.4908 40.9513 24.4199 41.0265C24.3511 41.0996 24.3168 41.1974 24.3168 41.3199V42.2062H23.9139ZM26.8934 42.2062V40.6301H27.2867V40.8751C27.3404 40.7848 27.4123 40.7161 27.5026 40.6688C27.595 40.6215 27.6981 40.5979 27.812 40.5979C28.1838 40.5979 28.3696 40.8138 28.3696 41.2457V42.2062H27.9667V41.2651C27.9667 41.1426 27.9431 41.0534 27.8958 40.9975C27.8507 40.9417 27.7798 40.9138 27.6831 40.9138C27.5649 40.9138 27.4704 40.9513 27.3995 41.0265C27.3307 41.0996 27.2963 41.1974 27.2963 41.3199V42.2062H26.8934ZM29.2978 42.2384C29.1839 42.2384 29.0818 42.217 28.9916 42.174C28.9035 42.1289 28.8337 42.0687 28.7821 41.9935C28.7326 41.9183 28.7079 41.8334 28.7079 41.7389C28.7079 41.6228 28.738 41.5315 28.7982 41.4649C28.8584 41.3961 28.9562 41.3467 29.0915 41.3166C29.2269 41.2866 29.4084 41.2715 29.6362 41.2715H29.7491V41.2038C29.7491 41.0964 29.7254 41.0191 29.6781 40.9718C29.6309 40.9245 29.5514 40.9008 29.4396 40.9008C29.3515 40.9008 29.2613 40.9148 29.1688 40.9428C29.0765 40.9685 28.983 41.0093 28.8884 41.0652L28.7724 40.7913C28.8283 40.7526 28.8938 40.7193 28.969 40.6913C29.0464 40.6612 29.127 40.6387 29.2108 40.6237C29.2967 40.6065 29.3773 40.5979 29.4525 40.5979C29.6824 40.5979 29.8533 40.6516 29.965 40.759C30.0767 40.8643 30.1326 41.0287 30.1326 41.2522V42.2062H29.7555V41.9548C29.719 42.0429 29.661 42.1128 29.5814 42.1643C29.5019 42.2138 29.4074 42.2384 29.2978 42.2384ZM29.3816 41.9613C29.4869 41.9613 29.5739 41.9247 29.6427 41.8517C29.7136 41.7786 29.7491 41.6862 29.7491 41.5745V41.5036H29.6394C29.4374 41.5036 29.2967 41.5197 29.2172 41.5519C29.1398 41.582 29.1012 41.6379 29.1012 41.7195C29.1012 41.7904 29.1259 41.8484 29.1753 41.8936C29.2248 41.9387 29.2935 41.9613 29.3816 41.9613ZM30.548 42.2062V40.6301H30.9412V40.8718C30.9885 40.7859 31.054 40.7193 31.1378 40.672C31.2216 40.6226 31.3183 40.5979 31.4279 40.5979C31.6642 40.5979 31.819 40.701 31.892 40.9073C31.9415 40.8106 32.0124 40.7354 32.1048 40.6817C32.1972 40.6258 32.3025 40.5979 32.4206 40.5979C32.7752 40.5979 32.9524 40.8138 32.9524 41.2457V42.2062H32.5495V41.2618C32.5495 41.1415 32.5292 41.0534 32.4883 40.9975C32.4496 40.9417 32.383 40.9138 32.2885 40.9138C32.1832 40.9138 32.1005 40.9513 32.0403 41.0265C31.9801 41.0996 31.95 41.2017 31.95 41.3328V42.2062H31.5471V41.2618C31.5471 41.1415 31.5268 41.0534 31.4859 40.9975C31.4472 40.9417 31.3817 40.9138 31.2893 40.9138C31.184 40.9138 31.1013 40.9513 31.0411 41.0265C30.981 41.0996 30.9509 41.2017 30.9509 41.3328V42.2062H30.548ZM34.1449 42.2384C33.9665 42.2384 33.8129 42.2051 33.684 42.1385C33.5551 42.0719 33.4551 41.9774 33.3842 41.8549C33.3154 41.7324 33.2811 41.5874 33.2811 41.4198C33.2811 41.2565 33.3144 41.1136 33.381 40.9911C33.4498 40.8686 33.5432 40.773 33.6614 40.7042C33.7817 40.6333 33.9182 40.5979 34.0707 40.5979C34.2942 40.5979 34.4704 40.6688 34.5994 40.8106C34.7304 40.9524 34.796 41.1458 34.796 41.3908V41.51H33.6679C33.6979 41.7915 33.8591 41.9323 34.1513 41.9323C34.2394 41.9323 34.3275 41.9194 34.4156 41.8936C34.5037 41.8656 34.5843 41.8227 34.6574 41.7647L34.7702 42.0354C34.695 42.0977 34.6004 42.1471 34.4865 42.1837C34.3727 42.2202 34.2588 42.2384 34.1449 42.2384ZM34.0869 40.8718C33.9687 40.8718 33.873 40.9084 33.8 40.9814C33.7269 41.0545 33.6829 41.1533 33.6679 41.2779H34.4608C34.4522 41.1469 34.4156 41.047 34.3511 40.9782C34.2889 40.9073 34.2007 40.8718 34.0869 40.8718Z" fill="#414141"/>
<path d="M14.9015 46.4133L14.2461 44.8984H14.3879L14.9681 46.2479L15.5483 44.8984H15.6857L15.0282 46.4133H14.9015ZM16.1974 46.4305C16.0369 46.4305 15.9102 46.3832 15.817 46.2887C15.7254 46.1927 15.6795 46.0616 15.6795 45.8955C15.6795 45.788 15.7003 45.6935 15.7418 45.6118C15.7834 45.5302 15.8407 45.4664 15.9137 45.4206C15.9882 45.3747 16.0735 45.3518 16.1694 45.3518C16.3084 45.3518 16.4166 45.3969 16.4939 45.4872C16.5713 45.5774 16.61 45.7013 16.61 45.8589V45.9191H15.8084C15.8128 46.048 15.8479 46.1476 15.9137 46.2178C15.9811 46.2866 16.0742 46.3209 16.1931 46.3209C16.2575 46.3209 16.3177 46.3109 16.3736 46.2908C16.4309 46.2708 16.4867 46.2371 16.5412 46.1898L16.5928 46.2887C16.5469 46.3331 16.4882 46.3682 16.4166 46.394C16.3449 46.4183 16.2719 46.4305 16.1974 46.4305ZM16.1716 45.4571C16.0627 45.4571 15.9775 45.4915 15.9159 45.5602C15.8557 45.6276 15.8206 45.715 15.8106 45.8224H16.4918C16.4889 45.7078 16.4603 45.6183 16.4058 45.5538C16.3514 45.4894 16.2733 45.4571 16.1716 45.4571ZM16.8771 46.4133V45.3712H17.0061V45.5581C17.0404 45.4894 17.0899 45.4378 17.1543 45.4034C17.2188 45.369 17.2904 45.3518 17.3692 45.3518C17.617 45.3518 17.741 45.4865 17.741 45.7558V46.4133H17.6099V45.7665C17.6099 45.6634 17.5891 45.5875 17.5475 45.5388C17.506 45.4901 17.4401 45.4657 17.3499 45.4657C17.2467 45.4657 17.1636 45.4979 17.1006 45.5624C17.039 45.6254 17.0082 45.7107 17.0082 45.8181V46.4133H16.8771ZM18.447 46.4305C18.1992 46.4305 18.0752 46.2958 18.0752 46.0265V45.3712H18.2063V46.0201C18.2063 46.1218 18.2271 46.197 18.2686 46.2457C18.3102 46.2944 18.3754 46.3188 18.4642 46.3188C18.5601 46.3188 18.6382 46.2866 18.6984 46.2221C18.76 46.1576 18.7908 46.0717 18.7908 45.9642V45.3712H18.9219V46.4133H18.7951V46.2285C18.7607 46.2944 18.7127 46.3446 18.6511 46.379C18.591 46.4133 18.5229 46.4305 18.447 46.4305ZM19.7206 46.4305C19.5602 46.4305 19.4334 46.3832 19.3403 46.2887C19.2486 46.1927 19.2028 46.0616 19.2028 45.8955C19.2028 45.788 19.2236 45.6935 19.2651 45.6118C19.3066 45.5302 19.3639 45.4664 19.437 45.4206C19.5115 45.3747 19.5967 45.3518 19.6927 45.3518C19.8316 45.3518 19.9398 45.3969 20.0171 45.4872C20.0945 45.5774 20.1332 45.7013 20.1332 45.8589V45.9191H19.3317C19.336 46.048 19.3711 46.1476 19.437 46.2178C19.5043 46.2866 19.5974 46.3209 19.7163 46.3209C19.7808 46.3209 19.841 46.3109 19.8968 46.2908C19.9541 46.2708 20.01 46.2371 20.0644 46.1898L20.116 46.2887C20.0701 46.3331 20.0114 46.3682 19.9398 46.394C19.8682 46.4183 19.7951 46.4305 19.7206 46.4305ZM19.6949 45.4571C19.586 45.4571 19.5007 45.4915 19.4392 45.5602C19.379 45.6276 19.3439 45.715 19.3339 45.8224H20.015C20.0121 45.7078 19.9835 45.6183 19.9291 45.5538C19.8746 45.4894 19.7965 45.4571 19.6949 45.4571ZM21.419 46.4133V45.3712H21.548V45.5581C21.5824 45.4894 21.6318 45.4378 21.6963 45.4034C21.7607 45.369 21.8323 45.3518 21.9111 45.3518C22.159 45.3518 22.2829 45.4865 22.2829 45.7558V46.4133H22.1518V45.7665C22.1518 45.6634 22.131 45.5875 22.0895 45.5388C22.0479 45.4901 21.982 45.4657 21.8918 45.4657C21.7887 45.4657 21.7056 45.4979 21.6426 45.5624C21.5809 45.6254 21.5501 45.7107 21.5501 45.8181V46.4133H21.419ZM22.9438 46.4305C22.8736 46.4305 22.8106 46.4169 22.7547 46.3897C22.7003 46.3625 22.6565 46.3252 22.6236 46.2779C22.5921 46.2307 22.5763 46.1777 22.5763 46.1189C22.5763 46.0416 22.5957 45.9814 22.6343 45.9384C22.673 45.894 22.7382 45.8625 22.8299 45.8439C22.9216 45.8253 23.0476 45.816 23.2081 45.816H23.2747V45.7386C23.2747 45.6426 23.2553 45.5731 23.2167 45.5302C23.178 45.4857 23.1164 45.4636 23.0319 45.4636C22.9689 45.4636 22.9079 45.4729 22.8492 45.4915C22.7919 45.5101 22.7325 45.5395 22.6709 45.5796L22.6193 45.4786C22.6737 45.4399 22.7382 45.4091 22.8127 45.3862C22.8872 45.3633 22.9595 45.3518 23.0297 45.3518C23.1558 45.3518 23.2489 45.3841 23.309 45.4485C23.3707 45.513 23.4015 45.6118 23.4015 45.7451V46.4133H23.2768V46.2264C23.2482 46.2908 23.2045 46.341 23.1457 46.3768C23.0884 46.4126 23.0211 46.4305 22.9438 46.4305ZM22.961 46.3252C23.0226 46.3252 23.0763 46.3109 23.1221 46.2822C23.1694 46.2522 23.2066 46.2114 23.2338 46.1598C23.2611 46.1082 23.2747 46.0495 23.2747 45.9836V45.9127H23.2102C23.0813 45.9127 22.9803 45.9184 22.9072 45.9299C22.8356 45.9413 22.7855 45.9614 22.7568 45.99C22.7282 46.0187 22.7138 46.0581 22.7138 46.1082C22.7138 46.1726 22.7361 46.2249 22.7805 46.265C22.8249 46.3052 22.885 46.3252 22.961 46.3252ZM23.7484 46.4133V45.3712H23.8774V45.5538C23.9418 45.4192 24.0514 45.3518 24.2061 45.3518C24.3723 45.3518 24.4776 45.4242 24.522 45.5689C24.5521 45.5015 24.5979 45.4485 24.6595 45.4098C24.7211 45.3712 24.7927 45.3518 24.8744 45.3518C25.105 45.3518 25.2203 45.4865 25.2203 45.7558V46.4133H25.0893V45.7665C25.0893 45.6634 25.0706 45.5875 25.0334 45.5388C24.9976 45.4901 24.9367 45.4657 24.8507 45.4657C24.759 45.4657 24.686 45.4979 24.6315 45.5624C24.5771 45.6254 24.5499 45.7114 24.5499 45.8203V46.4133H24.4188V45.7665C24.4188 45.6634 24.4002 45.5875 24.3629 45.5388C24.3271 45.4901 24.267 45.4657 24.1824 45.4657C24.0893 45.4657 24.0156 45.4979 23.9611 45.5624C23.9067 45.6254 23.8795 45.7114 23.8795 45.8203V46.4133H23.7484ZM26.0169 46.4305C25.8564 46.4305 25.7296 46.3832 25.6365 46.2887C25.5448 46.1927 25.499 46.0616 25.499 45.8955C25.499 45.788 25.5197 45.6935 25.5613 45.6118C25.6029 45.5302 25.6601 45.4664 25.7332 45.4206C25.8077 45.3747 25.8929 45.3518 25.9889 45.3518C26.1279 45.3518 26.236 45.3969 26.3134 45.4872C26.3907 45.5774 26.4294 45.7013 26.4294 45.8589V45.9191H25.6279C25.6322 46.048 25.6673 46.1476 25.7332 46.2178C25.8005 46.2866 25.8936 46.3209 26.0125 46.3209C26.077 46.3209 26.1372 46.3109 26.193 46.2908C26.2503 46.2708 26.3062 46.2371 26.3607 46.1898L26.4122 46.2887C26.3664 46.3331 26.3077 46.3682 26.236 46.394C26.1644 46.4183 26.0913 46.4305 26.0169 46.4305ZM25.991 45.4571C25.8822 45.4571 25.7969 45.4915 25.7353 45.5602C25.6752 45.6276 25.6401 45.715 25.63 45.8224H26.3112C26.3084 45.7078 26.2797 45.6183 26.2253 45.5538C26.1708 45.4894 26.0928 45.4571 25.991 45.4571Z" fill="#414141"/>
<path d="M54.5599 55.8984H14.9323C14.5533 55.8984 14.2461 56.1223 14.2461 56.3984V61.3984C14.2461 61.6746 14.5533 61.8984 14.9323 61.8984H54.5599C54.9389 61.8984 55.2461 61.6746 55.2461 61.3984V56.3984C55.2461 56.1223 54.9389 55.8984 54.5599 55.8984Z" fill="#3BA0A8"/>
<path d="M27.6172 59.8403V58.1361H28.362C28.5406 58.1361 28.6792 58.1755 28.7778 58.2545C28.8759 58.3319 28.925 58.4399 28.925 58.5784C28.925 58.6703 28.9016 58.7493 28.855 58.8153C28.8083 58.8814 28.744 58.9298 28.6616 58.9604C28.7583 58.9878 28.833 59.0361 28.8864 59.1054C28.9412 59.1731 28.9688 59.2593 28.9688 59.3641C28.9688 59.5156 28.9169 59.6332 28.814 59.717C28.7126 59.7992 28.5706 59.8403 28.3882 59.8403H27.6172ZM27.9148 58.8589H28.3087C28.5197 58.8589 28.6254 58.7775 28.6254 58.6147C28.6254 58.4519 28.5197 58.3706 28.3087 58.3706H27.9148V58.8589ZM27.9148 59.6058H28.3497C28.5625 59.6058 28.6687 59.5204 28.6687 59.3496C28.6687 59.1787 28.5625 59.0934 28.3497 59.0934H27.9148V59.6058ZM29.6803 59.8645C29.3903 59.8645 29.2455 59.7017 29.2455 59.3762V58.6582H29.5474V59.381C29.5474 59.4648 29.5646 59.5268 29.5984 59.5671C29.6322 59.6074 29.686 59.6276 29.7603 59.6276C29.8408 59.6276 29.907 59.6002 29.9584 59.5454C30.0099 59.489 30.0356 59.4148 30.0356 59.323V58.6582H30.338V59.8403H30.0432V59.6639C29.9641 59.7976 29.8432 59.8645 29.6803 59.8645ZM30.759 60.2755L30.9766 59.792L30.4856 58.6582H30.8071L31.1386 59.4849L31.4767 58.6582H31.7815L31.0705 60.2755H30.759ZM33.1179 59.8645C32.8054 59.8645 32.6492 59.7098 32.6492 59.4003V58.8854H32.4216V58.6582H32.6492V58.3053H32.9512V58.6582H33.3088V58.8854H32.9512V59.3834C32.9512 59.4608 32.9683 59.5188 33.0021 59.5575C33.0359 59.5961 33.0907 59.6155 33.1664 59.6155C33.1888 59.6155 33.2122 59.6131 33.2364 59.6082C33.2607 59.6018 33.2855 59.5953 33.3112 59.5889L33.3574 59.8113C33.3284 59.8274 33.2912 59.8403 33.246 59.85C33.2026 59.8596 33.1598 59.8645 33.1179 59.8645ZM33.4851 58.4044V58.1095H33.8232V58.4044H33.4851ZM33.5041 59.8403V58.6582H33.8065V59.8403H33.5041ZM34.6666 59.8645C34.5428 59.8645 34.4347 59.8395 34.3428 59.7895C34.2509 59.738 34.1799 59.6654 34.1299 59.572C34.0799 59.4785 34.0551 59.3689 34.0551 59.2432C34.0551 59.1175 34.0799 59.0095 34.1299 58.9193C34.1799 58.8274 34.2509 58.7573 34.3428 58.709C34.4347 58.659 34.5428 58.634 34.6666 58.634C34.7424 58.634 34.8176 58.6461 34.8914 58.6703C34.9657 58.6945 35.0271 58.7283 35.0752 58.7718L34.9857 58.9822C34.9438 58.9451 34.8962 58.9169 34.8433 58.8975C34.7914 58.8782 34.7419 58.8685 34.6933 58.8685C34.5885 58.8685 34.5071 58.9016 34.449 58.9676C34.3928 59.0321 34.3647 59.1247 34.3647 59.2456C34.3647 59.3649 34.3928 59.4592 34.449 59.5285C34.5071 59.5961 34.5885 59.63 34.6933 59.63C34.74 59.63 34.79 59.6203 34.8433 59.601C34.8962 59.5817 34.9438 59.5527 34.9857 59.514L35.0752 59.7267C35.0271 59.7686 34.9648 59.8024 34.889 59.8282C34.8152 59.8524 34.7409 59.8645 34.6666 59.8645ZM35.2605 59.8403V58.1361H35.5629V59.161H35.5677L36.0439 58.6582H36.4087L35.872 59.2239L36.4426 59.8403H36.073L35.5677 59.3133H35.5629V59.8403H35.2605ZM37.1155 59.8645C36.9817 59.8645 36.8664 59.8395 36.7697 59.7895C36.6731 59.7396 36.5983 59.6687 36.545 59.5768C36.4935 59.4849 36.4678 59.3762 36.4678 59.2505C36.4678 59.128 36.4926 59.0208 36.5426 58.929C36.5945 58.8371 36.6645 58.7654 36.7531 58.7138C36.8431 58.6606 36.9455 58.634 37.0603 58.634C37.2274 58.634 37.3598 58.6872 37.4565 58.7936C37.5546 58.9 37.6041 59.045 37.6041 59.2287V59.3181H36.7578C36.7802 59.5293 36.9012 59.6348 37.1203 59.6348C37.1865 59.6348 37.2527 59.6251 37.3189 59.6058C37.3846 59.5848 37.4451 59.5527 37.4998 59.5091L37.5846 59.7122C37.5284 59.7589 37.4574 59.796 37.3717 59.8234C37.2865 59.8508 37.2012 59.8645 37.1155 59.8645ZM37.0722 58.8395C36.9836 58.8395 36.9117 58.8669 36.8569 58.9217C36.8021 58.9765 36.7693 59.0506 36.7578 59.1441H37.3527C37.346 59.0458 37.3189 58.9709 37.2703 58.9193C37.2236 58.8661 37.1574 58.8395 37.0722 58.8395ZM38.3799 59.8645C38.0675 59.8645 37.9108 59.7098 37.9108 59.4003V58.8854H37.6837V58.6582H37.9108V58.3053H38.2132V58.6582H38.5709V58.8854H38.2132V59.3834C38.2132 59.4608 38.2299 59.5188 38.2642 59.5575C38.298 59.5961 38.3528 59.6155 38.4285 59.6155C38.4509 59.6155 38.4742 59.6131 38.4985 59.6082C38.5228 59.6018 38.5476 59.5953 38.5733 59.5889L38.6195 59.8113C38.5904 59.8274 38.5533 59.8403 38.508 59.85C38.4647 59.8596 38.4218 59.8645 38.3799 59.8645ZM39.1991 59.8645C39.0991 59.8645 39.0057 59.8524 38.9186 59.8282C38.8314 59.8041 38.759 59.7694 38.7009 59.7243L38.7786 59.526C38.8381 59.5663 38.9048 59.5978 38.9791 59.6203C39.0534 59.6413 39.1272 59.6518 39.2015 59.6518C39.2786 59.6518 39.3358 59.6389 39.3729 59.6131C39.412 59.5857 39.431 59.5502 39.431 59.5067C39.431 59.439 39.381 59.3955 39.281 59.3762L39.0395 59.3302C38.8348 59.2916 38.7324 59.1852 38.7324 59.0112C38.7324 58.9338 38.7533 58.8669 38.7952 58.8105C38.839 58.7541 38.8986 58.7106 38.9743 58.68C39.05 58.6494 39.1372 58.634 39.2353 58.634C39.3191 58.634 39.3996 58.6461 39.4772 58.6703C39.5544 58.6929 39.6206 58.7275 39.6753 58.7742L39.5929 58.9725C39.5463 58.9338 39.4901 58.9032 39.4239 58.8806C39.3596 58.858 39.2972 58.8468 39.2377 58.8468C39.1586 58.8468 39.1 58.8605 39.0615 58.8879C39.0243 58.9152 39.0057 58.9515 39.0057 58.9966C39.0057 59.0675 39.0514 59.1111 39.1434 59.1272L39.3853 59.1731C39.4901 59.1925 39.5687 59.2279 39.622 59.2795C39.6768 59.3311 39.7044 59.4003 39.7044 59.4874C39.7044 59.605 39.6582 59.6977 39.5663 59.7653C39.4744 59.8314 39.352 59.8645 39.1991 59.8645Z" fill="white"/>
<path d="M43.5765 59.1704L42.5754 60.1716C42.5612 60.1849 42.5426 60.1921 42.5231 60.1917C42.5035 60.1914 42.485 60.1835 42.4711 60.1697C42.4573 60.156 42.4497 60.1374 42.4492 60.118C42.4488 60.0985 42.4564 60.0797 42.4692 60.0655L43.4175 59.1174L42.4692 58.1692C42.4564 58.155 42.4488 58.1362 42.4492 58.1167C42.4497 58.0973 42.4573 58.0787 42.4711 58.0649C42.485 58.0512 42.5035 58.0433 42.5231 58.043C42.5426 58.0426 42.5612 58.0498 42.5754 58.0631L43.5765 59.0643C43.5908 59.0783 43.5989 59.0974 43.5989 59.1174C43.5989 59.1373 43.5908 59.1563 43.5765 59.1704Z" fill="white"/>
</g>
</g>
<g filter="url(#filter1_d_1384_7597)">
<mask id="mask3_1384_7597" style="mask-type:luminance" maskUnits="userSpaceOnUse" x="62" y="11" width="48" height="53">
<path d="M108.767 11.8984H62.7251C62.4605 11.8984 62.2461 12.1129 62.2461 12.3774V63.4195C62.2461 63.684 62.4605 63.8984 62.7251 63.8984H108.767C109.032 63.8984 109.246 63.684 109.246 63.4195V12.3774C109.246 12.1129 109.032 11.8984 108.767 11.8984Z" fill="white"/>
</mask>
<g mask="url(#mask3_1384_7597)">
<path d="M111.246 11.8984H62.2461V32.8984H111.246V11.8984Z" fill="#F9F9F9"/>
<path d="M109.246 32.8984H62.2461V37.0894H109.246V32.8984Z" fill="#F1F1F1"/>
<path d="M89.3711 21.0859H88.2883L87.7559 20.2875C87.7273 20.2447 87.6887 20.2097 87.6434 20.1854C87.5981 20.1612 87.5475 20.1485 87.4961 20.1484H84.9961C84.9447 20.1485 84.8941 20.1612 84.8488 20.1854C84.8035 20.2097 84.7649 20.2447 84.7363 20.2875L84.2035 21.0859H83.1211C82.8725 21.0859 82.634 21.1847 82.4582 21.3605C82.2824 21.5363 82.1836 21.7748 82.1836 22.0234V26.3984C82.1836 26.6471 82.2824 26.8855 82.4582 27.0614C82.634 27.2372 82.8725 27.3359 83.1211 27.3359H89.3711C89.6197 27.3359 89.8582 27.2372 90.034 27.0614C90.2098 26.8855 90.3086 26.6471 90.3086 26.3984V22.0234C90.3086 21.7748 90.2098 21.5363 90.034 21.3605C89.8582 21.1847 89.6197 21.0859 89.3711 21.0859ZM87.6523 24.0547C87.6523 24.3328 87.5699 24.6047 87.4153 24.836C87.2608 25.0672 87.0412 25.2475 86.7842 25.3539C86.5273 25.4603 86.2445 25.4882 85.9717 25.4339C85.699 25.3797 85.4484 25.2457 85.2517 25.0491C85.0551 24.8524 84.9211 24.6018 84.8669 24.329C84.8126 24.0562 84.8405 23.7735 84.9469 23.5165C85.0533 23.2596 85.2336 23.04 85.4648 22.8854C85.6961 22.7309 85.968 22.6484 86.2461 22.6484C86.6191 22.6484 86.9767 22.7966 87.2405 23.0603C87.5042 23.324 87.6523 23.6817 87.6523 24.0547Z" fill="#3BA0A8"/>
<path d="M109.246 37.0895H62.2461V64.0895H109.246V37.0895Z" fill="white"/>
<path d="M105.56 55.8984H65.9323C65.5533 55.8984 65.2461 56.1223 65.2461 56.3984V61.3984C65.2461 61.6746 65.5533 61.8984 65.9323 61.8984H105.56C105.939 61.8984 106.246 61.6746 106.246 61.3984V56.3984C106.246 56.1223 105.939 55.8984 105.56 55.8984Z" fill="#3BA0A8"/>
</g>
</g>
<g filter="url(#filter2_d_1384_7597)">
<mask id="mask4_1384_7597" style="mask-type:luminance" maskUnits="userSpaceOnUse" x="11" y="67" width="48" height="53">
<path d="M57.7671 67.8984H11.7251C11.4605 67.8984 11.2461 68.1129 11.2461 68.3774V119.419C11.2461 119.684 11.4605 119.898 11.7251 119.898H57.7671C58.0317 119.898 58.2461 119.684 58.2461 119.419V68.3774C58.2461 68.1129 58.0317 67.8984 57.7671 67.8984Z" fill="white"/>
</mask>
<g mask="url(#mask4_1384_7597)">
<path d="M60.2461 67.8984H11.2461V88.8984H60.2461V67.8984Z" fill="#F9F9F9"/>
<path d="M38.3711 77.0859H37.2883L36.7559 76.2875C36.7273 76.2447 36.6887 76.2097 36.6434 76.1854C36.5981 76.1612 36.5475 76.1485 36.4961 76.1484H33.9961C33.9447 76.1485 33.8941 76.1612 33.8488 76.1854C33.8035 76.2097 33.7649 76.2447 33.7363 76.2875L33.2035 77.0859H32.1211C31.8725 77.0859 31.634 77.1847 31.4582 77.3605C31.2824 77.5363 31.1836 77.7748 31.1836 78.0234V82.3984C31.1836 82.6471 31.2824 82.8855 31.4582 83.0614C31.634 83.2372 31.8725 83.3359 32.1211 83.3359H38.3711C38.6197 83.3359 38.8582 83.2372 39.034 83.0614C39.2098 82.8855 39.3086 82.6471 39.3086 82.3984V78.0234C39.3086 77.7748 39.2098 77.5363 39.034 77.3605C38.8582 77.1847 38.6197 77.0859 38.3711 77.0859ZM36.6523 80.0547C36.6523 80.3328 36.5699 80.6047 36.4153 80.836C36.2608 81.0672 36.0412 81.2475 35.7842 81.3539C35.5273 81.4603 35.2445 81.4882 34.9717 81.4339C34.699 81.3797 34.4484 81.2457 34.2517 81.0491C34.0551 80.8524 33.9211 80.6018 33.8669 80.329C33.8126 80.0562 33.8405 79.7735 33.9469 79.5165C34.0533 79.2596 34.2336 79.04 34.4648 78.8854C34.6961 78.7309 34.968 78.6484 35.2461 78.6484C35.6191 78.6484 35.9767 78.7966 36.2405 79.0603C36.5042 79.324 36.6523 79.6817 36.6523 80.0547Z" fill="#3BA0A8"/>
</g>
</g>
<g filter="url(#filter3_d_1384_7597)">
<mask id="mask5_1384_7597" style="mask-type:luminance" maskUnits="userSpaceOnUse" x="62" y="67" width="48" height="53">
<path d="M108.767 67.8984H62.7251C62.4605 67.8984 62.2461 68.1129 62.2461 68.3774V119.419C62.2461 119.684 62.4605 119.898 62.7251 119.898H108.767C109.032 119.898 109.246 119.684 109.246 119.419V68.3774C109.246 68.1129 109.032 67.8984 108.767 67.8984Z" fill="white"/>
</mask>
<g mask="url(#mask5_1384_7597)">
<path d="M111.246 67.8984H62.2461V88.8984H111.246V67.8984Z" fill="#F9F9F9"/>
<path d="M89.3711 77.0859H88.2883L87.7559 76.2875C87.7273 76.2447 87.6887 76.2097 87.6434 76.1854C87.5981 76.1612 87.5475 76.1485 87.4961 76.1484H84.9961C84.9447 76.1485 84.8941 76.1612 84.8488 76.1854C84.8035 76.2097 84.7649 76.2447 84.7363 76.2875L84.2035 77.0859H83.1211C82.8725 77.0859 82.634 77.1847 82.4582 77.3605C82.2824 77.5363 82.1836 77.7748 82.1836 78.0234V82.3984C82.1836 82.6471 82.2824 82.8855 82.4582 83.0614C82.634 83.2372 82.8725 83.3359 83.1211 83.3359H89.3711C89.6197 83.3359 89.8582 83.2372 90.034 83.0614C90.2098 82.8855 90.3086 82.6471 90.3086 82.3984V78.0234C90.3086 77.7748 90.2098 77.5363 90.034 77.3605C89.8582 77.1847 89.6197 77.0859 89.3711 77.0859ZM87.6523 80.0547C87.6523 80.3328 87.5699 80.6047 87.4153 80.836C87.2608 81.0672 87.0412 81.2475 86.7842 81.3539C86.5273 81.4603 86.2445 81.4882 85.9717 81.4339C85.699 81.3797 85.4484 81.2457 85.2517 81.0491C85.0551 80.8524 84.9211 80.6018 84.8669 80.329C84.8126 80.0562 84.8405 79.7735 84.9469 79.5165C85.0533 79.2596 85.2336 79.04 85.4648 78.8854C85.6961 78.7309 85.968 78.6484 86.2461 78.6484C86.6191 78.6484 86.9767 78.7966 87.2405 79.0603C87.5042 79.324 87.6523 79.6817 87.6523 80.0547Z" fill="#3BA0A8"/>
</g>
</g>
</g>
</g>
</g>
<defs>
<filter id="filter0_d_1384_7597" x="9.24609" y="10.8984" width="51" height="56" filterUnits="userSpaceOnUse" color-interpolation-filters="sRGB">
<feFlood flood-opacity="0" result="BackgroundImageFix"/>
<feColorMatrix in="SourceAlpha" type="matrix" values="0 0 0 0 0 0 0 0 0 0 0 0 0 0 0 0 0 0 127 0" result="hardAlpha"/>
<feOffset dy="1"/>
<feGaussianBlur stdDeviation="1"/>
<feComposite in2="hardAlpha" operator="out"/>
<feColorMatrix type="matrix" values="0 0 0 0 0 0 0 0 0 0 0 0 0 0 0 0 0 0 0.15 0"/>
<feBlend mode="normal" in2="BackgroundImageFix" result="effect1_dropShadow_1384_7597"/>
<feBlend mode="normal" in="SourceGraphic" in2="effect1_dropShadow_1384_7597" result="shape"/>
</filter>
<filter id="filter1_d_1384_7597" x="60.2461" y="10.8984" width="51" height="56" filterUnits="userSpaceOnUse" color-interpolation-filters="sRGB">
<feFlood flood-opacity="0" result="BackgroundImageFix"/>
<feColorMatrix in="SourceAlpha" type="matrix" values="0 0 0 0 0 0 0 0 0 0 0 0 0 0 0 0 0 0 127 0" result="hardAlpha"/>
<feOffset dy="1"/>
<feGaussianBlur stdDeviation="1"/>
<feComposite in2="hardAlpha" operator="out"/>
<feColorMatrix type="matrix" values="0 0 0 0 0 0 0 0 0 0 0 0 0 0 0 0 0 0 0.15 0"/>
<feBlend mode="normal" in2="BackgroundImageFix" result="effect1_dropShadow_1384_7597"/>
<feBlend mode="normal" in="SourceGraphic" in2="effect1_dropShadow_1384_7597" result="shape"/>
</filter>
<filter id="filter2_d_1384_7597" x="9.24609" y="66.8984" width="51" height="25" filterUnits="userSpaceOnUse" color-interpolation-filters="sRGB">
<feFlood flood-opacity="0" result="BackgroundImageFix"/>
<feColorMatrix in="SourceAlpha" type="matrix" values="0 0 0 0 0 0 0 0 0 0 0 0 0 0 0 0 0 0 127 0" result="hardAlpha"/>
<feOffset dy="1"/>
<feGaussianBlur stdDeviation="1"/>
<feComposite in2="hardAlpha" operator="out"/>
<feColorMatrix type="matrix" values="0 0 0 0 0 0 0 0 0 0 0 0 0 0 0 0 0 0 0.15 0"/>
<feBlend mode="normal" in2="BackgroundImageFix" result="effect1_dropShadow_1384_7597"/>
<feBlend mode="normal" in="SourceGraphic" in2="effect1_dropShadow_1384_7597" result="shape"/>
</filter>
<filter id="filter3_d_1384_7597" x="60.2461" y="66.8984" width="51" height="25" filterUnits="userSpaceOnUse" color-interpolation-filters="sRGB">
<feFlood flood-opacity="0" result="BackgroundImageFix"/>
<feColorMatrix in="SourceAlpha" type="matrix" values="0 0 0 0 0 0 0 0 0 0 0 0 0 0 0 0 0 0 127 0" result="hardAlpha"/>
<feOffset dy="1"/>
<feGaussianBlur stdDeviation="1"/>
<feComposite in2="hardAlpha" operator="out"/>
<feColorMatrix type="matrix" values="0 0 0 0 0 0 0 0 0 0 0 0 0 0 0 0 0 0 0.15 0"/>
<feBlend mode="normal" in2="BackgroundImageFix" result="effect1_dropShadow_1384_7597"/>
<feBlend mode="normal" in="SourceGraphic" in2="effect1_dropShadow_1384_7597" result="shape"/>
</filter>
<clipPath id="clip0_1384_7597">
<rect width="120" height="80" fill="white"/>
</clipPath>
</defs>
</svg>
