<svg xmlns="http://www.w3.org/2000/svg" width="98" height="186" viewBox="0 0 98 186">
    <g fill="none" fill-rule="evenodd">
        <g stroke="#C6C6C6">
            <rect width="184" height="96.5" x="-43" y="44.5" rx="12.5" transform="rotate(90 49 92.75)"/>
            <circle cx="49" cy="171.5" r="7"/>
        </g>
        <path stroke="#C6C6C6" d="M59.065 44.5c-.634 2.13-1.926 3.978-3.641 5.306C53.648 51.181 51.42 52 49 52c-2.42 0-4.648-.819-6.424-2.194-1.715-1.328-3.007-3.175-3.641-5.306H14c-1.243 0-2.368.504-3.182 1.318-.814.814-1.318 1.94-1.318 3.182v65c0 1.243.504 2.368 1.318 3.182.814.814 1.94 1.318 3.182 1.318h70c1.243 0 2.368-.504 3.182-1.318.814-.814 1.318-1.94 1.318-3.182V49c0-1.243-.504-2.368-1.318-3.182-.814-.814-1.94-1.318-3.182-1.318H59.065z"/>
        <path fill="#E9E9E9" d="M19 59H79V89H19z"/>
        <g transform="translate(40 66.5)">
            <circle cx="7.25" cy="7.25" r="7.25" fill="#C55A87"/>
            <path fill="#FFF" fill-rule="nonzero" d="M8.017 10L8.017 3.7 5.299 3.7 5.299 4.87 6.559 4.87 6.559 10z"/>
        </g>
    </g>
</svg>
