<svg xmlns="http://www.w3.org/2000/svg" width="122" height="158" viewBox="0 0 122 158">
  <path fill="#CDCDCD" d="M47.0094391,0 C47.2824158,7.22440935 53.4417464,13 61,13 C68.5582536,13 74.7175842,7.22440935 74.9905609,0 L122,0 L122,158 L0,158 L0,0 L47.0094391,0 Z M46.079,0.999 L1,0.999 L1,157 L121,157 L121,0.999 L75.92,0.999 L75.8873959,1.28613213 C74.9880277,8.37241529 68.8130818,13.8418065 61.3263257,13.9966287 L61,14 C53.3670102,14 47.0250067,8.47511505 46.1126041,1.28613213 L46.079,0.999 Z M115,10 L115,23 L84,23 L84,10 L115,10 Z M112.184211,97 L112.184211,112 L10.8157895,112 L10.8157895,97 L112.184211,97 Z M112.184211,78 L112.184211,93 L10.8157895,93 L10.8157895,78 L112.184211,78 Z M112.184211,58 L112.184211,74 L10.8157895,74 L10.8157895,58 L112.184211,58 Z M122,29 L122,64 L115.02356,64 L115.02356,54.9945145 L8.09564209,54.9945145 L8.09564209,64 L0,64 L0,29 L122,29 Z M42,10 L42,23 L11,23 L11,10 L42,10 Z M41,11 L12,11 L12,22 L41,22 L41,11 Z M58.85,143.838235 L58.85,146.147059 L60,146.147059 L60,147.301471 L61.15,147.301471 L61.15,148.455882 L57.7,148.455882 L57.7,143.838235 L58.85,143.838235 Z M56.55,138.066176 L56.55,148.455882 L46.2,148.455882 L46.2,138.066176 L56.55,138.066176 Z M58.85,124.213235 L58.85,129.985294 L60,129.985294 L60,126.522059 L61.15,126.522059 L61.15,129.985294 L62.3,129.985294 L62.3,131.139706 L71.5,131.139706 L71.5,129.985294 L73.8,129.985294 L73.8,131.139706 L76.1,131.139706 L76.1,134.602941 L74.95,134.602941 L74.95,133.448529 L73.8,133.448529 L73.8,132.294118 L70.35,132.294118 L70.35,133.448529 L69.2,133.448529 L69.2,134.602941 L70.35,134.602941 L70.35,136.911765 L71.5,136.911765 L71.5,139.220588 L70.35,139.220588 L70.35,142.683824 L71.5,142.683824 L71.5,143.838235 L76.1,143.838235 L76.1,144.992647 L70.35,144.992647 L70.35,148.455882 L69.2,148.455882 L69.2,146.147059 L66.9,146.147059 L66.9,147.301471 L65.75,147.301471 L65.75,146.147059 L66.9,146.147059 L66.9,144.992647 L64.6,144.992647 L64.6,143.838235 L68.05,143.838235 L68.05,142.683824 L63.45,142.683824 L63.45,139.220588 L62.3,139.220588 L62.3,142.683824 L61.15,142.683824 L61.15,143.838235 L58.85,143.838235 L58.85,141.529412 L60,141.529412 L60,139.220588 L58.85,139.220588 L58.85,141.529412 L57.7,141.529412 L57.7,139.220588 L58.85,139.220588 L58.85,138.066176 L57.7,138.066176 L57.7,136.911765 L53.1,136.911765 L53.1,135.757353 L57.7,135.757353 L57.7,124.213235 L58.85,124.213235 Z M55.4,139.220588 L47.35,139.220588 L47.35,147.301471 L55.4,147.301471 L55.4,139.220588 Z M74.95,146.147059 L74.95,147.301471 L73.8,147.301471 L73.8,146.147059 L74.95,146.147059 Z M54.25,140.375 L54.25,146.147059 L48.5,146.147059 L48.5,140.375 L54.25,140.375 Z M63.45,144.992647 L63.45,146.147059 L62.3,146.147059 L62.3,144.992647 L63.45,144.992647 Z M73.8,140.375 L73.8,142.683824 L71.5,142.683824 L71.5,140.375 L73.8,140.375 Z M66.9,138.066176 L64.6,138.066176 L64.6,140.375 L65.75,140.375 L65.75,141.529412 L69.2,141.529412 L69.2,139.220588 L66.9,139.220588 L66.9,138.066176 Z M74.95,138.066176 L74.95,139.220588 L73.8,139.220588 L73.8,138.066176 L74.95,138.066176 Z M64.6,132.294118 L61.15,132.294118 L61.15,133.448529 L58.85,133.448529 L58.85,135.757353 L60,135.757353 L60,136.911765 L58.85,136.911765 L58.85,138.066176 L63.45,138.066176 L63.45,135.757353 L68.05,135.757353 L68.05,134.602941 L64.6,134.602941 L64.6,132.294118 Z M69.2,135.757353 L68.05,135.757353 L68.05,136.911765 L69.2,136.911765 L69.2,135.757353 Z M72.65,135.757353 L72.65,136.911765 L71.5,136.911765 L71.5,135.757353 L72.65,135.757353 Z M53.1,132.294118 L53.1,133.448529 L56.55,133.448529 L56.55,134.602941 L51.95,134.602941 L51.95,136.911765 L46.2,136.911765 L46.2,134.602941 L47.35,134.602941 L47.35,135.757353 L50.8,135.757353 L50.8,132.294118 L53.1,132.294118 Z M63.45,134.602941 L63.45,135.757353 L62.3,135.757353 L62.3,134.602941 L63.45,134.602941 Z M71.5,133.448529 L71.5,134.602941 L70.35,134.602941 L70.35,133.448529 L71.5,133.448529 Z M68.05,132.294118 L65.75,132.294118 L65.75,133.448529 L68.05,133.448529 L68.05,132.294118 Z M50.8,129.985294 L50.8,131.139706 L47.35,131.139706 L47.35,133.448529 L46.2,133.448529 L46.2,129.985294 L50.8,129.985294 Z M56.55,129.985294 L56.55,132.294118 L53.1,132.294118 L53.1,129.985294 L56.55,129.985294 Z M56.55,118.441176 L56.55,128.830882 L46.2,128.830882 L46.2,118.441176 L56.55,118.441176 Z M76.1,118.441176 L76.1,128.830882 L65.75,128.830882 L65.75,118.441176 L76.1,118.441176 Z M63.45,127.676471 L63.45,128.830882 L62.3,128.830882 L62.3,127.676471 L63.45,127.676471 Z M74.95,119.595588 L66.9,119.595588 L66.9,127.676471 L74.95,127.676471 L74.95,119.595588 Z M55.4,119.595588 L47.35,119.595588 L47.35,127.676471 L55.4,127.676471 L55.4,119.595588 Z M73.8,120.75 L73.8,126.522059 L68.05,126.522059 L68.05,120.75 L73.8,120.75 Z M54.25,120.75 L54.25,126.522059 L48.5,126.522059 L48.5,120.75 L54.25,120.75 Z M64.6,118.441176 L64.6,121.904412 L62.3,121.904412 L62.3,123.058824 L64.6,123.058824 L64.6,125.367647 L63.45,125.367647 L63.45,126.522059 L62.3,126.522059 L62.3,124.213235 L61.15,124.213235 L61.15,123.058824 L60,123.058824 L60,124.213235 L58.85,124.213235 L58.85,121.904412 L57.7,121.904412 L57.7,118.441176 L64.6,118.441176 Z M61.15,119.595588 L58.85,119.595588 L58.85,120.75 L60,120.75 L60,121.904412 L61.15,121.904412 L61.15,119.595588 Z"/>
</svg>
