<svg xmlns="http://www.w3.org/2000/svg" xmlns:xlink="http://www.w3.org/1999/xlink" width="98" height="186" viewBox="0 0 98 186">
    <defs>
        <path id="lf0fz4btua" d="M33 106L64 106 64 137 33 137z"/>
    </defs>
    <g fill="none" fill-rule="evenodd">
        <g>
            <g>
                <g transform="translate(-1478 -1270) translate(1478.25 1270.25)">
                    <rect width="184" height="96.5" x="-43.25" y="44.25" stroke="#C6C6C6" rx="12.5" transform="rotate(90 48.75 92.5)"/>
                    <circle cx="48.75" cy="171.25" r="7" stroke="#C6C6C6"/>
                    <path stroke="#C6C6C6" d="M58.82 44.25h24.93c1.243 0 2.368.504 3.182 1.318.814.814 1.318 1.94 1.318 3.182h0v99c0 1.243-.504 2.368-1.318 3.182-.814.814-1.94 1.318-3.182 1.318h0-70c-1.243 0-2.368-.504-3.182-1.318-.814-.814-1.318-1.94-1.318-3.182h0v-99c0-1.243.504-2.368 1.318-3.182.814-.814 1.94-1.318 3.182-1.318h24.93c.63 2.244 1.923 4.19 3.636 5.587 1.779 1.45 4.01 2.313 6.434 2.313 2.423 0 4.655-.862 6.434-2.313 1.713-1.398 3.005-3.343 3.637-5.587h0z"/>
                    <path fill="#E9E9E9" d="M18.75 65.75H58.75V73.75H18.75zM18.75 77.75H78.75V100.75H18.75z"/>
                    <circle cx="74" cy="59.5" r="7.25" fill="#C55A87"/>
                    <text fill="#FFF" font-family="Montserrat-Bold, Montserrat" font-size="9" font-weight="bold">
                        <tspan x="72.75" y="64.25">1</tspan>
                    </text>
                    <circle cx="19" cy="62.5" r="7.25" fill="#C55A87"/>
                    <circle cx="19" cy="89.5" r="7.25" fill="#C55A87"/>
                    <text fill="#FFF" font-family="Montserrat-Bold, Montserrat" font-size="9" font-weight="bold">
                        <tspan x="16.595" y="65.75">2</tspan>
                    </text>
                    <text fill="#FFF" font-family="Montserrat-Bold, Montserrat" font-size="9" font-weight="bold">
                        <tspan x="16.586" y="92.75">3</tspan>
                    </text>
                    <mask id="1eb5svizwb" fill="#fff">
                        <use xlink:href="#lf0fz4btua"/>
                    </mask>
                    <path fill="#BFBFBF" d="M46.076 112.055h2.422v-2.422h-2.422v2.422zm0 15.257h2.422v-3.45h-2.422v3.45zM53.343 137v-2.422H50.92v-2.422h-2.422V137h4.845zm-2.423-15.56h7.267v-2.422H50.92v2.421zm7.267 2.421h3.39v-2.422h-3.39v2.422zm0 3.451v2.422H64v-5.873h-2.422v3.451h-3.391zm-9.689-17.68h2.422V106h-2.422v3.633zm0 7.266h2.422v-4.843h-2.422v2.422h-2.422v6.962h2.422v-4.54zm-15.502 2.12v4.843h2.423v-2.422h3.633v-2.421h-6.056zm15.502 4.843h2.422v-2.422h-2.422v2.422zm7.267 2.422h2.422v-2.422h-2.422v2.422zm5.813-4.844H64v-2.421h-2.422v2.421zm-8.235 2.422H50.92v3.451h-2.422v2.422h4.845v-5.873zm-7.267 8.295h2.422v-2.422h-2.422v2.422zm7.267 0h4.844v-2.422h-4.844v2.422zm4.844 2.422h2.422v-2.422h-2.422v2.422zM60.609 137H64v-2.422h-3.391V137zm-4.844 0h2.422v-2.422h-2.422V137zm-11.869-15.56v-2.422h-2.422v2.421h-2.422v2.422h7.024v-2.422h-2.18zm-10.9-4.542h10.9V106h-10.9v10.898zm2.423-2.421h6.055v-6.055h-6.055v6.055zm1.816-1.817h2.422v-2.422h-2.422v2.422zm15.865 4.238H64V106H53.1v10.898zm2.422-2.421h6.056v-6.055h-6.056v6.055zm1.817-1.817h2.422v-2.422H57.34v2.422zM32.996 137h10.9v-10.898h-10.9V137zm2.423-2.422h6.055v-6.055h-6.055v6.055zm1.816-1.816h2.422v-2.422h-2.422v2.422z" mask="url(#1eb5svizwb)"/>
                </g>
            </g>
        </g>
    </g>
</svg>
