<?xml version="1.0" encoding="UTF-8" standalone="no"?>
<!DOCTYPE svg PUBLIC "-//W3C//DTD SVG 1.1//EN" "http://www.w3.org/Graphics/SVG/1.1/DTD/svg11.dtd">
<svg version="1.1" xmlns="http://www.w3.org/2000/svg" xmlns:xlink="http://www.w3.org/1999/xlink"
    preserveAspectRatio="xMidYMid meet" viewBox="0 0 135.64 166" width="135.64" height="166">
    <defs>
        <path d="M0.82 1L134.82 1L134.82 165L0.82 165L0.82 1Z" id="cbE7ArWkb"></path>
        <path
            d="M6.31 21.16L51.31 21.16L51.31 66.16L6.31 66.16L6.31 21.16ZM6.31 72.57L63.31 72.57L63.31 157.57L6.31 157.57L6.31 72.57ZM68.69 72.57L127.41 72.57L127.41 114.8L68.69 114.8L68.69 72.57ZM54.85 21.16L98.89 21.16L98.89 26.67L54.85 26.67L54.85 21.16ZM54.97 35.34L99 35.34L99 40.85L54.97 40.85L54.97 35.34ZM54.97 53L99 53L99 66L54.97 66L54.97 53Z"
            id="cacv3L67e"></path>
        <path
            d="M28.72 37.62C24.71 37.62 21.47 40.86 21.47 44.87C21.47 48.87 24.71 52.12 28.72 52.12C32.72 52.12 35.97 48.87 35.97 44.87C35.97 40.86 32.72 37.62 28.72 37.62Z"
            id="b1j1W95A4G"></path>
        <path
            d="M34.52 110.62C30.51 110.62 27.27 113.86 27.27 117.87C27.27 121.87 30.51 125.12 34.52 125.12C38.52 125.12 41.77 121.87 41.77 117.87C41.77 113.86 38.52 110.62 34.52 110.62Z"
            id="i11BfNpJxG"></path>
        <path
            d="M98.22 87.87C94.21 87.87 90.97 91.11 90.97 95.12C90.97 99.12 94.21 102.37 98.22 102.37C102.22 102.37 105.47 99.12 105.47 95.12C105.47 91.11 102.22 87.87 98.22 87.87Z"
            id="f5ZaAVBKL"></path>
        <path d="M68.74 119.57L127.69 119.57L127.69 157.57L68.74 157.57L68.74 119.57Z" id="csVu4NwEu"></path>
        <path
            d="M98.22 131.93C94.21 131.93 90.97 135.18 90.97 139.18C90.97 143.18 94.21 146.43 98.22 146.43C102.22 146.43 105.47 143.18 105.47 139.18C105.47 135.18 102.22 131.93 98.22 131.93Z"
            id="a13fJ1RtxJ"></path>
        <path d="M6.31 7.93L127.41 7.93L127.41 16.46L6.31 16.46L6.31 7.93Z" id="a6aISBgwNM"></path>
        <path
            d="M110.9 37.22C106.9 37.22 103.65 40.46 103.65 44.47C103.65 48.47 106.9 51.72 110.9 51.72C114.91 51.72 118.15 48.47 118.15 44.47C118.15 40.46 114.91 37.22 110.9 37.22Z"
            id="a65apqL93"></path>
        <path
            d="M112.24 47.39C112.64 47.21 112.93 46.96 113.12 46.65C113.31 46.34 113.41 46 113.41 45.64C113.41 45.16 113.26 44.76 112.97 44.44C112.68 44.12 112.25 43.92 111.7 43.83C111.8 43.72 112.27 43.18 113.12 42.21L113.12 41.26L108.71 41.26L108.71 42.43L111.39 42.43L110.1 43.9L110.1 44.86C110.5 44.86 110.72 44.86 110.76 44.86C111.55 44.86 111.94 45.12 111.94 45.64C111.94 45.89 111.84 46.09 111.63 46.23C111.42 46.38 111.13 46.45 110.76 46.45C110.43 46.45 110.11 46.4 109.8 46.3C109.48 46.2 109.2 46.06 108.96 45.88C108.91 45.99 108.45 46.88 108.4 47C108.7 47.21 109.06 47.38 109.49 47.5C109.92 47.61 110.36 47.67 110.8 47.67C111.37 47.67 111.85 47.58 112.24 47.39Z"
            id="a3nxJ54gox"></path>
        <path
            d="M116.56 4.94C112.56 4.94 109.31 8.19 109.31 12.19C109.31 16.2 112.56 19.44 116.56 19.44C120.57 19.44 123.81 16.2 123.81 12.19C123.81 8.19 120.57 4.94 116.56 4.94Z"
            id="b3BQMAPIwC"></path>
        <path d="M117.92 15.34L117.92 9.04L115.2 9.04L115.2 10.21L116.46 10.21L116.46 15.34L117.92 15.34Z"
            id="cbBP8Jp2i"></path>
        <path
            d="M31.24 46.48L28.53 46.48C29.4 45.66 29.88 45.21 29.98 45.11C30.39 44.73 30.67 44.39 30.82 44.09C30.96 43.79 31.03 43.47 31.03 43.13C31.03 42.75 30.94 42.42 30.74 42.14C30.55 41.86 30.27 41.64 29.92 41.49C29.57 41.34 29.16 41.26 28.69 41.26C28.14 41.26 27.64 41.37 27.21 41.57C26.78 41.78 26.44 42.07 26.19 42.43C26.3 42.5 27.15 43.05 27.25 43.12C27.4 42.91 27.59 42.75 27.81 42.64C28.03 42.54 28.28 42.49 28.56 42.49C28.89 42.49 29.14 42.55 29.31 42.69C29.48 42.82 29.57 43.02 29.57 43.27C29.57 43.44 29.52 43.62 29.43 43.8C29.34 43.97 29.17 44.18 28.91 44.43C28.75 44.58 27.94 45.35 26.48 46.73L26.48 47.67L31.24 47.67L31.24 46.48Z"
            id="a2mhjKjLk"></path>
        <path
            d="M36.41 121.02L36.41 119.69L37.44 119.69L37.44 118.51L36.41 118.51L36.41 117.33L35.03 117.33L35.03 118.51L33.34 118.51L36.09 114.72L34.56 114.72L31.59 118.71L31.59 119.69L34.99 119.69L34.99 121.02L36.41 121.02Z"
            id="ft1Rib0hj"></path>
        <path
            d="M99.65 98.72C100.05 98.53 100.34 98.28 100.53 97.96C100.72 97.65 100.82 97.3 100.82 96.91C100.82 96.32 100.61 95.84 100.18 95.49C99.76 95.14 99.1 94.96 98.22 94.96C98.18 94.96 98.01 94.96 97.7 94.96L97.8 93.76L100.43 93.76L100.43 92.59L96.59 92.59L96.26 96.14C97.23 96.14 97.77 96.14 97.87 96.14C98.41 96.14 98.79 96.21 99.01 96.35C99.23 96.48 99.34 96.69 99.34 96.96C99.34 97.22 99.24 97.42 99.03 97.56C98.82 97.7 98.53 97.78 98.16 97.78C97.83 97.78 97.51 97.73 97.2 97.63C96.89 97.53 96.61 97.39 96.37 97.21C96.31 97.32 95.85 98.21 95.8 98.32C96.1 98.54 96.46 98.71 96.89 98.82C97.32 98.94 97.75 99 98.2 99C98.77 99 99.26 98.91 99.65 98.72Z"
            id="aqzNGemrG"></path>
        <path
            d="M99.64 142.73C100.01 142.56 100.29 142.32 100.5 142C100.71 141.68 100.82 141.31 100.82 140.89C100.82 140.5 100.72 140.16 100.53 139.86C100.34 139.57 100.08 139.34 99.75 139.17C99.42 139.01 99.05 138.93 98.65 138.93C97.98 138.93 97.46 139.12 97.09 139.49C97.11 138.9 97.28 138.44 97.6 138.13C97.91 137.82 98.33 137.66 98.86 137.66C99.34 137.66 99.73 137.77 100.04 137.98C100.1 137.87 100.53 137.01 100.58 136.91C100.37 136.77 100.1 136.66 99.8 136.59C99.49 136.51 99.16 136.47 98.83 136.47C98.19 136.47 97.63 136.61 97.15 136.87C96.67 137.13 96.29 137.52 96.02 138.03C95.75 138.54 95.61 139.15 95.61 139.87C95.61 140.87 95.86 141.64 96.36 142.18C96.86 142.72 97.55 142.99 98.43 142.99C98.88 142.99 99.28 142.91 99.64 142.73ZM97.54 141.64C97.34 141.47 97.24 141.24 97.24 140.97C97.24 140.69 97.35 140.46 97.55 140.29C97.75 140.11 98.02 140.02 98.33 140.02C98.66 140.02 98.92 140.11 99.11 140.28C99.31 140.45 99.4 140.68 99.4 140.97C99.4 141.25 99.31 141.48 99.11 141.65C98.92 141.82 98.66 141.9 98.35 141.9C98.01 141.9 97.74 141.81 97.54 141.64Z"
            id="c1RqF2DxwR"></path>
    </defs>
    <g>
        <g>
            <g>
                <use xlink:href="#cbE7ArWkb" opacity="1" fill="#000000" fill-opacity="0"></use>
                <g>
                    <use xlink:href="#cbE7ArWkb" opacity="1" fill-opacity="0" stroke="#c6c6c6" stroke-width="1"
                        stroke-opacity="1"></use>
                </g>
            </g>
            <g>
                <use xlink:href="#cacv3L67e" opacity="1" fill="#e9e9e9" fill-opacity="1"></use>
                <g>
                    <use xlink:href="#cacv3L67e" opacity="1" fill-opacity="0" stroke="#000000" stroke-width="1"
                        stroke-opacity="0"></use>
                </g>
            </g>
            <g>
                <use xlink:href="#b1j1W95A4G" opacity="1" fill="#7d5ac5" fill-opacity="1"></use>
                <g>
                    <use xlink:href="#b1j1W95A4G" opacity="1" fill-opacity="0" stroke="#000000" stroke-width="1"
                        stroke-opacity="0"></use>
                </g>
            </g>
            <g>
                <use xlink:href="#i11BfNpJxG" opacity="1" fill="#7d5ac5" fill-opacity="1"></use>
                <g>
                    <use xlink:href="#i11BfNpJxG" opacity="1" fill-opacity="0" stroke="#000000" stroke-width="1"
                        stroke-opacity="0"></use>
                </g>
            </g>
            <g>
                <use xlink:href="#f5ZaAVBKL" opacity="1" fill="#7d5ac5" fill-opacity="1"></use>
                <g>
                    <use xlink:href="#f5ZaAVBKL" opacity="1" fill-opacity="0" stroke="#000000" stroke-width="1"
                        stroke-opacity="0"></use>
                </g>
            </g>
            <g>
                <use xlink:href="#csVu4NwEu" opacity="1" fill="#e9e9e9" fill-opacity="1"></use>
            </g>
            <g>
                <use xlink:href="#a13fJ1RtxJ" opacity="1" fill="#7d5ac5" fill-opacity="1"></use>
                <g>
                    <use xlink:href="#a13fJ1RtxJ" opacity="1" fill-opacity="0" stroke="#000000" stroke-width="1"
                        stroke-opacity="0"></use>
                </g>
            </g>
            <g>
                <use xlink:href="#a6aISBgwNM" opacity="1" fill="#e9e9e9" fill-opacity="1"></use>
            </g>
            <g>
                <use xlink:href="#a65apqL93" opacity="1" fill="#9c89c5" fill-opacity="1"></use>
                <g>
                    <use xlink:href="#a65apqL93" opacity="1" fill-opacity="0" stroke="#000000" stroke-width="1"
                        stroke-opacity="0"></use>
                </g>
            </g>
            <g>
                <use xlink:href="#a3nxJ54gox" opacity="1" fill="#ffffff" fill-opacity="1"></use>
                <g>
                    <use xlink:href="#a3nxJ54gox" opacity="1" fill-opacity="0" stroke="#000000" stroke-width="1"
                        stroke-opacity="0"></use>
                </g>
            </g>
            <g>
                <use xlink:href="#b3BQMAPIwC" opacity="1" fill="#7d5ac5" fill-opacity="1"></use>
                <g>
                    <use xlink:href="#b3BQMAPIwC" opacity="1" fill-opacity="0" stroke="#000000" stroke-width="1"
                        stroke-opacity="0"></use>
                </g>
            </g>
            <g>
                <use xlink:href="#cbBP8Jp2i" opacity="1" fill="#ffffff" fill-opacity="1"></use>
                <g>
                    <use xlink:href="#cbBP8Jp2i" opacity="1" fill-opacity="0" stroke="#000000" stroke-width="1"
                        stroke-opacity="0"></use>
                </g>
            </g>
            <g>
                <use xlink:href="#a2mhjKjLk" opacity="1" fill="#ffffff" fill-opacity="1"></use>
                <g>
                    <use xlink:href="#a2mhjKjLk" opacity="1" fill-opacity="0" stroke="#000000" stroke-width="1"
                        stroke-opacity="0"></use>
                </g>
            </g>
            <g>
                <use xlink:href="#ft1Rib0hj" opacity="1" fill="#ffffff" fill-opacity="1"></use>
                <g>
                    <use xlink:href="#ft1Rib0hj" opacity="1" fill-opacity="0" stroke="#000000" stroke-width="1"
                        stroke-opacity="0"></use>
                </g>
            </g>
            <g>
                <use xlink:href="#aqzNGemrG" opacity="1" fill="#ffffff" fill-opacity="1"></use>
                <g>
                    <use xlink:href="#aqzNGemrG" opacity="1" fill-opacity="0" stroke="#000000" stroke-width="1"
                        stroke-opacity="0"></use>
                </g>
            </g>
            <g>
                <use xlink:href="#c1RqF2DxwR" opacity="1" fill="#ffffff" fill-opacity="1"></use>
                <g>
                    <use xlink:href="#c1RqF2DxwR" opacity="1" fill-opacity="0" stroke="#000000" stroke-width="1"
                        stroke-opacity="0"></use>
                </g>
            </g>
        </g>
    </g>
</svg>
