<svg xmlns="http://www.w3.org/2000/svg" width="135" height="165" viewBox="0 0 135 165">
    <g fill="none" fill-rule="evenodd">
        <path stroke="#C6C6C6" d="M0.5 0.5H134.5V164.5H0.5z"/>
        <path fill="#E9E9E9" d="M7.34 11.344H52.34V56.344H7.34zM7.34 62.752H64.34V147.752H7.34zM69.727 62.752H128.44400000000002V104.98H69.727zM55.883 11.344H99.92099999999999V16.852H55.883zM56 25.524H100.038V31.032H56zM56 43.18H100.038V56.18H56z"/>
        <g transform="translate(110 7)">
            <circle cx="7.25" cy="7.25" r="7.25" fill="#7D5AC5"/>
            <path fill="#FFF" fill-rule="nonzero" d="M8.017 10L8.017 3.7 5.299 3.7 5.299 4.87 6.559 4.87 6.559 10z"/>
        </g>
        <g transform="translate(23 27)">
            <circle cx="7.25" cy="7.25" r="7.25" fill="#7D5AC5"/>
            <path fill="#FFF" fill-rule="nonzero" d="M8.493 10L8.493 8.677 9.52 8.677 9.52 7.489 8.493 7.489 8.493 6.31 7.117 6.31 7.117 7.489 5.425 7.489 8.178 3.7 6.649 3.7 3.679 7.696 3.679 8.677 7.072 8.677 7.072 10z"/>
        </g>
        <g transform="translate(29 99)">
            <circle cx="7.25" cy="7.25" r="7.25" fill="#7D5AC5"/>
            <path fill="#FFF" fill-rule="nonzero" d="M7.493 10.108c.576 0 1.06-.095 1.454-.284.393-.188.685-.44.877-.755.192-.316.288-.665.288-1.049 0-.594-.212-1.068-.635-1.422-.422-.354-1.078-.531-1.966-.531h-.513l.099-1.197h2.628V3.7H5.882l-.324 3.546h1.611c.54 0 .92.069 1.138.207.22.138.329.342.329.612 0 .258-.105.459-.315.603-.21.144-.498.216-.864.216-.33 0-.651-.05-.963-.149-.312-.098-.588-.238-.828-.418L5.09 9.433c.3.216.665.383 1.094.5.428.117.865.175 1.309.175z"/>
        </g>
        <g transform="translate(92 77)">
            <circle cx="7.25" cy="7.25" r="7.25" fill="#7D5AC5"/>
            <path fill="#FFF" fill-rule="nonzero" d="M7.301 10.108c.444 0 .848-.085 1.211-.257.363-.17.65-.415.86-.733.21-.318.315-.687.315-1.107 0-.39-.096-.733-.288-1.03-.192-.297-.454-.527-.783-.689-.33-.162-.696-.243-1.098-.243-.667 0-1.186.186-1.558.558.024-.594.192-1.047.505-1.359.312-.312.734-.468 1.269-.468.473 0 .867.105 1.178.315l.54-1.071c-.216-.138-.478-.244-.787-.32-.309-.075-.631-.112-.967-.112-.637 0-1.196.132-1.679.396-.483.264-.86.651-1.13 1.161-.27.51-.405 1.122-.405 1.836 0 1.002.25 1.773.747 2.313.498.54 1.189.81 2.07.81zm-.08-1.089c-.343 0-.612-.087-.81-.261-.198-.174-.297-.399-.297-.675s.101-.503.306-.68c.204-.176.465-.265.782-.265.325 0 .584.085.779.256.195.171.293.401.293.689 0 .288-.098.516-.293.684-.195.168-.449.252-.76.252z"/>
        </g>
        <g transform="translate(110 25)">
            <circle cx="7.25" cy="7.25" r="7.25" fill="#7D5AC5"/>
            <path fill="#FFF" fill-rule="nonzero" d="M9.903 10V8.812H7.194l1.449-1.368c.414-.384.693-.726.837-1.026.144-.3.216-.621.216-.963 0-.378-.098-.707-.293-.986-.194-.279-.468-.495-.819-.648-.35-.153-.76-.229-1.228-.229-.558 0-1.053.103-1.485.31-.432.207-.771.494-1.017.86l1.062.684c.15-.21.336-.367.558-.473.222-.104.471-.157.747-.157.33 0 .58.067.752.203.17.135.256.328.256.58 0 .174-.045.35-.135.526-.09.178-.264.389-.522.635l-2.43 2.295V10h4.761z"/>
        </g>
        <g transform="translate(110 42)">
            <circle cx="7.25" cy="7.25" r="7.25" fill="#7D5AC5"/>
            <path fill="#FFF" fill-rule="nonzero" d="M7.73 10.108c.57 0 1.051-.093 1.444-.279.394-.186.686-.434.878-.743.192-.309.288-.646.288-1.012 0-.474-.147-.872-.441-1.192-.294-.321-.717-.527-1.269-.617l1.422-1.62V3.7h-4.41v1.17h2.682L7.028 6.337V7.3h.666c.786 0 1.179.258 1.179.774 0 .258-.105.457-.315.598-.21.141-.498.212-.864.212-.33 0-.652-.05-.968-.149-.314-.098-.592-.238-.832-.418l-.567 1.116c.3.216.665.383 1.093.5.43.117.866.175 1.31.175z"/>
        </g>
    </g>
</svg>
