<svg width="137" height="167" viewBox="0 0 137 167" fill="none" xmlns="http://www.w3.org/2000/svg">
<path fill-rule="evenodd" clip-rule="evenodd" d="M1 1H136V166.224H1V1Z" stroke="#C6C6C6"/>
<path fill-rule="evenodd" clip-rule="evenodd" d="M8 12H53.015V35V57H8V12ZM57 12H102V20H57V12Z" fill="#E9E9E9"/>
<path d="M102 34H57V47H102V34Z" fill="#E9E9E9"/>
<path d="M118.622 22.6082C122.656 22.6082 125.926 19.338 125.926 15.3041C125.926 11.2702 122.656 8 118.622 8C114.588 8 111.318 11.2702 111.318 15.3041C111.318 19.338 114.588 22.6082 118.622 22.6082Z" fill="#7D5AC5"/>
<path d="M119.395 18.0746V11.7276H116.656V12.9064H117.926V18.0746H119.395Z" fill="white"/>
<path d="M30.9721 42.306C35.006 42.306 38.2762 39.0358 38.2762 35.0019C38.2762 30.9679 35.006 27.6978 30.9721 27.6978C26.9381 27.6978 23.668 30.9679 23.668 35.0019C23.668 39.0358 26.9381 42.306 30.9721 42.306Z" fill="#7D5AC5"/>
<path d="M30.4209 38.4558C30.9952 38.4558 31.4798 38.3621 31.8757 38.1747C32.2726 37.9874 32.5668 37.7375 32.7603 37.4262C32.9537 37.1149 33.0504 36.7754 33.0504 36.4066C33.0504 35.9291 32.9023 35.5281 32.6061 35.2057C32.3099 34.8824 31.8838 34.6748 31.3276 34.5841L32.7603 32.9521V32H28.3174V33.1787H31.0194L29.7137 34.6567V35.6269H30.3847C31.1765 35.6269 31.5725 35.8868 31.5725 36.4066C31.5725 36.6666 31.4667 36.8671 31.2551 37.0091C31.0435 37.1512 30.7534 37.2227 30.3847 37.2227C30.0522 37.2227 29.7278 37.1723 29.4094 37.0726C29.0931 36.9738 28.813 36.8328 28.5712 36.6515L28 37.7758C28.3022 37.9934 28.67 38.1616 29.1012 38.2795C29.5344 38.3974 29.9736 38.4558 30.4209 38.4558Z" fill="white"/>
<path d="M118.622 47.6082C122.656 47.6082 125.926 44.338 125.926 40.3041C125.926 36.2702 122.656 33 118.622 33C114.588 33 111.318 36.2702 111.318 40.3041C111.318 44.338 114.588 47.6082 118.622 47.6082Z" fill="#7D5AC5"/>
<path d="M121.294 43.0746V41.8777H118.565L120.025 40.4995C120.442 40.1127 120.723 39.7681 120.868 39.4659C121.013 39.1636 121.086 38.8402 121.086 38.4957C121.086 38.1149 120.987 37.7834 120.79 37.5023C120.595 37.2212 120.319 37.0036 119.965 36.8495C119.613 36.6953 119.2 36.6188 118.728 36.6188C118.166 36.6188 117.667 36.7225 117.232 36.9311C116.797 37.1396 116.455 37.4288 116.208 37.7975L117.277 38.4866C117.429 38.275 117.616 38.1169 117.84 38.0101C118.063 37.9053 118.314 37.8519 118.592 37.8519C118.925 37.8519 119.177 37.9194 119.35 38.0564C119.521 38.1924 119.608 38.3869 119.608 38.6408C119.608 38.8161 119.562 38.9934 119.472 39.1707C119.381 39.35 119.206 39.5626 118.946 39.8104L116.498 42.1225V43.0746H121.294Z" fill="white"/>
</svg>
