<svg xmlns="http://www.w3.org/2000/svg" width="135" height="165" viewBox="0 0 135 165">
    <g fill="none" fill-rule="evenodd">
        <g>
            <g transform="translate(-1483 -335) translate(1483 335)">
                <path stroke="#C6C6C6" d="M0.5 0.5H134.5V164.5H0.5z"/>
                <path fill="#E9E9E9" d="M7.34 21.344H52.34V66.344H7.34zM7.34 4.344H128.34V14.344000000000001H7.34zM7.34 72.752H64.34V157.752H7.34zM69.727 72.752H128.44400000000002V111.97999999999999H69.727zM69.727 117.752H128.44400000000002V156.98H69.727zM55.883 21.344H99.92099999999999V26.852H55.883zM56 35.524H100.038V41.032000000000004H56zM56 53.18H100.038V66.18H56z"/>
                <circle cx="117.25" cy="10.25" r="7.25" fill="#7D5AC5"/>
                <text fill="#FFF" font-family="Montserrat-Bold, Montserrat" font-size="9" font-weight="bold">
                    <tspan x="115" y="14">1</tspan>
                </text>
                <circle cx="99.25" cy="137.25" r="7.25" fill="#7D5AC5"/>
                <text fill="#FFF" font-family="Montserrat-Bold, Montserrat" font-size="9" font-weight="bold">
                    <tspan x="96.5" y="141">2</tspan>
                </text>
            </g>
        </g>
    </g>
</svg>
