<svg xmlns="http://www.w3.org/2000/svg" width="135" height="74" viewBox="0 0 135 74">
    <g fill="none" fill-rule="evenodd">
        <path stroke="#C6C6C6" d="M0.5 0.5H134.5V73.5H0.5z"/>
        <path fill="#E9E9E9" d="M69.727 27H128.44400000000002V69.22800000000001H69.727zM70 8.344H114.038V21.344H70zM7 8.344H59V13.852H7zM7 23.524H59V29.032H7zM7 56H59V69H7z"/>
        <g transform="translate(4 3)">
            <circle cx="7.25" cy="7.25" r="7.25" fill="#5A88C5"/>
            <path fill="#FFF" fill-rule="nonzero" d="M8.017 10L8.017 3.7 5.299 3.7 5.299 4.87 6.559 4.87 6.559 10z"/>
        </g>
        <g transform="translate(91 40.248)">
            <circle cx="7.25" cy="7.25" r="7.25" fill="#5A88C5"/>
            <path fill="#FFF" fill-rule="nonzero" d="M8.493 10L8.493 8.677 9.52 8.677 9.52 7.489 8.493 7.489 8.493 6.31 7.117 6.31 7.117 7.489 5.425 7.489 8.178 3.7 6.649 3.7 3.679 7.696 3.679 8.677 7.072 8.677 7.072 10z"/>
        </g>
        <g transform="translate(64 7)">
            <circle cx="7.25" cy="7.25" r="7.25" fill="#5A88C5"/>
            <path fill="#FFF" fill-rule="nonzero" d="M7.493 10.108c.576 0 1.06-.095 1.454-.284.393-.188.685-.44.877-.755.192-.316.288-.665.288-1.049 0-.594-.212-1.068-.635-1.422-.422-.354-1.078-.531-1.966-.531h-.513l.099-1.197h2.628V3.7H5.882l-.324 3.546h1.611c.54 0 .92.069 1.138.207.22.138.329.342.329.612 0 .258-.105.459-.315.603-.21.144-.498.216-.864.216-.33 0-.651-.05-.963-.149-.312-.098-.588-.238-.828-.418L5.09 9.433c.3.216.665.383 1.094.5.428.117.865.175 1.309.175z"/>
        </g>
        <g transform="translate(4 19)">
            <circle cx="7.25" cy="7.25" r="7.25" fill="#5A88C5"/>
            <path fill="#FFF" fill-rule="nonzero" d="M9.903 10V8.812H7.194l1.449-1.368c.414-.384.693-.726.837-1.026.144-.3.216-.621.216-.963 0-.378-.098-.707-.293-.986-.194-.279-.468-.495-.819-.648-.35-.153-.76-.229-1.228-.229-.558 0-1.053.103-1.485.31-.432.207-.771.494-1.017.86l1.062.684c.15-.21.336-.367.558-.473.222-.104.471-.157.747-.157.33 0 .58.067.752.203.17.135.256.328.256.58 0 .174-.045.35-.135.526-.09.178-.264.389-.522.635l-2.43 2.295V10h4.761z"/>
        </g>
        <g transform="translate(4 55)">
            <circle cx="7.25" cy="7.25" r="7.25" fill="#5A88C5"/>
            <path fill="#FFF" fill-rule="nonzero" d="M6.73 11.108c.57 0 1.051-.093 1.444-.279.394-.186.686-.434.878-.743.192-.309.288-.646.288-1.012 0-.474-.147-.871-.441-1.192-.294-.321-.717-.527-1.269-.617l1.422-1.62V4.7h-4.41v1.17h2.682L6.028 7.337V8.3h.666c.786 0 1.179.258 1.179.774 0 .258-.105.457-.315.598-.21.141-.498.212-.864.212-.33 0-.652-.05-.968-.149-.314-.098-.592-.238-.832-.418l-.567 1.116c.3.216.665.383 1.093.5.43.117.866.175 1.31.175z"/>
        </g>
    </g>
</svg>
