<svg xmlns="http://www.w3.org/2000/svg" width="135" height="74" viewBox="0 0 135 74">
    <g fill="none" fill-rule="evenodd">
        <path stroke="#C6C6C6" d="M0.5 0.5H134.5V73.5H0.5z"/>
        <path fill="#E9E9E9" d="M69.727 27H128.44400000000002V69.22800000000001H69.727zM70 8.344H114.038V21.344H70zM7 8.344H59V13.852H7zM7 23.524H59V29.032H7zM7 56H59V69H7z"/>
        <g transform="translate(91 40.248)">
            <circle cx="7.25" cy="7.25" r="7.25" fill="#5A88C5"/>
            <path fill="#FFF" fill-rule="nonzero" d="M8.017 10L8.017 3.7 5.299 3.7 5.299 4.87 6.559 4.87 6.559 10z"/>
        </g>
        <g transform="translate(64 7)">
            <circle cx="7.25" cy="7.25" r="7.25" fill="#5A88C5"/>
            <path fill="#FFF" fill-rule="nonzero" d="M9.903 10V8.812H7.194l1.449-1.368c.414-.384.693-.726.837-1.026.144-.3.216-.621.216-.963 0-.378-.098-.707-.293-.986-.194-.279-.468-.495-.819-.648-.35-.153-.76-.229-1.228-.229-.558 0-1.053.103-1.485.31-.432.207-.771.494-1.017.86l1.062.684c.15-.21.336-.367.558-.473.222-.104.471-.157.747-.157.33 0 .58.067.752.203.17.135.256.328.256.58 0 .174-.045.35-.135.526-.09.178-.264.389-.522.635l-2.43 2.295V10h4.761z"/>
        </g>
    </g>
</svg>
