<svg xmlns="http://www.w3.org/2000/svg" width="114" height="124" viewBox="0 0 114 124">
    <g fill="none" fill-rule="evenodd">
        <path fill="#FFF" fill-rule="nonzero" d="M83 19.615C81.459 16.846 78.557 15 75.202 15H23.067C18.08 15 14 19.154 14 24.23v71.54c0 1.273.258 2.487.72 3.59l-.72 1.025c1.541 2.769 4.443 4.615 7.798 4.615h52.135C78.92 105 83 100.846 83 95.77V24.23c0-1.273-.258-2.487-.72-3.59l.72-1.025z" transform="translate(3 3)"/>
        <path fill="#FFF" fill-rule="nonzero" d="M107 107.919V42.08c0-5.017-4.1-9.081-9.161-9.081H45.16C40.1 33 36 37.064 36 42.081v65.838c0 5.017 4.1 9.081 9.161 9.081H97.84c5.061 0 9.161-4.064 9.161-9.081z" transform="translate(3 3)"/>
        <path fill-rule="nonzero" d="M25.86 108H22.46C15.587 108 10 102.305 10 95.298V23.702C10 16.695 15.587 11 22.461 11h52.11c4.44 0 8.564 2.439 10.752 6.374L87 20.386l-5.913 3.418-1.677-3.012c-.997-1.796-2.81-2.863-4.84-2.863H22.462c-3.122 0-5.664 2.59-5.664 5.773v71.596c0 3.182 2.542 5.773 5.664 5.773h3.398V108z" transform="translate(3 3)"/>
        <path fill="#DCDCDC" fill-rule="nonzero" d="M98.544 121H46.456C39.585 121 34 115.39 34 108.487V42.513C34 35.61 39.585 30 46.456 30h52.088C105.415 30 111 35.61 111 42.513v65.975C111 115.39 105.415 121 98.544 121zM46.456 36.825c-3.12 0-5.662 2.553-5.662 5.688v65.975c0 3.134 2.541 5.687 5.662 5.687h52.088c3.12 0 5.662-2.553 5.662-5.688V42.513c0-3.135-2.541-5.688-5.662-5.688H46.456z" transform="translate(3 3)"/>
        <g stroke="#BBB" stroke-linecap="round" stroke-width="5">
            <path d="M18.91 5.526L24.519.084M0 23.526L5.609 18.084M5.609 5.684L.085.158" transform="translate(3 3)"/>
        </g>
        <path stroke="#BBB" stroke-linecap="round" stroke-width="5" d="M53 49L92 49M53 64L92 64M53 80L92 80M53 97L92 97" transform="translate(3 3)"/>
    </g>
</svg>
