<svg width="120" height="58" viewBox="0 0 120 58" fill="none" xmlns="http://www.w3.org/2000/svg">
<rect width="120" height="58" fill="#EFF0F0"/>
<rect x="23.082" y="8" width="72.8367" height="43" rx="3" fill="#DADADA"/>
<path d="M52.1355 25.5189C52.5179 25.751 53.4029 26.1821 54.277 26.1821C55.4023 26.1821 55.9705 25.552 55.9705 24.7452C55.9705 23.6951 55.0636 23.2088 54.1131 23.2088H53.2281V21.4071H54.0694C54.7905 21.396 55.7192 21.0755 55.7192 20.1691C55.7192 19.528 55.2603 19.0527 54.3535 19.0527C53.5996 19.0527 52.802 19.4286 52.4195 19.6938L51.9825 17.8811C52.5288 17.4721 53.6433 17.0742 54.8342 17.0742C56.8118 17.0742 57.9044 18.279 57.9044 19.7491C57.9044 20.8876 57.3472 21.7829 56.2109 22.2361V22.2692C57.3144 22.5014 58.2103 23.474 58.2103 24.8778C58.2103 26.7789 56.779 28.1606 54.4299 28.1606C53.239 28.1606 52.2229 27.7958 51.6875 27.3979L52.1355 25.5189Z" fill="#3BA0A8"/>
<path d="M59.9797 17.0078C60.7773 16.8641 61.8152 16.7756 62.9079 16.7756C64.7325 16.7756 65.9125 17.1514 66.8303 17.9583C67.8246 18.8205 68.4473 20.18 68.4473 22.1475C68.4473 24.2697 67.7809 25.7398 66.8521 26.6462C65.847 27.6189 64.3064 28.0831 62.4271 28.0831C61.3017 28.0831 60.5041 28.0057 59.9688 27.9173V17.0078H59.9797ZM62.154 26.0714C62.3397 26.1156 62.6347 26.1156 62.9079 26.1156C64.8745 26.1267 66.1529 24.8777 66.1529 22.2249C66.1638 19.9148 65.0057 18.6989 63.1373 18.6989C62.6566 18.6989 62.3397 18.7431 62.154 18.7984V26.0714Z" fill="#3BA0A8"/>
<path d="M70.7538 20.5891C71.6497 21.7608 72.1632 23.0982 72.1632 24.5241C72.1632 28.7574 67.6289 32.2613 61.707 32.9135V35.5994C68.3938 34.9362 73.5399 31.0123 73.5399 26.2594C73.529 24.1372 72.491 22.1697 70.7538 20.5891Z" fill="#3BA0A8"/>
<path d="M57.0847 32.8249C51.4797 31.9959 47.2732 28.5915 47.2732 24.5128C47.2732 23.098 47.7867 21.7606 48.6826 20.5779C46.9345 22.1695 45.8965 24.137 45.8965 26.2703C45.8965 30.8684 50.7149 34.6928 57.0847 35.5329V37.6662L60.5046 34.2728L57.0847 30.8795V32.8249Z" fill="#3BA0A8"/>
<circle cx="51.1633" cy="45.7346" r="1.7551" fill="white"/>
<circle cx="59.0617" cy="45.7346" r="1.7551" fill="#EFF0F0"/>
<circle cx="66.9582" cy="45.7346" r="1.7551" fill="#EFF0F0"/>
</svg>
