<svg width="120" height="58" viewBox="0 0 120 58" fill="none" xmlns="http://www.w3.org/2000/svg">
<rect width="120" height="58" fill="#EFF0F0"/>
<path d="M18.7836 12.8414C18.8127 12.8704 18.8357 12.9049 18.8514 12.9428C18.8672 12.9808 18.8752 13.0214 18.8752 13.0625C18.8752 13.1036 18.8672 13.1442 18.8514 13.1822C18.8357 13.2201 18.8127 13.2546 18.7836 13.2836L16.5961 15.4711C16.5671 15.5001 16.5326 15.5232 16.4947 15.5389C16.4567 15.5547 16.4161 15.5627 16.375 15.5627C16.3339 15.5627 16.2933 15.5547 16.2553 15.5389C16.2174 15.5232 16.1829 15.5001 16.1539 15.4711L15.2164 14.5336C15.1578 14.475 15.1248 14.3954 15.1248 14.3125C15.1248 14.2296 15.1578 14.15 15.2164 14.0914C15.275 14.0328 15.3546 13.9998 15.4375 13.9998C15.5204 13.9998 15.6 14.0328 15.6586 14.0914L16.375 14.8082L18.3414 12.8414C18.3704 12.8124 18.4049 12.7893 18.4428 12.7736C18.4808 12.7578 18.5214 12.7498 18.5625 12.7498C18.6036 12.7498 18.6442 12.7578 18.6822 12.7736C18.7201 12.7893 18.7546 12.8124 18.7836 12.8414ZM21.0625 14C21.0625 14.8035 20.8242 15.5889 20.3778 16.257C19.9315 16.9251 19.297 17.4458 18.5547 17.7533C17.8123 18.0607 16.9955 18.1412 16.2074 17.9844C15.4194 17.8277 14.6955 17.4408 14.1274 16.8726C13.5592 16.3045 13.1723 15.5806 13.0156 14.7926C12.8588 14.0045 12.9393 13.1877 13.2467 12.4453C13.5542 11.703 14.0749 11.0685 14.743 10.6222C15.4111 10.1758 16.1965 9.9375 17 9.9375C18.0771 9.93864 19.1097 10.367 19.8714 11.1286C20.633 11.8903 21.0614 12.9229 21.0625 14ZM20.4375 14C20.4375 13.3201 20.2359 12.6555 19.8582 12.0902C19.4805 11.5249 18.9436 11.0843 18.3155 10.8242C17.6874 10.564 16.9962 10.4959 16.3294 10.6286C15.6626 10.7612 15.0501 11.0886 14.5693 11.5693C14.0886 12.0501 13.7612 12.6626 13.6286 13.3294C13.4959 13.9962 13.564 14.6874 13.8242 15.3155C14.0843 15.9436 14.5249 16.4805 15.0902 16.8582C15.6555 17.2359 16.3201 17.4375 17 17.4375C17.9114 17.4365 18.7851 17.074 19.4295 16.4295C20.074 15.7851 20.4365 14.9114 20.4375 14Z" fill="#3BA0A8"/>
<path fill-rule="evenodd" clip-rule="evenodd" d="M26 14C26 12.3431 27.3431 11 29 11H103C104.657 11 106 12.3431 106 14C106 15.6569 104.657 17 103 17H29C27.3431 17 26 15.6569 26 14Z" fill="#BBBBBB"/>
<path d="M18.7836 26.8414C18.8127 26.8704 18.8357 26.9049 18.8514 26.9428C18.8672 26.9808 18.8752 27.0214 18.8752 27.0625C18.8752 27.1036 18.8672 27.1442 18.8514 27.1822C18.8357 27.2201 18.8127 27.2546 18.7836 27.2836L16.5961 29.4711C16.5671 29.5001 16.5326 29.5232 16.4947 29.5389C16.4567 29.5547 16.4161 29.5627 16.375 29.5627C16.3339 29.5627 16.2933 29.5547 16.2553 29.5389C16.2174 29.5232 16.1829 29.5001 16.1539 29.4711L15.2164 28.5336C15.1578 28.475 15.1248 28.3954 15.1248 28.3125C15.1248 28.2296 15.1578 28.15 15.2164 28.0914C15.275 28.0328 15.3546 27.9998 15.4375 27.9998C15.5204 27.9998 15.6 28.0328 15.6586 28.0914L16.375 28.8082L18.3414 26.8414C18.3704 26.8124 18.4049 26.7893 18.4428 26.7736C18.4808 26.7578 18.5214 26.7498 18.5625 26.7498C18.6036 26.7498 18.6442 26.7578 18.6822 26.7736C18.7201 26.7893 18.7546 26.8124 18.7836 26.8414ZM21.0625 28C21.0625 28.8035 20.8242 29.5889 20.3778 30.257C19.9315 30.9251 19.297 31.4458 18.5547 31.7533C17.8123 32.0607 16.9955 32.1412 16.2074 31.9844C15.4194 31.8277 14.6955 31.4408 14.1274 30.8726C13.5592 30.3045 13.1723 29.5806 13.0156 28.7926C12.8588 28.0045 12.9393 27.1877 13.2467 26.4453C13.5542 25.703 14.0749 25.0685 14.743 24.6222C15.4111 24.1758 16.1965 23.9375 17 23.9375C18.0771 23.9386 19.1097 24.367 19.8714 25.1286C20.633 25.8903 21.0614 26.9229 21.0625 28ZM20.4375 28C20.4375 27.3201 20.2359 26.6555 19.8582 26.0902C19.4805 25.5249 18.9436 25.0843 18.3155 24.8242C17.6874 24.564 16.9962 24.4959 16.3294 24.6286C15.6626 24.7612 15.0501 25.0886 14.5693 25.5693C14.0886 26.0501 13.7612 26.6626 13.6286 27.3294C13.4959 27.9962 13.564 28.6874 13.8242 29.3155C14.0843 29.9436 14.5249 30.4805 15.0902 30.8582C15.6555 31.2359 16.3201 31.4375 17 31.4375C17.9114 31.4365 18.7851 31.074 19.4295 30.4295C20.074 29.7851 20.4365 28.9114 20.4375 28Z" fill="#3BA0A8"/>
<path fill-rule="evenodd" clip-rule="evenodd" d="M26 28C26 26.3431 27.3431 25 29 25H103C104.657 25 106 26.3431 106 28C106 29.6569 104.657 31 103 31H29C27.3431 31 26 29.6569 26 28Z" fill="#BBBBBB"/>
<path d="M18.7836 40.8414C18.8127 40.8704 18.8357 40.9049 18.8514 40.9428C18.8672 40.9808 18.8752 41.0214 18.8752 41.0625C18.8752 41.1036 18.8672 41.1442 18.8514 41.1822C18.8357 41.2201 18.8127 41.2546 18.7836 41.2836L16.5961 43.4711C16.5671 43.5001 16.5326 43.5232 16.4947 43.5389C16.4567 43.5547 16.4161 43.5627 16.375 43.5627C16.3339 43.5627 16.2933 43.5547 16.2553 43.5389C16.2174 43.5232 16.1829 43.5001 16.1539 43.4711L15.2164 42.5336C15.1578 42.475 15.1248 42.3954 15.1248 42.3125C15.1248 42.2296 15.1578 42.15 15.2164 42.0914C15.275 42.0328 15.3546 41.9998 15.4375 41.9998C15.5204 41.9998 15.6 42.0328 15.6586 42.0914L16.375 42.8082L18.3414 40.8414C18.3704 40.8124 18.4049 40.7893 18.4428 40.7736C18.4808 40.7578 18.5214 40.7498 18.5625 40.7498C18.6036 40.7498 18.6442 40.7578 18.6822 40.7736C18.7201 40.7893 18.7546 40.8124 18.7836 40.8414ZM21.0625 42C21.0625 42.8035 20.8242 43.5889 20.3778 44.257C19.9315 44.9251 19.297 45.4458 18.5547 45.7533C17.8123 46.0607 16.9955 46.1412 16.2074 45.9844C15.4194 45.8277 14.6955 45.4408 14.1274 44.8726C13.5592 44.3045 13.1723 43.5806 13.0156 42.7926C12.8588 42.0045 12.9393 41.1877 13.2467 40.4453C13.5542 39.703 14.0749 39.0685 14.743 38.6222C15.4111 38.1758 16.1965 37.9375 17 37.9375C18.0771 37.9386 19.1097 38.367 19.8714 39.1286C20.633 39.8903 21.0614 40.9229 21.0625 42ZM20.4375 42C20.4375 41.3201 20.2359 40.6555 19.8582 40.0902C19.4805 39.5249 18.9436 39.0843 18.3155 38.8242C17.6874 38.564 16.9962 38.4959 16.3294 38.6286C15.6626 38.7612 15.0501 39.0886 14.5693 39.5693C14.0886 40.0501 13.7612 40.6626 13.6286 41.3294C13.4959 41.9962 13.564 42.6874 13.8242 43.3155C14.0843 43.9436 14.5249 44.4805 15.0902 44.8582C15.6555 45.2359 16.3201 45.4375 17 45.4375C17.9114 45.4365 18.7851 45.074 19.4295 44.4295C20.074 43.7851 20.4365 42.9114 20.4375 42Z" fill="#3BA0A8"/>
<path fill-rule="evenodd" clip-rule="evenodd" d="M26 42C26 40.3431 27.3431 39 29 39H103C104.657 39 106 40.3431 106 42C106 43.6569 104.657 45 103 45H29C27.3431 45 26 43.6569 26 42Z" fill="#BBBBBB"/>
</svg>
