<svg width="120" height="58" viewBox="0 0 120 58" fill="none" xmlns="http://www.w3.org/2000/svg">
<rect width="120" height="58" fill="#EFF0F0"/>
<path fill-rule="evenodd" clip-rule="evenodd" d="M56 19.5C56 18.6716 56.485 18 57.0833 18H106.917C107.515 18 108 18.6716 108 19.5C108 20.3284 107.515 21 106.917 21H57.0833C56.485 21 56 20.3284 56 19.5Z" fill="#BBBBBB"/>
<path fill-rule="evenodd" clip-rule="evenodd" d="M56 25.5C56 24.6716 56.5725 24 57.2787 24H106.721C107.428 24 108 24.6716 108 25.5C108 26.3284 107.428 27 106.721 27H57.2787C56.5725 27 56 26.3284 56 25.5Z" fill="#BBBBBB"/>
<path fill-rule="evenodd" clip-rule="evenodd" d="M56 32C56 30.8954 56.8954 30 58 30H69C70.1046 30 71 30.8954 71 32C71 33.1046 70.1046 34 69 34H58C56.8954 34 56 33.1046 56 32Z" fill="#8D8D8F"/>
<rect x="11" y="18" width="38.8367" height="22.9277" rx="3" fill="#DADADA"/>
<path d="M30.0002 32.846L34.1202 35.3327L33.0268 30.646L36.6668 27.4927L31.8735 27.086L30.0002 22.666L28.1268 27.086L23.3335 27.4927L26.9735 30.646L25.8802 35.3327L30.0002 32.846Z" fill="#3BA0A8"/>
</svg>
