<svg width="120" height="58" viewBox="0 0 120 58" fill="none" xmlns="http://www.w3.org/2000/svg">
<rect width="120" height="58" fill="#EFF0F0"/>
<path d="M34 11C34 9.34314 35.3431 8 37 8H103.837C105.494 8 106.837 9.34315 106.837 11V48C106.837 49.6569 105.494 51 103.837 51H37C35.3431 51 34 49.6569 34 48V11Z" fill="#DADADA"/>
<path d="M78.918 37V23C78.918 21.9 78.018 21 76.918 21H62.918C61.818 21 60.918 21.9 60.918 23V37C60.918 38.1 61.818 39 62.918 39H76.918C78.018 39 78.918 38.1 78.918 37ZM66.418 31.5L68.918 34.51L72.418 30L76.918 36H62.918L66.418 31.5Z" fill="#3BA0A8"/>
<path d="M14 11C14 9.34315 15.3431 8 17 8H28C29.6569 8 31 9.34315 31 11V17C31 18.6569 29.6569 20 28 20H17C15.3431 20 14 18.6569 14 17V11Z" fill="#DADADA"/>
<path d="M14 26C14 24.3431 15.3431 23 17 23H28C29.6569 23 31 24.3431 31 26V33C31 34.6569 29.6569 36 28 36H17C15.3431 36 14 34.6569 14 33V26Z" fill="#DADADA"/>
<path d="M14 42C14 40.3431 15.3431 39 17 39H28C29.6569 39 31 40.3431 31 42V48C31 49.6569 29.6569 51 28 51H17C15.3431 51 14 49.6569 14 48V42Z" fill="#DADADA"/>
</svg>
