<svg width="120" height="58" viewBox="0 0 120 58" fill="none" xmlns="http://www.w3.org/2000/svg">
<rect width="120" height="58" fill="#EFF0F0"/>
<path fill-rule="evenodd" clip-rule="evenodd" d="M24 13C24 11.3431 25.3431 10 27 10H67C68.6569 10 70 11.3431 70 13C70 14.6569 68.6569 16 67 16H27C25.3431 16 24 14.6569 24 13Z" fill="#8D8D8F"/>
<path fill-rule="evenodd" clip-rule="evenodd" d="M24 23.5C24 22.6716 24.6716 22 25.5 22H94.5C95.3284 22 96 22.6716 96 23.5C96 24.3284 95.3284 25 94.5 25H25.5C24.6716 25 24 24.3284 24 23.5Z" fill="#BBBBBB"/>
<path fill-rule="evenodd" clip-rule="evenodd" d="M24 29.5C24 28.6716 24.6716 28 25.5 28H94.5C95.3284 28 96 28.6716 96 29.5C96 30.3284 95.3284 31 94.5 31H25.5C24.6716 31 24 30.3284 24 29.5Z" fill="#BBBBBB"/>
<path fill-rule="evenodd" clip-rule="evenodd" d="M24 35.5C24 34.6716 24.6716 34 25.5 34H94.5C95.3284 34 96 34.6716 96 35.5C96 36.3284 95.3284 37 94.5 37H25.5C24.6716 37 24 36.3284 24 35.5Z" fill="#BBBBBB"/>
<path fill-rule="evenodd" clip-rule="evenodd" d="M24 41.5C24 40.6716 24.6716 40 25.5 40H94.5C95.3284 40 96 40.6716 96 41.5C96 42.3284 95.3284 43 94.5 43H25.5C24.6716 43 24 42.3284 24 41.5Z" fill="#BBBBBB"/>
<path fill-rule="evenodd" clip-rule="evenodd" d="M24 47.5C24 46.6716 24.6716 46 25.5 46H83.5C84.3284 46 85 46.6716 85 47.5C85 48.3284 84.3284 49 83.5 49H25.5C24.6716 49 24 48.3284 24 47.5Z" fill="#BBBBBB"/>
</svg>
