<svg width="120" height="58" viewBox="0 0 120 58" fill="none" xmlns="http://www.w3.org/2000/svg">
<rect width="120" height="58" fill="#EFF0F0"/>
<path d="M31 40V17C31 15.3431 32.3431 14 34 14H74.3501C75.1369 14 75.8922 14.3091 76.4532 14.8606L87.8716 26.0854C89.0488 27.2427 89.0698 29.1337 87.9186 30.3169L76.4612 42.0921C75.8964 42.6726 75.1209 43 74.311 43H34C32.3431 43 31 41.6569 31 40Z" fill="#BBBBBB"/>
<path d="M32 32C27.584 32 24 35.584 24 40C24 44.416 27.584 48 32 48C36.416 48 40 44.416 40 40C40 35.584 36.416 32 32 32Z" fill="#EFF0F0"/>
<path d="M32 32C27.584 32 24 35.584 24 40C24 44.416 27.584 48 32 48C36.416 48 40 44.416 40 40C40 35.584 36.416 32 32 32ZM36 40.8H32.8V44H31.2V40.8H28V39.2H31.2V36H32.8V39.2H36V40.8Z" fill="#3BA0A8"/>
</svg>
