<svg xmlns="http://www.w3.org/2000/svg" width="22" height="24" viewBox="0 0 22 24">
    <g fill="none" fill-rule="nonzero">
        <path fill="#A90D21" d="M.205 22.23a.77.77 0 0 0-.11.823.97.97 0 0 0 .774.385h4.095c1.162 0 1.55-.275 1.882-.604.11-.11.221-.275.387-.44l7.14-10.977H7.564L.205 22.23z"/>
        <path fill="#F40D21" d="M6.846 1.043C6.403.494 6.182 0 4.576 0H.87C.592 0 .426.11.26.22c-.277.22-.387.658-.055.988l7.36 10.209h6.807L6.846 1.043c.055 0 .055 0 0 0z"/>
        <path fill="#FFF" d="M12.712 5.544L16.31.054h5.48l-6.2 9.606zM15.535 13.283l6.53 10.155h-5.811l-3.597-5.654z"/>
    </g>
</svg>
