<svg xmlns="http://www.w3.org/2000/svg" width="152" height="42" viewBox="0 0 152 42">
    <g fill="none" fill-rule="nonzero">
        <path fill="#FFF" d="M25.015 12.68c0 6.97-5.48 12.46-12.176 12.46C6.087 25.14.664 19.65.664 12.68.664 5.707 6.143.273 12.839.273c6.863 0 12.176 5.325 12.176 12.405zm-2.934 0c0-5.49-4.04-9.661-9.186-9.661-5.092 0-9.187 4.226-9.187 9.66s4.15 9.66 9.187 9.66c5.036 0 9.186-4.28 9.186-9.66zM50.306 24.755h-3.32L33.758 5.269V24.7H30.77V.823h3.376l13.227 19.431V.824h2.988v23.93zM75.044.823v2.8H60.489v7.245h13.116v2.8H60.489v8.288h14.555v2.799H57.5V.823zM91.48 24.7H80.8V.768h10.57c4.372 0 7.028 2.525 7.028 6.422 0 1.812-.94 3.788-3.099 4.83 2.657.879 3.763 3.13 3.763 5.6.111 4.006-2.877 7.08-7.581 7.08zm-7.637-13.887h7.693c1.826 0 3.93-.988 3.93-3.623 0-2.524-1.606-3.622-4.04-3.622h-7.583v7.245zm7.693 2.8h-7.693V21.9h7.804c2.6 0 4.482-1.537 4.482-4.117 0-3.019-1.881-4.172-4.593-4.172zM127.508 12.68c0 6.97-5.479 12.46-12.175 12.46-6.752 0-12.175-5.49-12.175-12.46 0-6.972 5.479-12.406 12.175-12.406C122.195.22 127.508 5.6 127.508 12.68zm-2.933 0c0-5.49-4.04-9.661-9.187-9.661-5.036 0-9.186 4.226-9.186 9.66s4.15 9.66 9.186 9.66c5.037 0 9.187-4.28 9.187-9.66z"/>
        <path fill="#A90D21" d="M129.722 23.492a.77.77 0 0 0-.11.824.97.97 0 0 0 .774.384h4.095c1.163 0 1.55-.274 1.882-.604.11-.11.221-.274.388-.439l7.139-10.978h-6.807l-7.361 10.813z"/>
        <path fill="#F40D21" d="M136.363 2.305c-.443-.549-.664-1.043-2.269-1.043h-3.708c-.277 0-.443.11-.609.22-.276.22-.387.659-.055.988l7.36 10.21h6.808l-7.527-10.375c.055 0 .055 0 0 0z"/>
        <path fill="#FFF" d="M142.23 6.806l3.597-5.489h5.479l-6.199 9.606zM145.052 14.546l6.53 10.154h-5.81l-3.598-5.654z"/>
        <g fill="#FFF">
            <path d="M5.167 33.794h-2.28c-.111 0-.222-.106-.222-.212s.11-.211.222-.211h5.115c.111 0 .222.105.222.211s-.11.212-.222.212h-2.28v6.194c0 .16-.11.265-.277.265-.167 0-.278-.106-.278-.265v-6.194zM10.393 33.476c0-.158.184-.317.554-.317.277 0 .554.106.554.317v.16c0 .158-.277.317-.554.317s-.554-.106-.554-.318v-.159zm.092 1.906c0-.158.185-.264.37-.264.276 0 .46.106.46.264v4.606c0 .16-.184.265-.368.265-.277 0-.462-.106-.462-.265v-4.606zM13.228 37.712a2.661 2.661 0 0 1 2.669-2.647c.89 0 1.5.37 2.001.794.056.053.056.106.056.159 0 .158-.111.264-.278.264-.056 0-.111 0-.167-.053-.445-.37-.89-.688-1.612-.688-1.168 0-2.113.953-2.113 2.17 0 1.218.945 2.171 2.168 2.171.668 0 1.224-.317 1.668-.74.056-.054.111-.054.167-.054.111 0 .222.106.222.212 0 .053 0 .106-.055.159-.5.53-1.112.847-2.002.847-1.556 0-2.724-1.165-2.724-2.594zM20.122 33.265c0-.16.111-.265.223-.265.166 0 .278.106.278.265V38.4l3.224-3.176c.056-.053.111-.053.167-.053.111 0 .222.105.222.211 0 .053 0 .106-.055.16l-1.946 1.852 2.057 2.435c.056.053.056.106.056.16 0 .158-.112.211-.223.211s-.167-.053-.222-.106l-2.002-2.33-1.278 1.218v1.006c0 .16-.112.265-.223.265-.167 0-.278-.106-.278-.265v-6.723zM28.517 40.306c-1.39 0-2.557-1.059-2.557-2.594 0-1.43 1.056-2.594 2.502-2.594 1.445 0 2.39 1.164 2.39 2.594 0 .106-.11.212-.222.212h-4.114c.111 1.27 1 1.958 2.057 1.958.778 0 1.279-.317 1.723-.688.056-.053.112-.053.167-.053.111 0 .223.106.223.212 0 .053 0 .106-.056.159-.556.476-1.168.794-2.113.794zm1.78-2.859c-.056-1.006-.668-1.959-1.89-1.959-1.057 0-1.836.847-1.947 1.96h3.836zM33.187 38.93v-3.283h-.556c-.11 0-.222-.106-.222-.212s.111-.211.222-.211h.556v-1.377c0-.159.112-.265.223-.265.167 0 .278.106.278.265v1.377h1.668c.11 0 .222.105.222.211s-.111.212-.222.212h-1.668v3.23c0 .74.445.952 1.056.952.334 0 .5-.105.612-.105.11 0 .222.105.222.211s-.055.16-.167.212a2.947 2.947 0 0 1-.722.106c-.834.053-1.502-.37-1.502-1.324zM41.86 33.582c0-.158.112-.264.279-.264h2.112c2.28 0 3.836 1.482 3.836 3.388s-1.556 3.441-3.836 3.441H42.14c-.167 0-.278-.106-.278-.265v-6.3zm2.391 6.142c2.002 0 3.28-1.324 3.28-2.965 0-1.641-1.278-2.965-3.28-2.965h-1.834v5.93h1.834zM50.534 33.476c0-.158.184-.317.554-.317.277 0 .554.106.554.317v.16c0 .158-.277.317-.554.317s-.554-.106-.554-.318v-.159zm.092 1.906c0-.158.185-.264.37-.264.276 0 .46.106.46.264v4.606c0 .16-.184.265-.368.265-.277 0-.462-.106-.462-.265v-4.606zM53.314 39.67c-.056-.052-.112-.105-.112-.211s.112-.212.223-.212c.055 0 .11 0 .167.053.556.37 1.111.582 1.723.582.723 0 1.279-.37 1.279-.953 0-.582-.667-.794-1.39-1.005-.834-.212-1.78-.477-1.78-1.377 0-.794.724-1.376 1.724-1.376.556 0 1.168.158 1.724.476.055.053.111.106.111.212s-.111.212-.222.212c-.056 0-.112 0-.167-.053-.445-.265-.945-.424-1.446-.424-.722 0-1.167.37-1.167.847 0 .583.722.741 1.445.953.834.212 1.724.53 1.724 1.377 0 .9-.779 1.482-1.835 1.482-.667.053-1.445-.212-2.001-.582zM59.763 38.93v-3.283h-.556c-.111 0-.223-.106-.223-.212s.112-.211.223-.211h.556v-1.377c0-.159.111-.265.222-.265.167 0 .278.106.278.265v1.377h1.668c.111 0 .222.105.222.211s-.11.212-.222.212h-1.668v3.23c0 .74.445.952 1.057.952.333 0 .5-.105.611-.105.111 0 .222.105.222.211s-.055.16-.166.212c-.223.053-.445.106-.723.106-.89.053-1.501-.37-1.501-1.324zM64.155 35.382c0-.158.111-.264.222-.264.167 0 .278.106.278.264V36.6c.445-.953 1.39-1.482 2.113-1.482.167 0 .278.106.278.264 0 .16-.111.265-.278.265-1.112.106-2.113.9-2.113 2.488v1.853c0 .16-.11.265-.222.265-.167 0-.278-.106-.278-.265v-4.606zM68.936 33.476c0-.158.185-.317.554-.317.277 0 .554.106.554.317v.16c0 .158-.277.317-.554.317s-.554-.106-.554-.318v-.159zm.093 1.906c0-.158.184-.264.369-.264.277 0 .462.106.462.264v4.606c0 .16-.185.265-.37.265-.277 0-.461-.106-.461-.265v-4.606zM72.16 33.265c0-.16.112-.265.223-.265.167 0 .278.106.278.265v3.07c.445-.635 1.112-1.217 2.169-1.217 1.278 0 2.557.953 2.557 2.594 0 1.64-1.279 2.594-2.557 2.594-1.057 0-1.724-.582-2.169-1.218v.847c0 .16-.11.265-.222.265-.167 0-.278-.106-.278-.265v-6.67zm4.671 4.447c0-1.324-.945-2.17-2.057-2.17s-2.113.846-2.113 2.17c0 1.27 1.057 2.17 2.113 2.17 1.112 0 2.057-.794 2.057-2.17zM84.059 39.988c0 .16-.111.265-.223.265-.166 0-.278-.106-.278-.265v-.74c-.333.581-.945 1.058-1.89 1.058-1.334 0-2.113-.847-2.113-2.065v-2.859c0-.158.112-.264.223-.264.167 0 .278.106.278.264v2.753c0 1.006.611 1.694 1.668 1.694 1 0 1.834-.74 1.834-1.8v-2.7c0-.158.112-.264.223-.264.167 0 .278.106.278.264v4.66zM86.839 38.93v-3.283h-.556c-.112 0-.223-.106-.223-.212s.111-.211.223-.211h.556v-1.377c0-.159.11-.265.222-.265.167 0 .278.106.278.265v1.377h1.668c.111 0 .222.105.222.211s-.111.212-.222.212h-1.668v3.23c0 .74.445.952 1.056.952.334 0 .5-.105.612-.105.111 0 .222.105.222.211s-.055.16-.167.212a2.947 2.947 0 0 1-.722.106c-.834.053-1.501-.37-1.501-1.324zM91.23 33.476c0-.158.185-.317.555-.317.277 0 .554.106.554.317v.16c0 .158-.277.317-.554.317s-.554-.106-.554-.318v-.159zm.185 1.906c0-.158.185-.264.37-.264.184 0 .461.106.461.264v4.606c0 .16-.184.265-.369.265-.277 0-.462-.106-.462-.265v-4.606zM94.066 37.712c0-1.43 1.168-2.647 2.724-2.647 1.557 0 2.67 1.217 2.67 2.594 0 1.376-1.168 2.594-2.725 2.594-1.501.053-2.669-1.112-2.669-2.541zm4.893 0c0-1.218-.945-2.17-2.169-2.17-1.223 0-2.112.952-2.112 2.17 0 1.217.945 2.17 2.168 2.17 1.168 0 2.113-1.006 2.113-2.17zM101.739 35.382c0-.158.11-.264.222-.264.167 0 .278.106.278.264v.742c.334-.583.945-1.06 1.89-1.06 1.335 0 2.113.848 2.113 2.065v2.86c0 .158-.111.264-.222.264-.167 0-.278-.106-.278-.265v-2.753c0-1.006-.612-1.694-1.668-1.694-1.001 0-1.835.741-1.835 1.8v2.7c0 .159-.111.265-.222.265-.167 0-.278-.106-.278-.265v-4.659zM112.58 39.353c-.056-.053-.111-.106-.111-.212 0-.159.111-.265.278-.265.055 0 .111.053.167.053.722.636 1.445.9 2.446.9 1.056 0 1.835-.582 1.835-1.376 0-.741-.39-1.165-2.058-1.482-1.723-.318-2.446-.9-2.446-1.906 0-1.006 1-1.8 2.335-1.8.945 0 1.613.211 2.28.688.055.053.11.106.11.212 0 .159-.11.264-.277.264-.056 0-.111 0-.167-.053-.611-.476-1.279-.635-2.001-.635-1.057 0-1.78.583-1.78 1.27 0 .742.39 1.165 2.113 1.483 1.668.318 2.39.9 2.39 1.906 0 1.112-1 1.853-2.39 1.853-1.056.053-1.89-.265-2.724-.9zM119.363 41.63c-.056-.054-.167-.106-.167-.212s.111-.212.222-.212c.056 0 .112 0 .167.053.167.053.334.106.667.106.556 0 .946-.37 1.28-1.112l.055-.053-2.335-4.606c0-.053-.056-.106-.056-.159 0-.159.111-.264.278-.264.167 0 .222.105.278.211l2.113 4.289 1.834-4.342c.056-.105.112-.158.223-.158.167 0 .278.105.278.264 0 .053 0 .053-.056.106l-2.113 4.818c-.444 1.059-1 1.43-1.723 1.43-.39 0-.667-.054-.945-.16zM125.868 39.67c-.056-.052-.112-.105-.112-.211s.112-.212.223-.212c.055 0 .111 0 .167.053.556.37 1.112.582 1.723.582.723 0 1.279-.37 1.279-.953 0-.582-.667-.794-1.39-1.005-.834-.212-1.78-.477-1.78-1.377 0-.794.724-1.376 1.724-1.376.556 0 1.168.158 1.724.476.055.053.111.106.111.212s-.111.212-.222.212c-.056 0-.112 0-.167-.053-.445-.265-.945-.424-1.446-.424-.722 0-1.167.37-1.167.847 0 .583.723.741 1.445.953.834.212 1.724.53 1.724 1.377 0 .9-.778 1.482-1.835 1.482-.667.053-1.445-.212-2.001-.582zM132.317 38.93v-3.283h-.556c-.111 0-.222-.106-.222-.212s.11-.211.222-.211h.556v-1.377c0-.159.111-.265.222-.265.167 0 .278.106.278.265v1.377h1.668c.111 0 .223.105.223.211s-.112.212-.223.212h-1.668v3.23c0 .74.445.952 1.057.952.333 0 .5-.105.611-.105.111 0 .223.105.223.211s-.056.16-.167.212a2.947 2.947 0 0 1-.723.106c-.834.053-1.501-.37-1.501-1.324zM138.655 40.306c-1.39 0-2.557-1.059-2.557-2.594 0-1.43 1.056-2.594 2.501-2.594 1.446 0 2.391 1.164 2.391 2.594 0 .106-.111.212-.222.212h-4.115c.112 1.27 1.001 1.958 2.058 1.958.722 0 1.278-.317 1.723-.688.056-.053.111-.053.167-.053.111 0 .222.106.222.212 0 .053 0 .106-.055.159-.556.476-1.168.794-2.113.794zm1.78-2.859c-.057-1.006-.668-1.959-1.891-1.959-1.057 0-1.835.847-1.946 1.96h3.836zM143.214 35.382c0-.158.111-.264.222-.264.167 0 .278.106.278.264v.689c.334-.53.834-1.006 1.724-1.006s1.5.476 1.779 1.059c.334-.583.89-1.06 1.89-1.06 1.223 0 2.002.848 2.002 2.065v2.806c0 .16-.111.265-.223.265-.166 0-.278-.106-.278-.265v-2.7c0-1.059-.611-1.694-1.556-1.694-.89 0-1.668.635-1.668 1.747v2.7c0 .16-.111.265-.223.265-.166 0-.278-.106-.278-.265v-2.806c0-1.058-.611-1.694-1.556-1.694-.946 0-1.668.794-1.668 1.8v2.7c0 .16-.111.265-.223.265-.166 0-.278-.106-.278-.265v-4.606h.056z"/>
        </g>
    </g>
</svg>
